%TF.GenerationSoftware,KiCad,Pcbnew,10.0.1*%
%TF.CreationDate,2026-08-11T19:25:47+02:00*%
%TF.ProjectId,pico2-expansion-card,7069636f-322d-4657-9870-616e73696f6e,rev?*%
%TF.SameCoordinates,Original*%
%TF.FileFunction,Legend,Bot*%
%TF.FilePolarity,Positive*%
%FSLAX46Y46*%
G04 Gerber Fmt 4.6, Leading zero omitted, Abs format (unit mm)*
G04 Created by KiCad (PCBNEW 10.0.1) date 2026-08-11 19:25:47*
%MOMM*%
%LPD*%
G01*
G04 APERTURE LIST*
%ADD10C,0.050000*%
G04 APERTURE END LIST*
D10*
X180971867Y-99448447D02*
X180971867Y-99048447D01*
X180971867Y-99048447D02*
X180838534Y-99334161D01*
X180838534Y-99334161D02*
X180705201Y-99048447D01*
X180705201Y-99048447D02*
X180705201Y-99448447D01*
X180343296Y-99448447D02*
X180343296Y-99238923D01*
X180343296Y-99238923D02*
X180362343Y-99200828D01*
X180362343Y-99200828D02*
X180400439Y-99181780D01*
X180400439Y-99181780D02*
X180476629Y-99181780D01*
X180476629Y-99181780D02*
X180514724Y-99200828D01*
X180343296Y-99429400D02*
X180381391Y-99448447D01*
X180381391Y-99448447D02*
X180476629Y-99448447D01*
X180476629Y-99448447D02*
X180514724Y-99429400D01*
X180514724Y-99429400D02*
X180533772Y-99391304D01*
X180533772Y-99391304D02*
X180533772Y-99353209D01*
X180533772Y-99353209D02*
X180514724Y-99315114D01*
X180514724Y-99315114D02*
X180476629Y-99296066D01*
X180476629Y-99296066D02*
X180381391Y-99296066D01*
X180381391Y-99296066D02*
X180343296Y-99277019D01*
X179981391Y-99448447D02*
X179981391Y-99048447D01*
X179981391Y-99429400D02*
X180019486Y-99448447D01*
X180019486Y-99448447D02*
X180095677Y-99448447D01*
X180095677Y-99448447D02*
X180133772Y-99429400D01*
X180133772Y-99429400D02*
X180152819Y-99410352D01*
X180152819Y-99410352D02*
X180171867Y-99372257D01*
X180171867Y-99372257D02*
X180171867Y-99257971D01*
X180171867Y-99257971D02*
X180152819Y-99219876D01*
X180152819Y-99219876D02*
X180133772Y-99200828D01*
X180133772Y-99200828D02*
X180095677Y-99181780D01*
X180095677Y-99181780D02*
X180019486Y-99181780D01*
X180019486Y-99181780D02*
X179981391Y-99200828D01*
X179638533Y-99429400D02*
X179676629Y-99448447D01*
X179676629Y-99448447D02*
X179752819Y-99448447D01*
X179752819Y-99448447D02*
X179790914Y-99429400D01*
X179790914Y-99429400D02*
X179809962Y-99391304D01*
X179809962Y-99391304D02*
X179809962Y-99238923D01*
X179809962Y-99238923D02*
X179790914Y-99200828D01*
X179790914Y-99200828D02*
X179752819Y-99181780D01*
X179752819Y-99181780D02*
X179676629Y-99181780D01*
X179676629Y-99181780D02*
X179638533Y-99200828D01*
X179638533Y-99200828D02*
X179619486Y-99238923D01*
X179619486Y-99238923D02*
X179619486Y-99277019D01*
X179619486Y-99277019D02*
X179809962Y-99315114D01*
X179143295Y-99448447D02*
X179143295Y-99181780D01*
X179143295Y-99048447D02*
X179162343Y-99067495D01*
X179162343Y-99067495D02*
X179143295Y-99086542D01*
X179143295Y-99086542D02*
X179124248Y-99067495D01*
X179124248Y-99067495D02*
X179143295Y-99048447D01*
X179143295Y-99048447D02*
X179143295Y-99086542D01*
X178952819Y-99181780D02*
X178952819Y-99448447D01*
X178952819Y-99219876D02*
X178933772Y-99200828D01*
X178933772Y-99200828D02*
X178895677Y-99181780D01*
X178895677Y-99181780D02*
X178838534Y-99181780D01*
X178838534Y-99181780D02*
X178800438Y-99200828D01*
X178800438Y-99200828D02*
X178781391Y-99238923D01*
X178781391Y-99238923D02*
X178781391Y-99448447D01*
X178343295Y-99048447D02*
X178114724Y-99048447D01*
X178229010Y-99448447D02*
X178229010Y-99048447D01*
X177809962Y-99181780D02*
X177809962Y-99448447D01*
X177981390Y-99181780D02*
X177981390Y-99391304D01*
X177981390Y-99391304D02*
X177962343Y-99429400D01*
X177962343Y-99429400D02*
X177924248Y-99448447D01*
X177924248Y-99448447D02*
X177867105Y-99448447D01*
X177867105Y-99448447D02*
X177829009Y-99429400D01*
X177829009Y-99429400D02*
X177809962Y-99410352D01*
X177962343Y-99048447D02*
X177943295Y-99067495D01*
X177943295Y-99067495D02*
X177962343Y-99086542D01*
X177962343Y-99086542D02*
X177981390Y-99067495D01*
X177981390Y-99067495D02*
X177962343Y-99048447D01*
X177962343Y-99048447D02*
X177962343Y-99086542D01*
X177809962Y-99048447D02*
X177790914Y-99067495D01*
X177790914Y-99067495D02*
X177809962Y-99086542D01*
X177809962Y-99086542D02*
X177829009Y-99067495D01*
X177829009Y-99067495D02*
X177809962Y-99048447D01*
X177809962Y-99048447D02*
X177809962Y-99086542D01*
X177619485Y-99448447D02*
X177619485Y-99181780D01*
X177619485Y-99257971D02*
X177600438Y-99219876D01*
X177600438Y-99219876D02*
X177581390Y-99200828D01*
X177581390Y-99200828D02*
X177543295Y-99181780D01*
X177543295Y-99181780D02*
X177505200Y-99181780D01*
X177371866Y-99448447D02*
X177371866Y-99048447D01*
X177333771Y-99296066D02*
X177219485Y-99448447D01*
X177219485Y-99181780D02*
X177371866Y-99334161D01*
X177048056Y-99448447D02*
X177048056Y-99181780D01*
X177048056Y-99048447D02*
X177067104Y-99067495D01*
X177067104Y-99067495D02*
X177048056Y-99086542D01*
X177048056Y-99086542D02*
X177029009Y-99067495D01*
X177029009Y-99067495D02*
X177048056Y-99048447D01*
X177048056Y-99048447D02*
X177048056Y-99086542D01*
X176895676Y-99181780D02*
X176800438Y-99448447D01*
X176705199Y-99181780D02*
X176800438Y-99448447D01*
X176800438Y-99448447D02*
X176838533Y-99543685D01*
X176838533Y-99543685D02*
X176857580Y-99562733D01*
X176857580Y-99562733D02*
X176895676Y-99581780D01*
X176400437Y-99429400D02*
X176438533Y-99448447D01*
X176438533Y-99448447D02*
X176514723Y-99448447D01*
X176514723Y-99448447D02*
X176552818Y-99429400D01*
X176552818Y-99429400D02*
X176571866Y-99391304D01*
X176571866Y-99391304D02*
X176571866Y-99238923D01*
X176571866Y-99238923D02*
X176552818Y-99200828D01*
X176552818Y-99200828D02*
X176514723Y-99181780D01*
X176514723Y-99181780D02*
X176438533Y-99181780D01*
X176438533Y-99181780D02*
X176400437Y-99200828D01*
X176400437Y-99200828D02*
X176381390Y-99238923D01*
X176381390Y-99238923D02*
X176381390Y-99277019D01*
X176381390Y-99277019D02*
X176571866Y-99315114D01*
M02*
