M48
; DRILL file KiCad 10.0.1 date 2026-08-12T20:21:38
; FORMAT={-:-/ absolute / metric / decimal}
; #@! TF.CreationDate,2026-08-12T20:21:38+02:00
; #@! TF.GenerationSoftware,Kicad,Pcbnew,10.0.1
; #@! TF.FileFunction,Plated,1,2,PTH
FMAT,2
METRIC
; #@! TA.AperFunction,Plated,PTH,ComponentDrill
T1C0.250
; #@! TA.AperFunction,Plated,PTH,ViaDrill
T2C0.300
%
G90
G05
T1
X103.5Y-72.5
X103.5Y-73.875
X103.5Y-75.25
X104.875Y-72.5
X104.875Y-73.875
X104.875Y-75.25
X106.25Y-72.5
X106.25Y-73.875
X106.25Y-75.25
T2
X92.787Y-83.325
X94.387Y-59.225
X95.787Y-82.725
X96.587Y-80.325
X96.787Y-77.025
X97.487Y-72.025
X97.487Y-80.125
X98.287Y-71.025
X98.587Y-64.825
X98.688Y-59.725
X98.688Y-85.525
X99.387Y-81.725
X99.587Y-77.125
X99.887Y-62.725
X100.987Y-80.825
X101.587Y-65.925
X102.188Y-81.525
X102.2Y-64.2
X102.219Y-73.05
X102.587Y-72.125
X102.854Y-75.958
X103.287Y-68.825
X104.483Y-68.43
X104.886Y-76.541
X106.123Y-71.373
X106.287Y-67.525
X106.367Y-83.775
X106.487Y-76.025
X106.98Y-68.918
X107.287Y-73.525
X107.287Y-76.025
X107.387Y-71.725
X107.675Y-78.412
X107.787Y-79.925
X109.387Y-69.825
X109.387Y-77.625
X109.487Y-72.055
X110.037Y-70.575
X110.287Y-79.025
X110.688Y-66.225
X111.287Y-70.225
X111.387Y-64.525
X111.887Y-74.725
X112.487Y-63.425
X112.887Y-73.325
X114.188Y-71.025
X114.787Y-64.425
X115.387Y-63.425
X116.087Y-65.625
X116.587Y-74.625
M30
