M48
; DRILL file KiCad 10.0.1 date 2026-08-11T19:25:44
; FORMAT={-:-/ absolute / metric / decimal}
; #@! TF.CreationDate,2026-08-11T19:25:44+02:00
; #@! TF.GenerationSoftware,Kicad,Pcbnew,10.0.1
; #@! TF.FileFunction,Plated,1,2,PTH
FMAT,2
METRIC
; #@! TA.AperFunction,Plated,PTH,ComponentDrill
T1C0.250
; #@! TA.AperFunction,Plated,PTH,ViaDrill
T2C0.300
%
G90
G05
T1
X167.812Y-85.475
X167.812Y-86.85
X167.812Y-88.225
X169.188Y-85.475
X169.188Y-86.85
X169.188Y-88.225
X170.562Y-85.475
X170.562Y-86.85
X170.562Y-88.225
T2
X157.1Y-96.3
X158.1Y-82.9
X158.7Y-72.2
X160.1Y-95.7
X160.4Y-83.6
X160.9Y-93.3
X161.1Y-90.0
X161.8Y-85.0
X161.8Y-93.1
X162.6Y-84.0
X162.9Y-77.8
X163.0Y-72.7
X163.0Y-98.5
X163.7Y-94.7
X163.9Y-90.1
X164.2Y-75.7
X165.3Y-93.8
X166.5Y-94.5
X166.531Y-86.025
X166.6Y-77.2
X166.9Y-85.1
X167.167Y-88.933
X167.6Y-81.8
X168.795Y-81.405
X169.198Y-89.516
X170.436Y-84.348
X170.8Y-89.0
X170.85Y-93.9
X171.292Y-81.892
X171.6Y-86.5
X171.6Y-89.0
X171.7Y-84.7
X171.987Y-91.388
X172.1Y-92.9
X173.7Y-82.8
X173.7Y-90.6
X173.8Y-85.03
X174.35Y-83.55
X174.6Y-92.0
X175.0Y-79.2
X175.6Y-83.2
X175.7Y-77.5
X176.2Y-87.7
X176.8Y-76.6
X177.2Y-86.3
X178.3Y-81.0
X178.5Y-84.0
X179.7Y-76.6
X179.7Y-85.3
X180.4Y-78.6
M30
