%TF.GenerationSoftware,KiCad,Pcbnew,10.0.1*%
%TF.CreationDate,2026-08-12T02:55:10+02:00*%
%TF.ProjectId,pico2-expansion-card,7069636f-322d-4657-9870-616e73696f6e,rev?*%
%TF.SameCoordinates,Original*%
%TF.FileFunction,Copper,L1,Top*%
%TF.FilePolarity,Positive*%
%FSLAX46Y46*%
G04 Gerber Fmt 4.6, Leading zero omitted, Abs format (unit mm)*
G04 Created by KiCad (PCBNEW 10.0.1) date 2026-08-12 02:55:10*
%MOMM*%
%LPD*%
G01*
G04 APERTURE LIST*
G04 Aperture macros list*
%AMRoundRect*
0 Rectangle with rounded corners*
0 $1 Rounding radius*
0 $2 $3 $4 $5 $6 $7 $8 $9 X,Y pos of 4 corners*
0 Add a 4 corners polygon primitive as box body*
4,1,4,$2,$3,$4,$5,$6,$7,$8,$9,$2,$3,0*
0 Add four circle primitives for the rounded corners*
1,1,$1+$1,$2,$3*
1,1,$1+$1,$4,$5*
1,1,$1+$1,$6,$7*
1,1,$1+$1,$8,$9*
0 Add four rect primitives between the rounded corners*
20,1,$1+$1,$2,$3,$4,$5,0*
20,1,$1+$1,$4,$5,$6,$7,0*
20,1,$1+$1,$6,$7,$8,$9,0*
20,1,$1+$1,$8,$9,$2,$3,0*%
%AMFreePoly0*
4,1,18,-0.437500,0.050000,-0.433694,0.069134,-0.422855,0.085355,-0.406634,0.096194,-0.387500,0.100000,0.387500,0.100000,0.437500,0.050000,0.437500,-0.050000,0.433694,-0.069134,0.422855,-0.085355,0.406634,-0.096194,0.387500,-0.100000,-0.387500,-0.100000,-0.406634,-0.096194,-0.422855,-0.085355,-0.433694,-0.069134,-0.437500,-0.050000,-0.437500,0.050000,-0.437500,0.050000,$1*%
%AMFreePoly1*
4,1,18,-0.437500,0.050000,-0.433694,0.069134,-0.422855,0.085355,-0.406634,0.096194,-0.387500,0.100000,0.387500,0.100000,0.406634,0.096194,0.422855,0.085355,0.433694,0.069134,0.437500,0.050000,0.437500,-0.050000,0.387500,-0.100000,-0.387500,-0.100000,-0.406634,-0.096194,-0.422855,-0.085355,-0.433694,-0.069134,-0.437500,-0.050000,-0.437500,0.050000,-0.437500,0.050000,$1*%
%AMFreePoly2*
4,1,18,-0.100000,0.387500,-0.050000,0.437500,0.050000,0.437500,0.069134,0.433694,0.085355,0.422855,0.096194,0.406634,0.100000,0.387500,0.100000,-0.387500,0.096194,-0.406634,0.085355,-0.422855,0.069134,-0.433694,0.050000,-0.437500,-0.050000,-0.437500,-0.069134,-0.433694,-0.085355,-0.422855,-0.096194,-0.406634,-0.100000,-0.387500,-0.100000,0.387500,-0.100000,0.387500,$1*%
%AMFreePoly3*
4,1,18,-0.100000,0.387500,-0.096194,0.406634,-0.085355,0.422855,-0.069134,0.433694,-0.050000,0.437500,0.050000,0.437500,0.100000,0.387500,0.100000,-0.387500,0.096194,-0.406634,0.085355,-0.422855,0.069134,-0.433694,0.050000,-0.437500,-0.050000,-0.437500,-0.069134,-0.433694,-0.085355,-0.422855,-0.096194,-0.406634,-0.100000,-0.387500,-0.100000,0.387500,-0.100000,0.387500,$1*%
%AMFreePoly4*
4,1,18,-0.437500,0.050000,-0.433694,0.069134,-0.422855,0.085355,-0.406634,0.096194,-0.387500,0.100000,0.387500,0.100000,0.406634,0.096194,0.422855,0.085355,0.433694,0.069134,0.437500,0.050000,0.437500,-0.050000,0.433694,-0.069134,0.422855,-0.085355,0.406634,-0.096194,0.387500,-0.100000,-0.387500,-0.100000,-0.437500,-0.050000,-0.437500,0.050000,-0.437500,0.050000,$1*%
%AMFreePoly5*
4,1,18,-0.437500,0.050000,-0.387500,0.100000,0.387500,0.100000,0.406634,0.096194,0.422855,0.085355,0.433694,0.069134,0.437500,0.050000,0.437500,-0.050000,0.433694,-0.069134,0.422855,-0.085355,0.406634,-0.096194,0.387500,-0.100000,-0.387500,-0.100000,-0.406634,-0.096194,-0.422855,-0.085355,-0.433694,-0.069134,-0.437500,-0.050000,-0.437500,0.050000,-0.437500,0.050000,$1*%
%AMFreePoly6*
4,1,18,-0.100000,0.387500,-0.096194,0.406634,-0.085355,0.422855,-0.069134,0.433694,-0.050000,0.437500,0.050000,0.437500,0.069134,0.433694,0.085355,0.422855,0.096194,0.406634,0.100000,0.387500,0.100000,-0.387500,0.050000,-0.437500,-0.050000,-0.437500,-0.069134,-0.433694,-0.085355,-0.422855,-0.096194,-0.406634,-0.100000,-0.387500,-0.100000,0.387500,-0.100000,0.387500,$1*%
%AMFreePoly7*
4,1,18,-0.100000,0.387500,-0.096194,0.406634,-0.085355,0.422855,-0.069134,0.433694,-0.050000,0.437500,0.050000,0.437500,0.069134,0.433694,0.085355,0.422855,0.096194,0.406634,0.100000,0.387500,0.100000,-0.387500,0.096194,-0.406634,0.085355,-0.422855,0.069134,-0.433694,0.050000,-0.437500,-0.050000,-0.437500,-0.100000,-0.387500,-0.100000,0.387500,-0.100000,0.387500,$1*%
%AMFreePoly8*
4,1,8,0.524900,-0.650100,-0.125000,-0.650100,-0.125000,-0.000100,-0.525000,-0.000100,-0.525100,0.000000,-0.525100,0.649900,0.524900,0.649900,0.524900,-0.650100,0.524900,-0.650100,$1*%
%AMFreePoly9*
4,1,8,0.525200,0.000000,0.525100,-0.000100,0.125100,-0.000100,0.125100,-0.650100,-0.524800,-0.650100,-0.524800,0.649900,0.525200,0.649900,0.525200,0.000000,0.525200,0.000000,$1*%
G04 Aperture macros list end*
%TA.AperFunction,SMDPad,CuDef*%
%ADD10RoundRect,0.140000X-0.140000X-0.170000X0.140000X-0.170000X0.140000X0.170000X-0.140000X0.170000X0*%
%TD*%
%TA.AperFunction,SMDPad,CuDef*%
%ADD11RoundRect,0.140000X0.140000X0.170000X-0.140000X0.170000X-0.140000X-0.170000X0.140000X-0.170000X0*%
%TD*%
%TA.AperFunction,SMDPad,CuDef*%
%ADD12RoundRect,0.135000X-0.185000X0.135000X-0.185000X-0.135000X0.185000X-0.135000X0.185000X0.135000X0*%
%TD*%
%TA.AperFunction,SMDPad,CuDef*%
%ADD13R,0.470000X0.530000*%
%TD*%
%TA.AperFunction,SMDPad,CuDef*%
%ADD14FreePoly0,0.000000*%
%TD*%
%TA.AperFunction,SMDPad,CuDef*%
%ADD15RoundRect,0.050000X-0.387500X-0.050000X0.387500X-0.050000X0.387500X0.050000X-0.387500X0.050000X0*%
%TD*%
%TA.AperFunction,SMDPad,CuDef*%
%ADD16FreePoly1,0.000000*%
%TD*%
%TA.AperFunction,SMDPad,CuDef*%
%ADD17FreePoly2,0.000000*%
%TD*%
%TA.AperFunction,SMDPad,CuDef*%
%ADD18RoundRect,0.050000X-0.050000X-0.387500X0.050000X-0.387500X0.050000X0.387500X-0.050000X0.387500X0*%
%TD*%
%TA.AperFunction,SMDPad,CuDef*%
%ADD19FreePoly3,0.000000*%
%TD*%
%TA.AperFunction,SMDPad,CuDef*%
%ADD20FreePoly4,0.000000*%
%TD*%
%TA.AperFunction,SMDPad,CuDef*%
%ADD21FreePoly5,0.000000*%
%TD*%
%TA.AperFunction,SMDPad,CuDef*%
%ADD22FreePoly6,0.000000*%
%TD*%
%TA.AperFunction,SMDPad,CuDef*%
%ADD23FreePoly7,0.000000*%
%TD*%
%TA.AperFunction,ComponentPad*%
%ADD24C,0.600000*%
%TD*%
%TA.AperFunction,SMDPad,CuDef*%
%ADD25RoundRect,0.153000X1.547000X-1.547000X1.547000X1.547000X-1.547000X1.547000X-1.547000X-1.547000X0*%
%TD*%
%TA.AperFunction,SMDPad,CuDef*%
%ADD26C,1.000000*%
%TD*%
%TA.AperFunction,SMDPad,CuDef*%
%ADD27RoundRect,0.135000X0.185000X-0.135000X0.185000X0.135000X-0.185000X0.135000X-0.185000X-0.135000X0*%
%TD*%
%TA.AperFunction,SMDPad,CuDef*%
%ADD28RoundRect,0.250000X0.450000X0.350000X-0.450000X0.350000X-0.450000X-0.350000X0.450000X-0.350000X0*%
%TD*%
%TA.AperFunction,SMDPad,CuDef*%
%ADD29RoundRect,0.135000X0.135000X0.185000X-0.135000X0.185000X-0.135000X-0.185000X0.135000X-0.185000X0*%
%TD*%
%TA.AperFunction,SMDPad,CuDef*%
%ADD30RoundRect,0.250000X0.475000X-0.250000X0.475000X0.250000X-0.475000X0.250000X-0.475000X-0.250000X0*%
%TD*%
%TA.AperFunction,SMDPad,CuDef*%
%ADD31RoundRect,0.150000X-0.150000X-0.625000X0.150000X-0.625000X0.150000X0.625000X-0.150000X0.625000X0*%
%TD*%
%TA.AperFunction,SMDPad,CuDef*%
%ADD32RoundRect,0.250000X-0.350000X-0.650000X0.350000X-0.650000X0.350000X0.650000X-0.350000X0.650000X0*%
%TD*%
%TA.AperFunction,SMDPad,CuDef*%
%ADD33RoundRect,0.087500X-0.087500X0.250000X-0.087500X-0.250000X0.087500X-0.250000X0.087500X0.250000X0*%
%TD*%
%TA.AperFunction,SMDPad,CuDef*%
%ADD34RoundRect,0.140000X-0.170000X0.140000X-0.170000X-0.140000X0.170000X-0.140000X0.170000X0.140000X0*%
%TD*%
%TA.AperFunction,SMDPad,CuDef*%
%ADD35RoundRect,0.140000X0.170000X-0.140000X0.170000X0.140000X-0.170000X0.140000X-0.170000X-0.140000X0*%
%TD*%
%TA.AperFunction,SMDPad,CuDef*%
%ADD36RoundRect,0.135000X-0.135000X-0.185000X0.135000X-0.185000X0.135000X0.185000X-0.135000X0.185000X0*%
%TD*%
%TA.AperFunction,SMDPad,CuDef*%
%ADD37RoundRect,0.087500X0.087500X-0.250000X0.087500X0.250000X-0.087500X0.250000X-0.087500X-0.250000X0*%
%TD*%
%TA.AperFunction,SMDPad,CuDef*%
%ADD38R,0.600000X1.200000*%
%TD*%
%TA.AperFunction,SMDPad,CuDef*%
%ADD39FreePoly8,180.000000*%
%TD*%
%TA.AperFunction,SMDPad,CuDef*%
%ADD40FreePoly9,180.000000*%
%TD*%
%TA.AperFunction,SMDPad,CuDef*%
%ADD41RoundRect,0.250000X-0.475000X0.250000X-0.475000X-0.250000X0.475000X-0.250000X0.475000X0.250000X0*%
%TD*%
%TA.AperFunction,SMDPad,CuDef*%
%ADD42RoundRect,0.250000X0.250000X0.475000X-0.250000X0.475000X-0.250000X-0.475000X0.250000X-0.475000X0*%
%TD*%
%TA.AperFunction,SMDPad,CuDef*%
%ADD43R,0.500000X2.000000*%
%TD*%
%TA.AperFunction,SMDPad,CuDef*%
%ADD44R,1.500000X1.200000*%
%TD*%
%TA.AperFunction,SMDPad,CuDef*%
%ADD45R,1.200000X1.200000*%
%TD*%
%TA.AperFunction,SMDPad,CuDef*%
%ADD46R,0.250000X1.800000*%
%TD*%
%TA.AperFunction,SMDPad,CuDef*%
%ADD47R,1.000000X1.600000*%
%TD*%
%TA.AperFunction,SMDPad,CuDef*%
%ADD48RoundRect,0.150000X-0.150000X0.512500X-0.150000X-0.512500X0.150000X-0.512500X0.150000X0.512500X0*%
%TD*%
%TA.AperFunction,ViaPad*%
%ADD49C,0.600000*%
%TD*%
%TA.AperFunction,Conductor*%
%ADD50C,0.200000*%
%TD*%
%TA.AperFunction,Conductor*%
%ADD51C,0.127000*%
%TD*%
%TA.AperFunction,Conductor*%
%ADD52C,0.300000*%
%TD*%
%TA.AperFunction,Conductor*%
%ADD53C,0.500000*%
%TD*%
G04 APERTURE END LIST*
D10*
%TO.P,C16,1*%
%TO.N,Net-(C16-Pad1)*%
X138290000Y-137100000D03*
%TO.P,C16,2*%
%TO.N,GND*%
X139250000Y-137100000D03*
%TD*%
D11*
%TO.P,C17,1*%
%TO.N,+1V1*%
X144800000Y-133150000D03*
%TO.P,C17,2*%
%TO.N,GND*%
X143840000Y-133150000D03*
%TD*%
D12*
%TO.P,R2,1*%
%TO.N,/USB_D+*%
X149520000Y-125640000D03*
%TO.P,R2,2*%
%TO.N,Net-(U2-USB_DP)*%
X149520000Y-126660000D03*
%TD*%
D13*
%TO.P,C3,1*%
%TO.N,+1V1*%
X152405000Y-127250000D03*
%TO.P,C3,2*%
%TO.N,GND*%
X153435000Y-127250000D03*
%TD*%
D14*
%TO.P,U2,1,IOVDD_1*%
%TO.N,+3.3V*%
X146270000Y-131100000D03*
D15*
%TO.P,U2,2,GPIO0_2*%
%TO.N,/GPIO0*%
X146270000Y-131500000D03*
%TO.P,U2,3,GPIO1_3*%
%TO.N,/GPIO1*%
X146270000Y-131900000D03*
%TO.P,U2,4,GPIO2_4*%
%TO.N,/GPIO2*%
X146270000Y-132300000D03*
%TO.P,U2,5,GPIO3_5*%
%TO.N,/GPIO3*%
X146270000Y-132700000D03*
%TO.P,U2,6,DVDD_6*%
%TO.N,+1V1*%
X146270000Y-133100000D03*
%TO.P,U2,7,GPIO4_7*%
%TO.N,/GPIO4*%
X146270000Y-133500000D03*
%TO.P,U2,8,GPIO5_8*%
%TO.N,/GPIO5*%
X146270000Y-133900000D03*
%TO.P,U2,9,GPIO6_9*%
%TO.N,/GPIO6*%
X146270000Y-134300000D03*
%TO.P,U2,10,GPIO7_10*%
%TO.N,/GPIO7*%
X146270000Y-134700000D03*
%TO.P,U2,11,IOVDD_11*%
%TO.N,+3.3V*%
X146270000Y-135100000D03*
%TO.P,U2,12,GPIO8_12*%
%TO.N,/GPIO8*%
X146270000Y-135500000D03*
%TO.P,U2,13,GPIO9_13*%
%TO.N,/GPIO9*%
X146270000Y-135900000D03*
%TO.P,U2,14,GPIO10_14*%
%TO.N,/GPIO10*%
X146270000Y-136300000D03*
D16*
%TO.P,U2,15,GPIO11_15*%
%TO.N,/GPIO11*%
X146270000Y-136700000D03*
D17*
%TO.P,U2,16,GPIO12_16*%
%TO.N,/GPIO12*%
X146907500Y-137337500D03*
D18*
%TO.P,U2,17,GPIO13_17*%
%TO.N,/GPIO13*%
X147307500Y-137337500D03*
%TO.P,U2,18,GPIO14_18*%
%TO.N,/GPIO14*%
X147707500Y-137337500D03*
%TO.P,U2,19,GPIO15_19*%
%TO.N,/GPIO15*%
X148107500Y-137337500D03*
%TO.P,U2,20,IOVDD_20*%
%TO.N,+3.3V*%
X148507500Y-137337500D03*
%TO.P,U2,21,XIN_21*%
%TO.N,/XIN*%
X148907500Y-137337500D03*
%TO.P,U2,22,XOUT_22*%
%TO.N,/XOUT*%
X149307500Y-137337500D03*
%TO.P,U2,23,DVDD_23*%
%TO.N,+1V1*%
X149707500Y-137337500D03*
%TO.P,U2,24,SWCLK_24*%
%TO.N,/SWCLK*%
X150107500Y-137337500D03*
%TO.P,U2,25,SWDIO_25*%
%TO.N,/SWDIO*%
X150507500Y-137337500D03*
%TO.P,U2,26,RUN_26*%
%TO.N,/nRST*%
X150907500Y-137337500D03*
%TO.P,U2,27,GPIO16_27*%
%TO.N,/GPIO16{slash}TX*%
X151307500Y-137337500D03*
%TO.P,U2,28,GPIO17_28*%
%TO.N,/GPIO17{slash}RX*%
X151707500Y-137337500D03*
%TO.P,U2,29,GPIO18_29*%
%TO.N,/GPIO18*%
X152107500Y-137337500D03*
D19*
%TO.P,U2,30,IOVDD_30*%
%TO.N,+3.3V*%
X152507500Y-137337500D03*
D20*
%TO.P,U2,31,GPIO19_31*%
%TO.N,/GPIO19*%
X153145000Y-136700000D03*
D15*
%TO.P,U2,32,GPIO20_32*%
%TO.N,/GPIO20*%
X153145000Y-136300000D03*
%TO.P,U2,33,GPIO21_33*%
%TO.N,/GPIO21*%
X153145000Y-135900000D03*
%TO.P,U2,34,GPIO22_34*%
%TO.N,/GPIO22*%
X153145000Y-135500000D03*
%TO.P,U2,35,GPIO23_35*%
%TO.N,/GPIO23*%
X153145000Y-135100000D03*
%TO.P,U2,36,GPIO24_36*%
%TO.N,/GPIO24*%
X153145000Y-134700000D03*
%TO.P,U2,37,GPIO25_37*%
%TO.N,/GPIO25*%
X153145000Y-134300000D03*
%TO.P,U2,38,IOVDD_38*%
%TO.N,+3.3V*%
X153145000Y-133900000D03*
%TO.P,U2,39,DVDD_39*%
%TO.N,+1V1*%
X153145000Y-133500000D03*
%TO.P,U2,40,GPIO26/ADC0_40*%
%TO.N,/GPIO26{slash}SDA*%
X153145000Y-133100000D03*
%TO.P,U2,41,GPIO27/ADC1_41*%
%TO.N,/GPIO27{slash}SCL*%
X153145000Y-132700000D03*
%TO.P,U2,42,GPIO28/ADC2_42*%
%TO.N,/GPIO28_ADC2*%
X153145000Y-132300000D03*
%TO.P,U2,43,GPIO29/ADC3_43*%
%TO.N,/GPIO29_ADC3*%
X153145000Y-131900000D03*
%TO.P,U2,44,ADC_AVDD_44*%
%TO.N,+3.3V*%
X153145000Y-131500000D03*
D21*
%TO.P,U2,45,IOVDD_45*%
X153145000Y-131100000D03*
D22*
%TO.P,U2,46,VREG_AVDD_46*%
%TO.N,/VREG_AVDD*%
X152507500Y-130462500D03*
D18*
%TO.P,U2,47,VREG_PGND_47*%
%TO.N,GND*%
X152107500Y-130462500D03*
%TO.P,U2,48,VREG_LX_48*%
%TO.N,/VREG_LX*%
X151707500Y-130462500D03*
%TO.P,U2,49,VREG_VIN_49*%
%TO.N,+3.3V*%
X151307500Y-130462500D03*
%TO.P,U2,50,VREG_FB_50*%
%TO.N,+1V1*%
X150907500Y-130462500D03*
%TO.P,U2,51,USB_DM_51*%
%TO.N,Net-(U2-USB_DM)*%
X150507500Y-130462500D03*
%TO.P,U2,52,USB_DP_52*%
%TO.N,Net-(U2-USB_DP)*%
X150107500Y-130462500D03*
%TO.P,U2,53,USB_OTP_VDD_53*%
%TO.N,+3.3V*%
X149707500Y-130462500D03*
%TO.P,U2,54,QSPI_IOVDD_54*%
X149307500Y-130462500D03*
%TO.P,U2,55,QSPI_SD3_55*%
%TO.N,unconnected-(U2-QSPI_SD3-Pad55)*%
X148907500Y-130462500D03*
%TO.P,U2,56,QSPI_SCLK_56*%
%TO.N,unconnected-(U2-QSPI_SCLK-Pad56)*%
X148507500Y-130462500D03*
%TO.P,U2,57,QSPI_SD0_57*%
%TO.N,unconnected-(U2-QSPI_SD0-Pad57)*%
X148107500Y-130462500D03*
%TO.P,U2,58,QSPI_SD2_58*%
%TO.N,unconnected-(U2-QSPI_SD2-Pad58)*%
X147707500Y-130462500D03*
%TO.P,U2,59,QSPI_SD1_59*%
%TO.N,unconnected-(U2-QSPI_SD1-Pad59)*%
X147307500Y-130462500D03*
D23*
%TO.P,U2,60,~{QSPI_SS}_60*%
%TO.N,/~{USB_BOOT}*%
X146907500Y-130462500D03*
D24*
%TO.P,U2,61,GND_61*%
%TO.N,GND*%
X148332500Y-132525000D03*
X148332500Y-133900000D03*
X148332500Y-135275000D03*
X149707500Y-132525000D03*
X149707500Y-133900000D03*
D25*
X149707500Y-133900000D03*
D24*
X149707500Y-135275000D03*
X151082500Y-132525000D03*
X151082500Y-133900000D03*
X151082500Y-135275000D03*
%TD*%
D10*
%TO.P,C23,1*%
%TO.N,GND*%
X147040000Y-138550000D03*
%TO.P,C23,2*%
%TO.N,+3.3V*%
X148000000Y-138550000D03*
%TD*%
D26*
%TO.P,TP1,1,1_1*%
%TO.N,GND*%
X157320000Y-119850000D03*
%TD*%
D27*
%TO.P,R1,1*%
%TO.N,+3.3V*%
X155420000Y-128260000D03*
%TO.P,R1,2*%
%TO.N,/VREG_AVDD*%
X155420000Y-127240000D03*
%TD*%
D26*
%TO.P,TP4,1,1_1*%
%TO.N,/SWDIO*%
X160220000Y-122150000D03*
%TD*%
D28*
%TO.P,Y1,1,1_1*%
%TO.N,/XIN*%
X140470000Y-133800000D03*
%TO.P,Y1,2,2_2*%
%TO.N,GND*%
X138270000Y-133800000D03*
%TO.P,Y1,3,3_3*%
%TO.N,Net-(C16-Pad1)*%
X138270000Y-135500000D03*
%TO.P,Y1,4,4_4*%
%TO.N,GND*%
X140470000Y-135500000D03*
%TD*%
D29*
%TO.P,R15,1*%
%TO.N,/~{USB_BOOT}*%
X145740000Y-129150000D03*
%TO.P,R15,2*%
%TO.N,Net-(Q2B-D)*%
X144720000Y-129150000D03*
%TD*%
D30*
%TO.P,C2,1*%
%TO.N,+3.3V*%
X158170000Y-126500000D03*
%TO.P,C2,2*%
%TO.N,GND*%
X158170000Y-124600000D03*
%TD*%
D26*
%TO.P,TP2,1,1_1*%
%TO.N,+3.3V*%
X160220000Y-119850000D03*
%TD*%
D31*
%TO.P,J3,1,Pin_1_1*%
%TO.N,/GPIO16{slash}TX*%
X150030000Y-142505000D03*
%TO.P,J3,2,Pin_2_2*%
%TO.N,GND*%
X151030000Y-142505000D03*
%TO.P,J3,3,Pin_3_3*%
%TO.N,/GPIO17{slash}RX*%
X152030000Y-142505000D03*
D32*
%TO.P,J3,MP*%
%TO.N,N/C*%
X148730000Y-146380000D03*
X153330000Y-146380000D03*
%TD*%
D33*
%TO.P,Q2,1,S_1*%
%TO.N,GND*%
X143320000Y-141150000D03*
%TO.P,Q2,2,G_2*%
%TO.N,Net-(Q1A-D)*%
X142820000Y-141150000D03*
%TO.P,Q2,3,D_3*%
%TO.N,Net-(Q2B-D)*%
X142320000Y-141150000D03*
%TO.P,Q2,4,S_4*%
%TO.N,GND*%
X142320000Y-142575000D03*
%TO.P,Q2,5,G_5*%
%TO.N,Net-(Q2B-G)*%
X142820000Y-142575000D03*
%TO.P,Q2,6,D_6*%
%TO.N,/nRST*%
X143320000Y-142575000D03*
%TD*%
D34*
%TO.P,C20,1*%
%TO.N,+1V1*%
X149920000Y-138570000D03*
%TO.P,C20,2*%
%TO.N,GND*%
X149920000Y-139530000D03*
%TD*%
D35*
%TO.P,C10,1*%
%TO.N,GND*%
X154520000Y-135730000D03*
%TO.P,C10,2*%
%TO.N,+3.3V*%
X154520000Y-134770000D03*
%TD*%
D11*
%TO.P,C15,1*%
%TO.N,/XIN*%
X140500000Y-132400000D03*
%TO.P,C15,2*%
%TO.N,GND*%
X139540000Y-132400000D03*
%TD*%
D35*
%TO.P,C5,1*%
%TO.N,/VREG_AVDD*%
X154420000Y-128230000D03*
%TO.P,C5,2*%
%TO.N,GND*%
X154420000Y-127270000D03*
%TD*%
D10*
%TO.P,C22,1*%
%TO.N,+1V1*%
X154640000Y-133750000D03*
%TO.P,C22,2*%
%TO.N,GND*%
X155600000Y-133750000D03*
%TD*%
D12*
%TO.P,R4,1*%
%TO.N,Net-(P1-CC)*%
X148270000Y-125640000D03*
%TO.P,R4,2*%
%TO.N,GND*%
X148270000Y-126660000D03*
%TD*%
D26*
%TO.P,TP3,1,1_1*%
%TO.N,/SWCLK*%
X157320000Y-122150000D03*
%TD*%
D36*
%TO.P,R14,1*%
%TO.N,Net-(Q2B-G)*%
X145810000Y-145950000D03*
%TO.P,R14,2*%
%TO.N,Net-(R11-Pad1)*%
X146830000Y-145950000D03*
%TD*%
D37*
%TO.P,Q1,1,S_1*%
%TO.N,GND*%
X138020000Y-142175000D03*
%TO.P,Q1,2,G_2*%
%TO.N,/SWITCH*%
X138520000Y-142175000D03*
%TO.P,Q1,3,D_3*%
%TO.N,Net-(Q1B-D)*%
X139020000Y-142175000D03*
%TO.P,Q1,4,S_4*%
%TO.N,Net-(Q1A-D)*%
X139020000Y-140750000D03*
%TO.P,Q1,5,G_5*%
X138520000Y-140750000D03*
%TO.P,Q1,6,D_6*%
X138020000Y-140750000D03*
%TD*%
D12*
%TO.P,R13,1*%
%TO.N,Net-(Q1B-D)*%
X144520000Y-143750000D03*
%TO.P,R13,2*%
%TO.N,Net-(Q2B-G)*%
X144520000Y-144770000D03*
%TD*%
D10*
%TO.P,C14,1*%
%TO.N,GND*%
X143740000Y-135150000D03*
%TO.P,C14,2*%
%TO.N,+3.3V*%
X144700000Y-135150000D03*
%TD*%
D12*
%TO.P,R3,1*%
%TO.N,/USB_D-*%
X150520000Y-125640000D03*
%TO.P,R3,2*%
%TO.N,Net-(U2-USB_DM)*%
X150520000Y-126660000D03*
%TD*%
D34*
%TO.P,C13,1*%
%TO.N,GND*%
X144820000Y-130170000D03*
%TO.P,C13,2*%
%TO.N,+3.3V*%
X144820000Y-131130000D03*
%TD*%
D35*
%TO.P,C9,1*%
%TO.N,GND*%
X156020000Y-132030000D03*
%TO.P,C9,2*%
%TO.N,+3.3V*%
X156020000Y-131070000D03*
%TD*%
D29*
%TO.P,R7,1*%
%TO.N,+3.3V*%
X139030000Y-139450000D03*
%TO.P,R7,2*%
%TO.N,Net-(Q1A-D)*%
X138010000Y-139450000D03*
%TD*%
%TO.P,R11,1*%
%TO.N,Net-(R11-Pad1)*%
X146830000Y-147050000D03*
%TO.P,R11,2*%
%TO.N,GND*%
X145810000Y-147050000D03*
%TD*%
D35*
%TO.P,C11,1*%
%TO.N,GND*%
X157120000Y-132030000D03*
%TO.P,C11,2*%
%TO.N,+3.3V*%
X157120000Y-131070000D03*
%TD*%
D38*
%TO.P,SW1,1,1_1*%
%TO.N,GND*%
X141845000Y-144930000D03*
%TO.P,SW1,2,2_2*%
%TO.N,/SWITCH*%
X138445000Y-144930000D03*
D39*
%TO.P,SW1,3*%
%TO.N,N/C*%
X138020000Y-146880000D03*
D40*
%TO.P,SW1,4*%
X142270000Y-146880000D03*
%TD*%
D35*
%TO.P,C12,1*%
%TO.N,GND*%
X158220000Y-132030000D03*
%TO.P,C12,2*%
%TO.N,+3.3V*%
X158220000Y-131070000D03*
%TD*%
D10*
%TO.P,C24,1*%
%TO.N,Net-(Q2B-G)*%
X145820000Y-143600000D03*
%TO.P,C24,2*%
%TO.N,GND*%
X146780000Y-143600000D03*
%TD*%
D41*
%TO.P,C21,1*%
%TO.N,+3.3V*%
X143920000Y-126000000D03*
%TO.P,C21,2*%
%TO.N,GND*%
X143920000Y-127900000D03*
%TD*%
D27*
%TO.P,R5,1*%
%TO.N,+3.3V*%
X140520000Y-139460000D03*
%TO.P,R5,2*%
%TO.N,/SWITCH*%
X140520000Y-138440000D03*
%TD*%
D42*
%TO.P,C19,1*%
%TO.N,VBUS*%
X142070000Y-121050000D03*
%TO.P,C19,2*%
%TO.N,GND*%
X140170000Y-121050000D03*
%TD*%
D43*
%TO.P,P1,2,LATCH_2*%
%TO.N,unconnected-(P1-LATCH-Pad2)*%
X146369950Y-122743400D03*
D44*
%TO.P,P1,3,GND_3*%
%TO.N,GND*%
X145220050Y-120943300D03*
%TO.P,P1,4*%
%TO.N,N/C*%
X145220050Y-118343400D03*
%TO.P,P1,5*%
X154319950Y-118343400D03*
%TO.P,P1,6*%
X154319950Y-120943300D03*
D45*
%TO.P,P1,7*%
X151269850Y-120093500D03*
%TO.P,P1,8*%
X148269850Y-120093500D03*
%TO.P,P1,9*%
X147969950Y-118343400D03*
%TO.P,P1,10*%
X151570050Y-118343400D03*
D46*
%TO.P,P1,A1,GND_A1*%
%TO.N,GND*%
X147019950Y-122843500D03*
%TO.P,P1,A4,VBUS_A4*%
%TO.N,VBUS*%
X148520050Y-122843500D03*
%TO.P,P1,A5,CC_A5*%
%TO.N,Net-(P1-CC)*%
X149020150Y-122843500D03*
%TO.P,P1,A6,D+_A6*%
%TO.N,/USB_D+*%
X149520050Y-122843500D03*
%TO.P,P1,A7,D-_A7*%
%TO.N,/USB_D-*%
X150020150Y-122843500D03*
%TO.P,P1,A10,RX2-_A10*%
%TO.N,unconnected-(P1-RX2--PadA10)*%
X151520050Y-122843500D03*
%TO.P,P1,A11,RX2+_A11*%
%TO.N,unconnected-(P1-RX2+-PadA11)*%
X152019950Y-122843500D03*
D43*
%TO.P,P1,B1*%
%TO.N,N/C*%
X153170050Y-122743400D03*
D46*
%TO.P,P1,B2,TX2+_B2*%
%TO.N,unconnected-(P1-TX2+-PadB2)*%
X152520050Y-122843500D03*
%TO.P,P1,B3,TX2-_B3*%
%TO.N,unconnected-(P1-TX2--PadB3)*%
X151019950Y-122843500D03*
%TO.P,P1,B5,VCONN_B5*%
%TO.N,unconnected-(P1-VCONN-PadB5)*%
X150520050Y-122843500D03*
%TO.P,P1,B9,VBUS_B9*%
%TO.N,VBUS*%
X148019950Y-122843500D03*
%TO.P,P1,B12,GND_B12*%
%TO.N,GND*%
X147520050Y-122843500D03*
%TD*%
D29*
%TO.P,R8,1*%
%TO.N,/XOUT*%
X147630000Y-140000000D03*
%TO.P,R8,2*%
%TO.N,Net-(C16-Pad1)*%
X146610000Y-140000000D03*
%TD*%
D47*
%TO.P,L1,1,1_1*%
%TO.N,+1V1*%
X151920000Y-125550000D03*
%TO.P,L1,2,2_2*%
%TO.N,/VREG_LX*%
X153920000Y-125550000D03*
%TD*%
D48*
%TO.P,U4,1,VIN_1*%
%TO.N,VBUS*%
X142070000Y-123312500D03*
%TO.P,U4,2,GND_2*%
%TO.N,GND*%
X141120000Y-123312500D03*
%TO.P,U4,3,EN_3*%
%TO.N,VBUS*%
X140170000Y-123312500D03*
%TO.P,U4,4,NC_4*%
%TO.N,unconnected-(U4-NC-Pad4)*%
X140170000Y-125587500D03*
%TO.P,U4,5,VOUT_5*%
%TO.N,+3.3V*%
X142070000Y-125587500D03*
%TD*%
D13*
%TO.P,C1,1*%
%TO.N,+3.3V*%
X152405000Y-128350000D03*
%TO.P,C1,2*%
%TO.N,GND*%
X153435000Y-128350000D03*
%TD*%
D11*
%TO.P,C8,1*%
%TO.N,GND*%
X156400000Y-129450000D03*
%TO.P,C8,2*%
%TO.N,+3.3V*%
X155440000Y-129450000D03*
%TD*%
D10*
%TO.P,C6,1*%
%TO.N,Net-(Q2B-G)*%
X145820000Y-144700000D03*
%TO.P,C6,2*%
%TO.N,GND*%
X146780000Y-144700000D03*
%TD*%
D12*
%TO.P,R12,1*%
%TO.N,+3.3V*%
X145220000Y-141540000D03*
%TO.P,R12,2*%
%TO.N,/nRST*%
X145220000Y-142560000D03*
%TD*%
D35*
%TO.P,C18,1*%
%TO.N,GND*%
X155620000Y-135730000D03*
%TO.P,C18,2*%
%TO.N,+3.3V*%
X155620000Y-134770000D03*
%TD*%
D31*
%TO.P,J4,1,Pin_1_1*%
%TO.N,GND*%
X157070000Y-142505000D03*
%TO.P,J4,2,Pin_2_2*%
%TO.N,+3.3V*%
X158070000Y-142505000D03*
%TO.P,J4,3,Pin_3_3*%
%TO.N,/GPIO26{slash}SDA*%
X159070000Y-142505000D03*
%TO.P,J4,4,Pin_4_4*%
%TO.N,/GPIO27{slash}SCL*%
X160070000Y-142505000D03*
D32*
%TO.P,J4,MP*%
%TO.N,N/C*%
X155770000Y-146380000D03*
X161370000Y-146380000D03*
%TD*%
D49*
%TO.N,GND*%
X143520000Y-145550000D03*
X151120000Y-127550000D03*
X151200000Y-143800000D03*
X157720000Y-133350000D03*
X154320000Y-132080000D03*
X141620000Y-137050000D03*
X154220000Y-129850000D03*
X137620000Y-143350000D03*
X139220000Y-119250000D03*
X156120000Y-130250000D03*
X144420000Y-137150000D03*
X143120000Y-131050000D03*
X146420000Y-125950000D03*
X160920000Y-125650000D03*
X159620000Y-124450000D03*
X152220000Y-131750000D03*
X144720000Y-122750000D03*
X152620000Y-139950000D03*
X140620000Y-142750000D03*
X141420000Y-140350000D03*
X147120000Y-124250000D03*
X155520000Y-126250000D03*
X148120000Y-128850000D03*
X156220000Y-124550000D03*
X154220000Y-137650000D03*
X143520000Y-119750000D03*
X155120000Y-139050000D03*
X145820000Y-140850000D03*
X147420000Y-132150000D03*
X144220000Y-141750000D03*
X143420000Y-124850000D03*
X161420000Y-134650000D03*
%TO.N,+1V1*%
X149718193Y-136566417D03*
X147051417Y-133075259D03*
X150955509Y-131398302D03*
X152120000Y-133550000D03*
%TO.N,+3.3V*%
X154870000Y-130600000D03*
X149315477Y-128454523D03*
X159020000Y-131050000D03*
X147686930Y-135983070D03*
X147020000Y-141550000D03*
X156720000Y-134750000D03*
X151812500Y-128942500D03*
X152507500Y-138437500D03*
%TO.N,/SWCLK*%
X157320000Y-123450000D03*
X151320000Y-136050000D03*
%TO.N,/SWDIO*%
X152120000Y-136050000D03*
X160220000Y-123450000D03*
%TO.N,Net-(Q2B-D)*%
X142320000Y-132050000D03*
X142320000Y-140150000D03*
%TD*%
%TO.N,Net-(C16-Pad1)*%
D50*
X138290000Y-137100000D02*
X138290000Y-137420000D01*
X144354314Y-140000000D02*
X146610000Y-140000000D01*
X142104314Y-137750000D02*
X144354314Y-140000000D01*
X138290000Y-137420000D02*
X138620000Y-137750000D01*
X138270000Y-135500000D02*
X138270000Y-137080000D01*
X138270000Y-137080000D02*
X138290000Y-137100000D01*
X138620000Y-137750000D02*
X142104314Y-137750000D01*
%TO.N,GND*%
D51*
X153435000Y-128556026D02*
X153435000Y-128350000D01*
D50*
X140100000Y-135580000D02*
X140070000Y-135550000D01*
D51*
X152107500Y-131637500D02*
X152220000Y-131750000D01*
X152107500Y-129883526D02*
X153435000Y-128556026D01*
X152107500Y-130462500D02*
X152107500Y-131637500D01*
X152107500Y-130462500D02*
X152107500Y-129883526D01*
%TO.N,+1V1*%
D50*
X154640000Y-133750000D02*
X154390000Y-133500000D01*
X153157500Y-133500000D02*
X152170000Y-133500000D01*
X151920000Y-126765000D02*
X152405000Y-127250000D01*
X152170000Y-133500000D02*
X152120000Y-133550000D01*
X147026676Y-133100000D02*
X147051417Y-133075259D01*
X150907500Y-128747500D02*
X152405000Y-127250000D01*
X150903811Y-131205990D02*
X150907500Y-131202301D01*
X154390000Y-133500000D02*
X153145000Y-133500000D01*
X149707500Y-137337500D02*
X149707500Y-138257500D01*
X150907500Y-131202301D02*
X150907500Y-128747500D01*
X149707500Y-136577110D02*
X149718193Y-136566417D01*
X144850000Y-133100000D02*
X144800000Y-133150000D01*
X146270000Y-133100000D02*
X144850000Y-133100000D01*
X149707500Y-137350000D02*
X149707500Y-136577110D01*
X151920000Y-125550000D02*
X151920000Y-126765000D01*
X146257500Y-133100000D02*
X147026676Y-133100000D01*
X150955509Y-131398302D02*
X150903811Y-131346604D01*
X151920000Y-125450000D02*
X151720000Y-125450000D01*
X149707500Y-138257500D02*
X150020000Y-138570000D01*
X150903811Y-131346604D02*
X150903811Y-131205990D01*
%TO.N,/USB_D+*%
X149520050Y-125639950D02*
X149520000Y-125640000D01*
X149520050Y-122843500D02*
X149520050Y-125639950D01*
%TO.N,Net-(U2-USB_DP)*%
X149520000Y-126660000D02*
X149520000Y-127150000D01*
X150107500Y-127737500D02*
X150107500Y-130450000D01*
X149520000Y-127150000D02*
X150107500Y-127737500D01*
%TO.N,+3.3V*%
X152507500Y-138437500D02*
X152507500Y-137350000D01*
X149315477Y-128454523D02*
X148610955Y-127750000D01*
X145370000Y-126000000D02*
X143920000Y-126000000D01*
X154770000Y-131500000D02*
X155220000Y-131050000D01*
X155420000Y-128260000D02*
X155420000Y-129430000D01*
X154520000Y-134770000D02*
X155620000Y-134770000D01*
D52*
X140520000Y-139460000D02*
X143140000Y-139460000D01*
D51*
X158170000Y-126850000D02*
X159058500Y-125961500D01*
D50*
X155420000Y-128260000D02*
X156860000Y-128260000D01*
X155440000Y-129450000D02*
X155440000Y-130030000D01*
X151307500Y-129447500D02*
X151307500Y-130450000D01*
D52*
X143920000Y-126000000D02*
X143670000Y-125750000D01*
D50*
X144750000Y-135100000D02*
X144700000Y-135150000D01*
X149307500Y-130900000D02*
X149107500Y-131100000D01*
X155620000Y-134770000D02*
X156700000Y-134770000D01*
X144850000Y-131100000D02*
X146270000Y-131100000D01*
D52*
X146803860Y-135100000D02*
X146270000Y-135100000D01*
D50*
X153750000Y-134000000D02*
X154520000Y-134770000D01*
X148610955Y-127750000D02*
X147120000Y-127750000D01*
X153720000Y-139650000D02*
X152507500Y-138437500D01*
X158020000Y-140850000D02*
X156820000Y-139650000D01*
D51*
X159058500Y-121011500D02*
X160220000Y-119850000D01*
D50*
X158240000Y-131050000D02*
X158220000Y-131070000D01*
D52*
X147020000Y-141550000D02*
X145160000Y-141550000D01*
D50*
X153145000Y-131500000D02*
X154770000Y-131500000D01*
D52*
X148507500Y-137337500D02*
X148507500Y-136803640D01*
X140520000Y-139460000D02*
X139040000Y-139460000D01*
X147686930Y-135983070D02*
X146803860Y-135100000D01*
D50*
X155220000Y-131050000D02*
X156000000Y-131050000D01*
D52*
X148000000Y-138550000D02*
X148507500Y-138042500D01*
D50*
X149315477Y-128454523D02*
X149707500Y-128846545D01*
D52*
X139040000Y-139460000D02*
X139030000Y-139450000D01*
D50*
X144820000Y-131130000D02*
X144850000Y-131100000D01*
X156700000Y-134770000D02*
X156720000Y-134750000D01*
X151812500Y-128942500D02*
X151307500Y-129447500D01*
X155420000Y-129430000D02*
X155440000Y-129450000D01*
X139040000Y-139440000D02*
X139030000Y-139450000D01*
D51*
X149707500Y-130462500D02*
X149307500Y-130462500D01*
D50*
X153750000Y-133900000D02*
X153750000Y-134000000D01*
D52*
X143920000Y-126000000D02*
X143026250Y-126000000D01*
D50*
X149707500Y-128846545D02*
X149707500Y-130462500D01*
X155440000Y-130030000D02*
X154870000Y-130600000D01*
D51*
X146240000Y-131130000D02*
X146270000Y-131100000D01*
D50*
X156820000Y-139650000D02*
X153720000Y-139650000D01*
D52*
X142613750Y-125587500D02*
X142070000Y-125587500D01*
D50*
X154370000Y-131100000D02*
X153157500Y-131100000D01*
X158020000Y-142550000D02*
X158020000Y-140850000D01*
D52*
X148507500Y-136803640D02*
X147686930Y-135983070D01*
X143140000Y-139460000D02*
X145220000Y-141540000D01*
D50*
X158220000Y-126900000D02*
X158220000Y-131070000D01*
X154870000Y-130600000D02*
X154370000Y-131100000D01*
D52*
X146270000Y-135100000D02*
X144750000Y-135100000D01*
X148507500Y-138042500D02*
X148507500Y-137337500D01*
X143026250Y-126000000D02*
X142613750Y-125587500D01*
D50*
X147120000Y-127750000D02*
X145370000Y-126000000D01*
X156000000Y-131050000D02*
X156020000Y-131070000D01*
X159020000Y-131050000D02*
X158240000Y-131050000D01*
X149307500Y-130462500D02*
X149307500Y-130900000D01*
D51*
X159058500Y-125961500D02*
X159058500Y-121011500D01*
D50*
X156860000Y-128260000D02*
X158220000Y-126900000D01*
X156020000Y-131070000D02*
X158220000Y-131070000D01*
X149107500Y-131100000D02*
X146270000Y-131100000D01*
X153145000Y-133900000D02*
X153750000Y-133900000D01*
X152405000Y-128350000D02*
X151812500Y-128942500D01*
X153145000Y-131500000D02*
X153145000Y-131100000D01*
%TO.N,/XIN*%
X141707500Y-133800000D02*
X142970000Y-135062500D01*
X140470000Y-133800000D02*
X141707500Y-133800000D01*
X148907500Y-138578634D02*
X148907500Y-137337500D01*
X142970000Y-136850000D02*
X145470000Y-139350000D01*
X140470000Y-132430000D02*
X140500000Y-132400000D01*
X142970000Y-135062500D02*
X142970000Y-136850000D01*
X145470000Y-139350000D02*
X148136134Y-139350000D01*
X140470000Y-133800000D02*
X140470000Y-132430000D01*
X148136134Y-139350000D02*
X148907500Y-138578634D01*
%TO.N,/XOUT*%
X148120000Y-140000000D02*
X149307500Y-138812500D01*
X147630000Y-140000000D02*
X148120000Y-140000000D01*
X149307500Y-138812500D02*
X149307500Y-137337500D01*
%TO.N,/SWCLK*%
D51*
X150620000Y-136450000D02*
X150920000Y-136450000D01*
X150107500Y-136962500D02*
X150620000Y-136450000D01*
X150920000Y-136450000D02*
X151320000Y-136050000D01*
X150107500Y-137337500D02*
X150107500Y-136962500D01*
X157320000Y-123450000D02*
X157320000Y-122150000D01*
%TO.N,/SWDIO*%
X160220000Y-123450000D02*
X160220000Y-122150000D01*
X151433500Y-136736500D02*
X150671000Y-136736500D01*
X150507500Y-136900000D02*
X150507500Y-137337500D01*
X150671000Y-136736500D02*
X150507500Y-136900000D01*
X152120000Y-136050000D02*
X151433500Y-136736500D01*
%TO.N,/nRST*%
D50*
X145310000Y-142650000D02*
X145220000Y-142560000D01*
X143335000Y-142560000D02*
X143320000Y-142575000D01*
X145220000Y-142560000D02*
X143335000Y-142560000D01*
X147820000Y-142650000D02*
X145310000Y-142650000D01*
X150907500Y-139562500D02*
X147820000Y-142650000D01*
X150907500Y-137337500D02*
X150907500Y-139562500D01*
%TO.N,/GPIO16{slash}TX*%
X151307500Y-140162500D02*
X151307500Y-137350000D01*
X150020000Y-141450000D02*
X151307500Y-140162500D01*
X150020000Y-142550000D02*
X150020000Y-141450000D01*
%TO.N,/GPIO17{slash}RX*%
X152020000Y-142550000D02*
X152020000Y-140150000D01*
X151707500Y-139837500D02*
X151707500Y-137350000D01*
X152020000Y-140150000D02*
X151707500Y-139837500D01*
%TO.N,/GPIO26{slash}SDA*%
X159020000Y-142550000D02*
X159020000Y-135650000D01*
X156470000Y-133100000D02*
X153157500Y-133100000D01*
X159020000Y-135650000D02*
X156470000Y-133100000D01*
%TO.N,/GPIO27{slash}SCL*%
X160020000Y-142550000D02*
X160020000Y-134350000D01*
X158370000Y-132700000D02*
X153157500Y-132700000D01*
X160020000Y-134350000D02*
X158370000Y-132700000D01*
%TO.N,/VREG_AVDD*%
X154420000Y-128509999D02*
X153679999Y-129250000D01*
X153120000Y-129250000D02*
X152507500Y-129862500D01*
X153679999Y-129250000D02*
X153120000Y-129250000D01*
X154430000Y-128230000D02*
X155420000Y-127240000D01*
X152507500Y-129862500D02*
X152507500Y-130450000D01*
X154420000Y-128230000D02*
X154420000Y-128509999D01*
X154420000Y-128230000D02*
X154430000Y-128230000D01*
%TO.N,/VREG_LX*%
D51*
X151707500Y-129962500D02*
X152920000Y-128750000D01*
X151707500Y-130462500D02*
X151707500Y-129962500D01*
X152920000Y-126550000D02*
X153920000Y-125550000D01*
X152920000Y-128750000D02*
X152920000Y-126550000D01*
%TO.N,Net-(U2-USB_DM)*%
D50*
X150520000Y-126660000D02*
X150507500Y-126672500D01*
X150507500Y-126672500D02*
X150507500Y-130450000D01*
%TO.N,/~{USB_BOOT}*%
X146320000Y-129150000D02*
X145740000Y-129150000D01*
X146320000Y-129150000D02*
X146907500Y-129737500D01*
X146907500Y-129737500D02*
X146907500Y-130462500D01*
%TO.N,Net-(Q2B-D)*%
X142320000Y-140150000D02*
X142320000Y-141150000D01*
X143520000Y-129150000D02*
X144720000Y-129150000D01*
X142320000Y-132050000D02*
X142320000Y-130350000D01*
X142320000Y-130350000D02*
X143520000Y-129150000D01*
%TO.N,Net-(Q1A-D)*%
X140020000Y-140750000D02*
X141120000Y-141850000D01*
X139020000Y-140750000D02*
X140020000Y-140750000D01*
X138020000Y-139310000D02*
X138010000Y-139300000D01*
X138020000Y-140750000D02*
X138520000Y-140750000D01*
X141120000Y-141850000D02*
X142420000Y-141850000D01*
X142420000Y-141850000D02*
X142820000Y-141450000D01*
X139120001Y-140850001D02*
X139020000Y-140750000D01*
X142820000Y-141450000D02*
X142820000Y-141150000D01*
X138020000Y-140750000D02*
X138020000Y-139310000D01*
X138520000Y-140750000D02*
X139020000Y-140750000D01*
%TO.N,Net-(Q2B-G)*%
D51*
X143200108Y-143150000D02*
X145370000Y-143150000D01*
D50*
X145820000Y-145940000D02*
X145810000Y-145950000D01*
D51*
X142820000Y-142769892D02*
X143200108Y-143150000D01*
D50*
X145820000Y-144700000D02*
X145820000Y-145940000D01*
X144920000Y-145950000D02*
X144520000Y-145550000D01*
D51*
X142820000Y-142575000D02*
X142820000Y-142769892D01*
D50*
X145820000Y-144700000D02*
X145820000Y-143600000D01*
X145810000Y-145950000D02*
X144920000Y-145950000D01*
D51*
X145370000Y-143150000D02*
X145820000Y-143600000D01*
D50*
X144520000Y-145550000D02*
X144520000Y-144770000D01*
%TO.N,Net-(P1-CC)*%
X148270000Y-125200000D02*
X149020150Y-124449850D01*
X148270000Y-125640000D02*
X148270000Y-125200000D01*
X149020150Y-124449850D02*
X149020150Y-122843500D01*
%TO.N,Net-(R11-Pad1)*%
X146830000Y-145950000D02*
X146830000Y-147050000D01*
%TO.N,/SWITCH*%
X137820000Y-138450000D02*
X140510000Y-138450000D01*
X137720000Y-141550000D02*
X137320000Y-141150000D01*
X137320000Y-141150000D02*
X137320000Y-138950000D01*
X138282932Y-141550000D02*
X137720000Y-141550000D01*
X137320000Y-138950000D02*
X137820000Y-138450000D01*
X138520000Y-145175000D02*
X138520000Y-142175000D01*
X140510000Y-138450000D02*
X140520000Y-138440000D01*
X138520000Y-142175000D02*
X138520000Y-141787068D01*
X138520000Y-142850000D02*
X138520000Y-142175000D01*
X138520000Y-141787068D02*
X138282932Y-141550000D01*
%TO.N,Net-(Q1B-D)*%
X139610000Y-143640000D02*
X139020000Y-143050000D01*
X139020000Y-143050000D02*
X139020000Y-142175000D01*
X144520000Y-143640000D02*
X139610000Y-143640000D01*
%TO.N,/USB_D-*%
X150520000Y-125150000D02*
X150020150Y-124650150D01*
X150520000Y-125640000D02*
X150520000Y-125150000D01*
X150020150Y-124650150D02*
X150020150Y-122843500D01*
%TO.N,VBUS*%
D53*
X142070000Y-121050000D02*
X142820000Y-121050000D01*
X143620000Y-121850000D02*
X143620000Y-123750000D01*
X144920000Y-125050000D02*
X147520000Y-125050000D01*
X142820000Y-121050000D02*
X143620000Y-121850000D01*
D52*
X141770001Y-121050000D02*
X140170000Y-122650001D01*
X142070000Y-121050000D02*
X142070000Y-123312500D01*
X142070000Y-121050000D02*
X141770001Y-121050000D01*
D50*
X148520050Y-122843500D02*
X148019950Y-122843500D01*
X148019950Y-122843500D02*
X148019950Y-124049950D01*
D53*
X147520000Y-125050000D02*
X148020000Y-124550000D01*
X148020000Y-124550000D02*
X148020000Y-124050000D01*
X143620000Y-123750000D02*
X144920000Y-125050000D01*
D50*
X148019950Y-124049950D02*
X148020000Y-124050000D01*
D52*
X140170000Y-122650001D02*
X140170000Y-123312500D01*
%TD*%
%TA.AperFunction,Conductor*%
%TO.N,GND*%
G36*
X150969604Y-117370185D02*
G01*
X151015359Y-117422989D01*
X151025303Y-117492147D01*
X150996278Y-117555703D01*
X150937500Y-117593477D01*
X150926765Y-117596115D01*
X150917833Y-117597891D01*
X150910390Y-117599372D01*
X150910388Y-117599373D01*
X150859816Y-117633165D01*
X150826021Y-117683743D01*
X150826020Y-117683745D01*
X150817150Y-117728340D01*
X150817150Y-118958454D01*
X150826022Y-119003058D01*
X150826023Y-119003061D01*
X150859815Y-119053633D01*
X150859816Y-119053634D01*
X150910392Y-119087428D01*
X150948373Y-119094983D01*
X151010282Y-119127367D01*
X151044857Y-119188082D01*
X151041118Y-119257852D01*
X151000252Y-119314524D01*
X150935234Y-119340106D01*
X150924181Y-119340600D01*
X150654795Y-119340600D01*
X150610191Y-119349472D01*
X150610188Y-119349473D01*
X150559616Y-119383265D01*
X150525821Y-119433843D01*
X150525820Y-119433845D01*
X150516950Y-119478440D01*
X150516950Y-120708554D01*
X150525822Y-120753158D01*
X150525823Y-120753161D01*
X150559615Y-120803733D01*
X150559616Y-120803734D01*
X150610192Y-120837528D01*
X150610193Y-120837528D01*
X150610195Y-120837529D01*
X150632492Y-120841964D01*
X150654793Y-120846400D01*
X151884906Y-120846399D01*
X151929508Y-120837528D01*
X151980084Y-120803734D01*
X152013878Y-120753158D01*
X152022750Y-120708557D01*
X152022749Y-119478444D01*
X152013878Y-119433842D01*
X152013876Y-119433840D01*
X152013876Y-119433838D01*
X151980084Y-119383266D01*
X151929509Y-119349473D01*
X151929508Y-119349472D01*
X151929507Y-119349471D01*
X151929506Y-119349471D01*
X151929503Y-119349470D01*
X151891526Y-119341916D01*
X151829615Y-119309531D01*
X151795041Y-119248815D01*
X151798782Y-119179045D01*
X151839648Y-119122374D01*
X151904667Y-119096792D01*
X151915713Y-119096299D01*
X152185106Y-119096299D01*
X152229708Y-119087428D01*
X152280284Y-119053634D01*
X152314078Y-119003058D01*
X152322950Y-118958457D01*
X152322949Y-117728344D01*
X152314078Y-117683742D01*
X152314076Y-117683740D01*
X152314076Y-117683738D01*
X152280284Y-117633166D01*
X152229709Y-117599373D01*
X152229708Y-117599372D01*
X152229707Y-117599371D01*
X152229706Y-117599371D01*
X152229703Y-117599370D01*
X152213348Y-117596117D01*
X152151437Y-117563732D01*
X152116863Y-117503017D01*
X152120602Y-117433247D01*
X152161469Y-117376575D01*
X152226487Y-117350994D01*
X152237539Y-117350500D01*
X153502465Y-117350500D01*
X153569504Y-117370185D01*
X153615259Y-117422989D01*
X153625203Y-117492147D01*
X153596178Y-117555703D01*
X153537400Y-117593477D01*
X153526665Y-117596115D01*
X153517733Y-117597891D01*
X153510290Y-117599372D01*
X153510288Y-117599373D01*
X153459716Y-117633165D01*
X153425921Y-117683743D01*
X153425920Y-117683745D01*
X153417050Y-117728340D01*
X153417050Y-118958454D01*
X153425922Y-119003058D01*
X153425923Y-119003061D01*
X153459715Y-119053633D01*
X153459716Y-119053634D01*
X153510292Y-119087428D01*
X153510293Y-119087428D01*
X153510295Y-119087429D01*
X153532592Y-119091864D01*
X153554893Y-119096300D01*
X155085006Y-119096299D01*
X155129608Y-119087428D01*
X155180184Y-119053634D01*
X155213978Y-119003058D01*
X155222850Y-118958457D01*
X155222849Y-118329298D01*
X155242533Y-118262261D01*
X155295337Y-118216506D01*
X155364496Y-118206562D01*
X155378163Y-118209319D01*
X155401993Y-118215538D01*
X155406445Y-118219989D01*
X155480140Y-118250504D01*
X155520022Y-118250500D01*
X161445600Y-118250500D01*
X161512639Y-118270185D01*
X161558394Y-118322989D01*
X161569600Y-118374500D01*
X161569600Y-121551383D01*
X161589478Y-121599372D01*
X161600124Y-121625074D01*
X161656526Y-121681476D01*
X161730218Y-121712000D01*
X162445600Y-121712000D01*
X162512639Y-121731685D01*
X162558394Y-121784489D01*
X162569600Y-121836000D01*
X162569600Y-147687000D01*
X162549915Y-147754039D01*
X162497111Y-147799794D01*
X162445600Y-147811000D01*
X143028758Y-147811000D01*
X142961719Y-147791315D01*
X142915964Y-147738511D01*
X142906020Y-147669353D01*
X142926398Y-147624731D01*
X142923382Y-147622990D01*
X142931543Y-147608853D01*
X142931543Y-147608851D01*
X142931545Y-147608850D01*
X142952700Y-147529900D01*
X142952700Y-146229900D01*
X142931545Y-146150950D01*
X142931543Y-146150948D01*
X142931543Y-146150947D01*
X142873752Y-146093156D01*
X142873750Y-146093155D01*
X142794800Y-146072000D01*
X142144900Y-146072000D01*
X142065950Y-146093155D01*
X142065949Y-146093155D01*
X142065947Y-146093156D01*
X142008156Y-146150947D01*
X142008155Y-146150949D01*
X142008155Y-146150950D01*
X141999978Y-146181469D01*
X141987000Y-146229901D01*
X141987000Y-146598000D01*
X141967315Y-146665039D01*
X141914511Y-146710794D01*
X141863000Y-146722000D01*
X141744899Y-146722000D01*
X141704032Y-146727379D01*
X141704031Y-146727380D01*
X141667610Y-146748407D01*
X141667606Y-146748410D01*
X141633248Y-146768248D01*
X141633148Y-146768348D01*
X141608055Y-146801050D01*
X141603061Y-146819683D01*
X141603060Y-146819686D01*
X141586900Y-146879999D01*
X141586900Y-146880000D01*
X141586900Y-147529900D01*
X141608055Y-147608850D01*
X141608056Y-147608853D01*
X141616218Y-147622990D01*
X141612591Y-147625083D01*
X141632008Y-147660642D01*
X141627024Y-147730334D01*
X141585152Y-147786267D01*
X141519688Y-147810684D01*
X141510842Y-147811000D01*
X138779058Y-147811000D01*
X138712019Y-147791315D01*
X138666264Y-147738511D01*
X138656320Y-147669353D01*
X138676698Y-147624731D01*
X138673682Y-147622990D01*
X138681843Y-147608853D01*
X138681843Y-147608851D01*
X138681845Y-147608850D01*
X138703000Y-147529900D01*
X138703000Y-146880000D01*
X138697620Y-146839132D01*
X138656752Y-146768348D01*
X138656652Y-146768248D01*
X138623950Y-146743155D01*
X138618547Y-146741707D01*
X138595642Y-146735569D01*
X138545000Y-146722000D01*
X138544998Y-146722000D01*
X138426900Y-146722000D01*
X138359861Y-146702315D01*
X138314106Y-146649511D01*
X138302900Y-146598000D01*
X138302900Y-146229901D01*
X138295665Y-146202900D01*
X138281745Y-146150950D01*
X138281743Y-146150948D01*
X138281743Y-146150947D01*
X138223952Y-146093156D01*
X138223950Y-146093155D01*
X138145000Y-146072000D01*
X137495100Y-146072000D01*
X137416150Y-146093155D01*
X137416149Y-146093155D01*
X137416147Y-146093156D01*
X137358356Y-146150947D01*
X137358355Y-146150949D01*
X137358355Y-146150950D01*
X137337200Y-146229900D01*
X137337200Y-147529900D01*
X137358355Y-147608850D01*
X137358356Y-147608853D01*
X137366518Y-147622990D01*
X137362891Y-147625083D01*
X137382308Y-147660642D01*
X137377324Y-147730334D01*
X137335452Y-147786267D01*
X137269988Y-147810684D01*
X137261142Y-147811000D01*
X137094600Y-147811000D01*
X137027561Y-147791315D01*
X136981806Y-147738511D01*
X136970600Y-147687000D01*
X136970600Y-141457618D01*
X136976834Y-141436385D01*
X136978409Y-141414309D01*
X136986487Y-141403513D01*
X136990285Y-141390579D01*
X137007007Y-141376088D01*
X137020268Y-141358367D01*
X137032900Y-141353652D01*
X137043089Y-141344824D01*
X137064992Y-141341674D01*
X137085727Y-141333936D01*
X137098901Y-141336798D01*
X137112247Y-141334880D01*
X137132378Y-141344073D01*
X137154004Y-141348773D01*
X137171756Y-141362057D01*
X137175803Y-141363905D01*
X137182254Y-141369912D01*
X137182262Y-141369918D01*
X137186938Y-141374592D01*
X137186957Y-141374611D01*
X137498530Y-141686185D01*
X137498533Y-141686189D01*
X137505601Y-141693257D01*
X137576743Y-141764399D01*
X137620152Y-141782379D01*
X137620153Y-141782380D01*
X137669692Y-141802900D01*
X137669693Y-141802900D01*
X137669695Y-141802901D01*
X137669696Y-141802901D01*
X137784739Y-141802901D01*
X137784747Y-141802900D01*
X138068100Y-141802900D01*
X138135139Y-141822585D01*
X138180894Y-141875389D01*
X138192100Y-141926900D01*
X138192100Y-142448675D01*
X138206048Y-142518801D01*
X138206049Y-142518803D01*
X138246202Y-142578895D01*
X138267080Y-142645572D01*
X138267100Y-142647786D01*
X138267100Y-144053100D01*
X138247415Y-144120139D01*
X138194611Y-144165894D01*
X138143106Y-144177100D01*
X138129945Y-144177100D01*
X138085341Y-144185972D01*
X138085338Y-144185973D01*
X138034766Y-144219765D01*
X138000971Y-144270343D01*
X138000970Y-144270345D01*
X137992100Y-144314940D01*
X137992100Y-145545054D01*
X138000972Y-145589658D01*
X138000973Y-145589661D01*
X138033813Y-145638808D01*
X138034766Y-145640234D01*
X138085342Y-145674028D01*
X138085343Y-145674028D01*
X138085345Y-145674029D01*
X138102369Y-145677415D01*
X138129943Y-145682900D01*
X138702796Y-145682899D01*
X138769835Y-145702583D01*
X138815590Y-145755387D01*
X138825534Y-145824546D01*
X138810184Y-145868898D01*
X138735523Y-145998215D01*
X138735523Y-145998216D01*
X138694600Y-146150943D01*
X138694600Y-146309057D01*
X138735523Y-146461784D01*
X138814580Y-146598716D01*
X138926384Y-146710520D01*
X138926386Y-146710521D01*
X138926390Y-146710524D01*
X139026546Y-146768348D01*
X139063316Y-146789577D01*
X139216043Y-146830500D01*
X139216045Y-146830500D01*
X139374155Y-146830500D01*
X139374157Y-146830500D01*
X139526884Y-146789577D01*
X139663816Y-146710520D01*
X139775620Y-146598716D01*
X139854677Y-146461784D01*
X139895600Y-146309057D01*
X139895600Y-146150943D01*
X140394600Y-146150943D01*
X140394600Y-146309057D01*
X140433329Y-146453593D01*
X140435523Y-146461783D01*
X140435526Y-146461790D01*
X140514575Y-146598709D01*
X140514579Y-146598714D01*
X140514580Y-146598716D01*
X140626384Y-146710520D01*
X140626386Y-146710521D01*
X140626390Y-146710524D01*
X140726546Y-146768348D01*
X140763316Y-146789577D01*
X140916043Y-146830500D01*
X140916045Y-146830500D01*
X141074155Y-146830500D01*
X141074157Y-146830500D01*
X141226884Y-146789577D01*
X141363816Y-146710520D01*
X141475620Y-146598716D01*
X141554677Y-146461784D01*
X141595600Y-146309057D01*
X141595600Y-146150943D01*
X141554677Y-145998216D01*
X141480016Y-145868898D01*
X141475624Y-145861290D01*
X141475618Y-145861282D01*
X141363817Y-145749481D01*
X141363809Y-145749475D01*
X141226890Y-145670426D01*
X141226886Y-145670424D01*
X141226884Y-145670423D01*
X141074157Y-145629500D01*
X140916043Y-145629500D01*
X140763316Y-145670423D01*
X140763309Y-145670426D01*
X140626390Y-145749475D01*
X140626382Y-145749481D01*
X140514581Y-145861282D01*
X140514575Y-145861290D01*
X140435526Y-145998209D01*
X140435523Y-145998216D01*
X140394600Y-146150943D01*
X139895600Y-146150943D01*
X139854677Y-145998216D01*
X139780016Y-145868898D01*
X139775624Y-145861290D01*
X139775618Y-145861282D01*
X139663817Y-145749481D01*
X139663809Y-145749475D01*
X139526890Y-145670426D01*
X139526886Y-145670424D01*
X139526884Y-145670423D01*
X139374157Y-145629500D01*
X139216043Y-145629500D01*
X139063316Y-145670423D01*
X139063314Y-145670423D01*
X139055465Y-145672527D01*
X139054675Y-145669581D01*
X138999584Y-145675472D01*
X138937123Y-145644161D01*
X138901506Y-145584051D01*
X138899021Y-145551149D01*
X138897900Y-145551149D01*
X138897899Y-144314945D01*
X138897898Y-144314940D01*
X138889028Y-144270342D01*
X138889026Y-144270340D01*
X138889026Y-144270338D01*
X138855234Y-144219766D01*
X138828008Y-144201574D01*
X138783204Y-144147961D01*
X138772900Y-144098472D01*
X138772900Y-143459916D01*
X138792585Y-143392877D01*
X138845389Y-143347122D01*
X138914547Y-143337178D01*
X138978103Y-143366203D01*
X138984581Y-143372235D01*
X139395599Y-143783253D01*
X139395601Y-143783257D01*
X139466743Y-143854399D01*
X139521193Y-143876952D01*
X139559695Y-143892901D01*
X139559697Y-143892901D01*
X139674739Y-143892901D01*
X139674747Y-143892900D01*
X143942974Y-143892900D01*
X144010013Y-143912585D01*
X144055768Y-143965389D01*
X144056408Y-143966813D01*
X144078524Y-144016901D01*
X144093369Y-144050521D01*
X144169479Y-144126631D01*
X144200364Y-144140268D01*
X144214627Y-144146566D01*
X144268003Y-144191652D01*
X144288530Y-144258439D01*
X144269691Y-144325721D01*
X144217468Y-144372137D01*
X144214627Y-144373434D01*
X144169478Y-144393369D01*
X144093369Y-144469478D01*
X144049893Y-144567940D01*
X144049893Y-144567942D01*
X144047100Y-144592014D01*
X144047100Y-144947985D01*
X144049893Y-144972057D01*
X144049893Y-144972059D01*
X144079184Y-145038396D01*
X144093369Y-145070521D01*
X144169479Y-145146631D01*
X144169481Y-145146632D01*
X144169483Y-145146633D01*
X144193184Y-145157098D01*
X144207387Y-145169094D01*
X144224303Y-145176820D01*
X144233528Y-145191174D01*
X144246561Y-145202183D01*
X144252023Y-145219954D01*
X144262077Y-145235598D01*
X144266686Y-145267653D01*
X144267090Y-145268968D01*
X144267100Y-145270533D01*
X144267100Y-145489692D01*
X144267099Y-145489706D01*
X144267099Y-145600307D01*
X144283046Y-145638806D01*
X144283047Y-145638807D01*
X144285265Y-145644161D01*
X144305600Y-145693256D01*
X144386947Y-145774603D01*
X144386956Y-145774610D01*
X144705600Y-146093255D01*
X144705601Y-146093257D01*
X144776743Y-146164399D01*
X144823219Y-146183649D01*
X144869695Y-146202901D01*
X144869696Y-146202901D01*
X144984739Y-146202901D01*
X144984747Y-146202900D01*
X145309467Y-146202900D01*
X145376506Y-146222585D01*
X145422261Y-146275389D01*
X145422864Y-146276730D01*
X145433369Y-146300521D01*
X145509479Y-146376631D01*
X145607943Y-146420107D01*
X145632016Y-146422900D01*
X145632017Y-146422900D01*
X145987983Y-146422900D01*
X145987984Y-146422900D01*
X146012057Y-146420107D01*
X146110521Y-146376631D01*
X146186631Y-146300521D01*
X146206566Y-146255373D01*
X146251652Y-146201996D01*
X146318438Y-146181469D01*
X146385720Y-146200307D01*
X146417449Y-146228780D01*
X146427118Y-146241068D01*
X146453369Y-146300521D01*
X146529479Y-146376631D01*
X146536079Y-146379545D01*
X146550549Y-146397934D01*
X146556772Y-146413467D01*
X146567357Y-146426432D01*
X146572849Y-146453593D01*
X146576535Y-146462792D01*
X146575644Y-146467417D01*
X146577100Y-146474613D01*
X146577100Y-146525386D01*
X146557415Y-146592425D01*
X146536415Y-146614055D01*
X146537604Y-146615244D01*
X146453369Y-146699478D01*
X146409893Y-146797940D01*
X146409893Y-146797942D01*
X146407100Y-146822014D01*
X146407100Y-147277985D01*
X146409893Y-147302057D01*
X146409893Y-147302059D01*
X146435482Y-147360011D01*
X146453369Y-147400521D01*
X146529479Y-147476631D01*
X146627943Y-147520107D01*
X146652016Y-147522900D01*
X146652017Y-147522900D01*
X147007983Y-147522900D01*
X147007984Y-147522900D01*
X147032057Y-147520107D01*
X147130521Y-147476631D01*
X147206631Y-147400521D01*
X147250107Y-147302057D01*
X147252900Y-147277984D01*
X147252900Y-146822016D01*
X147250107Y-146797943D01*
X147246411Y-146789573D01*
X147211627Y-146710794D01*
X147206631Y-146699479D01*
X147130521Y-146623369D01*
X147126716Y-146619564D01*
X147125697Y-146619099D01*
X147124700Y-146617548D01*
X147122396Y-146615244D01*
X147122897Y-146614742D01*
X147110454Y-146595380D01*
X147092633Y-146573542D01*
X147090895Y-146564946D01*
X147087923Y-146560321D01*
X147082900Y-146525386D01*
X147082900Y-146474613D01*
X147102585Y-146407574D01*
X147123586Y-146385946D01*
X147122396Y-146384756D01*
X147130522Y-146376630D01*
X147206631Y-146300521D01*
X147250107Y-146202057D01*
X147252900Y-146177984D01*
X147252900Y-145722016D01*
X147252899Y-145722014D01*
X147252899Y-145722002D01*
X147251241Y-145707714D01*
X147251241Y-145707713D01*
X147251240Y-145707710D01*
X147250645Y-145702583D01*
X147250147Y-145698286D01*
X147977100Y-145698286D01*
X147977100Y-147061713D01*
X147992041Y-147156050D01*
X147992042Y-147156053D01*
X147992043Y-147156055D01*
X148049984Y-147269771D01*
X148049985Y-147269772D01*
X148049988Y-147269776D01*
X148140223Y-147360011D01*
X148140227Y-147360014D01*
X148140229Y-147360016D01*
X148253945Y-147417957D01*
X148253947Y-147417957D01*
X148253949Y-147417958D01*
X148348287Y-147432900D01*
X148348292Y-147432900D01*
X149111713Y-147432900D01*
X149206050Y-147417958D01*
X149206050Y-147417957D01*
X149206055Y-147417957D01*
X149319771Y-147360016D01*
X149410016Y-147269771D01*
X149467957Y-147156055D01*
X149467958Y-147156050D01*
X149482900Y-147061713D01*
X149482900Y-145698286D01*
X152577100Y-145698286D01*
X152577100Y-147061713D01*
X152592041Y-147156050D01*
X152592042Y-147156053D01*
X152592043Y-147156055D01*
X152649984Y-147269771D01*
X152649985Y-147269772D01*
X152649988Y-147269776D01*
X152740223Y-147360011D01*
X152740227Y-147360014D01*
X152740229Y-147360016D01*
X152853945Y-147417957D01*
X152853947Y-147417957D01*
X152853949Y-147417958D01*
X152948287Y-147432900D01*
X152948292Y-147432900D01*
X153711713Y-147432900D01*
X153806050Y-147417958D01*
X153806050Y-147417957D01*
X153806055Y-147417957D01*
X153919771Y-147360016D01*
X154010016Y-147269771D01*
X154067957Y-147156055D01*
X154067958Y-147156050D01*
X154082900Y-147061713D01*
X154082900Y-145698286D01*
X155017100Y-145698286D01*
X155017100Y-147061713D01*
X155032041Y-147156050D01*
X155032042Y-147156053D01*
X155032043Y-147156055D01*
X155089984Y-147269771D01*
X155089985Y-147269772D01*
X155089988Y-147269776D01*
X155180223Y-147360011D01*
X155180227Y-147360014D01*
X155180229Y-147360016D01*
X155293945Y-147417957D01*
X155293947Y-147417957D01*
X155293949Y-147417958D01*
X155388287Y-147432900D01*
X155388292Y-147432900D01*
X156151713Y-147432900D01*
X156246050Y-147417958D01*
X156246050Y-147417957D01*
X156246055Y-147417957D01*
X156359771Y-147360016D01*
X156450016Y-147269771D01*
X156507957Y-147156055D01*
X156507958Y-147156050D01*
X156522900Y-147061713D01*
X156522900Y-145698286D01*
X160617100Y-145698286D01*
X160617100Y-147061713D01*
X160632041Y-147156050D01*
X160632042Y-147156053D01*
X160632043Y-147156055D01*
X160689984Y-147269771D01*
X160689985Y-147269772D01*
X160689988Y-147269776D01*
X160780223Y-147360011D01*
X160780227Y-147360014D01*
X160780229Y-147360016D01*
X160893945Y-147417957D01*
X160893947Y-147417957D01*
X160893949Y-147417958D01*
X160988287Y-147432900D01*
X160988292Y-147432900D01*
X161751713Y-147432900D01*
X161846050Y-147417958D01*
X161846050Y-147417957D01*
X161846055Y-147417957D01*
X161959771Y-147360016D01*
X162050016Y-147269771D01*
X162107957Y-147156055D01*
X162107958Y-147156050D01*
X162122900Y-147061713D01*
X162122900Y-145698286D01*
X162107958Y-145603949D01*
X162107957Y-145603947D01*
X162107957Y-145603945D01*
X162050016Y-145490229D01*
X162050014Y-145490227D01*
X162050011Y-145490223D01*
X161959776Y-145399988D01*
X161959772Y-145399985D01*
X161959771Y-145399984D01*
X161846055Y-145342043D01*
X161846053Y-145342042D01*
X161846050Y-145342041D01*
X161751713Y-145327100D01*
X161751708Y-145327100D01*
X160988292Y-145327100D01*
X160988287Y-145327100D01*
X160893949Y-145342041D01*
X160780227Y-145399985D01*
X160780223Y-145399988D01*
X160689988Y-145490223D01*
X160689985Y-145490227D01*
X160632041Y-145603949D01*
X160617100Y-145698286D01*
X156522900Y-145698286D01*
X156507958Y-145603949D01*
X156507957Y-145603947D01*
X156507957Y-145603945D01*
X156450016Y-145490229D01*
X156450014Y-145490227D01*
X156450011Y-145490223D01*
X156359776Y-145399988D01*
X156359772Y-145399985D01*
X156359771Y-145399984D01*
X156246055Y-145342043D01*
X156246053Y-145342042D01*
X156246050Y-145342041D01*
X156151713Y-145327100D01*
X156151708Y-145327100D01*
X155388292Y-145327100D01*
X155388287Y-145327100D01*
X155293949Y-145342041D01*
X155180227Y-145399985D01*
X155180223Y-145399988D01*
X155089988Y-145490223D01*
X155089985Y-145490227D01*
X155032041Y-145603949D01*
X155017100Y-145698286D01*
X154082900Y-145698286D01*
X154067958Y-145603949D01*
X154067957Y-145603947D01*
X154067957Y-145603945D01*
X154010016Y-145490229D01*
X154010014Y-145490227D01*
X154010011Y-145490223D01*
X153919776Y-145399988D01*
X153919772Y-145399985D01*
X153919771Y-145399984D01*
X153806055Y-145342043D01*
X153806053Y-145342042D01*
X153806050Y-145342041D01*
X153711713Y-145327100D01*
X153711708Y-145327100D01*
X152948292Y-145327100D01*
X152948287Y-145327100D01*
X152853949Y-145342041D01*
X152740227Y-145399985D01*
X152740223Y-145399988D01*
X152649988Y-145490223D01*
X152649985Y-145490227D01*
X152592041Y-145603949D01*
X152577100Y-145698286D01*
X149482900Y-145698286D01*
X149467958Y-145603949D01*
X149467957Y-145603947D01*
X149467957Y-145603945D01*
X149410016Y-145490229D01*
X149410014Y-145490227D01*
X149410011Y-145490223D01*
X149319776Y-145399988D01*
X149319772Y-145399985D01*
X149319771Y-145399984D01*
X149206055Y-145342043D01*
X149206053Y-145342042D01*
X149206050Y-145342041D01*
X149111713Y-145327100D01*
X149111708Y-145327100D01*
X148348292Y-145327100D01*
X148348287Y-145327100D01*
X148253949Y-145342041D01*
X148140227Y-145399985D01*
X148140223Y-145399988D01*
X148049988Y-145490223D01*
X148049985Y-145490227D01*
X147992041Y-145603949D01*
X147977100Y-145698286D01*
X147250147Y-145698286D01*
X147250107Y-145697943D01*
X147249730Y-145697090D01*
X147224626Y-145640234D01*
X147206631Y-145599479D01*
X147130521Y-145523369D01*
X147124784Y-145520836D01*
X147032058Y-145479893D01*
X147007985Y-145477100D01*
X147007984Y-145477100D01*
X146652016Y-145477100D01*
X146652014Y-145477100D01*
X146627942Y-145479893D01*
X146627940Y-145479893D01*
X146529478Y-145523369D01*
X146453369Y-145599478D01*
X146433434Y-145644627D01*
X146388348Y-145698003D01*
X146321561Y-145718530D01*
X146254279Y-145699691D01*
X146221686Y-145670107D01*
X146212592Y-145658276D01*
X146186631Y-145599479D01*
X146110521Y-145523369D01*
X146108065Y-145522284D01*
X146098586Y-145509952D01*
X146088760Y-145484599D01*
X146075734Y-145460742D01*
X146074282Y-145447240D01*
X146073338Y-145444804D01*
X146073784Y-145442615D01*
X146072900Y-145434385D01*
X146072900Y-145219204D01*
X146092585Y-145152165D01*
X146126828Y-145116901D01*
X146128388Y-145115831D01*
X146128396Y-145115828D01*
X146205828Y-145038396D01*
X146250059Y-144938221D01*
X146252900Y-144913734D01*
X146252900Y-144486266D01*
X146250059Y-144461779D01*
X146205828Y-144361604D01*
X146128396Y-144284172D01*
X146128391Y-144284167D01*
X146126816Y-144283088D01*
X146124613Y-144280389D01*
X146121281Y-144277057D01*
X146115697Y-144274507D01*
X146100455Y-144250790D01*
X146082637Y-144228959D01*
X146080898Y-144220358D01*
X146077923Y-144215729D01*
X146072900Y-144180794D01*
X146072900Y-144119204D01*
X146092585Y-144052165D01*
X146126828Y-144016901D01*
X146128388Y-144015831D01*
X146128396Y-144015828D01*
X146205828Y-143938396D01*
X146250059Y-143838221D01*
X146252900Y-143813734D01*
X146252900Y-143386266D01*
X146250059Y-143361779D01*
X146243587Y-143347122D01*
X146208451Y-143267545D01*
X146205828Y-143261604D01*
X146128396Y-143184172D01*
X146029112Y-143140334D01*
X145975737Y-143095249D01*
X145955209Y-143028463D01*
X145974047Y-142961181D01*
X146026270Y-142914764D01*
X146079199Y-142902900D01*
X147769693Y-142902900D01*
X147769695Y-142902901D01*
X147870305Y-142902901D01*
X147908806Y-142886952D01*
X147963257Y-142864399D01*
X148034399Y-142793257D01*
X148034399Y-142793254D01*
X148046314Y-142781340D01*
X148046317Y-142781335D01*
X149566108Y-141261545D01*
X149627428Y-141228062D01*
X149697120Y-141233046D01*
X149753053Y-141274918D01*
X149777470Y-141340382D01*
X149777528Y-141357217D01*
X149776204Y-141377712D01*
X149767099Y-141399695D01*
X149767099Y-141500305D01*
X149767100Y-141500307D01*
X149767100Y-141518739D01*
X149766842Y-141522736D01*
X149761751Y-141536679D01*
X149747415Y-141585503D01*
X149713178Y-141620763D01*
X149705856Y-141625778D01*
X149625780Y-141705855D01*
X149625778Y-141705859D01*
X149580038Y-141809447D01*
X149580038Y-141809449D01*
X149577100Y-141834772D01*
X149577100Y-143175227D01*
X149580038Y-143200550D01*
X149580038Y-143200552D01*
X149596018Y-143236742D01*
X149625780Y-143304145D01*
X149705855Y-143384220D01*
X149809450Y-143429962D01*
X149834774Y-143432900D01*
X149834775Y-143432900D01*
X150225225Y-143432900D01*
X150225226Y-143432900D01*
X150250550Y-143429962D01*
X150354145Y-143384220D01*
X150434220Y-143304145D01*
X150479962Y-143200550D01*
X150482900Y-143175226D01*
X150482900Y-141834774D01*
X150479962Y-141809450D01*
X150477070Y-141802901D01*
X150460070Y-141764399D01*
X150434220Y-141705855D01*
X150365690Y-141637325D01*
X150332205Y-141576002D01*
X150337189Y-141506310D01*
X150365688Y-141461965D01*
X151450753Y-140376900D01*
X151450757Y-140376899D01*
X151521899Y-140305757D01*
X151535809Y-140272173D01*
X151548004Y-140257601D01*
X151561898Y-140248330D01*
X151572379Y-140235324D01*
X151590359Y-140229339D01*
X151606123Y-140218821D01*
X151622823Y-140218533D01*
X151638673Y-140213258D01*
X151657034Y-140217944D01*
X151675983Y-140217618D01*
X151690188Y-140226405D01*
X151706372Y-140230536D01*
X151719285Y-140244406D01*
X151735402Y-140254376D01*
X151742601Y-140269448D01*
X151753983Y-140281673D01*
X151759410Y-140304640D01*
X151765516Y-140317423D01*
X151764441Y-140325930D01*
X151767100Y-140337179D01*
X151767100Y-141518464D01*
X151747415Y-141585503D01*
X151713178Y-141620763D01*
X151705856Y-141625778D01*
X151625780Y-141705855D01*
X151625778Y-141705859D01*
X151580038Y-141809447D01*
X151580038Y-141809449D01*
X151577100Y-141834772D01*
X151577100Y-143175227D01*
X151580038Y-143200550D01*
X151580038Y-143200552D01*
X151596018Y-143236742D01*
X151625780Y-143304145D01*
X151705855Y-143384220D01*
X151809450Y-143429962D01*
X151834774Y-143432900D01*
X151834775Y-143432900D01*
X152225225Y-143432900D01*
X152225226Y-143432900D01*
X152250550Y-143429962D01*
X152354145Y-143384220D01*
X152434220Y-143304145D01*
X152479962Y-143200550D01*
X152482900Y-143175226D01*
X152482900Y-141834774D01*
X152479962Y-141809450D01*
X152477070Y-141802901D01*
X152460070Y-141764399D01*
X152434220Y-141705855D01*
X152354145Y-141625780D01*
X152354143Y-141625779D01*
X152346811Y-141622541D01*
X152293436Y-141577454D01*
X152272910Y-141510667D01*
X152272900Y-141509108D01*
X152272900Y-140223325D01*
X152272900Y-140200307D01*
X152272901Y-140200305D01*
X152272901Y-140099695D01*
X152253103Y-140051899D01*
X152234399Y-140006743D01*
X152163257Y-139935601D01*
X152156196Y-139928540D01*
X152156181Y-139928527D01*
X151996719Y-139769065D01*
X151963234Y-139707742D01*
X151960400Y-139681384D01*
X151960400Y-138830259D01*
X151980085Y-138763220D01*
X152032889Y-138717465D01*
X152102047Y-138707521D01*
X152165603Y-138736546D01*
X152172081Y-138742578D01*
X152229413Y-138799910D01*
X152332687Y-138859536D01*
X152447875Y-138890400D01*
X152447877Y-138890400D01*
X152551384Y-138890400D01*
X152618423Y-138910085D01*
X152639065Y-138926719D01*
X153505599Y-139793253D01*
X153505601Y-139793257D01*
X153576743Y-139864399D01*
X153621410Y-139882900D01*
X153669695Y-139902901D01*
X153669696Y-139902901D01*
X153784739Y-139902901D01*
X153784747Y-139902900D01*
X156663884Y-139902900D01*
X156730923Y-139922585D01*
X156751565Y-139939219D01*
X157730781Y-140918435D01*
X157764266Y-140979758D01*
X157767100Y-141006116D01*
X157767100Y-141553172D01*
X157747415Y-141620211D01*
X157730782Y-141640853D01*
X157665780Y-141705855D01*
X157665778Y-141705859D01*
X157620038Y-141809447D01*
X157620038Y-141809449D01*
X157617100Y-141834772D01*
X157617100Y-143175227D01*
X157620038Y-143200550D01*
X157620038Y-143200552D01*
X157636018Y-143236742D01*
X157665780Y-143304145D01*
X157745855Y-143384220D01*
X157849450Y-143429962D01*
X157874774Y-143432900D01*
X157874775Y-143432900D01*
X158265225Y-143432900D01*
X158265226Y-143432900D01*
X158290550Y-143429962D01*
X158394145Y-143384220D01*
X158474220Y-143304145D01*
X158474220Y-143304144D01*
X158482319Y-143296046D01*
X158543642Y-143262561D01*
X158613334Y-143267545D01*
X158657681Y-143296046D01*
X158665780Y-143304145D01*
X158745855Y-143384220D01*
X158849450Y-143429962D01*
X158874774Y-143432900D01*
X158874775Y-143432900D01*
X159265225Y-143432900D01*
X159265226Y-143432900D01*
X159290550Y-143429962D01*
X159394145Y-143384220D01*
X159474220Y-143304145D01*
X159474220Y-143304144D01*
X159482319Y-143296046D01*
X159543642Y-143262561D01*
X159613334Y-143267545D01*
X159657681Y-143296046D01*
X159665780Y-143304145D01*
X159745855Y-143384220D01*
X159849450Y-143429962D01*
X159874774Y-143432900D01*
X159874775Y-143432900D01*
X160265225Y-143432900D01*
X160265226Y-143432900D01*
X160290550Y-143429962D01*
X160394145Y-143384220D01*
X160474220Y-143304145D01*
X160519962Y-143200550D01*
X160522900Y-143175226D01*
X160522900Y-141834774D01*
X160519962Y-141809450D01*
X160517070Y-141802901D01*
X160500070Y-141764399D01*
X160474220Y-141705855D01*
X160394145Y-141625780D01*
X160357558Y-141609625D01*
X160346812Y-141604880D01*
X160293437Y-141559793D01*
X160272910Y-141493007D01*
X160272900Y-141491446D01*
X160272900Y-134423246D01*
X160272900Y-134400307D01*
X160272901Y-134400305D01*
X160272901Y-134299695D01*
X160253517Y-134252900D01*
X160234399Y-134206743D01*
X160163257Y-134135601D01*
X160156192Y-134128536D01*
X160156185Y-134128530D01*
X158601552Y-132573898D01*
X158584400Y-132556746D01*
X158584399Y-132556743D01*
X158513257Y-132485601D01*
X158448726Y-132458872D01*
X158435218Y-132453276D01*
X158435216Y-132453275D01*
X158420307Y-132447099D01*
X158420305Y-132447099D01*
X158319695Y-132447099D01*
X158305261Y-132447099D01*
X158305253Y-132447100D01*
X153859400Y-132447100D01*
X153792361Y-132427415D01*
X153746606Y-132374611D01*
X153736813Y-132341764D01*
X153735400Y-132332483D01*
X153735400Y-132230016D01*
X153723628Y-132170832D01*
X153706998Y-132145944D01*
X153702845Y-132118664D01*
X153703978Y-132110286D01*
X153701452Y-132102218D01*
X153708593Y-132076181D01*
X153712214Y-132049426D01*
X153717697Y-132042990D01*
X153719934Y-132034837D01*
X153722314Y-132031133D01*
X153723628Y-132029168D01*
X153735400Y-131969984D01*
X153735400Y-131876900D01*
X153755085Y-131809861D01*
X153807889Y-131764106D01*
X153859400Y-131752900D01*
X154719693Y-131752900D01*
X154719695Y-131752901D01*
X154820305Y-131752901D01*
X154858806Y-131736952D01*
X154913257Y-131714399D01*
X154984399Y-131643257D01*
X154984399Y-131643254D01*
X154996312Y-131631342D01*
X154996314Y-131631338D01*
X155288436Y-131339216D01*
X155315368Y-131324511D01*
X155341181Y-131307923D01*
X155347381Y-131307031D01*
X155349758Y-131305734D01*
X155376116Y-131302900D01*
X155490039Y-131302900D01*
X155557078Y-131322585D01*
X155597390Y-131369108D01*
X155597676Y-131368913D01*
X155599391Y-131371417D01*
X155602833Y-131375389D01*
X155603475Y-131376818D01*
X155604170Y-131378393D01*
X155604171Y-131378395D01*
X155604172Y-131378396D01*
X155681604Y-131455828D01*
X155781779Y-131500059D01*
X155806266Y-131502900D01*
X155806267Y-131502900D01*
X156233733Y-131502900D01*
X156233734Y-131502900D01*
X156258221Y-131500059D01*
X156358396Y-131455828D01*
X156435828Y-131378396D01*
X156435829Y-131378391D01*
X156436906Y-131376822D01*
X156439605Y-131374618D01*
X156442940Y-131371283D01*
X156445492Y-131365697D01*
X156469203Y-131350458D01*
X156491033Y-131332640D01*
X156499637Y-131330900D01*
X156504270Y-131327923D01*
X156539205Y-131322900D01*
X156600795Y-131322900D01*
X156667834Y-131342585D01*
X156703094Y-131376822D01*
X156704172Y-131378396D01*
X156781604Y-131455828D01*
X156881779Y-131500059D01*
X156906266Y-131502900D01*
X156906267Y-131502900D01*
X157333733Y-131502900D01*
X157333734Y-131502900D01*
X157358221Y-131500059D01*
X157458396Y-131455828D01*
X157535828Y-131378396D01*
X157535829Y-131378391D01*
X157536906Y-131376822D01*
X157539605Y-131374618D01*
X157542940Y-131371283D01*
X157545492Y-131365697D01*
X157569203Y-131350458D01*
X157591033Y-131332640D01*
X157599637Y-131330900D01*
X157604270Y-131327923D01*
X157639205Y-131322900D01*
X157700795Y-131322900D01*
X157767834Y-131342585D01*
X157803094Y-131376822D01*
X157804172Y-131378396D01*
X157881604Y-131455828D01*
X157981779Y-131500059D01*
X158006266Y-131502900D01*
X158006267Y-131502900D01*
X158433733Y-131502900D01*
X158433734Y-131502900D01*
X158458221Y-131500059D01*
X158558396Y-131455828D01*
X158585814Y-131428409D01*
X158647134Y-131394925D01*
X158716826Y-131399909D01*
X158735495Y-131408704D01*
X158741911Y-131412408D01*
X158741913Y-131412410D01*
X158845187Y-131472036D01*
X158960375Y-131502900D01*
X158960377Y-131502900D01*
X159079623Y-131502900D01*
X159079625Y-131502900D01*
X159194813Y-131472036D01*
X159298087Y-131412410D01*
X159382410Y-131328087D01*
X159442036Y-131224813D01*
X159472900Y-131109625D01*
X159472900Y-130990375D01*
X159442036Y-130875187D01*
X159382410Y-130771913D01*
X159298087Y-130687590D01*
X159226783Y-130646422D01*
X159194814Y-130627964D01*
X159137219Y-130612532D01*
X159079625Y-130597100D01*
X158960375Y-130597100D01*
X158845185Y-130627964D01*
X158741913Y-130687590D01*
X158741911Y-130687591D01*
X158739539Y-130689964D01*
X158737047Y-130691324D01*
X158735467Y-130692537D01*
X158735277Y-130692290D01*
X158678214Y-130723445D01*
X158608522Y-130718456D01*
X158583065Y-130705441D01*
X158572858Y-130698634D01*
X158558396Y-130684172D01*
X158537017Y-130674732D01*
X158528102Y-130668787D01*
X158512273Y-130649881D01*
X158493435Y-130633968D01*
X158490236Y-130623561D01*
X158483249Y-130615215D01*
X158480153Y-130590752D01*
X158472910Y-130567181D01*
X158472900Y-130565623D01*
X158472900Y-128943713D01*
X159569500Y-128943713D01*
X159569500Y-129156286D01*
X159602483Y-129364536D01*
X159602754Y-129366243D01*
X159653720Y-129523101D01*
X159668444Y-129568414D01*
X159764951Y-129757820D01*
X159889890Y-129929786D01*
X160040213Y-130080109D01*
X160212179Y-130205048D01*
X160212181Y-130205049D01*
X160212184Y-130205051D01*
X160401588Y-130301557D01*
X160603757Y-130367246D01*
X160813713Y-130400500D01*
X160813714Y-130400500D01*
X161026286Y-130400500D01*
X161026287Y-130400500D01*
X161236243Y-130367246D01*
X161438412Y-130301557D01*
X161627816Y-130205051D01*
X161697219Y-130154627D01*
X161799786Y-130080109D01*
X161799788Y-130080106D01*
X161799792Y-130080104D01*
X161950104Y-129929792D01*
X161950106Y-129929788D01*
X161950109Y-129929786D01*
X162075048Y-129757820D01*
X162075047Y-129757820D01*
X162075051Y-129757816D01*
X162171557Y-129568412D01*
X162237246Y-129366243D01*
X162270500Y-129156287D01*
X162270500Y-128943713D01*
X162237246Y-128733757D01*
X162171557Y-128531588D01*
X162075051Y-128342184D01*
X162075049Y-128342181D01*
X162075048Y-128342179D01*
X161950109Y-128170213D01*
X161799786Y-128019890D01*
X161627820Y-127894951D01*
X161438414Y-127798444D01*
X161438413Y-127798443D01*
X161438412Y-127798443D01*
X161236243Y-127732754D01*
X161236241Y-127732753D01*
X161236240Y-127732753D01*
X161051371Y-127703473D01*
X161026287Y-127699500D01*
X160813713Y-127699500D01*
X160788629Y-127703473D01*
X160603760Y-127732753D01*
X160401585Y-127798444D01*
X160212179Y-127894951D01*
X160040213Y-128019890D01*
X159889890Y-128170213D01*
X159764951Y-128342179D01*
X159668444Y-128531585D01*
X159602753Y-128733760D01*
X159569500Y-128943713D01*
X158472900Y-128943713D01*
X158472900Y-127276900D01*
X158492585Y-127209861D01*
X158545389Y-127164106D01*
X158596900Y-127152900D01*
X158676713Y-127152900D01*
X158771050Y-127137958D01*
X158771050Y-127137957D01*
X158771055Y-127137957D01*
X158884771Y-127080016D01*
X158975016Y-126989771D01*
X159032957Y-126876055D01*
X159032958Y-126876050D01*
X159047900Y-126781713D01*
X159047900Y-126329497D01*
X159056543Y-126300060D01*
X159063067Y-126270071D01*
X159066822Y-126265053D01*
X159067585Y-126262458D01*
X159084214Y-126241819D01*
X159163640Y-126162393D01*
X159163643Y-126162392D01*
X159181080Y-126144955D01*
X159181081Y-126144955D01*
X159241955Y-126084081D01*
X159274900Y-126004545D01*
X159274900Y-122214307D01*
X159567099Y-122214307D01*
X159592189Y-122340438D01*
X159592191Y-122340444D01*
X159641406Y-122459261D01*
X159641411Y-122459270D01*
X159712859Y-122566198D01*
X159712862Y-122566202D01*
X159803797Y-122657137D01*
X159803801Y-122657140D01*
X159910731Y-122728589D01*
X159910732Y-122728589D01*
X159910736Y-122728592D01*
X159927053Y-122735350D01*
X159942617Y-122747893D01*
X159960803Y-122756198D01*
X159969266Y-122769366D01*
X159981455Y-122779189D01*
X159987768Y-122798158D01*
X159998577Y-122814976D01*
X160002539Y-122842533D01*
X160003521Y-122845483D01*
X160003600Y-122849911D01*
X160003600Y-122980383D01*
X159983915Y-123047422D01*
X159947775Y-123081884D01*
X159948358Y-123082644D01*
X159941916Y-123087586D01*
X159857589Y-123171913D01*
X159797964Y-123275185D01*
X159767100Y-123390375D01*
X159767100Y-123509624D01*
X159797964Y-123624814D01*
X159827777Y-123676450D01*
X159857590Y-123728087D01*
X159941913Y-123812410D01*
X160045187Y-123872036D01*
X160160375Y-123902900D01*
X160160377Y-123902900D01*
X160279623Y-123902900D01*
X160279625Y-123902900D01*
X160394813Y-123872036D01*
X160498087Y-123812410D01*
X160582410Y-123728087D01*
X160642036Y-123624813D01*
X160672900Y-123509625D01*
X160672900Y-123390375D01*
X160642036Y-123275187D01*
X160582410Y-123171913D01*
X160498087Y-123087590D01*
X160498083Y-123087586D01*
X160491642Y-123082644D01*
X160492474Y-123081558D01*
X160490111Y-123079080D01*
X160479197Y-123074096D01*
X160466448Y-123054259D01*
X160450180Y-123037194D01*
X160446965Y-123023942D01*
X160441423Y-123015318D01*
X160436400Y-122980383D01*
X160436400Y-122849911D01*
X160456085Y-122782872D01*
X160508889Y-122737117D01*
X160512911Y-122735365D01*
X160529264Y-122728592D01*
X160636199Y-122657140D01*
X160727140Y-122566199D01*
X160798592Y-122459264D01*
X160847809Y-122340444D01*
X160872900Y-122214305D01*
X160872900Y-122085695D01*
X160872900Y-122085692D01*
X160847810Y-121959561D01*
X160847809Y-121959560D01*
X160847809Y-121959556D01*
X160804505Y-121855011D01*
X160798593Y-121840738D01*
X160798588Y-121840729D01*
X160727140Y-121733801D01*
X160727137Y-121733797D01*
X160636202Y-121642862D01*
X160636198Y-121642859D01*
X160529270Y-121571411D01*
X160529261Y-121571406D01*
X160410444Y-121522191D01*
X160410438Y-121522189D01*
X160284307Y-121497100D01*
X160284305Y-121497100D01*
X160155695Y-121497100D01*
X160155693Y-121497100D01*
X160029561Y-121522189D01*
X160029555Y-121522191D01*
X159910738Y-121571406D01*
X159910729Y-121571411D01*
X159803801Y-121642859D01*
X159803797Y-121642862D01*
X159712862Y-121733797D01*
X159712859Y-121733801D01*
X159641411Y-121840729D01*
X159641406Y-121840738D01*
X159592191Y-121959555D01*
X159592189Y-121959561D01*
X159567100Y-122085692D01*
X159567100Y-122085695D01*
X159567100Y-122214305D01*
X159567100Y-122214307D01*
X159567099Y-122214307D01*
X159274900Y-122214307D01*
X159274900Y-121152497D01*
X159294585Y-121085458D01*
X159311219Y-121064816D01*
X159573422Y-120802613D01*
X159878106Y-120497928D01*
X159939427Y-120464445D01*
X160009118Y-120469429D01*
X160013238Y-120471049D01*
X160029556Y-120477809D01*
X160029560Y-120477809D01*
X160029561Y-120477810D01*
X160155692Y-120502900D01*
X160155695Y-120502900D01*
X160284307Y-120502900D01*
X160369165Y-120486019D01*
X160410444Y-120477809D01*
X160529264Y-120428592D01*
X160636199Y-120357140D01*
X160727140Y-120266199D01*
X160798592Y-120159264D01*
X160847809Y-120040444D01*
X160872900Y-119914305D01*
X160872900Y-119785695D01*
X160872900Y-119785692D01*
X160847810Y-119659561D01*
X160847809Y-119659560D01*
X160847809Y-119659556D01*
X160798592Y-119540736D01*
X160798591Y-119540735D01*
X160798588Y-119540729D01*
X160727140Y-119433801D01*
X160727137Y-119433797D01*
X160636202Y-119342862D01*
X160636198Y-119342859D01*
X160529270Y-119271411D01*
X160529261Y-119271406D01*
X160410444Y-119222191D01*
X160410438Y-119222189D01*
X160284307Y-119197100D01*
X160284305Y-119197100D01*
X160155695Y-119197100D01*
X160155693Y-119197100D01*
X160029561Y-119222189D01*
X160029555Y-119222191D01*
X159910738Y-119271406D01*
X159910729Y-119271411D01*
X159803801Y-119342859D01*
X159803797Y-119342862D01*
X159712862Y-119433797D01*
X159712859Y-119433801D01*
X159641411Y-119540729D01*
X159641406Y-119540738D01*
X159592191Y-119659555D01*
X159592189Y-119659561D01*
X159567100Y-119785692D01*
X159567100Y-119785695D01*
X159567100Y-119914305D01*
X159567100Y-119914307D01*
X159567099Y-119914307D01*
X159592189Y-120040438D01*
X159592192Y-120040448D01*
X159598949Y-120056760D01*
X159606418Y-120126229D01*
X159575143Y-120188708D01*
X159572069Y-120191893D01*
X158935920Y-120828044D01*
X158875046Y-120888917D01*
X158842100Y-120968454D01*
X158842100Y-125728109D01*
X158822415Y-125795148D01*
X158769611Y-125840903D01*
X158700453Y-125850847D01*
X158698705Y-125850583D01*
X158676711Y-125847100D01*
X158676708Y-125847100D01*
X157663292Y-125847100D01*
X157663287Y-125847100D01*
X157568949Y-125862041D01*
X157455227Y-125919985D01*
X157455223Y-125919988D01*
X157364988Y-126010223D01*
X157364985Y-126010227D01*
X157364984Y-126010229D01*
X157313944Y-126110402D01*
X157307041Y-126123949D01*
X157292100Y-126218286D01*
X157292100Y-126781713D01*
X157307041Y-126876050D01*
X157307042Y-126876053D01*
X157307043Y-126876055D01*
X157364984Y-126989771D01*
X157364985Y-126989772D01*
X157364988Y-126989776D01*
X157455223Y-127080011D01*
X157455226Y-127080013D01*
X157455229Y-127080016D01*
X157455231Y-127080017D01*
X157463121Y-127085749D01*
X157462075Y-127087188D01*
X157504397Y-127127157D01*
X157521195Y-127194978D01*
X157498660Y-127261114D01*
X157484990Y-127277353D01*
X156791565Y-127970781D01*
X156730242Y-128004266D01*
X156703884Y-128007100D01*
X155944613Y-128007100D01*
X155877574Y-127987415D01*
X155867934Y-127980549D01*
X155849545Y-127966080D01*
X155846631Y-127959479D01*
X155770521Y-127883369D01*
X155711068Y-127857118D01*
X155698780Y-127847449D01*
X155687222Y-127831209D01*
X155671996Y-127818348D01*
X155667378Y-127803326D01*
X155658268Y-127790524D01*
X155657324Y-127770614D01*
X155651469Y-127751562D01*
X155655705Y-127736430D01*
X155654962Y-127720733D01*
X155664933Y-127703473D01*
X155670307Y-127684280D01*
X155682052Y-127673840D01*
X155689914Y-127660233D01*
X155707632Y-127651104D01*
X155722531Y-127637863D01*
X155725373Y-127636566D01*
X155735576Y-127632060D01*
X155770521Y-127616631D01*
X155846631Y-127540521D01*
X155890107Y-127442057D01*
X155892900Y-127417984D01*
X155892900Y-127062016D01*
X155890107Y-127037943D01*
X155846631Y-126939479D01*
X155770521Y-126863369D01*
X155719797Y-126840972D01*
X155672058Y-126819893D01*
X155647985Y-126817100D01*
X155647984Y-126817100D01*
X155192016Y-126817100D01*
X155192014Y-126817100D01*
X155167942Y-126819893D01*
X155167940Y-126819893D01*
X155069478Y-126863369D01*
X154993369Y-126939478D01*
X154949893Y-127037940D01*
X154949893Y-127037942D01*
X154947100Y-127062014D01*
X154947100Y-127303883D01*
X154927415Y-127370922D01*
X154910781Y-127391564D01*
X154541565Y-127760781D01*
X154480242Y-127794266D01*
X154453884Y-127797100D01*
X154206264Y-127797100D01*
X154181778Y-127799941D01*
X154181776Y-127799941D01*
X154081607Y-127844170D01*
X154081602Y-127844173D01*
X154004173Y-127921602D01*
X154004170Y-127921607D01*
X153959941Y-128021776D01*
X153959941Y-128021778D01*
X153957918Y-128039219D01*
X153957100Y-128046266D01*
X153957100Y-128413734D01*
X153959941Y-128438221D01*
X153975914Y-128474396D01*
X153978983Y-128481347D01*
X153988054Y-128550626D01*
X153958230Y-128613810D01*
X153953229Y-128619114D01*
X153611564Y-128960781D01*
X153550241Y-128994266D01*
X153523883Y-128997100D01*
X153237457Y-128997100D01*
X153170418Y-128977415D01*
X153124663Y-128924611D01*
X153114719Y-128855453D01*
X153122896Y-128825647D01*
X153132000Y-128803667D01*
X153136400Y-128793045D01*
X153136400Y-126690996D01*
X153145043Y-126661559D01*
X153151567Y-126631570D01*
X153155322Y-126626552D01*
X153156085Y-126623957D01*
X153172710Y-126603324D01*
X153248139Y-126527895D01*
X153309457Y-126494413D01*
X153360008Y-126493962D01*
X153383429Y-126498620D01*
X153404943Y-126502900D01*
X154435056Y-126502899D01*
X154479658Y-126494028D01*
X154530234Y-126460234D01*
X154564028Y-126409658D01*
X154565373Y-126402899D01*
X154570049Y-126379387D01*
X154572900Y-126365057D01*
X154572899Y-124734944D01*
X154564028Y-124690342D01*
X154564026Y-124690340D01*
X154564026Y-124690338D01*
X154530234Y-124639766D01*
X154530233Y-124639765D01*
X154479658Y-124605972D01*
X154479657Y-124605971D01*
X154479656Y-124605971D01*
X154479654Y-124605970D01*
X154435059Y-124597100D01*
X153404945Y-124597100D01*
X153360341Y-124605972D01*
X153360338Y-124605973D01*
X153309766Y-124639765D01*
X153275971Y-124690343D01*
X153275970Y-124690345D01*
X153267100Y-124734940D01*
X153267100Y-125845501D01*
X153247415Y-125912540D01*
X153230781Y-125933182D01*
X153012402Y-126151562D01*
X152797420Y-126366544D01*
X152797419Y-126366545D01*
X152790296Y-126373668D01*
X152784577Y-126379387D01*
X152723252Y-126412869D01*
X152653561Y-126407882D01*
X152597629Y-126366009D01*
X152573215Y-126300543D01*
X152572899Y-126291728D01*
X152572899Y-124734944D01*
X152564028Y-124690342D01*
X152564026Y-124690340D01*
X152564026Y-124690338D01*
X152530234Y-124639766D01*
X152530233Y-124639765D01*
X152479658Y-124605972D01*
X152479657Y-124605971D01*
X152479656Y-124605971D01*
X152479654Y-124605970D01*
X152435059Y-124597100D01*
X151404945Y-124597100D01*
X151360341Y-124605972D01*
X151360338Y-124605973D01*
X151309766Y-124639765D01*
X151275971Y-124690343D01*
X151275970Y-124690345D01*
X151267100Y-124734940D01*
X151267100Y-126365054D01*
X151275972Y-126409658D01*
X151275973Y-126409661D01*
X151309765Y-126460233D01*
X151309766Y-126460234D01*
X151360342Y-126494028D01*
X151360343Y-126494028D01*
X151360345Y-126494029D01*
X151382642Y-126498464D01*
X151404943Y-126502900D01*
X151543100Y-126502899D01*
X151551785Y-126505449D01*
X151560747Y-126504161D01*
X151584784Y-126515138D01*
X151610139Y-126522583D01*
X151616067Y-126529425D01*
X151624303Y-126533186D01*
X151638589Y-126555417D01*
X151655894Y-126575387D01*
X151658181Y-126585902D01*
X151662077Y-126591964D01*
X151667100Y-126626899D01*
X151667100Y-126704692D01*
X151667099Y-126704706D01*
X151667099Y-126714695D01*
X151667099Y-126815305D01*
X151677731Y-126840972D01*
X151687008Y-126863369D01*
X151705600Y-126908256D01*
X151786947Y-126989603D01*
X151786956Y-126989610D01*
X151959664Y-127162319D01*
X151993149Y-127223641D01*
X151988165Y-127293333D01*
X151959664Y-127337680D01*
X150972081Y-128325264D01*
X150910758Y-128358749D01*
X150841067Y-128353765D01*
X150785133Y-128311893D01*
X150760716Y-128246429D01*
X150760400Y-128237583D01*
X150760400Y-127166052D01*
X150780085Y-127099013D01*
X150832889Y-127053258D01*
X150834314Y-127052618D01*
X150846820Y-127047096D01*
X150870521Y-127036631D01*
X150946631Y-126960521D01*
X150990107Y-126862057D01*
X150992900Y-126837984D01*
X150992900Y-126482016D01*
X150990107Y-126457943D01*
X150988847Y-126455090D01*
X150964506Y-126399962D01*
X150946631Y-126359479D01*
X150870521Y-126283369D01*
X150858667Y-126278135D01*
X150825373Y-126263434D01*
X150771996Y-126218348D01*
X150751469Y-126151562D01*
X150770307Y-126084280D01*
X150822531Y-126037863D01*
X150825373Y-126036566D01*
X150835576Y-126032060D01*
X150870521Y-126016631D01*
X150946631Y-125940521D01*
X150990107Y-125842057D01*
X150992900Y-125817984D01*
X150992900Y-125462016D01*
X150990107Y-125437943D01*
X150982177Y-125419984D01*
X150949856Y-125346784D01*
X150946631Y-125339479D01*
X150870521Y-125263369D01*
X150860975Y-125259154D01*
X150846814Y-125252901D01*
X150793438Y-125207815D01*
X150776317Y-125168373D01*
X150772901Y-125154123D01*
X150772901Y-125099695D01*
X150745675Y-125033968D01*
X150740213Y-125020781D01*
X150734400Y-125006744D01*
X150732103Y-125004447D01*
X150663257Y-124935601D01*
X150663255Y-124935600D01*
X150656189Y-124928534D01*
X150656189Y-124928533D01*
X150656185Y-124928530D01*
X150309369Y-124581714D01*
X150275884Y-124520391D01*
X150273050Y-124494033D01*
X150273050Y-124020399D01*
X150292735Y-123953360D01*
X150345539Y-123907605D01*
X150397045Y-123896399D01*
X150660106Y-123896399D01*
X150704708Y-123887528D01*
X150704711Y-123887525D01*
X150715995Y-123882853D01*
X150716882Y-123884995D01*
X150767768Y-123869054D01*
X150823409Y-123884309D01*
X150824012Y-123882855D01*
X150835291Y-123887527D01*
X150835292Y-123887528D01*
X150835293Y-123887528D01*
X150835295Y-123887529D01*
X150857592Y-123891964D01*
X150879893Y-123896400D01*
X151160006Y-123896399D01*
X151204608Y-123887528D01*
X151204611Y-123887525D01*
X151215895Y-123882853D01*
X151216769Y-123884963D01*
X151267779Y-123868988D01*
X151323522Y-123884277D01*
X151324112Y-123882855D01*
X151335391Y-123887527D01*
X151335392Y-123887528D01*
X151335393Y-123887528D01*
X151335395Y-123887529D01*
X151357692Y-123891964D01*
X151379993Y-123896400D01*
X151660106Y-123896399D01*
X151704708Y-123887528D01*
X151704711Y-123887525D01*
X151715995Y-123882853D01*
X151716882Y-123884995D01*
X151767768Y-123869054D01*
X151823409Y-123884309D01*
X151824012Y-123882855D01*
X151835291Y-123887527D01*
X151835292Y-123887528D01*
X151835293Y-123887528D01*
X151835295Y-123887529D01*
X151857592Y-123891964D01*
X151879893Y-123896400D01*
X152160006Y-123896399D01*
X152204608Y-123887528D01*
X152204611Y-123887525D01*
X152215895Y-123882853D01*
X152216769Y-123884963D01*
X152267779Y-123868988D01*
X152323522Y-123884277D01*
X152324112Y-123882855D01*
X152335391Y-123887527D01*
X152335392Y-123887528D01*
X152335393Y-123887528D01*
X152335395Y-123887529D01*
X152357692Y-123891964D01*
X152379993Y-123896400D01*
X152660106Y-123896399D01*
X152704708Y-123887528D01*
X152713732Y-123881497D01*
X152780409Y-123860619D01*
X152847789Y-123879102D01*
X152851493Y-123881482D01*
X152860392Y-123887428D01*
X152860393Y-123887428D01*
X152860395Y-123887429D01*
X152882692Y-123891864D01*
X152904993Y-123896300D01*
X153435106Y-123896299D01*
X153479708Y-123887428D01*
X153530284Y-123853634D01*
X153564078Y-123803058D01*
X153564167Y-123802614D01*
X153569890Y-123773838D01*
X153572950Y-123758457D01*
X153572949Y-122214307D01*
X156667099Y-122214307D01*
X156692189Y-122340438D01*
X156692191Y-122340444D01*
X156741406Y-122459261D01*
X156741411Y-122459270D01*
X156812859Y-122566198D01*
X156812862Y-122566202D01*
X156903797Y-122657137D01*
X156903801Y-122657140D01*
X157010731Y-122728589D01*
X157010732Y-122728589D01*
X157010736Y-122728592D01*
X157027053Y-122735350D01*
X157042617Y-122747893D01*
X157060803Y-122756198D01*
X157069266Y-122769366D01*
X157081455Y-122779189D01*
X157087768Y-122798158D01*
X157098577Y-122814976D01*
X157102539Y-122842533D01*
X157103521Y-122845483D01*
X157103600Y-122849911D01*
X157103600Y-122980383D01*
X157083915Y-123047422D01*
X157047775Y-123081884D01*
X157048358Y-123082644D01*
X157041916Y-123087586D01*
X156957589Y-123171913D01*
X156897964Y-123275185D01*
X156867100Y-123390375D01*
X156867100Y-123509624D01*
X156897964Y-123624814D01*
X156927777Y-123676450D01*
X156957590Y-123728087D01*
X157041913Y-123812410D01*
X157145187Y-123872036D01*
X157260375Y-123902900D01*
X157260377Y-123902900D01*
X157379623Y-123902900D01*
X157379625Y-123902900D01*
X157494813Y-123872036D01*
X157598087Y-123812410D01*
X157682410Y-123728087D01*
X157742036Y-123624813D01*
X157772900Y-123509625D01*
X157772900Y-123390375D01*
X157742036Y-123275187D01*
X157682410Y-123171913D01*
X157598087Y-123087590D01*
X157598083Y-123087586D01*
X157591642Y-123082644D01*
X157592474Y-123081558D01*
X157590111Y-123079080D01*
X157579197Y-123074096D01*
X157566448Y-123054259D01*
X157550180Y-123037194D01*
X157546965Y-123023942D01*
X157541423Y-123015318D01*
X157536400Y-122980383D01*
X157536400Y-122849911D01*
X157556085Y-122782872D01*
X157608889Y-122737117D01*
X157612911Y-122735365D01*
X157629264Y-122728592D01*
X157736199Y-122657140D01*
X157827140Y-122566199D01*
X157898592Y-122459264D01*
X157947809Y-122340444D01*
X157972900Y-122214305D01*
X157972900Y-122085695D01*
X157972900Y-122085692D01*
X157947810Y-121959561D01*
X157947809Y-121959560D01*
X157947809Y-121959556D01*
X157904505Y-121855011D01*
X157898593Y-121840738D01*
X157898588Y-121840729D01*
X157827140Y-121733801D01*
X157827137Y-121733797D01*
X157736202Y-121642862D01*
X157736198Y-121642859D01*
X157629270Y-121571411D01*
X157629261Y-121571406D01*
X157510444Y-121522191D01*
X157510438Y-121522189D01*
X157384307Y-121497100D01*
X157384305Y-121497100D01*
X157255695Y-121497100D01*
X157255693Y-121497100D01*
X157129561Y-121522189D01*
X157129555Y-121522191D01*
X157010738Y-121571406D01*
X157010729Y-121571411D01*
X156903801Y-121642859D01*
X156903797Y-121642862D01*
X156812862Y-121733797D01*
X156812859Y-121733801D01*
X156741411Y-121840729D01*
X156741406Y-121840738D01*
X156692191Y-121959555D01*
X156692189Y-121959561D01*
X156667100Y-122085692D01*
X156667100Y-122085695D01*
X156667100Y-122214305D01*
X156667100Y-122214307D01*
X156667099Y-122214307D01*
X153572949Y-122214307D01*
X153572949Y-121820198D01*
X153592634Y-121753160D01*
X153645438Y-121707405D01*
X153696949Y-121696199D01*
X155085005Y-121696199D01*
X155085006Y-121696199D01*
X155129608Y-121687328D01*
X155180184Y-121653534D01*
X155213978Y-121602958D01*
X155222850Y-121558357D01*
X155222849Y-120328244D01*
X155213978Y-120283642D01*
X155213976Y-120283640D01*
X155213976Y-120283638D01*
X155180184Y-120233066D01*
X155129609Y-120199273D01*
X155129608Y-120199272D01*
X155129607Y-120199271D01*
X155129606Y-120199271D01*
X155129604Y-120199270D01*
X155085009Y-120190400D01*
X153554895Y-120190400D01*
X153510291Y-120199272D01*
X153510288Y-120199273D01*
X153459716Y-120233065D01*
X153425921Y-120283643D01*
X153425920Y-120283645D01*
X153417050Y-120328240D01*
X153417050Y-121466500D01*
X153397365Y-121533539D01*
X153344561Y-121579294D01*
X153293050Y-121590500D01*
X152904995Y-121590500D01*
X152860391Y-121599372D01*
X152860388Y-121599373D01*
X152809816Y-121633165D01*
X152776021Y-121683743D01*
X152776020Y-121683746D01*
X152774619Y-121690792D01*
X152742234Y-121752703D01*
X152681518Y-121787277D01*
X152653002Y-121790600D01*
X152379995Y-121790600D01*
X152335391Y-121799472D01*
X152324105Y-121804147D01*
X152323231Y-121802038D01*
X152272199Y-121818011D01*
X152216478Y-121802718D01*
X152215888Y-121804145D01*
X152204604Y-121799470D01*
X152160009Y-121790600D01*
X151879895Y-121790600D01*
X151835291Y-121799472D01*
X151824005Y-121804147D01*
X151823118Y-121802005D01*
X151772209Y-121817945D01*
X151716592Y-121802686D01*
X151715988Y-121804145D01*
X151704704Y-121799470D01*
X151660109Y-121790600D01*
X151379995Y-121790600D01*
X151335391Y-121799472D01*
X151324105Y-121804147D01*
X151323231Y-121802038D01*
X151272199Y-121818011D01*
X151216478Y-121802718D01*
X151215888Y-121804145D01*
X151204604Y-121799470D01*
X151160009Y-121790600D01*
X150879895Y-121790600D01*
X150835291Y-121799472D01*
X150824005Y-121804147D01*
X150823118Y-121802005D01*
X150772209Y-121817945D01*
X150716592Y-121802686D01*
X150715988Y-121804145D01*
X150704704Y-121799470D01*
X150660109Y-121790600D01*
X150379995Y-121790600D01*
X150335391Y-121799472D01*
X150324105Y-121804147D01*
X150323218Y-121802005D01*
X150272309Y-121817945D01*
X150216692Y-121802686D01*
X150216088Y-121804145D01*
X150204804Y-121799470D01*
X150160209Y-121790600D01*
X149880095Y-121790600D01*
X149835491Y-121799472D01*
X149824205Y-121804147D01*
X149823331Y-121802038D01*
X149772299Y-121818011D01*
X149716578Y-121802718D01*
X149715988Y-121804145D01*
X149704704Y-121799470D01*
X149660109Y-121790600D01*
X149379995Y-121790600D01*
X149335391Y-121799472D01*
X149324105Y-121804147D01*
X149323218Y-121802005D01*
X149272309Y-121817945D01*
X149216692Y-121802686D01*
X149216088Y-121804145D01*
X149204804Y-121799470D01*
X149160209Y-121790600D01*
X148880095Y-121790600D01*
X148835491Y-121799472D01*
X148824205Y-121804147D01*
X148823331Y-121802038D01*
X148772299Y-121818011D01*
X148716578Y-121802718D01*
X148715988Y-121804145D01*
X148704704Y-121799470D01*
X148660109Y-121790600D01*
X148379995Y-121790600D01*
X148335391Y-121799472D01*
X148324105Y-121804147D01*
X148323231Y-121802038D01*
X148272199Y-121818011D01*
X148216478Y-121802718D01*
X148215888Y-121804145D01*
X148204604Y-121799470D01*
X148160009Y-121790600D01*
X147879895Y-121790600D01*
X147835291Y-121799472D01*
X147835288Y-121799473D01*
X147784716Y-121833265D01*
X147750921Y-121883843D01*
X147750920Y-121883845D01*
X147742050Y-121928440D01*
X147742050Y-123706799D01*
X147722365Y-123773838D01*
X147705734Y-123794477D01*
X147697602Y-123802609D01*
X147697598Y-123802614D01*
X147644557Y-123894485D01*
X147644557Y-123894486D01*
X147617100Y-123996957D01*
X147617100Y-124331751D01*
X147597415Y-124398790D01*
X147580781Y-124419432D01*
X147389433Y-124610781D01*
X147328110Y-124644266D01*
X147301752Y-124647100D01*
X145138249Y-124647100D01*
X145071210Y-124627415D01*
X145050568Y-124610781D01*
X144059219Y-123619432D01*
X144025734Y-123558109D01*
X144022900Y-123531751D01*
X144022900Y-121918116D01*
X144022900Y-121903046D01*
X144022901Y-121903043D01*
X144022901Y-121796957D01*
X144004514Y-121728340D01*
X145967050Y-121728340D01*
X145967050Y-123758454D01*
X145975922Y-123803058D01*
X145975923Y-123803061D01*
X146009715Y-123853633D01*
X146009716Y-123853634D01*
X146060292Y-123887428D01*
X146060293Y-123887428D01*
X146060295Y-123887429D01*
X146082592Y-123891864D01*
X146104893Y-123896300D01*
X146635006Y-123896299D01*
X146679608Y-123887428D01*
X146730184Y-123853634D01*
X146763978Y-123803058D01*
X146764067Y-123802614D01*
X146769790Y-123773838D01*
X146772850Y-123758457D01*
X146772849Y-121728344D01*
X146763978Y-121683742D01*
X146763976Y-121683740D01*
X146763976Y-121683738D01*
X146730184Y-121633166D01*
X146730183Y-121633165D01*
X146679608Y-121599372D01*
X146679607Y-121599371D01*
X146679606Y-121599371D01*
X146679604Y-121599370D01*
X146635009Y-121590500D01*
X146104895Y-121590500D01*
X146060291Y-121599372D01*
X146060288Y-121599373D01*
X146009716Y-121633165D01*
X145975921Y-121683743D01*
X145975920Y-121683745D01*
X145967050Y-121728340D01*
X144004514Y-121728340D01*
X143995443Y-121694487D01*
X143995443Y-121694486D01*
X143942401Y-121602613D01*
X143867387Y-121527599D01*
X143867386Y-121527598D01*
X143862014Y-121522226D01*
X143861997Y-121522211D01*
X143149474Y-120809688D01*
X143149462Y-120809674D01*
X143067386Y-120727598D01*
X142975514Y-120674557D01*
X142975511Y-120674556D01*
X142970959Y-120673336D01*
X142953858Y-120668754D01*
X142873043Y-120647099D01*
X142833939Y-120647099D01*
X142822816Y-120645053D01*
X142801314Y-120634198D01*
X142778209Y-120627414D01*
X142770692Y-120618739D01*
X142760444Y-120613566D01*
X142748223Y-120592808D01*
X142732454Y-120574610D01*
X142727151Y-120557017D01*
X142724996Y-120553356D01*
X142725116Y-120550266D01*
X142722775Y-120542497D01*
X142707958Y-120448949D01*
X142707957Y-120448947D01*
X142707957Y-120448945D01*
X142650016Y-120335229D01*
X142650014Y-120335227D01*
X142650011Y-120335223D01*
X142559776Y-120244988D01*
X142559772Y-120244985D01*
X142559771Y-120244984D01*
X142446055Y-120187043D01*
X142446053Y-120187042D01*
X142446050Y-120187041D01*
X142351713Y-120172100D01*
X142351708Y-120172100D01*
X141788292Y-120172100D01*
X141788287Y-120172100D01*
X141693949Y-120187041D01*
X141693945Y-120187042D01*
X141693945Y-120187043D01*
X141687355Y-120190401D01*
X141580227Y-120244985D01*
X141580223Y-120244988D01*
X141489988Y-120335223D01*
X141489985Y-120335227D01*
X141432041Y-120448949D01*
X141417100Y-120543286D01*
X141417100Y-120923173D01*
X141397415Y-120990212D01*
X141380781Y-121010854D01*
X139927620Y-122464014D01*
X139927616Y-122464019D01*
X139912485Y-122490227D01*
X139861917Y-122538442D01*
X139855190Y-122541658D01*
X139845854Y-122545780D01*
X139765780Y-122625855D01*
X139765778Y-122625859D01*
X139720038Y-122729447D01*
X139720038Y-122729449D01*
X139717100Y-122754772D01*
X139717100Y-123870227D01*
X139720038Y-123895550D01*
X139720038Y-123895552D01*
X139745564Y-123953360D01*
X139765780Y-123999145D01*
X139845855Y-124079220D01*
X139949450Y-124124962D01*
X139974774Y-124127900D01*
X139974775Y-124127900D01*
X140365225Y-124127900D01*
X140365226Y-124127900D01*
X140390550Y-124124962D01*
X140494145Y-124079220D01*
X140574220Y-123999145D01*
X140619962Y-123895550D01*
X140622900Y-123870226D01*
X140622900Y-122754774D01*
X140619962Y-122729450D01*
X140619961Y-122729447D01*
X140617514Y-122720453D01*
X140621027Y-122719496D01*
X140614241Y-122667831D01*
X140644039Y-122604633D01*
X140649057Y-122599308D01*
X141399110Y-121849255D01*
X141460431Y-121815772D01*
X141530123Y-121820756D01*
X141548289Y-121829264D01*
X141562718Y-121837505D01*
X141580229Y-121855016D01*
X141693945Y-121912957D01*
X141695153Y-121913148D01*
X141704600Y-121918544D01*
X141726848Y-121941661D01*
X141750191Y-121963707D01*
X141751021Y-121966778D01*
X141753050Y-121968886D01*
X141756999Y-121988878D01*
X141767100Y-122026218D01*
X141767100Y-122473172D01*
X141747415Y-122540211D01*
X141730782Y-122560853D01*
X141665780Y-122625855D01*
X141665778Y-122625859D01*
X141620038Y-122729447D01*
X141620038Y-122729449D01*
X141617100Y-122754772D01*
X141617100Y-123870227D01*
X141620038Y-123895550D01*
X141620038Y-123895552D01*
X141645564Y-123953360D01*
X141665780Y-123999145D01*
X141745855Y-124079220D01*
X141849450Y-124124962D01*
X141874774Y-124127900D01*
X141874775Y-124127900D01*
X142265225Y-124127900D01*
X142265226Y-124127900D01*
X142290550Y-124124962D01*
X142394145Y-124079220D01*
X142474220Y-123999145D01*
X142519962Y-123895550D01*
X142522900Y-123870226D01*
X142522900Y-122754774D01*
X142519962Y-122729450D01*
X142515989Y-122720453D01*
X142492754Y-122667831D01*
X142474220Y-122625855D01*
X142409218Y-122560853D01*
X142375734Y-122499529D01*
X142372900Y-122473172D01*
X142372900Y-122026218D01*
X142392585Y-121959179D01*
X142440605Y-121915733D01*
X142446052Y-121912957D01*
X142446055Y-121912957D01*
X142559771Y-121855016D01*
X142650016Y-121764771D01*
X142678847Y-121708185D01*
X142726821Y-121657389D01*
X142794642Y-121640594D01*
X142860777Y-121663131D01*
X142877013Y-121676799D01*
X143180781Y-121980567D01*
X143214266Y-122041890D01*
X143217100Y-122068248D01*
X143217100Y-123696953D01*
X143217099Y-123696957D01*
X143217099Y-123803043D01*
X143238754Y-123883858D01*
X143241135Y-123892743D01*
X143244556Y-123905511D01*
X143244557Y-123905514D01*
X143297598Y-123997386D01*
X143379674Y-124079462D01*
X143379688Y-124079474D01*
X144435632Y-125135419D01*
X144469117Y-125196742D01*
X144464133Y-125266434D01*
X144422261Y-125322367D01*
X144356797Y-125346784D01*
X144347951Y-125347100D01*
X143413287Y-125347100D01*
X143318949Y-125362041D01*
X143205227Y-125419985D01*
X143205223Y-125419988D01*
X143127595Y-125497617D01*
X143066272Y-125531102D01*
X142996580Y-125526118D01*
X142952233Y-125497617D01*
X142799736Y-125345120D01*
X142799735Y-125345119D01*
X142730665Y-125305242D01*
X142653628Y-125284599D01*
X142646900Y-125284599D01*
X142579861Y-125264914D01*
X142534106Y-125212110D01*
X142522900Y-125160599D01*
X142522900Y-125029774D01*
X142519962Y-125004450D01*
X142474220Y-124900855D01*
X142394145Y-124820780D01*
X142314371Y-124785556D01*
X142290551Y-124775038D01*
X142265227Y-124772100D01*
X142265226Y-124772100D01*
X141874774Y-124772100D01*
X141874772Y-124772100D01*
X141849449Y-124775038D01*
X141849447Y-124775038D01*
X141745859Y-124820778D01*
X141745857Y-124820779D01*
X141745855Y-124820780D01*
X141745854Y-124820780D01*
X141745852Y-124820782D01*
X141665782Y-124900852D01*
X141665778Y-124900859D01*
X141620038Y-125004447D01*
X141620038Y-125004449D01*
X141617100Y-125029772D01*
X141617100Y-126145227D01*
X141620038Y-126170550D01*
X141620038Y-126170552D01*
X141641118Y-126218292D01*
X141665780Y-126274145D01*
X141745855Y-126354220D01*
X141849450Y-126399962D01*
X141874774Y-126402900D01*
X141874775Y-126402900D01*
X142265225Y-126402900D01*
X142265226Y-126402900D01*
X142290550Y-126399962D01*
X142394145Y-126354220D01*
X142474220Y-126274145D01*
X142519962Y-126170550D01*
X142519962Y-126170546D01*
X142522951Y-126163778D01*
X142568037Y-126110402D01*
X142634823Y-126089874D01*
X142702106Y-126108712D01*
X142724067Y-126126183D01*
X142840265Y-126242381D01*
X142909335Y-126282258D01*
X142972714Y-126299240D01*
X143032373Y-126335603D01*
X143051221Y-126368069D01*
X143052613Y-126367360D01*
X143057042Y-126376053D01*
X143057043Y-126376055D01*
X143114984Y-126489771D01*
X143114986Y-126489773D01*
X143114988Y-126489776D01*
X143205223Y-126580011D01*
X143205227Y-126580014D01*
X143205229Y-126580016D01*
X143318945Y-126637957D01*
X143318947Y-126637957D01*
X143318949Y-126637958D01*
X143413287Y-126652900D01*
X143413292Y-126652900D01*
X144426713Y-126652900D01*
X144521050Y-126637958D01*
X144521050Y-126637957D01*
X144521055Y-126637957D01*
X144634771Y-126580016D01*
X144725016Y-126489771D01*
X144782957Y-126376055D01*
X144784222Y-126368069D01*
X144785896Y-126357503D01*
X144815825Y-126294368D01*
X144875136Y-126257436D01*
X144908369Y-126252900D01*
X145213884Y-126252900D01*
X145280923Y-126272585D01*
X145301565Y-126289219D01*
X146905599Y-127893253D01*
X146905601Y-127893257D01*
X146976743Y-127964399D01*
X147031193Y-127986952D01*
X147069695Y-128002901D01*
X147069697Y-128002901D01*
X147184739Y-128002901D01*
X147184747Y-128002900D01*
X148454839Y-128002900D01*
X148521878Y-128022585D01*
X148542519Y-128039218D01*
X148826259Y-128322958D01*
X148859743Y-128384280D01*
X148862577Y-128410638D01*
X148862577Y-128514148D01*
X148868685Y-128536944D01*
X148893441Y-128629337D01*
X148912819Y-128662900D01*
X148953067Y-128732610D01*
X149037390Y-128816933D01*
X149140664Y-128876559D01*
X149255852Y-128907423D01*
X149255854Y-128907423D01*
X149330600Y-128907423D01*
X149397639Y-128927108D01*
X149443394Y-128979912D01*
X149454600Y-129031423D01*
X149454600Y-129748100D01*
X149434915Y-129815139D01*
X149382111Y-129860894D01*
X149349264Y-129870687D01*
X149339983Y-129872100D01*
X149237516Y-129872100D01*
X149178332Y-129883872D01*
X149153446Y-129900500D01*
X149126164Y-129904654D01*
X149117782Y-129903519D01*
X149109711Y-129906047D01*
X149083680Y-129898905D01*
X149056925Y-129895285D01*
X149050486Y-129889798D01*
X149042331Y-129887561D01*
X149038611Y-129885170D01*
X149036669Y-129883872D01*
X149007076Y-129877986D01*
X148977484Y-129872100D01*
X148837516Y-129872100D01*
X148817788Y-129876024D01*
X148778330Y-129883872D01*
X148776389Y-129885170D01*
X148771513Y-129886696D01*
X148767051Y-129888545D01*
X148766885Y-129888145D01*
X148709711Y-129906047D01*
X148642331Y-129887561D01*
X148638611Y-129885170D01*
X148636669Y-129883872D01*
X148607076Y-129877986D01*
X148577484Y-129872100D01*
X148437516Y-129872100D01*
X148417788Y-129876024D01*
X148378330Y-129883872D01*
X148376389Y-129885170D01*
X148371513Y-129886696D01*
X148367051Y-129888545D01*
X148366885Y-129888145D01*
X148309711Y-129906047D01*
X148242331Y-129887561D01*
X148238611Y-129885170D01*
X148236669Y-129883872D01*
X148207076Y-129877986D01*
X148177484Y-129872100D01*
X148037516Y-129872100D01*
X148017788Y-129876024D01*
X147978330Y-129883872D01*
X147976389Y-129885170D01*
X147971513Y-129886696D01*
X147967051Y-129888545D01*
X147966885Y-129888145D01*
X147909711Y-129906047D01*
X147842331Y-129887561D01*
X147838611Y-129885170D01*
X147836669Y-129883872D01*
X147807076Y-129877986D01*
X147777484Y-129872100D01*
X147637516Y-129872100D01*
X147617788Y-129876024D01*
X147578330Y-129883872D01*
X147576389Y-129885170D01*
X147571513Y-129886696D01*
X147567051Y-129888545D01*
X147566885Y-129888145D01*
X147509711Y-129906047D01*
X147488836Y-129904654D01*
X147461553Y-129900500D01*
X147436668Y-129883872D01*
X147377484Y-129872100D01*
X147275018Y-129872100D01*
X147265737Y-129870687D01*
X147242240Y-129859720D01*
X147217362Y-129852415D01*
X147211095Y-129845183D01*
X147202424Y-129841136D01*
X147188584Y-129819204D01*
X147171607Y-129799611D01*
X147169179Y-129788451D01*
X147165138Y-129782047D01*
X147165235Y-129770322D01*
X147160401Y-129748100D01*
X147160401Y-129687196D01*
X147160400Y-129687192D01*
X147141149Y-129640718D01*
X147141147Y-129640715D01*
X147121899Y-129594243D01*
X147050757Y-129523101D01*
X147043692Y-129516036D01*
X147043685Y-129516030D01*
X146551719Y-129024065D01*
X146534400Y-129006746D01*
X146534399Y-129006743D01*
X146463257Y-128935601D01*
X146395228Y-128907423D01*
X146381939Y-128901918D01*
X146381936Y-128901916D01*
X146370307Y-128897099D01*
X146370305Y-128897099D01*
X146269695Y-128897099D01*
X146255261Y-128897099D01*
X146255253Y-128897100D01*
X146240533Y-128897100D01*
X146173494Y-128877415D01*
X146127739Y-128824611D01*
X146127135Y-128823269D01*
X146116631Y-128799479D01*
X146040521Y-128723369D01*
X146038322Y-128722398D01*
X145942058Y-128679893D01*
X145917985Y-128677100D01*
X145917984Y-128677100D01*
X145562016Y-128677100D01*
X145562014Y-128677100D01*
X145537942Y-128679893D01*
X145537940Y-128679893D01*
X145439478Y-128723369D01*
X145363369Y-128799478D01*
X145343434Y-128844627D01*
X145298348Y-128898003D01*
X145231561Y-128918530D01*
X145164279Y-128899691D01*
X145117863Y-128847468D01*
X145116566Y-128844627D01*
X145107099Y-128823186D01*
X145096631Y-128799479D01*
X145020521Y-128723369D01*
X145018322Y-128722398D01*
X144922058Y-128679893D01*
X144897985Y-128677100D01*
X144897984Y-128677100D01*
X144542016Y-128677100D01*
X144542014Y-128677100D01*
X144517942Y-128679893D01*
X144517940Y-128679893D01*
X144419478Y-128723369D01*
X144343371Y-128799476D01*
X144343368Y-128799480D01*
X144338692Y-128810069D01*
X144332900Y-128823187D01*
X144287816Y-128876562D01*
X144221030Y-128897090D01*
X144219467Y-128897100D01*
X143570307Y-128897100D01*
X143570305Y-128897099D01*
X143469695Y-128897099D01*
X143444772Y-128907423D01*
X143376743Y-128935601D01*
X142181084Y-130131260D01*
X142181073Y-130131269D01*
X142181074Y-130131270D01*
X142105600Y-130206743D01*
X142083047Y-130261193D01*
X142067099Y-130299693D01*
X142067099Y-130414738D01*
X142067100Y-130414747D01*
X142067100Y-131611041D01*
X142047415Y-131678080D01*
X142030781Y-131698722D01*
X141957592Y-131771910D01*
X141957590Y-131771913D01*
X141897964Y-131875185D01*
X141867100Y-131990375D01*
X141867100Y-132109624D01*
X141897964Y-132224814D01*
X141927777Y-132276450D01*
X141957590Y-132328087D01*
X142041913Y-132412410D01*
X142145187Y-132472036D01*
X142260375Y-132502900D01*
X142260377Y-132502900D01*
X142379623Y-132502900D01*
X142379625Y-132502900D01*
X142494813Y-132472036D01*
X142598087Y-132412410D01*
X142682410Y-132328087D01*
X142742036Y-132224813D01*
X142772900Y-132109625D01*
X142772900Y-131990375D01*
X142742036Y-131875187D01*
X142682410Y-131771913D01*
X142609219Y-131698722D01*
X142575734Y-131637399D01*
X142572900Y-131611041D01*
X142572900Y-130506116D01*
X142592585Y-130439077D01*
X142609219Y-130418435D01*
X143588435Y-129439219D01*
X143649758Y-129405734D01*
X143676116Y-129402900D01*
X144219467Y-129402900D01*
X144286506Y-129422585D01*
X144332261Y-129475389D01*
X144332864Y-129476730D01*
X144343369Y-129500521D01*
X144419479Y-129576631D01*
X144517943Y-129620107D01*
X144542016Y-129622900D01*
X144542017Y-129622900D01*
X144897983Y-129622900D01*
X144897984Y-129622900D01*
X144922057Y-129620107D01*
X145020521Y-129576631D01*
X145096631Y-129500521D01*
X145116566Y-129455373D01*
X145161652Y-129401996D01*
X145228438Y-129381469D01*
X145295720Y-129400307D01*
X145342137Y-129452531D01*
X145343434Y-129455373D01*
X145347420Y-129464401D01*
X145363369Y-129500521D01*
X145439479Y-129576631D01*
X145537943Y-129620107D01*
X145562016Y-129622900D01*
X145562017Y-129622900D01*
X145917983Y-129622900D01*
X145917984Y-129622900D01*
X145942057Y-129620107D01*
X146040521Y-129576631D01*
X146116631Y-129500521D01*
X146116631Y-129500520D01*
X146124756Y-129492396D01*
X146127215Y-129494855D01*
X146166104Y-129463089D01*
X146235522Y-129455159D01*
X146298207Y-129486018D01*
X146301997Y-129489651D01*
X146618281Y-129805935D01*
X146651766Y-129867258D01*
X146654600Y-129893616D01*
X146654600Y-130723100D01*
X146634915Y-130790139D01*
X146582111Y-130835894D01*
X146530600Y-130847100D01*
X145312687Y-130847100D01*
X145245648Y-130827415D01*
X145225006Y-130810782D01*
X145203028Y-130788804D01*
X145158396Y-130744172D01*
X145158394Y-130744171D01*
X145158392Y-130744170D01*
X145058222Y-130699941D01*
X145033735Y-130697100D01*
X145033734Y-130697100D01*
X144606266Y-130697100D01*
X144606264Y-130697100D01*
X144581778Y-130699941D01*
X144581776Y-130699941D01*
X144481607Y-130744170D01*
X144481602Y-130744173D01*
X144404173Y-130821602D01*
X144404170Y-130821607D01*
X144359941Y-130921776D01*
X144359941Y-130921778D01*
X144357100Y-130946264D01*
X144357100Y-131313735D01*
X144359941Y-131338221D01*
X144359941Y-131338223D01*
X144392698Y-131412410D01*
X144404172Y-131438396D01*
X144481604Y-131515828D01*
X144581779Y-131560059D01*
X144606266Y-131562900D01*
X144606267Y-131562900D01*
X145033733Y-131562900D01*
X145033734Y-131562900D01*
X145058221Y-131560059D01*
X145158396Y-131515828D01*
X145235828Y-131438396D01*
X145240942Y-131426814D01*
X145252938Y-131412611D01*
X145260663Y-131395697D01*
X145275017Y-131386471D01*
X145286027Y-131373438D01*
X145303798Y-131367975D01*
X145319441Y-131357923D01*
X145351502Y-131353313D01*
X145352814Y-131352910D01*
X145354376Y-131352900D01*
X145555600Y-131352900D01*
X145622639Y-131372585D01*
X145668394Y-131425389D01*
X145679600Y-131476900D01*
X145679600Y-131569982D01*
X145691372Y-131629169D01*
X145692670Y-131631111D01*
X145694196Y-131635986D01*
X145696045Y-131640449D01*
X145695645Y-131640614D01*
X145713547Y-131697789D01*
X145695061Y-131765169D01*
X145692670Y-131768889D01*
X145691372Y-131770830D01*
X145691157Y-131771913D01*
X145679600Y-131830016D01*
X145679600Y-131969984D01*
X145683656Y-131990375D01*
X145691372Y-132029169D01*
X145692670Y-132031111D01*
X145694196Y-132035986D01*
X145696045Y-132040449D01*
X145695645Y-132040614D01*
X145713547Y-132097789D01*
X145695061Y-132165169D01*
X145692670Y-132168889D01*
X145691372Y-132170830D01*
X145691372Y-132170832D01*
X145679600Y-132230016D01*
X145679600Y-132369984D01*
X145687448Y-132409440D01*
X145691372Y-132429169D01*
X145692670Y-132431111D01*
X145694196Y-132435986D01*
X145696045Y-132440449D01*
X145695645Y-132440614D01*
X145713547Y-132497789D01*
X145712154Y-132518664D01*
X145708000Y-132545946D01*
X145691372Y-132570832D01*
X145679600Y-132630016D01*
X145679600Y-132732483D01*
X145678187Y-132741764D01*
X145667219Y-132765262D01*
X145659915Y-132790139D01*
X145652685Y-132796403D01*
X145648637Y-132805077D01*
X145626702Y-132818917D01*
X145607111Y-132835894D01*
X145595951Y-132838321D01*
X145589547Y-132842363D01*
X145577822Y-132842265D01*
X145555600Y-132847100D01*
X145272686Y-132847100D01*
X145205647Y-132827415D01*
X145185005Y-132810781D01*
X145108397Y-132734173D01*
X145108396Y-132734172D01*
X145108393Y-132734170D01*
X145108392Y-132734170D01*
X145008222Y-132689941D01*
X144983735Y-132687100D01*
X144983734Y-132687100D01*
X144616266Y-132687100D01*
X144616264Y-132687100D01*
X144591778Y-132689941D01*
X144591776Y-132689941D01*
X144491607Y-132734170D01*
X144491602Y-132734173D01*
X144414173Y-132811602D01*
X144414170Y-132811607D01*
X144369941Y-132911776D01*
X144369941Y-132911778D01*
X144367100Y-132936264D01*
X144367100Y-133363735D01*
X144369941Y-133388221D01*
X144369941Y-133388223D01*
X144408085Y-133474611D01*
X144414172Y-133488396D01*
X144491604Y-133565828D01*
X144591779Y-133610059D01*
X144616266Y-133612900D01*
X144616267Y-133612900D01*
X144983733Y-133612900D01*
X144983734Y-133612900D01*
X145008221Y-133610059D01*
X145108396Y-133565828D01*
X145185828Y-133488396D01*
X145213019Y-133426814D01*
X145225017Y-133412609D01*
X145232741Y-133395697D01*
X145247095Y-133386472D01*
X145258105Y-133373438D01*
X145275876Y-133367975D01*
X145291519Y-133357923D01*
X145323578Y-133353313D01*
X145324891Y-133352910D01*
X145326454Y-133352900D01*
X145555600Y-133352900D01*
X145622639Y-133372585D01*
X145668394Y-133425389D01*
X145679600Y-133476900D01*
X145679600Y-133569984D01*
X145686221Y-133603270D01*
X145691372Y-133629169D01*
X145692670Y-133631111D01*
X145694196Y-133635986D01*
X145696045Y-133640449D01*
X145695645Y-133640614D01*
X145713547Y-133697789D01*
X145695061Y-133765169D01*
X145692670Y-133768889D01*
X145691372Y-133770830D01*
X145691372Y-133770832D01*
X145679600Y-133830016D01*
X145679600Y-133969984D01*
X145683228Y-133988223D01*
X145691372Y-134029169D01*
X145692670Y-134031111D01*
X145694196Y-134035986D01*
X145696045Y-134040449D01*
X145695645Y-134040614D01*
X145713547Y-134097789D01*
X145695061Y-134165169D01*
X145692670Y-134168889D01*
X145691372Y-134170830D01*
X145688125Y-134187156D01*
X145679600Y-134230016D01*
X145679600Y-134369984D01*
X145683238Y-134388272D01*
X145691372Y-134429169D01*
X145692670Y-134431111D01*
X145694196Y-134435986D01*
X145696045Y-134440449D01*
X145695645Y-134440614D01*
X145713547Y-134497789D01*
X145711246Y-134523877D01*
X145706464Y-134548244D01*
X145691372Y-134570832D01*
X145679600Y-134630016D01*
X145679600Y-134685148D01*
X145677279Y-134696977D01*
X145666499Y-134717713D01*
X145659915Y-134740139D01*
X145650686Y-134748135D01*
X145645054Y-134758971D01*
X145624774Y-134770588D01*
X145607111Y-134785894D01*
X145592514Y-134789069D01*
X145584428Y-134793702D01*
X145573728Y-134793156D01*
X145555600Y-134797100D01*
X145122686Y-134797100D01*
X145055647Y-134777415D01*
X145035005Y-134760781D01*
X145008397Y-134734173D01*
X145008396Y-134734172D01*
X145008393Y-134734170D01*
X145008392Y-134734170D01*
X144908222Y-134689941D01*
X144883735Y-134687100D01*
X144883734Y-134687100D01*
X144516266Y-134687100D01*
X144516264Y-134687100D01*
X144491778Y-134689941D01*
X144491776Y-134689941D01*
X144391607Y-134734170D01*
X144391602Y-134734173D01*
X144314173Y-134811602D01*
X144314170Y-134811607D01*
X144269941Y-134911776D01*
X144269941Y-134911778D01*
X144267100Y-134936264D01*
X144267100Y-135363735D01*
X144269941Y-135388221D01*
X144269941Y-135388223D01*
X144308429Y-135475389D01*
X144314172Y-135488396D01*
X144391604Y-135565828D01*
X144491779Y-135610059D01*
X144516266Y-135612900D01*
X144516267Y-135612900D01*
X144883733Y-135612900D01*
X144883734Y-135612900D01*
X144908221Y-135610059D01*
X145008396Y-135565828D01*
X145085828Y-135488396D01*
X145090942Y-135476814D01*
X145136027Y-135423438D01*
X145202814Y-135402910D01*
X145204376Y-135402900D01*
X145555600Y-135402900D01*
X145622639Y-135422585D01*
X145668394Y-135475389D01*
X145677279Y-135503023D01*
X145679600Y-135514851D01*
X145679600Y-135569984D01*
X145691372Y-135629168D01*
X145706464Y-135651755D01*
X145711246Y-135676123D01*
X145710227Y-135687186D01*
X145713547Y-135697789D01*
X145707080Y-135721359D01*
X145704839Y-135745698D01*
X145698000Y-135754454D01*
X145695061Y-135765169D01*
X145692670Y-135768889D01*
X145691372Y-135770830D01*
X145687449Y-135790554D01*
X145679600Y-135830016D01*
X145679600Y-135969984D01*
X145682296Y-135983539D01*
X145691372Y-136029169D01*
X145692670Y-136031111D01*
X145694196Y-136035986D01*
X145696045Y-136040449D01*
X145695645Y-136040614D01*
X145713547Y-136097789D01*
X145695061Y-136165169D01*
X145692670Y-136168889D01*
X145691372Y-136170830D01*
X145689545Y-136180016D01*
X145679600Y-136230016D01*
X145679600Y-136369984D01*
X145685787Y-136401091D01*
X145691372Y-136429169D01*
X145692670Y-136431111D01*
X145694196Y-136435986D01*
X145696045Y-136440449D01*
X145695645Y-136440614D01*
X145713547Y-136497789D01*
X145695061Y-136565169D01*
X145692670Y-136568889D01*
X145691372Y-136570830D01*
X145684581Y-136604973D01*
X145679600Y-136630016D01*
X145679600Y-136769984D01*
X145691372Y-136829168D01*
X145736217Y-136896283D01*
X145803332Y-136941128D01*
X145862516Y-136952900D01*
X146530600Y-136952900D01*
X146597639Y-136972585D01*
X146643394Y-137025389D01*
X146654600Y-137076900D01*
X146654600Y-137744984D01*
X146666372Y-137804168D01*
X146711217Y-137871283D01*
X146778332Y-137916128D01*
X146837516Y-137927900D01*
X146837517Y-137927900D01*
X146977483Y-137927900D01*
X146977484Y-137927900D01*
X147036668Y-137916128D01*
X147038607Y-137914832D01*
X147043478Y-137913306D01*
X147047949Y-137911455D01*
X147048114Y-137911854D01*
X147105282Y-137893952D01*
X147172663Y-137912434D01*
X147176366Y-137914814D01*
X147178332Y-137916128D01*
X147237516Y-137927900D01*
X147237517Y-137927900D01*
X147377483Y-137927900D01*
X147377484Y-137927900D01*
X147436668Y-137916128D01*
X147438607Y-137914832D01*
X147443478Y-137913306D01*
X147447949Y-137911455D01*
X147448114Y-137911854D01*
X147505282Y-137893952D01*
X147544138Y-137899468D01*
X147561378Y-137904800D01*
X147578332Y-137916128D01*
X147633459Y-137927093D01*
X147639596Y-137928991D01*
X147663570Y-137944889D01*
X147689059Y-137958222D01*
X147692324Y-137963957D01*
X147697826Y-137967605D01*
X147709398Y-137993938D01*
X147723634Y-138018937D01*
X147723280Y-138025528D01*
X147725936Y-138031571D01*
X147721434Y-138059982D01*
X147719895Y-138088706D01*
X147715871Y-138095091D01*
X147715002Y-138100579D01*
X147706186Y-138110462D01*
X147690640Y-138135136D01*
X147614170Y-138211606D01*
X147569941Y-138311776D01*
X147569941Y-138311778D01*
X147567100Y-138336264D01*
X147567100Y-138763735D01*
X147569941Y-138788221D01*
X147569941Y-138788223D01*
X147612563Y-138884753D01*
X147614172Y-138888396D01*
X147614174Y-138888398D01*
X147620664Y-138897872D01*
X147618721Y-138899202D01*
X147644680Y-138946742D01*
X147639696Y-139016434D01*
X147597824Y-139072367D01*
X147532360Y-139096784D01*
X147523514Y-139097100D01*
X145626116Y-139097100D01*
X145559077Y-139077415D01*
X145538435Y-139060781D01*
X143259219Y-136781565D01*
X143225734Y-136720242D01*
X143222900Y-136693884D01*
X143222900Y-135137840D01*
X143222900Y-135112807D01*
X143222901Y-135112805D01*
X143222901Y-135012195D01*
X143184399Y-134919244D01*
X143184399Y-134919243D01*
X143113257Y-134848101D01*
X143106192Y-134841036D01*
X143106185Y-134841030D01*
X142522412Y-134257257D01*
X141921900Y-133656746D01*
X141921899Y-133656743D01*
X141850757Y-133585601D01*
X141796306Y-133563047D01*
X141782126Y-133557173D01*
X141757807Y-133547099D01*
X141757805Y-133547099D01*
X141657195Y-133547099D01*
X141642761Y-133547099D01*
X141642753Y-133547100D01*
X141446900Y-133547100D01*
X141379861Y-133527415D01*
X141334106Y-133474611D01*
X141322900Y-133423100D01*
X141322900Y-133418286D01*
X141307958Y-133323949D01*
X141307957Y-133323947D01*
X141307957Y-133323945D01*
X141250016Y-133210229D01*
X141250014Y-133210227D01*
X141250011Y-133210223D01*
X141159776Y-133119988D01*
X141159772Y-133119985D01*
X141159771Y-133119984D01*
X141046055Y-133062043D01*
X141046053Y-133062042D01*
X141046050Y-133062041D01*
X140951713Y-133047100D01*
X140951708Y-133047100D01*
X140871215Y-133047100D01*
X140804176Y-133027415D01*
X140758421Y-132974611D01*
X140748477Y-132905453D01*
X140777502Y-132841897D01*
X140801134Y-132820803D01*
X140808393Y-132815829D01*
X140808396Y-132815828D01*
X140885828Y-132738396D01*
X140930059Y-132638221D01*
X140932900Y-132613734D01*
X140932900Y-132186266D01*
X140930059Y-132161779D01*
X140929075Y-132159551D01*
X140885829Y-132061607D01*
X140885828Y-132061604D01*
X140808396Y-131984172D01*
X140808393Y-131984170D01*
X140808392Y-131984170D01*
X140708222Y-131939941D01*
X140683735Y-131937100D01*
X140683734Y-131937100D01*
X140316266Y-131937100D01*
X140316264Y-131937100D01*
X140291778Y-131939941D01*
X140291776Y-131939941D01*
X140191607Y-131984170D01*
X140191602Y-131984173D01*
X140114173Y-132061602D01*
X140114170Y-132061607D01*
X140069941Y-132161776D01*
X140069941Y-132161778D01*
X140067100Y-132186264D01*
X140067100Y-132613735D01*
X140069941Y-132638221D01*
X140069941Y-132638223D01*
X140114170Y-132738392D01*
X140114173Y-132738397D01*
X140180781Y-132805005D01*
X140195484Y-132831932D01*
X140212077Y-132857751D01*
X140212968Y-132863951D01*
X140214266Y-132866328D01*
X140217100Y-132892686D01*
X140217100Y-132923100D01*
X140197415Y-132990139D01*
X140144611Y-133035894D01*
X140093100Y-133047100D01*
X139988287Y-133047100D01*
X139893949Y-133062041D01*
X139780227Y-133119985D01*
X139780223Y-133119988D01*
X139689988Y-133210223D01*
X139689985Y-133210227D01*
X139632041Y-133323949D01*
X139617100Y-133418286D01*
X139617100Y-134181713D01*
X139632041Y-134276050D01*
X139632042Y-134276053D01*
X139632043Y-134276055D01*
X139689984Y-134389771D01*
X139689985Y-134389772D01*
X139689988Y-134389776D01*
X139780223Y-134480011D01*
X139780227Y-134480014D01*
X139780229Y-134480016D01*
X139893945Y-134537957D01*
X139893947Y-134537957D01*
X139893949Y-134537958D01*
X139988287Y-134552900D01*
X139988292Y-134552900D01*
X140951713Y-134552900D01*
X141046050Y-134537958D01*
X141046050Y-134537957D01*
X141046055Y-134537957D01*
X141159771Y-134480016D01*
X141250016Y-134389771D01*
X141307957Y-134276055D01*
X141307958Y-134276050D01*
X141322900Y-134181713D01*
X141322900Y-134176900D01*
X141325450Y-134168214D01*
X141324162Y-134159253D01*
X141335140Y-134135212D01*
X141342585Y-134109861D01*
X141349425Y-134103933D01*
X141353187Y-134095697D01*
X141375421Y-134081407D01*
X141395389Y-134064106D01*
X141405903Y-134061818D01*
X141411965Y-134057923D01*
X141446900Y-134052900D01*
X141551384Y-134052900D01*
X141618423Y-134072585D01*
X141639065Y-134089219D01*
X142680781Y-135130935D01*
X142714266Y-135192258D01*
X142717100Y-135218616D01*
X142717100Y-136789692D01*
X142717099Y-136789706D01*
X142717099Y-136799695D01*
X142717099Y-136900305D01*
X142729243Y-136929622D01*
X142734009Y-136941128D01*
X142755600Y-136993256D01*
X142836947Y-137074603D01*
X142836957Y-137074611D01*
X145255599Y-139493253D01*
X145255601Y-139493257D01*
X145286094Y-139523750D01*
X145297765Y-139535421D01*
X145331249Y-139596744D01*
X145328399Y-139636574D01*
X145326264Y-139666434D01*
X145326263Y-139666435D01*
X145326263Y-139666436D01*
X145315009Y-139681469D01*
X145284392Y-139722367D01*
X145284391Y-139722367D01*
X145284390Y-139722369D01*
X145243343Y-139737677D01*
X145218928Y-139746784D01*
X145210082Y-139747100D01*
X144510431Y-139747100D01*
X144443392Y-139727415D01*
X144422750Y-139710781D01*
X142328925Y-137616957D01*
X142328917Y-137616947D01*
X142247570Y-137535600D01*
X142208510Y-137519421D01*
X142208507Y-137519420D01*
X142193120Y-137513047D01*
X142154619Y-137497099D01*
X142054009Y-137497099D01*
X142054007Y-137497100D01*
X138839077Y-137497100D01*
X138772038Y-137477415D01*
X138726283Y-137424611D01*
X138716339Y-137355453D01*
X138719427Y-137340546D01*
X138720058Y-137338226D01*
X138720059Y-137338221D01*
X138722900Y-137313734D01*
X138722900Y-136886266D01*
X138720059Y-136861779D01*
X138675828Y-136761604D01*
X138598396Y-136684172D01*
X138598393Y-136684170D01*
X138598389Y-136684168D01*
X138596806Y-136683469D01*
X138594394Y-136681431D01*
X138588915Y-136677678D01*
X138589294Y-136677123D01*
X138582606Y-136671473D01*
X138565697Y-136663751D01*
X138556469Y-136649392D01*
X138543433Y-136638379D01*
X138537973Y-136620611D01*
X138527923Y-136604973D01*
X138523311Y-136572897D01*
X138522910Y-136571592D01*
X138522900Y-136570038D01*
X138522900Y-136376900D01*
X138542585Y-136309861D01*
X138595389Y-136264106D01*
X138646900Y-136252900D01*
X138751713Y-136252900D01*
X138846050Y-136237958D01*
X138846050Y-136237957D01*
X138846055Y-136237957D01*
X138959771Y-136180016D01*
X139050016Y-136089771D01*
X139107957Y-135976055D01*
X139107958Y-135976050D01*
X139122900Y-135881713D01*
X139122900Y-135118286D01*
X139107958Y-135023949D01*
X139107957Y-135023947D01*
X139107957Y-135023945D01*
X139050016Y-134910229D01*
X139050014Y-134910227D01*
X139050011Y-134910223D01*
X138959776Y-134819988D01*
X138959772Y-134819985D01*
X138959771Y-134819984D01*
X138846055Y-134762043D01*
X138846053Y-134762042D01*
X138846050Y-134762041D01*
X138751713Y-134747100D01*
X138751708Y-134747100D01*
X137788292Y-134747100D01*
X137788287Y-134747100D01*
X137693949Y-134762041D01*
X137580227Y-134819985D01*
X137580223Y-134819988D01*
X137489988Y-134910223D01*
X137489985Y-134910227D01*
X137432041Y-135023949D01*
X137417100Y-135118286D01*
X137417100Y-135881713D01*
X137432041Y-135976050D01*
X137432042Y-135976053D01*
X137432043Y-135976055D01*
X137489595Y-136089007D01*
X137489985Y-136089772D01*
X137489988Y-136089776D01*
X137580223Y-136180011D01*
X137580227Y-136180014D01*
X137580229Y-136180016D01*
X137693945Y-136237957D01*
X137693947Y-136237957D01*
X137693949Y-136237958D01*
X137788287Y-136252900D01*
X137788292Y-136252900D01*
X137893100Y-136252900D01*
X137901785Y-136255450D01*
X137910747Y-136254162D01*
X137934787Y-136265140D01*
X137960139Y-136272585D01*
X137966066Y-136279425D01*
X137974303Y-136283187D01*
X137988592Y-136305421D01*
X138005894Y-136325389D01*
X138008181Y-136335903D01*
X138012077Y-136341965D01*
X138017100Y-136376900D01*
X138017100Y-136597314D01*
X137997415Y-136664353D01*
X137980781Y-136684995D01*
X137904173Y-136761602D01*
X137904170Y-136761607D01*
X137859941Y-136861776D01*
X137859941Y-136861778D01*
X137857100Y-136886264D01*
X137857100Y-137313735D01*
X137859941Y-137338221D01*
X137859941Y-137338223D01*
X137904170Y-137438392D01*
X137904173Y-137438397D01*
X137981604Y-137515828D01*
X138043781Y-137543281D01*
X138049279Y-137547047D01*
X138053122Y-137547883D01*
X138081373Y-137569030D01*
X138081377Y-137569033D01*
X138146743Y-137634399D01*
X138146746Y-137634400D01*
X138156957Y-137644611D01*
X138395388Y-137883042D01*
X138395397Y-137883053D01*
X138476742Y-137964398D01*
X138485123Y-137969998D01*
X138529928Y-138023610D01*
X138538635Y-138092935D01*
X138508481Y-138155962D01*
X138449038Y-138192682D01*
X138416232Y-138197100D01*
X137870307Y-138197100D01*
X137870305Y-138197099D01*
X137769695Y-138197099D01*
X137734678Y-138211604D01*
X137718999Y-138218098D01*
X137718993Y-138218099D01*
X137676748Y-138235598D01*
X137676743Y-138235601D01*
X137601260Y-138311084D01*
X137182281Y-138730064D01*
X137120958Y-138763549D01*
X137051267Y-138758565D01*
X136995333Y-138716694D01*
X136970916Y-138651229D01*
X136970600Y-138642383D01*
X136970600Y-129534650D01*
X136990285Y-129467611D01*
X137043089Y-129421856D01*
X137112247Y-129411912D01*
X137175803Y-129440937D01*
X137212530Y-129496330D01*
X137268443Y-129668412D01*
X137268444Y-129668414D01*
X137364951Y-129857820D01*
X137489890Y-130029786D01*
X137640213Y-130180109D01*
X137812179Y-130305048D01*
X137812181Y-130305049D01*
X137812184Y-130305051D01*
X138001588Y-130401557D01*
X138203757Y-130467246D01*
X138413713Y-130500500D01*
X138413714Y-130500500D01*
X138626286Y-130500500D01*
X138626287Y-130500500D01*
X138836243Y-130467246D01*
X139038412Y-130401557D01*
X139227816Y-130305051D01*
X139320669Y-130237590D01*
X139399786Y-130180109D01*
X139399788Y-130180106D01*
X139399792Y-130180104D01*
X139550104Y-130029792D01*
X139550106Y-130029788D01*
X139550109Y-130029786D01*
X139675048Y-129857820D01*
X139675047Y-129857820D01*
X139675051Y-129857816D01*
X139771557Y-129668412D01*
X139837246Y-129466243D01*
X139870500Y-129256287D01*
X139870500Y-129043713D01*
X139837246Y-128833757D01*
X139771557Y-128631588D01*
X139675051Y-128442184D01*
X139675049Y-128442181D01*
X139675048Y-128442179D01*
X139550109Y-128270213D01*
X139399786Y-128119890D01*
X139227820Y-127994951D01*
X139038414Y-127898444D01*
X139038413Y-127898443D01*
X139038412Y-127898443D01*
X138836243Y-127832754D01*
X138836241Y-127832753D01*
X138836240Y-127832753D01*
X138650443Y-127803326D01*
X138626287Y-127799500D01*
X138413713Y-127799500D01*
X138389557Y-127803326D01*
X138203760Y-127832753D01*
X138001585Y-127898444D01*
X137812179Y-127994951D01*
X137640213Y-128119890D01*
X137489890Y-128270213D01*
X137364951Y-128442179D01*
X137268444Y-128631585D01*
X137268443Y-128631587D01*
X137268443Y-128631588D01*
X137232621Y-128741838D01*
X137212531Y-128803667D01*
X137173093Y-128861343D01*
X137108735Y-128888541D01*
X137039888Y-128876626D01*
X136988413Y-128829382D01*
X136970600Y-128765349D01*
X136970600Y-125029772D01*
X139717100Y-125029772D01*
X139717100Y-126145227D01*
X139720038Y-126170550D01*
X139720038Y-126170552D01*
X139741118Y-126218292D01*
X139765780Y-126274145D01*
X139845855Y-126354220D01*
X139949450Y-126399962D01*
X139974774Y-126402900D01*
X139974775Y-126402900D01*
X140365225Y-126402900D01*
X140365226Y-126402900D01*
X140390550Y-126399962D01*
X140494145Y-126354220D01*
X140574220Y-126274145D01*
X140619962Y-126170550D01*
X140622900Y-126145226D01*
X140622900Y-125029774D01*
X140619962Y-125004450D01*
X140574220Y-124900855D01*
X140494145Y-124820780D01*
X140414371Y-124785556D01*
X140390551Y-124775038D01*
X140365227Y-124772100D01*
X140365226Y-124772100D01*
X139974774Y-124772100D01*
X139974772Y-124772100D01*
X139949449Y-124775038D01*
X139949447Y-124775038D01*
X139845859Y-124820778D01*
X139845857Y-124820779D01*
X139845855Y-124820780D01*
X139845854Y-124820780D01*
X139845852Y-124820782D01*
X139765782Y-124900852D01*
X139765778Y-124900859D01*
X139720038Y-125004447D01*
X139720038Y-125004449D01*
X139717100Y-125029772D01*
X136970600Y-125029772D01*
X136970600Y-121836000D01*
X136990285Y-121768961D01*
X137043089Y-121723206D01*
X137094600Y-121712000D01*
X137809980Y-121712000D01*
X137809982Y-121712000D01*
X137883674Y-121681476D01*
X137940076Y-121625074D01*
X137970600Y-121551382D01*
X137970600Y-118374500D01*
X137990285Y-118307461D01*
X138043089Y-118261706D01*
X138094600Y-118250500D01*
X143980230Y-118250500D01*
X143980240Y-118250504D01*
X144020122Y-118250500D01*
X144059982Y-118250500D01*
X144060003Y-118250500D01*
X144060067Y-118250486D01*
X144061200Y-118250000D01*
X144096786Y-118235255D01*
X144131305Y-118220957D01*
X144136371Y-118218988D01*
X144140499Y-118217487D01*
X144143685Y-118215828D01*
X144145696Y-118214995D01*
X144215166Y-118207526D01*
X144277645Y-118238800D01*
X144313298Y-118298889D01*
X144317150Y-118329556D01*
X144317150Y-118958454D01*
X144326022Y-119003058D01*
X144326023Y-119003061D01*
X144359815Y-119053633D01*
X144359816Y-119053634D01*
X144410392Y-119087428D01*
X144410393Y-119087428D01*
X144410395Y-119087429D01*
X144432692Y-119091864D01*
X144454993Y-119096300D01*
X145985106Y-119096299D01*
X146029708Y-119087428D01*
X146080284Y-119053634D01*
X146114078Y-119003058D01*
X146122950Y-118958457D01*
X146122949Y-117728344D01*
X146114078Y-117683742D01*
X146114076Y-117683740D01*
X146114076Y-117683738D01*
X146080284Y-117633166D01*
X146029709Y-117599373D01*
X146029708Y-117599372D01*
X146029706Y-117599371D01*
X146019554Y-117592588D01*
X146021908Y-117589063D01*
X145985565Y-117559753D01*
X145963525Y-117493451D01*
X145980830Y-117425758D01*
X146031986Y-117378167D01*
X146086931Y-117365073D01*
X147263826Y-117360190D01*
X147330946Y-117379596D01*
X147376920Y-117432210D01*
X147387150Y-117501327D01*
X147358389Y-117565002D01*
X147320399Y-117592515D01*
X147320447Y-117592586D01*
X147318577Y-117593834D01*
X147311790Y-117598751D01*
X147310291Y-117599371D01*
X147259716Y-117633165D01*
X147225921Y-117683743D01*
X147225920Y-117683745D01*
X147217050Y-117728340D01*
X147217050Y-118958454D01*
X147225922Y-119003058D01*
X147225923Y-119003061D01*
X147259715Y-119053633D01*
X147259716Y-119053634D01*
X147310292Y-119087428D01*
X147310293Y-119087428D01*
X147310295Y-119087429D01*
X147332592Y-119091864D01*
X147354893Y-119096300D01*
X147623987Y-119096299D01*
X147691024Y-119115983D01*
X147736779Y-119168787D01*
X147746723Y-119237946D01*
X147717698Y-119301501D01*
X147658920Y-119339276D01*
X147648177Y-119341916D01*
X147610194Y-119349471D01*
X147610188Y-119349473D01*
X147559616Y-119383265D01*
X147525821Y-119433843D01*
X147525820Y-119433845D01*
X147516950Y-119478440D01*
X147516950Y-120708554D01*
X147525822Y-120753158D01*
X147525823Y-120753161D01*
X147559615Y-120803733D01*
X147559616Y-120803734D01*
X147610192Y-120837528D01*
X147610193Y-120837528D01*
X147610195Y-120837529D01*
X147632492Y-120841964D01*
X147654793Y-120846400D01*
X148884906Y-120846399D01*
X148929508Y-120837528D01*
X148980084Y-120803734D01*
X149013878Y-120753158D01*
X149022750Y-120708557D01*
X149022749Y-119478444D01*
X149013878Y-119433842D01*
X149013876Y-119433840D01*
X149013876Y-119433838D01*
X148980084Y-119383266D01*
X148929509Y-119349473D01*
X148929508Y-119349472D01*
X148929507Y-119349471D01*
X148929506Y-119349471D01*
X148929504Y-119349470D01*
X148884909Y-119340600D01*
X148615814Y-119340600D01*
X148548775Y-119320915D01*
X148503020Y-119268111D01*
X148493076Y-119198953D01*
X148522101Y-119135397D01*
X148580879Y-119097623D01*
X148591613Y-119094984D01*
X148629608Y-119087428D01*
X148680184Y-119053634D01*
X148713978Y-119003058D01*
X148722850Y-118958457D01*
X148722849Y-117728344D01*
X148713978Y-117683742D01*
X148713976Y-117683740D01*
X148713976Y-117683738D01*
X148680184Y-117633166D01*
X148629609Y-117599373D01*
X148629608Y-117599372D01*
X148629607Y-117599371D01*
X148629606Y-117599371D01*
X148618322Y-117594697D01*
X148619103Y-117592809D01*
X148570984Y-117567633D01*
X148536416Y-117506914D01*
X148540162Y-117437145D01*
X148581034Y-117380477D01*
X148646054Y-117354902D01*
X148656559Y-117354411D01*
X149593161Y-117350524D01*
X149598865Y-117350501D01*
X149599379Y-117350500D01*
X150902565Y-117350500D01*
X150969604Y-117370185D01*
G37*
%TD.AperFunction*%
%TA.AperFunction,Conductor*%
G36*
X139930923Y-141022585D02*
G01*
X139951565Y-141039219D01*
X140898527Y-141986181D01*
X140898540Y-141986196D01*
X140905601Y-141993257D01*
X140976743Y-142064399D01*
X141031193Y-142086952D01*
X141069695Y-142102901D01*
X141170305Y-142102901D01*
X141170307Y-142102900D01*
X142355253Y-142102900D01*
X142355261Y-142102901D01*
X142380473Y-142102901D01*
X142447512Y-142122586D01*
X142493267Y-142175390D01*
X142503211Y-142244548D01*
X142502091Y-142251091D01*
X142492100Y-142301321D01*
X142492100Y-142848675D01*
X142506048Y-142918801D01*
X142506049Y-142918803D01*
X142534366Y-142961181D01*
X142559181Y-142998319D01*
X142638700Y-143051452D01*
X142638703Y-143051452D01*
X142638704Y-143051453D01*
X142673760Y-143058426D01*
X142708821Y-143065400D01*
X142758109Y-143065399D01*
X142787556Y-143074045D01*
X142817537Y-143080567D01*
X142822548Y-143084318D01*
X142825148Y-143085082D01*
X142845791Y-143101718D01*
X142919492Y-143175419D01*
X142952977Y-143236742D01*
X142947993Y-143306434D01*
X142906121Y-143362367D01*
X142840657Y-143386784D01*
X142831811Y-143387100D01*
X139766116Y-143387100D01*
X139699077Y-143367415D01*
X139678435Y-143350781D01*
X139309219Y-142981565D01*
X139275734Y-142920242D01*
X139272900Y-142893884D01*
X139272900Y-142647785D01*
X139292585Y-142580746D01*
X139293778Y-142578923D01*
X139333952Y-142518800D01*
X139347900Y-142448679D01*
X139347899Y-141901322D01*
X139333952Y-141831200D01*
X139333951Y-141831198D01*
X139333950Y-141831196D01*
X139301330Y-141782378D01*
X139280819Y-141751681D01*
X139201300Y-141698548D01*
X139201298Y-141698547D01*
X139201295Y-141698546D01*
X139131181Y-141684600D01*
X138908822Y-141684600D01*
X138860178Y-141694276D01*
X138790586Y-141688047D01*
X138747089Y-141659103D01*
X138736016Y-141647715D01*
X138734399Y-141643811D01*
X138663257Y-141572669D01*
X138663253Y-141572667D01*
X138542666Y-141452080D01*
X138509181Y-141390757D01*
X138514165Y-141321065D01*
X138556037Y-141265132D01*
X138621501Y-141240715D01*
X138630346Y-141240399D01*
X138631178Y-141240399D01*
X138701300Y-141226452D01*
X138701302Y-141226450D01*
X138712587Y-141221777D01*
X138713030Y-141222848D01*
X138767776Y-141205701D01*
X138827316Y-141222029D01*
X138827420Y-141221779D01*
X138829412Y-141222604D01*
X138835158Y-141224180D01*
X138838681Y-141226444D01*
X138838697Y-141226450D01*
X138838700Y-141226452D01*
X138838702Y-141226452D01*
X138838704Y-141226453D01*
X138862284Y-141231143D01*
X138908821Y-141240400D01*
X139131178Y-141240399D01*
X139201300Y-141226452D01*
X139280819Y-141173319D01*
X139333952Y-141093800D01*
X139333953Y-141093793D01*
X139338627Y-141082514D01*
X139342009Y-141083915D01*
X139364575Y-141040788D01*
X139425294Y-141006221D01*
X139453798Y-141002900D01*
X139863884Y-141002900D01*
X139930923Y-141022585D01*
G37*
%TD.AperFunction*%
%TA.AperFunction,Conductor*%
G36*
X150324565Y-137899241D02*
G01*
X150344558Y-137899599D01*
X150369660Y-137911610D01*
X150372663Y-137912434D01*
X150376366Y-137914814D01*
X150378332Y-137916128D01*
X150437516Y-137927900D01*
X150437517Y-137927900D01*
X150530600Y-137927900D01*
X150597639Y-137947585D01*
X150643394Y-138000389D01*
X150654600Y-138051900D01*
X150654600Y-139406383D01*
X150634915Y-139473422D01*
X150618281Y-139494064D01*
X147751565Y-142360781D01*
X147690242Y-142394266D01*
X147663884Y-142397100D01*
X145788195Y-142397100D01*
X145721156Y-142377415D01*
X145675401Y-142324611D01*
X145674761Y-142323187D01*
X145655934Y-142280549D01*
X145646631Y-142259479D01*
X145570521Y-142183369D01*
X145570519Y-142183368D01*
X145525373Y-142163434D01*
X145471996Y-142118348D01*
X145451469Y-142051562D01*
X145470307Y-141984280D01*
X145506895Y-141946680D01*
X145515700Y-141940836D01*
X145570521Y-141916631D01*
X145606710Y-141880441D01*
X145617050Y-141873580D01*
X145639048Y-141866768D01*
X145659256Y-141855734D01*
X145682888Y-141853193D01*
X145683793Y-141852913D01*
X145684267Y-141853044D01*
X145685614Y-141852900D01*
X146631041Y-141852900D01*
X146698080Y-141872585D01*
X146718722Y-141889219D01*
X146741913Y-141912410D01*
X146845187Y-141972036D01*
X146960375Y-142002900D01*
X146960377Y-142002900D01*
X147079623Y-142002900D01*
X147079625Y-142002900D01*
X147194813Y-141972036D01*
X147298087Y-141912410D01*
X147382410Y-141828087D01*
X147442036Y-141724813D01*
X147472900Y-141609625D01*
X147472900Y-141490375D01*
X147442036Y-141375187D01*
X147441703Y-141374611D01*
X147419181Y-141335602D01*
X147382410Y-141271913D01*
X147298087Y-141187590D01*
X147246450Y-141157777D01*
X147194814Y-141127964D01*
X147137219Y-141112532D01*
X147079625Y-141097100D01*
X146960375Y-141097100D01*
X146845185Y-141127964D01*
X146741913Y-141187590D01*
X146741910Y-141187592D01*
X146718722Y-141210781D01*
X146657399Y-141244266D01*
X146631041Y-141247100D01*
X145705614Y-141247100D01*
X145638575Y-141227415D01*
X145617933Y-141210781D01*
X145570521Y-141163369D01*
X145472058Y-141119893D01*
X145447985Y-141117100D01*
X145447984Y-141117100D01*
X145276827Y-141117100D01*
X145209788Y-141097415D01*
X145189146Y-141080781D01*
X144572947Y-140464581D01*
X144539462Y-140403258D01*
X144544446Y-140333566D01*
X144586318Y-140277633D01*
X144651782Y-140253216D01*
X144660628Y-140252900D01*
X146109467Y-140252900D01*
X146176506Y-140272585D01*
X146222261Y-140325389D01*
X146222864Y-140326730D01*
X146233369Y-140350521D01*
X146309479Y-140426631D01*
X146407943Y-140470107D01*
X146432016Y-140472900D01*
X146432017Y-140472900D01*
X146787983Y-140472900D01*
X146787984Y-140472900D01*
X146812057Y-140470107D01*
X146910521Y-140426631D01*
X146986631Y-140350521D01*
X147006566Y-140305373D01*
X147051652Y-140251996D01*
X147118438Y-140231469D01*
X147185720Y-140250307D01*
X147232137Y-140302531D01*
X147233434Y-140305373D01*
X147247478Y-140337179D01*
X147253369Y-140350521D01*
X147329479Y-140426631D01*
X147427943Y-140470107D01*
X147452016Y-140472900D01*
X147452017Y-140472900D01*
X147807983Y-140472900D01*
X147807984Y-140472900D01*
X147832057Y-140470107D01*
X147930521Y-140426631D01*
X148006631Y-140350521D01*
X148017099Y-140326814D01*
X148062185Y-140273438D01*
X148105987Y-140255355D01*
X148118139Y-140252901D01*
X148170305Y-140252901D01*
X148208806Y-140236952D01*
X148263257Y-140214399D01*
X148334399Y-140143257D01*
X148334399Y-140143254D01*
X148346314Y-140131340D01*
X148346317Y-140131335D01*
X149450755Y-139026899D01*
X149450757Y-139026899D01*
X149480078Y-138997577D01*
X149522772Y-138974266D01*
X149541396Y-138964096D01*
X149541397Y-138964096D01*
X149541399Y-138964095D01*
X149585290Y-138967235D01*
X149611087Y-138969080D01*
X149611089Y-138969080D01*
X149611091Y-138969081D01*
X149611092Y-138969082D01*
X149617829Y-138971822D01*
X149681779Y-139000059D01*
X149706266Y-139002900D01*
X149706267Y-139002900D01*
X150133733Y-139002900D01*
X150133734Y-139002900D01*
X150158221Y-139000059D01*
X150258396Y-138955828D01*
X150335828Y-138878396D01*
X150380059Y-138778221D01*
X150382900Y-138753734D01*
X150382900Y-138386266D01*
X150380059Y-138361779D01*
X150335828Y-138261604D01*
X150258396Y-138184172D01*
X150258393Y-138184170D01*
X150258392Y-138184170D01*
X150192092Y-138154896D01*
X150138715Y-138109810D01*
X150118187Y-138043024D01*
X150137025Y-137975742D01*
X150189248Y-137929325D01*
X150217983Y-137919844D01*
X150236668Y-137916128D01*
X150238607Y-137914832D01*
X150243478Y-137913306D01*
X150247949Y-137911455D01*
X150248114Y-137911854D01*
X150257686Y-137908857D01*
X150274699Y-137898349D01*
X150290347Y-137898629D01*
X150305282Y-137893952D01*
X150324565Y-137899241D01*
G37*
%TD.AperFunction*%
%TA.AperFunction,Conductor*%
G36*
X143030211Y-139782585D02*
G01*
X143050853Y-139799219D01*
X144710781Y-141459146D01*
X144744266Y-141520469D01*
X144747100Y-141546827D01*
X144747100Y-141717985D01*
X144749893Y-141742057D01*
X144749893Y-141742059D01*
X144789253Y-141831200D01*
X144793369Y-141840521D01*
X144869479Y-141916631D01*
X144892736Y-141926900D01*
X144914627Y-141936566D01*
X144968003Y-141981652D01*
X144988530Y-142048439D01*
X144969691Y-142115721D01*
X144941219Y-142147449D01*
X144928929Y-142157119D01*
X144869479Y-142183369D01*
X144793369Y-142259479D01*
X144790454Y-142266079D01*
X144772066Y-142280549D01*
X144756532Y-142286772D01*
X144743568Y-142297357D01*
X144716406Y-142302849D01*
X144707208Y-142306535D01*
X144702582Y-142305644D01*
X144695387Y-142307100D01*
X143748245Y-142307100D01*
X143681206Y-142287415D01*
X143641090Y-142241119D01*
X143640738Y-142241355D01*
X143638862Y-142238547D01*
X143635451Y-142234611D01*
X143633991Y-142231258D01*
X143601992Y-142183369D01*
X143580819Y-142151681D01*
X143501300Y-142098548D01*
X143501298Y-142098547D01*
X143501295Y-142098546D01*
X143431181Y-142084600D01*
X143208824Y-142084600D01*
X143156467Y-142095014D01*
X143138700Y-142098548D01*
X143138699Y-142098548D01*
X143138696Y-142098549D01*
X143127415Y-142103222D01*
X143126975Y-142102159D01*
X143104796Y-142109095D01*
X143072210Y-142119298D01*
X143072189Y-142119292D01*
X143072169Y-142119299D01*
X143038685Y-142110100D01*
X143012687Y-142102967D01*
X143012583Y-142103221D01*
X143010567Y-142102385D01*
X143004830Y-142100812D01*
X143004815Y-142100795D01*
X143004795Y-142100790D01*
X143001320Y-142098555D01*
X143001299Y-142098547D01*
X142931182Y-142084600D01*
X142842414Y-142084600D01*
X142775375Y-142064915D01*
X142729620Y-142012111D01*
X142719676Y-141942953D01*
X142748701Y-141879397D01*
X142754714Y-141872938D01*
X142945815Y-141681838D01*
X142945819Y-141681836D01*
X142963256Y-141664399D01*
X142963257Y-141664399D01*
X142992375Y-141635279D01*
X143011152Y-141619868D01*
X143080819Y-141573319D01*
X143133952Y-141493800D01*
X143147900Y-141423679D01*
X143147899Y-140876322D01*
X143133952Y-140806200D01*
X143133951Y-140806198D01*
X143133950Y-140806196D01*
X143103879Y-140761193D01*
X143080819Y-140726681D01*
X143001300Y-140673548D01*
X143001298Y-140673547D01*
X143001295Y-140673546D01*
X142931182Y-140659600D01*
X142750258Y-140659600D01*
X142683219Y-140639915D01*
X142637464Y-140587111D01*
X142627520Y-140517953D01*
X142656545Y-140454397D01*
X142662551Y-140447945D01*
X142682410Y-140428087D01*
X142742036Y-140324813D01*
X142772900Y-140209625D01*
X142772900Y-140090375D01*
X142742036Y-139975187D01*
X142742035Y-139975186D01*
X142742035Y-139975184D01*
X142726860Y-139948902D01*
X142725427Y-139942999D01*
X142721452Y-139938411D01*
X142717287Y-139909446D01*
X142710386Y-139881002D01*
X142712372Y-139875263D01*
X142711508Y-139869253D01*
X142723665Y-139842632D01*
X142733237Y-139814975D01*
X142738010Y-139811221D01*
X142740533Y-139805697D01*
X142765154Y-139789873D01*
X142788158Y-139771783D01*
X142795509Y-139770366D01*
X142799311Y-139767923D01*
X142834246Y-139762900D01*
X142963172Y-139762900D01*
X143030211Y-139782585D01*
G37*
%TD.AperFunction*%
%TA.AperFunction,Conductor*%
G36*
X156380923Y-133372585D02*
G01*
X156401565Y-133389219D01*
X158730781Y-135718435D01*
X158764266Y-135779758D01*
X158767100Y-135806116D01*
X158767100Y-141553172D01*
X158747415Y-141620211D01*
X158730781Y-141640854D01*
X158657680Y-141713954D01*
X158596356Y-141747438D01*
X158526665Y-141742453D01*
X158482318Y-141713953D01*
X158394147Y-141625782D01*
X158394145Y-141625780D01*
X158357558Y-141609625D01*
X158346812Y-141604880D01*
X158293437Y-141559793D01*
X158272910Y-141493007D01*
X158272900Y-141491446D01*
X158272900Y-140922549D01*
X158272900Y-140900307D01*
X158272901Y-140900305D01*
X158272901Y-140799695D01*
X158256952Y-140761193D01*
X158234399Y-140706743D01*
X158163257Y-140635601D01*
X158156196Y-140628540D01*
X158156181Y-140628527D01*
X157051404Y-139523750D01*
X157034400Y-139506746D01*
X157034399Y-139506743D01*
X156963257Y-139435601D01*
X156901744Y-139410122D01*
X156888041Y-139404445D01*
X156888040Y-139404445D01*
X156870305Y-139397099D01*
X156769695Y-139397099D01*
X156755261Y-139397099D01*
X156755253Y-139397100D01*
X153876116Y-139397100D01*
X153809077Y-139377415D01*
X153788435Y-139360781D01*
X152996719Y-138569065D01*
X152963234Y-138507742D01*
X152960400Y-138481384D01*
X152960400Y-138377877D01*
X152960400Y-138377875D01*
X152929536Y-138262687D01*
X152929147Y-138262014D01*
X152913896Y-138235598D01*
X152869910Y-138159413D01*
X152796719Y-138086222D01*
X152763234Y-138024899D01*
X152760400Y-137998541D01*
X152760400Y-137076900D01*
X152780085Y-137009861D01*
X152832889Y-136964106D01*
X152884400Y-136952900D01*
X153552483Y-136952900D01*
X153552484Y-136952900D01*
X153611668Y-136941128D01*
X153678783Y-136896283D01*
X153723628Y-136829168D01*
X153735400Y-136769984D01*
X153735400Y-136630016D01*
X153723628Y-136570832D01*
X153722332Y-136568892D01*
X153720806Y-136564021D01*
X153718955Y-136559551D01*
X153719354Y-136559385D01*
X153701452Y-136502218D01*
X153719934Y-136434837D01*
X153722314Y-136431133D01*
X153723628Y-136429168D01*
X153735400Y-136369984D01*
X153735400Y-136230016D01*
X153723628Y-136170832D01*
X153722332Y-136168892D01*
X153720806Y-136164021D01*
X153718955Y-136159551D01*
X153719354Y-136159385D01*
X153701452Y-136102218D01*
X153719934Y-136034837D01*
X153722314Y-136031133D01*
X153723628Y-136029168D01*
X153735400Y-135969984D01*
X153735400Y-135830016D01*
X153723628Y-135770832D01*
X153722332Y-135768892D01*
X153720806Y-135764021D01*
X153718955Y-135759551D01*
X153719354Y-135759385D01*
X153701452Y-135702218D01*
X153719934Y-135634837D01*
X153722314Y-135631133D01*
X153723628Y-135629168D01*
X153735400Y-135569984D01*
X153735400Y-135430016D01*
X153723628Y-135370832D01*
X153722332Y-135368892D01*
X153720806Y-135364021D01*
X153718955Y-135359551D01*
X153719354Y-135359385D01*
X153701452Y-135302218D01*
X153719934Y-135234837D01*
X153722314Y-135231133D01*
X153723628Y-135229168D01*
X153735400Y-135169984D01*
X153735400Y-135030016D01*
X153723628Y-134970832D01*
X153722332Y-134968892D01*
X153720806Y-134964021D01*
X153718955Y-134959551D01*
X153719354Y-134959385D01*
X153717434Y-134953252D01*
X153708006Y-134939840D01*
X153707207Y-134920595D01*
X153701452Y-134902218D01*
X153705760Y-134885750D01*
X153705108Y-134870031D01*
X153716766Y-134843685D01*
X153718425Y-134837345D01*
X153720269Y-134834193D01*
X153723628Y-134829168D01*
X153735400Y-134769984D01*
X153735400Y-134642416D01*
X153755085Y-134575377D01*
X153807889Y-134529622D01*
X153877047Y-134519678D01*
X153940603Y-134548703D01*
X153947081Y-134554735D01*
X154020781Y-134628435D01*
X154034299Y-134653192D01*
X154050526Y-134676276D01*
X154050824Y-134683454D01*
X154054266Y-134689758D01*
X154057100Y-134716116D01*
X154057100Y-134953735D01*
X154059941Y-134978221D01*
X154059941Y-134978223D01*
X154098565Y-135065697D01*
X154104172Y-135078396D01*
X154181604Y-135155828D01*
X154281779Y-135200059D01*
X154306266Y-135202900D01*
X154306267Y-135202900D01*
X154733733Y-135202900D01*
X154733734Y-135202900D01*
X154758221Y-135200059D01*
X154858396Y-135155828D01*
X154935828Y-135078396D01*
X154935829Y-135078391D01*
X154936906Y-135076822D01*
X154939605Y-135074618D01*
X154942940Y-135071283D01*
X154945492Y-135065697D01*
X154969203Y-135050458D01*
X154991033Y-135032640D01*
X154999637Y-135030900D01*
X155004270Y-135027923D01*
X155039205Y-135022900D01*
X155100795Y-135022900D01*
X155167834Y-135042585D01*
X155203094Y-135076822D01*
X155204172Y-135078396D01*
X155281604Y-135155828D01*
X155381779Y-135200059D01*
X155406266Y-135202900D01*
X155406267Y-135202900D01*
X155833733Y-135202900D01*
X155833734Y-135202900D01*
X155858221Y-135200059D01*
X155958396Y-135155828D01*
X156035828Y-135078396D01*
X156035829Y-135078391D01*
X156036906Y-135076822D01*
X156039605Y-135074618D01*
X156042940Y-135071283D01*
X156045492Y-135065697D01*
X156069203Y-135050458D01*
X156091033Y-135032640D01*
X156099637Y-135030900D01*
X156104270Y-135027923D01*
X156139205Y-135022900D01*
X156301041Y-135022900D01*
X156368080Y-135042585D01*
X156388722Y-135059219D01*
X156441913Y-135112410D01*
X156545187Y-135172036D01*
X156660375Y-135202900D01*
X156660377Y-135202900D01*
X156779623Y-135202900D01*
X156779625Y-135202900D01*
X156894813Y-135172036D01*
X156998087Y-135112410D01*
X157082410Y-135028087D01*
X157142036Y-134924813D01*
X157172900Y-134809625D01*
X157172900Y-134690375D01*
X157142036Y-134575187D01*
X157139520Y-134570830D01*
X157126745Y-134548703D01*
X157082410Y-134471913D01*
X156998087Y-134387590D01*
X156946450Y-134357777D01*
X156894814Y-134327964D01*
X156837219Y-134312532D01*
X156779625Y-134297100D01*
X156660375Y-134297100D01*
X156545185Y-134327964D01*
X156441913Y-134387590D01*
X156441910Y-134387592D01*
X156355715Y-134473787D01*
X156355480Y-134474303D01*
X156354696Y-134474806D01*
X156351843Y-134477660D01*
X156351222Y-134477039D01*
X156329068Y-134491276D01*
X156303711Y-134509791D01*
X156298974Y-134510616D01*
X156296702Y-134512077D01*
X156261767Y-134517100D01*
X156139205Y-134517100D01*
X156072166Y-134497415D01*
X156036906Y-134463178D01*
X156035827Y-134461603D01*
X155958397Y-134384173D01*
X155958396Y-134384172D01*
X155958393Y-134384170D01*
X155958392Y-134384170D01*
X155858222Y-134339941D01*
X155833735Y-134337100D01*
X155833734Y-134337100D01*
X155406266Y-134337100D01*
X155406264Y-134337100D01*
X155381778Y-134339941D01*
X155381776Y-134339941D01*
X155281607Y-134384170D01*
X155281602Y-134384173D01*
X155204172Y-134461603D01*
X155203094Y-134463178D01*
X155200394Y-134465381D01*
X155197059Y-134468716D01*
X155194508Y-134474303D01*
X155170796Y-134489541D01*
X155148967Y-134507360D01*
X155140362Y-134509099D01*
X155135730Y-134512077D01*
X155100795Y-134517100D01*
X155039205Y-134517100D01*
X154972166Y-134497415D01*
X154936906Y-134463178D01*
X154935827Y-134461603D01*
X154862496Y-134388272D01*
X154829011Y-134326949D01*
X154833995Y-134257257D01*
X154875867Y-134201324D01*
X154900092Y-134187156D01*
X154912419Y-134181713D01*
X154948396Y-134165828D01*
X155025828Y-134088396D01*
X155070059Y-133988221D01*
X155072900Y-133963734D01*
X155072900Y-133536266D01*
X155070059Y-133511779D01*
X155070058Y-133511778D01*
X155070058Y-133511773D01*
X155069427Y-133509454D01*
X155069480Y-133506791D01*
X155068984Y-133502516D01*
X155069566Y-133502448D01*
X155070821Y-133439598D01*
X155109760Y-133381586D01*
X155173882Y-133353834D01*
X155189077Y-133352900D01*
X156313884Y-133352900D01*
X156380923Y-133372585D01*
G37*
%TD.AperFunction*%
%TA.AperFunction,Conductor*%
G36*
X158280923Y-132972585D02*
G01*
X158301565Y-132989219D01*
X159730781Y-134418435D01*
X159764266Y-134479758D01*
X159767100Y-134506116D01*
X159767100Y-141553172D01*
X159758455Y-141582609D01*
X159751932Y-141612600D01*
X159748176Y-141617616D01*
X159747415Y-141620211D01*
X159730782Y-141640853D01*
X159730781Y-141640854D01*
X159657680Y-141713954D01*
X159596356Y-141747438D01*
X159526665Y-141742453D01*
X159482318Y-141713953D01*
X159394147Y-141625782D01*
X159394145Y-141625780D01*
X159357558Y-141609625D01*
X159346812Y-141604880D01*
X159293437Y-141559793D01*
X159272910Y-141493007D01*
X159272900Y-141491446D01*
X159272900Y-135724642D01*
X159272900Y-135700307D01*
X159272901Y-135700305D01*
X159272901Y-135599695D01*
X159245675Y-135533968D01*
X159235949Y-135510485D01*
X159234400Y-135506744D01*
X159203045Y-135475389D01*
X159163257Y-135435601D01*
X159163255Y-135435600D01*
X159156189Y-135428534D01*
X159156189Y-135428533D01*
X159156185Y-135428530D01*
X158024755Y-134297100D01*
X156892234Y-133164580D01*
X156858750Y-133103258D01*
X156863734Y-133033566D01*
X156905606Y-132977633D01*
X156971070Y-132953216D01*
X156979916Y-132952900D01*
X158213884Y-132952900D01*
X158280923Y-132972585D01*
G37*
%TD.AperFunction*%
%TA.AperFunction,Conductor*%
G36*
X138585720Y-139700307D02*
G01*
X138632137Y-139752531D01*
X138633434Y-139755373D01*
X138652794Y-139799219D01*
X138653369Y-139800521D01*
X138729479Y-139876631D01*
X138827943Y-139920107D01*
X138852016Y-139922900D01*
X138852017Y-139922900D01*
X139207983Y-139922900D01*
X139207984Y-139922900D01*
X139232057Y-139920107D01*
X139330521Y-139876631D01*
X139406631Y-139800521D01*
X139406631Y-139800520D01*
X139407933Y-139799219D01*
X139469256Y-139765734D01*
X139495614Y-139762900D01*
X140044386Y-139762900D01*
X140111425Y-139782585D01*
X140132067Y-139799219D01*
X140169479Y-139836631D01*
X140267943Y-139880107D01*
X140292016Y-139882900D01*
X140292017Y-139882900D01*
X140747983Y-139882900D01*
X140747984Y-139882900D01*
X140772057Y-139880107D01*
X140870521Y-139836631D01*
X140907933Y-139799219D01*
X140969256Y-139765734D01*
X140995614Y-139762900D01*
X141805754Y-139762900D01*
X141872793Y-139782585D01*
X141918548Y-139835389D01*
X141928492Y-139904547D01*
X141913140Y-139948902D01*
X141897964Y-139975184D01*
X141881338Y-140037237D01*
X141867100Y-140090375D01*
X141867100Y-140209625D01*
X141872703Y-140230536D01*
X141897964Y-140324814D01*
X141912808Y-140350523D01*
X141957590Y-140428087D01*
X141957592Y-140428089D01*
X142030781Y-140501278D01*
X142045484Y-140528205D01*
X142062077Y-140554024D01*
X142062968Y-140560224D01*
X142064266Y-140562601D01*
X142067100Y-140588959D01*
X142067100Y-140677214D01*
X142047415Y-140744253D01*
X142046203Y-140746104D01*
X142006047Y-140806201D01*
X142006046Y-140806204D01*
X141992100Y-140876316D01*
X141992100Y-141423676D01*
X141997120Y-141448911D01*
X141990891Y-141518502D01*
X141948027Y-141573679D01*
X141882137Y-141596922D01*
X141875502Y-141597100D01*
X141276116Y-141597100D01*
X141209077Y-141577415D01*
X141188435Y-141560781D01*
X140251122Y-140623468D01*
X140234400Y-140606746D01*
X140234399Y-140606743D01*
X140163257Y-140535601D01*
X140107268Y-140512410D01*
X140093196Y-140506581D01*
X140093195Y-140506580D01*
X140070305Y-140497099D01*
X139969695Y-140497099D01*
X139955261Y-140497099D01*
X139955253Y-140497100D01*
X139453797Y-140497100D01*
X139386758Y-140477415D01*
X139341003Y-140424611D01*
X139338691Y-140417452D01*
X139338624Y-140417481D01*
X139333950Y-140406196D01*
X139312581Y-140374217D01*
X139280819Y-140326681D01*
X139201300Y-140273548D01*
X139201298Y-140273547D01*
X139201295Y-140273546D01*
X139131181Y-140259600D01*
X138908824Y-140259600D01*
X138859314Y-140269448D01*
X138838700Y-140273548D01*
X138838699Y-140273548D01*
X138838696Y-140273549D01*
X138827415Y-140278222D01*
X138826972Y-140277152D01*
X138772210Y-140294298D01*
X138712687Y-140277967D01*
X138712583Y-140278221D01*
X138710567Y-140277385D01*
X138704830Y-140275812D01*
X138701320Y-140273555D01*
X138701299Y-140273547D01*
X138631181Y-140259600D01*
X138631179Y-140259600D01*
X138631106Y-140259600D01*
X138402731Y-140259601D01*
X138402730Y-140258379D01*
X138394207Y-140256762D01*
X138379253Y-140258913D01*
X138360575Y-140250383D01*
X138340404Y-140246557D01*
X138329440Y-140236164D01*
X138315697Y-140229888D01*
X138304595Y-140212613D01*
X138289696Y-140198490D01*
X138285489Y-140182884D01*
X138277923Y-140171110D01*
X138272900Y-140136175D01*
X138272900Y-139965614D01*
X138292585Y-139898575D01*
X138309219Y-139877933D01*
X138344520Y-139842632D01*
X138386631Y-139800521D01*
X138406566Y-139755373D01*
X138451652Y-139701996D01*
X138518438Y-139681469D01*
X138585720Y-139700307D01*
G37*
%TD.AperFunction*%
%TA.AperFunction,Conductor*%
G36*
X152173934Y-129904614D02*
G01*
X152229867Y-129946486D01*
X152254284Y-130011950D01*
X152254600Y-130020796D01*
X152254600Y-130055016D01*
X152254600Y-130869984D01*
X152266372Y-130929168D01*
X152311217Y-130996283D01*
X152378332Y-131041128D01*
X152437516Y-131052900D01*
X152437519Y-131052900D01*
X152442826Y-131053423D01*
X152507613Y-131079583D01*
X152547973Y-131136617D01*
X152550229Y-131143928D01*
X152554600Y-131159812D01*
X152554600Y-131169984D01*
X152566372Y-131229168D01*
X152578804Y-131247774D01*
X152584123Y-131267102D01*
X152583854Y-131282803D01*
X152588547Y-131297789D01*
X152583270Y-131317021D01*
X152582930Y-131336961D01*
X152574215Y-131350024D01*
X152570061Y-131365169D01*
X152567670Y-131368889D01*
X152566372Y-131370830D01*
X152554600Y-131430017D01*
X152554600Y-131569982D01*
X152566372Y-131629169D01*
X152567670Y-131631111D01*
X152569196Y-131635986D01*
X152571045Y-131640449D01*
X152570645Y-131640614D01*
X152588547Y-131697789D01*
X152570061Y-131765169D01*
X152567670Y-131768889D01*
X152566372Y-131770830D01*
X152566157Y-131771913D01*
X152554600Y-131830016D01*
X152554600Y-131969984D01*
X152558656Y-131990375D01*
X152566372Y-132029169D01*
X152567670Y-132031111D01*
X152569196Y-132035986D01*
X152571045Y-132040449D01*
X152570645Y-132040614D01*
X152588547Y-132097789D01*
X152570061Y-132165169D01*
X152567670Y-132168889D01*
X152566372Y-132170830D01*
X152566372Y-132170832D01*
X152554600Y-132230016D01*
X152554600Y-132369984D01*
X152562448Y-132409440D01*
X152566372Y-132429169D01*
X152567670Y-132431111D01*
X152569196Y-132435986D01*
X152571045Y-132440449D01*
X152570645Y-132440614D01*
X152588547Y-132497789D01*
X152570061Y-132565169D01*
X152567670Y-132568889D01*
X152566372Y-132570830D01*
X152560679Y-132599455D01*
X152555896Y-132623503D01*
X152554600Y-132630017D01*
X152554600Y-132769982D01*
X152566372Y-132829169D01*
X152567670Y-132831111D01*
X152569196Y-132835986D01*
X152571045Y-132840449D01*
X152570645Y-132840614D01*
X152588547Y-132897789D01*
X152585965Y-132925270D01*
X152581055Y-132948857D01*
X152566372Y-132970832D01*
X152554600Y-133030016D01*
X152554600Y-133075947D01*
X152551998Y-133088448D01*
X152541305Y-133108454D01*
X152534915Y-133130217D01*
X152525153Y-133138675D01*
X152519064Y-133150069D01*
X152499252Y-133161119D01*
X152482111Y-133175972D01*
X152469326Y-133177810D01*
X152458044Y-133184103D01*
X152435404Y-133182687D01*
X152412953Y-133185916D01*
X152396621Y-133180263D01*
X152388310Y-133179744D01*
X152382244Y-133175287D01*
X152368599Y-133170565D01*
X152294814Y-133127964D01*
X152202607Y-133103258D01*
X152179625Y-133097100D01*
X152060375Y-133097100D01*
X151945185Y-133127964D01*
X151841913Y-133187590D01*
X151841910Y-133187592D01*
X151757592Y-133271910D01*
X151757590Y-133271913D01*
X151697964Y-133375185D01*
X151667753Y-133487939D01*
X151667100Y-133490375D01*
X151667100Y-133609625D01*
X151672337Y-133629169D01*
X151697964Y-133724814D01*
X151714180Y-133752900D01*
X151757590Y-133828087D01*
X151841913Y-133912410D01*
X151945187Y-133972036D01*
X152060375Y-134002900D01*
X152060377Y-134002900D01*
X152179623Y-134002900D01*
X152179625Y-134002900D01*
X152294813Y-133972036D01*
X152378347Y-133923807D01*
X152446243Y-133907334D01*
X152512270Y-133930185D01*
X152555462Y-133985106D01*
X152557309Y-133990019D01*
X152560242Y-133998352D01*
X152566372Y-134029168D01*
X152576345Y-134044093D01*
X152581531Y-134058825D01*
X152582585Y-134078749D01*
X152588547Y-134097789D01*
X152584394Y-134112924D01*
X152585224Y-134128597D01*
X152575339Y-134145927D01*
X152570061Y-134165169D01*
X152567670Y-134168889D01*
X152566372Y-134170830D01*
X152563125Y-134187156D01*
X152554600Y-134230016D01*
X152554600Y-134369984D01*
X152558238Y-134388272D01*
X152566372Y-134429169D01*
X152567670Y-134431111D01*
X152569196Y-134435986D01*
X152571045Y-134440449D01*
X152570645Y-134440614D01*
X152588547Y-134497789D01*
X152570061Y-134565169D01*
X152567670Y-134568889D01*
X152566372Y-134570830D01*
X152565468Y-134575377D01*
X152554600Y-134630016D01*
X152554600Y-134769984D01*
X152556078Y-134777415D01*
X152566372Y-134829169D01*
X152567670Y-134831111D01*
X152569196Y-134835986D01*
X152571045Y-134840449D01*
X152570645Y-134840614D01*
X152588547Y-134897789D01*
X152570061Y-134965169D01*
X152567670Y-134968889D01*
X152566372Y-134970830D01*
X152566372Y-134970832D01*
X152554600Y-135030016D01*
X152554600Y-135169984D01*
X152560582Y-135200058D01*
X152566372Y-135229169D01*
X152567670Y-135231111D01*
X152569196Y-135235986D01*
X152571045Y-135240449D01*
X152570645Y-135240614D01*
X152588547Y-135297789D01*
X152570061Y-135365169D01*
X152567670Y-135368889D01*
X152566372Y-135370830D01*
X152558524Y-135410288D01*
X152555909Y-135423438D01*
X152554600Y-135430017D01*
X152554600Y-135563178D01*
X152534915Y-135630217D01*
X152482111Y-135675972D01*
X152412953Y-135685916D01*
X152368599Y-135670565D01*
X152294814Y-135627964D01*
X152227986Y-135610058D01*
X152179625Y-135597100D01*
X152060375Y-135597100D01*
X151945185Y-135627964D01*
X151841913Y-135687590D01*
X151841909Y-135687593D01*
X151807680Y-135721822D01*
X151746357Y-135755307D01*
X151676665Y-135750321D01*
X151632320Y-135721822D01*
X151598090Y-135687593D01*
X151598089Y-135687592D01*
X151598087Y-135687590D01*
X151546450Y-135657777D01*
X151494814Y-135627964D01*
X151427986Y-135610058D01*
X151379625Y-135597100D01*
X151260375Y-135597100D01*
X151145185Y-135627964D01*
X151041913Y-135687590D01*
X151041910Y-135687592D01*
X150957592Y-135771910D01*
X150957590Y-135771913D01*
X150897964Y-135875185D01*
X150867100Y-135990375D01*
X150867100Y-136109600D01*
X150847415Y-136176639D01*
X150794611Y-136222394D01*
X150743100Y-136233600D01*
X150576954Y-136233600D01*
X150497419Y-136266545D01*
X150339443Y-136424521D01*
X150278120Y-136458005D01*
X150208428Y-136453021D01*
X150152495Y-136411149D01*
X150145094Y-136398180D01*
X150144293Y-136398643D01*
X150140228Y-136391602D01*
X150080603Y-136288330D01*
X149996280Y-136204007D01*
X149938820Y-136170832D01*
X149893007Y-136144381D01*
X149813706Y-136123133D01*
X149777818Y-136113517D01*
X149658568Y-136113517D01*
X149543378Y-136144381D01*
X149440106Y-136204007D01*
X149440103Y-136204009D01*
X149355785Y-136288327D01*
X149355783Y-136288330D01*
X149296157Y-136391602D01*
X149265293Y-136506792D01*
X149265293Y-136634169D01*
X149263299Y-136634169D01*
X149261347Y-136646681D01*
X149262234Y-136670104D01*
X149256060Y-136680559D01*
X149254189Y-136692555D01*
X149238627Y-136710084D01*
X149226710Y-136730269D01*
X149212694Y-136739297D01*
X149207804Y-136744807D01*
X149197762Y-136750460D01*
X149182820Y-136757979D01*
X149178332Y-136758872D01*
X149170049Y-136764406D01*
X149163242Y-136767832D01*
X149136065Y-136772795D01*
X149109711Y-136781047D01*
X149102186Y-136778982D01*
X149094509Y-136780385D01*
X149068964Y-136769868D01*
X149042331Y-136762561D01*
X149038611Y-136760170D01*
X149036669Y-136758872D01*
X148989927Y-136749575D01*
X148977484Y-136747100D01*
X148896207Y-136747100D01*
X148892876Y-136746121D01*
X148889499Y-136746918D01*
X148859597Y-136736350D01*
X148829168Y-136727415D01*
X148825928Y-136724450D01*
X148823623Y-136723636D01*
X148816888Y-136716179D01*
X148798238Y-136699114D01*
X148790355Y-136688954D01*
X148789758Y-136686725D01*
X148749881Y-136617655D01*
X148693485Y-136561259D01*
X148693482Y-136561257D01*
X148437646Y-136305421D01*
X148176149Y-136043923D01*
X148142664Y-135982600D01*
X148139830Y-135956242D01*
X148139830Y-135923447D01*
X148139830Y-135923445D01*
X148108966Y-135808257D01*
X148049340Y-135704983D01*
X147965017Y-135620660D01*
X147877245Y-135569984D01*
X147861744Y-135561034D01*
X147804149Y-135545602D01*
X147746555Y-135530170D01*
X147746554Y-135530170D01*
X147713757Y-135530170D01*
X147646718Y-135510485D01*
X147626076Y-135493851D01*
X147324483Y-135192258D01*
X146989845Y-134857619D01*
X146989844Y-134857618D01*
X146989841Y-134857616D01*
X146922400Y-134818679D01*
X146874184Y-134768112D01*
X146861972Y-134730974D01*
X146860400Y-134721195D01*
X146860400Y-134630016D01*
X146848628Y-134570832D01*
X146832298Y-134546392D01*
X146828004Y-134519682D01*
X146829133Y-134510780D01*
X146826452Y-134502218D01*
X146833462Y-134476660D01*
X146836798Y-134450368D01*
X146842560Y-134443490D01*
X146844934Y-134434837D01*
X146847314Y-134431133D01*
X146848628Y-134429168D01*
X146860400Y-134369984D01*
X146860400Y-134230016D01*
X146848628Y-134170832D01*
X146847332Y-134168892D01*
X146845806Y-134164021D01*
X146843955Y-134159551D01*
X146844354Y-134159385D01*
X146826452Y-134102218D01*
X146844934Y-134034837D01*
X146847314Y-134031133D01*
X146848628Y-134029168D01*
X146860400Y-133969984D01*
X146860400Y-133830016D01*
X146848628Y-133770832D01*
X146847332Y-133768892D01*
X146845806Y-133764021D01*
X146843955Y-133759551D01*
X146844354Y-133759385D01*
X146826452Y-133702218D01*
X146835765Y-133652803D01*
X146840464Y-133641385D01*
X146848628Y-133629168D01*
X146851559Y-133614430D01*
X146856153Y-133603270D01*
X146870762Y-133585057D01*
X146881583Y-133564370D01*
X146892215Y-133558314D01*
X146899873Y-133548769D01*
X146922009Y-133541346D01*
X146942297Y-133529792D01*
X146958986Y-133528947D01*
X146966118Y-133526556D01*
X146972809Y-133528247D01*
X146987014Y-133527529D01*
X146991787Y-133528157D01*
X146991792Y-133528159D01*
X146991797Y-133528159D01*
X147111040Y-133528159D01*
X147111042Y-133528159D01*
X147226230Y-133497295D01*
X147329504Y-133437669D01*
X147413827Y-133353346D01*
X147473453Y-133250072D01*
X147504317Y-133134884D01*
X147504317Y-133015634D01*
X147473453Y-132900446D01*
X147473195Y-132900000D01*
X147465463Y-132886607D01*
X147413827Y-132797172D01*
X147329504Y-132712849D01*
X147277867Y-132683036D01*
X147226231Y-132653223D01*
X147168636Y-132637791D01*
X147111042Y-132622359D01*
X146991792Y-132622359D01*
X146991790Y-132622359D01*
X146985390Y-132624074D01*
X146961475Y-132623503D01*
X146937867Y-132627332D01*
X146927187Y-132622684D01*
X146915540Y-132622407D01*
X146895729Y-132608996D01*
X146873800Y-132599455D01*
X146861639Y-132585921D01*
X146857680Y-132583241D01*
X146850211Y-132573202D01*
X146848628Y-132570834D01*
X146848628Y-132570832D01*
X146847337Y-132568901D01*
X146826452Y-132502230D01*
X146844928Y-132434847D01*
X146847314Y-132431133D01*
X146848628Y-132429168D01*
X146860400Y-132369984D01*
X146860400Y-132230016D01*
X146848628Y-132170832D01*
X146847332Y-132168892D01*
X146845806Y-132164021D01*
X146843955Y-132159551D01*
X146844354Y-132159385D01*
X146826452Y-132102218D01*
X146844934Y-132034837D01*
X146847314Y-132031133D01*
X146848628Y-132029168D01*
X146860400Y-131969984D01*
X146860400Y-131830016D01*
X146848628Y-131770832D01*
X146847332Y-131768892D01*
X146845806Y-131764021D01*
X146843955Y-131759551D01*
X146844354Y-131759385D01*
X146826452Y-131702218D01*
X146827845Y-131681336D01*
X146831998Y-131654055D01*
X146848628Y-131629168D01*
X146860400Y-131569984D01*
X146860400Y-131467516D01*
X146861813Y-131458236D01*
X146872779Y-131434739D01*
X146880085Y-131409861D01*
X146887316Y-131403594D01*
X146891364Y-131394923D01*
X146913295Y-131381083D01*
X146932889Y-131364106D01*
X146944048Y-131361678D01*
X146950453Y-131357637D01*
X146962177Y-131357734D01*
X146984400Y-131352900D01*
X149042753Y-131352900D01*
X149042761Y-131352901D01*
X149057195Y-131352901D01*
X149157805Y-131352901D01*
X149190836Y-131339218D01*
X149196307Y-131336952D01*
X149196309Y-131336950D01*
X149250757Y-131314399D01*
X149321899Y-131243257D01*
X149321900Y-131243254D01*
X149433314Y-131131838D01*
X149433320Y-131131835D01*
X149450756Y-131114399D01*
X149450757Y-131114399D01*
X149486171Y-131078985D01*
X149547494Y-131045500D01*
X149598043Y-131045049D01*
X149637511Y-131052899D01*
X149637515Y-131052900D01*
X149637516Y-131052900D01*
X149777483Y-131052900D01*
X149777484Y-131052900D01*
X149836668Y-131041128D01*
X149838607Y-131039832D01*
X149843478Y-131038306D01*
X149847949Y-131036455D01*
X149848114Y-131036854D01*
X149905282Y-131018952D01*
X149972663Y-131037434D01*
X149976366Y-131039814D01*
X149978332Y-131041128D01*
X150037516Y-131052900D01*
X150037517Y-131052900D01*
X150177483Y-131052900D01*
X150177484Y-131052900D01*
X150236668Y-131041128D01*
X150238607Y-131039832D01*
X150243478Y-131038306D01*
X150247949Y-131036455D01*
X150248114Y-131036854D01*
X150305282Y-131018952D01*
X150342403Y-131023946D01*
X150360610Y-131029287D01*
X150378332Y-131041128D01*
X150437516Y-131052900D01*
X150441108Y-131052900D01*
X150453970Y-131056673D01*
X150478898Y-131072684D01*
X150505168Y-131086425D01*
X150507980Y-131091363D01*
X150512758Y-131094432D01*
X150525074Y-131121381D01*
X150539743Y-131147141D01*
X150539438Y-131152813D01*
X150541800Y-131157980D01*
X150537589Y-131187317D01*
X150536004Y-131216910D01*
X150533636Y-131223093D01*
X150533475Y-131223479D01*
X150505446Y-131328089D01*
X150502609Y-131338677D01*
X150502609Y-131457927D01*
X150507693Y-131476900D01*
X150533473Y-131573116D01*
X150555370Y-131611041D01*
X150593099Y-131676389D01*
X150677422Y-131760712D01*
X150780696Y-131820338D01*
X150895884Y-131851202D01*
X150895886Y-131851202D01*
X151015132Y-131851202D01*
X151015134Y-131851202D01*
X151130322Y-131820338D01*
X151233596Y-131760712D01*
X151317919Y-131676389D01*
X151377545Y-131573115D01*
X151408409Y-131457927D01*
X151408409Y-131338677D01*
X151377545Y-131223489D01*
X151377543Y-131223485D01*
X151374686Y-131218536D01*
X151372078Y-131207787D01*
X151365526Y-131198877D01*
X151363987Y-131174437D01*
X151358213Y-131150636D01*
X151361830Y-131140183D01*
X151361136Y-131129146D01*
X151373055Y-131107752D01*
X151381066Y-131084609D01*
X151390648Y-131076176D01*
X151395143Y-131068110D01*
X151414003Y-131055624D01*
X151423576Y-131047201D01*
X151433896Y-131041679D01*
X151436668Y-131041128D01*
X151443663Y-131036453D01*
X151449003Y-131033597D01*
X151477504Y-131027651D01*
X151505282Y-131018952D01*
X151511295Y-131020601D01*
X151517400Y-131019328D01*
X151544587Y-131029733D01*
X151572663Y-131037434D01*
X151576366Y-131039814D01*
X151578332Y-131041128D01*
X151637516Y-131052900D01*
X151637517Y-131052900D01*
X151777483Y-131052900D01*
X151777484Y-131052900D01*
X151836668Y-131041128D01*
X151903783Y-130996283D01*
X151948628Y-130929168D01*
X151960400Y-130869984D01*
X151960400Y-130066996D01*
X151969044Y-130037555D01*
X151975568Y-130007569D01*
X151979322Y-130002553D01*
X151980085Y-129999957D01*
X151996719Y-129979315D01*
X152042919Y-129933115D01*
X152104242Y-129899630D01*
X152173934Y-129904614D01*
G37*
%TD.AperFunction*%
%TA.AperFunction,Conductor*%
G36*
X154914660Y-128527564D02*
G01*
X154946870Y-128529868D01*
X154949611Y-128531630D01*
X154951983Y-128531906D01*
X154982179Y-128550178D01*
X154992563Y-128558696D01*
X154993369Y-128560521D01*
X155069479Y-128636631D01*
X155108664Y-128653932D01*
X155121743Y-128664661D01*
X155161090Y-128722398D01*
X155167100Y-128760533D01*
X155167100Y-128947314D01*
X155147415Y-129014353D01*
X155130781Y-129034995D01*
X155054173Y-129111602D01*
X155054170Y-129111607D01*
X155009941Y-129211776D01*
X155009941Y-129211778D01*
X155007100Y-129236264D01*
X155007100Y-129663735D01*
X155009941Y-129688221D01*
X155009941Y-129688223D01*
X155054170Y-129788392D01*
X155054173Y-129788397D01*
X155101379Y-129835603D01*
X155105716Y-129843547D01*
X155112965Y-129848973D01*
X155122201Y-129873735D01*
X155134864Y-129896926D01*
X155134218Y-129905954D01*
X155137382Y-129914437D01*
X155131765Y-129940256D01*
X155129880Y-129966618D01*
X155124060Y-129975672D01*
X155122530Y-129982710D01*
X155101380Y-130010965D01*
X155001562Y-130110782D01*
X154940242Y-130144266D01*
X154913883Y-130147100D01*
X154810375Y-130147100D01*
X154695185Y-130177964D01*
X154591913Y-130237590D01*
X154591910Y-130237592D01*
X154507592Y-130321910D01*
X154507590Y-130321913D01*
X154447964Y-130425185D01*
X154417100Y-130540375D01*
X154417100Y-130643882D01*
X154408456Y-130673318D01*
X154401933Y-130703308D01*
X154398177Y-130708325D01*
X154397415Y-130710921D01*
X154380782Y-130731563D01*
X154301565Y-130810781D01*
X154240242Y-130844266D01*
X154213883Y-130847100D01*
X152884400Y-130847100D01*
X152817361Y-130827415D01*
X152771606Y-130774611D01*
X152760400Y-130723100D01*
X152760400Y-130018616D01*
X152780085Y-129951577D01*
X152796719Y-129930935D01*
X153188435Y-129539219D01*
X153249758Y-129505734D01*
X153276116Y-129502900D01*
X153629692Y-129502900D01*
X153629694Y-129502901D01*
X153730304Y-129502901D01*
X153774485Y-129484600D01*
X153823256Y-129464399D01*
X153894398Y-129393257D01*
X153894398Y-129393255D01*
X153906311Y-129381343D01*
X153906316Y-129381335D01*
X154563255Y-128724398D01*
X154563257Y-128724398D01*
X154593061Y-128694593D01*
X154640185Y-128668863D01*
X154649559Y-128663743D01*
X154649223Y-128662507D01*
X154658218Y-128660059D01*
X154658221Y-128660059D01*
X154758396Y-128615828D01*
X154815855Y-128558369D01*
X154818355Y-128557003D01*
X154819832Y-128554564D01*
X154848845Y-128540354D01*
X154877178Y-128524884D01*
X154880019Y-128525087D01*
X154882581Y-128523833D01*
X154914660Y-128527564D01*
G37*
%TD.AperFunction*%
%TA.AperFunction,Conductor*%
G36*
X157886434Y-127693733D02*
G01*
X157942367Y-127735605D01*
X157966784Y-127801069D01*
X157967100Y-127809915D01*
X157967100Y-130565623D01*
X157947415Y-130632662D01*
X157894611Y-130678417D01*
X157893190Y-130679056D01*
X157881603Y-130684172D01*
X157804172Y-130761603D01*
X157803094Y-130763178D01*
X157800394Y-130765381D01*
X157797059Y-130768716D01*
X157794508Y-130774303D01*
X157770796Y-130789541D01*
X157748967Y-130807360D01*
X157740362Y-130809099D01*
X157735730Y-130812077D01*
X157700795Y-130817100D01*
X157639205Y-130817100D01*
X157572166Y-130797415D01*
X157536906Y-130763178D01*
X157535827Y-130761603D01*
X157458397Y-130684173D01*
X157458396Y-130684172D01*
X157458393Y-130684170D01*
X157458392Y-130684170D01*
X157358222Y-130639941D01*
X157333735Y-130637100D01*
X157333734Y-130637100D01*
X156906266Y-130637100D01*
X156906264Y-130637100D01*
X156881778Y-130639941D01*
X156881776Y-130639941D01*
X156781607Y-130684170D01*
X156781602Y-130684173D01*
X156704172Y-130761603D01*
X156703094Y-130763178D01*
X156700394Y-130765381D01*
X156697059Y-130768716D01*
X156694508Y-130774303D01*
X156670796Y-130789541D01*
X156648967Y-130807360D01*
X156640362Y-130809099D01*
X156635730Y-130812077D01*
X156600795Y-130817100D01*
X156539205Y-130817100D01*
X156472166Y-130797415D01*
X156436906Y-130763178D01*
X156435827Y-130761603D01*
X156358397Y-130684173D01*
X156358396Y-130684172D01*
X156358393Y-130684170D01*
X156358392Y-130684170D01*
X156258222Y-130639941D01*
X156233735Y-130637100D01*
X156233734Y-130637100D01*
X155806266Y-130637100D01*
X155806264Y-130637100D01*
X155781778Y-130639941D01*
X155781776Y-130639941D01*
X155681607Y-130684170D01*
X155681602Y-130684173D01*
X155604995Y-130760781D01*
X155578067Y-130775484D01*
X155552249Y-130792077D01*
X155546048Y-130792968D01*
X155543672Y-130794266D01*
X155517314Y-130797100D01*
X155446196Y-130797100D01*
X155379157Y-130777415D01*
X155333402Y-130724611D01*
X155324881Y-130667752D01*
X155322900Y-130667752D01*
X155322900Y-130556115D01*
X155342585Y-130489076D01*
X155359219Y-130468434D01*
X155427348Y-130400305D01*
X155583255Y-130244399D01*
X155583257Y-130244399D01*
X155654399Y-130173257D01*
X155669996Y-130135601D01*
X155692901Y-130080305D01*
X155692901Y-129979695D01*
X155692901Y-129969706D01*
X155692900Y-129969692D01*
X155692900Y-129969204D01*
X155712585Y-129902165D01*
X155746828Y-129866901D01*
X155748388Y-129865831D01*
X155748396Y-129865828D01*
X155825828Y-129788396D01*
X155870059Y-129688221D01*
X155872900Y-129663734D01*
X155872900Y-129236266D01*
X155870059Y-129211779D01*
X155825828Y-129111604D01*
X155748396Y-129034172D01*
X155748393Y-129034170D01*
X155748389Y-129034168D01*
X155746806Y-129033469D01*
X155744394Y-129031431D01*
X155738915Y-129027678D01*
X155739294Y-129027123D01*
X155732606Y-129021473D01*
X155715697Y-129013751D01*
X155706469Y-128999392D01*
X155693433Y-128988379D01*
X155687973Y-128970611D01*
X155677923Y-128954973D01*
X155673311Y-128922897D01*
X155672910Y-128921592D01*
X155672900Y-128920038D01*
X155672900Y-128760533D01*
X155692585Y-128693494D01*
X155745389Y-128647739D01*
X155746816Y-128647098D01*
X155770516Y-128636633D01*
X155770515Y-128636633D01*
X155770521Y-128636631D01*
X155846631Y-128560521D01*
X155846631Y-128560520D01*
X155854756Y-128552396D01*
X155857107Y-128554747D01*
X155896432Y-128522643D01*
X155944613Y-128512900D01*
X156809693Y-128512900D01*
X156809695Y-128512901D01*
X156910305Y-128512901D01*
X156954486Y-128494600D01*
X157003257Y-128474399D01*
X157074399Y-128403257D01*
X157074399Y-128403255D01*
X157086312Y-128391343D01*
X157086317Y-128391335D01*
X157755420Y-127722233D01*
X157816742Y-127688749D01*
X157886434Y-127693733D01*
G37*
%TD.AperFunction*%
%TA.AperFunction,Conductor*%
G36*
X149186484Y-124743684D02*
G01*
X149242417Y-124785556D01*
X149266834Y-124851020D01*
X149267150Y-124859866D01*
X149267150Y-125139445D01*
X149247465Y-125206484D01*
X149194661Y-125252239D01*
X149193237Y-125252879D01*
X149169478Y-125263369D01*
X149093369Y-125339478D01*
X149049893Y-125437940D01*
X149049893Y-125437942D01*
X149047100Y-125462014D01*
X149047100Y-125817985D01*
X149049893Y-125842057D01*
X149049893Y-125842059D01*
X149090433Y-125933871D01*
X149093369Y-125940521D01*
X149169479Y-126016631D01*
X149200364Y-126030268D01*
X149214627Y-126036566D01*
X149268003Y-126081652D01*
X149288530Y-126148439D01*
X149269691Y-126215721D01*
X149217468Y-126262137D01*
X149214627Y-126263434D01*
X149169478Y-126283369D01*
X149093369Y-126359478D01*
X149049893Y-126457940D01*
X149049893Y-126457942D01*
X149047100Y-126482014D01*
X149047100Y-126837985D01*
X149049893Y-126862057D01*
X149049893Y-126862059D01*
X149084078Y-126939479D01*
X149093369Y-126960521D01*
X149169479Y-127036631D01*
X149193183Y-127047097D01*
X149246559Y-127092180D01*
X149264646Y-127135989D01*
X149267099Y-127148137D01*
X149267099Y-127200305D01*
X149283047Y-127238806D01*
X149287650Y-127249920D01*
X149287651Y-127249922D01*
X149305600Y-127293256D01*
X149386947Y-127374603D01*
X149386957Y-127374611D01*
X149818281Y-127805935D01*
X149832984Y-127832862D01*
X149849577Y-127858681D01*
X149850468Y-127864881D01*
X149851766Y-127867258D01*
X149854600Y-127893616D01*
X149854600Y-128053787D01*
X149834915Y-128120826D01*
X149782111Y-128166581D01*
X149712953Y-128176525D01*
X149649397Y-128147500D01*
X149642919Y-128141468D01*
X149593566Y-128092115D01*
X149593564Y-128092113D01*
X149541927Y-128062300D01*
X149490291Y-128032487D01*
X149432696Y-128017055D01*
X149375102Y-128001623D01*
X149271593Y-128001623D01*
X149204554Y-127981938D01*
X149183912Y-127965304D01*
X149024543Y-127805935D01*
X148825355Y-127606746D01*
X148825354Y-127606743D01*
X148754212Y-127535601D01*
X148699761Y-127513047D01*
X148685581Y-127507173D01*
X148661262Y-127497099D01*
X148661260Y-127497099D01*
X148560650Y-127497099D01*
X148546216Y-127497099D01*
X148546208Y-127497100D01*
X147276116Y-127497100D01*
X147209077Y-127477415D01*
X147188435Y-127460781D01*
X145601040Y-125873386D01*
X145584400Y-125856746D01*
X145584399Y-125856743D01*
X145513257Y-125785601D01*
X145458806Y-125763047D01*
X145444626Y-125757173D01*
X145420307Y-125747099D01*
X145420305Y-125747099D01*
X145319695Y-125747099D01*
X145305261Y-125747099D01*
X145305253Y-125747100D01*
X144908369Y-125747100D01*
X144879241Y-125738547D01*
X144849543Y-125732258D01*
X144846046Y-125728799D01*
X144841330Y-125727415D01*
X144821455Y-125704478D01*
X144799866Y-125683126D01*
X144797834Y-125677219D01*
X144795575Y-125674611D01*
X144787350Y-125650126D01*
X144786502Y-125646331D01*
X144782957Y-125623945D01*
X144780369Y-125618865D01*
X144777033Y-125603927D01*
X144778962Y-125574682D01*
X144778124Y-125545385D01*
X144781236Y-125540223D01*
X144781633Y-125534208D01*
X144799068Y-125510648D01*
X144814201Y-125485550D01*
X144819610Y-125482889D01*
X144823196Y-125478045D01*
X144850595Y-125467653D01*
X144876900Y-125454718D01*
X144886985Y-125453851D01*
X144888524Y-125453268D01*
X144890040Y-125453589D01*
X144898052Y-125452901D01*
X144980639Y-125452901D01*
X144980655Y-125452900D01*
X147466953Y-125452900D01*
X147466957Y-125452901D01*
X147573043Y-125452901D01*
X147650445Y-125432160D01*
X147660155Y-125431141D01*
X147685297Y-125435742D01*
X147710853Y-125436350D01*
X147719094Y-125441927D01*
X147728883Y-125443719D01*
X147747547Y-125461184D01*
X147768717Y-125475511D01*
X147772634Y-125484658D01*
X147779901Y-125491458D01*
X147786159Y-125516240D01*
X147796223Y-125539739D01*
X147797100Y-125554463D01*
X147797100Y-125817985D01*
X147799893Y-125842057D01*
X147799893Y-125842059D01*
X147840433Y-125933871D01*
X147843369Y-125940521D01*
X147919479Y-126016631D01*
X148017943Y-126060107D01*
X148042016Y-126062900D01*
X148042017Y-126062900D01*
X148497983Y-126062900D01*
X148497984Y-126062900D01*
X148522057Y-126060107D01*
X148620521Y-126016631D01*
X148696631Y-125940521D01*
X148740107Y-125842057D01*
X148742900Y-125817984D01*
X148742900Y-125462016D01*
X148740107Y-125437943D01*
X148732177Y-125419984D01*
X148699856Y-125346784D01*
X148696631Y-125339479D01*
X148680084Y-125322932D01*
X148646599Y-125261609D01*
X148651583Y-125191917D01*
X148680084Y-125147570D01*
X149055469Y-124772185D01*
X149116792Y-124738700D01*
X149186484Y-124743684D01*
G37*
%TD.AperFunction*%
%TD*%
M02*
