%TF.GenerationSoftware,KiCad,Pcbnew,10.0.1*%
%TF.CreationDate,2026-08-19T11:15:23+02:00*%
%TF.ProjectId,pico2-expansion-card,7069636f-322d-4657-9870-616e73696f6e,v0.1.0p*%
%TF.SameCoordinates,Original*%
%TF.FileFunction,Copper,L1,Top*%
%TF.FilePolarity,Positive*%
%FSLAX46Y46*%
G04 Gerber Fmt 4.6, Leading zero omitted, Abs format (unit mm)*
G04 Created by KiCad (PCBNEW 10.0.1) date 2026-08-19 11:15:23*
%MOMM*%
%LPD*%
G01*
G04 APERTURE LIST*
G04 Aperture macros list*
%AMRoundRect*
0 Rectangle with rounded corners*
0 $1 Rounding radius*
0 $2 $3 $4 $5 $6 $7 $8 $9 X,Y pos of 4 corners*
0 Add a 4 corners polygon primitive as box body*
4,1,4,$2,$3,$4,$5,$6,$7,$8,$9,$2,$3,0*
0 Add four circle primitives for the rounded corners*
1,1,$1+$1,$2,$3*
1,1,$1+$1,$4,$5*
1,1,$1+$1,$6,$7*
1,1,$1+$1,$8,$9*
0 Add four rect primitives between the rounded corners*
20,1,$1+$1,$2,$3,$4,$5,0*
20,1,$1+$1,$4,$5,$6,$7,0*
20,1,$1+$1,$6,$7,$8,$9,0*
20,1,$1+$1,$8,$9,$2,$3,0*%
%AMFreePoly0*
4,1,18,-0.437500,0.050000,-0.433694,0.069134,-0.422855,0.085355,-0.406634,0.096194,-0.387500,0.100000,0.387500,0.100000,0.437500,0.050000,0.437500,-0.050000,0.433694,-0.069134,0.422855,-0.085355,0.406634,-0.096194,0.387500,-0.100000,-0.387500,-0.100000,-0.406634,-0.096194,-0.422855,-0.085355,-0.433694,-0.069134,-0.437500,-0.050000,-0.437500,0.050000,-0.437500,0.050000,$1*%
%AMFreePoly1*
4,1,18,-0.437500,0.050000,-0.433694,0.069134,-0.422855,0.085355,-0.406634,0.096194,-0.387500,0.100000,0.387500,0.100000,0.406634,0.096194,0.422855,0.085355,0.433694,0.069134,0.437500,0.050000,0.437500,-0.050000,0.387500,-0.100000,-0.387500,-0.100000,-0.406634,-0.096194,-0.422855,-0.085355,-0.433694,-0.069134,-0.437500,-0.050000,-0.437500,0.050000,-0.437500,0.050000,$1*%
%AMFreePoly2*
4,1,18,-0.100000,0.387500,-0.050000,0.437500,0.050000,0.437500,0.069134,0.433694,0.085355,0.422855,0.096194,0.406634,0.100000,0.387500,0.100000,-0.387500,0.096194,-0.406634,0.085355,-0.422855,0.069134,-0.433694,0.050000,-0.437500,-0.050000,-0.437500,-0.069134,-0.433694,-0.085355,-0.422855,-0.096194,-0.406634,-0.100000,-0.387500,-0.100000,0.387500,-0.100000,0.387500,$1*%
%AMFreePoly3*
4,1,18,-0.100000,0.387500,-0.096194,0.406634,-0.085355,0.422855,-0.069134,0.433694,-0.050000,0.437500,0.050000,0.437500,0.100000,0.387500,0.100000,-0.387500,0.096194,-0.406634,0.085355,-0.422855,0.069134,-0.433694,0.050000,-0.437500,-0.050000,-0.437500,-0.069134,-0.433694,-0.085355,-0.422855,-0.096194,-0.406634,-0.100000,-0.387500,-0.100000,0.387500,-0.100000,0.387500,$1*%
%AMFreePoly4*
4,1,18,-0.437500,0.050000,-0.433694,0.069134,-0.422855,0.085355,-0.406634,0.096194,-0.387500,0.100000,0.387500,0.100000,0.406634,0.096194,0.422855,0.085355,0.433694,0.069134,0.437500,0.050000,0.437500,-0.050000,0.433694,-0.069134,0.422855,-0.085355,0.406634,-0.096194,0.387500,-0.100000,-0.387500,-0.100000,-0.437500,-0.050000,-0.437500,0.050000,-0.437500,0.050000,$1*%
%AMFreePoly5*
4,1,18,-0.437500,0.050000,-0.387500,0.100000,0.387500,0.100000,0.406634,0.096194,0.422855,0.085355,0.433694,0.069134,0.437500,0.050000,0.437500,-0.050000,0.433694,-0.069134,0.422855,-0.085355,0.406634,-0.096194,0.387500,-0.100000,-0.387500,-0.100000,-0.406634,-0.096194,-0.422855,-0.085355,-0.433694,-0.069134,-0.437500,-0.050000,-0.437500,0.050000,-0.437500,0.050000,$1*%
%AMFreePoly6*
4,1,18,-0.100000,0.387500,-0.096194,0.406634,-0.085355,0.422855,-0.069134,0.433694,-0.050000,0.437500,0.050000,0.437500,0.069134,0.433694,0.085355,0.422855,0.096194,0.406634,0.100000,0.387500,0.100000,-0.387500,0.050000,-0.437500,-0.050000,-0.437500,-0.069134,-0.433694,-0.085355,-0.422855,-0.096194,-0.406634,-0.100000,-0.387500,-0.100000,0.387500,-0.100000,0.387500,$1*%
%AMFreePoly7*
4,1,18,-0.100000,0.387500,-0.096194,0.406634,-0.085355,0.422855,-0.069134,0.433694,-0.050000,0.437500,0.050000,0.437500,0.069134,0.433694,0.085355,0.422855,0.096194,0.406634,0.100000,0.387500,0.100000,-0.387500,0.096194,-0.406634,0.085355,-0.422855,0.069134,-0.433694,0.050000,-0.437500,-0.050000,-0.437500,-0.100000,-0.387500,-0.100000,0.387500,-0.100000,0.387500,$1*%
%AMFreePoly8*
4,1,8,0.524900,-0.650100,-0.125000,-0.650100,-0.125000,-0.000100,-0.525000,-0.000100,-0.525100,0.000000,-0.525100,0.649900,0.524900,0.649900,0.524900,-0.650100,0.524900,-0.650100,$1*%
%AMFreePoly9*
4,1,8,0.525200,0.000000,0.525100,-0.000100,0.125100,-0.000100,0.125100,-0.650100,-0.524800,-0.650100,-0.524800,0.649900,0.525200,0.649900,0.525200,0.000000,0.525200,0.000000,$1*%
G04 Aperture macros list end*
%TA.AperFunction,SMDPad,CuDef*%
%ADD10C,1.000000*%
%TD*%
%TA.AperFunction,SMDPad,CuDef*%
%ADD11RoundRect,0.140000X-0.140000X-0.170000X0.140000X-0.170000X0.140000X0.170000X-0.140000X0.170000X0*%
%TD*%
%TA.AperFunction,SMDPad,CuDef*%
%ADD12RoundRect,0.140000X0.140000X0.170000X-0.140000X0.170000X-0.140000X-0.170000X0.140000X-0.170000X0*%
%TD*%
%TA.AperFunction,SMDPad,CuDef*%
%ADD13RoundRect,0.135000X-0.185000X0.135000X-0.185000X-0.135000X0.185000X-0.135000X0.185000X0.135000X0*%
%TD*%
%TA.AperFunction,SMDPad,CuDef*%
%ADD14R,0.470000X0.530000*%
%TD*%
%TA.AperFunction,SMDPad,CuDef*%
%ADD15FreePoly0,0.000000*%
%TD*%
%TA.AperFunction,SMDPad,CuDef*%
%ADD16RoundRect,0.050000X-0.387500X-0.050000X0.387500X-0.050000X0.387500X0.050000X-0.387500X0.050000X0*%
%TD*%
%TA.AperFunction,SMDPad,CuDef*%
%ADD17FreePoly1,0.000000*%
%TD*%
%TA.AperFunction,SMDPad,CuDef*%
%ADD18FreePoly2,0.000000*%
%TD*%
%TA.AperFunction,SMDPad,CuDef*%
%ADD19RoundRect,0.050000X-0.050000X-0.387500X0.050000X-0.387500X0.050000X0.387500X-0.050000X0.387500X0*%
%TD*%
%TA.AperFunction,SMDPad,CuDef*%
%ADD20FreePoly3,0.000000*%
%TD*%
%TA.AperFunction,SMDPad,CuDef*%
%ADD21FreePoly4,0.000000*%
%TD*%
%TA.AperFunction,SMDPad,CuDef*%
%ADD22FreePoly5,0.000000*%
%TD*%
%TA.AperFunction,SMDPad,CuDef*%
%ADD23FreePoly6,0.000000*%
%TD*%
%TA.AperFunction,SMDPad,CuDef*%
%ADD24FreePoly7,0.000000*%
%TD*%
%TA.AperFunction,ComponentPad*%
%ADD25C,0.600000*%
%TD*%
%TA.AperFunction,SMDPad,CuDef*%
%ADD26RoundRect,0.153000X1.547000X-1.547000X1.547000X1.547000X-1.547000X1.547000X-1.547000X-1.547000X0*%
%TD*%
%TA.AperFunction,SMDPad,CuDef*%
%ADD27RoundRect,0.135000X0.185000X-0.135000X0.185000X0.135000X-0.185000X0.135000X-0.185000X-0.135000X0*%
%TD*%
%TA.AperFunction,SMDPad,CuDef*%
%ADD28RoundRect,0.250000X0.450000X0.350000X-0.450000X0.350000X-0.450000X-0.350000X0.450000X-0.350000X0*%
%TD*%
%TA.AperFunction,SMDPad,CuDef*%
%ADD29RoundRect,0.135000X0.135000X0.185000X-0.135000X0.185000X-0.135000X-0.185000X0.135000X-0.185000X0*%
%TD*%
%TA.AperFunction,SMDPad,CuDef*%
%ADD30RoundRect,0.135000X-0.135000X-0.185000X0.135000X-0.185000X0.135000X0.185000X-0.135000X0.185000X0*%
%TD*%
%TA.AperFunction,SMDPad,CuDef*%
%ADD31RoundRect,0.250000X0.475000X-0.250000X0.475000X0.250000X-0.475000X0.250000X-0.475000X-0.250000X0*%
%TD*%
%TA.AperFunction,SMDPad,CuDef*%
%ADD32RoundRect,0.150000X-0.150000X-0.625000X0.150000X-0.625000X0.150000X0.625000X-0.150000X0.625000X0*%
%TD*%
%TA.AperFunction,SMDPad,CuDef*%
%ADD33RoundRect,0.250000X-0.350000X-0.650000X0.350000X-0.650000X0.350000X0.650000X-0.350000X0.650000X0*%
%TD*%
%TA.AperFunction,SMDPad,CuDef*%
%ADD34RoundRect,0.087500X-0.087500X0.250000X-0.087500X-0.250000X0.087500X-0.250000X0.087500X0.250000X0*%
%TD*%
%TA.AperFunction,SMDPad,CuDef*%
%ADD35RoundRect,0.140000X-0.170000X0.140000X-0.170000X-0.140000X0.170000X-0.140000X0.170000X0.140000X0*%
%TD*%
%TA.AperFunction,SMDPad,CuDef*%
%ADD36RoundRect,0.140000X0.170000X-0.140000X0.170000X0.140000X-0.170000X0.140000X-0.170000X-0.140000X0*%
%TD*%
%TA.AperFunction,SMDPad,CuDef*%
%ADD37RoundRect,0.087500X0.087500X-0.250000X0.087500X0.250000X-0.087500X0.250000X-0.087500X-0.250000X0*%
%TD*%
%TA.AperFunction,SMDPad,CuDef*%
%ADD38R,0.600000X1.200000*%
%TD*%
%TA.AperFunction,SMDPad,CuDef*%
%ADD39FreePoly8,180.000000*%
%TD*%
%TA.AperFunction,SMDPad,CuDef*%
%ADD40FreePoly9,180.000000*%
%TD*%
%TA.AperFunction,SMDPad,CuDef*%
%ADD41RoundRect,0.250000X-0.475000X0.250000X-0.475000X-0.250000X0.475000X-0.250000X0.475000X0.250000X0*%
%TD*%
%TA.AperFunction,SMDPad,CuDef*%
%ADD42RoundRect,0.250000X0.250000X0.475000X-0.250000X0.475000X-0.250000X-0.475000X0.250000X-0.475000X0*%
%TD*%
%TA.AperFunction,SMDPad,CuDef*%
%ADD43R,0.500000X2.000000*%
%TD*%
%TA.AperFunction,SMDPad,CuDef*%
%ADD44R,1.500000X1.200000*%
%TD*%
%TA.AperFunction,SMDPad,CuDef*%
%ADD45R,1.200000X1.200000*%
%TD*%
%TA.AperFunction,SMDPad,CuDef*%
%ADD46R,0.250000X1.800000*%
%TD*%
%TA.AperFunction,SMDPad,CuDef*%
%ADD47R,1.000000X1.600000*%
%TD*%
%TA.AperFunction,SMDPad,CuDef*%
%ADD48RoundRect,0.150000X-0.150000X0.512500X-0.150000X-0.512500X0.150000X-0.512500X0.150000X0.512500X0*%
%TD*%
%TA.AperFunction,ViaPad*%
%ADD49C,0.600000*%
%TD*%
%TA.AperFunction,Conductor*%
%ADD50C,0.200000*%
%TD*%
%TA.AperFunction,Conductor*%
%ADD51C,0.127000*%
%TD*%
%TA.AperFunction,Conductor*%
%ADD52C,0.300000*%
%TD*%
%TA.AperFunction,Conductor*%
%ADD53C,0.500000*%
%TD*%
G04 APERTURE END LIST*
D10*
%TO.P,4,1,1_1*%
%TO.N,/SWDIO*%
X115387500Y-62125000D03*
%TD*%
D11*
%TO.P,C16,1*%
%TO.N,Net-(C16-Pad1)*%
X93457500Y-77075000D03*
%TO.P,C16,2*%
%TO.N,GND*%
X94417500Y-77075000D03*
%TD*%
D12*
%TO.P,C17,1*%
%TO.N,+1V1*%
X99967500Y-73125000D03*
%TO.P,C17,2*%
%TO.N,GND*%
X99007500Y-73125000D03*
%TD*%
D13*
%TO.P,R2,1*%
%TO.N,/USB_D+*%
X104687500Y-65615000D03*
%TO.P,R2,2*%
%TO.N,Net-(U2-USB_DP)*%
X104687500Y-66635000D03*
%TD*%
D14*
%TO.P,C3,1*%
%TO.N,+1V1*%
X107572500Y-67225000D03*
%TO.P,C3,2*%
%TO.N,GND*%
X108602500Y-67225000D03*
%TD*%
D15*
%TO.P,U2,1,IOVDD_1*%
%TO.N,+3.3V*%
X101437500Y-71075000D03*
D16*
%TO.P,U2,2,GPIO0_2*%
%TO.N,/GPIO0*%
X101437500Y-71475000D03*
%TO.P,U2,3,GPIO1_3*%
%TO.N,/GPIO1*%
X101437500Y-71875000D03*
%TO.P,U2,4,GPIO2_4*%
%TO.N,/GPIO2*%
X101437500Y-72275000D03*
%TO.P,U2,5,GPIO3_5*%
%TO.N,/GPIO3*%
X101437500Y-72675000D03*
%TO.P,U2,6,DVDD_6*%
%TO.N,+1V1*%
X101437500Y-73075000D03*
%TO.P,U2,7,GPIO4_7*%
%TO.N,/GPIO4*%
X101437500Y-73475000D03*
%TO.P,U2,8,GPIO5_8*%
%TO.N,/GPIO5*%
X101437500Y-73875000D03*
%TO.P,U2,9,GPIO6_9*%
%TO.N,/GPIO6*%
X101437500Y-74275000D03*
%TO.P,U2,10,GPIO7_10*%
%TO.N,/GPIO7*%
X101437500Y-74675000D03*
%TO.P,U2,11,IOVDD_11*%
%TO.N,+3.3V*%
X101437500Y-75075000D03*
%TO.P,U2,12,GPIO8_12*%
%TO.N,/GPIO8*%
X101437500Y-75475000D03*
%TO.P,U2,13,GPIO9_13*%
%TO.N,/GPIO9*%
X101437500Y-75875000D03*
%TO.P,U2,14,GPIO10_14*%
%TO.N,/GPIO10*%
X101437500Y-76275000D03*
D17*
%TO.P,U2,15,GPIO11_15*%
%TO.N,/GPIO11*%
X101437500Y-76675000D03*
D18*
%TO.P,U2,16,GPIO12_16*%
%TO.N,/GPIO12*%
X102075000Y-77312500D03*
D19*
%TO.P,U2,17,GPIO13_17*%
%TO.N,/GPIO13*%
X102475000Y-77312500D03*
%TO.P,U2,18,GPIO14_18*%
%TO.N,/GPIO14*%
X102875000Y-77312500D03*
%TO.P,U2,19,GPIO15_19*%
%TO.N,/GPIO15*%
X103275000Y-77312500D03*
%TO.P,U2,20,IOVDD_20*%
%TO.N,+3.3V*%
X103675000Y-77312500D03*
%TO.P,U2,21,XIN_21*%
%TO.N,/XIN*%
X104075000Y-77312500D03*
%TO.P,U2,22,XOUT_22*%
%TO.N,/XOUT*%
X104475000Y-77312500D03*
%TO.P,U2,23,DVDD_23*%
%TO.N,+1V1*%
X104875000Y-77312500D03*
%TO.P,U2,24,SWCLK_24*%
%TO.N,/SWCLK*%
X105275000Y-77312500D03*
%TO.P,U2,25,SWDIO_25*%
%TO.N,/SWDIO*%
X105675000Y-77312500D03*
%TO.P,U2,26,RUN_26*%
%TO.N,/nRST*%
X106075000Y-77312500D03*
%TO.P,U2,27,GPIO16_27*%
%TO.N,/GPIO16{slash}TX*%
X106475000Y-77312500D03*
%TO.P,U2,28,GPIO17_28*%
%TO.N,/GPIO17{slash}RX*%
X106875000Y-77312500D03*
%TO.P,U2,29,GPIO18_29*%
%TO.N,/GPIO18*%
X107275000Y-77312500D03*
D20*
%TO.P,U2,30,IOVDD_30*%
%TO.N,+3.3V*%
X107675000Y-77312500D03*
D21*
%TO.P,U2,31,GPIO19_31*%
%TO.N,/GPIO19*%
X108312500Y-76675000D03*
D16*
%TO.P,U2,32,GPIO20_32*%
%TO.N,/GPIO20*%
X108312500Y-76275000D03*
%TO.P,U2,33,GPIO21_33*%
%TO.N,/GPIO21*%
X108312500Y-75875000D03*
%TO.P,U2,34,GPIO22_34*%
%TO.N,/GPIO22*%
X108312500Y-75475000D03*
%TO.P,U2,35,GPIO23_35*%
%TO.N,/GPIO23*%
X108312500Y-75075000D03*
%TO.P,U2,36,GPIO24_36*%
%TO.N,/GPIO24*%
X108312500Y-74675000D03*
%TO.P,U2,37,GPIO25_37*%
%TO.N,/GPIO25*%
X108312500Y-74275000D03*
%TO.P,U2,38,IOVDD_38*%
%TO.N,+3.3V*%
X108312500Y-73875000D03*
%TO.P,U2,39,DVDD_39*%
%TO.N,+1V1*%
X108312500Y-73475000D03*
%TO.P,U2,40,GPIO26/ADC0_40*%
%TO.N,/GPIO26{slash}SDA*%
X108312500Y-73075000D03*
%TO.P,U2,41,GPIO27/ADC1_41*%
%TO.N,/GPIO27{slash}SCL*%
X108312500Y-72675000D03*
%TO.P,U2,42,GPIO28/ADC2_42*%
%TO.N,/GPIO28_ADC2*%
X108312500Y-72275000D03*
%TO.P,U2,43,GPIO29/ADC3_43*%
%TO.N,/GPIO29_ADC3*%
X108312500Y-71875000D03*
%TO.P,U2,44,ADC_AVDD_44*%
%TO.N,+3.3V*%
X108312500Y-71475000D03*
D22*
%TO.P,U2,45,IOVDD_45*%
X108312500Y-71075000D03*
D23*
%TO.P,U2,46,VREG_AVDD_46*%
%TO.N,/VREG_AVDD*%
X107675000Y-70437500D03*
D19*
%TO.P,U2,47,VREG_PGND_47*%
%TO.N,GND*%
X107275000Y-70437500D03*
%TO.P,U2,48,VREG_LX_48*%
%TO.N,/VREG_LX*%
X106875000Y-70437500D03*
%TO.P,U2,49,VREG_VIN_49*%
%TO.N,+3.3V*%
X106475000Y-70437500D03*
%TO.P,U2,50,VREG_FB_50*%
%TO.N,+1V1*%
X106075000Y-70437500D03*
%TO.P,U2,51,USB_DM_51*%
%TO.N,Net-(U2-USB_DM)*%
X105675000Y-70437500D03*
%TO.P,U2,52,USB_DP_52*%
%TO.N,Net-(U2-USB_DP)*%
X105275000Y-70437500D03*
%TO.P,U2,53,USB_OTP_VDD_53*%
%TO.N,+3.3V*%
X104875000Y-70437500D03*
%TO.P,U2,54,QSPI_IOVDD_54*%
X104475000Y-70437500D03*
%TO.P,U2,55,QSPI_SD3_55*%
%TO.N,unconnected-(U2-QSPI_SD3-Pad55)*%
X104075000Y-70437500D03*
%TO.P,U2,56,QSPI_SCLK_56*%
%TO.N,unconnected-(U2-QSPI_SCLK-Pad56)*%
X103675000Y-70437500D03*
%TO.P,U2,57,QSPI_SD0_57*%
%TO.N,unconnected-(U2-QSPI_SD0-Pad57)*%
X103275000Y-70437500D03*
%TO.P,U2,58,QSPI_SD2_58*%
%TO.N,unconnected-(U2-QSPI_SD2-Pad58)*%
X102875000Y-70437500D03*
%TO.P,U2,59,QSPI_SD1_59*%
%TO.N,unconnected-(U2-QSPI_SD1-Pad59)*%
X102475000Y-70437500D03*
D24*
%TO.P,U2,60,~{QSPI_SS}_60*%
%TO.N,/~{USB_BOOT}*%
X102075000Y-70437500D03*
D25*
%TO.P,U2,61,GND_61*%
%TO.N,GND*%
X103500000Y-72500000D03*
X103500000Y-73875000D03*
X103500000Y-75250000D03*
X104875000Y-72500000D03*
X104875000Y-73875000D03*
D26*
X104875000Y-73875000D03*
D25*
X104875000Y-75250000D03*
X106250000Y-72500000D03*
X106250000Y-73875000D03*
X106250000Y-75250000D03*
%TD*%
D11*
%TO.P,C23,1*%
%TO.N,GND*%
X102207500Y-78525000D03*
%TO.P,C23,2*%
%TO.N,+3.3V*%
X103167500Y-78525000D03*
%TD*%
D10*
%TO.P,1,1,1_1*%
%TO.N,GND*%
X112487500Y-59825000D03*
%TD*%
D27*
%TO.P,R1,1*%
%TO.N,+3.3V*%
X110587500Y-68235000D03*
%TO.P,R1,2*%
%TO.N,/VREG_AVDD*%
X110587500Y-67215000D03*
%TD*%
D28*
%TO.P,Y1,1,1_1*%
%TO.N,/XIN*%
X95637500Y-73775000D03*
%TO.P,Y1,2,2_2*%
%TO.N,GND*%
X93437500Y-73775000D03*
%TO.P,Y1,3,3_3*%
%TO.N,Net-(C16-Pad1)*%
X93437500Y-75475000D03*
%TO.P,Y1,4,4_4*%
%TO.N,GND*%
X95637500Y-75475000D03*
%TD*%
D29*
%TO.P,R15,1*%
%TO.N,/~{USB_BOOT}*%
X100907500Y-69125000D03*
%TO.P,R15,2*%
%TO.N,Net-(Q2B-D)*%
X99887500Y-69125000D03*
%TD*%
D30*
%TO.P,R6,1*%
%TO.N,+3.3V*%
X113090000Y-79600000D03*
%TO.P,R6,2*%
%TO.N,/GPIO26{slash}SDA*%
X114110000Y-79600000D03*
%TD*%
D31*
%TO.P,C2,1*%
%TO.N,+3.3V*%
X113000000Y-66750000D03*
%TO.P,C2,2*%
%TO.N,GND*%
X113000000Y-64850000D03*
%TD*%
D10*
%TO.P,2,1,1_1*%
%TO.N,+3.3V*%
X115387500Y-59825000D03*
%TD*%
D32*
%TO.P,J3,1,Pin_1_1*%
%TO.N,/GPIO16{slash}TX*%
X105197500Y-82525000D03*
%TO.P,J3,2,Pin_2_2*%
%TO.N,GND*%
X106197500Y-82525000D03*
%TO.P,J3,3,Pin_3_3*%
%TO.N,/GPIO17{slash}RX*%
X107197500Y-82525000D03*
D33*
%TO.P,J3,MP*%
%TO.N,N/C*%
X103897500Y-86400000D03*
X108497500Y-86400000D03*
%TD*%
D34*
%TO.P,Q2,1,S_1*%
%TO.N,GND*%
X98487500Y-81125000D03*
%TO.P,Q2,2,G_2*%
%TO.N,Net-(Q1A-D)*%
X97987500Y-81125000D03*
%TO.P,Q2,3,D_3*%
%TO.N,Net-(Q2B-D)*%
X97487500Y-81125000D03*
%TO.P,Q2,4,S_4*%
%TO.N,GND*%
X97487500Y-82550000D03*
%TO.P,Q2,5,G_5*%
%TO.N,Net-(Q2B-G)*%
X97987500Y-82550000D03*
%TO.P,Q2,6,D_6*%
%TO.N,/nRST*%
X98487500Y-82550000D03*
%TD*%
D35*
%TO.P,C20,1*%
%TO.N,+1V1*%
X105087500Y-78545000D03*
%TO.P,C20,2*%
%TO.N,GND*%
X105087500Y-79505000D03*
%TD*%
D36*
%TO.P,C10,1*%
%TO.N,GND*%
X109600000Y-75680000D03*
%TO.P,C10,2*%
%TO.N,+3.3V*%
X109600000Y-74720000D03*
%TD*%
D12*
%TO.P,C15,1*%
%TO.N,/XIN*%
X95667500Y-72375000D03*
%TO.P,C15,2*%
%TO.N,GND*%
X94707500Y-72375000D03*
%TD*%
D36*
%TO.P,C5,1*%
%TO.N,/VREG_AVDD*%
X109587500Y-68205000D03*
%TO.P,C5,2*%
%TO.N,GND*%
X109587500Y-67245000D03*
%TD*%
D11*
%TO.P,C22,1*%
%TO.N,+1V1*%
X109807500Y-73725000D03*
%TO.P,C22,2*%
%TO.N,GND*%
X110767500Y-73725000D03*
%TD*%
D13*
%TO.P,R4,1*%
%TO.N,Net-(P1-CC)*%
X103437500Y-65615000D03*
%TO.P,R4,2*%
%TO.N,GND*%
X103437500Y-66635000D03*
%TD*%
D10*
%TO.P,3,1,1_1*%
%TO.N,/SWCLK*%
X112487500Y-62125000D03*
%TD*%
D30*
%TO.P,R14,1*%
%TO.N,Net-(Q2B-G)*%
X100977500Y-85925000D03*
%TO.P,R14,2*%
%TO.N,Net-(R11-Pad1)*%
X101997500Y-85925000D03*
%TD*%
D37*
%TO.P,Q1,1,S_1*%
%TO.N,GND*%
X93187500Y-82150000D03*
%TO.P,Q1,2,G_2*%
%TO.N,/SWITCH*%
X93687500Y-82150000D03*
%TO.P,Q1,3,D_3*%
%TO.N,Net-(Q1B-D)*%
X94187500Y-82150000D03*
%TO.P,Q1,4,S_4*%
%TO.N,Net-(Q1A-D)*%
X94187500Y-80725000D03*
%TO.P,Q1,5,G_5*%
X93687500Y-80725000D03*
%TO.P,Q1,6,D_6*%
X93187500Y-80725000D03*
%TD*%
D29*
%TO.P,R9,1*%
%TO.N,+3.3V*%
X116310000Y-79600000D03*
%TO.P,R9,2*%
%TO.N,/GPIO27{slash}SCL*%
X115290000Y-79600000D03*
%TD*%
D13*
%TO.P,R13,1*%
%TO.N,Net-(Q1B-D)*%
X99687500Y-83725000D03*
%TO.P,R13,2*%
%TO.N,Net-(Q2B-G)*%
X99687500Y-84745000D03*
%TD*%
D11*
%TO.P,C14,1*%
%TO.N,GND*%
X98907500Y-75125000D03*
%TO.P,C14,2*%
%TO.N,+3.3V*%
X99867500Y-75125000D03*
%TD*%
D13*
%TO.P,R3,1*%
%TO.N,/USB_D-*%
X105687500Y-65615000D03*
%TO.P,R3,2*%
%TO.N,Net-(U2-USB_DM)*%
X105687500Y-66635000D03*
%TD*%
D35*
%TO.P,C13,1*%
%TO.N,GND*%
X99987500Y-70145000D03*
%TO.P,C13,2*%
%TO.N,+3.3V*%
X99987500Y-71105000D03*
%TD*%
D36*
%TO.P,C9,1*%
%TO.N,GND*%
X110000000Y-72005000D03*
%TO.P,C9,2*%
%TO.N,+3.3V*%
X110000000Y-71045000D03*
%TD*%
D29*
%TO.P,R7,1*%
%TO.N,+3.3V*%
X94197500Y-79425000D03*
%TO.P,R7,2*%
%TO.N,Net-(Q1A-D)*%
X93177500Y-79425000D03*
%TD*%
%TO.P,R11,1*%
%TO.N,Net-(R11-Pad1)*%
X101997500Y-87025000D03*
%TO.P,R11,2*%
%TO.N,GND*%
X100977500Y-87025000D03*
%TD*%
D36*
%TO.P,C11,1*%
%TO.N,GND*%
X111000000Y-72005000D03*
%TO.P,C11,2*%
%TO.N,+3.3V*%
X111000000Y-71045000D03*
%TD*%
D38*
%TO.P,SW1,1,1_1*%
%TO.N,GND*%
X97012500Y-85025000D03*
%TO.P,SW1,2,2_2*%
%TO.N,/SWITCH*%
X93612500Y-85025000D03*
D39*
%TO.P,SW1,3*%
%TO.N,N/C*%
X93187500Y-86975000D03*
D40*
%TO.P,SW1,4*%
X97437500Y-86975000D03*
%TD*%
D36*
%TO.P,C12,1*%
%TO.N,GND*%
X103400000Y-68680000D03*
%TO.P,C12,2*%
%TO.N,+3.3V*%
X103400000Y-67720000D03*
%TD*%
D11*
%TO.P,C24,1*%
%TO.N,Net-(Q2B-G)*%
X100987500Y-83575000D03*
%TO.P,C24,2*%
%TO.N,GND*%
X101947500Y-83575000D03*
%TD*%
D41*
%TO.P,C21,1*%
%TO.N,+3.3V*%
X99087500Y-65975000D03*
%TO.P,C21,2*%
%TO.N,GND*%
X99087500Y-67875000D03*
%TD*%
D27*
%TO.P,R5,1*%
%TO.N,+3.3V*%
X95687500Y-79435000D03*
%TO.P,R5,2*%
%TO.N,/SWITCH*%
X95687500Y-78415000D03*
%TD*%
D42*
%TO.P,C19,1*%
%TO.N,VBUS*%
X97237500Y-61025000D03*
%TO.P,C19,2*%
%TO.N,GND*%
X95337500Y-61025000D03*
%TD*%
D43*
%TO.P,P1,2,LATCH_2*%
%TO.N,unconnected-(P1-LATCH-Pad2)*%
X101537450Y-62718400D03*
D44*
%TO.P,P1,3,GND_3*%
%TO.N,GND*%
X100387550Y-60918300D03*
%TO.P,P1,4*%
%TO.N,N/C*%
X100387550Y-58318400D03*
%TO.P,P1,5*%
X109487450Y-58318400D03*
%TO.P,P1,6*%
X109487450Y-60918300D03*
D45*
%TO.P,P1,7*%
X106437350Y-60068500D03*
%TO.P,P1,8*%
X103437350Y-60068500D03*
%TO.P,P1,9*%
X103137450Y-58318400D03*
%TO.P,P1,10*%
X106737550Y-58318400D03*
D46*
%TO.P,P1,A1,GND_A1*%
%TO.N,GND*%
X102187450Y-62818500D03*
%TO.P,P1,A4,VBUS_A4*%
%TO.N,VBUS*%
X103687550Y-62818500D03*
%TO.P,P1,A5,CC_A5*%
%TO.N,Net-(P1-CC)*%
X104187650Y-62818500D03*
%TO.P,P1,A6,D+_A6*%
%TO.N,/USB_D+*%
X104687550Y-62818500D03*
%TO.P,P1,A7,D-_A7*%
%TO.N,/USB_D-*%
X105187650Y-62818500D03*
%TO.P,P1,A10,RX2-_A10*%
%TO.N,unconnected-(P1-RX2--PadA10)*%
X106687550Y-62818500D03*
%TO.P,P1,A11,RX2+_A11*%
%TO.N,unconnected-(P1-RX2+-PadA11)*%
X107187450Y-62818500D03*
D43*
%TO.P,P1,B1*%
%TO.N,N/C*%
X108337550Y-62718400D03*
D46*
%TO.P,P1,B2,TX2+_B2*%
%TO.N,unconnected-(P1-TX2+-PadB2)*%
X107687550Y-62818500D03*
%TO.P,P1,B3,TX2-_B3*%
%TO.N,unconnected-(P1-TX2--PadB3)*%
X106187450Y-62818500D03*
%TO.P,P1,B5,VCONN_B5*%
%TO.N,unconnected-(P1-VCONN-PadB5)*%
X105687550Y-62818500D03*
%TO.P,P1,B9,VBUS_B9*%
%TO.N,VBUS*%
X103187450Y-62818500D03*
%TO.P,P1,B12,GND_B12*%
%TO.N,GND*%
X102687550Y-62818500D03*
%TD*%
D29*
%TO.P,R8,1*%
%TO.N,/XOUT*%
X102797500Y-79975000D03*
%TO.P,R8,2*%
%TO.N,Net-(C16-Pad1)*%
X101777500Y-79975000D03*
%TD*%
D47*
%TO.P,L1,1,1_1*%
%TO.N,+1V1*%
X107087500Y-65525000D03*
%TO.P,L1,2,2_2*%
%TO.N,/VREG_LX*%
X109087500Y-65525000D03*
%TD*%
D48*
%TO.P,U4,1,VIN_1*%
%TO.N,VBUS*%
X97237500Y-63287500D03*
%TO.P,U4,2,GND_2*%
%TO.N,GND*%
X96287500Y-63287500D03*
%TO.P,U4,3,EN_3*%
%TO.N,VBUS*%
X95337500Y-63287500D03*
%TO.P,U4,4,NC_4*%
%TO.N,unconnected-(U4-NC-Pad4)*%
X95337500Y-65562500D03*
%TO.P,U4,5,VOUT_5*%
%TO.N,+3.3V*%
X97237500Y-65562500D03*
%TD*%
D14*
%TO.P,C1,1*%
%TO.N,+3.3V*%
X107572500Y-68325000D03*
%TO.P,C1,2*%
%TO.N,GND*%
X108602500Y-68325000D03*
%TD*%
D12*
%TO.P,C8,1*%
%TO.N,GND*%
X111567500Y-69425000D03*
%TO.P,C8,2*%
%TO.N,+3.3V*%
X110607500Y-69425000D03*
%TD*%
D11*
%TO.P,C6,1*%
%TO.N,Net-(Q2B-G)*%
X100987500Y-84675000D03*
%TO.P,C6,2*%
%TO.N,GND*%
X101947500Y-84675000D03*
%TD*%
D13*
%TO.P,R12,1*%
%TO.N,+3.3V*%
X100387500Y-81515000D03*
%TO.P,R12,2*%
%TO.N,/nRST*%
X100387500Y-82535000D03*
%TD*%
D36*
%TO.P,C18,1*%
%TO.N,GND*%
X110600000Y-75705000D03*
%TO.P,C18,2*%
%TO.N,+3.3V*%
X110600000Y-74745000D03*
%TD*%
D32*
%TO.P,J4,1,Pin_1_1*%
%TO.N,GND*%
X112237500Y-82525000D03*
%TO.P,J4,2,Pin_2_2*%
%TO.N,+3.3V*%
X113237500Y-82525000D03*
%TO.P,J4,3,Pin_3_3*%
%TO.N,/GPIO26{slash}SDA*%
X114237500Y-82525000D03*
%TO.P,J4,4,Pin_4_4*%
%TO.N,/GPIO27{slash}SCL*%
X115237500Y-82525000D03*
D33*
%TO.P,J4,MP*%
%TO.N,N/C*%
X110937500Y-86400000D03*
X116537500Y-86400000D03*
%TD*%
D49*
%TO.N,GND*%
X98687500Y-85525000D03*
X106287500Y-67525000D03*
X106367500Y-83775000D03*
X111600000Y-72000000D03*
X96787500Y-77025000D03*
X101400000Y-65800000D03*
X92787500Y-83325000D03*
X94387500Y-59225000D03*
X101200000Y-68000000D03*
X111800000Y-68400000D03*
X109700000Y-69300000D03*
X111400000Y-73800000D03*
X99587500Y-77125000D03*
X98600000Y-70400000D03*
X96600000Y-68200000D03*
X116087500Y-65625000D03*
X107275000Y-71400000D03*
X99887500Y-62725000D03*
X107787500Y-79925000D03*
X95787500Y-82725000D03*
X96587500Y-80325000D03*
X102200000Y-64200000D03*
X110687500Y-66225000D03*
X111387500Y-64525000D03*
X109387500Y-77625000D03*
X113200000Y-71000000D03*
X98687500Y-59725000D03*
X110287500Y-79025000D03*
X100987500Y-80825000D03*
X102587500Y-72125000D03*
X99387500Y-81725000D03*
X98587500Y-64825000D03*
X116800000Y-73200000D03*
%TO.N,+1V1*%
X104885693Y-76541417D03*
X102218917Y-73050259D03*
X106123009Y-71373302D03*
X107287500Y-73525000D03*
%TO.N,+3.3V*%
X104482977Y-68429523D03*
X102854430Y-75958070D03*
X102187500Y-81525000D03*
X109600000Y-70200000D03*
X111600000Y-74800000D03*
X112400000Y-72000000D03*
X106980000Y-68917500D03*
X107675000Y-78412500D03*
%TO.N,/SWCLK*%
X112487500Y-63425000D03*
X106487500Y-76025000D03*
%TO.N,/SWDIO*%
X107287500Y-76025000D03*
X115387500Y-63425000D03*
%TO.N,Net-(Q2B-D)*%
X98206250Y-69606250D03*
X97487500Y-80125000D03*
%TD*%
%TO.N,Net-(C16-Pad1)*%
D50*
X93457500Y-77075000D02*
X93457500Y-77395000D01*
X99521814Y-79975000D02*
X101777500Y-79975000D01*
X97271814Y-77725000D02*
X99521814Y-79975000D01*
X93457500Y-77395000D02*
X93787500Y-77725000D01*
X93437500Y-75475000D02*
X93437500Y-77055000D01*
X93437500Y-77055000D02*
X93457500Y-77075000D01*
X93787500Y-77725000D02*
X97271814Y-77725000D01*
%TO.N,GND*%
X111400000Y-73800000D02*
X110842500Y-73800000D01*
X95267500Y-75555000D02*
X95237500Y-75525000D01*
D51*
X107275000Y-71400000D02*
X107275000Y-70437500D01*
X102200000Y-64200000D02*
X102187450Y-64187450D01*
X102187450Y-64187450D02*
X102187450Y-62818500D01*
X102687550Y-63712450D02*
X102200000Y-64200000D01*
X102687550Y-62818500D02*
X102687550Y-63712450D01*
X110842500Y-73800000D02*
X110767500Y-73725000D01*
%TO.N,+1V1*%
D50*
X109807500Y-73725000D02*
X109557500Y-73475000D01*
X108325000Y-73475000D02*
X107337500Y-73475000D01*
X107087500Y-66740000D02*
X107572500Y-67225000D01*
X107337500Y-73475000D02*
X107287500Y-73525000D01*
X102194176Y-73075000D02*
X102218917Y-73050259D01*
X106075000Y-68722500D02*
X107572500Y-67225000D01*
X106071311Y-71180990D02*
X106075000Y-71177301D01*
X109557500Y-73475000D02*
X108312500Y-73475000D01*
X104875000Y-77312500D02*
X104875000Y-78232500D01*
X106075000Y-71177301D02*
X106075000Y-68722500D01*
X104875000Y-76552110D02*
X104885693Y-76541417D01*
X100017500Y-73075000D02*
X99967500Y-73125000D01*
X101437500Y-73075000D02*
X100017500Y-73075000D01*
X104875000Y-77325000D02*
X104875000Y-76552110D01*
X107087500Y-65525000D02*
X107087500Y-66740000D01*
X101425000Y-73075000D02*
X102194176Y-73075000D01*
X106123009Y-71373302D02*
X106071311Y-71321604D01*
X107087500Y-65425000D02*
X106887500Y-65425000D01*
X104875000Y-78232500D02*
X105187500Y-78545000D01*
X106071311Y-71321604D02*
X106071311Y-71180990D01*
%TO.N,/USB_D+*%
X104687550Y-65614950D02*
X104687500Y-65615000D01*
X104687550Y-62818500D02*
X104687550Y-65614950D01*
%TO.N,Net-(U2-USB_DP)*%
X104687500Y-66635000D02*
X104687500Y-67125000D01*
X105275000Y-67712500D02*
X105275000Y-70425000D01*
X104687500Y-67125000D02*
X105275000Y-67712500D01*
%TO.N,+3.3V*%
X107675000Y-78412500D02*
X107675000Y-77325000D01*
D52*
X112072500Y-66750000D02*
X113000000Y-66750000D01*
X114200000Y-61012500D02*
X115387500Y-59825000D01*
X104482977Y-68429523D02*
X103778455Y-67725000D01*
X100537500Y-65975000D02*
X99087500Y-65975000D01*
D50*
X110587500Y-68235000D02*
X110587500Y-69405000D01*
X109600000Y-71200000D02*
X109600000Y-71075000D01*
D52*
X95687500Y-79435000D02*
X98307500Y-79435000D01*
D50*
X106475000Y-69422500D02*
X106475000Y-70425000D01*
X109325000Y-71475000D02*
X109600000Y-71200000D01*
X108312500Y-71075000D02*
X109600000Y-71075000D01*
D52*
X109600000Y-70200000D02*
X110000000Y-70600000D01*
X99087500Y-65975000D02*
X98837500Y-65725000D01*
D50*
X99917500Y-75075000D02*
X99867500Y-75125000D01*
X100017500Y-71075000D02*
X101437500Y-71075000D01*
D52*
X101971360Y-75075000D02*
X101437500Y-75075000D01*
D50*
X111987500Y-79625000D02*
X112975000Y-79625000D01*
D52*
X110000000Y-70600000D02*
X110000000Y-71045000D01*
D50*
X114000000Y-84400000D02*
X115600000Y-84400000D01*
X116310000Y-79620000D02*
X116310000Y-79600000D01*
X116400000Y-83600000D02*
X116400000Y-79710000D01*
D52*
X103778455Y-67725000D02*
X102287500Y-67725000D01*
X110587500Y-68235000D02*
X112072500Y-66750000D01*
D50*
X108887500Y-79625000D02*
X107675000Y-78412500D01*
X113187500Y-80825000D02*
X111987500Y-79625000D01*
D52*
X102187500Y-81525000D02*
X100327500Y-81525000D01*
X103675000Y-77312500D02*
X103675000Y-76778640D01*
X95687500Y-79435000D02*
X94207500Y-79435000D01*
D50*
X113237500Y-83637500D02*
X114000000Y-84400000D01*
D52*
X102854430Y-75958070D02*
X101971360Y-75075000D01*
X114200000Y-65550000D02*
X114200000Y-61012500D01*
D50*
X116400000Y-79710000D02*
X116310000Y-79620000D01*
D52*
X103167500Y-78525000D02*
X103675000Y-78017500D01*
D50*
X109600000Y-71075000D02*
X109970000Y-71075000D01*
D52*
X94207500Y-79435000D02*
X94197500Y-79425000D01*
D50*
X99987500Y-71105000D02*
X100017500Y-71075000D01*
X99987500Y-71105000D02*
X99912500Y-71180000D01*
X109625000Y-74745000D02*
X108755000Y-73875000D01*
X106980000Y-68917500D02*
X106475000Y-69422500D01*
X110587500Y-69405000D02*
X110607500Y-69425000D01*
X94207500Y-79415000D02*
X94197500Y-79425000D01*
X115600000Y-84400000D02*
X116400000Y-83600000D01*
D52*
X98047256Y-71180000D02*
X97400000Y-70532744D01*
X97400000Y-70532744D02*
X97400000Y-67662500D01*
X99087500Y-65975000D02*
X98193750Y-65975000D01*
D50*
X104875000Y-70437500D02*
X104875000Y-68875000D01*
D51*
X101407500Y-71105000D02*
X101437500Y-71075000D01*
D50*
X111987500Y-79625000D02*
X108887500Y-79625000D01*
D52*
X97781250Y-65562500D02*
X97237500Y-65562500D01*
X113000000Y-66750000D02*
X114200000Y-65550000D01*
D50*
X113187500Y-82525000D02*
X113187500Y-80825000D01*
D52*
X103675000Y-76778640D02*
X102854430Y-75958070D01*
X111000000Y-69817500D02*
X110607500Y-69425000D01*
X97400000Y-67662500D02*
X99087500Y-65975000D01*
D50*
X104482977Y-68482977D02*
X104482977Y-68429523D01*
D52*
X98307500Y-79435000D02*
X100387500Y-81515000D01*
D50*
X112975000Y-79625000D02*
X113000000Y-79600000D01*
X111600000Y-74800000D02*
X111545000Y-74745000D01*
D52*
X111545000Y-74745000D02*
X109625000Y-74745000D01*
X101437500Y-75075000D02*
X99917500Y-75075000D01*
X112400000Y-71217500D02*
X111000000Y-69817500D01*
X103675000Y-78017500D02*
X103675000Y-77312500D01*
D50*
X104475000Y-68437500D02*
X104482977Y-68429523D01*
D52*
X98193750Y-65975000D02*
X97781250Y-65562500D01*
X102287500Y-67725000D02*
X100537500Y-65975000D01*
X112400000Y-72000000D02*
X112400000Y-71217500D01*
D50*
X108312500Y-71475000D02*
X109325000Y-71475000D01*
D52*
X99912500Y-71180000D02*
X98047256Y-71180000D01*
D50*
X104475000Y-70437500D02*
X104475000Y-68437500D01*
X108755000Y-73875000D02*
X108312500Y-73875000D01*
X104875000Y-68875000D02*
X104482977Y-68482977D01*
D52*
X111000000Y-71045000D02*
X111000000Y-69817500D01*
D50*
X113237500Y-82525000D02*
X113237500Y-83637500D01*
X107572500Y-68325000D02*
X106980000Y-68917500D01*
D52*
X110000000Y-71045000D02*
X111000000Y-71045000D01*
%TO.N,/XIN*%
D50*
X96875000Y-73775000D02*
X98137500Y-75037500D01*
X95637500Y-73775000D02*
X96875000Y-73775000D01*
X104075000Y-78553634D02*
X104075000Y-77312500D01*
X98137500Y-76825000D02*
X100637500Y-79325000D01*
X95637500Y-72405000D02*
X95667500Y-72375000D01*
X98137500Y-75037500D02*
X98137500Y-76825000D01*
X100637500Y-79325000D02*
X103303634Y-79325000D01*
X95637500Y-73775000D02*
X95637500Y-72405000D01*
X103303634Y-79325000D02*
X104075000Y-78553634D01*
%TO.N,/XOUT*%
X103287500Y-79975000D02*
X104475000Y-78787500D01*
X102797500Y-79975000D02*
X103287500Y-79975000D01*
X104475000Y-78787500D02*
X104475000Y-77312500D01*
%TO.N,/SWCLK*%
D51*
X105787500Y-76425000D02*
X106087500Y-76425000D01*
X105275000Y-76937500D02*
X105787500Y-76425000D01*
X106087500Y-76425000D02*
X106487500Y-76025000D01*
X105275000Y-77312500D02*
X105275000Y-76937500D01*
X112487500Y-63425000D02*
X112487500Y-62125000D01*
%TO.N,/SWDIO*%
X115387500Y-63425000D02*
X115387500Y-62125000D01*
X106601000Y-76711500D02*
X105838500Y-76711500D01*
X105675000Y-76875000D02*
X105675000Y-77312500D01*
X105838500Y-76711500D02*
X105675000Y-76875000D01*
X107287500Y-76025000D02*
X106601000Y-76711500D01*
%TO.N,/nRST*%
D50*
X100477500Y-82625000D02*
X100387500Y-82535000D01*
X98502500Y-82535000D02*
X98487500Y-82550000D01*
X100387500Y-82535000D02*
X98502500Y-82535000D01*
X102987500Y-82625000D02*
X100477500Y-82625000D01*
X106075000Y-79537500D02*
X102987500Y-82625000D01*
X106075000Y-77312500D02*
X106075000Y-79537500D01*
%TO.N,/GPIO16{slash}TX*%
X106475000Y-80137500D02*
X106475000Y-77325000D01*
X105187500Y-81425000D02*
X106475000Y-80137500D01*
X105187500Y-82525000D02*
X105187500Y-81425000D01*
%TO.N,/GPIO17{slash}RX*%
X107187500Y-82525000D02*
X107187500Y-80125000D01*
X106875000Y-79812500D02*
X106875000Y-77325000D01*
X107187500Y-80125000D02*
X106875000Y-79812500D01*
%TO.N,/GPIO26{slash}SDA*%
X114187500Y-82525000D02*
X114200000Y-82512500D01*
X111875000Y-73075000D02*
X108325000Y-73075000D01*
X114200000Y-82512500D02*
X114200000Y-75400000D01*
X114200000Y-75400000D02*
X111875000Y-73075000D01*
%TO.N,/GPIO27{slash}SCL*%
X113537500Y-72675000D02*
X108325000Y-72675000D01*
X115200000Y-82512500D02*
X115200000Y-74337500D01*
X115187500Y-82525000D02*
X115200000Y-82512500D01*
X115200000Y-74337500D02*
X113537500Y-72675000D01*
%TO.N,/VREG_AVDD*%
X107675000Y-70225000D02*
X107675000Y-70437500D01*
X109587500Y-68312500D02*
X107675000Y-70225000D01*
X109597500Y-68205000D02*
X110587500Y-67215000D01*
X109587500Y-68205000D02*
X109587500Y-68312500D01*
X109587500Y-68205000D02*
X109597500Y-68205000D01*
%TO.N,/VREG_LX*%
D51*
X108087500Y-68612500D02*
X108087500Y-66525000D01*
X108087500Y-66525000D02*
X109087500Y-65525000D01*
X106875000Y-70437500D02*
X106875000Y-69825000D01*
X106875000Y-69825000D02*
X108087500Y-68612500D01*
%TO.N,Net-(U2-USB_DM)*%
D50*
X105687500Y-66635000D02*
X105675000Y-66647500D01*
X105675000Y-66647500D02*
X105675000Y-70425000D01*
%TO.N,/~{USB_BOOT}*%
X101487500Y-69125000D02*
X100907500Y-69125000D01*
X101487500Y-69125000D02*
X102075000Y-69712500D01*
X102075000Y-69712500D02*
X102075000Y-70437500D01*
%TO.N,Net-(Q2B-D)*%
X98687500Y-69125000D02*
X99887500Y-69125000D01*
X97487500Y-80125000D02*
X97487500Y-81125000D01*
X98206250Y-69606250D02*
X98687500Y-69125000D01*
%TO.N,Net-(Q1A-D)*%
X95187500Y-80725000D02*
X96287500Y-81825000D01*
X94187500Y-80725000D02*
X95187500Y-80725000D01*
X93187500Y-79285000D02*
X93177500Y-79275000D01*
X93187500Y-80725000D02*
X93687500Y-80725000D01*
X96287500Y-81825000D02*
X97587500Y-81825000D01*
X97587500Y-81825000D02*
X97987500Y-81425000D01*
X94287501Y-80825001D02*
X94187500Y-80725000D01*
X97987500Y-81425000D02*
X97987500Y-81125000D01*
X93187500Y-80725000D02*
X93187500Y-79285000D01*
X93687500Y-80725000D02*
X94187500Y-80725000D01*
%TO.N,Net-(Q2B-G)*%
D51*
X98367608Y-83125000D02*
X100537500Y-83125000D01*
D50*
X100987500Y-85915000D02*
X100977500Y-85925000D01*
D51*
X97987500Y-82744892D02*
X98367608Y-83125000D01*
D50*
X100987500Y-84675000D02*
X100987500Y-85915000D01*
X100087500Y-85925000D02*
X99687500Y-85525000D01*
D51*
X97987500Y-82550000D02*
X97987500Y-82744892D01*
D50*
X100987500Y-84675000D02*
X100987500Y-83575000D01*
X100977500Y-85925000D02*
X100087500Y-85925000D01*
D51*
X100537500Y-83125000D02*
X100987500Y-83575000D01*
D50*
X99687500Y-85525000D02*
X99687500Y-84745000D01*
%TO.N,Net-(P1-CC)*%
X103437500Y-65175000D02*
X104187650Y-64424850D01*
X103437500Y-65615000D02*
X103437500Y-65175000D01*
X104187650Y-64424850D02*
X104187650Y-62818500D01*
%TO.N,Net-(R11-Pad1)*%
X101997500Y-85925000D02*
X101997500Y-87025000D01*
%TO.N,/SWITCH*%
X92987500Y-78425000D02*
X95677500Y-78425000D01*
X92887500Y-81525000D02*
X92487500Y-81125000D01*
X92487500Y-81125000D02*
X92487500Y-78925000D01*
X93450432Y-81525000D02*
X92887500Y-81525000D01*
X92487500Y-78925000D02*
X92987500Y-78425000D01*
X93687500Y-85150000D02*
X93687500Y-82150000D01*
X95677500Y-78425000D02*
X95687500Y-78415000D01*
X93687500Y-82150000D02*
X93687500Y-81762068D01*
X93687500Y-82825000D02*
X93687500Y-82150000D01*
X93687500Y-81762068D02*
X93450432Y-81525000D01*
%TO.N,Net-(Q1B-D)*%
X94777500Y-83615000D02*
X94187500Y-83025000D01*
X94187500Y-83025000D02*
X94187500Y-82150000D01*
X99687500Y-83615000D02*
X94777500Y-83615000D01*
%TO.N,/USB_D-*%
X105687500Y-65125000D02*
X105187650Y-64625150D01*
X105687500Y-65615000D02*
X105687500Y-65125000D01*
X105187650Y-64625150D02*
X105187650Y-62818500D01*
%TO.N,VBUS*%
D53*
X97237500Y-61025000D02*
X97987500Y-61025000D01*
X98787500Y-61825000D02*
X98787500Y-63725000D01*
X100087500Y-65025000D02*
X102687500Y-65025000D01*
X97987500Y-61025000D02*
X98787500Y-61825000D01*
D50*
X103687550Y-62818500D02*
X103687550Y-64024950D01*
X103687550Y-64024950D02*
X103187500Y-64525000D01*
D52*
X96937501Y-61025000D02*
X95337500Y-62625001D01*
X97237500Y-61025000D02*
X97237500Y-63287500D01*
X97237500Y-61025000D02*
X96937501Y-61025000D01*
D50*
X103187450Y-62818500D02*
X103187450Y-64024950D01*
D53*
X102687500Y-65025000D02*
X103187500Y-64525000D01*
X103187500Y-64525000D02*
X103187500Y-64025000D01*
X98787500Y-63725000D02*
X100087500Y-65025000D01*
D50*
X103187450Y-64024950D02*
X103187500Y-64025000D01*
D52*
X95337500Y-62625001D02*
X95337500Y-63287500D01*
%TD*%
%TA.AperFunction,Conductor*%
%TO.N,GND*%
G36*
X110527272Y-58182240D02*
G01*
X110531996Y-58181561D01*
X110536483Y-58183280D01*
X110545661Y-58184317D01*
X110569494Y-58190536D01*
X110573953Y-58194994D01*
X110647650Y-58225506D01*
X110687532Y-58225500D01*
X116613100Y-58225500D01*
X116680139Y-58245185D01*
X116725894Y-58297989D01*
X116737100Y-58349500D01*
X116737100Y-61446618D01*
X116737100Y-61526382D01*
X116767624Y-61600074D01*
X116824026Y-61656476D01*
X116897718Y-61687000D01*
X117613100Y-61687000D01*
X117680139Y-61706685D01*
X117725894Y-61759489D01*
X117737100Y-61811000D01*
X117737100Y-87662000D01*
X117717415Y-87729039D01*
X117664611Y-87774794D01*
X117613100Y-87786000D01*
X98238633Y-87786000D01*
X98171594Y-87766315D01*
X98125839Y-87713511D01*
X98115895Y-87644353D01*
X98118859Y-87629904D01*
X98120200Y-87624900D01*
X98120200Y-86324900D01*
X98099045Y-86245950D01*
X98099043Y-86245948D01*
X98099043Y-86245947D01*
X98041252Y-86188156D01*
X98041250Y-86188155D01*
X97962300Y-86167000D01*
X97312400Y-86167000D01*
X97233450Y-86188155D01*
X97233449Y-86188155D01*
X97233447Y-86188156D01*
X97175656Y-86245947D01*
X97175655Y-86245949D01*
X97175655Y-86245950D01*
X97167732Y-86275521D01*
X97154500Y-86324901D01*
X97154500Y-86693000D01*
X97134815Y-86760039D01*
X97082011Y-86805794D01*
X97030500Y-86817000D01*
X96912399Y-86817000D01*
X96871532Y-86822379D01*
X96871531Y-86822380D01*
X96835110Y-86843407D01*
X96835106Y-86843410D01*
X96800748Y-86863248D01*
X96800648Y-86863348D01*
X96775555Y-86896050D01*
X96770561Y-86914683D01*
X96770560Y-86914686D01*
X96754400Y-86974999D01*
X96754400Y-87624900D01*
X96755741Y-87629904D01*
X96754080Y-87699754D01*
X96714918Y-87757617D01*
X96650690Y-87785123D01*
X96635967Y-87786000D01*
X93988933Y-87786000D01*
X93921894Y-87766315D01*
X93876139Y-87713511D01*
X93866195Y-87644353D01*
X93869159Y-87629904D01*
X93870500Y-87624900D01*
X93870500Y-86975000D01*
X93865120Y-86934132D01*
X93824252Y-86863348D01*
X93824152Y-86863248D01*
X93791450Y-86838155D01*
X93786047Y-86836707D01*
X93763142Y-86830569D01*
X93712500Y-86817000D01*
X93712498Y-86817000D01*
X93594400Y-86817000D01*
X93527361Y-86797315D01*
X93481606Y-86744511D01*
X93470400Y-86693000D01*
X93470400Y-86324901D01*
X93470400Y-86324900D01*
X93449245Y-86245950D01*
X93449243Y-86245948D01*
X93449243Y-86245947D01*
X93391452Y-86188156D01*
X93391450Y-86188155D01*
X93312500Y-86167000D01*
X92662600Y-86167000D01*
X92583650Y-86188155D01*
X92583649Y-86188155D01*
X92583647Y-86188156D01*
X92525856Y-86245947D01*
X92525855Y-86245949D01*
X92525855Y-86245950D01*
X92517932Y-86275521D01*
X92504700Y-86324901D01*
X92504700Y-87624900D01*
X92506041Y-87629904D01*
X92504380Y-87699754D01*
X92465218Y-87757617D01*
X92400990Y-87785123D01*
X92386267Y-87786000D01*
X92262100Y-87786000D01*
X92195061Y-87766315D01*
X92149306Y-87713511D01*
X92138100Y-87662000D01*
X92138100Y-81432618D01*
X92144334Y-81411385D01*
X92145909Y-81389309D01*
X92153987Y-81378513D01*
X92157785Y-81365579D01*
X92174507Y-81351088D01*
X92187768Y-81333367D01*
X92200400Y-81328652D01*
X92210589Y-81319824D01*
X92232492Y-81316674D01*
X92253227Y-81308936D01*
X92266401Y-81311798D01*
X92279747Y-81309880D01*
X92299878Y-81319073D01*
X92321504Y-81323773D01*
X92339256Y-81337057D01*
X92343303Y-81338905D01*
X92349754Y-81344912D01*
X92349762Y-81344918D01*
X92354438Y-81349592D01*
X92354457Y-81349611D01*
X92666030Y-81661185D01*
X92666033Y-81661189D01*
X92673101Y-81668257D01*
X92744243Y-81739399D01*
X92787652Y-81757379D01*
X92787653Y-81757380D01*
X92837192Y-81777900D01*
X92837193Y-81777900D01*
X92837195Y-81777901D01*
X92837196Y-81777901D01*
X92952239Y-81777901D01*
X92952247Y-81777900D01*
X93235600Y-81777900D01*
X93302639Y-81797585D01*
X93348394Y-81850389D01*
X93359600Y-81901900D01*
X93359600Y-82423675D01*
X93373548Y-82493801D01*
X93373549Y-82493803D01*
X93413702Y-82553895D01*
X93434580Y-82620572D01*
X93434600Y-82622786D01*
X93434600Y-84148100D01*
X93414915Y-84215139D01*
X93362111Y-84260894D01*
X93310606Y-84272100D01*
X93297445Y-84272100D01*
X93252841Y-84280972D01*
X93252838Y-84280973D01*
X93202266Y-84314765D01*
X93168471Y-84365343D01*
X93168470Y-84365345D01*
X93159600Y-84409940D01*
X93159600Y-85640054D01*
X93168472Y-85684658D01*
X93168473Y-85684661D01*
X93202265Y-85735233D01*
X93202266Y-85735234D01*
X93252842Y-85769028D01*
X93252843Y-85769028D01*
X93252845Y-85769029D01*
X93275142Y-85773464D01*
X93297443Y-85777900D01*
X93870296Y-85777899D01*
X93937335Y-85797583D01*
X93983090Y-85850387D01*
X93993034Y-85919546D01*
X93977684Y-85963898D01*
X93903023Y-86093215D01*
X93903023Y-86093216D01*
X93862100Y-86245943D01*
X93862100Y-86404057D01*
X93903023Y-86556784D01*
X93982080Y-86693716D01*
X94093884Y-86805520D01*
X94093886Y-86805521D01*
X94093890Y-86805524D01*
X94194046Y-86863348D01*
X94230816Y-86884577D01*
X94383543Y-86925500D01*
X94383545Y-86925500D01*
X94541655Y-86925500D01*
X94541657Y-86925500D01*
X94694384Y-86884577D01*
X94831316Y-86805520D01*
X94943120Y-86693716D01*
X95022177Y-86556784D01*
X95063100Y-86404057D01*
X95063100Y-86245943D01*
X95562100Y-86245943D01*
X95562100Y-86404057D01*
X95598512Y-86539946D01*
X95603023Y-86556783D01*
X95603026Y-86556790D01*
X95682075Y-86693709D01*
X95682079Y-86693714D01*
X95682080Y-86693716D01*
X95793884Y-86805520D01*
X95793886Y-86805521D01*
X95793890Y-86805524D01*
X95894046Y-86863348D01*
X95930816Y-86884577D01*
X96083543Y-86925500D01*
X96083545Y-86925500D01*
X96241655Y-86925500D01*
X96241657Y-86925500D01*
X96394384Y-86884577D01*
X96531316Y-86805520D01*
X96643120Y-86693716D01*
X96722177Y-86556784D01*
X96763100Y-86404057D01*
X96763100Y-86245943D01*
X96722177Y-86093216D01*
X96647516Y-85963898D01*
X96643124Y-85956290D01*
X96643118Y-85956282D01*
X96531317Y-85844481D01*
X96531309Y-85844475D01*
X96394390Y-85765426D01*
X96394386Y-85765424D01*
X96394384Y-85765423D01*
X96241657Y-85724500D01*
X96083543Y-85724500D01*
X95930816Y-85765423D01*
X95930809Y-85765426D01*
X95793890Y-85844475D01*
X95793882Y-85844481D01*
X95682081Y-85956282D01*
X95682075Y-85956290D01*
X95603026Y-86093209D01*
X95603023Y-86093216D01*
X95562100Y-86245943D01*
X95063100Y-86245943D01*
X95022177Y-86093216D01*
X94947516Y-85963898D01*
X94943124Y-85956290D01*
X94943118Y-85956282D01*
X94831317Y-85844481D01*
X94831309Y-85844475D01*
X94694390Y-85765426D01*
X94694386Y-85765424D01*
X94694384Y-85765423D01*
X94541657Y-85724500D01*
X94383543Y-85724500D01*
X94230816Y-85765423D01*
X94230814Y-85765423D01*
X94222965Y-85767527D01*
X94222175Y-85764581D01*
X94167084Y-85770472D01*
X94104623Y-85739161D01*
X94069006Y-85679051D01*
X94066521Y-85646149D01*
X94065400Y-85646149D01*
X94065399Y-84409945D01*
X94065398Y-84409940D01*
X94056528Y-84365342D01*
X94056526Y-84365340D01*
X94056526Y-84365338D01*
X94022734Y-84314766D01*
X93995508Y-84296574D01*
X93950704Y-84242961D01*
X93940400Y-84193472D01*
X93940400Y-83434916D01*
X93960085Y-83367877D01*
X94012889Y-83322122D01*
X94082047Y-83312178D01*
X94145603Y-83341203D01*
X94152081Y-83347235D01*
X94563099Y-83758253D01*
X94563101Y-83758257D01*
X94634243Y-83829399D01*
X94688564Y-83851899D01*
X94702579Y-83857704D01*
X94702580Y-83857705D01*
X94727192Y-83867900D01*
X94727195Y-83867901D01*
X94727198Y-83867901D01*
X94842239Y-83867901D01*
X94842247Y-83867900D01*
X99110474Y-83867900D01*
X99177513Y-83887585D01*
X99223268Y-83940389D01*
X99223908Y-83941813D01*
X99246024Y-83991901D01*
X99260869Y-84025521D01*
X99336979Y-84101631D01*
X99357702Y-84110781D01*
X99382127Y-84121566D01*
X99435503Y-84166652D01*
X99456030Y-84233439D01*
X99437191Y-84300721D01*
X99384968Y-84347137D01*
X99382127Y-84348434D01*
X99336978Y-84368369D01*
X99260869Y-84444478D01*
X99217393Y-84542940D01*
X99217393Y-84542942D01*
X99214600Y-84567014D01*
X99214600Y-84922985D01*
X99217393Y-84947057D01*
X99217393Y-84947059D01*
X99246684Y-85013396D01*
X99260869Y-85045521D01*
X99336979Y-85121631D01*
X99336981Y-85121632D01*
X99336983Y-85121633D01*
X99360684Y-85132098D01*
X99374887Y-85144094D01*
X99391803Y-85151820D01*
X99401028Y-85166174D01*
X99414061Y-85177183D01*
X99419523Y-85194954D01*
X99429577Y-85210598D01*
X99434186Y-85242653D01*
X99434590Y-85243968D01*
X99434600Y-85245533D01*
X99434600Y-85464692D01*
X99434599Y-85464706D01*
X99434599Y-85575307D01*
X99450546Y-85613806D01*
X99450548Y-85613808D01*
X99473100Y-85668256D01*
X99554447Y-85749603D01*
X99554456Y-85749610D01*
X99873100Y-86068255D01*
X99873101Y-86068257D01*
X99944243Y-86139399D01*
X99990719Y-86158649D01*
X100037195Y-86177901D01*
X100037196Y-86177901D01*
X100152239Y-86177901D01*
X100152247Y-86177900D01*
X100476967Y-86177900D01*
X100544006Y-86197585D01*
X100589761Y-86250389D01*
X100590364Y-86251730D01*
X100600869Y-86275521D01*
X100676979Y-86351631D01*
X100775443Y-86395107D01*
X100799516Y-86397900D01*
X100799517Y-86397900D01*
X101155483Y-86397900D01*
X101155484Y-86397900D01*
X101179557Y-86395107D01*
X101278021Y-86351631D01*
X101354131Y-86275521D01*
X101374066Y-86230373D01*
X101419152Y-86176996D01*
X101485938Y-86156469D01*
X101553220Y-86175307D01*
X101584949Y-86203780D01*
X101594618Y-86216068D01*
X101620869Y-86275521D01*
X101696979Y-86351631D01*
X101703579Y-86354545D01*
X101718049Y-86372934D01*
X101724272Y-86388467D01*
X101734857Y-86401432D01*
X101740349Y-86428593D01*
X101744035Y-86437792D01*
X101743144Y-86442417D01*
X101744600Y-86449613D01*
X101744600Y-86500386D01*
X101724915Y-86567425D01*
X101703915Y-86589055D01*
X101705104Y-86590244D01*
X101620869Y-86674478D01*
X101577393Y-86772940D01*
X101577393Y-86772942D01*
X101574600Y-86797014D01*
X101574600Y-87252985D01*
X101577393Y-87277057D01*
X101577393Y-87277059D01*
X101620869Y-87375521D01*
X101696979Y-87451631D01*
X101795443Y-87495107D01*
X101819516Y-87497900D01*
X101819517Y-87497900D01*
X102175483Y-87497900D01*
X102175484Y-87497900D01*
X102199557Y-87495107D01*
X102298021Y-87451631D01*
X102374131Y-87375521D01*
X102417607Y-87277057D01*
X102420400Y-87252984D01*
X102420400Y-86797016D01*
X102417607Y-86772943D01*
X102411909Y-86760039D01*
X102382625Y-86693716D01*
X102374131Y-86674479D01*
X102298021Y-86598369D01*
X102294216Y-86594564D01*
X102293197Y-86594099D01*
X102292200Y-86592548D01*
X102289896Y-86590244D01*
X102290397Y-86589742D01*
X102277954Y-86570380D01*
X102260133Y-86548542D01*
X102258395Y-86539946D01*
X102255423Y-86535321D01*
X102250400Y-86500386D01*
X102250400Y-86449613D01*
X102270085Y-86382574D01*
X102291086Y-86360946D01*
X102289896Y-86359756D01*
X102324752Y-86324900D01*
X102374131Y-86275521D01*
X102417607Y-86177057D01*
X102420400Y-86152984D01*
X102420400Y-85718286D01*
X103144600Y-85718286D01*
X103144600Y-87081713D01*
X103159541Y-87176050D01*
X103159542Y-87176053D01*
X103159543Y-87176055D01*
X103198741Y-87252985D01*
X103217485Y-87289772D01*
X103217488Y-87289776D01*
X103307723Y-87380011D01*
X103307727Y-87380014D01*
X103307729Y-87380016D01*
X103421445Y-87437957D01*
X103421447Y-87437957D01*
X103421449Y-87437958D01*
X103515787Y-87452900D01*
X103515792Y-87452900D01*
X104279213Y-87452900D01*
X104373550Y-87437958D01*
X104373550Y-87437957D01*
X104373555Y-87437957D01*
X104487271Y-87380016D01*
X104577516Y-87289771D01*
X104635457Y-87176055D01*
X104635458Y-87176050D01*
X104650400Y-87081713D01*
X104650400Y-85718286D01*
X107744600Y-85718286D01*
X107744600Y-87081713D01*
X107759541Y-87176050D01*
X107759542Y-87176053D01*
X107759543Y-87176055D01*
X107798741Y-87252985D01*
X107817485Y-87289772D01*
X107817488Y-87289776D01*
X107907723Y-87380011D01*
X107907727Y-87380014D01*
X107907729Y-87380016D01*
X108021445Y-87437957D01*
X108021447Y-87437957D01*
X108021449Y-87437958D01*
X108115787Y-87452900D01*
X108115792Y-87452900D01*
X108879213Y-87452900D01*
X108973550Y-87437958D01*
X108973550Y-87437957D01*
X108973555Y-87437957D01*
X109087271Y-87380016D01*
X109177516Y-87289771D01*
X109235457Y-87176055D01*
X109235458Y-87176050D01*
X109250400Y-87081713D01*
X109250400Y-85718286D01*
X110184600Y-85718286D01*
X110184600Y-87081713D01*
X110199541Y-87176050D01*
X110199542Y-87176053D01*
X110199543Y-87176055D01*
X110238741Y-87252985D01*
X110257485Y-87289772D01*
X110257488Y-87289776D01*
X110347723Y-87380011D01*
X110347727Y-87380014D01*
X110347729Y-87380016D01*
X110461445Y-87437957D01*
X110461447Y-87437957D01*
X110461449Y-87437958D01*
X110555787Y-87452900D01*
X110555792Y-87452900D01*
X111319213Y-87452900D01*
X111413550Y-87437958D01*
X111413550Y-87437957D01*
X111413555Y-87437957D01*
X111527271Y-87380016D01*
X111617516Y-87289771D01*
X111675457Y-87176055D01*
X111675458Y-87176050D01*
X111690400Y-87081713D01*
X111690400Y-85718286D01*
X115784600Y-85718286D01*
X115784600Y-87081713D01*
X115799541Y-87176050D01*
X115799542Y-87176053D01*
X115799543Y-87176055D01*
X115838741Y-87252985D01*
X115857485Y-87289772D01*
X115857488Y-87289776D01*
X115947723Y-87380011D01*
X115947727Y-87380014D01*
X115947729Y-87380016D01*
X116061445Y-87437957D01*
X116061447Y-87437957D01*
X116061449Y-87437958D01*
X116155787Y-87452900D01*
X116155792Y-87452900D01*
X116919213Y-87452900D01*
X117013550Y-87437958D01*
X117013550Y-87437957D01*
X117013555Y-87437957D01*
X117127271Y-87380016D01*
X117217516Y-87289771D01*
X117275457Y-87176055D01*
X117275458Y-87176050D01*
X117290400Y-87081713D01*
X117290400Y-85718286D01*
X117275458Y-85623949D01*
X117275457Y-85623947D01*
X117275457Y-85623945D01*
X117217516Y-85510229D01*
X117217514Y-85510227D01*
X117217511Y-85510223D01*
X117127276Y-85419988D01*
X117127272Y-85419985D01*
X117127271Y-85419984D01*
X117013555Y-85362043D01*
X117013553Y-85362042D01*
X117013550Y-85362041D01*
X116919213Y-85347100D01*
X116919208Y-85347100D01*
X116155792Y-85347100D01*
X116155787Y-85347100D01*
X116061449Y-85362041D01*
X115947727Y-85419985D01*
X115947723Y-85419988D01*
X115857488Y-85510223D01*
X115857485Y-85510227D01*
X115799541Y-85623949D01*
X115784600Y-85718286D01*
X111690400Y-85718286D01*
X111675458Y-85623949D01*
X111675457Y-85623947D01*
X111675457Y-85623945D01*
X111617516Y-85510229D01*
X111617514Y-85510227D01*
X111617511Y-85510223D01*
X111527276Y-85419988D01*
X111527272Y-85419985D01*
X111527271Y-85419984D01*
X111413555Y-85362043D01*
X111413553Y-85362042D01*
X111413550Y-85362041D01*
X111319213Y-85347100D01*
X111319208Y-85347100D01*
X110555792Y-85347100D01*
X110555787Y-85347100D01*
X110461449Y-85362041D01*
X110347727Y-85419985D01*
X110347723Y-85419988D01*
X110257488Y-85510223D01*
X110257485Y-85510227D01*
X110199541Y-85623949D01*
X110184600Y-85718286D01*
X109250400Y-85718286D01*
X109235458Y-85623949D01*
X109235457Y-85623947D01*
X109235457Y-85623945D01*
X109177516Y-85510229D01*
X109177514Y-85510227D01*
X109177511Y-85510223D01*
X109087276Y-85419988D01*
X109087272Y-85419985D01*
X109087271Y-85419984D01*
X108973555Y-85362043D01*
X108973553Y-85362042D01*
X108973550Y-85362041D01*
X108879213Y-85347100D01*
X108879208Y-85347100D01*
X108115792Y-85347100D01*
X108115787Y-85347100D01*
X108021449Y-85362041D01*
X107907727Y-85419985D01*
X107907723Y-85419988D01*
X107817488Y-85510223D01*
X107817485Y-85510227D01*
X107759541Y-85623949D01*
X107744600Y-85718286D01*
X104650400Y-85718286D01*
X104635458Y-85623949D01*
X104635457Y-85623947D01*
X104635457Y-85623945D01*
X104577516Y-85510229D01*
X104577514Y-85510227D01*
X104577511Y-85510223D01*
X104487276Y-85419988D01*
X104487272Y-85419985D01*
X104487271Y-85419984D01*
X104373555Y-85362043D01*
X104373553Y-85362042D01*
X104373550Y-85362041D01*
X104279213Y-85347100D01*
X104279208Y-85347100D01*
X103515792Y-85347100D01*
X103515787Y-85347100D01*
X103421449Y-85362041D01*
X103307727Y-85419985D01*
X103307723Y-85419988D01*
X103217488Y-85510223D01*
X103217485Y-85510227D01*
X103159541Y-85623949D01*
X103144600Y-85718286D01*
X102420400Y-85718286D01*
X102420400Y-85697016D01*
X102417607Y-85672943D01*
X102417230Y-85672090D01*
X102391496Y-85613808D01*
X102374131Y-85574479D01*
X102298021Y-85498369D01*
X102292284Y-85495836D01*
X102199558Y-85454893D01*
X102175485Y-85452100D01*
X102175484Y-85452100D01*
X101819516Y-85452100D01*
X101819514Y-85452100D01*
X101795442Y-85454893D01*
X101795440Y-85454893D01*
X101696978Y-85498369D01*
X101620869Y-85574478D01*
X101600934Y-85619627D01*
X101555848Y-85673003D01*
X101489061Y-85693530D01*
X101421779Y-85674691D01*
X101389186Y-85645107D01*
X101380092Y-85633276D01*
X101354131Y-85574479D01*
X101278021Y-85498369D01*
X101275565Y-85497284D01*
X101266086Y-85484952D01*
X101256260Y-85459599D01*
X101243234Y-85435742D01*
X101241782Y-85422240D01*
X101240838Y-85419804D01*
X101241284Y-85417615D01*
X101240400Y-85409385D01*
X101240400Y-85194204D01*
X101260085Y-85127165D01*
X101294328Y-85091901D01*
X101295888Y-85090831D01*
X101295896Y-85090828D01*
X101373328Y-85013396D01*
X101417559Y-84913221D01*
X101420400Y-84888734D01*
X101420400Y-84461266D01*
X101417559Y-84436779D01*
X101373328Y-84336604D01*
X101295896Y-84259172D01*
X101295891Y-84259167D01*
X101294316Y-84258088D01*
X101292113Y-84255389D01*
X101288781Y-84252057D01*
X101283197Y-84249507D01*
X101267955Y-84225790D01*
X101250137Y-84203959D01*
X101248398Y-84195358D01*
X101245423Y-84190729D01*
X101240400Y-84155794D01*
X101240400Y-84094204D01*
X101260085Y-84027165D01*
X101294328Y-83991901D01*
X101295888Y-83990831D01*
X101295896Y-83990828D01*
X101373328Y-83913396D01*
X101417559Y-83813221D01*
X101420400Y-83788734D01*
X101420400Y-83361266D01*
X101417559Y-83336779D01*
X101411978Y-83324140D01*
X101378174Y-83247579D01*
X101373328Y-83236604D01*
X101295896Y-83159172D01*
X101196612Y-83115334D01*
X101143237Y-83070249D01*
X101122709Y-83003463D01*
X101141547Y-82936181D01*
X101193770Y-82889764D01*
X101246699Y-82877900D01*
X102937193Y-82877900D01*
X102937195Y-82877901D01*
X103037805Y-82877901D01*
X103076306Y-82861952D01*
X103130757Y-82839399D01*
X103201899Y-82768257D01*
X103201899Y-82768254D01*
X103213814Y-82756340D01*
X103213817Y-82756335D01*
X104733608Y-81236545D01*
X104794928Y-81203062D01*
X104864620Y-81208046D01*
X104920553Y-81249918D01*
X104944970Y-81315382D01*
X104945028Y-81332217D01*
X104943704Y-81352712D01*
X104934599Y-81374695D01*
X104934599Y-81475305D01*
X104934600Y-81475307D01*
X104934600Y-81493739D01*
X104934600Y-81538464D01*
X104914915Y-81605503D01*
X104880678Y-81640763D01*
X104873356Y-81645778D01*
X104793280Y-81725855D01*
X104793278Y-81725859D01*
X104747538Y-81829447D01*
X104747538Y-81829449D01*
X104744600Y-81854772D01*
X104744600Y-83195227D01*
X104747538Y-83220550D01*
X104747538Y-83220552D01*
X104759473Y-83247581D01*
X104793280Y-83324145D01*
X104873355Y-83404220D01*
X104976950Y-83449962D01*
X105002274Y-83452900D01*
X105002275Y-83452900D01*
X105392725Y-83452900D01*
X105392726Y-83452900D01*
X105418050Y-83449962D01*
X105521645Y-83404220D01*
X105601720Y-83324145D01*
X105647462Y-83220550D01*
X105650400Y-83195226D01*
X105650400Y-81854774D01*
X105647462Y-81829450D01*
X105646783Y-81827913D01*
X105620081Y-81767439D01*
X105601720Y-81725855D01*
X105521645Y-81645780D01*
X105521644Y-81645779D01*
X105513520Y-81637655D01*
X105515828Y-81635346D01*
X105483589Y-81595862D01*
X105475673Y-81526442D01*
X105506545Y-81463763D01*
X105510139Y-81460014D01*
X106618253Y-80351900D01*
X106618257Y-80351899D01*
X106689399Y-80280757D01*
X106703309Y-80247173D01*
X106715504Y-80232601D01*
X106729398Y-80223330D01*
X106739879Y-80210324D01*
X106757859Y-80204339D01*
X106773623Y-80193821D01*
X106790323Y-80193533D01*
X106806173Y-80188258D01*
X106824534Y-80192944D01*
X106843483Y-80192618D01*
X106857688Y-80201405D01*
X106873872Y-80205536D01*
X106886785Y-80219406D01*
X106902902Y-80229376D01*
X106910101Y-80244448D01*
X106921483Y-80256673D01*
X106926910Y-80279640D01*
X106933016Y-80292423D01*
X106931941Y-80300930D01*
X106934600Y-80312179D01*
X106934600Y-81538464D01*
X106914915Y-81605503D01*
X106880678Y-81640763D01*
X106873356Y-81645778D01*
X106793280Y-81725855D01*
X106793278Y-81725859D01*
X106747538Y-81829447D01*
X106747538Y-81829449D01*
X106744600Y-81854772D01*
X106744600Y-83195227D01*
X106747538Y-83220550D01*
X106747538Y-83220552D01*
X106759473Y-83247581D01*
X106793280Y-83324145D01*
X106873355Y-83404220D01*
X106976950Y-83449962D01*
X107002274Y-83452900D01*
X107002275Y-83452900D01*
X107392725Y-83452900D01*
X107392726Y-83452900D01*
X107418050Y-83449962D01*
X107521645Y-83404220D01*
X107601720Y-83324145D01*
X107647462Y-83220550D01*
X107650400Y-83195226D01*
X107650400Y-81854774D01*
X107647462Y-81829450D01*
X107646783Y-81827913D01*
X107620081Y-81767439D01*
X107601720Y-81725855D01*
X107521645Y-81645780D01*
X107521643Y-81645779D01*
X107514311Y-81642541D01*
X107460936Y-81597454D01*
X107440410Y-81530667D01*
X107440400Y-81529108D01*
X107440400Y-80198325D01*
X107440400Y-80175307D01*
X107440401Y-80175305D01*
X107440401Y-80074695D01*
X107420603Y-80026899D01*
X107401899Y-79981743D01*
X107330757Y-79910601D01*
X107323696Y-79903540D01*
X107323681Y-79903527D01*
X107164219Y-79744065D01*
X107130734Y-79682742D01*
X107127900Y-79656384D01*
X107127900Y-78805259D01*
X107147585Y-78738220D01*
X107200389Y-78692465D01*
X107269547Y-78682521D01*
X107333103Y-78711546D01*
X107339581Y-78717578D01*
X107396913Y-78774910D01*
X107500187Y-78834536D01*
X107615375Y-78865400D01*
X107615377Y-78865400D01*
X107718884Y-78865400D01*
X107785923Y-78885085D01*
X107806565Y-78901719D01*
X108673099Y-79768253D01*
X108673101Y-79768257D01*
X108744243Y-79839399D01*
X108788910Y-79857900D01*
X108837195Y-79877901D01*
X108837196Y-79877901D01*
X108952239Y-79877901D01*
X108952247Y-79877900D01*
X111831384Y-79877900D01*
X111898423Y-79897585D01*
X111919065Y-79914219D01*
X112898281Y-80893435D01*
X112931766Y-80954758D01*
X112934600Y-80981116D01*
X112934600Y-81573172D01*
X112914915Y-81640211D01*
X112898282Y-81660853D01*
X112833280Y-81725855D01*
X112833278Y-81725859D01*
X112787538Y-81829447D01*
X112787538Y-81829449D01*
X112784600Y-81854772D01*
X112784600Y-83195227D01*
X112787538Y-83220550D01*
X112787538Y-83220552D01*
X112799473Y-83247581D01*
X112833280Y-83324145D01*
X112913355Y-83404220D01*
X112913357Y-83404221D01*
X112922838Y-83410716D01*
X112921713Y-83412357D01*
X112924886Y-83415037D01*
X112941803Y-83422763D01*
X112951026Y-83437114D01*
X112964058Y-83448121D01*
X112969522Y-83465895D01*
X112979577Y-83481541D01*
X112984184Y-83513587D01*
X112984590Y-83514906D01*
X112984600Y-83516476D01*
X112984600Y-83577192D01*
X112984599Y-83577206D01*
X112984599Y-83687805D01*
X113000546Y-83726306D01*
X113000548Y-83726308D01*
X113023100Y-83780756D01*
X113104447Y-83862103D01*
X113104457Y-83862111D01*
X113785599Y-84543253D01*
X113785601Y-84543257D01*
X113856743Y-84614399D01*
X113911193Y-84636952D01*
X113949695Y-84652901D01*
X113949697Y-84652901D01*
X114064739Y-84652901D01*
X114064747Y-84652900D01*
X115549693Y-84652900D01*
X115549695Y-84652901D01*
X115650305Y-84652901D01*
X115688806Y-84636952D01*
X115743257Y-84614399D01*
X115814399Y-84543257D01*
X115814399Y-84543254D01*
X115826314Y-84531340D01*
X115826317Y-84531335D01*
X116543253Y-83814400D01*
X116543257Y-83814399D01*
X116614399Y-83743257D01*
X116637367Y-83687805D01*
X116652901Y-83650305D01*
X116652901Y-83549695D01*
X116652901Y-83539706D01*
X116652900Y-83539692D01*
X116652900Y-80035614D01*
X116672585Y-79968575D01*
X116683781Y-79954681D01*
X116686627Y-79950524D01*
X116686631Y-79950521D01*
X116730107Y-79852057D01*
X116732900Y-79827984D01*
X116732900Y-79372016D01*
X116730107Y-79347943D01*
X116686631Y-79249479D01*
X116610521Y-79173369D01*
X116609556Y-79172943D01*
X116512058Y-79129893D01*
X116487985Y-79127100D01*
X116487984Y-79127100D01*
X116132016Y-79127100D01*
X116132014Y-79127100D01*
X116107942Y-79129893D01*
X116107940Y-79129893D01*
X116009478Y-79173369D01*
X115933369Y-79249478D01*
X115913434Y-79294627D01*
X115868348Y-79348003D01*
X115801561Y-79368530D01*
X115734279Y-79349691D01*
X115687863Y-79297468D01*
X115686566Y-79294627D01*
X115680268Y-79280364D01*
X115666631Y-79249479D01*
X115590521Y-79173369D01*
X115589556Y-79172943D01*
X115526813Y-79145239D01*
X115473437Y-79100153D01*
X115452910Y-79033367D01*
X115452900Y-79031805D01*
X115452900Y-74410049D01*
X115452900Y-74387807D01*
X115452901Y-74387805D01*
X115452901Y-74287195D01*
X115436952Y-74248693D01*
X115414399Y-74194243D01*
X115343257Y-74123101D01*
X115336196Y-74116040D01*
X115336181Y-74116027D01*
X113769052Y-72548898D01*
X113751900Y-72531746D01*
X113751899Y-72531743D01*
X113680757Y-72460601D01*
X113616226Y-72433872D01*
X113602718Y-72428276D01*
X113602716Y-72428275D01*
X113587807Y-72422099D01*
X113587805Y-72422099D01*
X113487195Y-72422099D01*
X113472761Y-72422099D01*
X113472753Y-72422100D01*
X112894039Y-72422100D01*
X112827000Y-72402415D01*
X112781245Y-72349611D01*
X112771301Y-72280453D01*
X112786652Y-72236099D01*
X112822035Y-72174814D01*
X112822036Y-72174813D01*
X112852900Y-72059625D01*
X112852900Y-71940375D01*
X112822036Y-71825187D01*
X112762410Y-71721913D01*
X112739219Y-71698722D01*
X112705734Y-71637399D01*
X112702900Y-71611041D01*
X112702900Y-71267380D01*
X112702901Y-71267367D01*
X112702901Y-71177624D01*
X112702901Y-71177622D01*
X112682258Y-71100585D01*
X112642381Y-71031515D01*
X111185985Y-69575119D01*
X111076719Y-69465853D01*
X111043234Y-69404530D01*
X111040400Y-69378172D01*
X111040400Y-69211267D01*
X111040400Y-69211266D01*
X111037559Y-69186779D01*
X111036426Y-69184214D01*
X110995807Y-69092219D01*
X110993328Y-69086604D01*
X110925437Y-69018713D01*
X114737000Y-69018713D01*
X114737000Y-69231286D01*
X114765973Y-69414218D01*
X114770254Y-69441243D01*
X114835336Y-69641545D01*
X114835944Y-69643414D01*
X114932451Y-69832820D01*
X115057390Y-70004786D01*
X115207713Y-70155109D01*
X115379679Y-70280048D01*
X115379681Y-70280049D01*
X115379684Y-70280051D01*
X115569088Y-70376557D01*
X115771257Y-70442246D01*
X115981213Y-70475500D01*
X115981214Y-70475500D01*
X116193786Y-70475500D01*
X116193787Y-70475500D01*
X116403743Y-70442246D01*
X116605912Y-70376557D01*
X116795316Y-70280051D01*
X116871729Y-70224534D01*
X116967286Y-70155109D01*
X116967288Y-70155106D01*
X116967292Y-70155104D01*
X117117604Y-70004792D01*
X117117606Y-70004788D01*
X117117609Y-70004786D01*
X117239081Y-69837592D01*
X117242551Y-69832816D01*
X117339057Y-69643412D01*
X117404746Y-69441243D01*
X117438000Y-69231287D01*
X117438000Y-69018713D01*
X117404746Y-68808757D01*
X117339057Y-68606588D01*
X117242551Y-68417184D01*
X117242549Y-68417181D01*
X117242548Y-68417179D01*
X117117609Y-68245213D01*
X116967286Y-68094890D01*
X116795320Y-67969951D01*
X116605914Y-67873444D01*
X116605913Y-67873443D01*
X116605912Y-67873443D01*
X116403743Y-67807754D01*
X116403741Y-67807753D01*
X116403740Y-67807753D01*
X116234416Y-67780935D01*
X116193787Y-67774500D01*
X115981213Y-67774500D01*
X115940584Y-67780935D01*
X115771260Y-67807753D01*
X115569085Y-67873444D01*
X115379679Y-67969951D01*
X115207713Y-68094890D01*
X115057390Y-68245213D01*
X114932451Y-68417179D01*
X114835944Y-68606585D01*
X114835943Y-68606587D01*
X114835943Y-68606588D01*
X114826692Y-68635059D01*
X114770253Y-68808760D01*
X114737000Y-69018713D01*
X110925437Y-69018713D01*
X110915896Y-69009172D01*
X110895601Y-69000211D01*
X110880534Y-68986376D01*
X110872628Y-68973259D01*
X110860933Y-68963379D01*
X110854962Y-68943947D01*
X110844467Y-68926535D01*
X110844907Y-68911228D01*
X110840410Y-68896592D01*
X110840400Y-68895038D01*
X110840400Y-68735533D01*
X110860085Y-68668494D01*
X110912889Y-68622739D01*
X110914316Y-68622098D01*
X110938016Y-68611633D01*
X110938015Y-68611633D01*
X110938021Y-68611631D01*
X111014131Y-68535521D01*
X111057607Y-68437057D01*
X111060400Y-68412984D01*
X111060400Y-68241827D01*
X111080085Y-68174788D01*
X111096714Y-68154150D01*
X112015359Y-67235505D01*
X112076680Y-67202022D01*
X112146371Y-67207006D01*
X112190719Y-67235507D01*
X112285223Y-67330011D01*
X112285227Y-67330014D01*
X112285229Y-67330016D01*
X112398945Y-67387957D01*
X112398947Y-67387957D01*
X112398949Y-67387958D01*
X112493287Y-67402900D01*
X112493292Y-67402900D01*
X113506713Y-67402900D01*
X113601050Y-67387958D01*
X113601050Y-67387957D01*
X113601055Y-67387957D01*
X113714771Y-67330016D01*
X113805016Y-67239771D01*
X113862957Y-67126055D01*
X113864630Y-67115495D01*
X113877900Y-67031713D01*
X113877900Y-66468287D01*
X113864837Y-66385814D01*
X113873791Y-66316520D01*
X113899626Y-66278737D01*
X114375775Y-65802589D01*
X114375780Y-65802585D01*
X114385983Y-65792381D01*
X114385985Y-65792381D01*
X114442381Y-65735985D01*
X114482258Y-65666915D01*
X114502900Y-65589878D01*
X114502900Y-62283463D01*
X114522585Y-62216424D01*
X114575389Y-62170669D01*
X114644547Y-62160725D01*
X114708103Y-62189750D01*
X114745877Y-62248528D01*
X114748517Y-62259271D01*
X114759689Y-62315438D01*
X114759691Y-62315444D01*
X114808906Y-62434261D01*
X114808911Y-62434270D01*
X114880359Y-62541198D01*
X114880362Y-62541202D01*
X114971297Y-62632137D01*
X114971301Y-62632140D01*
X115078231Y-62703589D01*
X115078232Y-62703589D01*
X115078236Y-62703592D01*
X115094553Y-62710350D01*
X115110117Y-62722893D01*
X115128303Y-62731198D01*
X115136766Y-62744366D01*
X115148955Y-62754189D01*
X115155268Y-62773158D01*
X115166077Y-62789976D01*
X115170039Y-62817533D01*
X115171021Y-62820483D01*
X115171100Y-62824911D01*
X115171100Y-62955383D01*
X115151415Y-63022422D01*
X115115275Y-63056884D01*
X115115858Y-63057644D01*
X115109416Y-63062586D01*
X115025089Y-63146913D01*
X114965464Y-63250185D01*
X114934600Y-63365375D01*
X114934600Y-63484624D01*
X114965464Y-63599814D01*
X114995277Y-63651450D01*
X115025090Y-63703087D01*
X115109413Y-63787410D01*
X115212687Y-63847036D01*
X115327875Y-63877900D01*
X115327877Y-63877900D01*
X115447123Y-63877900D01*
X115447125Y-63877900D01*
X115562313Y-63847036D01*
X115665587Y-63787410D01*
X115749910Y-63703087D01*
X115809536Y-63599813D01*
X115840400Y-63484625D01*
X115840400Y-63365375D01*
X115809536Y-63250187D01*
X115791925Y-63219685D01*
X115749910Y-63146913D01*
X115665583Y-63062586D01*
X115659142Y-63057644D01*
X115659974Y-63056558D01*
X115657611Y-63054080D01*
X115646697Y-63049096D01*
X115633948Y-63029259D01*
X115617680Y-63012194D01*
X115614465Y-62998942D01*
X115608923Y-62990318D01*
X115603900Y-62955383D01*
X115603900Y-62824911D01*
X115623585Y-62757872D01*
X115676389Y-62712117D01*
X115680411Y-62710365D01*
X115696764Y-62703592D01*
X115803699Y-62632140D01*
X115894640Y-62541199D01*
X115966092Y-62434264D01*
X116015309Y-62315444D01*
X116035006Y-62216424D01*
X116040400Y-62189307D01*
X116040400Y-62060692D01*
X116015310Y-61934561D01*
X116015309Y-61934560D01*
X116015309Y-61934556D01*
X115966092Y-61815736D01*
X115966091Y-61815735D01*
X115966088Y-61815729D01*
X115894640Y-61708801D01*
X115894637Y-61708797D01*
X115803702Y-61617862D01*
X115803698Y-61617859D01*
X115696770Y-61546411D01*
X115696761Y-61546406D01*
X115577944Y-61497191D01*
X115577938Y-61497189D01*
X115451807Y-61472100D01*
X115451805Y-61472100D01*
X115323195Y-61472100D01*
X115323193Y-61472100D01*
X115197061Y-61497189D01*
X115197055Y-61497191D01*
X115078238Y-61546406D01*
X115078229Y-61546411D01*
X114971301Y-61617859D01*
X114971297Y-61617862D01*
X114880362Y-61708797D01*
X114880359Y-61708801D01*
X114808911Y-61815729D01*
X114808906Y-61815738D01*
X114759691Y-61934555D01*
X114759689Y-61934561D01*
X114748517Y-61990728D01*
X114716132Y-62052639D01*
X114655416Y-62087213D01*
X114585646Y-62083472D01*
X114528975Y-62042606D01*
X114503393Y-61977588D01*
X114502900Y-61966536D01*
X114502900Y-61189327D01*
X114522585Y-61122288D01*
X114539219Y-61101646D01*
X114814352Y-60826513D01*
X115142684Y-60498180D01*
X115204005Y-60464697D01*
X115254552Y-60464246D01*
X115306923Y-60474663D01*
X115323194Y-60477900D01*
X115323195Y-60477900D01*
X115451807Y-60477900D01*
X115536665Y-60461019D01*
X115577944Y-60452809D01*
X115696764Y-60403592D01*
X115803699Y-60332140D01*
X115894640Y-60241199D01*
X115966092Y-60134264D01*
X116015309Y-60015444D01*
X116023519Y-59974165D01*
X116040400Y-59889307D01*
X116040400Y-59760692D01*
X116015310Y-59634561D01*
X116015309Y-59634560D01*
X116015309Y-59634556D01*
X115966092Y-59515736D01*
X115966091Y-59515735D01*
X115966088Y-59515729D01*
X115894640Y-59408801D01*
X115894637Y-59408797D01*
X115803702Y-59317862D01*
X115803698Y-59317859D01*
X115696770Y-59246411D01*
X115696761Y-59246406D01*
X115577944Y-59197191D01*
X115577938Y-59197189D01*
X115451807Y-59172100D01*
X115451805Y-59172100D01*
X115323195Y-59172100D01*
X115323193Y-59172100D01*
X115197061Y-59197189D01*
X115197055Y-59197191D01*
X115078238Y-59246406D01*
X115078229Y-59246411D01*
X114971301Y-59317859D01*
X114971297Y-59317862D01*
X114880362Y-59408797D01*
X114880359Y-59408801D01*
X114808911Y-59515729D01*
X114808906Y-59515738D01*
X114759691Y-59634555D01*
X114759689Y-59634561D01*
X114734600Y-59760692D01*
X114734600Y-59760695D01*
X114734600Y-59889305D01*
X114738184Y-59907326D01*
X114748253Y-59957945D01*
X114742025Y-60027536D01*
X114714316Y-60069816D01*
X113957620Y-60826513D01*
X113957618Y-60826516D01*
X113917742Y-60895584D01*
X113910861Y-60921264D01*
X113897099Y-60972622D01*
X113897099Y-60972624D01*
X113897099Y-61062367D01*
X113897100Y-61062380D01*
X113897100Y-65373172D01*
X113877415Y-65440211D01*
X113860781Y-65460853D01*
X113260853Y-66060781D01*
X113199530Y-66094266D01*
X113173172Y-66097100D01*
X112493287Y-66097100D01*
X112398949Y-66112041D01*
X112285227Y-66169985D01*
X112285223Y-66169988D01*
X112194988Y-66260223D01*
X112194985Y-66260228D01*
X112194984Y-66260229D01*
X112153764Y-66341129D01*
X112134215Y-66379495D01*
X112086240Y-66430291D01*
X112039923Y-66446138D01*
X112032627Y-66447098D01*
X111955585Y-66467742D01*
X111955584Y-66467742D01*
X111886516Y-66507618D01*
X111886513Y-66507620D01*
X111272081Y-67122053D01*
X111210758Y-67155538D01*
X111141066Y-67150554D01*
X111085133Y-67108682D01*
X111060716Y-67043218D01*
X111060621Y-67040583D01*
X111060606Y-67040584D01*
X111060400Y-67037031D01*
X111060400Y-67037016D01*
X111057607Y-67012943D01*
X111014131Y-66914479D01*
X110938021Y-66838369D01*
X110887297Y-66815972D01*
X110839558Y-66794893D01*
X110815485Y-66792100D01*
X110815484Y-66792100D01*
X110359516Y-66792100D01*
X110359514Y-66792100D01*
X110335442Y-66794893D01*
X110335440Y-66794893D01*
X110236978Y-66838369D01*
X110160869Y-66914478D01*
X110117393Y-67012940D01*
X110117393Y-67012942D01*
X110114600Y-67037014D01*
X110114600Y-67278883D01*
X110094915Y-67345922D01*
X110078281Y-67366564D01*
X109709065Y-67735781D01*
X109647742Y-67769266D01*
X109621384Y-67772100D01*
X109373764Y-67772100D01*
X109349278Y-67774941D01*
X109349276Y-67774941D01*
X109249107Y-67819170D01*
X109249102Y-67819173D01*
X109171673Y-67896602D01*
X109171670Y-67896607D01*
X109127441Y-67996776D01*
X109127441Y-67996778D01*
X109124600Y-68021264D01*
X109124600Y-68366382D01*
X109104915Y-68433421D01*
X109088281Y-68454063D01*
X108746390Y-68795955D01*
X108066823Y-69475523D01*
X107731565Y-69810781D01*
X107670242Y-69844266D01*
X107643884Y-69847100D01*
X107605016Y-69847100D01*
X107545832Y-69858872D01*
X107478717Y-69903717D01*
X107433872Y-69970832D01*
X107422100Y-70030016D01*
X107422100Y-70174692D01*
X107422099Y-70174695D01*
X107422099Y-70275305D01*
X107422100Y-70275307D01*
X107422100Y-70844984D01*
X107433872Y-70904168D01*
X107478717Y-70971283D01*
X107545832Y-71016128D01*
X107605016Y-71027900D01*
X107605019Y-71027900D01*
X107610326Y-71028423D01*
X107675113Y-71054583D01*
X107715473Y-71111617D01*
X107717729Y-71118928D01*
X107722100Y-71134812D01*
X107722100Y-71144984D01*
X107733872Y-71204168D01*
X107746304Y-71222774D01*
X107751623Y-71242102D01*
X107751354Y-71257803D01*
X107756047Y-71272789D01*
X107750770Y-71292021D01*
X107750430Y-71311961D01*
X107741715Y-71325024D01*
X107737561Y-71340169D01*
X107735170Y-71343889D01*
X107733872Y-71345830D01*
X107722100Y-71405017D01*
X107722100Y-71544982D01*
X107733872Y-71604169D01*
X107735170Y-71606111D01*
X107736696Y-71610986D01*
X107738545Y-71615449D01*
X107738145Y-71615614D01*
X107756047Y-71672789D01*
X107737561Y-71740169D01*
X107735170Y-71743889D01*
X107733872Y-71745830D01*
X107733872Y-71745832D01*
X107722100Y-71805016D01*
X107722100Y-71944984D01*
X107729948Y-71984440D01*
X107733872Y-72004169D01*
X107735170Y-72006111D01*
X107736696Y-72010986D01*
X107738545Y-72015449D01*
X107738145Y-72015614D01*
X107756047Y-72072789D01*
X107737561Y-72140169D01*
X107735170Y-72143889D01*
X107733872Y-72145830D01*
X107728107Y-72174814D01*
X107722100Y-72205016D01*
X107722100Y-72344984D01*
X107725566Y-72362410D01*
X107733872Y-72404169D01*
X107735170Y-72406111D01*
X107736696Y-72410986D01*
X107738545Y-72415449D01*
X107738145Y-72415614D01*
X107756047Y-72472789D01*
X107737561Y-72540169D01*
X107735170Y-72543889D01*
X107733872Y-72545830D01*
X107728179Y-72574455D01*
X107723396Y-72598503D01*
X107722100Y-72605017D01*
X107722100Y-72744982D01*
X107733872Y-72804169D01*
X107735170Y-72806111D01*
X107736696Y-72810986D01*
X107738545Y-72815449D01*
X107738145Y-72815614D01*
X107756047Y-72872789D01*
X107753465Y-72900270D01*
X107748555Y-72923857D01*
X107733872Y-72945832D01*
X107722100Y-73005016D01*
X107722100Y-73050947D01*
X107719498Y-73063448D01*
X107708805Y-73083454D01*
X107702415Y-73105217D01*
X107692653Y-73113675D01*
X107686564Y-73125069D01*
X107666752Y-73136119D01*
X107649611Y-73150972D01*
X107636826Y-73152810D01*
X107625544Y-73159103D01*
X107602904Y-73157687D01*
X107580453Y-73160916D01*
X107564121Y-73155263D01*
X107555810Y-73154744D01*
X107549744Y-73150287D01*
X107536099Y-73145565D01*
X107462314Y-73102964D01*
X107370107Y-73078258D01*
X107347125Y-73072100D01*
X107227875Y-73072100D01*
X107112685Y-73102964D01*
X107009413Y-73162590D01*
X107009410Y-73162592D01*
X106925092Y-73246910D01*
X106925090Y-73246913D01*
X106865464Y-73350185D01*
X106835253Y-73462939D01*
X106834600Y-73465375D01*
X106834600Y-73584625D01*
X106839837Y-73604169D01*
X106865464Y-73699814D01*
X106881680Y-73727900D01*
X106925090Y-73803087D01*
X107009413Y-73887410D01*
X107112687Y-73947036D01*
X107227875Y-73977900D01*
X107227877Y-73977900D01*
X107347123Y-73977900D01*
X107347125Y-73977900D01*
X107462313Y-73947036D01*
X107545847Y-73898807D01*
X107613743Y-73882334D01*
X107679770Y-73905185D01*
X107722962Y-73960106D01*
X107724809Y-73965019D01*
X107727742Y-73973352D01*
X107733872Y-74004168D01*
X107743845Y-74019093D01*
X107749031Y-74033825D01*
X107750085Y-74053749D01*
X107756047Y-74072789D01*
X107751894Y-74087924D01*
X107752724Y-74103597D01*
X107742839Y-74120927D01*
X107737561Y-74140169D01*
X107735170Y-74143889D01*
X107733872Y-74145830D01*
X107726817Y-74181299D01*
X107722100Y-74205016D01*
X107722100Y-74344984D01*
X107726036Y-74364771D01*
X107733872Y-74404169D01*
X107735170Y-74406111D01*
X107736696Y-74410986D01*
X107738545Y-74415449D01*
X107738145Y-74415614D01*
X107756047Y-74472789D01*
X107737561Y-74540169D01*
X107735170Y-74543889D01*
X107733872Y-74545830D01*
X107733872Y-74545832D01*
X107722100Y-74605016D01*
X107722100Y-74744984D01*
X107723578Y-74752415D01*
X107733872Y-74804169D01*
X107735170Y-74806111D01*
X107736696Y-74810986D01*
X107738545Y-74815449D01*
X107738145Y-74815614D01*
X107756047Y-74872789D01*
X107737561Y-74940169D01*
X107735170Y-74943889D01*
X107733872Y-74945830D01*
X107728107Y-74974814D01*
X107722100Y-75005016D01*
X107722100Y-75144984D01*
X107728774Y-75178536D01*
X107733872Y-75204169D01*
X107735170Y-75206111D01*
X107736696Y-75210986D01*
X107738545Y-75215449D01*
X107738145Y-75215614D01*
X107756047Y-75272789D01*
X107737561Y-75340169D01*
X107735170Y-75343889D01*
X107733872Y-75345830D01*
X107726024Y-75385288D01*
X107723409Y-75398438D01*
X107722100Y-75405017D01*
X107722100Y-75538178D01*
X107702415Y-75605217D01*
X107649611Y-75650972D01*
X107580453Y-75660916D01*
X107536099Y-75645565D01*
X107462314Y-75602964D01*
X107395486Y-75585058D01*
X107347125Y-75572100D01*
X107227875Y-75572100D01*
X107112685Y-75602964D01*
X107009413Y-75662590D01*
X107009409Y-75662593D01*
X106975180Y-75696822D01*
X106913857Y-75730307D01*
X106844165Y-75725321D01*
X106799820Y-75696822D01*
X106765590Y-75662593D01*
X106765589Y-75662592D01*
X106765587Y-75662590D01*
X106713950Y-75632777D01*
X106662314Y-75602964D01*
X106595486Y-75585058D01*
X106547125Y-75572100D01*
X106427875Y-75572100D01*
X106312685Y-75602964D01*
X106209413Y-75662590D01*
X106209410Y-75662592D01*
X106125092Y-75746910D01*
X106125090Y-75746913D01*
X106065464Y-75850185D01*
X106034600Y-75965375D01*
X106034600Y-76084600D01*
X106014915Y-76151639D01*
X105962111Y-76197394D01*
X105910600Y-76208600D01*
X105744454Y-76208600D01*
X105664919Y-76241545D01*
X105506943Y-76399521D01*
X105445620Y-76433005D01*
X105375928Y-76428021D01*
X105319995Y-76386149D01*
X105312594Y-76373180D01*
X105311793Y-76373643D01*
X105307728Y-76366602D01*
X105248103Y-76263330D01*
X105163780Y-76179007D01*
X105106320Y-76145832D01*
X105060507Y-76119381D01*
X104981206Y-76098133D01*
X104945318Y-76088517D01*
X104826068Y-76088517D01*
X104710878Y-76119381D01*
X104607606Y-76179007D01*
X104607603Y-76179009D01*
X104523285Y-76263327D01*
X104523283Y-76263330D01*
X104463657Y-76366602D01*
X104432793Y-76481792D01*
X104432793Y-76609169D01*
X104430799Y-76609169D01*
X104428847Y-76621681D01*
X104429734Y-76645104D01*
X104423560Y-76655559D01*
X104421689Y-76667555D01*
X104406127Y-76685084D01*
X104394210Y-76705269D01*
X104380194Y-76714297D01*
X104375304Y-76719807D01*
X104365262Y-76725460D01*
X104350320Y-76732979D01*
X104345832Y-76733872D01*
X104337549Y-76739406D01*
X104330742Y-76742832D01*
X104303565Y-76747795D01*
X104277211Y-76756047D01*
X104269686Y-76753982D01*
X104262009Y-76755385D01*
X104236464Y-76744868D01*
X104209831Y-76737561D01*
X104206111Y-76735170D01*
X104204169Y-76733872D01*
X104157427Y-76724575D01*
X104144984Y-76722100D01*
X104063707Y-76722100D01*
X104060376Y-76721121D01*
X104056999Y-76721918D01*
X104027097Y-76711350D01*
X103996668Y-76702415D01*
X103993428Y-76699450D01*
X103991123Y-76698636D01*
X103984388Y-76691179D01*
X103965738Y-76674114D01*
X103957855Y-76663954D01*
X103957258Y-76661725D01*
X103917381Y-76592655D01*
X103860985Y-76536259D01*
X103860982Y-76536257D01*
X103605146Y-76280421D01*
X103343649Y-76018923D01*
X103310164Y-75957600D01*
X103307330Y-75931242D01*
X103307330Y-75898447D01*
X103307330Y-75898445D01*
X103276466Y-75783257D01*
X103216840Y-75679983D01*
X103132517Y-75595660D01*
X103044745Y-75544984D01*
X103029244Y-75536034D01*
X102971649Y-75520602D01*
X102914055Y-75505170D01*
X102914054Y-75505170D01*
X102881257Y-75505170D01*
X102814218Y-75485485D01*
X102793576Y-75468851D01*
X102491983Y-75167258D01*
X102157345Y-74832619D01*
X102157344Y-74832618D01*
X102157341Y-74832616D01*
X102089900Y-74793679D01*
X102041684Y-74743112D01*
X102029472Y-74705974D01*
X102027900Y-74696195D01*
X102027900Y-74605016D01*
X102016128Y-74545832D01*
X101999798Y-74521392D01*
X101995504Y-74494682D01*
X101996633Y-74485780D01*
X101993952Y-74477218D01*
X102000962Y-74451660D01*
X102004298Y-74425368D01*
X102010060Y-74418490D01*
X102012434Y-74409837D01*
X102014814Y-74406133D01*
X102016128Y-74404168D01*
X102027900Y-74344984D01*
X102027900Y-74205016D01*
X102016128Y-74145832D01*
X102014832Y-74143892D01*
X102013306Y-74139021D01*
X102011455Y-74134551D01*
X102011854Y-74134385D01*
X101993952Y-74077218D01*
X102012434Y-74009837D01*
X102014814Y-74006133D01*
X102016128Y-74004168D01*
X102027900Y-73944984D01*
X102027900Y-73805016D01*
X102016128Y-73745832D01*
X102014832Y-73743892D01*
X102013306Y-73739021D01*
X102011455Y-73734551D01*
X102011854Y-73734385D01*
X101993952Y-73677218D01*
X102003265Y-73627803D01*
X102007964Y-73616385D01*
X102016128Y-73604168D01*
X102019059Y-73589430D01*
X102023653Y-73578270D01*
X102038262Y-73560057D01*
X102049083Y-73539370D01*
X102059715Y-73533314D01*
X102067373Y-73523769D01*
X102089509Y-73516346D01*
X102109797Y-73504792D01*
X102126486Y-73503947D01*
X102133618Y-73501556D01*
X102140309Y-73503247D01*
X102154514Y-73502529D01*
X102159287Y-73503157D01*
X102159292Y-73503159D01*
X102159297Y-73503159D01*
X102278540Y-73503159D01*
X102278542Y-73503159D01*
X102393730Y-73472295D01*
X102497004Y-73412669D01*
X102581327Y-73328346D01*
X102640953Y-73225072D01*
X102671817Y-73109884D01*
X102671817Y-72990634D01*
X102640953Y-72875446D01*
X102640695Y-72875000D01*
X102632963Y-72861607D01*
X102581327Y-72772172D01*
X102497004Y-72687849D01*
X102445367Y-72658036D01*
X102393731Y-72628223D01*
X102336136Y-72612791D01*
X102278542Y-72597359D01*
X102159292Y-72597359D01*
X102159290Y-72597359D01*
X102152890Y-72599074D01*
X102128975Y-72598503D01*
X102105367Y-72602332D01*
X102094687Y-72597684D01*
X102083040Y-72597407D01*
X102063229Y-72583996D01*
X102041300Y-72574455D01*
X102029139Y-72560921D01*
X102025180Y-72558241D01*
X102017711Y-72548202D01*
X102016128Y-72545834D01*
X102016128Y-72545832D01*
X102014837Y-72543901D01*
X101993952Y-72477230D01*
X102012428Y-72409847D01*
X102014814Y-72406133D01*
X102016128Y-72404168D01*
X102027900Y-72344984D01*
X102027900Y-72205016D01*
X102016128Y-72145832D01*
X102014832Y-72143892D01*
X102013306Y-72139021D01*
X102011455Y-72134551D01*
X102011854Y-72134385D01*
X101993952Y-72077218D01*
X102012434Y-72009837D01*
X102014814Y-72006133D01*
X102016128Y-72004168D01*
X102027900Y-71944984D01*
X102027900Y-71805016D01*
X102016128Y-71745832D01*
X102014832Y-71743892D01*
X102013306Y-71739021D01*
X102011455Y-71734551D01*
X102011854Y-71734385D01*
X101993952Y-71677218D01*
X102012434Y-71609837D01*
X102014814Y-71606133D01*
X102016128Y-71604168D01*
X102027900Y-71544984D01*
X102027900Y-71405016D01*
X102016128Y-71345832D01*
X102014832Y-71343892D01*
X102013306Y-71339021D01*
X102011455Y-71334551D01*
X102011854Y-71334385D01*
X101993952Y-71277218D01*
X101998376Y-71242102D01*
X102003693Y-71222777D01*
X102016128Y-71204168D01*
X102027900Y-71144984D01*
X102027900Y-71134808D01*
X102032270Y-71118928D01*
X102045305Y-71097861D01*
X102054582Y-71074887D01*
X102063369Y-71068668D01*
X102069035Y-71059513D01*
X102091394Y-71048836D01*
X102111616Y-71034527D01*
X102129520Y-71030631D01*
X102132086Y-71029407D01*
X102134024Y-71029652D01*
X102139674Y-71028423D01*
X102144980Y-71027900D01*
X102144984Y-71027900D01*
X102204168Y-71016128D01*
X102206107Y-71014832D01*
X102210978Y-71013306D01*
X102215449Y-71011455D01*
X102215614Y-71011854D01*
X102272782Y-70993952D01*
X102340163Y-71012434D01*
X102343866Y-71014814D01*
X102345832Y-71016128D01*
X102405016Y-71027900D01*
X102405017Y-71027900D01*
X102544983Y-71027900D01*
X102544984Y-71027900D01*
X102604168Y-71016128D01*
X102606107Y-71014832D01*
X102610978Y-71013306D01*
X102615449Y-71011455D01*
X102615614Y-71011854D01*
X102672782Y-70993952D01*
X102740163Y-71012434D01*
X102743866Y-71014814D01*
X102745832Y-71016128D01*
X102805016Y-71027900D01*
X102805017Y-71027900D01*
X102944983Y-71027900D01*
X102944984Y-71027900D01*
X103004168Y-71016128D01*
X103006107Y-71014832D01*
X103010978Y-71013306D01*
X103015449Y-71011455D01*
X103015614Y-71011854D01*
X103072782Y-70993952D01*
X103140163Y-71012434D01*
X103143866Y-71014814D01*
X103145832Y-71016128D01*
X103205016Y-71027900D01*
X103205017Y-71027900D01*
X103344983Y-71027900D01*
X103344984Y-71027900D01*
X103404168Y-71016128D01*
X103406107Y-71014832D01*
X103410978Y-71013306D01*
X103415449Y-71011455D01*
X103415614Y-71011854D01*
X103472782Y-70993952D01*
X103540163Y-71012434D01*
X103543866Y-71014814D01*
X103545832Y-71016128D01*
X103605016Y-71027900D01*
X103605017Y-71027900D01*
X103744983Y-71027900D01*
X103744984Y-71027900D01*
X103804168Y-71016128D01*
X103806107Y-71014832D01*
X103810978Y-71013306D01*
X103815449Y-71011455D01*
X103815614Y-71011854D01*
X103872782Y-70993952D01*
X103940163Y-71012434D01*
X103943866Y-71014814D01*
X103945832Y-71016128D01*
X104005016Y-71027900D01*
X104005017Y-71027900D01*
X104144983Y-71027900D01*
X104144984Y-71027900D01*
X104204168Y-71016128D01*
X104206107Y-71014832D01*
X104210978Y-71013306D01*
X104215449Y-71011455D01*
X104215614Y-71011854D01*
X104272782Y-70993952D01*
X104340163Y-71012434D01*
X104343866Y-71014814D01*
X104345832Y-71016128D01*
X104405016Y-71027900D01*
X104405017Y-71027900D01*
X104544983Y-71027900D01*
X104544984Y-71027900D01*
X104604168Y-71016128D01*
X104606107Y-71014832D01*
X104610978Y-71013306D01*
X104615449Y-71011455D01*
X104615614Y-71011854D01*
X104672782Y-70993952D01*
X104740163Y-71012434D01*
X104743866Y-71014814D01*
X104745832Y-71016128D01*
X104805016Y-71027900D01*
X104805017Y-71027900D01*
X104944983Y-71027900D01*
X104944984Y-71027900D01*
X105004168Y-71016128D01*
X105006107Y-71014832D01*
X105010978Y-71013306D01*
X105015449Y-71011455D01*
X105015614Y-71011854D01*
X105072782Y-70993952D01*
X105140163Y-71012434D01*
X105143866Y-71014814D01*
X105145832Y-71016128D01*
X105205016Y-71027900D01*
X105205017Y-71027900D01*
X105344983Y-71027900D01*
X105344984Y-71027900D01*
X105404168Y-71016128D01*
X105406107Y-71014832D01*
X105410978Y-71013306D01*
X105415449Y-71011455D01*
X105415614Y-71011854D01*
X105472782Y-70993952D01*
X105509903Y-70998946D01*
X105528110Y-71004287D01*
X105545832Y-71016128D01*
X105605016Y-71027900D01*
X105608608Y-71027900D01*
X105621470Y-71031673D01*
X105646398Y-71047684D01*
X105672668Y-71061425D01*
X105675480Y-71066363D01*
X105680258Y-71069432D01*
X105692574Y-71096381D01*
X105707243Y-71122141D01*
X105706938Y-71127813D01*
X105709300Y-71132980D01*
X105705089Y-71162317D01*
X105703504Y-71191910D01*
X105701136Y-71198093D01*
X105700975Y-71198479D01*
X105671993Y-71306647D01*
X105670109Y-71313677D01*
X105670109Y-71432927D01*
X105681803Y-71476571D01*
X105700973Y-71548116D01*
X105730786Y-71599752D01*
X105760599Y-71651389D01*
X105844922Y-71735712D01*
X105948196Y-71795338D01*
X106063384Y-71826202D01*
X106063386Y-71826202D01*
X106182632Y-71826202D01*
X106182634Y-71826202D01*
X106297822Y-71795338D01*
X106401096Y-71735712D01*
X106485419Y-71651389D01*
X106545045Y-71548115D01*
X106575909Y-71432927D01*
X106575909Y-71313677D01*
X106545045Y-71198489D01*
X106545043Y-71198485D01*
X106542186Y-71193536D01*
X106539578Y-71182787D01*
X106533026Y-71173877D01*
X106531487Y-71149437D01*
X106525713Y-71125636D01*
X106529330Y-71115183D01*
X106528636Y-71104146D01*
X106540555Y-71082752D01*
X106548566Y-71059609D01*
X106558148Y-71051176D01*
X106562643Y-71043110D01*
X106581503Y-71030624D01*
X106591076Y-71022201D01*
X106601396Y-71016679D01*
X106604168Y-71016128D01*
X106611163Y-71011453D01*
X106616503Y-71008597D01*
X106645004Y-71002651D01*
X106672782Y-70993952D01*
X106678795Y-70995601D01*
X106684900Y-70994328D01*
X106712087Y-71004733D01*
X106740163Y-71012434D01*
X106743866Y-71014814D01*
X106745832Y-71016128D01*
X106805016Y-71027900D01*
X106805017Y-71027900D01*
X106944983Y-71027900D01*
X106944984Y-71027900D01*
X107004168Y-71016128D01*
X107071283Y-70971283D01*
X107116128Y-70904168D01*
X107127900Y-70844984D01*
X107127900Y-70030016D01*
X107116128Y-69970832D01*
X107115632Y-69968338D01*
X107121859Y-69898747D01*
X107149566Y-69856468D01*
X108192639Y-68813394D01*
X108192642Y-68813393D01*
X108210080Y-68795955D01*
X108210081Y-68795955D01*
X108270955Y-68735081D01*
X108303900Y-68655545D01*
X108303900Y-66665996D01*
X108312543Y-66636559D01*
X108319067Y-66606570D01*
X108322822Y-66601552D01*
X108323585Y-66598957D01*
X108340210Y-66578324D01*
X108415639Y-66502895D01*
X108476957Y-66469413D01*
X108527508Y-66468962D01*
X108545457Y-66472532D01*
X108572443Y-66477900D01*
X109602556Y-66477899D01*
X109647158Y-66469028D01*
X109697734Y-66435234D01*
X109731528Y-66384658D01*
X109732873Y-66377899D01*
X109737549Y-66354387D01*
X109740400Y-66340057D01*
X109740399Y-64709944D01*
X109731528Y-64665342D01*
X109731526Y-64665340D01*
X109731526Y-64665338D01*
X109697734Y-64614766D01*
X109697733Y-64614765D01*
X109647158Y-64580972D01*
X109647157Y-64580971D01*
X109647156Y-64580971D01*
X109647154Y-64580970D01*
X109602559Y-64572100D01*
X108572445Y-64572100D01*
X108527841Y-64580972D01*
X108527838Y-64580973D01*
X108477266Y-64614765D01*
X108443471Y-64665343D01*
X108443470Y-64665345D01*
X108434600Y-64709940D01*
X108434600Y-65820501D01*
X108414915Y-65887540D01*
X108398281Y-65908182D01*
X108179902Y-66126562D01*
X107964920Y-66341544D01*
X107964919Y-66341545D01*
X107957796Y-66348668D01*
X107952077Y-66354387D01*
X107890752Y-66387869D01*
X107821061Y-66382882D01*
X107765129Y-66341009D01*
X107740715Y-66275543D01*
X107740399Y-66266728D01*
X107740399Y-64709944D01*
X107731528Y-64665342D01*
X107731526Y-64665340D01*
X107731526Y-64665338D01*
X107697734Y-64614766D01*
X107697733Y-64614765D01*
X107647158Y-64580972D01*
X107647157Y-64580971D01*
X107647156Y-64580971D01*
X107647154Y-64580970D01*
X107602559Y-64572100D01*
X106572445Y-64572100D01*
X106527841Y-64580972D01*
X106527838Y-64580973D01*
X106477266Y-64614765D01*
X106443471Y-64665343D01*
X106443470Y-64665345D01*
X106434600Y-64709940D01*
X106434600Y-66340054D01*
X106443472Y-66384658D01*
X106443473Y-66384661D01*
X106477265Y-66435233D01*
X106477266Y-66435234D01*
X106527842Y-66469028D01*
X106527843Y-66469028D01*
X106527845Y-66469029D01*
X106545457Y-66472532D01*
X106572443Y-66477900D01*
X106710600Y-66477899D01*
X106719285Y-66480449D01*
X106728247Y-66479161D01*
X106752284Y-66490138D01*
X106777639Y-66497583D01*
X106783567Y-66504425D01*
X106791803Y-66508186D01*
X106806089Y-66530417D01*
X106823394Y-66550387D01*
X106825681Y-66560902D01*
X106829577Y-66566964D01*
X106834600Y-66601899D01*
X106834600Y-66679692D01*
X106834599Y-66679706D01*
X106834599Y-66689695D01*
X106834599Y-66790305D01*
X106845231Y-66815972D01*
X106854508Y-66838369D01*
X106873100Y-66883256D01*
X106954447Y-66964603D01*
X106954456Y-66964610D01*
X107127164Y-67137319D01*
X107160649Y-67198641D01*
X107155665Y-67268333D01*
X107127164Y-67312680D01*
X106139581Y-68300264D01*
X106078258Y-68333749D01*
X106008567Y-68328765D01*
X105952633Y-68286893D01*
X105928216Y-68221429D01*
X105927900Y-68212583D01*
X105927900Y-67141052D01*
X105947585Y-67074013D01*
X106000389Y-67028258D01*
X106001814Y-67027618D01*
X106014320Y-67022096D01*
X106038021Y-67011631D01*
X106114131Y-66935521D01*
X106157607Y-66837057D01*
X106160400Y-66812984D01*
X106160400Y-66457016D01*
X106157607Y-66432943D01*
X106156347Y-66430090D01*
X106137705Y-66387869D01*
X106114131Y-66334479D01*
X106038021Y-66258369D01*
X106035503Y-66257257D01*
X105992873Y-66238434D01*
X105939496Y-66193348D01*
X105918969Y-66126562D01*
X105937807Y-66059280D01*
X105990031Y-66012863D01*
X105992873Y-66011566D01*
X106003076Y-66007060D01*
X106038021Y-65991631D01*
X106114131Y-65915521D01*
X106157607Y-65817057D01*
X106160400Y-65792984D01*
X106160400Y-65437016D01*
X106157607Y-65412943D01*
X106149677Y-65394984D01*
X106117356Y-65321784D01*
X106114131Y-65314479D01*
X106038021Y-65238369D01*
X106028475Y-65234154D01*
X106014314Y-65227901D01*
X105960938Y-65182815D01*
X105943817Y-65143373D01*
X105940401Y-65129123D01*
X105940401Y-65074695D01*
X105913175Y-65008968D01*
X105907713Y-64995781D01*
X105901900Y-64981744D01*
X105899603Y-64979447D01*
X105830757Y-64910601D01*
X105830755Y-64910600D01*
X105823689Y-64903534D01*
X105823689Y-64903533D01*
X105823685Y-64903530D01*
X105476869Y-64556714D01*
X105443384Y-64495391D01*
X105440550Y-64469033D01*
X105440550Y-63995399D01*
X105460235Y-63928360D01*
X105513039Y-63882605D01*
X105564545Y-63871399D01*
X105827606Y-63871399D01*
X105872208Y-63862528D01*
X105872211Y-63862525D01*
X105883495Y-63857853D01*
X105884382Y-63859995D01*
X105935268Y-63844054D01*
X105990909Y-63859309D01*
X105991512Y-63857855D01*
X106002791Y-63862527D01*
X106002792Y-63862528D01*
X106002793Y-63862528D01*
X106002795Y-63862529D01*
X106025092Y-63866964D01*
X106047393Y-63871400D01*
X106327506Y-63871399D01*
X106372108Y-63862528D01*
X106372111Y-63862525D01*
X106383395Y-63857853D01*
X106384269Y-63859963D01*
X106435279Y-63843988D01*
X106491022Y-63859277D01*
X106491612Y-63857855D01*
X106502891Y-63862527D01*
X106502892Y-63862528D01*
X106502893Y-63862528D01*
X106502895Y-63862529D01*
X106525192Y-63866964D01*
X106547493Y-63871400D01*
X106827606Y-63871399D01*
X106872208Y-63862528D01*
X106872211Y-63862525D01*
X106883495Y-63857853D01*
X106884382Y-63859995D01*
X106935268Y-63844054D01*
X106990909Y-63859309D01*
X106991512Y-63857855D01*
X107002791Y-63862527D01*
X107002792Y-63862528D01*
X107002793Y-63862528D01*
X107002795Y-63862529D01*
X107025092Y-63866964D01*
X107047393Y-63871400D01*
X107327506Y-63871399D01*
X107372108Y-63862528D01*
X107372111Y-63862525D01*
X107383395Y-63857853D01*
X107384269Y-63859963D01*
X107435279Y-63843988D01*
X107491022Y-63859277D01*
X107491612Y-63857855D01*
X107502891Y-63862527D01*
X107502892Y-63862528D01*
X107502893Y-63862528D01*
X107502895Y-63862529D01*
X107525192Y-63866964D01*
X107547493Y-63871400D01*
X107827606Y-63871399D01*
X107872208Y-63862528D01*
X107881232Y-63856497D01*
X107947909Y-63835619D01*
X108015289Y-63854102D01*
X108018993Y-63856482D01*
X108027892Y-63862428D01*
X108027893Y-63862428D01*
X108027895Y-63862429D01*
X108050192Y-63866864D01*
X108072493Y-63871300D01*
X108602606Y-63871299D01*
X108647208Y-63862428D01*
X108697784Y-63828634D01*
X108731578Y-63778058D01*
X108731581Y-63778043D01*
X108740450Y-63733459D01*
X108740450Y-63324000D01*
X108760135Y-63256961D01*
X108812939Y-63211206D01*
X108864450Y-63200000D01*
X109400000Y-63200000D01*
X109400000Y-62189307D01*
X111834599Y-62189307D01*
X111859689Y-62315438D01*
X111859691Y-62315444D01*
X111908906Y-62434261D01*
X111908911Y-62434270D01*
X111980359Y-62541198D01*
X111980362Y-62541202D01*
X112071297Y-62632137D01*
X112071301Y-62632140D01*
X112178231Y-62703589D01*
X112178232Y-62703589D01*
X112178236Y-62703592D01*
X112194553Y-62710350D01*
X112210117Y-62722893D01*
X112228303Y-62731198D01*
X112236766Y-62744366D01*
X112248955Y-62754189D01*
X112255268Y-62773158D01*
X112266077Y-62789976D01*
X112270039Y-62817533D01*
X112271021Y-62820483D01*
X112271100Y-62824911D01*
X112271100Y-62955383D01*
X112251415Y-63022422D01*
X112215275Y-63056884D01*
X112215858Y-63057644D01*
X112209416Y-63062586D01*
X112125089Y-63146913D01*
X112065464Y-63250185D01*
X112034600Y-63365375D01*
X112034600Y-63484624D01*
X112065464Y-63599814D01*
X112095277Y-63651450D01*
X112125090Y-63703087D01*
X112209413Y-63787410D01*
X112312687Y-63847036D01*
X112427875Y-63877900D01*
X112427877Y-63877900D01*
X112547123Y-63877900D01*
X112547125Y-63877900D01*
X112662313Y-63847036D01*
X112765587Y-63787410D01*
X112849910Y-63703087D01*
X112909536Y-63599813D01*
X112940400Y-63484625D01*
X112940400Y-63365375D01*
X112909536Y-63250187D01*
X112891925Y-63219685D01*
X112849910Y-63146913D01*
X112765583Y-63062586D01*
X112759142Y-63057644D01*
X112759974Y-63056558D01*
X112757611Y-63054080D01*
X112746697Y-63049096D01*
X112733948Y-63029259D01*
X112717680Y-63012194D01*
X112714465Y-62998942D01*
X112708923Y-62990318D01*
X112703900Y-62955383D01*
X112703900Y-62824911D01*
X112723585Y-62757872D01*
X112776389Y-62712117D01*
X112780411Y-62710365D01*
X112796764Y-62703592D01*
X112903699Y-62632140D01*
X112994640Y-62541199D01*
X113066092Y-62434264D01*
X113115309Y-62315444D01*
X113135006Y-62216424D01*
X113140400Y-62189307D01*
X113140400Y-62060692D01*
X113115310Y-61934561D01*
X113115309Y-61934560D01*
X113115309Y-61934556D01*
X113066092Y-61815736D01*
X113066091Y-61815735D01*
X113066088Y-61815729D01*
X112994640Y-61708801D01*
X112994637Y-61708797D01*
X112903702Y-61617862D01*
X112903698Y-61617859D01*
X112796770Y-61546411D01*
X112796761Y-61546406D01*
X112677944Y-61497191D01*
X112677938Y-61497189D01*
X112551807Y-61472100D01*
X112551805Y-61472100D01*
X112423195Y-61472100D01*
X112423193Y-61472100D01*
X112297061Y-61497189D01*
X112297055Y-61497191D01*
X112178238Y-61546406D01*
X112178229Y-61546411D01*
X112071301Y-61617859D01*
X112071297Y-61617862D01*
X111980362Y-61708797D01*
X111980359Y-61708801D01*
X111908911Y-61815729D01*
X111908906Y-61815738D01*
X111859691Y-61934555D01*
X111859689Y-61934561D01*
X111834600Y-62060692D01*
X111834600Y-62060695D01*
X111834600Y-62189305D01*
X111834600Y-62189307D01*
X111834599Y-62189307D01*
X109400000Y-62189307D01*
X109400000Y-61795199D01*
X109419685Y-61728160D01*
X109472489Y-61682405D01*
X109524000Y-61671199D01*
X110252505Y-61671199D01*
X110252506Y-61671199D01*
X110297108Y-61662328D01*
X110347684Y-61628534D01*
X110381478Y-61577958D01*
X110390350Y-61533357D01*
X110390349Y-60303244D01*
X110381478Y-60258642D01*
X110381476Y-60258640D01*
X110381476Y-60258638D01*
X110347684Y-60208066D01*
X110297108Y-60174272D01*
X110297107Y-60174271D01*
X110297106Y-60174271D01*
X110297104Y-60174270D01*
X110252509Y-60165400D01*
X110252507Y-60165400D01*
X109524000Y-60165400D01*
X109456961Y-60145715D01*
X109411206Y-60092911D01*
X109400000Y-60041400D01*
X109400000Y-59195299D01*
X109419685Y-59128260D01*
X109472489Y-59082505D01*
X109524000Y-59071299D01*
X110252505Y-59071299D01*
X110252506Y-59071299D01*
X110297108Y-59062428D01*
X110347684Y-59028634D01*
X110381478Y-58978058D01*
X110390350Y-58933457D01*
X110390349Y-58304297D01*
X110397283Y-58280683D01*
X110400045Y-58256231D01*
X110406951Y-58247753D01*
X110410033Y-58237260D01*
X110428633Y-58221142D01*
X110444178Y-58202064D01*
X110454572Y-58198666D01*
X110462837Y-58191505D01*
X110487197Y-58188002D01*
X110510590Y-58180356D01*
X110527272Y-58182240D01*
G37*
%TD.AperFunction*%
%TA.AperFunction,Conductor*%
G36*
X95098423Y-80997585D02*
G01*
X95119065Y-81014219D01*
X96066027Y-81961181D01*
X96066040Y-81961196D01*
X96073101Y-81968257D01*
X96144243Y-82039399D01*
X96198693Y-82061952D01*
X96237195Y-82077901D01*
X96337805Y-82077901D01*
X96337807Y-82077900D01*
X97522753Y-82077900D01*
X97522761Y-82077901D01*
X97547973Y-82077901D01*
X97615012Y-82097586D01*
X97660767Y-82150390D01*
X97670711Y-82219548D01*
X97669591Y-82226091D01*
X97659600Y-82276321D01*
X97659600Y-82823675D01*
X97673548Y-82893801D01*
X97673549Y-82893803D01*
X97701866Y-82936181D01*
X97726681Y-82973319D01*
X97806200Y-83026452D01*
X97806203Y-83026452D01*
X97806204Y-83026453D01*
X97841260Y-83033426D01*
X97876321Y-83040400D01*
X97925609Y-83040399D01*
X97955056Y-83049045D01*
X97985037Y-83055567D01*
X97990048Y-83059318D01*
X97992648Y-83060082D01*
X98013291Y-83076718D01*
X98086992Y-83150419D01*
X98120477Y-83211742D01*
X98115493Y-83281434D01*
X98073621Y-83337367D01*
X98008157Y-83361784D01*
X97999311Y-83362100D01*
X94933616Y-83362100D01*
X94866577Y-83342415D01*
X94845935Y-83325781D01*
X94476719Y-82956565D01*
X94443234Y-82895242D01*
X94440400Y-82868884D01*
X94440400Y-82622785D01*
X94460085Y-82555746D01*
X94461278Y-82553923D01*
X94501452Y-82493800D01*
X94515400Y-82423679D01*
X94515399Y-81876322D01*
X94501452Y-81806200D01*
X94501451Y-81806198D01*
X94501450Y-81806196D01*
X94468830Y-81757378D01*
X94448319Y-81726681D01*
X94368800Y-81673548D01*
X94368798Y-81673547D01*
X94368795Y-81673546D01*
X94298681Y-81659600D01*
X94076322Y-81659600D01*
X94027678Y-81669276D01*
X93958086Y-81663047D01*
X93914589Y-81634103D01*
X93903516Y-81622715D01*
X93901899Y-81618811D01*
X93830757Y-81547669D01*
X93830753Y-81547667D01*
X93710166Y-81427080D01*
X93676681Y-81365757D01*
X93681665Y-81296065D01*
X93723537Y-81240132D01*
X93789001Y-81215715D01*
X93797846Y-81215399D01*
X93798678Y-81215399D01*
X93868800Y-81201452D01*
X93868802Y-81201450D01*
X93880087Y-81196777D01*
X93880530Y-81197848D01*
X93935276Y-81180701D01*
X93994816Y-81197029D01*
X93994920Y-81196779D01*
X93996912Y-81197604D01*
X94002658Y-81199180D01*
X94006181Y-81201444D01*
X94006197Y-81201450D01*
X94006200Y-81201452D01*
X94006202Y-81201452D01*
X94006204Y-81201453D01*
X94029784Y-81206143D01*
X94076321Y-81215400D01*
X94298678Y-81215399D01*
X94368800Y-81201452D01*
X94448319Y-81148319D01*
X94501452Y-81068800D01*
X94501453Y-81068793D01*
X94506127Y-81057514D01*
X94509509Y-81058915D01*
X94532075Y-81015788D01*
X94592794Y-80981221D01*
X94621298Y-80977900D01*
X95031384Y-80977900D01*
X95098423Y-80997585D01*
G37*
%TD.AperFunction*%
%TA.AperFunction,Conductor*%
G36*
X105492065Y-77874241D02*
G01*
X105512058Y-77874599D01*
X105537160Y-77886610D01*
X105540163Y-77887434D01*
X105543866Y-77889814D01*
X105545832Y-77891128D01*
X105605016Y-77902900D01*
X105605017Y-77902900D01*
X105698100Y-77902900D01*
X105765139Y-77922585D01*
X105810894Y-77975389D01*
X105822100Y-78026900D01*
X105822100Y-79381383D01*
X105802415Y-79448422D01*
X105785781Y-79469064D01*
X102919065Y-82335781D01*
X102857742Y-82369266D01*
X102831384Y-82372100D01*
X100955695Y-82372100D01*
X100888656Y-82352415D01*
X100842901Y-82299611D01*
X100842261Y-82298187D01*
X100823434Y-82255549D01*
X100814131Y-82234479D01*
X100738021Y-82158369D01*
X100738019Y-82158368D01*
X100692873Y-82138434D01*
X100639496Y-82093348D01*
X100618969Y-82026562D01*
X100637807Y-81959280D01*
X100674395Y-81921680D01*
X100683200Y-81915836D01*
X100738021Y-81891631D01*
X100774210Y-81855441D01*
X100784550Y-81848580D01*
X100806548Y-81841768D01*
X100826756Y-81830734D01*
X100850388Y-81828193D01*
X100851293Y-81827913D01*
X100851767Y-81828044D01*
X100853114Y-81827900D01*
X101798541Y-81827900D01*
X101865580Y-81847585D01*
X101886222Y-81864219D01*
X101909413Y-81887410D01*
X102012687Y-81947036D01*
X102127875Y-81977900D01*
X102127877Y-81977900D01*
X102247123Y-81977900D01*
X102247125Y-81977900D01*
X102362313Y-81947036D01*
X102465587Y-81887410D01*
X102549910Y-81803087D01*
X102609536Y-81699813D01*
X102640400Y-81584625D01*
X102640400Y-81465375D01*
X102609536Y-81350187D01*
X102609203Y-81349611D01*
X102586681Y-81310602D01*
X102549910Y-81246913D01*
X102465587Y-81162590D01*
X102413950Y-81132777D01*
X102362314Y-81102964D01*
X102304719Y-81087532D01*
X102247125Y-81072100D01*
X102127875Y-81072100D01*
X102012685Y-81102964D01*
X101909413Y-81162590D01*
X101909410Y-81162592D01*
X101886222Y-81185781D01*
X101824899Y-81219266D01*
X101798541Y-81222100D01*
X100873114Y-81222100D01*
X100806075Y-81202415D01*
X100785433Y-81185781D01*
X100738021Y-81138369D01*
X100639558Y-81094893D01*
X100615485Y-81092100D01*
X100615484Y-81092100D01*
X100444327Y-81092100D01*
X100377288Y-81072415D01*
X100356646Y-81055781D01*
X99740447Y-80439581D01*
X99706962Y-80378258D01*
X99711946Y-80308566D01*
X99753818Y-80252633D01*
X99819282Y-80228216D01*
X99828128Y-80227900D01*
X101276967Y-80227900D01*
X101344006Y-80247585D01*
X101389761Y-80300389D01*
X101390364Y-80301730D01*
X101400869Y-80325521D01*
X101476979Y-80401631D01*
X101575443Y-80445107D01*
X101599516Y-80447900D01*
X101599517Y-80447900D01*
X101955483Y-80447900D01*
X101955484Y-80447900D01*
X101979557Y-80445107D01*
X102078021Y-80401631D01*
X102154131Y-80325521D01*
X102174066Y-80280373D01*
X102219152Y-80226996D01*
X102285938Y-80206469D01*
X102353220Y-80225307D01*
X102399637Y-80277531D01*
X102400934Y-80280373D01*
X102414978Y-80312179D01*
X102420869Y-80325521D01*
X102496979Y-80401631D01*
X102595443Y-80445107D01*
X102619516Y-80447900D01*
X102619517Y-80447900D01*
X102975483Y-80447900D01*
X102975484Y-80447900D01*
X102999557Y-80445107D01*
X103098021Y-80401631D01*
X103174131Y-80325521D01*
X103184599Y-80301814D01*
X103229685Y-80248438D01*
X103273487Y-80230355D01*
X103285639Y-80227901D01*
X103337805Y-80227901D01*
X103376306Y-80211952D01*
X103430757Y-80189399D01*
X103501899Y-80118257D01*
X103501899Y-80118254D01*
X103513814Y-80106340D01*
X103513817Y-80106335D01*
X104618255Y-79001899D01*
X104618257Y-79001899D01*
X104647578Y-78972577D01*
X104690272Y-78949266D01*
X104708896Y-78939096D01*
X104708897Y-78939096D01*
X104708899Y-78939095D01*
X104752790Y-78942235D01*
X104778587Y-78944080D01*
X104778589Y-78944080D01*
X104778591Y-78944081D01*
X104778592Y-78944082D01*
X104785329Y-78946822D01*
X104849279Y-78975059D01*
X104873766Y-78977900D01*
X104873767Y-78977900D01*
X105301233Y-78977900D01*
X105301234Y-78977900D01*
X105325721Y-78975059D01*
X105425896Y-78930828D01*
X105503328Y-78853396D01*
X105547559Y-78753221D01*
X105550400Y-78728734D01*
X105550400Y-78361266D01*
X105547559Y-78336779D01*
X105503328Y-78236604D01*
X105425896Y-78159172D01*
X105425893Y-78159170D01*
X105425892Y-78159170D01*
X105359592Y-78129896D01*
X105306215Y-78084810D01*
X105285687Y-78018024D01*
X105304525Y-77950742D01*
X105356748Y-77904325D01*
X105385483Y-77894844D01*
X105404168Y-77891128D01*
X105406107Y-77889832D01*
X105410978Y-77888306D01*
X105415449Y-77886455D01*
X105415614Y-77886854D01*
X105425186Y-77883857D01*
X105442199Y-77873349D01*
X105457847Y-77873629D01*
X105472782Y-77868952D01*
X105492065Y-77874241D01*
G37*
%TD.AperFunction*%
%TA.AperFunction,Conductor*%
G36*
X98197711Y-79757585D02*
G01*
X98218353Y-79774219D01*
X99878281Y-81434146D01*
X99911766Y-81495469D01*
X99914600Y-81521827D01*
X99914600Y-81692985D01*
X99917393Y-81717057D01*
X99917393Y-81717059D01*
X99956753Y-81806200D01*
X99960869Y-81815521D01*
X100036979Y-81891631D01*
X100060236Y-81901900D01*
X100082127Y-81911566D01*
X100135503Y-81956652D01*
X100156030Y-82023439D01*
X100137191Y-82090721D01*
X100108719Y-82122449D01*
X100096429Y-82132119D01*
X100036979Y-82158369D01*
X99960869Y-82234479D01*
X99957954Y-82241079D01*
X99939566Y-82255549D01*
X99924032Y-82261772D01*
X99911068Y-82272357D01*
X99883906Y-82277849D01*
X99874708Y-82281535D01*
X99870082Y-82280644D01*
X99862887Y-82282100D01*
X98915745Y-82282100D01*
X98848706Y-82262415D01*
X98808590Y-82216119D01*
X98808238Y-82216355D01*
X98806362Y-82213547D01*
X98802951Y-82209611D01*
X98801491Y-82206258D01*
X98769492Y-82158369D01*
X98748319Y-82126681D01*
X98668800Y-82073548D01*
X98668798Y-82073547D01*
X98668795Y-82073546D01*
X98598681Y-82059600D01*
X98376324Y-82059600D01*
X98323967Y-82070014D01*
X98306200Y-82073548D01*
X98306199Y-82073548D01*
X98306196Y-82073549D01*
X98294915Y-82078222D01*
X98294475Y-82077159D01*
X98272296Y-82084095D01*
X98239710Y-82094298D01*
X98239689Y-82094292D01*
X98239669Y-82094299D01*
X98206185Y-82085100D01*
X98180187Y-82077967D01*
X98180083Y-82078221D01*
X98178067Y-82077385D01*
X98172330Y-82075812D01*
X98172315Y-82075795D01*
X98172295Y-82075790D01*
X98168820Y-82073555D01*
X98168799Y-82073547D01*
X98098682Y-82059600D01*
X98009914Y-82059600D01*
X97942875Y-82039915D01*
X97897120Y-81987111D01*
X97887176Y-81917953D01*
X97916201Y-81854397D01*
X97922214Y-81847938D01*
X98113315Y-81656838D01*
X98113319Y-81656836D01*
X98130756Y-81639399D01*
X98130757Y-81639399D01*
X98159875Y-81610279D01*
X98178652Y-81594868D01*
X98248319Y-81548319D01*
X98301452Y-81468800D01*
X98315400Y-81398679D01*
X98315399Y-80851322D01*
X98301452Y-80781200D01*
X98301451Y-80781198D01*
X98301450Y-80781196D01*
X98271379Y-80736193D01*
X98248319Y-80701681D01*
X98168800Y-80648548D01*
X98168798Y-80648547D01*
X98168795Y-80648546D01*
X98098682Y-80634600D01*
X97917758Y-80634600D01*
X97850719Y-80614915D01*
X97804964Y-80562111D01*
X97795020Y-80492953D01*
X97824045Y-80429397D01*
X97830051Y-80422945D01*
X97849910Y-80403087D01*
X97909536Y-80299813D01*
X97940400Y-80184625D01*
X97940400Y-80065375D01*
X97909536Y-79950187D01*
X97909535Y-79950186D01*
X97909535Y-79950184D01*
X97894360Y-79923902D01*
X97892927Y-79917999D01*
X97888952Y-79913411D01*
X97884787Y-79884446D01*
X97877886Y-79856002D01*
X97879872Y-79850263D01*
X97879008Y-79844253D01*
X97891165Y-79817632D01*
X97900737Y-79789975D01*
X97905510Y-79786221D01*
X97908033Y-79780697D01*
X97932654Y-79764873D01*
X97955658Y-79746783D01*
X97963009Y-79745366D01*
X97966811Y-79742923D01*
X98001746Y-79737900D01*
X98130672Y-79737900D01*
X98197711Y-79757585D01*
G37*
%TD.AperFunction*%
%TA.AperFunction,Conductor*%
G36*
X93753220Y-79675307D02*
G01*
X93799637Y-79727531D01*
X93800934Y-79730373D01*
X93820294Y-79774219D01*
X93820869Y-79775521D01*
X93896979Y-79851631D01*
X93995443Y-79895107D01*
X94019516Y-79897900D01*
X94019517Y-79897900D01*
X94375483Y-79897900D01*
X94375484Y-79897900D01*
X94399557Y-79895107D01*
X94498021Y-79851631D01*
X94574131Y-79775521D01*
X94574131Y-79775520D01*
X94575433Y-79774219D01*
X94636756Y-79740734D01*
X94663114Y-79737900D01*
X95211886Y-79737900D01*
X95278925Y-79757585D01*
X95299567Y-79774219D01*
X95336979Y-79811631D01*
X95435443Y-79855107D01*
X95459516Y-79857900D01*
X95459517Y-79857900D01*
X95915483Y-79857900D01*
X95915484Y-79857900D01*
X95939557Y-79855107D01*
X96038021Y-79811631D01*
X96075433Y-79774219D01*
X96136756Y-79740734D01*
X96163114Y-79737900D01*
X96973254Y-79737900D01*
X97040293Y-79757585D01*
X97086048Y-79810389D01*
X97095992Y-79879547D01*
X97080640Y-79923902D01*
X97065464Y-79950184D01*
X97043343Y-80032746D01*
X97034600Y-80065375D01*
X97034600Y-80184625D01*
X97040203Y-80205536D01*
X97065464Y-80299814D01*
X97080308Y-80325523D01*
X97125090Y-80403087D01*
X97125092Y-80403089D01*
X97198281Y-80476278D01*
X97212984Y-80503205D01*
X97229577Y-80529024D01*
X97230468Y-80535224D01*
X97231766Y-80537601D01*
X97234600Y-80563959D01*
X97234600Y-80652214D01*
X97214915Y-80719253D01*
X97213703Y-80721104D01*
X97173547Y-80781201D01*
X97173546Y-80781204D01*
X97159600Y-80851316D01*
X97159600Y-81398676D01*
X97164620Y-81423911D01*
X97158391Y-81493502D01*
X97115527Y-81548679D01*
X97049637Y-81571922D01*
X97043002Y-81572100D01*
X96443616Y-81572100D01*
X96376577Y-81552415D01*
X96355935Y-81535781D01*
X95418622Y-80598468D01*
X95401900Y-80581746D01*
X95401899Y-80581743D01*
X95330757Y-80510601D01*
X95274768Y-80487410D01*
X95260696Y-80481581D01*
X95260695Y-80481580D01*
X95237805Y-80472099D01*
X95137195Y-80472099D01*
X95122761Y-80472099D01*
X95122753Y-80472100D01*
X94621297Y-80472100D01*
X94554258Y-80452415D01*
X94508503Y-80399611D01*
X94506191Y-80392452D01*
X94506124Y-80392481D01*
X94501450Y-80381196D01*
X94480081Y-80349217D01*
X94448319Y-80301681D01*
X94368800Y-80248548D01*
X94368798Y-80248547D01*
X94368795Y-80248546D01*
X94298681Y-80234600D01*
X94076324Y-80234600D01*
X94026814Y-80244448D01*
X94006200Y-80248548D01*
X94006199Y-80248548D01*
X94006196Y-80248549D01*
X93994915Y-80253222D01*
X93994472Y-80252152D01*
X93939710Y-80269298D01*
X93880187Y-80252967D01*
X93880083Y-80253221D01*
X93878067Y-80252385D01*
X93872330Y-80250812D01*
X93868820Y-80248555D01*
X93868799Y-80248547D01*
X93798681Y-80234600D01*
X93798679Y-80234600D01*
X93798606Y-80234600D01*
X93570231Y-80234601D01*
X93570230Y-80233379D01*
X93561707Y-80231762D01*
X93546753Y-80233913D01*
X93528075Y-80225383D01*
X93507904Y-80221557D01*
X93496940Y-80211164D01*
X93483197Y-80204888D01*
X93472095Y-80187613D01*
X93457196Y-80173490D01*
X93452989Y-80157884D01*
X93445423Y-80146110D01*
X93440400Y-80111175D01*
X93440400Y-79940614D01*
X93460085Y-79873575D01*
X93476719Y-79852933D01*
X93512020Y-79817632D01*
X93554131Y-79775521D01*
X93574066Y-79730373D01*
X93619152Y-79676996D01*
X93685938Y-79656469D01*
X93753220Y-79675307D01*
G37*
%TD.AperFunction*%
%TA.AperFunction,Conductor*%
G36*
X99372253Y-58184177D02*
G01*
X99380986Y-58183240D01*
X99395693Y-58190604D01*
X99425804Y-58198861D01*
X99436945Y-58211262D01*
X99443460Y-58214524D01*
X99450421Y-58226259D01*
X99472500Y-58250834D01*
X99477150Y-58271325D01*
X99479104Y-58274618D01*
X99478939Y-58279205D01*
X99484650Y-58304365D01*
X99484650Y-58933454D01*
X99493522Y-58978058D01*
X99493523Y-58978061D01*
X99527315Y-59028633D01*
X99527316Y-59028634D01*
X99577892Y-59062428D01*
X99577893Y-59062428D01*
X99577895Y-59062429D01*
X99600192Y-59066864D01*
X99622493Y-59071300D01*
X100276000Y-59071299D01*
X100343039Y-59090983D01*
X100388794Y-59143787D01*
X100400000Y-59195299D01*
X100400000Y-63200000D01*
X101010551Y-63200000D01*
X101077590Y-63219685D01*
X101123345Y-63272489D01*
X101134551Y-63324000D01*
X101134551Y-63733456D01*
X101141715Y-63769477D01*
X101143422Y-63778058D01*
X101143423Y-63778061D01*
X101177215Y-63828633D01*
X101177216Y-63828634D01*
X101227792Y-63862428D01*
X101227793Y-63862428D01*
X101227795Y-63862429D01*
X101250092Y-63866864D01*
X101272393Y-63871300D01*
X101802506Y-63871299D01*
X101847108Y-63862428D01*
X101897684Y-63828634D01*
X101931478Y-63778058D01*
X101931481Y-63778043D01*
X101940350Y-63733459D01*
X101940350Y-63324000D01*
X101960035Y-63256961D01*
X102012839Y-63211206D01*
X102064350Y-63200000D01*
X102785550Y-63200000D01*
X102852589Y-63219685D01*
X102898344Y-63272489D01*
X102909550Y-63324000D01*
X102909550Y-63681799D01*
X102889865Y-63748838D01*
X102873234Y-63769477D01*
X102865102Y-63777609D01*
X102865098Y-63777614D01*
X102812057Y-63869485D01*
X102812057Y-63869486D01*
X102784600Y-63971957D01*
X102784600Y-64306751D01*
X102764915Y-64373790D01*
X102748281Y-64394432D01*
X102556933Y-64585781D01*
X102495610Y-64619266D01*
X102469252Y-64622100D01*
X100305749Y-64622100D01*
X100238710Y-64602415D01*
X100218068Y-64585781D01*
X99226719Y-63594432D01*
X99193234Y-63533109D01*
X99190400Y-63506751D01*
X99190400Y-61895264D01*
X99190400Y-61878046D01*
X99190401Y-61878043D01*
X99190401Y-61771957D01*
X99162943Y-61669487D01*
X99162943Y-61669486D01*
X99109901Y-61577613D01*
X99034887Y-61502599D01*
X99034886Y-61502598D01*
X99029514Y-61497226D01*
X99029497Y-61497211D01*
X98316974Y-60784688D01*
X98316962Y-60784674D01*
X98234886Y-60702598D01*
X98143014Y-60649557D01*
X98143011Y-60649556D01*
X98138459Y-60648336D01*
X98121358Y-60643754D01*
X98040543Y-60622099D01*
X98001439Y-60622099D01*
X97990316Y-60620053D01*
X97968814Y-60609198D01*
X97945709Y-60602414D01*
X97938192Y-60593739D01*
X97927944Y-60588566D01*
X97915723Y-60567808D01*
X97899954Y-60549610D01*
X97894651Y-60532017D01*
X97892496Y-60528356D01*
X97892616Y-60525266D01*
X97890275Y-60517497D01*
X97875458Y-60423949D01*
X97875457Y-60423947D01*
X97875457Y-60423945D01*
X97817516Y-60310229D01*
X97817514Y-60310227D01*
X97817511Y-60310223D01*
X97727276Y-60219988D01*
X97727272Y-60219985D01*
X97727271Y-60219984D01*
X97613555Y-60162043D01*
X97613553Y-60162042D01*
X97613550Y-60162041D01*
X97519213Y-60147100D01*
X97519208Y-60147100D01*
X96955792Y-60147100D01*
X96955787Y-60147100D01*
X96861449Y-60162041D01*
X96861445Y-60162042D01*
X96861445Y-60162043D01*
X96837448Y-60174270D01*
X96747727Y-60219985D01*
X96747723Y-60219988D01*
X96657488Y-60310223D01*
X96657485Y-60310227D01*
X96599541Y-60423949D01*
X96584600Y-60518286D01*
X96584600Y-60898173D01*
X96564915Y-60965212D01*
X96548281Y-60985854D01*
X95095120Y-62439014D01*
X95095116Y-62439019D01*
X95079985Y-62465227D01*
X95029417Y-62513442D01*
X95022690Y-62516658D01*
X95013354Y-62520780D01*
X94933280Y-62600855D01*
X94933278Y-62600859D01*
X94887538Y-62704447D01*
X94887538Y-62704449D01*
X94884600Y-62729772D01*
X94884600Y-63845227D01*
X94887538Y-63870550D01*
X94887538Y-63870552D01*
X94913064Y-63928360D01*
X94933280Y-63974145D01*
X95013355Y-64054220D01*
X95116950Y-64099962D01*
X95142274Y-64102900D01*
X95142275Y-64102900D01*
X95532725Y-64102900D01*
X95532726Y-64102900D01*
X95558050Y-64099962D01*
X95661645Y-64054220D01*
X95741720Y-63974145D01*
X95787462Y-63870550D01*
X95790400Y-63845226D01*
X95790400Y-62729774D01*
X95787462Y-62704450D01*
X95787461Y-62704447D01*
X95785014Y-62695453D01*
X95788527Y-62694496D01*
X95781741Y-62642831D01*
X95811539Y-62579633D01*
X95816557Y-62574308D01*
X96566610Y-61824255D01*
X96627931Y-61790772D01*
X96697623Y-61795756D01*
X96715789Y-61804264D01*
X96730218Y-61812505D01*
X96747729Y-61830016D01*
X96861445Y-61887957D01*
X96862653Y-61888148D01*
X96872100Y-61893544D01*
X96894348Y-61916661D01*
X96917691Y-61938707D01*
X96918521Y-61941778D01*
X96920550Y-61943886D01*
X96924499Y-61963878D01*
X96934600Y-62001218D01*
X96934600Y-62448172D01*
X96914915Y-62515211D01*
X96898282Y-62535853D01*
X96833280Y-62600855D01*
X96833278Y-62600859D01*
X96787538Y-62704447D01*
X96787538Y-62704449D01*
X96784600Y-62729772D01*
X96784600Y-63845227D01*
X96787538Y-63870550D01*
X96787538Y-63870552D01*
X96813064Y-63928360D01*
X96833280Y-63974145D01*
X96913355Y-64054220D01*
X97016950Y-64099962D01*
X97042274Y-64102900D01*
X97042275Y-64102900D01*
X97432725Y-64102900D01*
X97432726Y-64102900D01*
X97458050Y-64099962D01*
X97561645Y-64054220D01*
X97641720Y-63974145D01*
X97687462Y-63870550D01*
X97690400Y-63845226D01*
X97690400Y-62729774D01*
X97687462Y-62704450D01*
X97683489Y-62695453D01*
X97660254Y-62642831D01*
X97641720Y-62600855D01*
X97576718Y-62535853D01*
X97543234Y-62474529D01*
X97540400Y-62448172D01*
X97540400Y-62001218D01*
X97560085Y-61934179D01*
X97608105Y-61890733D01*
X97613552Y-61887957D01*
X97613555Y-61887957D01*
X97727271Y-61830016D01*
X97817516Y-61739771D01*
X97846347Y-61683185D01*
X97894321Y-61632389D01*
X97962142Y-61615594D01*
X98028277Y-61638131D01*
X98044513Y-61651799D01*
X98348281Y-61955567D01*
X98381766Y-62016890D01*
X98384600Y-62043248D01*
X98384600Y-63671953D01*
X98384599Y-63671957D01*
X98384599Y-63778043D01*
X98406254Y-63858858D01*
X98408635Y-63867743D01*
X98412056Y-63880511D01*
X98412057Y-63880514D01*
X98465098Y-63972386D01*
X98547174Y-64054462D01*
X98547188Y-64054474D01*
X99603132Y-65110419D01*
X99636617Y-65171742D01*
X99631633Y-65241434D01*
X99589761Y-65297367D01*
X99524297Y-65321784D01*
X99515451Y-65322100D01*
X98580787Y-65322100D01*
X98486449Y-65337041D01*
X98372727Y-65394985D01*
X98372723Y-65394988D01*
X98295095Y-65472617D01*
X98233772Y-65506102D01*
X98164080Y-65501118D01*
X98119733Y-65472617D01*
X97967236Y-65320120D01*
X97967235Y-65320119D01*
X97898165Y-65280242D01*
X97821128Y-65259599D01*
X97814400Y-65259599D01*
X97747361Y-65239914D01*
X97701606Y-65187110D01*
X97690400Y-65135599D01*
X97690400Y-65004774D01*
X97687462Y-64979450D01*
X97641720Y-64875855D01*
X97561645Y-64795780D01*
X97481871Y-64760556D01*
X97458051Y-64750038D01*
X97432727Y-64747100D01*
X97432726Y-64747100D01*
X97042274Y-64747100D01*
X97042272Y-64747100D01*
X97016949Y-64750038D01*
X97016947Y-64750038D01*
X96913359Y-64795778D01*
X96913357Y-64795779D01*
X96913355Y-64795780D01*
X96913354Y-64795780D01*
X96913352Y-64795782D01*
X96833282Y-64875852D01*
X96833278Y-64875859D01*
X96787538Y-64979447D01*
X96787538Y-64979449D01*
X96784600Y-65004772D01*
X96784600Y-66120227D01*
X96787538Y-66145550D01*
X96787538Y-66145552D01*
X96807483Y-66190721D01*
X96833280Y-66249145D01*
X96913355Y-66329220D01*
X97016950Y-66374962D01*
X97042274Y-66377900D01*
X97042275Y-66377900D01*
X97432725Y-66377900D01*
X97432726Y-66377900D01*
X97458050Y-66374962D01*
X97561645Y-66329220D01*
X97641720Y-66249145D01*
X97687462Y-66145550D01*
X97687462Y-66145546D01*
X97690451Y-66138778D01*
X97735537Y-66085402D01*
X97802323Y-66064874D01*
X97869606Y-66083712D01*
X97891567Y-66101183D01*
X98007765Y-66217381D01*
X98076835Y-66257258D01*
X98106015Y-66265076D01*
X98165674Y-66301441D01*
X98196203Y-66364288D01*
X98187908Y-66433664D01*
X98161601Y-66472532D01*
X97157620Y-67476513D01*
X97157618Y-67476516D01*
X97117742Y-67545584D01*
X97117742Y-67545585D01*
X97097099Y-67622622D01*
X97097099Y-67622624D01*
X97097099Y-67712367D01*
X97097100Y-67712380D01*
X97097100Y-70485253D01*
X97097099Y-70485271D01*
X97097099Y-70492866D01*
X97097099Y-70572622D01*
X97114980Y-70639353D01*
X97117742Y-70649659D01*
X97157618Y-70718727D01*
X97157620Y-70718730D01*
X97800534Y-71361643D01*
X97800544Y-71361654D01*
X97804874Y-71365984D01*
X97804875Y-71365985D01*
X97861271Y-71422381D01*
X97930341Y-71462258D01*
X98007378Y-71482900D01*
X99604990Y-71482900D01*
X99655075Y-71493465D01*
X99690192Y-71508970D01*
X99749279Y-71535059D01*
X99773766Y-71537900D01*
X99773767Y-71537900D01*
X100201233Y-71537900D01*
X100201234Y-71537900D01*
X100225721Y-71535059D01*
X100325896Y-71490828D01*
X100403328Y-71413396D01*
X100408442Y-71401814D01*
X100420438Y-71387611D01*
X100428163Y-71370697D01*
X100442517Y-71361471D01*
X100453527Y-71348438D01*
X100471298Y-71342975D01*
X100486941Y-71332923D01*
X100519002Y-71328313D01*
X100520314Y-71327910D01*
X100521876Y-71327900D01*
X100723100Y-71327900D01*
X100790139Y-71347585D01*
X100835894Y-71400389D01*
X100847100Y-71451900D01*
X100847100Y-71544982D01*
X100858872Y-71604169D01*
X100860170Y-71606111D01*
X100861696Y-71610986D01*
X100863545Y-71615449D01*
X100863145Y-71615614D01*
X100881047Y-71672789D01*
X100862561Y-71740169D01*
X100860170Y-71743889D01*
X100858872Y-71745830D01*
X100858872Y-71745832D01*
X100847100Y-71805016D01*
X100847100Y-71944984D01*
X100854948Y-71984440D01*
X100858872Y-72004169D01*
X100860170Y-72006111D01*
X100861696Y-72010986D01*
X100863545Y-72015449D01*
X100863145Y-72015614D01*
X100881047Y-72072789D01*
X100862561Y-72140169D01*
X100860170Y-72143889D01*
X100858872Y-72145830D01*
X100853107Y-72174814D01*
X100847100Y-72205016D01*
X100847100Y-72344984D01*
X100850566Y-72362410D01*
X100858872Y-72404169D01*
X100860170Y-72406111D01*
X100861696Y-72410986D01*
X100863545Y-72415449D01*
X100863145Y-72415614D01*
X100881047Y-72472789D01*
X100879654Y-72493664D01*
X100875500Y-72520946D01*
X100858872Y-72545832D01*
X100847100Y-72605016D01*
X100847100Y-72707483D01*
X100845687Y-72716764D01*
X100834719Y-72740262D01*
X100827415Y-72765139D01*
X100820185Y-72771403D01*
X100816137Y-72780077D01*
X100794202Y-72793917D01*
X100774611Y-72810894D01*
X100763451Y-72813321D01*
X100757047Y-72817363D01*
X100745322Y-72817265D01*
X100723100Y-72822100D01*
X100440186Y-72822100D01*
X100373147Y-72802415D01*
X100352505Y-72785781D01*
X100275897Y-72709173D01*
X100275896Y-72709172D01*
X100275893Y-72709170D01*
X100275892Y-72709170D01*
X100175722Y-72664941D01*
X100151235Y-72662100D01*
X100151234Y-72662100D01*
X99783766Y-72662100D01*
X99783764Y-72662100D01*
X99759278Y-72664941D01*
X99759276Y-72664941D01*
X99659107Y-72709170D01*
X99659102Y-72709173D01*
X99581673Y-72786602D01*
X99581670Y-72786607D01*
X99537441Y-72886776D01*
X99537441Y-72886778D01*
X99534600Y-72911264D01*
X99534600Y-73338735D01*
X99537441Y-73363221D01*
X99537441Y-73363223D01*
X99575585Y-73449611D01*
X99581672Y-73463396D01*
X99659104Y-73540828D01*
X99759279Y-73585059D01*
X99783766Y-73587900D01*
X99783767Y-73587900D01*
X100151233Y-73587900D01*
X100151234Y-73587900D01*
X100175721Y-73585059D01*
X100275896Y-73540828D01*
X100353328Y-73463396D01*
X100380519Y-73401814D01*
X100392517Y-73387609D01*
X100400241Y-73370697D01*
X100414595Y-73361472D01*
X100425605Y-73348438D01*
X100443376Y-73342975D01*
X100459019Y-73332923D01*
X100491078Y-73328313D01*
X100492391Y-73327910D01*
X100493954Y-73327900D01*
X100723100Y-73327900D01*
X100790139Y-73347585D01*
X100835894Y-73400389D01*
X100847100Y-73451900D01*
X100847100Y-73544984D01*
X100853721Y-73578270D01*
X100858872Y-73604169D01*
X100860170Y-73606111D01*
X100861696Y-73610986D01*
X100863545Y-73615449D01*
X100863145Y-73615614D01*
X100881047Y-73672789D01*
X100862561Y-73740169D01*
X100860170Y-73743889D01*
X100858872Y-73745830D01*
X100858872Y-73745832D01*
X100847100Y-73805016D01*
X100847100Y-73944984D01*
X100850728Y-73963223D01*
X100858872Y-74004169D01*
X100860170Y-74006111D01*
X100861696Y-74010986D01*
X100863545Y-74015449D01*
X100863145Y-74015614D01*
X100881047Y-74072789D01*
X100862561Y-74140169D01*
X100860170Y-74143889D01*
X100858872Y-74145830D01*
X100851817Y-74181299D01*
X100847100Y-74205016D01*
X100847100Y-74344984D01*
X100851036Y-74364771D01*
X100858872Y-74404169D01*
X100860170Y-74406111D01*
X100861696Y-74410986D01*
X100863545Y-74415449D01*
X100863145Y-74415614D01*
X100881047Y-74472789D01*
X100878746Y-74498877D01*
X100873964Y-74523244D01*
X100858872Y-74545832D01*
X100847100Y-74605016D01*
X100847100Y-74660148D01*
X100844779Y-74671977D01*
X100833999Y-74692713D01*
X100827415Y-74715139D01*
X100818186Y-74723135D01*
X100812554Y-74733971D01*
X100792274Y-74745588D01*
X100774611Y-74760894D01*
X100760014Y-74764069D01*
X100751928Y-74768702D01*
X100741228Y-74768156D01*
X100723100Y-74772100D01*
X100290186Y-74772100D01*
X100223147Y-74752415D01*
X100202505Y-74735781D01*
X100175897Y-74709173D01*
X100175896Y-74709172D01*
X100175893Y-74709170D01*
X100175892Y-74709170D01*
X100075722Y-74664941D01*
X100051235Y-74662100D01*
X100051234Y-74662100D01*
X99683766Y-74662100D01*
X99683764Y-74662100D01*
X99659278Y-74664941D01*
X99659276Y-74664941D01*
X99559107Y-74709170D01*
X99559102Y-74709173D01*
X99481673Y-74786602D01*
X99481670Y-74786607D01*
X99437441Y-74886776D01*
X99437441Y-74886778D01*
X99434600Y-74911264D01*
X99434600Y-75338735D01*
X99437441Y-75363221D01*
X99437441Y-75363223D01*
X99475929Y-75450389D01*
X99481672Y-75463396D01*
X99559104Y-75540828D01*
X99659279Y-75585059D01*
X99683766Y-75587900D01*
X99683767Y-75587900D01*
X100051233Y-75587900D01*
X100051234Y-75587900D01*
X100075721Y-75585059D01*
X100175896Y-75540828D01*
X100253328Y-75463396D01*
X100258442Y-75451814D01*
X100303527Y-75398438D01*
X100370314Y-75377910D01*
X100371876Y-75377900D01*
X100723100Y-75377900D01*
X100790139Y-75397585D01*
X100835894Y-75450389D01*
X100844779Y-75478023D01*
X100847100Y-75489851D01*
X100847100Y-75544984D01*
X100858872Y-75604168D01*
X100873964Y-75626755D01*
X100878746Y-75651123D01*
X100877727Y-75662186D01*
X100881047Y-75672789D01*
X100874580Y-75696359D01*
X100872339Y-75720698D01*
X100865500Y-75729454D01*
X100862561Y-75740169D01*
X100860170Y-75743889D01*
X100858872Y-75745830D01*
X100858657Y-75746913D01*
X100847100Y-75805016D01*
X100847100Y-75944984D01*
X100849796Y-75958539D01*
X100858872Y-76004169D01*
X100860170Y-76006111D01*
X100861696Y-76010986D01*
X100863545Y-76015449D01*
X100863145Y-76015614D01*
X100881047Y-76072789D01*
X100862561Y-76140169D01*
X100860170Y-76143889D01*
X100858872Y-76145830D01*
X100857045Y-76155016D01*
X100847100Y-76205016D01*
X100847100Y-76344984D01*
X100853287Y-76376091D01*
X100858872Y-76404169D01*
X100860170Y-76406111D01*
X100861696Y-76410986D01*
X100863545Y-76415449D01*
X100863145Y-76415614D01*
X100881047Y-76472789D01*
X100862561Y-76540169D01*
X100860170Y-76543889D01*
X100858872Y-76545830D01*
X100852081Y-76579973D01*
X100847100Y-76605016D01*
X100847100Y-76744984D01*
X100858872Y-76804168D01*
X100903717Y-76871283D01*
X100970832Y-76916128D01*
X101030016Y-76927900D01*
X101698100Y-76927900D01*
X101765139Y-76947585D01*
X101810894Y-77000389D01*
X101822100Y-77051900D01*
X101822100Y-77719984D01*
X101833872Y-77779168D01*
X101878717Y-77846283D01*
X101945832Y-77891128D01*
X102005016Y-77902900D01*
X102005017Y-77902900D01*
X102144983Y-77902900D01*
X102144984Y-77902900D01*
X102204168Y-77891128D01*
X102206107Y-77889832D01*
X102210978Y-77888306D01*
X102215449Y-77886455D01*
X102215614Y-77886854D01*
X102272782Y-77868952D01*
X102340163Y-77887434D01*
X102343866Y-77889814D01*
X102345832Y-77891128D01*
X102405016Y-77902900D01*
X102405017Y-77902900D01*
X102544983Y-77902900D01*
X102544984Y-77902900D01*
X102604168Y-77891128D01*
X102606107Y-77889832D01*
X102610978Y-77888306D01*
X102615449Y-77886455D01*
X102615614Y-77886854D01*
X102672782Y-77868952D01*
X102711638Y-77874468D01*
X102728878Y-77879800D01*
X102745832Y-77891128D01*
X102800959Y-77902093D01*
X102807096Y-77903991D01*
X102831070Y-77919889D01*
X102856559Y-77933222D01*
X102859824Y-77938957D01*
X102865326Y-77942605D01*
X102876898Y-77968938D01*
X102891134Y-77993937D01*
X102890780Y-78000528D01*
X102893436Y-78006571D01*
X102888934Y-78034982D01*
X102887395Y-78063706D01*
X102883371Y-78070091D01*
X102882502Y-78075579D01*
X102873686Y-78085462D01*
X102858140Y-78110136D01*
X102781670Y-78186606D01*
X102737441Y-78286776D01*
X102737441Y-78286778D01*
X102734600Y-78311264D01*
X102734600Y-78738735D01*
X102737441Y-78763221D01*
X102737441Y-78763223D01*
X102781670Y-78863392D01*
X102781672Y-78863396D01*
X102781674Y-78863398D01*
X102788164Y-78872872D01*
X102786221Y-78874202D01*
X102812180Y-78921742D01*
X102807196Y-78991434D01*
X102765324Y-79047367D01*
X102699860Y-79071784D01*
X102691014Y-79072100D01*
X100793616Y-79072100D01*
X100726577Y-79052415D01*
X100705935Y-79035781D01*
X98426719Y-76756565D01*
X98393234Y-76695242D01*
X98390400Y-76668884D01*
X98390400Y-75112840D01*
X98390400Y-75087807D01*
X98390401Y-75087805D01*
X98390401Y-74987195D01*
X98351899Y-74894244D01*
X98351899Y-74894243D01*
X98280757Y-74823101D01*
X98273692Y-74816036D01*
X98273685Y-74816030D01*
X97106040Y-73648386D01*
X97089400Y-73631746D01*
X97089399Y-73631743D01*
X97018257Y-73560601D01*
X96963806Y-73538047D01*
X96949626Y-73532173D01*
X96925307Y-73522099D01*
X96925305Y-73522099D01*
X96824695Y-73522099D01*
X96810261Y-73522099D01*
X96810253Y-73522100D01*
X96614400Y-73522100D01*
X96547361Y-73502415D01*
X96501606Y-73449611D01*
X96490400Y-73398100D01*
X96490400Y-73393286D01*
X96475458Y-73298949D01*
X96475457Y-73298947D01*
X96475457Y-73298945D01*
X96417516Y-73185229D01*
X96417514Y-73185227D01*
X96417511Y-73185223D01*
X96327276Y-73094988D01*
X96327272Y-73094985D01*
X96327271Y-73094984D01*
X96213555Y-73037043D01*
X96213553Y-73037042D01*
X96213550Y-73037041D01*
X96119213Y-73022100D01*
X96119208Y-73022100D01*
X96038715Y-73022100D01*
X95971676Y-73002415D01*
X95925921Y-72949611D01*
X95915977Y-72880453D01*
X95945002Y-72816897D01*
X95968634Y-72795803D01*
X95975893Y-72790829D01*
X95975896Y-72790828D01*
X96053328Y-72713396D01*
X96097559Y-72613221D01*
X96100400Y-72588734D01*
X96100400Y-72161266D01*
X96097559Y-72136779D01*
X96096575Y-72134551D01*
X96068640Y-72071283D01*
X96053328Y-72036604D01*
X95975896Y-71959172D01*
X95975893Y-71959170D01*
X95975892Y-71959170D01*
X95875722Y-71914941D01*
X95851235Y-71912100D01*
X95851234Y-71912100D01*
X95483766Y-71912100D01*
X95483764Y-71912100D01*
X95459278Y-71914941D01*
X95459276Y-71914941D01*
X95359107Y-71959170D01*
X95359102Y-71959173D01*
X95281673Y-72036602D01*
X95281670Y-72036607D01*
X95237441Y-72136776D01*
X95237441Y-72136778D01*
X95234600Y-72161264D01*
X95234600Y-72588735D01*
X95237441Y-72613221D01*
X95237441Y-72613223D01*
X95281670Y-72713392D01*
X95281673Y-72713397D01*
X95348281Y-72780005D01*
X95362984Y-72806932D01*
X95379577Y-72832751D01*
X95380468Y-72838951D01*
X95381766Y-72841328D01*
X95384600Y-72867686D01*
X95384600Y-72898100D01*
X95364915Y-72965139D01*
X95312111Y-73010894D01*
X95260600Y-73022100D01*
X95155787Y-73022100D01*
X95061449Y-73037041D01*
X94947727Y-73094985D01*
X94947723Y-73094988D01*
X94857488Y-73185223D01*
X94857485Y-73185227D01*
X94799541Y-73298949D01*
X94784600Y-73393286D01*
X94784600Y-74156713D01*
X94799541Y-74251050D01*
X94799542Y-74251053D01*
X94799543Y-74251055D01*
X94854632Y-74359173D01*
X94857485Y-74364772D01*
X94857488Y-74364776D01*
X94947723Y-74455011D01*
X94947727Y-74455014D01*
X94947729Y-74455016D01*
X95061445Y-74512957D01*
X95061447Y-74512957D01*
X95061449Y-74512958D01*
X95155787Y-74527900D01*
X95155792Y-74527900D01*
X96119213Y-74527900D01*
X96213550Y-74512958D01*
X96213550Y-74512957D01*
X96213555Y-74512957D01*
X96327271Y-74455016D01*
X96417516Y-74364771D01*
X96475457Y-74251055D01*
X96482749Y-74205016D01*
X96490400Y-74156713D01*
X96490400Y-74151900D01*
X96492950Y-74143214D01*
X96491662Y-74134253D01*
X96502640Y-74110212D01*
X96510085Y-74084861D01*
X96516925Y-74078933D01*
X96520687Y-74070697D01*
X96542921Y-74056407D01*
X96562889Y-74039106D01*
X96573403Y-74036818D01*
X96579465Y-74032923D01*
X96614400Y-74027900D01*
X96718884Y-74027900D01*
X96785923Y-74047585D01*
X96806565Y-74064219D01*
X97848281Y-75105935D01*
X97881766Y-75167258D01*
X97884600Y-75193616D01*
X97884600Y-76764692D01*
X97884599Y-76764706D01*
X97884599Y-76774695D01*
X97884599Y-76875305D01*
X97896743Y-76904622D01*
X97901509Y-76916128D01*
X97923100Y-76968256D01*
X98004447Y-77049603D01*
X98004457Y-77049611D01*
X100423099Y-79468253D01*
X100423101Y-79468257D01*
X100465265Y-79510421D01*
X100498749Y-79571744D01*
X100495899Y-79611574D01*
X100493764Y-79641434D01*
X100493763Y-79641435D01*
X100493763Y-79641436D01*
X100482509Y-79656469D01*
X100451892Y-79697367D01*
X100451891Y-79697367D01*
X100451890Y-79697369D01*
X100410843Y-79712677D01*
X100386428Y-79721784D01*
X100377582Y-79722100D01*
X99677931Y-79722100D01*
X99610892Y-79702415D01*
X99590250Y-79685781D01*
X97496425Y-77591957D01*
X97496417Y-77591947D01*
X97415070Y-77510600D01*
X97376010Y-77494421D01*
X97376007Y-77494420D01*
X97360620Y-77488047D01*
X97322119Y-77472099D01*
X97221509Y-77472099D01*
X97221507Y-77472100D01*
X94006577Y-77472100D01*
X93939538Y-77452415D01*
X93893783Y-77399611D01*
X93883839Y-77330453D01*
X93886927Y-77315546D01*
X93887558Y-77313226D01*
X93887559Y-77313221D01*
X93890400Y-77288734D01*
X93890400Y-76861266D01*
X93887559Y-76836779D01*
X93843328Y-76736604D01*
X93765896Y-76659172D01*
X93765893Y-76659170D01*
X93765889Y-76659168D01*
X93764306Y-76658469D01*
X93761894Y-76656431D01*
X93756415Y-76652678D01*
X93756794Y-76652123D01*
X93750106Y-76646473D01*
X93733197Y-76638751D01*
X93723969Y-76624392D01*
X93710933Y-76613379D01*
X93705473Y-76595611D01*
X93695423Y-76579973D01*
X93690811Y-76547897D01*
X93690410Y-76546592D01*
X93690400Y-76545038D01*
X93690400Y-76351900D01*
X93710085Y-76284861D01*
X93762889Y-76239106D01*
X93814400Y-76227900D01*
X93919213Y-76227900D01*
X94013550Y-76212958D01*
X94013550Y-76212957D01*
X94013555Y-76212957D01*
X94127271Y-76155016D01*
X94217516Y-76064771D01*
X94275457Y-75951055D01*
X94275458Y-75951050D01*
X94290400Y-75856713D01*
X94290400Y-75093286D01*
X94275458Y-74998949D01*
X94275457Y-74998947D01*
X94275457Y-74998945D01*
X94217516Y-74885229D01*
X94217514Y-74885227D01*
X94217511Y-74885223D01*
X94127276Y-74794988D01*
X94127272Y-74794985D01*
X94127271Y-74794984D01*
X94013555Y-74737043D01*
X94013553Y-74737042D01*
X94013550Y-74737041D01*
X93919213Y-74722100D01*
X93919208Y-74722100D01*
X92955792Y-74722100D01*
X92955787Y-74722100D01*
X92861449Y-74737041D01*
X92747727Y-74794985D01*
X92747723Y-74794988D01*
X92657488Y-74885223D01*
X92657485Y-74885227D01*
X92657484Y-74885229D01*
X92605000Y-74988236D01*
X92599541Y-74998949D01*
X92584600Y-75093286D01*
X92584600Y-75856713D01*
X92599541Y-75951050D01*
X92599542Y-75951053D01*
X92599543Y-75951055D01*
X92657095Y-76064007D01*
X92657485Y-76064772D01*
X92657488Y-76064776D01*
X92747723Y-76155011D01*
X92747727Y-76155014D01*
X92747729Y-76155016D01*
X92861445Y-76212957D01*
X92861447Y-76212957D01*
X92861449Y-76212958D01*
X92955787Y-76227900D01*
X92955792Y-76227900D01*
X93060600Y-76227900D01*
X93069285Y-76230450D01*
X93078247Y-76229162D01*
X93102287Y-76240140D01*
X93127639Y-76247585D01*
X93133566Y-76254425D01*
X93141803Y-76258187D01*
X93156092Y-76280421D01*
X93173394Y-76300389D01*
X93175681Y-76310903D01*
X93179577Y-76316965D01*
X93184600Y-76351900D01*
X93184600Y-76572314D01*
X93164915Y-76639353D01*
X93148281Y-76659995D01*
X93071673Y-76736602D01*
X93071670Y-76736607D01*
X93027441Y-76836776D01*
X93027441Y-76836778D01*
X93024600Y-76861264D01*
X93024600Y-77288735D01*
X93027441Y-77313221D01*
X93027441Y-77313223D01*
X93071670Y-77413392D01*
X93071673Y-77413397D01*
X93149104Y-77490828D01*
X93211281Y-77518281D01*
X93216779Y-77522047D01*
X93220622Y-77522883D01*
X93248873Y-77544030D01*
X93248877Y-77544033D01*
X93314243Y-77609399D01*
X93314246Y-77609400D01*
X93324457Y-77619611D01*
X93562888Y-77858042D01*
X93562897Y-77858053D01*
X93644242Y-77939398D01*
X93652623Y-77944998D01*
X93697428Y-77998610D01*
X93706135Y-78067935D01*
X93675981Y-78130962D01*
X93616538Y-78167682D01*
X93583732Y-78172100D01*
X93037807Y-78172100D01*
X93037805Y-78172099D01*
X92937195Y-78172099D01*
X92902178Y-78186604D01*
X92886499Y-78193098D01*
X92886493Y-78193099D01*
X92844248Y-78210598D01*
X92844243Y-78210601D01*
X92768760Y-78286084D01*
X92349781Y-78705064D01*
X92288458Y-78738549D01*
X92218767Y-78733565D01*
X92162833Y-78691694D01*
X92138416Y-78626229D01*
X92138100Y-78617383D01*
X92138100Y-69018713D01*
X92449500Y-69018713D01*
X92449500Y-69231286D01*
X92478473Y-69414218D01*
X92482754Y-69441243D01*
X92547836Y-69641545D01*
X92548444Y-69643414D01*
X92644951Y-69832820D01*
X92769890Y-70004786D01*
X92920213Y-70155109D01*
X93092179Y-70280048D01*
X93092181Y-70280049D01*
X93092184Y-70280051D01*
X93281588Y-70376557D01*
X93483757Y-70442246D01*
X93693713Y-70475500D01*
X93693714Y-70475500D01*
X93906286Y-70475500D01*
X93906287Y-70475500D01*
X94116243Y-70442246D01*
X94318412Y-70376557D01*
X94507816Y-70280051D01*
X94584229Y-70224534D01*
X94679786Y-70155109D01*
X94679788Y-70155106D01*
X94679792Y-70155104D01*
X94830104Y-70004792D01*
X94830106Y-70004788D01*
X94830109Y-70004786D01*
X94951581Y-69837592D01*
X94955051Y-69832816D01*
X95051557Y-69643412D01*
X95117246Y-69441243D01*
X95150500Y-69231287D01*
X95150500Y-69018713D01*
X95117246Y-68808757D01*
X95051557Y-68606588D01*
X94955051Y-68417184D01*
X94955049Y-68417181D01*
X94955048Y-68417179D01*
X94830109Y-68245213D01*
X94679786Y-68094890D01*
X94507820Y-67969951D01*
X94318414Y-67873444D01*
X94318413Y-67873443D01*
X94318412Y-67873443D01*
X94116243Y-67807754D01*
X94116241Y-67807753D01*
X94116240Y-67807753D01*
X93946916Y-67780935D01*
X93906287Y-67774500D01*
X93693713Y-67774500D01*
X93653084Y-67780935D01*
X93483760Y-67807753D01*
X93281585Y-67873444D01*
X93092179Y-67969951D01*
X92920213Y-68094890D01*
X92769890Y-68245213D01*
X92644951Y-68417179D01*
X92548444Y-68606585D01*
X92548443Y-68606587D01*
X92548443Y-68606588D01*
X92539192Y-68635059D01*
X92482753Y-68808760D01*
X92449500Y-69018713D01*
X92138100Y-69018713D01*
X92138100Y-65004772D01*
X94884600Y-65004772D01*
X94884600Y-66120227D01*
X94887538Y-66145550D01*
X94887538Y-66145552D01*
X94907483Y-66190721D01*
X94933280Y-66249145D01*
X95013355Y-66329220D01*
X95116950Y-66374962D01*
X95142274Y-66377900D01*
X95142275Y-66377900D01*
X95532725Y-66377900D01*
X95532726Y-66377900D01*
X95558050Y-66374962D01*
X95661645Y-66329220D01*
X95741720Y-66249145D01*
X95787462Y-66145550D01*
X95790400Y-66120226D01*
X95790400Y-65004774D01*
X95787462Y-64979450D01*
X95741720Y-64875855D01*
X95661645Y-64795780D01*
X95581871Y-64760556D01*
X95558051Y-64750038D01*
X95532727Y-64747100D01*
X95532726Y-64747100D01*
X95142274Y-64747100D01*
X95142272Y-64747100D01*
X95116949Y-64750038D01*
X95116947Y-64750038D01*
X95013359Y-64795778D01*
X95013357Y-64795779D01*
X95013355Y-64795780D01*
X95013354Y-64795780D01*
X95013352Y-64795782D01*
X94933282Y-64875852D01*
X94933278Y-64875859D01*
X94887538Y-64979447D01*
X94887538Y-64979449D01*
X94884600Y-65004772D01*
X92138100Y-65004772D01*
X92138100Y-61811000D01*
X92157785Y-61743961D01*
X92210589Y-61698206D01*
X92262100Y-61687000D01*
X92977480Y-61687000D01*
X92977482Y-61687000D01*
X93051174Y-61656476D01*
X93107576Y-61600074D01*
X93138100Y-61526382D01*
X93138100Y-58349500D01*
X93157785Y-58282461D01*
X93210589Y-58236706D01*
X93262100Y-58225500D01*
X99185613Y-58225500D01*
X99223497Y-58226252D01*
X99225419Y-58225500D01*
X99227482Y-58225500D01*
X99262492Y-58210998D01*
X99297780Y-58197195D01*
X99299255Y-58195775D01*
X99311515Y-58190699D01*
X99311549Y-58190695D01*
X99311644Y-58190646D01*
X99312555Y-58190270D01*
X99312680Y-58190573D01*
X99332786Y-58188415D01*
X99358421Y-58180385D01*
X99372253Y-58184177D01*
G37*
%TD.AperFunction*%
%TA.AperFunction,Conductor*%
G36*
X111785923Y-73347585D02*
G01*
X111806565Y-73364219D01*
X113910781Y-75468435D01*
X113944266Y-75529758D01*
X113947100Y-75556116D01*
X113947100Y-79031805D01*
X113927415Y-79098844D01*
X113874611Y-79144599D01*
X113873187Y-79145239D01*
X113809478Y-79173369D01*
X113733369Y-79249478D01*
X113713434Y-79294627D01*
X113668348Y-79348003D01*
X113601561Y-79368530D01*
X113534279Y-79349691D01*
X113487863Y-79297468D01*
X113486566Y-79294627D01*
X113480268Y-79280364D01*
X113466631Y-79249479D01*
X113390521Y-79173369D01*
X113389556Y-79172943D01*
X113292058Y-79129893D01*
X113267985Y-79127100D01*
X113267984Y-79127100D01*
X112912016Y-79127100D01*
X112912014Y-79127100D01*
X112887942Y-79129893D01*
X112887940Y-79129893D01*
X112789478Y-79173369D01*
X112713369Y-79249478D01*
X112691862Y-79298187D01*
X112646775Y-79351563D01*
X112579989Y-79372090D01*
X112578428Y-79372100D01*
X112037807Y-79372100D01*
X112037805Y-79372099D01*
X111937195Y-79372099D01*
X111937193Y-79372100D01*
X109043616Y-79372100D01*
X108976577Y-79352415D01*
X108955935Y-79335781D01*
X108164219Y-78544065D01*
X108130734Y-78482742D01*
X108127900Y-78456384D01*
X108127900Y-78352877D01*
X108127900Y-78352875D01*
X108097036Y-78237687D01*
X108096647Y-78237014D01*
X108081396Y-78210598D01*
X108037410Y-78134413D01*
X107964219Y-78061222D01*
X107930734Y-77999899D01*
X107927900Y-77973541D01*
X107927900Y-77051900D01*
X107947585Y-76984861D01*
X108000389Y-76939106D01*
X108051900Y-76927900D01*
X108719983Y-76927900D01*
X108719984Y-76927900D01*
X108779168Y-76916128D01*
X108846283Y-76871283D01*
X108891128Y-76804168D01*
X108902900Y-76744984D01*
X108902900Y-76605016D01*
X108891128Y-76545832D01*
X108889832Y-76543892D01*
X108888306Y-76539021D01*
X108886455Y-76534551D01*
X108886854Y-76534385D01*
X108868952Y-76477218D01*
X108887434Y-76409837D01*
X108889814Y-76406133D01*
X108891128Y-76404168D01*
X108902900Y-76344984D01*
X108902900Y-76205016D01*
X108891128Y-76145832D01*
X108889832Y-76143892D01*
X108888306Y-76139021D01*
X108886455Y-76134551D01*
X108886854Y-76134385D01*
X108868952Y-76077218D01*
X108887434Y-76009837D01*
X108889814Y-76006133D01*
X108891128Y-76004168D01*
X108902900Y-75944984D01*
X108902900Y-75805016D01*
X108891128Y-75745832D01*
X108889832Y-75743892D01*
X108888306Y-75739021D01*
X108886455Y-75734551D01*
X108886854Y-75734385D01*
X108868952Y-75677218D01*
X108887434Y-75609837D01*
X108889814Y-75606133D01*
X108891128Y-75604168D01*
X108902900Y-75544984D01*
X108902900Y-75405016D01*
X108891128Y-75345832D01*
X108889832Y-75343892D01*
X108888306Y-75339021D01*
X108886455Y-75334551D01*
X108886854Y-75334385D01*
X108868952Y-75277218D01*
X108887434Y-75209837D01*
X108889814Y-75206133D01*
X108891128Y-75204168D01*
X108902900Y-75144984D01*
X108902900Y-75005016D01*
X108899562Y-74988234D01*
X108905789Y-74918644D01*
X108948651Y-74863466D01*
X109014540Y-74840221D01*
X109082537Y-74856288D01*
X109131054Y-74906567D01*
X109136424Y-74920257D01*
X109171168Y-74998945D01*
X109184172Y-75028396D01*
X109261604Y-75105828D01*
X109361779Y-75150059D01*
X109386266Y-75152900D01*
X109386267Y-75152900D01*
X109813733Y-75152900D01*
X109813734Y-75152900D01*
X109838221Y-75150059D01*
X109938396Y-75105828D01*
X109960005Y-75084219D01*
X109986932Y-75069515D01*
X110012751Y-75052923D01*
X110018951Y-75052031D01*
X110021328Y-75050734D01*
X110047686Y-75047900D01*
X110127314Y-75047900D01*
X110194353Y-75067585D01*
X110214994Y-75084218D01*
X110261604Y-75130828D01*
X110361779Y-75175059D01*
X110386266Y-75177900D01*
X110386267Y-75177900D01*
X110813733Y-75177900D01*
X110813734Y-75177900D01*
X110838221Y-75175059D01*
X110938396Y-75130828D01*
X110985005Y-75084219D01*
X111011932Y-75069515D01*
X111037751Y-75052923D01*
X111043951Y-75052031D01*
X111046328Y-75050734D01*
X111072686Y-75047900D01*
X111156040Y-75047900D01*
X111223079Y-75067585D01*
X111243721Y-75084218D01*
X111321913Y-75162410D01*
X111425187Y-75222036D01*
X111540375Y-75252900D01*
X111540377Y-75252900D01*
X111659623Y-75252900D01*
X111659625Y-75252900D01*
X111774813Y-75222036D01*
X111878087Y-75162410D01*
X111962410Y-75078087D01*
X112022036Y-74974813D01*
X112052900Y-74859625D01*
X112052900Y-74740375D01*
X112022036Y-74625187D01*
X111962410Y-74521913D01*
X111878087Y-74437590D01*
X111820197Y-74404167D01*
X111774814Y-74377964D01*
X111704679Y-74359172D01*
X111659625Y-74347100D01*
X111540375Y-74347100D01*
X111425185Y-74377964D01*
X111342876Y-74425487D01*
X111327386Y-74429637D01*
X111315810Y-74437077D01*
X111280875Y-74442100D01*
X111072686Y-74442100D01*
X111005647Y-74422415D01*
X110985005Y-74405781D01*
X110938397Y-74359173D01*
X110938396Y-74359172D01*
X110938393Y-74359170D01*
X110938392Y-74359170D01*
X110838222Y-74314941D01*
X110813735Y-74312100D01*
X110813734Y-74312100D01*
X110386266Y-74312100D01*
X110386264Y-74312100D01*
X110361778Y-74314941D01*
X110361776Y-74314941D01*
X110261607Y-74359170D01*
X110261602Y-74359173D01*
X110214995Y-74405781D01*
X110188067Y-74420484D01*
X110162249Y-74437077D01*
X110156048Y-74437968D01*
X110153672Y-74439266D01*
X110127314Y-74442100D01*
X110097686Y-74442100D01*
X110030647Y-74422415D01*
X110010005Y-74405781D01*
X109986639Y-74382415D01*
X109953154Y-74321092D01*
X109958138Y-74251400D01*
X110000010Y-74195467D01*
X110024229Y-74181302D01*
X110115896Y-74140828D01*
X110193328Y-74063396D01*
X110237559Y-73963221D01*
X110240400Y-73938734D01*
X110240400Y-73511266D01*
X110237559Y-73486779D01*
X110237558Y-73486778D01*
X110237558Y-73486773D01*
X110236927Y-73484454D01*
X110236980Y-73481791D01*
X110236484Y-73477516D01*
X110237066Y-73477448D01*
X110238321Y-73414598D01*
X110277260Y-73356586D01*
X110341382Y-73328834D01*
X110356577Y-73327900D01*
X111718884Y-73327900D01*
X111785923Y-73347585D01*
G37*
%TD.AperFunction*%
%TA.AperFunction,Conductor*%
G36*
X111668103Y-70914415D02*
G01*
X111674581Y-70920447D01*
X112060781Y-71306647D01*
X112094266Y-71367970D01*
X112097100Y-71394328D01*
X112097100Y-71611041D01*
X112077415Y-71678080D01*
X112060781Y-71698722D01*
X112037592Y-71721910D01*
X112037590Y-71721913D01*
X111977964Y-71825185D01*
X111947100Y-71940375D01*
X111947100Y-72059624D01*
X111977964Y-72174814D01*
X112013348Y-72236099D01*
X112029821Y-72303999D01*
X112006969Y-72370026D01*
X111952048Y-72413217D01*
X111905961Y-72422100D01*
X109026900Y-72422100D01*
X108959861Y-72402415D01*
X108914106Y-72349611D01*
X108904313Y-72316764D01*
X108902900Y-72307483D01*
X108902900Y-72205016D01*
X108891128Y-72145832D01*
X108874498Y-72120944D01*
X108870345Y-72093664D01*
X108871478Y-72085286D01*
X108868952Y-72077218D01*
X108876093Y-72051181D01*
X108879714Y-72024426D01*
X108885197Y-72017990D01*
X108887434Y-72009837D01*
X108889814Y-72006133D01*
X108891128Y-72004168D01*
X108902900Y-71944984D01*
X108902900Y-71851900D01*
X108922585Y-71784861D01*
X108975389Y-71739106D01*
X109026900Y-71727900D01*
X109274693Y-71727900D01*
X109274695Y-71727901D01*
X109375305Y-71727901D01*
X109413806Y-71711952D01*
X109468257Y-71689399D01*
X109539399Y-71618257D01*
X109539399Y-71618254D01*
X109551311Y-71606343D01*
X109551315Y-71606337D01*
X109648684Y-71508969D01*
X109710007Y-71475486D01*
X109752215Y-71476571D01*
X109752516Y-71473984D01*
X109761777Y-71475058D01*
X109761779Y-71475059D01*
X109786266Y-71477900D01*
X109786267Y-71477900D01*
X110213733Y-71477900D01*
X110213734Y-71477900D01*
X110238221Y-71475059D01*
X110338396Y-71430828D01*
X110385005Y-71384219D01*
X110411932Y-71369515D01*
X110437751Y-71352923D01*
X110443951Y-71352031D01*
X110446328Y-71350734D01*
X110472686Y-71347900D01*
X110527314Y-71347900D01*
X110594353Y-71367585D01*
X110614995Y-71384219D01*
X110661604Y-71430828D01*
X110761779Y-71475059D01*
X110786266Y-71477900D01*
X110786267Y-71477900D01*
X111213733Y-71477900D01*
X111213734Y-71477900D01*
X111238221Y-71475059D01*
X111338396Y-71430828D01*
X111415828Y-71353396D01*
X111460059Y-71253221D01*
X111462900Y-71228734D01*
X111462900Y-71008128D01*
X111482585Y-70941089D01*
X111535389Y-70895334D01*
X111604547Y-70885390D01*
X111668103Y-70914415D01*
G37*
%TD.AperFunction*%
%TA.AperFunction,Conductor*%
G36*
X100463220Y-69375307D02*
G01*
X100509637Y-69427531D01*
X100510934Y-69430373D01*
X100530869Y-69475521D01*
X100606979Y-69551631D01*
X100705443Y-69595107D01*
X100729516Y-69597900D01*
X100729517Y-69597900D01*
X101085483Y-69597900D01*
X101085484Y-69597900D01*
X101109557Y-69595107D01*
X101208021Y-69551631D01*
X101284131Y-69475521D01*
X101284131Y-69475520D01*
X101292256Y-69467396D01*
X101294715Y-69469855D01*
X101333604Y-69438089D01*
X101403022Y-69430159D01*
X101465707Y-69461018D01*
X101469497Y-69464651D01*
X101785781Y-69780935D01*
X101819266Y-69842258D01*
X101822100Y-69868616D01*
X101822100Y-70698100D01*
X101802415Y-70765139D01*
X101749611Y-70810894D01*
X101698100Y-70822100D01*
X100480187Y-70822100D01*
X100413148Y-70802415D01*
X100392506Y-70785782D01*
X100371863Y-70765139D01*
X100325896Y-70719172D01*
X100325894Y-70719171D01*
X100325892Y-70719170D01*
X100225722Y-70674941D01*
X100201235Y-70672100D01*
X100201234Y-70672100D01*
X99773766Y-70672100D01*
X99773764Y-70672100D01*
X99749278Y-70674941D01*
X99749276Y-70674941D01*
X99649107Y-70719170D01*
X99649102Y-70719173D01*
X99571673Y-70796602D01*
X99571672Y-70796603D01*
X99571672Y-70796604D01*
X99568765Y-70803186D01*
X99523682Y-70856561D01*
X99456896Y-70877090D01*
X99455332Y-70877100D01*
X98224083Y-70877100D01*
X98157044Y-70857415D01*
X98136402Y-70840781D01*
X97739219Y-70443597D01*
X97705734Y-70382274D01*
X97702900Y-70355916D01*
X97702900Y-70042759D01*
X97722585Y-69975720D01*
X97775389Y-69929965D01*
X97844547Y-69920021D01*
X97908103Y-69949046D01*
X97914581Y-69955078D01*
X97928163Y-69968660D01*
X98031437Y-70028286D01*
X98146625Y-70059150D01*
X98146627Y-70059150D01*
X98265873Y-70059150D01*
X98265875Y-70059150D01*
X98381063Y-70028286D01*
X98484337Y-69968660D01*
X98568660Y-69884337D01*
X98628286Y-69781063D01*
X98659150Y-69665875D01*
X98659150Y-69562366D01*
X98667794Y-69532928D01*
X98674318Y-69502938D01*
X98678073Y-69497921D01*
X98678835Y-69495327D01*
X98695469Y-69474684D01*
X98755936Y-69414218D01*
X98817260Y-69380734D01*
X98843617Y-69377900D01*
X99386967Y-69377900D01*
X99454006Y-69397585D01*
X99499761Y-69450389D01*
X99500364Y-69451730D01*
X99510869Y-69475521D01*
X99586979Y-69551631D01*
X99685443Y-69595107D01*
X99709516Y-69597900D01*
X99709517Y-69597900D01*
X100065483Y-69597900D01*
X100065484Y-69597900D01*
X100089557Y-69595107D01*
X100188021Y-69551631D01*
X100264131Y-69475521D01*
X100284066Y-69430373D01*
X100329152Y-69376996D01*
X100395938Y-69356469D01*
X100463220Y-69375307D01*
G37*
%TD.AperFunction*%
%TA.AperFunction,Conductor*%
G36*
X110114370Y-68504868D02*
G01*
X110158717Y-68533369D01*
X110160869Y-68535521D01*
X110236979Y-68611631D01*
X110264674Y-68623859D01*
X110268527Y-68625895D01*
X110290574Y-68647345D01*
X110314061Y-68667183D01*
X110315381Y-68671480D01*
X110318606Y-68674617D01*
X110325555Y-68704577D01*
X110334590Y-68733968D01*
X110334600Y-68735533D01*
X110334600Y-68922314D01*
X110314915Y-68989353D01*
X110298281Y-69009995D01*
X110221673Y-69086602D01*
X110221670Y-69086607D01*
X110177441Y-69186776D01*
X110177441Y-69186778D01*
X110174600Y-69211264D01*
X110174600Y-69638735D01*
X110177441Y-69663221D01*
X110177441Y-69663223D01*
X110221411Y-69762805D01*
X110221672Y-69763396D01*
X110299104Y-69840828D01*
X110399279Y-69885059D01*
X110423766Y-69887900D01*
X110573100Y-69887900D01*
X110640139Y-69907585D01*
X110685894Y-69960389D01*
X110697100Y-70011900D01*
X110697100Y-70572314D01*
X110688455Y-70601754D01*
X110681932Y-70631741D01*
X110678177Y-70636756D01*
X110677415Y-70639353D01*
X110660781Y-70659995D01*
X110614995Y-70705781D01*
X110553672Y-70739266D01*
X110527314Y-70742100D01*
X110472686Y-70742100D01*
X110405647Y-70722415D01*
X110385005Y-70705781D01*
X110339219Y-70659995D01*
X110305734Y-70598672D01*
X110302900Y-70572314D01*
X110302900Y-70560124D01*
X110302900Y-70560122D01*
X110282258Y-70483085D01*
X110242381Y-70414015D01*
X110185985Y-70357619D01*
X110185984Y-70357618D01*
X110181659Y-70353293D01*
X110181648Y-70353283D01*
X110089218Y-70260852D01*
X110055734Y-70199528D01*
X110052900Y-70173171D01*
X110052900Y-70140377D01*
X110052900Y-70140375D01*
X110022036Y-70025187D01*
X109962410Y-69921913D01*
X109878087Y-69837590D01*
X109826450Y-69807777D01*
X109774814Y-69777964D01*
X109696748Y-69757047D01*
X109659625Y-69747100D01*
X109540375Y-69747100D01*
X109425185Y-69777964D01*
X109321913Y-69837590D01*
X109321910Y-69837592D01*
X109237592Y-69921910D01*
X109237590Y-69921913D01*
X109177964Y-70025185D01*
X109147100Y-70140375D01*
X109147100Y-70259625D01*
X109151302Y-70275307D01*
X109177964Y-70374814D01*
X109200598Y-70414016D01*
X109237590Y-70478087D01*
X109321913Y-70562410D01*
X109370935Y-70590713D01*
X109419150Y-70641281D01*
X109432372Y-70709888D01*
X109406404Y-70774753D01*
X109349489Y-70815281D01*
X109308934Y-70822100D01*
X108051900Y-70822100D01*
X107984861Y-70802415D01*
X107939106Y-70749611D01*
X107927900Y-70698100D01*
X107927900Y-70381116D01*
X107947585Y-70314077D01*
X107964219Y-70293435D01*
X109583436Y-68674219D01*
X109644759Y-68640734D01*
X109671117Y-68637900D01*
X109801233Y-68637900D01*
X109801234Y-68637900D01*
X109825721Y-68635059D01*
X109925896Y-68590828D01*
X109983355Y-68533369D01*
X110044678Y-68499884D01*
X110114370Y-68504868D01*
G37*
%TD.AperFunction*%
%TA.AperFunction,Conductor*%
G36*
X100427711Y-66297585D02*
G01*
X100448353Y-66314219D01*
X102045117Y-67910982D01*
X102045119Y-67910985D01*
X102101515Y-67967381D01*
X102141734Y-67990601D01*
X102170585Y-68007258D01*
X102247622Y-68027901D01*
X102247625Y-68027901D01*
X102334974Y-68027901D01*
X102334990Y-68027900D01*
X102932314Y-68027900D01*
X102999353Y-68047585D01*
X103019995Y-68064219D01*
X103061604Y-68105828D01*
X103161779Y-68150059D01*
X103186266Y-68152900D01*
X103186267Y-68152900D01*
X103613733Y-68152900D01*
X103613734Y-68152900D01*
X103638221Y-68150059D01*
X103655504Y-68142427D01*
X103724780Y-68133356D01*
X103787965Y-68163178D01*
X103793271Y-68168181D01*
X103993758Y-68368668D01*
X104027243Y-68429991D01*
X104030077Y-68456349D01*
X104030077Y-68489148D01*
X104036185Y-68511944D01*
X104060941Y-68604337D01*
X104088518Y-68652100D01*
X104120567Y-68707610D01*
X104120569Y-68707612D01*
X104185781Y-68772824D01*
X104219266Y-68834147D01*
X104222100Y-68860505D01*
X104222100Y-69723100D01*
X104202415Y-69790139D01*
X104149611Y-69835894D01*
X104116764Y-69845687D01*
X104107483Y-69847100D01*
X104005016Y-69847100D01*
X103945832Y-69858872D01*
X103920946Y-69875500D01*
X103893664Y-69879654D01*
X103885282Y-69878519D01*
X103877211Y-69881047D01*
X103851180Y-69873905D01*
X103824425Y-69870285D01*
X103817986Y-69864798D01*
X103809831Y-69862561D01*
X103806111Y-69860170D01*
X103804169Y-69858872D01*
X103774576Y-69852986D01*
X103744984Y-69847100D01*
X103605016Y-69847100D01*
X103585288Y-69851024D01*
X103545830Y-69858872D01*
X103543889Y-69860170D01*
X103539013Y-69861696D01*
X103534551Y-69863545D01*
X103534385Y-69863145D01*
X103477211Y-69881047D01*
X103409831Y-69862561D01*
X103406111Y-69860170D01*
X103404169Y-69858872D01*
X103374576Y-69852986D01*
X103344984Y-69847100D01*
X103205016Y-69847100D01*
X103185288Y-69851024D01*
X103145830Y-69858872D01*
X103143889Y-69860170D01*
X103139013Y-69861696D01*
X103134551Y-69863545D01*
X103134385Y-69863145D01*
X103077211Y-69881047D01*
X103009831Y-69862561D01*
X103006111Y-69860170D01*
X103004169Y-69858872D01*
X102974576Y-69852986D01*
X102944984Y-69847100D01*
X102805016Y-69847100D01*
X102785288Y-69851024D01*
X102745830Y-69858872D01*
X102743889Y-69860170D01*
X102739013Y-69861696D01*
X102734551Y-69863545D01*
X102734385Y-69863145D01*
X102677211Y-69881047D01*
X102656336Y-69879654D01*
X102629053Y-69875500D01*
X102604168Y-69858872D01*
X102544984Y-69847100D01*
X102442518Y-69847100D01*
X102433237Y-69845687D01*
X102409740Y-69834720D01*
X102384862Y-69827415D01*
X102378595Y-69820183D01*
X102369924Y-69816136D01*
X102356084Y-69794204D01*
X102339107Y-69774611D01*
X102336679Y-69763451D01*
X102332638Y-69757047D01*
X102332735Y-69745322D01*
X102327901Y-69723100D01*
X102327901Y-69662196D01*
X102327901Y-69662195D01*
X102305701Y-69608600D01*
X102289399Y-69569243D01*
X102218257Y-69498101D01*
X102211192Y-69491036D01*
X102211185Y-69491030D01*
X101977577Y-69257422D01*
X101701900Y-68981746D01*
X101701899Y-68981743D01*
X101630757Y-68910601D01*
X101562728Y-68882423D01*
X101549439Y-68876918D01*
X101549436Y-68876916D01*
X101537807Y-68872099D01*
X101537805Y-68872099D01*
X101437195Y-68872099D01*
X101422761Y-68872099D01*
X101422753Y-68872100D01*
X101408033Y-68872100D01*
X101340994Y-68852415D01*
X101295239Y-68799611D01*
X101294635Y-68798269D01*
X101284131Y-68774479D01*
X101208021Y-68698369D01*
X101154228Y-68674617D01*
X101109558Y-68654893D01*
X101085485Y-68652100D01*
X101085484Y-68652100D01*
X100729516Y-68652100D01*
X100729514Y-68652100D01*
X100705442Y-68654893D01*
X100705440Y-68654893D01*
X100606978Y-68698369D01*
X100530869Y-68774478D01*
X100510934Y-68819627D01*
X100465848Y-68873003D01*
X100399061Y-68893530D01*
X100331779Y-68874691D01*
X100285363Y-68822468D01*
X100284066Y-68819627D01*
X100274599Y-68798186D01*
X100264131Y-68774479D01*
X100188021Y-68698369D01*
X100134228Y-68674617D01*
X100089558Y-68654893D01*
X100065485Y-68652100D01*
X100065484Y-68652100D01*
X99709516Y-68652100D01*
X99709514Y-68652100D01*
X99685442Y-68654893D01*
X99685440Y-68654893D01*
X99586978Y-68698369D01*
X99510871Y-68774476D01*
X99510868Y-68774480D01*
X99506192Y-68785069D01*
X99500400Y-68798187D01*
X99455316Y-68851562D01*
X99388530Y-68872090D01*
X99386967Y-68872100D01*
X98737807Y-68872100D01*
X98737805Y-68872099D01*
X98637195Y-68872099D01*
X98612272Y-68882423D01*
X98544243Y-68910601D01*
X98468781Y-68986062D01*
X98468761Y-68986084D01*
X98337812Y-69117032D01*
X98276492Y-69150516D01*
X98250133Y-69153350D01*
X98146625Y-69153350D01*
X98031435Y-69184214D01*
X97928163Y-69243840D01*
X97928160Y-69243842D01*
X97914581Y-69257422D01*
X97853258Y-69290907D01*
X97783566Y-69285923D01*
X97727633Y-69244051D01*
X97703216Y-69178587D01*
X97702900Y-69169741D01*
X97702900Y-67839327D01*
X97722585Y-67772288D01*
X97739219Y-67751646D01*
X98826646Y-66664219D01*
X98887969Y-66630734D01*
X98914327Y-66627900D01*
X99594213Y-66627900D01*
X99688550Y-66612958D01*
X99688550Y-66612957D01*
X99688555Y-66612957D01*
X99802271Y-66555016D01*
X99892516Y-66464771D01*
X99950457Y-66351055D01*
X99950457Y-66351054D01*
X99953234Y-66345605D01*
X100001209Y-66294809D01*
X100063719Y-66277900D01*
X100360672Y-66277900D01*
X100427711Y-66297585D01*
G37*
%TD.AperFunction*%
%TA.AperFunction,Conductor*%
G36*
X104353984Y-64718684D02*
G01*
X104409917Y-64760556D01*
X104434334Y-64826020D01*
X104434650Y-64834866D01*
X104434650Y-65114445D01*
X104414965Y-65181484D01*
X104362161Y-65227239D01*
X104360737Y-65227879D01*
X104336978Y-65238369D01*
X104260869Y-65314478D01*
X104217393Y-65412940D01*
X104217393Y-65412942D01*
X104214600Y-65437014D01*
X104214600Y-65792985D01*
X104217393Y-65817057D01*
X104217393Y-65817059D01*
X104260869Y-65915521D01*
X104336979Y-65991631D01*
X104367864Y-66005268D01*
X104382127Y-66011566D01*
X104435503Y-66056652D01*
X104456030Y-66123439D01*
X104437191Y-66190721D01*
X104384968Y-66237137D01*
X104382127Y-66238434D01*
X104336978Y-66258369D01*
X104260869Y-66334478D01*
X104217393Y-66432940D01*
X104217393Y-66432942D01*
X104214600Y-66457014D01*
X104214600Y-66812985D01*
X104217393Y-66837057D01*
X104217393Y-66837059D01*
X104251578Y-66914479D01*
X104260869Y-66935521D01*
X104336979Y-67011631D01*
X104360683Y-67022097D01*
X104414059Y-67067180D01*
X104432146Y-67110989D01*
X104434599Y-67123137D01*
X104434599Y-67175305D01*
X104450547Y-67213806D01*
X104455150Y-67224920D01*
X104455151Y-67224922D01*
X104473100Y-67268256D01*
X104554447Y-67349603D01*
X104554457Y-67349611D01*
X104985781Y-67780935D01*
X105000484Y-67807862D01*
X105017077Y-67833681D01*
X105017968Y-67839881D01*
X105019266Y-67842258D01*
X105022100Y-67868616D01*
X105022100Y-68028787D01*
X105002415Y-68095826D01*
X104949611Y-68141581D01*
X104880453Y-68151525D01*
X104816897Y-68122500D01*
X104810419Y-68116468D01*
X104761066Y-68067115D01*
X104761064Y-68067113D01*
X104709427Y-68037300D01*
X104657791Y-68007487D01*
X104600196Y-67992055D01*
X104542602Y-67976623D01*
X104542601Y-67976623D01*
X104509805Y-67976623D01*
X104442766Y-67956938D01*
X104422124Y-67940304D01*
X104194200Y-67712380D01*
X103964440Y-67482619D01*
X103895370Y-67442742D01*
X103895365Y-67442740D01*
X103861340Y-67433623D01*
X103805754Y-67401530D01*
X103738397Y-67334173D01*
X103738396Y-67334172D01*
X103738393Y-67334170D01*
X103738392Y-67334170D01*
X103638222Y-67289941D01*
X103613735Y-67287100D01*
X103613734Y-67287100D01*
X103186266Y-67287100D01*
X103186264Y-67287100D01*
X103161778Y-67289941D01*
X103161776Y-67289941D01*
X103061607Y-67334170D01*
X103061605Y-67334171D01*
X103009994Y-67385782D01*
X102948670Y-67419266D01*
X102922313Y-67422100D01*
X102464327Y-67422100D01*
X102397288Y-67402415D01*
X102376646Y-67385781D01*
X101557829Y-66566964D01*
X100723485Y-65732619D01*
X100654415Y-65692742D01*
X100654408Y-65692739D01*
X100575793Y-65671674D01*
X100516133Y-65635309D01*
X100485605Y-65572462D01*
X100493900Y-65503086D01*
X100538386Y-65449209D01*
X100604938Y-65427935D01*
X100607888Y-65427900D01*
X102634453Y-65427900D01*
X102634457Y-65427901D01*
X102740543Y-65427901D01*
X102817945Y-65407160D01*
X102827655Y-65406141D01*
X102852797Y-65410742D01*
X102878353Y-65411350D01*
X102886594Y-65416927D01*
X102896383Y-65418719D01*
X102915047Y-65436184D01*
X102936217Y-65450511D01*
X102940134Y-65459658D01*
X102947401Y-65466458D01*
X102953659Y-65491240D01*
X102963723Y-65514739D01*
X102964600Y-65529463D01*
X102964600Y-65792985D01*
X102967393Y-65817057D01*
X102967393Y-65817059D01*
X103010869Y-65915521D01*
X103086979Y-65991631D01*
X103185443Y-66035107D01*
X103209516Y-66037900D01*
X103209517Y-66037900D01*
X103665483Y-66037900D01*
X103665484Y-66037900D01*
X103689557Y-66035107D01*
X103788021Y-65991631D01*
X103864131Y-65915521D01*
X103907607Y-65817057D01*
X103910400Y-65792984D01*
X103910400Y-65437016D01*
X103907607Y-65412943D01*
X103899677Y-65394984D01*
X103867356Y-65321784D01*
X103864131Y-65314479D01*
X103847584Y-65297932D01*
X103814099Y-65236609D01*
X103819083Y-65166917D01*
X103847584Y-65122570D01*
X104222969Y-64747185D01*
X104284292Y-64713700D01*
X104353984Y-64718684D01*
G37*
%TD.AperFunction*%
%TD*%
M02*
