%TF.GenerationSoftware,KiCad,Pcbnew,10.0.1*%
%TF.CreationDate,2026-08-11T19:25:47+02:00*%
%TF.ProjectId,pico2-expansion-card,7069636f-322d-4657-9870-616e73696f6e,rev?*%
%TF.SameCoordinates,Original*%
%TF.FileFunction,Legend,Top*%
%TF.FilePolarity,Positive*%
%FSLAX46Y46*%
G04 Gerber Fmt 4.6, Leading zero omitted, Abs format (unit mm)*
G04 Created by KiCad (PCBNEW 10.0.1) date 2026-08-11 19:25:47*
%MOMM*%
%LPD*%
G01*
G04 APERTURE LIST*
%ADD10C,0.000000*%
%ADD11C,0.050000*%
%ADD12C,0.120000*%
%ADD13C,0.254000*%
G04 APERTURE END LIST*
D10*
G36*
X177687339Y-89207000D02*
G01*
X176800000Y-89207000D01*
X176800000Y-88319660D01*
X177687339Y-88319660D01*
X177687339Y-89207000D01*
G37*
G36*
X179580329Y-89207000D02*
G01*
X178692990Y-89207000D01*
X178692990Y-88319660D01*
X179580329Y-88319660D01*
X179580329Y-89207000D01*
G37*
G36*
X178633819Y-89207000D02*
G01*
X177746479Y-89207000D01*
X177746479Y-88319660D01*
X178633819Y-88319660D01*
X178633819Y-89207000D01*
G37*
G36*
X180526825Y-90153495D02*
G01*
X179639486Y-90153495D01*
X179639486Y-89266156D01*
X180526825Y-89266156D01*
X180526825Y-90153495D01*
G37*
G36*
X176740844Y-90153495D02*
G01*
X175853504Y-90153495D01*
X175853504Y-89266156D01*
X176740844Y-89266156D01*
X176740844Y-90153495D01*
G37*
G36*
X177687339Y-90153495D02*
G01*
X176800000Y-90153495D01*
X176800000Y-89266156D01*
X177687339Y-89266156D01*
X177687339Y-90153495D01*
G37*
G36*
X179580329Y-90153495D02*
G01*
X178692990Y-90153495D01*
X178692990Y-89266156D01*
X179580329Y-89266156D01*
X179580329Y-90153495D01*
G37*
G36*
X178633819Y-90153495D02*
G01*
X177746479Y-90153495D01*
X177746479Y-89266156D01*
X178633819Y-89266156D01*
X178633819Y-90153495D01*
G37*
G36*
X177687339Y-92992981D02*
G01*
X176800000Y-92992981D01*
X176800000Y-92105642D01*
X177687339Y-92105642D01*
X177687339Y-92992981D01*
G37*
G36*
X179580329Y-92992981D02*
G01*
X178692990Y-92992981D01*
X178692990Y-92105642D01*
X179580329Y-92105642D01*
X179580329Y-92992981D01*
G37*
G36*
X178633819Y-92992981D02*
G01*
X177746479Y-92992981D01*
X177746479Y-92105642D01*
X178633819Y-92105642D01*
X178633819Y-92992981D01*
G37*
G36*
X180526825Y-92046486D02*
G01*
X179639486Y-92046486D01*
X179639486Y-91159147D01*
X180526825Y-91159147D01*
X180526825Y-92046486D01*
G37*
G36*
X176740844Y-92046486D02*
G01*
X175853504Y-92046486D01*
X175853504Y-91159147D01*
X176740844Y-91159147D01*
X176740844Y-92046486D01*
G37*
G36*
X177687339Y-92046486D02*
G01*
X176800000Y-92046486D01*
X176800000Y-91159147D01*
X177687339Y-91159147D01*
X177687339Y-92046486D01*
G37*
G36*
X179580329Y-92046486D02*
G01*
X178692990Y-92046486D01*
X178692990Y-91159147D01*
X179580329Y-91159147D01*
X179580329Y-92046486D01*
G37*
G36*
X178633819Y-92046486D02*
G01*
X177746479Y-92046486D01*
X177746479Y-91159147D01*
X178633819Y-91159147D01*
X178633819Y-92046486D01*
G37*
G36*
X180526825Y-91100000D02*
G01*
X179639486Y-91100000D01*
X179639486Y-90212661D01*
X180526825Y-90212661D01*
X180526825Y-91100000D01*
G37*
G36*
X176740844Y-91100000D02*
G01*
X175853504Y-91100000D01*
X175853504Y-90212661D01*
X176740844Y-90212661D01*
X176740844Y-91100000D01*
G37*
G36*
X177687339Y-91100000D02*
G01*
X176800000Y-91100000D01*
X176800000Y-90212661D01*
X177687339Y-90212661D01*
X177687339Y-91100000D01*
G37*
G36*
X179580329Y-91100000D02*
G01*
X178692990Y-91100000D01*
X178692990Y-90212661D01*
X179580329Y-90212661D01*
X179580329Y-91100000D01*
G37*
G36*
X178633819Y-91100000D02*
G01*
X177746479Y-91100000D01*
X177746479Y-90212661D01*
X178633819Y-90212661D01*
X178633819Y-91100000D01*
G37*
G36*
X179580375Y-87480073D02*
G01*
X179580375Y-87828136D01*
X179535514Y-87806540D01*
X179490368Y-87785706D01*
X179444985Y-87765624D01*
X179399413Y-87746284D01*
X179615013Y-87845500D01*
X179820490Y-87959392D01*
X180015323Y-88087179D01*
X180198987Y-88228076D01*
X180370962Y-88381301D01*
X180530724Y-88546069D01*
X180677751Y-88721597D01*
X180811519Y-88907102D01*
X180931508Y-89101800D01*
X181037193Y-89304908D01*
X181128053Y-89515642D01*
X181203564Y-89733219D01*
X181263205Y-89956856D01*
X181306453Y-90185769D01*
X181332785Y-90419174D01*
X181341678Y-90656289D01*
X181337577Y-90818466D01*
X181325407Y-90978514D01*
X181305365Y-91136235D01*
X181277649Y-91291431D01*
X181242458Y-91443904D01*
X181199990Y-91593456D01*
X181150443Y-91739889D01*
X181094014Y-91883005D01*
X181030901Y-92022605D01*
X180961304Y-92158493D01*
X180885419Y-92290469D01*
X180803445Y-92418337D01*
X180715579Y-92541897D01*
X180622020Y-92660952D01*
X180522966Y-92775303D01*
X180418614Y-92884754D01*
X180309164Y-92989105D01*
X180194812Y-93088159D01*
X180075757Y-93181718D01*
X179952196Y-93269583D01*
X179824329Y-93351558D01*
X179692352Y-93427443D01*
X179556464Y-93497040D01*
X179416863Y-93560153D01*
X179273747Y-93616581D01*
X179127314Y-93666129D01*
X178977761Y-93708597D01*
X178825288Y-93743788D01*
X178670091Y-93771503D01*
X178512370Y-93791545D01*
X178352321Y-93803716D01*
X178190143Y-93807817D01*
X178027966Y-93803716D01*
X177867918Y-93791545D01*
X177710197Y-93771502D01*
X177555001Y-93743787D01*
X177402528Y-93708596D01*
X177252976Y-93666127D01*
X177106543Y-93616579D01*
X176963427Y-93560150D01*
X176823827Y-93497037D01*
X176687939Y-93427440D01*
X176555963Y-93351554D01*
X176428096Y-93269580D01*
X176304536Y-93181714D01*
X176185481Y-93088155D01*
X176071129Y-92989101D01*
X175961679Y-92884750D01*
X175857328Y-92775299D01*
X175758274Y-92660947D01*
X175664716Y-92541892D01*
X175576850Y-92418332D01*
X175494876Y-92290465D01*
X175418992Y-92158489D01*
X175349394Y-92022601D01*
X175286282Y-91883001D01*
X175229854Y-91739885D01*
X175180306Y-91593453D01*
X175137839Y-91443901D01*
X175102648Y-91291428D01*
X175074933Y-91136232D01*
X175054891Y-90978512D01*
X175042721Y-90818464D01*
X175038621Y-90656291D01*
X175376055Y-90656291D01*
X175376430Y-90702355D01*
X175377559Y-90748396D01*
X175379441Y-90794408D01*
X175382076Y-90840379D01*
X175385462Y-90886302D01*
X175389599Y-90932166D01*
X175394487Y-90977962D01*
X175400126Y-91023682D01*
X175406507Y-91069286D01*
X175413631Y-91114770D01*
X175421498Y-91160126D01*
X175430105Y-91205344D01*
X175439450Y-91250415D01*
X175449532Y-91295331D01*
X175460349Y-91340082D01*
X175471899Y-91384659D01*
X175484184Y-91429049D01*
X175497191Y-91473223D01*
X175510917Y-91517173D01*
X175525360Y-91560890D01*
X175540516Y-91604365D01*
X175556382Y-91647588D01*
X175572955Y-91690552D01*
X175590233Y-91733247D01*
X175608203Y-91775651D01*
X175626860Y-91817747D01*
X175646201Y-91859526D01*
X175666222Y-91900980D01*
X175686918Y-91942102D01*
X175708286Y-91982882D01*
X175730321Y-92023313D01*
X175753019Y-92063386D01*
X175776373Y-92103082D01*
X175800369Y-92142383D01*
X175825002Y-92181281D01*
X175850266Y-92219769D01*
X175876157Y-92257838D01*
X175902668Y-92295481D01*
X175929796Y-92332689D01*
X175957534Y-92369456D01*
X175985871Y-92405772D01*
X176014793Y-92441612D01*
X176044294Y-92476969D01*
X176074367Y-92511837D01*
X176105006Y-92546207D01*
X176136206Y-92580074D01*
X176167960Y-92613431D01*
X176200262Y-92646269D01*
X176233091Y-92678560D01*
X176266438Y-92710303D01*
X176300295Y-92741491D01*
X176334655Y-92772120D01*
X176369511Y-92802182D01*
X176404858Y-92831672D01*
X176440687Y-92860585D01*
X176476992Y-92888913D01*
X176513759Y-92916651D01*
X176550967Y-92943778D01*
X176588609Y-92970289D01*
X176626678Y-92996180D01*
X176665165Y-93021443D01*
X176704063Y-93046076D01*
X176743364Y-93070072D01*
X176783062Y-93093426D01*
X176823133Y-93116135D01*
X176863563Y-93138181D01*
X176904343Y-93159560D01*
X176945464Y-93180267D01*
X176986919Y-93200298D01*
X177028699Y-93219651D01*
X177070796Y-93238319D01*
X177113201Y-93256300D01*
X177155896Y-93273578D01*
X177198860Y-93290151D01*
X177242083Y-93306017D01*
X177285557Y-93321172D01*
X177329273Y-93335615D01*
X177373223Y-93349341D01*
X177417398Y-93362348D01*
X177461788Y-93374633D01*
X177506375Y-93386184D01*
X177551136Y-93397002D01*
X177596063Y-93407084D01*
X177641145Y-93416430D01*
X177686374Y-93425037D01*
X177731741Y-93432903D01*
X177777237Y-93440026D01*
X177822852Y-93446405D01*
X177868560Y-93452042D01*
X177914345Y-93456929D01*
X177960197Y-93461066D01*
X178006108Y-93464453D01*
X178052068Y-93467087D01*
X178098069Y-93468970D01*
X178144100Y-93470100D01*
X178190153Y-93470476D01*
X178236205Y-93470100D01*
X178282236Y-93468970D01*
X178328237Y-93467087D01*
X178374197Y-93464453D01*
X178420108Y-93461067D01*
X178465961Y-93456930D01*
X178511746Y-93452043D01*
X178557455Y-93446406D01*
X178603069Y-93440027D01*
X178648564Y-93432903D01*
X178693931Y-93425037D01*
X178739160Y-93416430D01*
X178784242Y-93407084D01*
X178829169Y-93397001D01*
X178873930Y-93386183D01*
X178918518Y-93374632D01*
X178962908Y-93362347D01*
X179007082Y-93349340D01*
X179051032Y-93335614D01*
X179094748Y-93321172D01*
X179138222Y-93306016D01*
X179181446Y-93290150D01*
X179224410Y-93273576D01*
X179267107Y-93256298D01*
X179309511Y-93238317D01*
X179351607Y-93219649D01*
X179393387Y-93200297D01*
X179434841Y-93180265D01*
X179475963Y-93159558D01*
X179516743Y-93138179D01*
X179557174Y-93116134D01*
X179597246Y-93093425D01*
X179636942Y-93070070D01*
X179676243Y-93046074D01*
X179715140Y-93021441D01*
X179753627Y-92996178D01*
X179791696Y-92970288D01*
X179829338Y-92943777D01*
X179866547Y-92916650D01*
X179903314Y-92888912D01*
X179939618Y-92860584D01*
X179975446Y-92831672D01*
X180010792Y-92802182D01*
X180045648Y-92772119D01*
X180080008Y-92741491D01*
X180113865Y-92710302D01*
X180147212Y-92678559D01*
X180180042Y-92646268D01*
X180212344Y-92613429D01*
X180244098Y-92580073D01*
X180275298Y-92546206D01*
X180305938Y-92511834D01*
X180336011Y-92476967D01*
X180365512Y-92441609D01*
X180394434Y-92405769D01*
X180422771Y-92369453D01*
X180450509Y-92332686D01*
X180477637Y-92295477D01*
X180504148Y-92257835D01*
X180530038Y-92219766D01*
X180555302Y-92181279D01*
X180579935Y-92142381D01*
X180603931Y-92103080D01*
X180627286Y-92063383D01*
X180649984Y-92023310D01*
X180672019Y-91982880D01*
X180693387Y-91942100D01*
X180714083Y-91900978D01*
X180734103Y-91859524D01*
X180753444Y-91817745D01*
X180772101Y-91775650D01*
X180790071Y-91733246D01*
X180807349Y-91690550D01*
X180823922Y-91647586D01*
X180839788Y-91604363D01*
X180854944Y-91560888D01*
X180869386Y-91517172D01*
X180883112Y-91473222D01*
X180896119Y-91429047D01*
X180908403Y-91384656D01*
X180919964Y-91340081D01*
X180930792Y-91295332D01*
X180940885Y-91250421D01*
X180950240Y-91205357D01*
X180958857Y-91160150D01*
X180966732Y-91114812D01*
X180973865Y-91069352D01*
X180980252Y-91023781D01*
X180985892Y-90978063D01*
X180990782Y-90932266D01*
X180994921Y-90886399D01*
X180998309Y-90840469D01*
X181000945Y-90794486D01*
X181002829Y-90748456D01*
X181003959Y-90702389D01*
X181004336Y-90656291D01*
X181004152Y-90623799D01*
X181003592Y-90591309D01*
X181002658Y-90558827D01*
X181001348Y-90526357D01*
X180999647Y-90493906D01*
X180997572Y-90461474D01*
X180995123Y-90429068D01*
X180992299Y-90396692D01*
X180989125Y-90364344D01*
X180985578Y-90332038D01*
X180981658Y-90299775D01*
X180977366Y-90267554D01*
X180972673Y-90235376D01*
X180967609Y-90203258D01*
X180962174Y-90171200D01*
X180956368Y-90139203D01*
X180950221Y-90107289D01*
X180943706Y-90075447D01*
X180936823Y-90043683D01*
X180929575Y-90012001D01*
X180921950Y-89980412D01*
X180913961Y-89948911D01*
X180905609Y-89917504D01*
X180896895Y-89886197D01*
X180887813Y-89854976D01*
X180878373Y-89823866D01*
X180868573Y-89792867D01*
X180858415Y-89761979D01*
X180847919Y-89731217D01*
X180837070Y-89700581D01*
X180825868Y-89670071D01*
X180814313Y-89639688D01*
X180802382Y-89609453D01*
X180790102Y-89579357D01*
X180777475Y-89549404D01*
X180764503Y-89519599D01*
X180751221Y-89489953D01*
X180737598Y-89460466D01*
X180723636Y-89431138D01*
X180709335Y-89401971D01*
X180694658Y-89372961D01*
X180679647Y-89344122D01*
X180664302Y-89315456D01*
X180648626Y-89286969D01*
X180632664Y-89258663D01*
X180616376Y-89230543D01*
X180599764Y-89202613D01*
X180582829Y-89174875D01*
X180565557Y-89147337D01*
X180547967Y-89120000D01*
X180530064Y-89092868D01*
X180511848Y-89065946D01*
X180493331Y-89039241D01*
X180474506Y-89012753D01*
X180455378Y-88986484D01*
X180435947Y-88960438D01*
X180416205Y-88934612D01*
X180396167Y-88909017D01*
X180375834Y-88883655D01*
X180355208Y-88858527D01*
X180334288Y-88833627D01*
X180313081Y-88808971D01*
X180291592Y-88784563D01*
X180269822Y-88760404D01*
X180247784Y-88736516D01*
X180225473Y-88712885D01*
X180202889Y-88689512D01*
X180180037Y-88666400D01*
X180156927Y-88643549D01*
X180133557Y-88620967D01*
X180109926Y-88598656D01*
X180086038Y-88576617D01*
X180061898Y-88554868D01*
X180037511Y-88533401D01*
X180012877Y-88512217D01*
X179987998Y-88491317D01*
X179962872Y-88470692D01*
X179937512Y-88450361D01*
X179911917Y-88430324D01*
X179886090Y-88410581D01*
X179860043Y-88391150D01*
X179833776Y-88372021D01*
X179807288Y-88353197D01*
X179780583Y-88334679D01*
X179753659Y-88316464D01*
X179726526Y-88298560D01*
X179699189Y-88280971D01*
X179671650Y-88263698D01*
X179643912Y-88246741D01*
X179615982Y-88230107D01*
X179587861Y-88213796D01*
X179559550Y-88197809D01*
X179531066Y-88182158D01*
X179502404Y-88166837D01*
X179473566Y-88151848D01*
X179444555Y-88137193D01*
X179415366Y-88122869D01*
X179386016Y-88108885D01*
X179356507Y-88095241D01*
X179326839Y-88081938D01*
X179297034Y-88068987D01*
X179267080Y-88056382D01*
X179236983Y-88044124D01*
X179206748Y-88032214D01*
X179176368Y-88020637D01*
X179145859Y-88009413D01*
X179115221Y-87998541D01*
X179084456Y-87988023D01*
X179053591Y-87977889D01*
X179022614Y-87968112D01*
X178991524Y-87958693D01*
X178960325Y-87949633D01*
X178928997Y-87940918D01*
X178897571Y-87932566D01*
X178866051Y-87924578D01*
X178834438Y-87916954D01*
X178802755Y-87909683D01*
X178770991Y-87902779D01*
X178739149Y-87896241D01*
X178707232Y-87890072D01*
X178675258Y-87884290D01*
X178643223Y-87878878D01*
X178611126Y-87873836D01*
X178578969Y-87869165D01*
X178546753Y-87864850D01*
X178514488Y-87860908D01*
X178482178Y-87857338D01*
X178449828Y-87854142D01*
X178417453Y-87851340D01*
X178385049Y-87848913D01*
X178352621Y-87846860D01*
X178320168Y-87845180D01*
X178287677Y-87843870D01*
X178255176Y-87842936D01*
X178222666Y-87842377D01*
X178190149Y-87842194D01*
X178190149Y-87842195D01*
X178190150Y-87842195D01*
X178144098Y-87842572D01*
X178098067Y-87843702D01*
X178052067Y-87845584D01*
X178006106Y-87848219D01*
X177960196Y-87851605D01*
X177914343Y-87855742D01*
X177868559Y-87860629D01*
X177822851Y-87866266D01*
X177777236Y-87872646D01*
X177731740Y-87879770D01*
X177686374Y-87887636D01*
X177641144Y-87896243D01*
X177596062Y-87905588D01*
X177551135Y-87915671D01*
X177506373Y-87926489D01*
X177461785Y-87938040D01*
X177417395Y-87950325D01*
X177373221Y-87963332D01*
X177329271Y-87977058D01*
X177285555Y-87991501D01*
X177242080Y-88006657D01*
X177198856Y-88022524D01*
X177155892Y-88039097D01*
X177113197Y-88056375D01*
X177070793Y-88074345D01*
X177028697Y-88093002D01*
X176986918Y-88112343D01*
X176945463Y-88132364D01*
X176904341Y-88153060D01*
X176863560Y-88174428D01*
X176823129Y-88196463D01*
X176783056Y-88219161D01*
X176743360Y-88242516D01*
X176704060Y-88266512D01*
X176665162Y-88291144D01*
X176626675Y-88316409D01*
X176588607Y-88342299D01*
X176550964Y-88368810D01*
X176513755Y-88395938D01*
X176476987Y-88423676D01*
X176440683Y-88452014D01*
X176404854Y-88480936D01*
X176369508Y-88510437D01*
X176334652Y-88540511D01*
X176300292Y-88571150D01*
X176266435Y-88602350D01*
X176233090Y-88634103D01*
X176200262Y-88666405D01*
X176167960Y-88699243D01*
X176136205Y-88732600D01*
X176105005Y-88766467D01*
X176074366Y-88800838D01*
X176044292Y-88835706D01*
X176014792Y-88871064D01*
X175985870Y-88906904D01*
X175957533Y-88943219D01*
X175929795Y-88979986D01*
X175902668Y-89017195D01*
X175876156Y-89054838D01*
X175850266Y-89092907D01*
X175825001Y-89131394D01*
X175800369Y-89170292D01*
X175776372Y-89209594D01*
X175753018Y-89249290D01*
X175730320Y-89289363D01*
X175708285Y-89329794D01*
X175686918Y-89370574D01*
X175666222Y-89411695D01*
X175646201Y-89453149D01*
X175626860Y-89494928D01*
X175608202Y-89537023D01*
X175590232Y-89579427D01*
X175572956Y-89622112D01*
X175556383Y-89665065D01*
X175540518Y-89708278D01*
X175525362Y-89751742D01*
X175510919Y-89795448D01*
X175497192Y-89839387D01*
X175484184Y-89883551D01*
X175471898Y-89927931D01*
X175460347Y-89972518D01*
X175449530Y-90017279D01*
X175439447Y-90062204D01*
X175430102Y-90107285D01*
X175421495Y-90152512D01*
X175413629Y-90197876D01*
X175406506Y-90243368D01*
X175400127Y-90288977D01*
X175394490Y-90334685D01*
X175389603Y-90380470D01*
X175385465Y-90426323D01*
X175382079Y-90472235D01*
X175379444Y-90518197D01*
X175377562Y-90564200D01*
X175376432Y-90610234D01*
X175376055Y-90656291D01*
X175038621Y-90656291D01*
X175038620Y-90656287D01*
X175040875Y-90537591D01*
X175047533Y-90419720D01*
X175058529Y-90302773D01*
X175073798Y-90186845D01*
X175093275Y-90072035D01*
X175116897Y-89958441D01*
X175144597Y-89846158D01*
X175176311Y-89735284D01*
X175211975Y-89625917D01*
X175251524Y-89518154D01*
X175294893Y-89412092D01*
X175342018Y-89307828D01*
X175392833Y-89205460D01*
X175447273Y-89105084D01*
X175505275Y-89006798D01*
X175566773Y-88910700D01*
X175631703Y-88816886D01*
X175700000Y-88725454D01*
X175771599Y-88636501D01*
X175846436Y-88550125D01*
X175924445Y-88466421D01*
X176005562Y-88385489D01*
X176089722Y-88307424D01*
X176176861Y-88232325D01*
X176266913Y-88160288D01*
X176359815Y-88091411D01*
X176455501Y-88025791D01*
X176553906Y-87963525D01*
X176654966Y-87904711D01*
X176758616Y-87849445D01*
X176857921Y-87801165D01*
X176842964Y-87808104D01*
X176800012Y-87828838D01*
X176800012Y-87794918D01*
X176871388Y-87794918D01*
X176973428Y-87749948D01*
X176929678Y-87768671D01*
X176886188Y-87788052D01*
X176871388Y-87794918D01*
X176800012Y-87794918D01*
X176800012Y-87740727D01*
X176995741Y-87740727D01*
X177041080Y-87722537D01*
X177070257Y-87711352D01*
X179311591Y-87711352D01*
X179345892Y-87724561D01*
X179345832Y-87724537D01*
X179311591Y-87711352D01*
X177070257Y-87711352D01*
X177086687Y-87705054D01*
X177113990Y-87695071D01*
X179267844Y-87695071D01*
X179298578Y-87706342D01*
X179298490Y-87706308D01*
X179267844Y-87695071D01*
X177113990Y-87695071D01*
X177132124Y-87688441D01*
X177086790Y-87705014D01*
X177041139Y-87722512D01*
X176995741Y-87740727D01*
X176800012Y-87740727D01*
X176800012Y-87688283D01*
X177132557Y-87688283D01*
X177157480Y-87679605D01*
X179224350Y-87679605D01*
X179250976Y-87688886D01*
X179250885Y-87688853D01*
X179224350Y-87679605D01*
X177157480Y-87679605D01*
X177159637Y-87678854D01*
X177132684Y-87688236D01*
X177132557Y-87688283D01*
X176800012Y-87688283D01*
X176800012Y-87672195D01*
X176800012Y-87664786D01*
X179180682Y-87664786D01*
X179203104Y-87672200D01*
X179203027Y-87672173D01*
X179180682Y-87664786D01*
X176800012Y-87664786D01*
X176800012Y-87650574D01*
X179136713Y-87650574D01*
X179154979Y-87656289D01*
X179154926Y-87656272D01*
X179136713Y-87650574D01*
X176800012Y-87650574D01*
X176800012Y-87636778D01*
X176800012Y-87613255D01*
X176800012Y-87610443D01*
X177382809Y-87610443D01*
X177431106Y-87598036D01*
X177479583Y-87586396D01*
X177528015Y-87575575D01*
X178853794Y-87575575D01*
X178867311Y-87578604D01*
X178853823Y-87575581D01*
X178853794Y-87575575D01*
X177528015Y-87575575D01*
X177528233Y-87575526D01*
X177577046Y-87565428D01*
X177583911Y-87564120D01*
X177576994Y-87565437D01*
X177528186Y-87575528D01*
X177479547Y-87586393D01*
X177431085Y-87598031D01*
X177382809Y-87610443D01*
X176800012Y-87610443D01*
X176800012Y-87532617D01*
X178607229Y-87532617D01*
X178653263Y-87539084D01*
X178703613Y-87546990D01*
X178753822Y-87555708D01*
X178803881Y-87565236D01*
X178847899Y-87574354D01*
X178803931Y-87565244D01*
X178753872Y-87555714D01*
X178703655Y-87546994D01*
X178653288Y-87539086D01*
X178607229Y-87532617D01*
X176800012Y-87532617D01*
X176800012Y-87515306D01*
X178447163Y-87515306D01*
X178452982Y-87515830D01*
X178447198Y-87515308D01*
X178447163Y-87515306D01*
X176800012Y-87515306D01*
X176800012Y-87511960D01*
X177980437Y-87511960D01*
X177986100Y-87511542D01*
X177986032Y-87511546D01*
X177980437Y-87511960D01*
X176800012Y-87511960D01*
X176800012Y-87511514D01*
X178395789Y-87511514D01*
X178417197Y-87513093D01*
X178395946Y-87511523D01*
X178395789Y-87511514D01*
X176800012Y-87511514D01*
X176800012Y-87510596D01*
X178002492Y-87510596D01*
X178037207Y-87508599D01*
X178038078Y-87508563D01*
X178344379Y-87508563D01*
X178379977Y-87510605D01*
X178344606Y-87508573D01*
X178344379Y-87508563D01*
X178038078Y-87508563D01*
X178088157Y-87506494D01*
X178139141Y-87505214D01*
X178189835Y-87504762D01*
X178190486Y-87504762D01*
X178241578Y-87505188D01*
X178292981Y-87506456D01*
X178339364Y-87508357D01*
X178293187Y-87506460D01*
X178241698Y-87505187D01*
X178190486Y-87504762D01*
X178189835Y-87504762D01*
X178190149Y-87504759D01*
X178139027Y-87505208D01*
X178087960Y-87506492D01*
X178036958Y-87508606D01*
X178002492Y-87510596D01*
X176800012Y-87510596D01*
X176800012Y-87480074D01*
X176800012Y-86089936D01*
X177495080Y-87480073D01*
X178190149Y-86089936D01*
X178885218Y-87480073D01*
X179580375Y-86089936D01*
X179580375Y-87480073D01*
G37*
D11*
X162261904Y-96620542D02*
X162223809Y-96601495D01*
X162223809Y-96601495D02*
X162185714Y-96563400D01*
X162185714Y-96563400D02*
X162128571Y-96506257D01*
X162128571Y-96506257D02*
X162090476Y-96487209D01*
X162090476Y-96487209D02*
X162052380Y-96487209D01*
X162071428Y-96582447D02*
X162033333Y-96563400D01*
X162033333Y-96563400D02*
X161995238Y-96525304D01*
X161995238Y-96525304D02*
X161976190Y-96449114D01*
X161976190Y-96449114D02*
X161976190Y-96315780D01*
X161976190Y-96315780D02*
X161995238Y-96239590D01*
X161995238Y-96239590D02*
X162033333Y-96201495D01*
X162033333Y-96201495D02*
X162071428Y-96182447D01*
X162071428Y-96182447D02*
X162147619Y-96182447D01*
X162147619Y-96182447D02*
X162185714Y-96201495D01*
X162185714Y-96201495D02*
X162223809Y-96239590D01*
X162223809Y-96239590D02*
X162242857Y-96315780D01*
X162242857Y-96315780D02*
X162242857Y-96449114D01*
X162242857Y-96449114D02*
X162223809Y-96525304D01*
X162223809Y-96525304D02*
X162185714Y-96563400D01*
X162185714Y-96563400D02*
X162147619Y-96582447D01*
X162147619Y-96582447D02*
X162071428Y-96582447D01*
X162395238Y-96220542D02*
X162414286Y-96201495D01*
X162414286Y-96201495D02*
X162452381Y-96182447D01*
X162452381Y-96182447D02*
X162547619Y-96182447D01*
X162547619Y-96182447D02*
X162585714Y-96201495D01*
X162585714Y-96201495D02*
X162604762Y-96220542D01*
X162604762Y-96220542D02*
X162623809Y-96258638D01*
X162623809Y-96258638D02*
X162623809Y-96296733D01*
X162623809Y-96296733D02*
X162604762Y-96353876D01*
X162604762Y-96353876D02*
X162376190Y-96582447D01*
X162376190Y-96582447D02*
X162623809Y-96582447D01*
X159742857Y-90194352D02*
X159723809Y-90213400D01*
X159723809Y-90213400D02*
X159666667Y-90232447D01*
X159666667Y-90232447D02*
X159628571Y-90232447D01*
X159628571Y-90232447D02*
X159571428Y-90213400D01*
X159571428Y-90213400D02*
X159533333Y-90175304D01*
X159533333Y-90175304D02*
X159514286Y-90137209D01*
X159514286Y-90137209D02*
X159495238Y-90061019D01*
X159495238Y-90061019D02*
X159495238Y-90003876D01*
X159495238Y-90003876D02*
X159514286Y-89927685D01*
X159514286Y-89927685D02*
X159533333Y-89889590D01*
X159533333Y-89889590D02*
X159571428Y-89851495D01*
X159571428Y-89851495D02*
X159628571Y-89832447D01*
X159628571Y-89832447D02*
X159666667Y-89832447D01*
X159666667Y-89832447D02*
X159723809Y-89851495D01*
X159723809Y-89851495D02*
X159742857Y-89870542D01*
X160123809Y-90232447D02*
X159895238Y-90232447D01*
X160009524Y-90232447D02*
X160009524Y-89832447D01*
X160009524Y-89832447D02*
X159971428Y-89889590D01*
X159971428Y-89889590D02*
X159933333Y-89927685D01*
X159933333Y-89927685D02*
X159895238Y-89946733D01*
X160466666Y-89832447D02*
X160390476Y-89832447D01*
X160390476Y-89832447D02*
X160352380Y-89851495D01*
X160352380Y-89851495D02*
X160333333Y-89870542D01*
X160333333Y-89870542D02*
X160295238Y-89927685D01*
X160295238Y-89927685D02*
X160276190Y-90003876D01*
X160276190Y-90003876D02*
X160276190Y-90156257D01*
X160276190Y-90156257D02*
X160295238Y-90194352D01*
X160295238Y-90194352D02*
X160314285Y-90213400D01*
X160314285Y-90213400D02*
X160352380Y-90232447D01*
X160352380Y-90232447D02*
X160428571Y-90232447D01*
X160428571Y-90232447D02*
X160466666Y-90213400D01*
X160466666Y-90213400D02*
X160485714Y-90194352D01*
X160485714Y-90194352D02*
X160504761Y-90156257D01*
X160504761Y-90156257D02*
X160504761Y-90061019D01*
X160504761Y-90061019D02*
X160485714Y-90022923D01*
X160485714Y-90022923D02*
X160466666Y-90003876D01*
X160466666Y-90003876D02*
X160428571Y-89984828D01*
X160428571Y-89984828D02*
X160352380Y-89984828D01*
X160352380Y-89984828D02*
X160314285Y-90003876D01*
X160314285Y-90003876D02*
X160295238Y-90022923D01*
X160295238Y-90022923D02*
X160276190Y-90061019D01*
X162544352Y-86457142D02*
X162563400Y-86476190D01*
X162563400Y-86476190D02*
X162582447Y-86533332D01*
X162582447Y-86533332D02*
X162582447Y-86571428D01*
X162582447Y-86571428D02*
X162563400Y-86628571D01*
X162563400Y-86628571D02*
X162525304Y-86666666D01*
X162525304Y-86666666D02*
X162487209Y-86685713D01*
X162487209Y-86685713D02*
X162411019Y-86704761D01*
X162411019Y-86704761D02*
X162353876Y-86704761D01*
X162353876Y-86704761D02*
X162277685Y-86685713D01*
X162277685Y-86685713D02*
X162239590Y-86666666D01*
X162239590Y-86666666D02*
X162201495Y-86628571D01*
X162201495Y-86628571D02*
X162182447Y-86571428D01*
X162182447Y-86571428D02*
X162182447Y-86533332D01*
X162182447Y-86533332D02*
X162201495Y-86476190D01*
X162201495Y-86476190D02*
X162220542Y-86457142D01*
X162582447Y-86076190D02*
X162582447Y-86304761D01*
X162582447Y-86190475D02*
X162182447Y-86190475D01*
X162182447Y-86190475D02*
X162239590Y-86228571D01*
X162239590Y-86228571D02*
X162277685Y-86266666D01*
X162277685Y-86266666D02*
X162296733Y-86304761D01*
X162182447Y-85942857D02*
X162182447Y-85676190D01*
X162182447Y-85676190D02*
X162582447Y-85847619D01*
X168933333Y-77972447D02*
X168800000Y-77781971D01*
X168704762Y-77972447D02*
X168704762Y-77572447D01*
X168704762Y-77572447D02*
X168857143Y-77572447D01*
X168857143Y-77572447D02*
X168895238Y-77591495D01*
X168895238Y-77591495D02*
X168914285Y-77610542D01*
X168914285Y-77610542D02*
X168933333Y-77648638D01*
X168933333Y-77648638D02*
X168933333Y-77705780D01*
X168933333Y-77705780D02*
X168914285Y-77743876D01*
X168914285Y-77743876D02*
X168895238Y-77762923D01*
X168895238Y-77762923D02*
X168857143Y-77781971D01*
X168857143Y-77781971D02*
X168704762Y-77781971D01*
X169085714Y-77610542D02*
X169104762Y-77591495D01*
X169104762Y-77591495D02*
X169142857Y-77572447D01*
X169142857Y-77572447D02*
X169238095Y-77572447D01*
X169238095Y-77572447D02*
X169276190Y-77591495D01*
X169276190Y-77591495D02*
X169295238Y-77610542D01*
X169295238Y-77610542D02*
X169314285Y-77648638D01*
X169314285Y-77648638D02*
X169314285Y-77686733D01*
X169314285Y-77686733D02*
X169295238Y-77743876D01*
X169295238Y-77743876D02*
X169066666Y-77972447D01*
X169066666Y-77972447D02*
X169314285Y-77972447D01*
X170933333Y-80344352D02*
X170914285Y-80363400D01*
X170914285Y-80363400D02*
X170857143Y-80382447D01*
X170857143Y-80382447D02*
X170819047Y-80382447D01*
X170819047Y-80382447D02*
X170761904Y-80363400D01*
X170761904Y-80363400D02*
X170723809Y-80325304D01*
X170723809Y-80325304D02*
X170704762Y-80287209D01*
X170704762Y-80287209D02*
X170685714Y-80211019D01*
X170685714Y-80211019D02*
X170685714Y-80153876D01*
X170685714Y-80153876D02*
X170704762Y-80077685D01*
X170704762Y-80077685D02*
X170723809Y-80039590D01*
X170723809Y-80039590D02*
X170761904Y-80001495D01*
X170761904Y-80001495D02*
X170819047Y-79982447D01*
X170819047Y-79982447D02*
X170857143Y-79982447D01*
X170857143Y-79982447D02*
X170914285Y-80001495D01*
X170914285Y-80001495D02*
X170933333Y-80020542D01*
X171066666Y-79982447D02*
X171314285Y-79982447D01*
X171314285Y-79982447D02*
X171180952Y-80134828D01*
X171180952Y-80134828D02*
X171238095Y-80134828D01*
X171238095Y-80134828D02*
X171276190Y-80153876D01*
X171276190Y-80153876D02*
X171295238Y-80172923D01*
X171295238Y-80172923D02*
X171314285Y-80211019D01*
X171314285Y-80211019D02*
X171314285Y-80306257D01*
X171314285Y-80306257D02*
X171295238Y-80344352D01*
X171295238Y-80344352D02*
X171276190Y-80363400D01*
X171276190Y-80363400D02*
X171238095Y-80382447D01*
X171238095Y-80382447D02*
X171123809Y-80382447D01*
X171123809Y-80382447D02*
X171085714Y-80363400D01*
X171085714Y-80363400D02*
X171066666Y-80344352D01*
X164669947Y-90654761D02*
X164993757Y-90654761D01*
X164993757Y-90654761D02*
X165031852Y-90635714D01*
X165031852Y-90635714D02*
X165050900Y-90616666D01*
X165050900Y-90616666D02*
X165069947Y-90578571D01*
X165069947Y-90578571D02*
X165069947Y-90502380D01*
X165069947Y-90502380D02*
X165050900Y-90464285D01*
X165050900Y-90464285D02*
X165031852Y-90445238D01*
X165031852Y-90445238D02*
X164993757Y-90426190D01*
X164993757Y-90426190D02*
X164669947Y-90426190D01*
X164708042Y-90254761D02*
X164688995Y-90235713D01*
X164688995Y-90235713D02*
X164669947Y-90197618D01*
X164669947Y-90197618D02*
X164669947Y-90102380D01*
X164669947Y-90102380D02*
X164688995Y-90064285D01*
X164688995Y-90064285D02*
X164708042Y-90045237D01*
X164708042Y-90045237D02*
X164746138Y-90026190D01*
X164746138Y-90026190D02*
X164784233Y-90026190D01*
X164784233Y-90026190D02*
X164841376Y-90045237D01*
X164841376Y-90045237D02*
X165069947Y-90273809D01*
X165069947Y-90273809D02*
X165069947Y-90026190D01*
X165042857Y-91644352D02*
X165023809Y-91663400D01*
X165023809Y-91663400D02*
X164966667Y-91682447D01*
X164966667Y-91682447D02*
X164928571Y-91682447D01*
X164928571Y-91682447D02*
X164871428Y-91663400D01*
X164871428Y-91663400D02*
X164833333Y-91625304D01*
X164833333Y-91625304D02*
X164814286Y-91587209D01*
X164814286Y-91587209D02*
X164795238Y-91511019D01*
X164795238Y-91511019D02*
X164795238Y-91453876D01*
X164795238Y-91453876D02*
X164814286Y-91377685D01*
X164814286Y-91377685D02*
X164833333Y-91339590D01*
X164833333Y-91339590D02*
X164871428Y-91301495D01*
X164871428Y-91301495D02*
X164928571Y-91282447D01*
X164928571Y-91282447D02*
X164966667Y-91282447D01*
X164966667Y-91282447D02*
X165023809Y-91301495D01*
X165023809Y-91301495D02*
X165042857Y-91320542D01*
X165195238Y-91320542D02*
X165214286Y-91301495D01*
X165214286Y-91301495D02*
X165252381Y-91282447D01*
X165252381Y-91282447D02*
X165347619Y-91282447D01*
X165347619Y-91282447D02*
X165385714Y-91301495D01*
X165385714Y-91301495D02*
X165404762Y-91320542D01*
X165404762Y-91320542D02*
X165423809Y-91358638D01*
X165423809Y-91358638D02*
X165423809Y-91396733D01*
X165423809Y-91396733D02*
X165404762Y-91453876D01*
X165404762Y-91453876D02*
X165176190Y-91682447D01*
X165176190Y-91682447D02*
X165423809Y-91682447D01*
X165557142Y-91282447D02*
X165804761Y-91282447D01*
X165804761Y-91282447D02*
X165671428Y-91434828D01*
X165671428Y-91434828D02*
X165728571Y-91434828D01*
X165728571Y-91434828D02*
X165766666Y-91453876D01*
X165766666Y-91453876D02*
X165785714Y-91472923D01*
X165785714Y-91472923D02*
X165804761Y-91511019D01*
X165804761Y-91511019D02*
X165804761Y-91606257D01*
X165804761Y-91606257D02*
X165785714Y-91644352D01*
X165785714Y-91644352D02*
X165766666Y-91663400D01*
X165766666Y-91663400D02*
X165728571Y-91682447D01*
X165728571Y-91682447D02*
X165614285Y-91682447D01*
X165614285Y-91682447D02*
X165576190Y-91663400D01*
X165576190Y-91663400D02*
X165557142Y-91644352D01*
X175134447Y-73304761D02*
X175134447Y-73076190D01*
X175534447Y-73190476D02*
X175134447Y-73190476D01*
X175534447Y-72942856D02*
X175134447Y-72942856D01*
X175134447Y-72942856D02*
X175134447Y-72790475D01*
X175134447Y-72790475D02*
X175153495Y-72752380D01*
X175153495Y-72752380D02*
X175172542Y-72733333D01*
X175172542Y-72733333D02*
X175210638Y-72714285D01*
X175210638Y-72714285D02*
X175267780Y-72714285D01*
X175267780Y-72714285D02*
X175305876Y-72733333D01*
X175305876Y-72733333D02*
X175324923Y-72752380D01*
X175324923Y-72752380D02*
X175343971Y-72790475D01*
X175343971Y-72790475D02*
X175343971Y-72942856D01*
X175534447Y-72333333D02*
X175534447Y-72561904D01*
X175534447Y-72447618D02*
X175134447Y-72447618D01*
X175134447Y-72447618D02*
X175191590Y-72485714D01*
X175191590Y-72485714D02*
X175229685Y-72523809D01*
X175229685Y-72523809D02*
X175248733Y-72561904D01*
X174982447Y-82166666D02*
X174791971Y-82299999D01*
X174982447Y-82395237D02*
X174582447Y-82395237D01*
X174582447Y-82395237D02*
X174582447Y-82242856D01*
X174582447Y-82242856D02*
X174601495Y-82204761D01*
X174601495Y-82204761D02*
X174620542Y-82185714D01*
X174620542Y-82185714D02*
X174658638Y-82166666D01*
X174658638Y-82166666D02*
X174715780Y-82166666D01*
X174715780Y-82166666D02*
X174753876Y-82185714D01*
X174753876Y-82185714D02*
X174772923Y-82204761D01*
X174772923Y-82204761D02*
X174791971Y-82242856D01*
X174791971Y-82242856D02*
X174791971Y-82395237D01*
X174982447Y-81785714D02*
X174982447Y-82014285D01*
X174982447Y-81899999D02*
X174582447Y-81899999D01*
X174582447Y-81899999D02*
X174639590Y-81938095D01*
X174639590Y-81938095D02*
X174677685Y-81976190D01*
X174677685Y-81976190D02*
X174696733Y-82014285D01*
X178082447Y-75504761D02*
X178082447Y-75276190D01*
X178482447Y-75390476D02*
X178082447Y-75390476D01*
X178482447Y-75142856D02*
X178082447Y-75142856D01*
X178082447Y-75142856D02*
X178082447Y-74990475D01*
X178082447Y-74990475D02*
X178101495Y-74952380D01*
X178101495Y-74952380D02*
X178120542Y-74933333D01*
X178120542Y-74933333D02*
X178158638Y-74914285D01*
X178158638Y-74914285D02*
X178215780Y-74914285D01*
X178215780Y-74914285D02*
X178253876Y-74933333D01*
X178253876Y-74933333D02*
X178272923Y-74952380D01*
X178272923Y-74952380D02*
X178291971Y-74990475D01*
X178291971Y-74990475D02*
X178291971Y-75142856D01*
X178215780Y-74571428D02*
X178482447Y-74571428D01*
X178063400Y-74666666D02*
X178349114Y-74761904D01*
X178349114Y-74761904D02*
X178349114Y-74514285D01*
X158659524Y-90041971D02*
X158659524Y-90232447D01*
X158526191Y-89832447D02*
X158659524Y-90041971D01*
X158659524Y-90041971D02*
X158792857Y-89832447D01*
X159135714Y-90232447D02*
X158907143Y-90232447D01*
X159021429Y-90232447D02*
X159021429Y-89832447D01*
X159021429Y-89832447D02*
X158983333Y-89889590D01*
X158983333Y-89889590D02*
X158945238Y-89927685D01*
X158945238Y-89927685D02*
X158907143Y-89946733D01*
X162742857Y-82382447D02*
X162609524Y-82191971D01*
X162514286Y-82382447D02*
X162514286Y-81982447D01*
X162514286Y-81982447D02*
X162666667Y-81982447D01*
X162666667Y-81982447D02*
X162704762Y-82001495D01*
X162704762Y-82001495D02*
X162723809Y-82020542D01*
X162723809Y-82020542D02*
X162742857Y-82058638D01*
X162742857Y-82058638D02*
X162742857Y-82115780D01*
X162742857Y-82115780D02*
X162723809Y-82153876D01*
X162723809Y-82153876D02*
X162704762Y-82172923D01*
X162704762Y-82172923D02*
X162666667Y-82191971D01*
X162666667Y-82191971D02*
X162514286Y-82191971D01*
X163123809Y-82382447D02*
X162895238Y-82382447D01*
X163009524Y-82382447D02*
X163009524Y-81982447D01*
X163009524Y-81982447D02*
X162971428Y-82039590D01*
X162971428Y-82039590D02*
X162933333Y-82077685D01*
X162933333Y-82077685D02*
X162895238Y-82096733D01*
X163485714Y-81982447D02*
X163295238Y-81982447D01*
X163295238Y-81982447D02*
X163276190Y-82172923D01*
X163276190Y-82172923D02*
X163295238Y-82153876D01*
X163295238Y-82153876D02*
X163333333Y-82134828D01*
X163333333Y-82134828D02*
X163428571Y-82134828D01*
X163428571Y-82134828D02*
X163466666Y-82153876D01*
X163466666Y-82153876D02*
X163485714Y-82172923D01*
X163485714Y-82172923D02*
X163504761Y-82211019D01*
X163504761Y-82211019D02*
X163504761Y-82306257D01*
X163504761Y-82306257D02*
X163485714Y-82344352D01*
X163485714Y-82344352D02*
X163466666Y-82363400D01*
X163466666Y-82363400D02*
X163428571Y-82382447D01*
X163428571Y-82382447D02*
X163333333Y-82382447D01*
X163333333Y-82382447D02*
X163295238Y-82363400D01*
X163295238Y-82363400D02*
X163276190Y-82344352D01*
X176114352Y-78916666D02*
X176133400Y-78935714D01*
X176133400Y-78935714D02*
X176152447Y-78992856D01*
X176152447Y-78992856D02*
X176152447Y-79030952D01*
X176152447Y-79030952D02*
X176133400Y-79088095D01*
X176133400Y-79088095D02*
X176095304Y-79126190D01*
X176095304Y-79126190D02*
X176057209Y-79145237D01*
X176057209Y-79145237D02*
X175981019Y-79164285D01*
X175981019Y-79164285D02*
X175923876Y-79164285D01*
X175923876Y-79164285D02*
X175847685Y-79145237D01*
X175847685Y-79145237D02*
X175809590Y-79126190D01*
X175809590Y-79126190D02*
X175771495Y-79088095D01*
X175771495Y-79088095D02*
X175752447Y-79030952D01*
X175752447Y-79030952D02*
X175752447Y-78992856D01*
X175752447Y-78992856D02*
X175771495Y-78935714D01*
X175771495Y-78935714D02*
X175790542Y-78916666D01*
X175790542Y-78764285D02*
X175771495Y-78745237D01*
X175771495Y-78745237D02*
X175752447Y-78707142D01*
X175752447Y-78707142D02*
X175752447Y-78611904D01*
X175752447Y-78611904D02*
X175771495Y-78573809D01*
X175771495Y-78573809D02*
X175790542Y-78554761D01*
X175790542Y-78554761D02*
X175828638Y-78535714D01*
X175828638Y-78535714D02*
X175866733Y-78535714D01*
X175866733Y-78535714D02*
X175923876Y-78554761D01*
X175923876Y-78554761D02*
X176152447Y-78783333D01*
X176152447Y-78783333D02*
X176152447Y-78535714D01*
X178034447Y-73304761D02*
X178034447Y-73076190D01*
X178434447Y-73190476D02*
X178034447Y-73190476D01*
X178434447Y-72942856D02*
X178034447Y-72942856D01*
X178034447Y-72942856D02*
X178034447Y-72790475D01*
X178034447Y-72790475D02*
X178053495Y-72752380D01*
X178053495Y-72752380D02*
X178072542Y-72733333D01*
X178072542Y-72733333D02*
X178110638Y-72714285D01*
X178110638Y-72714285D02*
X178167780Y-72714285D01*
X178167780Y-72714285D02*
X178205876Y-72733333D01*
X178205876Y-72733333D02*
X178224923Y-72752380D01*
X178224923Y-72752380D02*
X178243971Y-72790475D01*
X178243971Y-72790475D02*
X178243971Y-72942856D01*
X178072542Y-72561904D02*
X178053495Y-72542856D01*
X178053495Y-72542856D02*
X178034447Y-72504761D01*
X178034447Y-72504761D02*
X178034447Y-72409523D01*
X178034447Y-72409523D02*
X178053495Y-72371428D01*
X178053495Y-72371428D02*
X178072542Y-72352380D01*
X178072542Y-72352380D02*
X178110638Y-72333333D01*
X178110638Y-72333333D02*
X178148733Y-72333333D01*
X178148733Y-72333333D02*
X178205876Y-72352380D01*
X178205876Y-72352380D02*
X178434447Y-72580952D01*
X178434447Y-72580952D02*
X178434447Y-72333333D01*
X168066666Y-94582447D02*
X168066666Y-94868161D01*
X168066666Y-94868161D02*
X168047619Y-94925304D01*
X168047619Y-94925304D02*
X168009523Y-94963400D01*
X168009523Y-94963400D02*
X167952381Y-94982447D01*
X167952381Y-94982447D02*
X167914285Y-94982447D01*
X168219047Y-94582447D02*
X168466666Y-94582447D01*
X168466666Y-94582447D02*
X168333333Y-94734828D01*
X168333333Y-94734828D02*
X168390476Y-94734828D01*
X168390476Y-94734828D02*
X168428571Y-94753876D01*
X168428571Y-94753876D02*
X168447619Y-94772923D01*
X168447619Y-94772923D02*
X168466666Y-94811019D01*
X168466666Y-94811019D02*
X168466666Y-94906257D01*
X168466666Y-94906257D02*
X168447619Y-94944352D01*
X168447619Y-94944352D02*
X168428571Y-94963400D01*
X168428571Y-94963400D02*
X168390476Y-94982447D01*
X168390476Y-94982447D02*
X168276190Y-94982447D01*
X168276190Y-94982447D02*
X168238095Y-94963400D01*
X168238095Y-94963400D02*
X168219047Y-94944352D01*
X169142857Y-93444352D02*
X169123809Y-93463400D01*
X169123809Y-93463400D02*
X169066667Y-93482447D01*
X169066667Y-93482447D02*
X169028571Y-93482447D01*
X169028571Y-93482447D02*
X168971428Y-93463400D01*
X168971428Y-93463400D02*
X168933333Y-93425304D01*
X168933333Y-93425304D02*
X168914286Y-93387209D01*
X168914286Y-93387209D02*
X168895238Y-93311019D01*
X168895238Y-93311019D02*
X168895238Y-93253876D01*
X168895238Y-93253876D02*
X168914286Y-93177685D01*
X168914286Y-93177685D02*
X168933333Y-93139590D01*
X168933333Y-93139590D02*
X168971428Y-93101495D01*
X168971428Y-93101495D02*
X169028571Y-93082447D01*
X169028571Y-93082447D02*
X169066667Y-93082447D01*
X169066667Y-93082447D02*
X169123809Y-93101495D01*
X169123809Y-93101495D02*
X169142857Y-93120542D01*
X169295238Y-93120542D02*
X169314286Y-93101495D01*
X169314286Y-93101495D02*
X169352381Y-93082447D01*
X169352381Y-93082447D02*
X169447619Y-93082447D01*
X169447619Y-93082447D02*
X169485714Y-93101495D01*
X169485714Y-93101495D02*
X169504762Y-93120542D01*
X169504762Y-93120542D02*
X169523809Y-93158638D01*
X169523809Y-93158638D02*
X169523809Y-93196733D01*
X169523809Y-93196733D02*
X169504762Y-93253876D01*
X169504762Y-93253876D02*
X169276190Y-93482447D01*
X169276190Y-93482447D02*
X169523809Y-93482447D01*
X169771428Y-93082447D02*
X169809523Y-93082447D01*
X169809523Y-93082447D02*
X169847619Y-93101495D01*
X169847619Y-93101495D02*
X169866666Y-93120542D01*
X169866666Y-93120542D02*
X169885714Y-93158638D01*
X169885714Y-93158638D02*
X169904761Y-93234828D01*
X169904761Y-93234828D02*
X169904761Y-93330066D01*
X169904761Y-93330066D02*
X169885714Y-93406257D01*
X169885714Y-93406257D02*
X169866666Y-93444352D01*
X169866666Y-93444352D02*
X169847619Y-93463400D01*
X169847619Y-93463400D02*
X169809523Y-93482447D01*
X169809523Y-93482447D02*
X169771428Y-93482447D01*
X169771428Y-93482447D02*
X169733333Y-93463400D01*
X169733333Y-93463400D02*
X169714285Y-93444352D01*
X169714285Y-93444352D02*
X169695238Y-93406257D01*
X169695238Y-93406257D02*
X169676190Y-93330066D01*
X169676190Y-93330066D02*
X169676190Y-93234828D01*
X169676190Y-93234828D02*
X169695238Y-93158638D01*
X169695238Y-93158638D02*
X169714285Y-93120542D01*
X169714285Y-93120542D02*
X169733333Y-93101495D01*
X169733333Y-93101495D02*
X169771428Y-93082447D01*
X173742857Y-89644352D02*
X173723809Y-89663400D01*
X173723809Y-89663400D02*
X173666667Y-89682447D01*
X173666667Y-89682447D02*
X173628571Y-89682447D01*
X173628571Y-89682447D02*
X173571428Y-89663400D01*
X173571428Y-89663400D02*
X173533333Y-89625304D01*
X173533333Y-89625304D02*
X173514286Y-89587209D01*
X173514286Y-89587209D02*
X173495238Y-89511019D01*
X173495238Y-89511019D02*
X173495238Y-89453876D01*
X173495238Y-89453876D02*
X173514286Y-89377685D01*
X173514286Y-89377685D02*
X173533333Y-89339590D01*
X173533333Y-89339590D02*
X173571428Y-89301495D01*
X173571428Y-89301495D02*
X173628571Y-89282447D01*
X173628571Y-89282447D02*
X173666667Y-89282447D01*
X173666667Y-89282447D02*
X173723809Y-89301495D01*
X173723809Y-89301495D02*
X173742857Y-89320542D01*
X174123809Y-89682447D02*
X173895238Y-89682447D01*
X174009524Y-89682447D02*
X174009524Y-89282447D01*
X174009524Y-89282447D02*
X173971428Y-89339590D01*
X173971428Y-89339590D02*
X173933333Y-89377685D01*
X173933333Y-89377685D02*
X173895238Y-89396733D01*
X174371428Y-89282447D02*
X174409523Y-89282447D01*
X174409523Y-89282447D02*
X174447619Y-89301495D01*
X174447619Y-89301495D02*
X174466666Y-89320542D01*
X174466666Y-89320542D02*
X174485714Y-89358638D01*
X174485714Y-89358638D02*
X174504761Y-89434828D01*
X174504761Y-89434828D02*
X174504761Y-89530066D01*
X174504761Y-89530066D02*
X174485714Y-89606257D01*
X174485714Y-89606257D02*
X174466666Y-89644352D01*
X174466666Y-89644352D02*
X174447619Y-89663400D01*
X174447619Y-89663400D02*
X174409523Y-89682447D01*
X174409523Y-89682447D02*
X174371428Y-89682447D01*
X174371428Y-89682447D02*
X174333333Y-89663400D01*
X174333333Y-89663400D02*
X174314285Y-89644352D01*
X174314285Y-89644352D02*
X174295238Y-89606257D01*
X174295238Y-89606257D02*
X174276190Y-89530066D01*
X174276190Y-89530066D02*
X174276190Y-89434828D01*
X174276190Y-89434828D02*
X174295238Y-89358638D01*
X174295238Y-89358638D02*
X174314285Y-89320542D01*
X174314285Y-89320542D02*
X174333333Y-89301495D01*
X174333333Y-89301495D02*
X174371428Y-89282447D01*
X157392857Y-85344352D02*
X157373809Y-85363400D01*
X157373809Y-85363400D02*
X157316667Y-85382447D01*
X157316667Y-85382447D02*
X157278571Y-85382447D01*
X157278571Y-85382447D02*
X157221428Y-85363400D01*
X157221428Y-85363400D02*
X157183333Y-85325304D01*
X157183333Y-85325304D02*
X157164286Y-85287209D01*
X157164286Y-85287209D02*
X157145238Y-85211019D01*
X157145238Y-85211019D02*
X157145238Y-85153876D01*
X157145238Y-85153876D02*
X157164286Y-85077685D01*
X157164286Y-85077685D02*
X157183333Y-85039590D01*
X157183333Y-85039590D02*
X157221428Y-85001495D01*
X157221428Y-85001495D02*
X157278571Y-84982447D01*
X157278571Y-84982447D02*
X157316667Y-84982447D01*
X157316667Y-84982447D02*
X157373809Y-85001495D01*
X157373809Y-85001495D02*
X157392857Y-85020542D01*
X157773809Y-85382447D02*
X157545238Y-85382447D01*
X157659524Y-85382447D02*
X157659524Y-84982447D01*
X157659524Y-84982447D02*
X157621428Y-85039590D01*
X157621428Y-85039590D02*
X157583333Y-85077685D01*
X157583333Y-85077685D02*
X157545238Y-85096733D01*
X158135714Y-84982447D02*
X157945238Y-84982447D01*
X157945238Y-84982447D02*
X157926190Y-85172923D01*
X157926190Y-85172923D02*
X157945238Y-85153876D01*
X157945238Y-85153876D02*
X157983333Y-85134828D01*
X157983333Y-85134828D02*
X158078571Y-85134828D01*
X158078571Y-85134828D02*
X158116666Y-85153876D01*
X158116666Y-85153876D02*
X158135714Y-85172923D01*
X158135714Y-85172923D02*
X158154761Y-85211019D01*
X158154761Y-85211019D02*
X158154761Y-85306257D01*
X158154761Y-85306257D02*
X158135714Y-85344352D01*
X158135714Y-85344352D02*
X158116666Y-85363400D01*
X158116666Y-85363400D02*
X158078571Y-85382447D01*
X158078571Y-85382447D02*
X157983333Y-85382447D01*
X157983333Y-85382447D02*
X157945238Y-85363400D01*
X157945238Y-85363400D02*
X157926190Y-85344352D01*
X174144352Y-82166666D02*
X174163400Y-82185714D01*
X174163400Y-82185714D02*
X174182447Y-82242856D01*
X174182447Y-82242856D02*
X174182447Y-82280952D01*
X174182447Y-82280952D02*
X174163400Y-82338095D01*
X174163400Y-82338095D02*
X174125304Y-82376190D01*
X174125304Y-82376190D02*
X174087209Y-82395237D01*
X174087209Y-82395237D02*
X174011019Y-82414285D01*
X174011019Y-82414285D02*
X173953876Y-82414285D01*
X173953876Y-82414285D02*
X173877685Y-82395237D01*
X173877685Y-82395237D02*
X173839590Y-82376190D01*
X173839590Y-82376190D02*
X173801495Y-82338095D01*
X173801495Y-82338095D02*
X173782447Y-82280952D01*
X173782447Y-82280952D02*
X173782447Y-82242856D01*
X173782447Y-82242856D02*
X173801495Y-82185714D01*
X173801495Y-82185714D02*
X173820542Y-82166666D01*
X173782447Y-81804761D02*
X173782447Y-81995237D01*
X173782447Y-81995237D02*
X173972923Y-82014285D01*
X173972923Y-82014285D02*
X173953876Y-81995237D01*
X173953876Y-81995237D02*
X173934828Y-81957142D01*
X173934828Y-81957142D02*
X173934828Y-81861904D01*
X173934828Y-81861904D02*
X173953876Y-81823809D01*
X173953876Y-81823809D02*
X173972923Y-81804761D01*
X173972923Y-81804761D02*
X174011019Y-81785714D01*
X174011019Y-81785714D02*
X174106257Y-81785714D01*
X174106257Y-81785714D02*
X174144352Y-81804761D01*
X174144352Y-81804761D02*
X174163400Y-81823809D01*
X174163400Y-81823809D02*
X174182447Y-81861904D01*
X174182447Y-81861904D02*
X174182447Y-81957142D01*
X174182447Y-81957142D02*
X174163400Y-81995237D01*
X174163400Y-81995237D02*
X174144352Y-82014285D01*
X174442857Y-86044352D02*
X174423809Y-86063400D01*
X174423809Y-86063400D02*
X174366667Y-86082447D01*
X174366667Y-86082447D02*
X174328571Y-86082447D01*
X174328571Y-86082447D02*
X174271428Y-86063400D01*
X174271428Y-86063400D02*
X174233333Y-86025304D01*
X174233333Y-86025304D02*
X174214286Y-85987209D01*
X174214286Y-85987209D02*
X174195238Y-85911019D01*
X174195238Y-85911019D02*
X174195238Y-85853876D01*
X174195238Y-85853876D02*
X174214286Y-85777685D01*
X174214286Y-85777685D02*
X174233333Y-85739590D01*
X174233333Y-85739590D02*
X174271428Y-85701495D01*
X174271428Y-85701495D02*
X174328571Y-85682447D01*
X174328571Y-85682447D02*
X174366667Y-85682447D01*
X174366667Y-85682447D02*
X174423809Y-85701495D01*
X174423809Y-85701495D02*
X174442857Y-85720542D01*
X174595238Y-85720542D02*
X174614286Y-85701495D01*
X174614286Y-85701495D02*
X174652381Y-85682447D01*
X174652381Y-85682447D02*
X174747619Y-85682447D01*
X174747619Y-85682447D02*
X174785714Y-85701495D01*
X174785714Y-85701495D02*
X174804762Y-85720542D01*
X174804762Y-85720542D02*
X174823809Y-85758638D01*
X174823809Y-85758638D02*
X174823809Y-85796733D01*
X174823809Y-85796733D02*
X174804762Y-85853876D01*
X174804762Y-85853876D02*
X174576190Y-86082447D01*
X174576190Y-86082447D02*
X174823809Y-86082447D01*
X174976190Y-85720542D02*
X174995238Y-85701495D01*
X174995238Y-85701495D02*
X175033333Y-85682447D01*
X175033333Y-85682447D02*
X175128571Y-85682447D01*
X175128571Y-85682447D02*
X175166666Y-85701495D01*
X175166666Y-85701495D02*
X175185714Y-85720542D01*
X175185714Y-85720542D02*
X175204761Y-85758638D01*
X175204761Y-85758638D02*
X175204761Y-85796733D01*
X175204761Y-85796733D02*
X175185714Y-85853876D01*
X175185714Y-85853876D02*
X174957142Y-86082447D01*
X174957142Y-86082447D02*
X175204761Y-86082447D01*
X167633333Y-77932447D02*
X167500000Y-77741971D01*
X167404762Y-77932447D02*
X167404762Y-77532447D01*
X167404762Y-77532447D02*
X167557143Y-77532447D01*
X167557143Y-77532447D02*
X167595238Y-77551495D01*
X167595238Y-77551495D02*
X167614285Y-77570542D01*
X167614285Y-77570542D02*
X167633333Y-77608638D01*
X167633333Y-77608638D02*
X167633333Y-77665780D01*
X167633333Y-77665780D02*
X167614285Y-77703876D01*
X167614285Y-77703876D02*
X167595238Y-77722923D01*
X167595238Y-77722923D02*
X167557143Y-77741971D01*
X167557143Y-77741971D02*
X167404762Y-77741971D01*
X167976190Y-77665780D02*
X167976190Y-77932447D01*
X167880952Y-77513400D02*
X167785714Y-77799114D01*
X167785714Y-77799114D02*
X168033333Y-77799114D01*
X175134447Y-75604761D02*
X175134447Y-75376190D01*
X175534447Y-75490476D02*
X175134447Y-75490476D01*
X175534447Y-75242856D02*
X175134447Y-75242856D01*
X175134447Y-75242856D02*
X175134447Y-75090475D01*
X175134447Y-75090475D02*
X175153495Y-75052380D01*
X175153495Y-75052380D02*
X175172542Y-75033333D01*
X175172542Y-75033333D02*
X175210638Y-75014285D01*
X175210638Y-75014285D02*
X175267780Y-75014285D01*
X175267780Y-75014285D02*
X175305876Y-75033333D01*
X175305876Y-75033333D02*
X175324923Y-75052380D01*
X175324923Y-75052380D02*
X175343971Y-75090475D01*
X175343971Y-75090475D02*
X175343971Y-75242856D01*
X175134447Y-74880952D02*
X175134447Y-74633333D01*
X175134447Y-74633333D02*
X175286828Y-74766666D01*
X175286828Y-74766666D02*
X175286828Y-74709523D01*
X175286828Y-74709523D02*
X175305876Y-74671428D01*
X175305876Y-74671428D02*
X175324923Y-74652380D01*
X175324923Y-74652380D02*
X175363019Y-74633333D01*
X175363019Y-74633333D02*
X175458257Y-74633333D01*
X175458257Y-74633333D02*
X175496352Y-74652380D01*
X175496352Y-74652380D02*
X175515400Y-74671428D01*
X175515400Y-74671428D02*
X175534447Y-74709523D01*
X175534447Y-74709523D02*
X175534447Y-74823809D01*
X175534447Y-74823809D02*
X175515400Y-74861904D01*
X175515400Y-74861904D02*
X175496352Y-74880952D01*
X163842857Y-99082447D02*
X163709524Y-98891971D01*
X163614286Y-99082447D02*
X163614286Y-98682447D01*
X163614286Y-98682447D02*
X163766667Y-98682447D01*
X163766667Y-98682447D02*
X163804762Y-98701495D01*
X163804762Y-98701495D02*
X163823809Y-98720542D01*
X163823809Y-98720542D02*
X163842857Y-98758638D01*
X163842857Y-98758638D02*
X163842857Y-98815780D01*
X163842857Y-98815780D02*
X163823809Y-98853876D01*
X163823809Y-98853876D02*
X163804762Y-98872923D01*
X163804762Y-98872923D02*
X163766667Y-98891971D01*
X163766667Y-98891971D02*
X163614286Y-98891971D01*
X164223809Y-99082447D02*
X163995238Y-99082447D01*
X164109524Y-99082447D02*
X164109524Y-98682447D01*
X164109524Y-98682447D02*
X164071428Y-98739590D01*
X164071428Y-98739590D02*
X164033333Y-98777685D01*
X164033333Y-98777685D02*
X163995238Y-98796733D01*
X164566666Y-98815780D02*
X164566666Y-99082447D01*
X164471428Y-98663400D02*
X164376190Y-98949114D01*
X164376190Y-98949114D02*
X164623809Y-98949114D01*
X156570542Y-94450595D02*
X156551495Y-94488690D01*
X156551495Y-94488690D02*
X156513400Y-94526785D01*
X156513400Y-94526785D02*
X156456257Y-94583928D01*
X156456257Y-94583928D02*
X156437209Y-94622023D01*
X156437209Y-94622023D02*
X156437209Y-94660119D01*
X156532447Y-94641071D02*
X156513400Y-94679166D01*
X156513400Y-94679166D02*
X156475304Y-94717261D01*
X156475304Y-94717261D02*
X156399114Y-94736309D01*
X156399114Y-94736309D02*
X156265780Y-94736309D01*
X156265780Y-94736309D02*
X156189590Y-94717261D01*
X156189590Y-94717261D02*
X156151495Y-94679166D01*
X156151495Y-94679166D02*
X156132447Y-94641071D01*
X156132447Y-94641071D02*
X156132447Y-94564880D01*
X156132447Y-94564880D02*
X156151495Y-94526785D01*
X156151495Y-94526785D02*
X156189590Y-94488690D01*
X156189590Y-94488690D02*
X156265780Y-94469642D01*
X156265780Y-94469642D02*
X156399114Y-94469642D01*
X156399114Y-94469642D02*
X156475304Y-94488690D01*
X156475304Y-94488690D02*
X156513400Y-94526785D01*
X156513400Y-94526785D02*
X156532447Y-94564880D01*
X156532447Y-94564880D02*
X156532447Y-94641071D01*
X156532447Y-94088690D02*
X156532447Y-94317261D01*
X156532447Y-94202975D02*
X156132447Y-94202975D01*
X156132447Y-94202975D02*
X156189590Y-94241071D01*
X156189590Y-94241071D02*
X156227685Y-94279166D01*
X156227685Y-94279166D02*
X156246733Y-94317261D01*
X163282447Y-97457142D02*
X163091971Y-97590475D01*
X163282447Y-97685713D02*
X162882447Y-97685713D01*
X162882447Y-97685713D02*
X162882447Y-97533332D01*
X162882447Y-97533332D02*
X162901495Y-97495237D01*
X162901495Y-97495237D02*
X162920542Y-97476190D01*
X162920542Y-97476190D02*
X162958638Y-97457142D01*
X162958638Y-97457142D02*
X163015780Y-97457142D01*
X163015780Y-97457142D02*
X163053876Y-97476190D01*
X163053876Y-97476190D02*
X163072923Y-97495237D01*
X163072923Y-97495237D02*
X163091971Y-97533332D01*
X163091971Y-97533332D02*
X163091971Y-97685713D01*
X163282447Y-97076190D02*
X163282447Y-97304761D01*
X163282447Y-97190475D02*
X162882447Y-97190475D01*
X162882447Y-97190475D02*
X162939590Y-97228571D01*
X162939590Y-97228571D02*
X162977685Y-97266666D01*
X162977685Y-97266666D02*
X162996733Y-97304761D01*
X162882447Y-96942857D02*
X162882447Y-96695238D01*
X162882447Y-96695238D02*
X163034828Y-96828571D01*
X163034828Y-96828571D02*
X163034828Y-96771428D01*
X163034828Y-96771428D02*
X163053876Y-96733333D01*
X163053876Y-96733333D02*
X163072923Y-96714285D01*
X163072923Y-96714285D02*
X163111019Y-96695238D01*
X163111019Y-96695238D02*
X163206257Y-96695238D01*
X163206257Y-96695238D02*
X163244352Y-96714285D01*
X163244352Y-96714285D02*
X163263400Y-96733333D01*
X163263400Y-96733333D02*
X163282447Y-96771428D01*
X163282447Y-96771428D02*
X163282447Y-96885714D01*
X163282447Y-96885714D02*
X163263400Y-96923809D01*
X163263400Y-96923809D02*
X163244352Y-96942857D01*
X162444352Y-88357142D02*
X162463400Y-88376190D01*
X162463400Y-88376190D02*
X162482447Y-88433332D01*
X162482447Y-88433332D02*
X162482447Y-88471428D01*
X162482447Y-88471428D02*
X162463400Y-88528571D01*
X162463400Y-88528571D02*
X162425304Y-88566666D01*
X162425304Y-88566666D02*
X162387209Y-88585713D01*
X162387209Y-88585713D02*
X162311019Y-88604761D01*
X162311019Y-88604761D02*
X162253876Y-88604761D01*
X162253876Y-88604761D02*
X162177685Y-88585713D01*
X162177685Y-88585713D02*
X162139590Y-88566666D01*
X162139590Y-88566666D02*
X162101495Y-88528571D01*
X162101495Y-88528571D02*
X162082447Y-88471428D01*
X162082447Y-88471428D02*
X162082447Y-88433332D01*
X162082447Y-88433332D02*
X162101495Y-88376190D01*
X162101495Y-88376190D02*
X162120542Y-88357142D01*
X162482447Y-87976190D02*
X162482447Y-88204761D01*
X162482447Y-88090475D02*
X162082447Y-88090475D01*
X162082447Y-88090475D02*
X162139590Y-88128571D01*
X162139590Y-88128571D02*
X162177685Y-88166666D01*
X162177685Y-88166666D02*
X162196733Y-88204761D01*
X162215780Y-87633333D02*
X162482447Y-87633333D01*
X162063400Y-87728571D02*
X162349114Y-87823809D01*
X162349114Y-87823809D02*
X162349114Y-87576190D01*
X169933333Y-77972447D02*
X169800000Y-77781971D01*
X169704762Y-77972447D02*
X169704762Y-77572447D01*
X169704762Y-77572447D02*
X169857143Y-77572447D01*
X169857143Y-77572447D02*
X169895238Y-77591495D01*
X169895238Y-77591495D02*
X169914285Y-77610542D01*
X169914285Y-77610542D02*
X169933333Y-77648638D01*
X169933333Y-77648638D02*
X169933333Y-77705780D01*
X169933333Y-77705780D02*
X169914285Y-77743876D01*
X169914285Y-77743876D02*
X169895238Y-77762923D01*
X169895238Y-77762923D02*
X169857143Y-77781971D01*
X169857143Y-77781971D02*
X169704762Y-77781971D01*
X170066666Y-77572447D02*
X170314285Y-77572447D01*
X170314285Y-77572447D02*
X170180952Y-77724828D01*
X170180952Y-77724828D02*
X170238095Y-77724828D01*
X170238095Y-77724828D02*
X170276190Y-77743876D01*
X170276190Y-77743876D02*
X170295238Y-77762923D01*
X170295238Y-77762923D02*
X170314285Y-77801019D01*
X170314285Y-77801019D02*
X170314285Y-77896257D01*
X170314285Y-77896257D02*
X170295238Y-77934352D01*
X170295238Y-77934352D02*
X170276190Y-77953400D01*
X170276190Y-77953400D02*
X170238095Y-77972447D01*
X170238095Y-77972447D02*
X170123809Y-77972447D01*
X170123809Y-77972447D02*
X170085714Y-77953400D01*
X170085714Y-77953400D02*
X170066666Y-77934352D01*
X163842857Y-85144352D02*
X163823809Y-85163400D01*
X163823809Y-85163400D02*
X163766667Y-85182447D01*
X163766667Y-85182447D02*
X163728571Y-85182447D01*
X163728571Y-85182447D02*
X163671428Y-85163400D01*
X163671428Y-85163400D02*
X163633333Y-85125304D01*
X163633333Y-85125304D02*
X163614286Y-85087209D01*
X163614286Y-85087209D02*
X163595238Y-85011019D01*
X163595238Y-85011019D02*
X163595238Y-84953876D01*
X163595238Y-84953876D02*
X163614286Y-84877685D01*
X163614286Y-84877685D02*
X163633333Y-84839590D01*
X163633333Y-84839590D02*
X163671428Y-84801495D01*
X163671428Y-84801495D02*
X163728571Y-84782447D01*
X163728571Y-84782447D02*
X163766667Y-84782447D01*
X163766667Y-84782447D02*
X163823809Y-84801495D01*
X163823809Y-84801495D02*
X163842857Y-84820542D01*
X164223809Y-85182447D02*
X163995238Y-85182447D01*
X164109524Y-85182447D02*
X164109524Y-84782447D01*
X164109524Y-84782447D02*
X164071428Y-84839590D01*
X164071428Y-84839590D02*
X164033333Y-84877685D01*
X164033333Y-84877685D02*
X163995238Y-84896733D01*
X164357142Y-84782447D02*
X164604761Y-84782447D01*
X164604761Y-84782447D02*
X164471428Y-84934828D01*
X164471428Y-84934828D02*
X164528571Y-84934828D01*
X164528571Y-84934828D02*
X164566666Y-84953876D01*
X164566666Y-84953876D02*
X164585714Y-84972923D01*
X164585714Y-84972923D02*
X164604761Y-85011019D01*
X164604761Y-85011019D02*
X164604761Y-85106257D01*
X164604761Y-85106257D02*
X164585714Y-85144352D01*
X164585714Y-85144352D02*
X164566666Y-85163400D01*
X164566666Y-85163400D02*
X164528571Y-85182447D01*
X164528571Y-85182447D02*
X164414285Y-85182447D01*
X164414285Y-85182447D02*
X164376190Y-85163400D01*
X164376190Y-85163400D02*
X164357142Y-85144352D01*
X174844352Y-84966666D02*
X174863400Y-84985714D01*
X174863400Y-84985714D02*
X174882447Y-85042856D01*
X174882447Y-85042856D02*
X174882447Y-85080952D01*
X174882447Y-85080952D02*
X174863400Y-85138095D01*
X174863400Y-85138095D02*
X174825304Y-85176190D01*
X174825304Y-85176190D02*
X174787209Y-85195237D01*
X174787209Y-85195237D02*
X174711019Y-85214285D01*
X174711019Y-85214285D02*
X174653876Y-85214285D01*
X174653876Y-85214285D02*
X174577685Y-85195237D01*
X174577685Y-85195237D02*
X174539590Y-85176190D01*
X174539590Y-85176190D02*
X174501495Y-85138095D01*
X174501495Y-85138095D02*
X174482447Y-85080952D01*
X174482447Y-85080952D02*
X174482447Y-85042856D01*
X174482447Y-85042856D02*
X174501495Y-84985714D01*
X174501495Y-84985714D02*
X174520542Y-84966666D01*
X174882447Y-84776190D02*
X174882447Y-84699999D01*
X174882447Y-84699999D02*
X174863400Y-84661904D01*
X174863400Y-84661904D02*
X174844352Y-84642856D01*
X174844352Y-84642856D02*
X174787209Y-84604761D01*
X174787209Y-84604761D02*
X174711019Y-84585714D01*
X174711019Y-84585714D02*
X174558638Y-84585714D01*
X174558638Y-84585714D02*
X174520542Y-84604761D01*
X174520542Y-84604761D02*
X174501495Y-84623809D01*
X174501495Y-84623809D02*
X174482447Y-84661904D01*
X174482447Y-84661904D02*
X174482447Y-84738095D01*
X174482447Y-84738095D02*
X174501495Y-84776190D01*
X174501495Y-84776190D02*
X174520542Y-84795237D01*
X174520542Y-84795237D02*
X174558638Y-84814285D01*
X174558638Y-84814285D02*
X174653876Y-84814285D01*
X174653876Y-84814285D02*
X174691971Y-84795237D01*
X174691971Y-84795237D02*
X174711019Y-84776190D01*
X174711019Y-84776190D02*
X174730066Y-84738095D01*
X174730066Y-84738095D02*
X174730066Y-84661904D01*
X174730066Y-84661904D02*
X174711019Y-84623809D01*
X174711019Y-84623809D02*
X174691971Y-84604761D01*
X174691971Y-84604761D02*
X174653876Y-84585714D01*
X157933333Y-93752447D02*
X157800000Y-93561971D01*
X157704762Y-93752447D02*
X157704762Y-93352447D01*
X157704762Y-93352447D02*
X157857143Y-93352447D01*
X157857143Y-93352447D02*
X157895238Y-93371495D01*
X157895238Y-93371495D02*
X157914285Y-93390542D01*
X157914285Y-93390542D02*
X157933333Y-93428638D01*
X157933333Y-93428638D02*
X157933333Y-93485780D01*
X157933333Y-93485780D02*
X157914285Y-93523876D01*
X157914285Y-93523876D02*
X157895238Y-93542923D01*
X157895238Y-93542923D02*
X157857143Y-93561971D01*
X157857143Y-93561971D02*
X157704762Y-93561971D01*
X158066666Y-93352447D02*
X158333333Y-93352447D01*
X158333333Y-93352447D02*
X158161904Y-93752447D01*
X163842857Y-100082447D02*
X163709524Y-99891971D01*
X163614286Y-100082447D02*
X163614286Y-99682447D01*
X163614286Y-99682447D02*
X163766667Y-99682447D01*
X163766667Y-99682447D02*
X163804762Y-99701495D01*
X163804762Y-99701495D02*
X163823809Y-99720542D01*
X163823809Y-99720542D02*
X163842857Y-99758638D01*
X163842857Y-99758638D02*
X163842857Y-99815780D01*
X163842857Y-99815780D02*
X163823809Y-99853876D01*
X163823809Y-99853876D02*
X163804762Y-99872923D01*
X163804762Y-99872923D02*
X163766667Y-99891971D01*
X163766667Y-99891971D02*
X163614286Y-99891971D01*
X164223809Y-100082447D02*
X163995238Y-100082447D01*
X164109524Y-100082447D02*
X164109524Y-99682447D01*
X164109524Y-99682447D02*
X164071428Y-99739590D01*
X164071428Y-99739590D02*
X164033333Y-99777685D01*
X164033333Y-99777685D02*
X163995238Y-99796733D01*
X164604761Y-100082447D02*
X164376190Y-100082447D01*
X164490476Y-100082447D02*
X164490476Y-99682447D01*
X164490476Y-99682447D02*
X164452380Y-99739590D01*
X164452380Y-99739590D02*
X164414285Y-99777685D01*
X164414285Y-99777685D02*
X164376190Y-99796733D01*
X176844352Y-83157142D02*
X176863400Y-83176190D01*
X176863400Y-83176190D02*
X176882447Y-83233332D01*
X176882447Y-83233332D02*
X176882447Y-83271428D01*
X176882447Y-83271428D02*
X176863400Y-83328571D01*
X176863400Y-83328571D02*
X176825304Y-83366666D01*
X176825304Y-83366666D02*
X176787209Y-83385713D01*
X176787209Y-83385713D02*
X176711019Y-83404761D01*
X176711019Y-83404761D02*
X176653876Y-83404761D01*
X176653876Y-83404761D02*
X176577685Y-83385713D01*
X176577685Y-83385713D02*
X176539590Y-83366666D01*
X176539590Y-83366666D02*
X176501495Y-83328571D01*
X176501495Y-83328571D02*
X176482447Y-83271428D01*
X176482447Y-83271428D02*
X176482447Y-83233332D01*
X176482447Y-83233332D02*
X176501495Y-83176190D01*
X176501495Y-83176190D02*
X176520542Y-83157142D01*
X176882447Y-82776190D02*
X176882447Y-83004761D01*
X176882447Y-82890475D02*
X176482447Y-82890475D01*
X176482447Y-82890475D02*
X176539590Y-82928571D01*
X176539590Y-82928571D02*
X176577685Y-82966666D01*
X176577685Y-82966666D02*
X176596733Y-83004761D01*
X176882447Y-82395238D02*
X176882447Y-82623809D01*
X176882447Y-82509523D02*
X176482447Y-82509523D01*
X176482447Y-82509523D02*
X176539590Y-82547619D01*
X176539590Y-82547619D02*
X176577685Y-82585714D01*
X176577685Y-82585714D02*
X176596733Y-82623809D01*
X159091617Y-97288400D02*
X159148760Y-97307447D01*
X159148760Y-97307447D02*
X159243998Y-97307447D01*
X159243998Y-97307447D02*
X159282093Y-97288400D01*
X159282093Y-97288400D02*
X159301141Y-97269352D01*
X159301141Y-97269352D02*
X159320188Y-97231257D01*
X159320188Y-97231257D02*
X159320188Y-97193161D01*
X159320188Y-97193161D02*
X159301141Y-97155066D01*
X159301141Y-97155066D02*
X159282093Y-97136019D01*
X159282093Y-97136019D02*
X159243998Y-97116971D01*
X159243998Y-97116971D02*
X159167807Y-97097923D01*
X159167807Y-97097923D02*
X159129712Y-97078876D01*
X159129712Y-97078876D02*
X159110665Y-97059828D01*
X159110665Y-97059828D02*
X159091617Y-97021733D01*
X159091617Y-97021733D02*
X159091617Y-96983638D01*
X159091617Y-96983638D02*
X159110665Y-96945542D01*
X159110665Y-96945542D02*
X159129712Y-96926495D01*
X159129712Y-96926495D02*
X159167807Y-96907447D01*
X159167807Y-96907447D02*
X159263046Y-96907447D01*
X159263046Y-96907447D02*
X159320188Y-96926495D01*
X159453521Y-96907447D02*
X159548759Y-97307447D01*
X159548759Y-97307447D02*
X159624950Y-97021733D01*
X159624950Y-97021733D02*
X159701140Y-97307447D01*
X159701140Y-97307447D02*
X159796379Y-96907447D01*
X160158283Y-97307447D02*
X159929712Y-97307447D01*
X160043998Y-97307447D02*
X160043998Y-96907447D01*
X160043998Y-96907447D02*
X160005902Y-96964590D01*
X160005902Y-96964590D02*
X159967807Y-97002685D01*
X159967807Y-97002685D02*
X159929712Y-97021733D01*
X177844352Y-83057142D02*
X177863400Y-83076190D01*
X177863400Y-83076190D02*
X177882447Y-83133332D01*
X177882447Y-83133332D02*
X177882447Y-83171428D01*
X177882447Y-83171428D02*
X177863400Y-83228571D01*
X177863400Y-83228571D02*
X177825304Y-83266666D01*
X177825304Y-83266666D02*
X177787209Y-83285713D01*
X177787209Y-83285713D02*
X177711019Y-83304761D01*
X177711019Y-83304761D02*
X177653876Y-83304761D01*
X177653876Y-83304761D02*
X177577685Y-83285713D01*
X177577685Y-83285713D02*
X177539590Y-83266666D01*
X177539590Y-83266666D02*
X177501495Y-83228571D01*
X177501495Y-83228571D02*
X177482447Y-83171428D01*
X177482447Y-83171428D02*
X177482447Y-83133332D01*
X177482447Y-83133332D02*
X177501495Y-83076190D01*
X177501495Y-83076190D02*
X177520542Y-83057142D01*
X177882447Y-82676190D02*
X177882447Y-82904761D01*
X177882447Y-82790475D02*
X177482447Y-82790475D01*
X177482447Y-82790475D02*
X177539590Y-82828571D01*
X177539590Y-82828571D02*
X177577685Y-82866666D01*
X177577685Y-82866666D02*
X177596733Y-82904761D01*
X177520542Y-82523809D02*
X177501495Y-82504761D01*
X177501495Y-82504761D02*
X177482447Y-82466666D01*
X177482447Y-82466666D02*
X177482447Y-82371428D01*
X177482447Y-82371428D02*
X177501495Y-82333333D01*
X177501495Y-82333333D02*
X177520542Y-82314285D01*
X177520542Y-82314285D02*
X177558638Y-82295238D01*
X177558638Y-82295238D02*
X177596733Y-82295238D01*
X177596733Y-82295238D02*
X177653876Y-82314285D01*
X177653876Y-82314285D02*
X177882447Y-82542857D01*
X177882447Y-82542857D02*
X177882447Y-82295238D01*
X167074352Y-96657142D02*
X167093400Y-96676190D01*
X167093400Y-96676190D02*
X167112447Y-96733332D01*
X167112447Y-96733332D02*
X167112447Y-96771428D01*
X167112447Y-96771428D02*
X167093400Y-96828571D01*
X167093400Y-96828571D02*
X167055304Y-96866666D01*
X167055304Y-96866666D02*
X167017209Y-96885713D01*
X167017209Y-96885713D02*
X166941019Y-96904761D01*
X166941019Y-96904761D02*
X166883876Y-96904761D01*
X166883876Y-96904761D02*
X166807685Y-96885713D01*
X166807685Y-96885713D02*
X166769590Y-96866666D01*
X166769590Y-96866666D02*
X166731495Y-96828571D01*
X166731495Y-96828571D02*
X166712447Y-96771428D01*
X166712447Y-96771428D02*
X166712447Y-96733332D01*
X166712447Y-96733332D02*
X166731495Y-96676190D01*
X166731495Y-96676190D02*
X166750542Y-96657142D01*
X166750542Y-96504761D02*
X166731495Y-96485713D01*
X166731495Y-96485713D02*
X166712447Y-96447618D01*
X166712447Y-96447618D02*
X166712447Y-96352380D01*
X166712447Y-96352380D02*
X166731495Y-96314285D01*
X166731495Y-96314285D02*
X166750542Y-96295237D01*
X166750542Y-96295237D02*
X166788638Y-96276190D01*
X166788638Y-96276190D02*
X166826733Y-96276190D01*
X166826733Y-96276190D02*
X166883876Y-96295237D01*
X166883876Y-96295237D02*
X167112447Y-96523809D01*
X167112447Y-96523809D02*
X167112447Y-96276190D01*
X166845780Y-95933333D02*
X167112447Y-95933333D01*
X166693400Y-96028571D02*
X166979114Y-96123809D01*
X166979114Y-96123809D02*
X166979114Y-95876190D01*
X158444352Y-80957142D02*
X158463400Y-80976190D01*
X158463400Y-80976190D02*
X158482447Y-81033332D01*
X158482447Y-81033332D02*
X158482447Y-81071428D01*
X158482447Y-81071428D02*
X158463400Y-81128571D01*
X158463400Y-81128571D02*
X158425304Y-81166666D01*
X158425304Y-81166666D02*
X158387209Y-81185713D01*
X158387209Y-81185713D02*
X158311019Y-81204761D01*
X158311019Y-81204761D02*
X158253876Y-81204761D01*
X158253876Y-81204761D02*
X158177685Y-81185713D01*
X158177685Y-81185713D02*
X158139590Y-81166666D01*
X158139590Y-81166666D02*
X158101495Y-81128571D01*
X158101495Y-81128571D02*
X158082447Y-81071428D01*
X158082447Y-81071428D02*
X158082447Y-81033332D01*
X158082447Y-81033332D02*
X158101495Y-80976190D01*
X158101495Y-80976190D02*
X158120542Y-80957142D01*
X158120542Y-80804761D02*
X158101495Y-80785713D01*
X158101495Y-80785713D02*
X158082447Y-80747618D01*
X158082447Y-80747618D02*
X158082447Y-80652380D01*
X158082447Y-80652380D02*
X158101495Y-80614285D01*
X158101495Y-80614285D02*
X158120542Y-80595237D01*
X158120542Y-80595237D02*
X158158638Y-80576190D01*
X158158638Y-80576190D02*
X158196733Y-80576190D01*
X158196733Y-80576190D02*
X158253876Y-80595237D01*
X158253876Y-80595237D02*
X158482447Y-80823809D01*
X158482447Y-80823809D02*
X158482447Y-80576190D01*
X158482447Y-80195238D02*
X158482447Y-80423809D01*
X158482447Y-80309523D02*
X158082447Y-80309523D01*
X158082447Y-80309523D02*
X158139590Y-80347619D01*
X158139590Y-80347619D02*
X158177685Y-80385714D01*
X158177685Y-80385714D02*
X158196733Y-80423809D01*
X160182447Y-93466666D02*
X159991971Y-93599999D01*
X160182447Y-93695237D02*
X159782447Y-93695237D01*
X159782447Y-93695237D02*
X159782447Y-93542856D01*
X159782447Y-93542856D02*
X159801495Y-93504761D01*
X159801495Y-93504761D02*
X159820542Y-93485714D01*
X159820542Y-93485714D02*
X159858638Y-93466666D01*
X159858638Y-93466666D02*
X159915780Y-93466666D01*
X159915780Y-93466666D02*
X159953876Y-93485714D01*
X159953876Y-93485714D02*
X159972923Y-93504761D01*
X159972923Y-93504761D02*
X159991971Y-93542856D01*
X159991971Y-93542856D02*
X159991971Y-93695237D01*
X159782447Y-93104761D02*
X159782447Y-93295237D01*
X159782447Y-93295237D02*
X159972923Y-93314285D01*
X159972923Y-93314285D02*
X159953876Y-93295237D01*
X159953876Y-93295237D02*
X159934828Y-93257142D01*
X159934828Y-93257142D02*
X159934828Y-93161904D01*
X159934828Y-93161904D02*
X159953876Y-93123809D01*
X159953876Y-93123809D02*
X159972923Y-93104761D01*
X159972923Y-93104761D02*
X160011019Y-93085714D01*
X160011019Y-93085714D02*
X160106257Y-93085714D01*
X160106257Y-93085714D02*
X160144352Y-93104761D01*
X160144352Y-93104761D02*
X160163400Y-93123809D01*
X160163400Y-93123809D02*
X160182447Y-93161904D01*
X160182447Y-93161904D02*
X160182447Y-93257142D01*
X160182447Y-93257142D02*
X160163400Y-93295237D01*
X160163400Y-93295237D02*
X160144352Y-93314285D01*
X158444352Y-74257142D02*
X158463400Y-74276190D01*
X158463400Y-74276190D02*
X158482447Y-74333332D01*
X158482447Y-74333332D02*
X158482447Y-74371428D01*
X158482447Y-74371428D02*
X158463400Y-74428571D01*
X158463400Y-74428571D02*
X158425304Y-74466666D01*
X158425304Y-74466666D02*
X158387209Y-74485713D01*
X158387209Y-74485713D02*
X158311019Y-74504761D01*
X158311019Y-74504761D02*
X158253876Y-74504761D01*
X158253876Y-74504761D02*
X158177685Y-74485713D01*
X158177685Y-74485713D02*
X158139590Y-74466666D01*
X158139590Y-74466666D02*
X158101495Y-74428571D01*
X158101495Y-74428571D02*
X158082447Y-74371428D01*
X158082447Y-74371428D02*
X158082447Y-74333332D01*
X158082447Y-74333332D02*
X158101495Y-74276190D01*
X158101495Y-74276190D02*
X158120542Y-74257142D01*
X158482447Y-73876190D02*
X158482447Y-74104761D01*
X158482447Y-73990475D02*
X158082447Y-73990475D01*
X158082447Y-73990475D02*
X158139590Y-74028571D01*
X158139590Y-74028571D02*
X158177685Y-74066666D01*
X158177685Y-74066666D02*
X158196733Y-74104761D01*
X158482447Y-73685714D02*
X158482447Y-73609523D01*
X158482447Y-73609523D02*
X158463400Y-73571428D01*
X158463400Y-73571428D02*
X158444352Y-73552380D01*
X158444352Y-73552380D02*
X158387209Y-73514285D01*
X158387209Y-73514285D02*
X158311019Y-73495238D01*
X158311019Y-73495238D02*
X158158638Y-73495238D01*
X158158638Y-73495238D02*
X158120542Y-73514285D01*
X158120542Y-73514285D02*
X158101495Y-73533333D01*
X158101495Y-73533333D02*
X158082447Y-73571428D01*
X158082447Y-73571428D02*
X158082447Y-73647619D01*
X158082447Y-73647619D02*
X158101495Y-73685714D01*
X158101495Y-73685714D02*
X158120542Y-73704761D01*
X158120542Y-73704761D02*
X158158638Y-73723809D01*
X158158638Y-73723809D02*
X158253876Y-73723809D01*
X158253876Y-73723809D02*
X158291971Y-73704761D01*
X158291971Y-73704761D02*
X158311019Y-73685714D01*
X158311019Y-73685714D02*
X158330066Y-73647619D01*
X158330066Y-73647619D02*
X158330066Y-73571428D01*
X158330066Y-73571428D02*
X158311019Y-73533333D01*
X158311019Y-73533333D02*
X158291971Y-73514285D01*
X158291971Y-73514285D02*
X158253876Y-73495238D01*
X164983333Y-93182447D02*
X164850000Y-92991971D01*
X164754762Y-93182447D02*
X164754762Y-92782447D01*
X164754762Y-92782447D02*
X164907143Y-92782447D01*
X164907143Y-92782447D02*
X164945238Y-92801495D01*
X164945238Y-92801495D02*
X164964285Y-92820542D01*
X164964285Y-92820542D02*
X164983333Y-92858638D01*
X164983333Y-92858638D02*
X164983333Y-92915780D01*
X164983333Y-92915780D02*
X164964285Y-92953876D01*
X164964285Y-92953876D02*
X164945238Y-92972923D01*
X164945238Y-92972923D02*
X164907143Y-92991971D01*
X164907143Y-92991971D02*
X164754762Y-92991971D01*
X165211904Y-92953876D02*
X165173809Y-92934828D01*
X165173809Y-92934828D02*
X165154762Y-92915780D01*
X165154762Y-92915780D02*
X165135714Y-92877685D01*
X165135714Y-92877685D02*
X165135714Y-92858638D01*
X165135714Y-92858638D02*
X165154762Y-92820542D01*
X165154762Y-92820542D02*
X165173809Y-92801495D01*
X165173809Y-92801495D02*
X165211904Y-92782447D01*
X165211904Y-92782447D02*
X165288095Y-92782447D01*
X165288095Y-92782447D02*
X165326190Y-92801495D01*
X165326190Y-92801495D02*
X165345238Y-92820542D01*
X165345238Y-92820542D02*
X165364285Y-92858638D01*
X165364285Y-92858638D02*
X165364285Y-92877685D01*
X165364285Y-92877685D02*
X165345238Y-92915780D01*
X165345238Y-92915780D02*
X165326190Y-92934828D01*
X165326190Y-92934828D02*
X165288095Y-92953876D01*
X165288095Y-92953876D02*
X165211904Y-92953876D01*
X165211904Y-92953876D02*
X165173809Y-92972923D01*
X165173809Y-92972923D02*
X165154762Y-92991971D01*
X165154762Y-92991971D02*
X165135714Y-93030066D01*
X165135714Y-93030066D02*
X165135714Y-93106257D01*
X165135714Y-93106257D02*
X165154762Y-93144352D01*
X165154762Y-93144352D02*
X165173809Y-93163400D01*
X165173809Y-93163400D02*
X165211904Y-93182447D01*
X165211904Y-93182447D02*
X165288095Y-93182447D01*
X165288095Y-93182447D02*
X165326190Y-93163400D01*
X165326190Y-93163400D02*
X165345238Y-93144352D01*
X165345238Y-93144352D02*
X165364285Y-93106257D01*
X165364285Y-93106257D02*
X165364285Y-93030066D01*
X165364285Y-93030066D02*
X165345238Y-92991971D01*
X165345238Y-92991971D02*
X165326190Y-92972923D01*
X165326190Y-92972923D02*
X165288095Y-92953876D01*
X174533333Y-78293347D02*
X174342857Y-78293347D01*
X174342857Y-78293347D02*
X174342857Y-77893347D01*
X174876190Y-78293347D02*
X174647619Y-78293347D01*
X174761905Y-78293347D02*
X174761905Y-77893347D01*
X174761905Y-77893347D02*
X174723809Y-77950490D01*
X174723809Y-77950490D02*
X174685714Y-77988585D01*
X174685714Y-77988585D02*
X174647619Y-78007633D01*
X158082447Y-77804761D02*
X158406257Y-77804761D01*
X158406257Y-77804761D02*
X158444352Y-77785714D01*
X158444352Y-77785714D02*
X158463400Y-77766666D01*
X158463400Y-77766666D02*
X158482447Y-77728571D01*
X158482447Y-77728571D02*
X158482447Y-77652380D01*
X158482447Y-77652380D02*
X158463400Y-77614285D01*
X158463400Y-77614285D02*
X158444352Y-77595238D01*
X158444352Y-77595238D02*
X158406257Y-77576190D01*
X158406257Y-77576190D02*
X158082447Y-77576190D01*
X158215780Y-77214285D02*
X158482447Y-77214285D01*
X158063400Y-77309523D02*
X158349114Y-77404761D01*
X158349114Y-77404761D02*
X158349114Y-77157142D01*
X170933333Y-81444352D02*
X170914285Y-81463400D01*
X170914285Y-81463400D02*
X170857143Y-81482447D01*
X170857143Y-81482447D02*
X170819047Y-81482447D01*
X170819047Y-81482447D02*
X170761904Y-81463400D01*
X170761904Y-81463400D02*
X170723809Y-81425304D01*
X170723809Y-81425304D02*
X170704762Y-81387209D01*
X170704762Y-81387209D02*
X170685714Y-81311019D01*
X170685714Y-81311019D02*
X170685714Y-81253876D01*
X170685714Y-81253876D02*
X170704762Y-81177685D01*
X170704762Y-81177685D02*
X170723809Y-81139590D01*
X170723809Y-81139590D02*
X170761904Y-81101495D01*
X170761904Y-81101495D02*
X170819047Y-81082447D01*
X170819047Y-81082447D02*
X170857143Y-81082447D01*
X170857143Y-81082447D02*
X170914285Y-81101495D01*
X170914285Y-81101495D02*
X170933333Y-81120542D01*
X171314285Y-81482447D02*
X171085714Y-81482447D01*
X171200000Y-81482447D02*
X171200000Y-81082447D01*
X171200000Y-81082447D02*
X171161904Y-81139590D01*
X171161904Y-81139590D02*
X171123809Y-81177685D01*
X171123809Y-81177685D02*
X171085714Y-81196733D01*
X175833333Y-81844352D02*
X175814285Y-81863400D01*
X175814285Y-81863400D02*
X175757143Y-81882447D01*
X175757143Y-81882447D02*
X175719047Y-81882447D01*
X175719047Y-81882447D02*
X175661904Y-81863400D01*
X175661904Y-81863400D02*
X175623809Y-81825304D01*
X175623809Y-81825304D02*
X175604762Y-81787209D01*
X175604762Y-81787209D02*
X175585714Y-81711019D01*
X175585714Y-81711019D02*
X175585714Y-81653876D01*
X175585714Y-81653876D02*
X175604762Y-81577685D01*
X175604762Y-81577685D02*
X175623809Y-81539590D01*
X175623809Y-81539590D02*
X175661904Y-81501495D01*
X175661904Y-81501495D02*
X175719047Y-81482447D01*
X175719047Y-81482447D02*
X175757143Y-81482447D01*
X175757143Y-81482447D02*
X175814285Y-81501495D01*
X175814285Y-81501495D02*
X175833333Y-81520542D01*
X176061904Y-81653876D02*
X176023809Y-81634828D01*
X176023809Y-81634828D02*
X176004762Y-81615780D01*
X176004762Y-81615780D02*
X175985714Y-81577685D01*
X175985714Y-81577685D02*
X175985714Y-81558638D01*
X175985714Y-81558638D02*
X176004762Y-81520542D01*
X176004762Y-81520542D02*
X176023809Y-81501495D01*
X176023809Y-81501495D02*
X176061904Y-81482447D01*
X176061904Y-81482447D02*
X176138095Y-81482447D01*
X176138095Y-81482447D02*
X176176190Y-81501495D01*
X176176190Y-81501495D02*
X176195238Y-81520542D01*
X176195238Y-81520542D02*
X176214285Y-81558638D01*
X176214285Y-81558638D02*
X176214285Y-81577685D01*
X176214285Y-81577685D02*
X176195238Y-81615780D01*
X176195238Y-81615780D02*
X176176190Y-81634828D01*
X176176190Y-81634828D02*
X176138095Y-81653876D01*
X176138095Y-81653876D02*
X176061904Y-81653876D01*
X176061904Y-81653876D02*
X176023809Y-81672923D01*
X176023809Y-81672923D02*
X176004762Y-81691971D01*
X176004762Y-81691971D02*
X175985714Y-81730066D01*
X175985714Y-81730066D02*
X175985714Y-81806257D01*
X175985714Y-81806257D02*
X176004762Y-81844352D01*
X176004762Y-81844352D02*
X176023809Y-81863400D01*
X176023809Y-81863400D02*
X176061904Y-81882447D01*
X176061904Y-81882447D02*
X176138095Y-81882447D01*
X176138095Y-81882447D02*
X176176190Y-81863400D01*
X176176190Y-81863400D02*
X176195238Y-81844352D01*
X176195238Y-81844352D02*
X176214285Y-81806257D01*
X176214285Y-81806257D02*
X176214285Y-81730066D01*
X176214285Y-81730066D02*
X176195238Y-81691971D01*
X176195238Y-81691971D02*
X176176190Y-81672923D01*
X176176190Y-81672923D02*
X176138095Y-81653876D01*
X167074352Y-97666666D02*
X167093400Y-97685714D01*
X167093400Y-97685714D02*
X167112447Y-97742856D01*
X167112447Y-97742856D02*
X167112447Y-97780952D01*
X167112447Y-97780952D02*
X167093400Y-97838095D01*
X167093400Y-97838095D02*
X167055304Y-97876190D01*
X167055304Y-97876190D02*
X167017209Y-97895237D01*
X167017209Y-97895237D02*
X166941019Y-97914285D01*
X166941019Y-97914285D02*
X166883876Y-97914285D01*
X166883876Y-97914285D02*
X166807685Y-97895237D01*
X166807685Y-97895237D02*
X166769590Y-97876190D01*
X166769590Y-97876190D02*
X166731495Y-97838095D01*
X166731495Y-97838095D02*
X166712447Y-97780952D01*
X166712447Y-97780952D02*
X166712447Y-97742856D01*
X166712447Y-97742856D02*
X166731495Y-97685714D01*
X166731495Y-97685714D02*
X166750542Y-97666666D01*
X166712447Y-97323809D02*
X166712447Y-97399999D01*
X166712447Y-97399999D02*
X166731495Y-97438095D01*
X166731495Y-97438095D02*
X166750542Y-97457142D01*
X166750542Y-97457142D02*
X166807685Y-97495237D01*
X166807685Y-97495237D02*
X166883876Y-97514285D01*
X166883876Y-97514285D02*
X167036257Y-97514285D01*
X167036257Y-97514285D02*
X167074352Y-97495237D01*
X167074352Y-97495237D02*
X167093400Y-97476190D01*
X167093400Y-97476190D02*
X167112447Y-97438095D01*
X167112447Y-97438095D02*
X167112447Y-97361904D01*
X167112447Y-97361904D02*
X167093400Y-97323809D01*
X167093400Y-97323809D02*
X167074352Y-97304761D01*
X167074352Y-97304761D02*
X167036257Y-97285714D01*
X167036257Y-97285714D02*
X166941019Y-97285714D01*
X166941019Y-97285714D02*
X166902923Y-97304761D01*
X166902923Y-97304761D02*
X166883876Y-97323809D01*
X166883876Y-97323809D02*
X166864828Y-97361904D01*
X166864828Y-97361904D02*
X166864828Y-97438095D01*
X166864828Y-97438095D02*
X166883876Y-97476190D01*
X166883876Y-97476190D02*
X166902923Y-97495237D01*
X166902923Y-97495237D02*
X166941019Y-97514285D01*
X165732447Y-94657142D02*
X165541971Y-94790475D01*
X165732447Y-94885713D02*
X165332447Y-94885713D01*
X165332447Y-94885713D02*
X165332447Y-94733332D01*
X165332447Y-94733332D02*
X165351495Y-94695237D01*
X165351495Y-94695237D02*
X165370542Y-94676190D01*
X165370542Y-94676190D02*
X165408638Y-94657142D01*
X165408638Y-94657142D02*
X165465780Y-94657142D01*
X165465780Y-94657142D02*
X165503876Y-94676190D01*
X165503876Y-94676190D02*
X165522923Y-94695237D01*
X165522923Y-94695237D02*
X165541971Y-94733332D01*
X165541971Y-94733332D02*
X165541971Y-94885713D01*
X165732447Y-94276190D02*
X165732447Y-94504761D01*
X165732447Y-94390475D02*
X165332447Y-94390475D01*
X165332447Y-94390475D02*
X165389590Y-94428571D01*
X165389590Y-94428571D02*
X165427685Y-94466666D01*
X165427685Y-94466666D02*
X165446733Y-94504761D01*
X165370542Y-94123809D02*
X165351495Y-94104761D01*
X165351495Y-94104761D02*
X165332447Y-94066666D01*
X165332447Y-94066666D02*
X165332447Y-93971428D01*
X165332447Y-93971428D02*
X165351495Y-93933333D01*
X165351495Y-93933333D02*
X165370542Y-93914285D01*
X165370542Y-93914285D02*
X165408638Y-93895238D01*
X165408638Y-93895238D02*
X165446733Y-93895238D01*
X165446733Y-93895238D02*
X165503876Y-93914285D01*
X165503876Y-93914285D02*
X165732447Y-94142857D01*
X165732447Y-94142857D02*
X165732447Y-93895238D01*
X175844352Y-87957142D02*
X175863400Y-87976190D01*
X175863400Y-87976190D02*
X175882447Y-88033332D01*
X175882447Y-88033332D02*
X175882447Y-88071428D01*
X175882447Y-88071428D02*
X175863400Y-88128571D01*
X175863400Y-88128571D02*
X175825304Y-88166666D01*
X175825304Y-88166666D02*
X175787209Y-88185713D01*
X175787209Y-88185713D02*
X175711019Y-88204761D01*
X175711019Y-88204761D02*
X175653876Y-88204761D01*
X175653876Y-88204761D02*
X175577685Y-88185713D01*
X175577685Y-88185713D02*
X175539590Y-88166666D01*
X175539590Y-88166666D02*
X175501495Y-88128571D01*
X175501495Y-88128571D02*
X175482447Y-88071428D01*
X175482447Y-88071428D02*
X175482447Y-88033332D01*
X175482447Y-88033332D02*
X175501495Y-87976190D01*
X175501495Y-87976190D02*
X175520542Y-87957142D01*
X175882447Y-87576190D02*
X175882447Y-87804761D01*
X175882447Y-87690475D02*
X175482447Y-87690475D01*
X175482447Y-87690475D02*
X175539590Y-87728571D01*
X175539590Y-87728571D02*
X175577685Y-87766666D01*
X175577685Y-87766666D02*
X175596733Y-87804761D01*
X175653876Y-87347619D02*
X175634828Y-87385714D01*
X175634828Y-87385714D02*
X175615780Y-87404761D01*
X175615780Y-87404761D02*
X175577685Y-87423809D01*
X175577685Y-87423809D02*
X175558638Y-87423809D01*
X175558638Y-87423809D02*
X175520542Y-87404761D01*
X175520542Y-87404761D02*
X175501495Y-87385714D01*
X175501495Y-87385714D02*
X175482447Y-87347619D01*
X175482447Y-87347619D02*
X175482447Y-87271428D01*
X175482447Y-87271428D02*
X175501495Y-87233333D01*
X175501495Y-87233333D02*
X175520542Y-87214285D01*
X175520542Y-87214285D02*
X175558638Y-87195238D01*
X175558638Y-87195238D02*
X175577685Y-87195238D01*
X175577685Y-87195238D02*
X175615780Y-87214285D01*
X175615780Y-87214285D02*
X175634828Y-87233333D01*
X175634828Y-87233333D02*
X175653876Y-87271428D01*
X175653876Y-87271428D02*
X175653876Y-87347619D01*
X175653876Y-87347619D02*
X175672923Y-87385714D01*
X175672923Y-87385714D02*
X175691971Y-87404761D01*
X175691971Y-87404761D02*
X175730066Y-87423809D01*
X175730066Y-87423809D02*
X175806257Y-87423809D01*
X175806257Y-87423809D02*
X175844352Y-87404761D01*
X175844352Y-87404761D02*
X175863400Y-87385714D01*
X175863400Y-87385714D02*
X175882447Y-87347619D01*
X175882447Y-87347619D02*
X175882447Y-87271428D01*
X175882447Y-87271428D02*
X175863400Y-87233333D01*
X175863400Y-87233333D02*
X175844352Y-87214285D01*
X175844352Y-87214285D02*
X175806257Y-87195238D01*
X175806257Y-87195238D02*
X175730066Y-87195238D01*
X175730066Y-87195238D02*
X175691971Y-87214285D01*
X175691971Y-87214285D02*
X175672923Y-87233333D01*
X175672923Y-87233333D02*
X175653876Y-87271428D01*
X175066666Y-94582447D02*
X175066666Y-94868161D01*
X175066666Y-94868161D02*
X175047619Y-94925304D01*
X175047619Y-94925304D02*
X175009523Y-94963400D01*
X175009523Y-94963400D02*
X174952381Y-94982447D01*
X174952381Y-94982447D02*
X174914285Y-94982447D01*
X175428571Y-94715780D02*
X175428571Y-94982447D01*
X175333333Y-94563400D02*
X175238095Y-94849114D01*
X175238095Y-94849114D02*
X175485714Y-94849114D01*
D12*
%TO.C,Q2*%
X163430000Y-94232500D02*
X163240000Y-94092500D01*
X163430000Y-93952500D01*
X163430000Y-94232500D01*
G36*
X163430000Y-94232500D02*
G01*
X163240000Y-94092500D01*
X163430000Y-93952500D01*
X163430000Y-94232500D01*
G37*
X163235000Y-94386932D02*
X163235000Y-95522500D01*
X161365000Y-95522500D02*
X161365000Y-94102500D01*
%TO.C,C16*%
X158142164Y-89690000D02*
X158357836Y-89690000D01*
X158142164Y-90410000D02*
X158357836Y-90410000D01*
%TO.C,C17*%
X163907836Y-85740000D02*
X163692164Y-85740000D01*
X163907836Y-86460000D02*
X163692164Y-86460000D01*
%TO.C,R2*%
X168620000Y-78946359D02*
X168620000Y-79253641D01*
X169380000Y-78946359D02*
X169380000Y-79253641D01*
%TO.C,U2*%
X165577500Y-90460000D02*
X165577500Y-90010000D01*
X166027500Y-83240000D02*
X165577500Y-83240000D01*
X166027500Y-90460000D02*
X165577500Y-90460000D01*
X172347500Y-83240000D02*
X172797500Y-83240000D01*
X172347500Y-90460000D02*
X172797500Y-90460000D01*
X172797500Y-83240000D02*
X172797500Y-83690000D01*
X172797500Y-90460000D02*
X172797500Y-90010000D01*
%TO.C,C23*%
X166892164Y-91140000D02*
X167107836Y-91140000D01*
X166892164Y-91860000D02*
X167107836Y-91860000D01*
%TO.C,TP1*%
X177500000Y-72800000D02*
G75*
G02*
X176100000Y-72800000I-700000J0D01*
G01*
X176100000Y-72800000D02*
G75*
G02*
X177500000Y-72800000I700000J0D01*
G01*
%TO.C,R1*%
X174520000Y-80853641D02*
X174520000Y-80546359D01*
X175280000Y-80853641D02*
X175280000Y-80546359D01*
%TO.C,TP4*%
X180400000Y-75100000D02*
G75*
G02*
X179000000Y-75100000I-700000J0D01*
G01*
X179000000Y-75100000D02*
G75*
G02*
X180400000Y-75100000I700000J0D01*
G01*
%TO.C,Y1*%
X160910000Y-85890000D02*
X156790000Y-85890000D01*
X160910000Y-89310000D02*
X160910000Y-85890000D01*
%TO.C,R15*%
X164863641Y-81720000D02*
X164556359Y-81720000D01*
X164863641Y-82480000D02*
X164556359Y-82480000D01*
%TO.C,C2*%
X176915000Y-79111252D02*
X176915000Y-78588748D01*
X178385000Y-79111252D02*
X178385000Y-78588748D01*
%TO.C,TP2*%
X180400000Y-72800000D02*
G75*
G02*
X179000000Y-72800000I-700000J0D01*
G01*
X179000000Y-72800000D02*
G75*
G02*
X180400000Y-72800000I700000J0D01*
G01*
%TO.C,J3*%
X167890000Y-95615000D02*
X168940000Y-95615000D01*
X167890000Y-98115000D02*
X167890000Y-95615000D01*
X168940000Y-95615000D02*
X168940000Y-94625000D01*
X169060000Y-100085000D02*
X171940000Y-100085000D01*
X173110000Y-95615000D02*
X172060000Y-95615000D01*
X173110000Y-98115000D02*
X173110000Y-95615000D01*
%TO.C,C20*%
X169040000Y-91892164D02*
X169040000Y-92107836D01*
X169760000Y-91892164D02*
X169760000Y-92107836D01*
%TO.C,C10*%
X173640000Y-88307836D02*
X173640000Y-88092164D01*
X174360000Y-88307836D02*
X174360000Y-88092164D01*
%TO.C,C15*%
X159607836Y-84990000D02*
X159392164Y-84990000D01*
X159607836Y-85710000D02*
X159392164Y-85710000D01*
%TO.C,C5*%
X173540000Y-80807836D02*
X173540000Y-80592164D01*
X174260000Y-80807836D02*
X174260000Y-80592164D01*
%TO.C,C22*%
X174492164Y-86340000D02*
X174707836Y-86340000D01*
X174492164Y-87060000D02*
X174707836Y-87060000D01*
%TO.C,R4*%
X167370000Y-78946359D02*
X167370000Y-79253641D01*
X168130000Y-78946359D02*
X168130000Y-79253641D01*
%TO.C,TP3*%
X177500000Y-75100000D02*
G75*
G02*
X176100000Y-75100000I-700000J0D01*
G01*
X176100000Y-75100000D02*
G75*
G02*
X177500000Y-75100000I700000J0D01*
G01*
%TO.C,R14*%
X165646359Y-99280000D02*
X165953641Y-99280000D01*
X165646359Y-98520000D02*
X165953641Y-98520000D01*
%TO.C,Q1*%
X157065000Y-94838068D02*
X157065000Y-93702500D01*
X158935000Y-93702500D02*
X158935000Y-95122500D01*
X157060000Y-95132500D02*
X156870000Y-95272500D01*
X156870000Y-94992500D01*
X157060000Y-95132500D01*
G36*
X157060000Y-95132500D02*
G01*
X156870000Y-95272500D01*
X156870000Y-94992500D01*
X157060000Y-95132500D01*
G37*
%TO.C,R13*%
X163620000Y-97056359D02*
X163620000Y-97363641D01*
X164380000Y-97056359D02*
X164380000Y-97363641D01*
%TO.C,C14*%
X163592164Y-87740000D02*
X163807836Y-87740000D01*
X163592164Y-88460000D02*
X163807836Y-88460000D01*
%TO.C,R3*%
X169620000Y-78946359D02*
X169620000Y-79253641D01*
X170380000Y-78946359D02*
X170380000Y-79253641D01*
%TO.C,C13*%
X163940000Y-83492164D02*
X163940000Y-83707836D01*
X164660000Y-83492164D02*
X164660000Y-83707836D01*
%TO.C,C9*%
X175140000Y-84607836D02*
X175140000Y-84392164D01*
X175860000Y-84607836D02*
X175860000Y-84392164D01*
%TO.C,R7*%
X158153641Y-92020000D02*
X157846359Y-92020000D01*
X158153641Y-92780000D02*
X157846359Y-92780000D01*
%TO.C,R11*%
X165953641Y-100380000D02*
X165646359Y-100380000D01*
X165953641Y-99620000D02*
X165646359Y-99620000D01*
%TO.C,C11*%
X176240000Y-84607836D02*
X176240000Y-84392164D01*
X176960000Y-84607836D02*
X176960000Y-84392164D01*
%TO.C,SW1*%
D13*
X157349900Y-98918800D02*
X157349900Y-97750100D01*
X158625000Y-101250000D02*
X158625000Y-100050000D01*
X158736000Y-97750100D02*
X158456200Y-97750100D01*
X160514000Y-97750100D02*
X158736000Y-97750100D01*
X160514000Y-97750100D02*
X160794000Y-97750100D01*
X160625000Y-101250000D02*
X158625000Y-101250000D01*
X160625000Y-101250000D02*
X160625000Y-100050000D01*
X161901900Y-98918800D02*
X161901900Y-97750100D01*
%TO.C,C12*%
D12*
X177340000Y-84607836D02*
X177340000Y-84392164D01*
X178060000Y-84607836D02*
X178060000Y-84392164D01*
%TO.C,C24*%
X165672164Y-96190000D02*
X165887836Y-96190000D01*
X165672164Y-96910000D02*
X165887836Y-96910000D01*
%TO.C,C21*%
X160861252Y-79965000D02*
X160338748Y-79965000D01*
X160861252Y-81435000D02*
X160338748Y-81435000D01*
%TO.C,R5*%
X160380000Y-92053641D02*
X160380000Y-91746359D01*
X159620000Y-92053641D02*
X159620000Y-91746359D01*
%TO.C,C19*%
X160861252Y-73265000D02*
X160338748Y-73265000D01*
X160861252Y-74735000D02*
X160338748Y-74735000D01*
%TO.C,P1*%
D13*
X164804950Y-62758500D02*
X164804950Y-70427400D01*
X164804950Y-62758500D02*
X173694950Y-62758500D01*
X164804950Y-72156500D02*
X164804950Y-73094200D01*
X164804950Y-74696500D02*
X164804950Y-76093400D01*
X164804950Y-76093400D02*
X165368150Y-76082800D01*
X173694950Y-62758500D02*
X173694950Y-70427400D01*
X173694950Y-72156500D02*
X173694950Y-73094200D01*
X173694950Y-74696500D02*
X173694950Y-76093400D01*
X173694950Y-76093400D02*
X173130350Y-76082800D01*
X173749950Y-70073300D02*
X164749950Y-70073300D01*
%TO.C,R8*%
D12*
X166753641Y-92570000D02*
X166446359Y-92570000D01*
X166753641Y-93330000D02*
X166446359Y-93330000D01*
%TO.C,L1*%
D13*
X172131100Y-77700000D02*
X172668900Y-77700000D01*
X172131100Y-79300000D02*
X172668900Y-79300000D01*
X173426900Y-77399900D02*
G75*
G02*
X173172900Y-77399900I-127000J0D01*
G01*
X173172900Y-77399900D02*
G75*
G02*
X173426900Y-77399900I127000J0D01*
G01*
%TO.C,U4*%
D12*
X159040000Y-76490000D02*
X159090000Y-76490000D01*
X159040000Y-78310000D02*
X159040000Y-76490000D01*
X159090000Y-78310000D02*
X159040000Y-78310000D01*
X160990000Y-78310000D02*
X160210000Y-78310000D01*
X162110000Y-76490000D02*
X162160000Y-76490000D01*
X162160000Y-76490000D02*
X162160000Y-78310000D01*
X162160000Y-78310000D02*
X162110000Y-78310000D01*
X162440000Y-76190000D02*
X162110000Y-75950000D01*
X162440000Y-75710000D01*
X162440000Y-76190000D01*
G36*
X162440000Y-76190000D02*
G01*
X162110000Y-75950000D01*
X162440000Y-75710000D01*
X162440000Y-76190000D01*
G37*
%TO.C,C8*%
X175507836Y-82040000D02*
X175292164Y-82040000D01*
X175507836Y-82760000D02*
X175292164Y-82760000D01*
%TO.C,C6*%
X165672164Y-97290000D02*
X165887836Y-97290000D01*
X165672164Y-98010000D02*
X165887836Y-98010000D01*
%TO.C,R12*%
X164320000Y-94846359D02*
X164320000Y-95153641D01*
X165080000Y-94846359D02*
X165080000Y-95153641D01*
%TO.C,C18*%
X174740000Y-88307836D02*
X174740000Y-88092164D01*
X175460000Y-88307836D02*
X175460000Y-88092164D01*
%TO.C,J4*%
X174940000Y-95615000D02*
X175990000Y-95615000D01*
X174940000Y-98115000D02*
X174940000Y-95615000D01*
X175990000Y-95615000D02*
X175990000Y-94625000D01*
X176110000Y-100085000D02*
X179990000Y-100085000D01*
X181160000Y-95615000D02*
X180110000Y-95615000D01*
X181160000Y-98115000D02*
X181160000Y-95615000D01*
%TD*%
M02*
