%TF.GenerationSoftware,KiCad,Pcbnew,10.0.1*%
%TF.CreationDate,2026-08-12T02:55:11+02:00*%
%TF.ProjectId,pico2-expansion-card,7069636f-322d-4657-9870-616e73696f6e,rev?*%
%TF.SameCoordinates,Original*%
%TF.FileFunction,Copper,L2,Bot*%
%TF.FilePolarity,Positive*%
%FSLAX46Y46*%
G04 Gerber Fmt 4.6, Leading zero omitted, Abs format (unit mm)*
G04 Created by KiCad (PCBNEW 10.0.1) date 2026-08-12 02:55:11*
%MOMM*%
%LPD*%
G01*
G04 APERTURE LIST*
%TA.AperFunction,ComponentPad*%
%ADD10C,0.600000*%
%TD*%
%TA.AperFunction,ViaPad*%
%ADD11C,0.600000*%
%TD*%
%TA.AperFunction,Conductor*%
%ADD12C,0.200000*%
%TD*%
%TA.AperFunction,Conductor*%
%ADD13C,0.300000*%
%TD*%
%TA.AperFunction,Conductor*%
%ADD14C,0.127000*%
%TD*%
G04 APERTURE END LIST*
D10*
%TO.P,U2,61,GND_61*%
%TO.N,GND*%
X148332500Y-132525000D03*
X148332500Y-133900000D03*
X148332500Y-135275000D03*
X149707500Y-132525000D03*
X149707500Y-133900000D03*
X149707500Y-135275000D03*
X151082500Y-132525000D03*
X151082500Y-133900000D03*
X151082500Y-135275000D03*
%TD*%
D11*
%TO.N,GND*%
X143520000Y-145550000D03*
X151120000Y-127550000D03*
X151200000Y-143800000D03*
X157720000Y-133350000D03*
X154320000Y-132080000D03*
X141620000Y-137050000D03*
X154220000Y-129850000D03*
X137620000Y-143350000D03*
X139220000Y-119250000D03*
X156120000Y-130250000D03*
X144420000Y-137150000D03*
X143120000Y-131050000D03*
X146420000Y-125950000D03*
X160920000Y-125650000D03*
X159620000Y-124450000D03*
X152220000Y-131750000D03*
X144720000Y-122750000D03*
X152620000Y-139950000D03*
X140620000Y-142750000D03*
X141420000Y-140350000D03*
X147120000Y-124250000D03*
X155520000Y-126250000D03*
X148120000Y-128850000D03*
X156220000Y-124550000D03*
X154220000Y-137650000D03*
X143520000Y-119750000D03*
X155120000Y-139050000D03*
X145820000Y-140850000D03*
X147420000Y-132150000D03*
X144220000Y-141750000D03*
X143420000Y-124850000D03*
X161420000Y-134650000D03*
%TO.N,+1V1*%
X149718193Y-136566417D03*
X147051417Y-133075259D03*
X150955509Y-131398302D03*
X152120000Y-133550000D03*
%TO.N,+3.3V*%
X154870000Y-130600000D03*
X149315477Y-128454523D03*
X159020000Y-131050000D03*
X147686930Y-135983070D03*
X147020000Y-141550000D03*
X156720000Y-134750000D03*
X151812500Y-128942500D03*
X152507500Y-138437500D03*
%TO.N,/SWCLK*%
X157320000Y-123450000D03*
X151320000Y-136050000D03*
%TO.N,/SWDIO*%
X152120000Y-136050000D03*
X160220000Y-123450000D03*
%TO.N,Net-(Q2B-D)*%
X142320000Y-132050000D03*
X142320000Y-140150000D03*
%TD*%
%TO.N,+1V1*%
D12*
X152120000Y-132562793D02*
X152120000Y-133550000D01*
X149718193Y-136151807D02*
X149718193Y-136566417D01*
X150420000Y-134850000D02*
X150595000Y-134675000D01*
X149956029Y-133125000D02*
X150420000Y-133588971D01*
X147101158Y-133125000D02*
X149956029Y-133125000D01*
X152120000Y-133711029D02*
X152120000Y-133550000D01*
X150420000Y-135450000D02*
X149718193Y-136151807D01*
X147051417Y-133075259D02*
X147101158Y-133125000D01*
X150420000Y-133588971D02*
X150420000Y-134850000D01*
X150955509Y-131398302D02*
X152120000Y-132562793D01*
X150595000Y-134675000D02*
X151156029Y-134675000D01*
X151156029Y-134675000D02*
X152120000Y-133711029D01*
X150420000Y-134850000D02*
X150420000Y-135450000D01*
%TO.N,+3.3V*%
D13*
X152507500Y-138437500D02*
X150141360Y-138437500D01*
X147020000Y-141550000D02*
X148120000Y-141550000D01*
X157210955Y-134750000D02*
X159020000Y-132940955D01*
X154732500Y-138437500D02*
X156720000Y-136450000D01*
D12*
X153470000Y-130600000D02*
X151812500Y-128942500D01*
D13*
X156720000Y-134750000D02*
X157210955Y-134750000D01*
D12*
X149803454Y-128942500D02*
X149315477Y-128454523D01*
X154870000Y-130600000D02*
X153470000Y-130600000D01*
D13*
X151232500Y-138437500D02*
X152507500Y-138437500D01*
X152507500Y-138437500D02*
X154732500Y-138437500D01*
X156720000Y-136450000D02*
X156720000Y-134750000D01*
X150141360Y-138437500D02*
X147686930Y-135983070D01*
X159020000Y-132940955D02*
X159020000Y-131050000D01*
D12*
X151812500Y-128942500D02*
X149803454Y-128942500D01*
D13*
X148120000Y-141550000D02*
X151232500Y-138437500D01*
D12*
X159320000Y-131050000D02*
X159020000Y-131050000D01*
%TO.N,/SWCLK*%
D14*
X157320000Y-123450000D02*
X157320000Y-130050000D01*
X157320000Y-130050000D02*
X151320000Y-136050000D01*
%TO.N,/SWDIO*%
X157547000Y-129023000D02*
X157547000Y-130144026D01*
X160220000Y-123450000D02*
X160220000Y-126350000D01*
X152120000Y-135571026D02*
X152120000Y-136050000D01*
X157547000Y-130144026D02*
X152120000Y-135571026D01*
X160220000Y-126350000D02*
X157547000Y-129023000D01*
%TO.N,Net-(Q2B-D)*%
D12*
X142320000Y-132050000D02*
X142320000Y-140150000D01*
%TD*%
%TA.AperFunction,Conductor*%
%TO.N,GND*%
G36*
X155262475Y-117370185D02*
G01*
X155308230Y-117422989D01*
X155319436Y-117474486D01*
X155319503Y-118089902D01*
X155319504Y-118089908D01*
X155350034Y-118163589D01*
X155350037Y-118163594D01*
X155406440Y-118219985D01*
X155406442Y-118219986D01*
X155406445Y-118219989D01*
X155480140Y-118250504D01*
X155520022Y-118250500D01*
X161445600Y-118250500D01*
X161512639Y-118270185D01*
X161558394Y-118322989D01*
X161569600Y-118374500D01*
X161569600Y-121471618D01*
X161569600Y-121551382D01*
X161600124Y-121625074D01*
X161656526Y-121681476D01*
X161730218Y-121712000D01*
X162445600Y-121712000D01*
X162512639Y-121731685D01*
X162558394Y-121784489D01*
X162569600Y-121836000D01*
X162569600Y-147687000D01*
X162549915Y-147754039D01*
X162497111Y-147799794D01*
X162445600Y-147811000D01*
X137094600Y-147811000D01*
X137027561Y-147791315D01*
X136981806Y-147738511D01*
X136970600Y-147687000D01*
X136970600Y-146150943D01*
X138694600Y-146150943D01*
X138694600Y-146309056D01*
X138735523Y-146461783D01*
X138735526Y-146461790D01*
X138814575Y-146598709D01*
X138814579Y-146598714D01*
X138814580Y-146598716D01*
X138926384Y-146710520D01*
X138926386Y-146710521D01*
X138926390Y-146710524D01*
X139063309Y-146789573D01*
X139063316Y-146789577D01*
X139216043Y-146830500D01*
X139216045Y-146830500D01*
X139374155Y-146830500D01*
X139374157Y-146830500D01*
X139526884Y-146789577D01*
X139663816Y-146710520D01*
X139775620Y-146598716D01*
X139854677Y-146461784D01*
X139895600Y-146309057D01*
X139895600Y-146150943D01*
X140394600Y-146150943D01*
X140394600Y-146309056D01*
X140435523Y-146461783D01*
X140435526Y-146461790D01*
X140514575Y-146598709D01*
X140514579Y-146598714D01*
X140514580Y-146598716D01*
X140626384Y-146710520D01*
X140626386Y-146710521D01*
X140626390Y-146710524D01*
X140763309Y-146789573D01*
X140763316Y-146789577D01*
X140916043Y-146830500D01*
X140916045Y-146830500D01*
X141074155Y-146830500D01*
X141074157Y-146830500D01*
X141226884Y-146789577D01*
X141363816Y-146710520D01*
X141475620Y-146598716D01*
X141554677Y-146461784D01*
X141595600Y-146309057D01*
X141595600Y-146150943D01*
X141554677Y-145998216D01*
X141554673Y-145998209D01*
X141475624Y-145861290D01*
X141475618Y-145861282D01*
X141363817Y-145749481D01*
X141363809Y-145749475D01*
X141226890Y-145670426D01*
X141226886Y-145670424D01*
X141226884Y-145670423D01*
X141074157Y-145629500D01*
X140916043Y-145629500D01*
X140763316Y-145670423D01*
X140763309Y-145670426D01*
X140626390Y-145749475D01*
X140626382Y-145749481D01*
X140514581Y-145861282D01*
X140514575Y-145861290D01*
X140435526Y-145998209D01*
X140435523Y-145998216D01*
X140394600Y-146150943D01*
X139895600Y-146150943D01*
X139854677Y-145998216D01*
X139854673Y-145998209D01*
X139775624Y-145861290D01*
X139775618Y-145861282D01*
X139663817Y-145749481D01*
X139663809Y-145749475D01*
X139526890Y-145670426D01*
X139526886Y-145670424D01*
X139526884Y-145670423D01*
X139374157Y-145629500D01*
X139216043Y-145629500D01*
X139063316Y-145670423D01*
X139063309Y-145670426D01*
X138926390Y-145749475D01*
X138926382Y-145749481D01*
X138814581Y-145861282D01*
X138814575Y-145861290D01*
X138735526Y-145998209D01*
X138735523Y-145998216D01*
X138694600Y-146150943D01*
X136970600Y-146150943D01*
X136970600Y-141490375D01*
X146567100Y-141490375D01*
X146567100Y-141609624D01*
X146597964Y-141724814D01*
X146627777Y-141776450D01*
X146657590Y-141828087D01*
X146741913Y-141912410D01*
X146845187Y-141972036D01*
X146960375Y-142002900D01*
X146960377Y-142002900D01*
X147079623Y-142002900D01*
X147079625Y-142002900D01*
X147194813Y-141972036D01*
X147298087Y-141912410D01*
X147321278Y-141889219D01*
X147382601Y-141855734D01*
X147408959Y-141852900D01*
X148072510Y-141852900D01*
X148072526Y-141852901D01*
X148080122Y-141852901D01*
X148159875Y-141852901D01*
X148159878Y-141852901D01*
X148236915Y-141832258D01*
X148305985Y-141792381D01*
X151321646Y-138776718D01*
X151382969Y-138743234D01*
X151409327Y-138740400D01*
X152118541Y-138740400D01*
X152185580Y-138760085D01*
X152206222Y-138776719D01*
X152229413Y-138799910D01*
X152332687Y-138859536D01*
X152447875Y-138890400D01*
X152447877Y-138890400D01*
X152567123Y-138890400D01*
X152567125Y-138890400D01*
X152682313Y-138859536D01*
X152785587Y-138799910D01*
X152808778Y-138776719D01*
X152870101Y-138743234D01*
X152896459Y-138740400D01*
X154685010Y-138740400D01*
X154685026Y-138740401D01*
X154692622Y-138740401D01*
X154772375Y-138740401D01*
X154772378Y-138740401D01*
X154849415Y-138719758D01*
X154918485Y-138679881D01*
X156895775Y-136702588D01*
X156895780Y-136702585D01*
X156905983Y-136692381D01*
X156905985Y-136692381D01*
X156962381Y-136635985D01*
X157002258Y-136566915D01*
X157022900Y-136489878D01*
X157022900Y-135176900D01*
X157025450Y-135168214D01*
X157024162Y-135159253D01*
X157035140Y-135135212D01*
X157042585Y-135109861D01*
X157049425Y-135103933D01*
X157053187Y-135095697D01*
X157075421Y-135081407D01*
X157095389Y-135064106D01*
X157105903Y-135061818D01*
X157111965Y-135057923D01*
X157146900Y-135052900D01*
X157163465Y-135052900D01*
X157163481Y-135052901D01*
X157171077Y-135052901D01*
X157250830Y-135052901D01*
X157250833Y-135052901D01*
X157327870Y-135032258D01*
X157396940Y-134992381D01*
X159262381Y-133126940D01*
X159302258Y-133057870D01*
X159322901Y-132980833D01*
X159322901Y-132901077D01*
X159322901Y-132893482D01*
X159322900Y-132893464D01*
X159322900Y-131438959D01*
X159330273Y-131413848D01*
X159333887Y-131387930D01*
X159340836Y-131377875D01*
X159342585Y-131371920D01*
X159352841Y-131358157D01*
X159355894Y-131354602D01*
X159382410Y-131328087D01*
X159390068Y-131314821D01*
X159397609Y-131306044D01*
X159417600Y-131293075D01*
X159434843Y-131276633D01*
X159444192Y-131272295D01*
X159463257Y-131264399D01*
X159534399Y-131193257D01*
X159572900Y-131100305D01*
X159572900Y-130999695D01*
X159534399Y-130906743D01*
X159463257Y-130835601D01*
X159463256Y-130835600D01*
X159444216Y-130827714D01*
X159389812Y-130783873D01*
X159384280Y-130775152D01*
X159384084Y-130774813D01*
X159382410Y-130771913D01*
X159298087Y-130687590D01*
X159246450Y-130657777D01*
X159194814Y-130627964D01*
X159137219Y-130612532D01*
X159079625Y-130597100D01*
X158960375Y-130597100D01*
X158845185Y-130627964D01*
X158741913Y-130687590D01*
X158741910Y-130687592D01*
X158657592Y-130771910D01*
X158657590Y-130771913D01*
X158597964Y-130875185D01*
X158567100Y-130990375D01*
X158567100Y-131109624D01*
X158597964Y-131224814D01*
X158620818Y-131264397D01*
X158657590Y-131328087D01*
X158657592Y-131328089D01*
X158680781Y-131351278D01*
X158714266Y-131412601D01*
X158717100Y-131438959D01*
X158717100Y-132764127D01*
X158697415Y-132831166D01*
X158680781Y-132851808D01*
X157158107Y-134374481D01*
X157096784Y-134407966D01*
X157027092Y-134402982D01*
X157005492Y-134391017D01*
X157005125Y-134391654D01*
X156998088Y-134387591D01*
X156998087Y-134387590D01*
X156950851Y-134360318D01*
X156894814Y-134327964D01*
X156837219Y-134312532D01*
X156779625Y-134297100D01*
X156660375Y-134297100D01*
X156545185Y-134327964D01*
X156441913Y-134387590D01*
X156441910Y-134387592D01*
X156357592Y-134471910D01*
X156357590Y-134471913D01*
X156297964Y-134575185D01*
X156267100Y-134690375D01*
X156267100Y-134809624D01*
X156297964Y-134924814D01*
X156327777Y-134976450D01*
X156357590Y-135028087D01*
X156357592Y-135028089D01*
X156380781Y-135051278D01*
X156414266Y-135112601D01*
X156417100Y-135138959D01*
X156417100Y-136273172D01*
X156397415Y-136340211D01*
X156380781Y-136360853D01*
X154643353Y-138098281D01*
X154582030Y-138131766D01*
X154555672Y-138134600D01*
X152896459Y-138134600D01*
X152829420Y-138114915D01*
X152808778Y-138098281D01*
X152785589Y-138075092D01*
X152785587Y-138075090D01*
X152733950Y-138045277D01*
X152682314Y-138015464D01*
X152624719Y-138000032D01*
X152567125Y-137984600D01*
X152447875Y-137984600D01*
X152332685Y-138015464D01*
X152229413Y-138075090D01*
X152229410Y-138075092D01*
X152206222Y-138098281D01*
X152144899Y-138131766D01*
X152118541Y-138134600D01*
X151272382Y-138134600D01*
X151272378Y-138134599D01*
X151192622Y-138134599D01*
X151192618Y-138134600D01*
X150318188Y-138134600D01*
X150251149Y-138114915D01*
X150230507Y-138098281D01*
X148176149Y-136043923D01*
X148142664Y-135982600D01*
X148139830Y-135956242D01*
X148139830Y-135923447D01*
X148139830Y-135923445D01*
X148108966Y-135808257D01*
X148049340Y-135704983D01*
X147965017Y-135620660D01*
X147913380Y-135590847D01*
X147861744Y-135561034D01*
X147798778Y-135544163D01*
X147746555Y-135530170D01*
X147627305Y-135530170D01*
X147512115Y-135561034D01*
X147408843Y-135620660D01*
X147408840Y-135620662D01*
X147324522Y-135704980D01*
X147324520Y-135704983D01*
X147264894Y-135808255D01*
X147234030Y-135923445D01*
X147234030Y-136042694D01*
X147264894Y-136157884D01*
X147283128Y-136189465D01*
X147324520Y-136261157D01*
X147408843Y-136345480D01*
X147512117Y-136405106D01*
X147627305Y-136435970D01*
X147660102Y-136435970D01*
X147727141Y-136455655D01*
X147747783Y-136472289D01*
X149955375Y-138679881D01*
X150024445Y-138719758D01*
X150101482Y-138740400D01*
X150181238Y-138740400D01*
X150201873Y-138740400D01*
X150268912Y-138760085D01*
X150314667Y-138812889D01*
X150324611Y-138882047D01*
X150295586Y-138945603D01*
X150289554Y-138952081D01*
X148030853Y-141210781D01*
X147969530Y-141244266D01*
X147943172Y-141247100D01*
X147408959Y-141247100D01*
X147341920Y-141227415D01*
X147321278Y-141210781D01*
X147298089Y-141187592D01*
X147298087Y-141187590D01*
X147246450Y-141157777D01*
X147194814Y-141127964D01*
X147137219Y-141112532D01*
X147079625Y-141097100D01*
X146960375Y-141097100D01*
X146845185Y-141127964D01*
X146741913Y-141187590D01*
X146741910Y-141187592D01*
X146657592Y-141271910D01*
X146657590Y-141271913D01*
X146597964Y-141375185D01*
X146567100Y-141490375D01*
X136970600Y-141490375D01*
X136970600Y-131990375D01*
X141867100Y-131990375D01*
X141867100Y-132109624D01*
X141897964Y-132224814D01*
X141927777Y-132276450D01*
X141957590Y-132328087D01*
X141957592Y-132328089D01*
X142030781Y-132401278D01*
X142064266Y-132462601D01*
X142067100Y-132488959D01*
X142067100Y-139711041D01*
X142047415Y-139778080D01*
X142030781Y-139798722D01*
X141957592Y-139871910D01*
X141957590Y-139871913D01*
X141897964Y-139975185D01*
X141867100Y-140090375D01*
X141867100Y-140209624D01*
X141897964Y-140324814D01*
X141927777Y-140376450D01*
X141957590Y-140428087D01*
X142041913Y-140512410D01*
X142145187Y-140572036D01*
X142260375Y-140602900D01*
X142260377Y-140602900D01*
X142379623Y-140602900D01*
X142379625Y-140602900D01*
X142494813Y-140572036D01*
X142598087Y-140512410D01*
X142682410Y-140428087D01*
X142742036Y-140324813D01*
X142772900Y-140209625D01*
X142772900Y-140090375D01*
X142742036Y-139975187D01*
X142682410Y-139871913D01*
X142609219Y-139798722D01*
X142575734Y-139737399D01*
X142572900Y-139711041D01*
X142572900Y-133015634D01*
X146598517Y-133015634D01*
X146598517Y-133134883D01*
X146629381Y-133250073D01*
X146641989Y-133271910D01*
X146689007Y-133353346D01*
X146773330Y-133437669D01*
X146862765Y-133489305D01*
X146875448Y-133496628D01*
X146876604Y-133497295D01*
X146991792Y-133528159D01*
X146991794Y-133528159D01*
X147111040Y-133528159D01*
X147111042Y-133528159D01*
X147226230Y-133497295D01*
X147329504Y-133437669D01*
X147352954Y-133414219D01*
X147414277Y-133380734D01*
X147440635Y-133377900D01*
X149799913Y-133377900D01*
X149866952Y-133397585D01*
X149887594Y-133414219D01*
X150130781Y-133657406D01*
X150164266Y-133718729D01*
X150167100Y-133745087D01*
X150167100Y-134799692D01*
X150167099Y-134799695D01*
X150167099Y-134900305D01*
X150167100Y-134900307D01*
X150167100Y-135293883D01*
X150147415Y-135360922D01*
X150130781Y-135381564D01*
X149579277Y-135933067D01*
X149579266Y-135933076D01*
X149579267Y-135933077D01*
X149503793Y-136008550D01*
X149481240Y-136063000D01*
X149465292Y-136101500D01*
X149465292Y-136127458D01*
X149445607Y-136194497D01*
X149428974Y-136215139D01*
X149355782Y-136288330D01*
X149296157Y-136391602D01*
X149269825Y-136489877D01*
X149265293Y-136506792D01*
X149265293Y-136626042D01*
X149280725Y-136683636D01*
X149296157Y-136741231D01*
X149325970Y-136792867D01*
X149355783Y-136844504D01*
X149440106Y-136928827D01*
X149543380Y-136988453D01*
X149658568Y-137019317D01*
X149658570Y-137019317D01*
X149777816Y-137019317D01*
X149777818Y-137019317D01*
X149893006Y-136988453D01*
X149996280Y-136928827D01*
X150080603Y-136844504D01*
X150140229Y-136741230D01*
X150171093Y-136626042D01*
X150171093Y-136506792D01*
X150140229Y-136391604D01*
X150080603Y-136288330D01*
X150080601Y-136288328D01*
X150076539Y-136281292D01*
X150079586Y-136279532D01*
X150060254Y-136229329D01*
X150074384Y-136160903D01*
X150096154Y-136131498D01*
X150237277Y-135990375D01*
X150867100Y-135990375D01*
X150867100Y-136109625D01*
X150880031Y-136157884D01*
X150897964Y-136224814D01*
X150920000Y-136262980D01*
X150957590Y-136328087D01*
X151041913Y-136412410D01*
X151145187Y-136472036D01*
X151260375Y-136502900D01*
X151260377Y-136502900D01*
X151379623Y-136502900D01*
X151379625Y-136502900D01*
X151494813Y-136472036D01*
X151598087Y-136412410D01*
X151632319Y-136378178D01*
X151693642Y-136344693D01*
X151763334Y-136349677D01*
X151807681Y-136378178D01*
X151841913Y-136412410D01*
X151945187Y-136472036D01*
X152060375Y-136502900D01*
X152060377Y-136502900D01*
X152179623Y-136502900D01*
X152179625Y-136502900D01*
X152294813Y-136472036D01*
X152398087Y-136412410D01*
X152482410Y-136328087D01*
X152542036Y-136224813D01*
X152572900Y-136109625D01*
X152572900Y-135990375D01*
X152542036Y-135875187D01*
X152482410Y-135771913D01*
X152441459Y-135730962D01*
X152407974Y-135669639D01*
X152412958Y-135599947D01*
X152441457Y-135555602D01*
X157652139Y-130344921D01*
X157652142Y-130344919D01*
X157669580Y-130327481D01*
X157669581Y-130327481D01*
X157730455Y-130266607D01*
X157763400Y-130187071D01*
X157763400Y-129163996D01*
X157783085Y-129096957D01*
X157799714Y-129076320D01*
X157932321Y-128943713D01*
X159569500Y-128943713D01*
X159569500Y-129156286D01*
X159602483Y-129364536D01*
X159602754Y-129366243D01*
X159612227Y-129395399D01*
X159668444Y-129568414D01*
X159764951Y-129757820D01*
X159889890Y-129929786D01*
X160040213Y-130080109D01*
X160212179Y-130205048D01*
X160212181Y-130205049D01*
X160212184Y-130205051D01*
X160401588Y-130301557D01*
X160603757Y-130367246D01*
X160813713Y-130400500D01*
X160813714Y-130400500D01*
X161026286Y-130400500D01*
X161026287Y-130400500D01*
X161236243Y-130367246D01*
X161438412Y-130301557D01*
X161627816Y-130205051D01*
X161665098Y-130177964D01*
X161799786Y-130080109D01*
X161799788Y-130080106D01*
X161799792Y-130080104D01*
X161950104Y-129929792D01*
X161950106Y-129929788D01*
X161950109Y-129929786D01*
X162075048Y-129757820D01*
X162075047Y-129757820D01*
X162075051Y-129757816D01*
X162171557Y-129568412D01*
X162237246Y-129366243D01*
X162270500Y-129156287D01*
X162270500Y-128943713D01*
X162237246Y-128733757D01*
X162171557Y-128531588D01*
X162075051Y-128342184D01*
X162075049Y-128342181D01*
X162075048Y-128342179D01*
X161950109Y-128170213D01*
X161799786Y-128019890D01*
X161627820Y-127894951D01*
X161438414Y-127798444D01*
X161438413Y-127798443D01*
X161438412Y-127798443D01*
X161236243Y-127732754D01*
X161236241Y-127732753D01*
X161236240Y-127732753D01*
X161074957Y-127707208D01*
X161026287Y-127699500D01*
X160813713Y-127699500D01*
X160765042Y-127707208D01*
X160603760Y-127732753D01*
X160401585Y-127798444D01*
X160212179Y-127894951D01*
X160040213Y-128019890D01*
X159889890Y-128170213D01*
X159764951Y-128342179D01*
X159668444Y-128531585D01*
X159602753Y-128733760D01*
X159569500Y-128943713D01*
X157932321Y-128943713D01*
X160325139Y-126550894D01*
X160325142Y-126550893D01*
X160342580Y-126533455D01*
X160342581Y-126533455D01*
X160403455Y-126472581D01*
X160436400Y-126393045D01*
X160436400Y-123919616D01*
X160456085Y-123852577D01*
X160492222Y-123818119D01*
X160491638Y-123817358D01*
X160498079Y-123812414D01*
X160498087Y-123812410D01*
X160582410Y-123728087D01*
X160642036Y-123624813D01*
X160672900Y-123509625D01*
X160672900Y-123390375D01*
X160642036Y-123275187D01*
X160582410Y-123171913D01*
X160498087Y-123087590D01*
X160446450Y-123057777D01*
X160394814Y-123027964D01*
X160337219Y-123012532D01*
X160279625Y-122997100D01*
X160160375Y-122997100D01*
X160045185Y-123027964D01*
X159941913Y-123087590D01*
X159941910Y-123087592D01*
X159857592Y-123171910D01*
X159857590Y-123171913D01*
X159797964Y-123275185D01*
X159767100Y-123390375D01*
X159767100Y-123509624D01*
X159797964Y-123624814D01*
X159827777Y-123676450D01*
X159857590Y-123728087D01*
X159941913Y-123812410D01*
X159941916Y-123812412D01*
X159948362Y-123817358D01*
X159947527Y-123818446D01*
X159989814Y-123862793D01*
X160003600Y-123919616D01*
X160003600Y-126209003D01*
X159983915Y-126276042D01*
X159967281Y-126296684D01*
X157748081Y-128515884D01*
X157686758Y-128549369D01*
X157617066Y-128544385D01*
X157561133Y-128502513D01*
X157536716Y-128437049D01*
X157536400Y-128428203D01*
X157536400Y-123919616D01*
X157556085Y-123852577D01*
X157592222Y-123818119D01*
X157591638Y-123817358D01*
X157598079Y-123812414D01*
X157598087Y-123812410D01*
X157682410Y-123728087D01*
X157742036Y-123624813D01*
X157772900Y-123509625D01*
X157772900Y-123390375D01*
X157742036Y-123275187D01*
X157682410Y-123171913D01*
X157598087Y-123087590D01*
X157546450Y-123057777D01*
X157494814Y-123027964D01*
X157437219Y-123012532D01*
X157379625Y-122997100D01*
X157260375Y-122997100D01*
X157145185Y-123027964D01*
X157041913Y-123087590D01*
X157041910Y-123087592D01*
X156957592Y-123171910D01*
X156957590Y-123171913D01*
X156897964Y-123275185D01*
X156867100Y-123390375D01*
X156867100Y-123509624D01*
X156897964Y-123624814D01*
X156927777Y-123676450D01*
X156957590Y-123728087D01*
X157041913Y-123812410D01*
X157041916Y-123812412D01*
X157048362Y-123817358D01*
X157047527Y-123818446D01*
X157089814Y-123862793D01*
X157103600Y-123919616D01*
X157103600Y-129909002D01*
X157083915Y-129976041D01*
X157067281Y-129996683D01*
X151499051Y-135564912D01*
X151437728Y-135598397D01*
X151387811Y-135597209D01*
X151387686Y-135598161D01*
X151379625Y-135597100D01*
X151260375Y-135597100D01*
X151145185Y-135627964D01*
X151041913Y-135687590D01*
X151041910Y-135687592D01*
X150957592Y-135771910D01*
X150957590Y-135771913D01*
X150897964Y-135875185D01*
X150881293Y-135937406D01*
X150867100Y-135990375D01*
X150237277Y-135990375D01*
X150551335Y-135676318D01*
X150551343Y-135676312D01*
X150563255Y-135664399D01*
X150563257Y-135664399D01*
X150634399Y-135593257D01*
X150661437Y-135527981D01*
X150672901Y-135500305D01*
X150672901Y-135399695D01*
X150672900Y-135399692D01*
X150672900Y-135051900D01*
X150692585Y-134984861D01*
X150745389Y-134939106D01*
X150796900Y-134927900D01*
X151091282Y-134927900D01*
X151091290Y-134927901D01*
X151105724Y-134927901D01*
X151206334Y-134927901D01*
X151233558Y-134916623D01*
X151244836Y-134911952D01*
X151244838Y-134911950D01*
X151299286Y-134889399D01*
X151370428Y-134818257D01*
X151370428Y-134818254D01*
X151382343Y-134806340D01*
X151382346Y-134806335D01*
X152164543Y-134024138D01*
X152220127Y-133992047D01*
X152294813Y-133972036D01*
X152398087Y-133912410D01*
X152482410Y-133828087D01*
X152542036Y-133724813D01*
X152572900Y-133609625D01*
X152572900Y-133490375D01*
X152542036Y-133375187D01*
X152482410Y-133271913D01*
X152409219Y-133198722D01*
X152375734Y-133137399D01*
X152372900Y-133111041D01*
X152372900Y-132637177D01*
X152372900Y-132613100D01*
X152372901Y-132613098D01*
X152372901Y-132512488D01*
X152347224Y-132450500D01*
X152334399Y-132419536D01*
X152263257Y-132348394D01*
X152263255Y-132348393D01*
X152256189Y-132341327D01*
X152256189Y-132341326D01*
X152256181Y-132341320D01*
X151444728Y-131529867D01*
X151411243Y-131468544D01*
X151408409Y-131442186D01*
X151408409Y-131338679D01*
X151408409Y-131338677D01*
X151377545Y-131223489D01*
X151317919Y-131120215D01*
X151233596Y-131035892D01*
X151181959Y-131006079D01*
X151130323Y-130976266D01*
X151072728Y-130960834D01*
X151015134Y-130945402D01*
X150895884Y-130945402D01*
X150780694Y-130976266D01*
X150677422Y-131035892D01*
X150677419Y-131035894D01*
X150593101Y-131120212D01*
X150593099Y-131120215D01*
X150533473Y-131223487D01*
X150505446Y-131328089D01*
X150502609Y-131338677D01*
X150502609Y-131457927D01*
X150518041Y-131515521D01*
X150533473Y-131573116D01*
X150547321Y-131597100D01*
X150593099Y-131676389D01*
X150677422Y-131760712D01*
X150780696Y-131820338D01*
X150895884Y-131851202D01*
X150895886Y-131851202D01*
X150999393Y-131851202D01*
X151066432Y-131870887D01*
X151087074Y-131887521D01*
X151830781Y-132631228D01*
X151864266Y-132692551D01*
X151867100Y-132718909D01*
X151867100Y-133111041D01*
X151847415Y-133178080D01*
X151830781Y-133198722D01*
X151757592Y-133271910D01*
X151757590Y-133271913D01*
X151697964Y-133375185D01*
X151667100Y-133490375D01*
X151667100Y-133609626D01*
X151690127Y-133695567D01*
X151688464Y-133765417D01*
X151658033Y-133815340D01*
X151087594Y-134385781D01*
X151060666Y-134400484D01*
X151034848Y-134417077D01*
X151028647Y-134417968D01*
X151026271Y-134419266D01*
X150999913Y-134422100D01*
X150796900Y-134422100D01*
X150729861Y-134402415D01*
X150684106Y-134349611D01*
X150672900Y-134298100D01*
X150672900Y-133653718D01*
X150672901Y-133653709D01*
X150672901Y-133538668D01*
X150672900Y-133538663D01*
X150655519Y-133496702D01*
X150655504Y-133496669D01*
X150655489Y-133496631D01*
X150634399Y-133445714D01*
X150563257Y-133374572D01*
X150556196Y-133367511D01*
X150556181Y-133367498D01*
X150187069Y-132998386D01*
X150170429Y-132981746D01*
X150170428Y-132981743D01*
X150099286Y-132910601D01*
X150044835Y-132888047D01*
X150030655Y-132882173D01*
X150006336Y-132872099D01*
X150006334Y-132872099D01*
X149905724Y-132872099D01*
X149891290Y-132872099D01*
X149891282Y-132872100D01*
X147528678Y-132872100D01*
X147461639Y-132852415D01*
X147421291Y-132810100D01*
X147413827Y-132797172D01*
X147329504Y-132712849D01*
X147251040Y-132667547D01*
X147226231Y-132653223D01*
X147144142Y-132631228D01*
X147111042Y-132622359D01*
X146991792Y-132622359D01*
X146876602Y-132653223D01*
X146773330Y-132712849D01*
X146773327Y-132712851D01*
X146689009Y-132797169D01*
X146689007Y-132797172D01*
X146629381Y-132900444D01*
X146598517Y-133015634D01*
X142572900Y-133015634D01*
X142572900Y-132488959D01*
X142592585Y-132421920D01*
X142609219Y-132401278D01*
X142682410Y-132328087D01*
X142742036Y-132224813D01*
X142772900Y-132109625D01*
X142772900Y-131990375D01*
X142742036Y-131875187D01*
X142682410Y-131771913D01*
X142598087Y-131687590D01*
X142546450Y-131657777D01*
X142494814Y-131627964D01*
X142437219Y-131612532D01*
X142379625Y-131597100D01*
X142260375Y-131597100D01*
X142145185Y-131627964D01*
X142041913Y-131687590D01*
X142041910Y-131687592D01*
X141957592Y-131771910D01*
X141957590Y-131771913D01*
X141897964Y-131875185D01*
X141867100Y-131990375D01*
X136970600Y-131990375D01*
X136970600Y-129534650D01*
X136990285Y-129467611D01*
X137043089Y-129421856D01*
X137112247Y-129411912D01*
X137175803Y-129440937D01*
X137212531Y-129496332D01*
X137268444Y-129668414D01*
X137364951Y-129857820D01*
X137489890Y-130029786D01*
X137640213Y-130180109D01*
X137812179Y-130305048D01*
X137812181Y-130305049D01*
X137812184Y-130305051D01*
X138001588Y-130401557D01*
X138203757Y-130467246D01*
X138413713Y-130500500D01*
X138413714Y-130500500D01*
X138626286Y-130500500D01*
X138626287Y-130500500D01*
X138836243Y-130467246D01*
X139038412Y-130401557D01*
X139227816Y-130305051D01*
X139320669Y-130237590D01*
X139399786Y-130180109D01*
X139399788Y-130180106D01*
X139399792Y-130180104D01*
X139550104Y-130029792D01*
X139550106Y-130029788D01*
X139550109Y-130029786D01*
X139675048Y-129857820D01*
X139675047Y-129857820D01*
X139675051Y-129857816D01*
X139771557Y-129668412D01*
X139837246Y-129466243D01*
X139870500Y-129256287D01*
X139870500Y-129043713D01*
X139837246Y-128833757D01*
X139771557Y-128631588D01*
X139675051Y-128442184D01*
X139675049Y-128442181D01*
X139675048Y-128442179D01*
X139640697Y-128394898D01*
X148862577Y-128394898D01*
X148862577Y-128514148D01*
X148870679Y-128544385D01*
X148893441Y-128629337D01*
X148923244Y-128680955D01*
X148953067Y-128732610D01*
X149037390Y-128816933D01*
X149140664Y-128876559D01*
X149255852Y-128907423D01*
X149255854Y-128907423D01*
X149359361Y-128907423D01*
X149388801Y-128916067D01*
X149418788Y-128922591D01*
X149423803Y-128926345D01*
X149426400Y-128927108D01*
X149447036Y-128943736D01*
X149589054Y-129085755D01*
X149589055Y-129085757D01*
X149660197Y-129156899D01*
X149687416Y-129168172D01*
X149687422Y-129168177D01*
X149687422Y-129168175D01*
X149753149Y-129195401D01*
X149753150Y-129195401D01*
X149868193Y-129195401D01*
X149868201Y-129195400D01*
X151373541Y-129195400D01*
X151440580Y-129215085D01*
X151461222Y-129231719D01*
X151534413Y-129304910D01*
X151637687Y-129364536D01*
X151752875Y-129395400D01*
X151752877Y-129395400D01*
X151856384Y-129395400D01*
X151923423Y-129415085D01*
X151944065Y-129431719D01*
X153255599Y-130743253D01*
X153255601Y-130743257D01*
X153326743Y-130814399D01*
X153381193Y-130836952D01*
X153419695Y-130852901D01*
X153419697Y-130852901D01*
X153534739Y-130852901D01*
X153534747Y-130852900D01*
X154431041Y-130852900D01*
X154498080Y-130872585D01*
X154518722Y-130889219D01*
X154591913Y-130962410D01*
X154695187Y-131022036D01*
X154810375Y-131052900D01*
X154810377Y-131052900D01*
X154929623Y-131052900D01*
X154929625Y-131052900D01*
X155044813Y-131022036D01*
X155148087Y-130962410D01*
X155232410Y-130878087D01*
X155292036Y-130774813D01*
X155322900Y-130659625D01*
X155322900Y-130540375D01*
X155292036Y-130425187D01*
X155232410Y-130321913D01*
X155148087Y-130237590D01*
X155096450Y-130207777D01*
X155044814Y-130177964D01*
X154987219Y-130162532D01*
X154929625Y-130147100D01*
X154810375Y-130147100D01*
X154695185Y-130177964D01*
X154591913Y-130237590D01*
X154591910Y-130237592D01*
X154518722Y-130310781D01*
X154457399Y-130344266D01*
X154431041Y-130347100D01*
X153626116Y-130347100D01*
X153559077Y-130327415D01*
X153538435Y-130310781D01*
X152301719Y-129074065D01*
X152268234Y-129012742D01*
X152265400Y-128986384D01*
X152265400Y-128882877D01*
X152265400Y-128882875D01*
X152234536Y-128767687D01*
X152174910Y-128664413D01*
X152090587Y-128580090D01*
X152028745Y-128544385D01*
X151987314Y-128520464D01*
X151904986Y-128498405D01*
X151872125Y-128489600D01*
X151752875Y-128489600D01*
X151637685Y-128520464D01*
X151534413Y-128580090D01*
X151534410Y-128580092D01*
X151461222Y-128653281D01*
X151399899Y-128686766D01*
X151373541Y-128689600D01*
X149959572Y-128689600D01*
X149930131Y-128680955D01*
X149900145Y-128674432D01*
X149895129Y-128670677D01*
X149892533Y-128669915D01*
X149871891Y-128653281D01*
X149804696Y-128586086D01*
X149771211Y-128524763D01*
X149768377Y-128498405D01*
X149768377Y-128394900D01*
X149768377Y-128394898D01*
X149737513Y-128279710D01*
X149677887Y-128176436D01*
X149593564Y-128092113D01*
X149541927Y-128062300D01*
X149490291Y-128032487D01*
X149432696Y-128017055D01*
X149375102Y-128001623D01*
X149255852Y-128001623D01*
X149140662Y-128032487D01*
X149037390Y-128092113D01*
X149037387Y-128092115D01*
X148953069Y-128176433D01*
X148953067Y-128176436D01*
X148893441Y-128279708D01*
X148876703Y-128342179D01*
X148862577Y-128394898D01*
X139640697Y-128394898D01*
X139550109Y-128270213D01*
X139399786Y-128119890D01*
X139227820Y-127994951D01*
X139038414Y-127898444D01*
X139038413Y-127898443D01*
X139038412Y-127898443D01*
X138836243Y-127832754D01*
X138836241Y-127832753D01*
X138836240Y-127832753D01*
X138674957Y-127807208D01*
X138626287Y-127799500D01*
X138413713Y-127799500D01*
X138365042Y-127807208D01*
X138203760Y-127832753D01*
X138001585Y-127898444D01*
X137812179Y-127994951D01*
X137640213Y-128119890D01*
X137489890Y-128270213D01*
X137364951Y-128442179D01*
X137268444Y-128631585D01*
X137268443Y-128631587D01*
X137268443Y-128631588D01*
X137250515Y-128686766D01*
X137212531Y-128803667D01*
X137173093Y-128861343D01*
X137108735Y-128888541D01*
X137039888Y-128876626D01*
X136988413Y-128829382D01*
X136970600Y-128765349D01*
X136970600Y-121836000D01*
X136990285Y-121768961D01*
X137043089Y-121723206D01*
X137094600Y-121712000D01*
X137809980Y-121712000D01*
X137809982Y-121712000D01*
X137883674Y-121681476D01*
X137940076Y-121625074D01*
X137970600Y-121551382D01*
X137970600Y-118374500D01*
X137990285Y-118307461D01*
X138043089Y-118261706D01*
X138094600Y-118250500D01*
X143980230Y-118250500D01*
X143980240Y-118250504D01*
X144020122Y-118250500D01*
X144059982Y-118250500D01*
X144060003Y-118250500D01*
X144060067Y-118250486D01*
X144061200Y-118250000D01*
X144096786Y-118235255D01*
X144131305Y-118220956D01*
X144133485Y-118220109D01*
X144133668Y-118219978D01*
X144133674Y-118219976D01*
X144133677Y-118219971D01*
X144133686Y-118219965D01*
X144133693Y-118219963D01*
X144133700Y-118219955D01*
X144134128Y-118219651D01*
X144136202Y-118217453D01*
X144161894Y-118191757D01*
X144161897Y-118191753D01*
X144187576Y-118166073D01*
X144189985Y-118163802D01*
X144190086Y-118163557D01*
X144190089Y-118163555D01*
X144205372Y-118126645D01*
X144220074Y-118091152D01*
X144220577Y-118089978D01*
X144220594Y-118089895D01*
X144220600Y-118089882D01*
X144220600Y-118089869D01*
X144220604Y-118089860D01*
X144220600Y-118053572D01*
X144220600Y-118010118D01*
X144220600Y-117997886D01*
X144220593Y-117997827D01*
X144220538Y-117496314D01*
X144240214Y-117429276D01*
X144293013Y-117383515D01*
X144344019Y-117372305D01*
X149598864Y-117350501D01*
X149599379Y-117350500D01*
X155195436Y-117350500D01*
X155262475Y-117370185D01*
G37*
%TD.AperFunction*%
%TD*%
%TA.AperFunction,Conductor*%
%TO.N,+3.3V*%
G36*
X159074604Y-130759224D02*
G01*
X159096352Y-130765052D01*
X159096353Y-130765052D01*
X159118097Y-130770878D01*
X159148001Y-130783264D01*
X159160469Y-130790463D01*
X159160479Y-130790469D01*
X159186995Y-130805778D01*
X159212678Y-130825485D01*
X159260903Y-130873710D01*
X159265714Y-130878801D01*
X159290727Y-130906813D01*
X159290731Y-130906816D01*
X159290735Y-130906821D01*
X159327108Y-130936132D01*
X159348492Y-130953364D01*
X159362661Y-130973772D01*
X159380065Y-130991502D01*
X159382241Y-131001971D01*
X159388340Y-131010756D01*
X159389226Y-131035582D01*
X159394283Y-131059910D01*
X159390452Y-131069896D01*
X159390834Y-131080581D01*
X159378158Y-131101945D01*
X159369259Y-131125145D01*
X159358146Y-131135675D01*
X159355182Y-131140671D01*
X159344072Y-131149869D01*
X159342306Y-131151165D01*
X159325877Y-131162358D01*
X159321910Y-131166140D01*
X159315490Y-131170854D01*
X159315084Y-131171001D01*
X159311674Y-131173576D01*
X159277842Y-131203144D01*
X159277839Y-131203147D01*
X159270307Y-131211914D01*
X159270298Y-131211926D01*
X159264260Y-131220443D01*
X159261060Y-131224756D01*
X159256288Y-131230903D01*
X159244244Y-131242948D01*
X159236105Y-131251728D01*
X159233052Y-131255283D01*
X159226229Y-131263808D01*
X159215973Y-131277571D01*
X159210134Y-131289265D01*
X159203989Y-131298158D01*
X159203890Y-131298410D01*
X159203888Y-131298414D01*
X159199972Y-131308462D01*
X159195386Y-131318806D01*
X159191084Y-131327422D01*
X159188005Y-131337908D01*
X159184568Y-131347986D01*
X159177499Y-131366123D01*
X159176752Y-131371485D01*
X159172921Y-131389279D01*
X159171397Y-131394469D01*
X159171395Y-131394478D01*
X159165000Y-131438959D01*
X159165000Y-132895186D01*
X159165001Y-132895221D01*
X159165001Y-132943717D01*
X159160774Y-132975818D01*
X159159342Y-132981161D01*
X159146955Y-133011061D01*
X159144190Y-133015850D01*
X159124485Y-133041530D01*
X157311530Y-134854485D01*
X157285850Y-134874190D01*
X157281061Y-134876955D01*
X157251166Y-134889340D01*
X157245824Y-134890772D01*
X157213718Y-134895001D01*
X157165434Y-134895001D01*
X157165371Y-134895000D01*
X157163465Y-134895000D01*
X157146900Y-134895000D01*
X157146898Y-134895000D01*
X157124436Y-134896606D01*
X157124424Y-134896607D01*
X157089491Y-134901630D01*
X157084749Y-134903398D01*
X157083859Y-134903731D01*
X157083856Y-134903732D01*
X157083855Y-134903731D01*
X157072427Y-134907992D01*
X157072327Y-134907529D01*
X157061813Y-134909817D01*
X157045085Y-134918189D01*
X157038849Y-134920515D01*
X157038848Y-134920515D01*
X157026617Y-134925077D01*
X157026604Y-134925083D01*
X157015575Y-134932170D01*
X157009993Y-134935756D01*
X156991991Y-134944769D01*
X156980555Y-134954676D01*
X156973116Y-134959457D01*
X156967836Y-134962851D01*
X156961606Y-134967068D01*
X156956495Y-134973258D01*
X156942103Y-134987997D01*
X156939163Y-134990545D01*
X156933628Y-134995576D01*
X156933625Y-134995580D01*
X156925737Y-135008518D01*
X156921119Y-135016095D01*
X156909561Y-135030092D01*
X156905799Y-135038328D01*
X156907181Y-135038959D01*
X156896673Y-135056197D01*
X156896671Y-135056198D01*
X156891085Y-135065362D01*
X156891081Y-135065371D01*
X156889313Y-135071393D01*
X156883143Y-135087938D01*
X156880529Y-135093663D01*
X156877575Y-135100560D01*
X156877575Y-135100562D01*
X156876622Y-135108527D01*
X156872483Y-135128708D01*
X156871396Y-135132409D01*
X156871393Y-135132426D01*
X156865000Y-135176895D01*
X156865000Y-136452762D01*
X156860773Y-136484863D01*
X156859341Y-136490206D01*
X156846957Y-136520101D01*
X156844190Y-136524894D01*
X156824482Y-136550579D01*
X156799316Y-136575745D01*
X156799288Y-136575770D01*
X156784123Y-136590936D01*
X154833075Y-138541985D01*
X154807395Y-138561690D01*
X154802606Y-138564455D01*
X154772711Y-138576840D01*
X154767369Y-138578272D01*
X154735263Y-138582501D01*
X154686979Y-138582501D01*
X154686916Y-138582500D01*
X154685010Y-138582500D01*
X152896459Y-138582500D01*
X152879592Y-138583404D01*
X152879541Y-138583408D01*
X152853220Y-138586238D01*
X152853218Y-138586239D01*
X152794432Y-138604647D01*
X152794428Y-138604648D01*
X152733104Y-138638133D01*
X152733101Y-138638135D01*
X152697123Y-138665067D01*
X152693784Y-138667962D01*
X152693289Y-138667391D01*
X152674498Y-138681719D01*
X152635502Y-138704233D01*
X152605600Y-138716619D01*
X152562108Y-138728274D01*
X152530011Y-138732500D01*
X152484989Y-138732500D01*
X152452894Y-138728274D01*
X152409399Y-138716619D01*
X152379494Y-138704232D01*
X152340239Y-138681568D01*
X152319307Y-138665951D01*
X152319107Y-138666175D01*
X152305296Y-138653768D01*
X152284655Y-138637135D01*
X152230065Y-138608580D01*
X152163026Y-138588895D01*
X152163029Y-138588895D01*
X152118543Y-138582500D01*
X152118541Y-138582500D01*
X151409327Y-138582500D01*
X151392460Y-138583404D01*
X151392409Y-138583408D01*
X151366088Y-138586238D01*
X151366086Y-138586239D01*
X151307299Y-138604647D01*
X151307298Y-138604647D01*
X151245972Y-138638133D01*
X151228624Y-138651120D01*
X151209994Y-138665066D01*
X151209992Y-138665067D01*
X151209992Y-138665068D01*
X151209980Y-138665078D01*
X148220575Y-141654485D01*
X148194895Y-141674190D01*
X148190106Y-141676955D01*
X148160211Y-141689340D01*
X148154869Y-141690772D01*
X148122763Y-141695001D01*
X148074479Y-141695001D01*
X148074416Y-141695000D01*
X148072510Y-141695000D01*
X147408959Y-141695000D01*
X147392092Y-141695904D01*
X147392041Y-141695908D01*
X147365720Y-141698738D01*
X147365718Y-141698739D01*
X147306932Y-141717147D01*
X147306928Y-141717148D01*
X147245604Y-141750633D01*
X147245601Y-141750635D01*
X147209623Y-141777567D01*
X147206284Y-141780462D01*
X147205789Y-141779891D01*
X147186998Y-141794219D01*
X147148002Y-141816733D01*
X147118100Y-141829119D01*
X147074608Y-141840774D01*
X147042511Y-141845000D01*
X146997489Y-141845000D01*
X146965394Y-141840774D01*
X146921899Y-141829119D01*
X146891994Y-141816732D01*
X146853002Y-141794220D01*
X146853001Y-141794219D01*
X146827321Y-141774514D01*
X146795485Y-141742678D01*
X146775778Y-141716995D01*
X146760469Y-141690479D01*
X146760463Y-141690469D01*
X146753264Y-141678001D01*
X146740879Y-141648101D01*
X146729223Y-141604600D01*
X146725000Y-141572513D01*
X146725000Y-141527484D01*
X146729225Y-141495392D01*
X146740877Y-141451904D01*
X146753264Y-141421997D01*
X146765236Y-141401261D01*
X146775781Y-141382996D01*
X146795481Y-141357323D01*
X146827323Y-141325481D01*
X146852996Y-141305781D01*
X146891997Y-141283263D01*
X146921905Y-141270877D01*
X146965394Y-141259225D01*
X146997485Y-141255000D01*
X147042513Y-141255000D01*
X147074595Y-141259223D01*
X147074603Y-141259224D01*
X147096352Y-141265052D01*
X147096353Y-141265052D01*
X147118097Y-141270878D01*
X147148001Y-141283264D01*
X147160465Y-141290460D01*
X147160472Y-141290465D01*
X147167498Y-141294521D01*
X147167499Y-141294522D01*
X147187261Y-141305931D01*
X147208191Y-141321549D01*
X147208393Y-141321325D01*
X147209622Y-141322429D01*
X147209626Y-141322433D01*
X147222202Y-141333730D01*
X147242844Y-141350364D01*
X147297433Y-141378919D01*
X147364472Y-141398604D01*
X147364470Y-141398604D01*
X147379409Y-141400751D01*
X147408959Y-141405000D01*
X147943172Y-141405000D01*
X147960052Y-141404095D01*
X147986410Y-141401261D01*
X148045204Y-141382851D01*
X148106527Y-141349366D01*
X148142505Y-141322433D01*
X150401206Y-139063733D01*
X150405113Y-139059684D01*
X150411145Y-139053206D01*
X150439217Y-139011197D01*
X150468242Y-138947641D01*
X150471201Y-138940731D01*
X150480904Y-138859574D01*
X150470960Y-138790416D01*
X150470956Y-138790390D01*
X150469715Y-138783007D01*
X150469714Y-138783006D01*
X150434000Y-138709486D01*
X150397524Y-138667391D01*
X150388245Y-138656682D01*
X150383190Y-138651122D01*
X150313399Y-138608581D01*
X150246360Y-138588896D01*
X150246357Y-138588895D01*
X150201875Y-138582500D01*
X150201873Y-138582500D01*
X150138596Y-138582500D01*
X150106490Y-138578271D01*
X150101148Y-138576839D01*
X150071258Y-138564457D01*
X150066465Y-138561690D01*
X150040780Y-138541982D01*
X147859448Y-136360649D01*
X147846857Y-136349338D01*
X147826216Y-136332705D01*
X147771626Y-136304150D01*
X147704587Y-136284465D01*
X147704590Y-136284465D01*
X147660104Y-136278070D01*
X147655682Y-136277754D01*
X147655741Y-136276927D01*
X147632324Y-136273844D01*
X147588829Y-136262189D01*
X147558924Y-136249802D01*
X147519932Y-136227290D01*
X147494251Y-136207584D01*
X147462414Y-136175747D01*
X147442707Y-136150064D01*
X147420194Y-136111069D01*
X147407807Y-136081163D01*
X147396155Y-136037675D01*
X147391930Y-136005583D01*
X147391930Y-135960554D01*
X147396155Y-135928462D01*
X147407807Y-135884974D01*
X147420194Y-135855067D01*
X147420196Y-135855064D01*
X147442711Y-135816066D01*
X147462411Y-135790393D01*
X147494253Y-135758551D01*
X147519926Y-135738851D01*
X147558927Y-135716333D01*
X147588835Y-135703947D01*
X147632324Y-135692295D01*
X147664415Y-135688070D01*
X147709442Y-135688070D01*
X147741531Y-135692294D01*
X147757911Y-135696683D01*
X147757912Y-135696683D01*
X147785024Y-135703947D01*
X147814934Y-135716335D01*
X147827392Y-135723528D01*
X147827398Y-135723533D01*
X147853925Y-135738848D01*
X147879608Y-135758555D01*
X147911444Y-135790391D01*
X147931150Y-135816072D01*
X147953662Y-135855064D01*
X147966049Y-135884969D01*
X147977783Y-135928759D01*
X147981542Y-135954597D01*
X147981841Y-135954582D01*
X147982834Y-135973108D01*
X147982838Y-135973159D01*
X147985668Y-135999480D01*
X147985669Y-135999482D01*
X148004077Y-136058268D01*
X148004078Y-136058272D01*
X148037563Y-136119596D01*
X148037565Y-136119599D01*
X148064490Y-136155567D01*
X148064506Y-136155585D01*
X150118841Y-138209920D01*
X150118850Y-138209928D01*
X150118855Y-138209933D01*
X150131431Y-138221230D01*
X150152073Y-138237864D01*
X150206662Y-138266419D01*
X150273701Y-138286104D01*
X150273699Y-138286104D01*
X150288638Y-138288251D01*
X150318188Y-138292500D01*
X150318190Y-138292500D01*
X151192618Y-138292500D01*
X151196458Y-138292500D01*
X151196490Y-138292499D01*
X151268510Y-138292499D01*
X151268542Y-138292500D01*
X151272382Y-138292500D01*
X152118541Y-138292500D01*
X152135421Y-138291595D01*
X152161779Y-138288761D01*
X152220573Y-138270351D01*
X152281896Y-138236866D01*
X152317877Y-138209931D01*
X152317880Y-138209928D01*
X152321222Y-138207032D01*
X152321815Y-138207717D01*
X152340505Y-138193276D01*
X152379498Y-138170763D01*
X152409396Y-138158379D01*
X152452899Y-138146723D01*
X152484985Y-138142500D01*
X152530013Y-138142500D01*
X152562104Y-138146724D01*
X152583852Y-138152552D01*
X152583853Y-138152552D01*
X152605597Y-138158378D01*
X152635501Y-138170764D01*
X152647965Y-138177960D01*
X152647972Y-138177965D01*
X152654998Y-138182021D01*
X152654999Y-138182022D01*
X152674761Y-138193431D01*
X152695691Y-138209049D01*
X152695893Y-138208825D01*
X152697121Y-138209928D01*
X152697126Y-138209933D01*
X152709702Y-138221230D01*
X152730344Y-138237864D01*
X152784933Y-138266419D01*
X152851972Y-138286104D01*
X152851970Y-138286104D01*
X152866909Y-138288251D01*
X152896459Y-138292500D01*
X154555672Y-138292500D01*
X154572552Y-138291595D01*
X154598910Y-138288761D01*
X154657704Y-138270351D01*
X154719027Y-138236866D01*
X154755005Y-138209933D01*
X156492433Y-136472505D01*
X156503730Y-136459929D01*
X156520364Y-136439287D01*
X156548919Y-136384698D01*
X156568604Y-136317659D01*
X156575000Y-136273172D01*
X156575000Y-135138959D01*
X156574095Y-135122079D01*
X156571261Y-135095721D01*
X156552851Y-135036927D01*
X156519366Y-134975604D01*
X156512976Y-134967068D01*
X156492439Y-134939633D01*
X156489530Y-134936276D01*
X156490156Y-134935733D01*
X156475780Y-134916998D01*
X156475779Y-134916997D01*
X156475777Y-134916994D01*
X156464522Y-134897499D01*
X156464521Y-134897498D01*
X156453264Y-134878001D01*
X156440879Y-134848101D01*
X156429223Y-134804600D01*
X156425000Y-134772513D01*
X156425000Y-134727484D01*
X156429225Y-134695392D01*
X156440877Y-134651904D01*
X156453264Y-134621997D01*
X156475781Y-134582996D01*
X156495481Y-134557323D01*
X156527323Y-134525481D01*
X156552996Y-134505781D01*
X156591997Y-134483263D01*
X156621905Y-134470877D01*
X156665394Y-134459225D01*
X156697485Y-134455000D01*
X156742513Y-134455000D01*
X156774604Y-134459224D01*
X156796352Y-134465052D01*
X156796353Y-134465052D01*
X156818097Y-134470878D01*
X156848000Y-134483263D01*
X156864866Y-134493001D01*
X156864870Y-134493004D01*
X156871899Y-134497062D01*
X156871900Y-134497063D01*
X156919131Y-134524332D01*
X156919135Y-134524335D01*
X156926172Y-134528398D01*
X156926299Y-134528471D01*
X156928439Y-134529042D01*
X156936381Y-134533262D01*
X156936616Y-134533491D01*
X156938280Y-134534292D01*
X156950580Y-134541106D01*
X157015829Y-134560480D01*
X157085521Y-134565464D01*
X157093027Y-134565821D01*
X157093028Y-134565821D01*
X157132742Y-134556186D01*
X157172458Y-134546551D01*
X157233781Y-134513066D01*
X157269759Y-134486133D01*
X158792433Y-132963460D01*
X158803730Y-132950884D01*
X158820364Y-132930242D01*
X158848919Y-132875653D01*
X158868604Y-132808614D01*
X158875000Y-132764127D01*
X158875000Y-131438959D01*
X158874095Y-131422079D01*
X158871261Y-131395721D01*
X158852851Y-131336927D01*
X158819366Y-131275604D01*
X158801493Y-131251728D01*
X158792439Y-131239633D01*
X158789530Y-131236276D01*
X158790156Y-131235733D01*
X158775778Y-131216996D01*
X158772844Y-131211914D01*
X158757563Y-131185446D01*
X158757562Y-131185445D01*
X158753288Y-131178043D01*
X158740879Y-131148101D01*
X158729223Y-131104600D01*
X158725000Y-131072513D01*
X158725000Y-131027484D01*
X158729225Y-130995392D01*
X158740877Y-130951904D01*
X158753264Y-130921997D01*
X158762026Y-130906821D01*
X158775781Y-130882996D01*
X158795481Y-130857323D01*
X158827323Y-130825481D01*
X158852996Y-130805781D01*
X158891997Y-130783263D01*
X158921905Y-130770877D01*
X158965394Y-130759225D01*
X158997485Y-130755000D01*
X159042513Y-130755000D01*
X159074604Y-130759224D01*
G37*
%TD.AperFunction*%
%TA.AperFunction,Conductor*%
G36*
X154924604Y-130309224D02*
G01*
X154946352Y-130315052D01*
X154946353Y-130315052D01*
X154968097Y-130320878D01*
X154998001Y-130333264D01*
X155010469Y-130340463D01*
X155010479Y-130340469D01*
X155036995Y-130355778D01*
X155062678Y-130375485D01*
X155094514Y-130407321D01*
X155114220Y-130433002D01*
X155136732Y-130471994D01*
X155149119Y-130501899D01*
X155160774Y-130545394D01*
X155165000Y-130577489D01*
X155165000Y-130622509D01*
X155160774Y-130654604D01*
X155149119Y-130698099D01*
X155136732Y-130728004D01*
X155114220Y-130766996D01*
X155094514Y-130792677D01*
X155062677Y-130824514D01*
X155036995Y-130844221D01*
X154998002Y-130866733D01*
X154968100Y-130879119D01*
X154924608Y-130890774D01*
X154892511Y-130895000D01*
X154847489Y-130895000D01*
X154815394Y-130890774D01*
X154771899Y-130879119D01*
X154741994Y-130866732D01*
X154703002Y-130844220D01*
X154677320Y-130824513D01*
X154630387Y-130777579D01*
X154617796Y-130766268D01*
X154597155Y-130749635D01*
X154542564Y-130721079D01*
X154537244Y-130719517D01*
X154478467Y-130681741D01*
X154449444Y-130618184D01*
X154459389Y-130549026D01*
X154505146Y-130496224D01*
X154527662Y-130485699D01*
X154527464Y-130485233D01*
X154533065Y-130482853D01*
X154533073Y-130482851D01*
X154594396Y-130449366D01*
X154630375Y-130422432D01*
X154633942Y-130418865D01*
X154677320Y-130375486D01*
X154703002Y-130355778D01*
X154722500Y-130344521D01*
X154741996Y-130333264D01*
X154771905Y-130320877D01*
X154815394Y-130309225D01*
X154847485Y-130305000D01*
X154892513Y-130305000D01*
X154924604Y-130309224D01*
G37*
%TD.AperFunction*%
%TA.AperFunction,Conductor*%
G36*
X151867105Y-128651725D02*
G01*
X151868533Y-128652107D01*
X151910597Y-128663378D01*
X151940495Y-128675760D01*
X151942758Y-128677067D01*
X151942759Y-128677068D01*
X151949793Y-128681129D01*
X151949794Y-128681130D01*
X151979498Y-128698279D01*
X152005177Y-128717984D01*
X152037014Y-128749821D01*
X152056720Y-128775502D01*
X152079232Y-128814494D01*
X152091619Y-128844399D01*
X152103274Y-128887894D01*
X152107500Y-128919989D01*
X152107500Y-128986383D01*
X152108404Y-129003250D01*
X152108408Y-129003301D01*
X152111238Y-129029622D01*
X152111239Y-129029624D01*
X152129647Y-129088410D01*
X152129651Y-129088421D01*
X152132305Y-129093281D01*
X152147155Y-129161554D01*
X152122736Y-129227018D01*
X152066801Y-129268887D01*
X151997109Y-129273869D01*
X151973741Y-129265390D01*
X151973552Y-129265859D01*
X151967910Y-129263580D01*
X151900869Y-129243895D01*
X151900872Y-129243895D01*
X151856386Y-129237500D01*
X151856384Y-129237500D01*
X151789989Y-129237500D01*
X151757894Y-129233274D01*
X151714399Y-129221619D01*
X151684494Y-129209232D01*
X151645502Y-129186720D01*
X151619820Y-129167013D01*
X151572887Y-129120079D01*
X151560296Y-129108768D01*
X151539655Y-129092135D01*
X151485064Y-129063579D01*
X151479744Y-129062017D01*
X151420967Y-129024241D01*
X151391944Y-128960684D01*
X151401889Y-128891526D01*
X151447646Y-128838724D01*
X151470162Y-128828199D01*
X151469964Y-128827733D01*
X151475565Y-128825353D01*
X151475573Y-128825351D01*
X151536896Y-128791866D01*
X151572875Y-128764932D01*
X151582109Y-128755698D01*
X151619820Y-128717986D01*
X151645502Y-128698278D01*
X151646438Y-128697738D01*
X151684496Y-128675764D01*
X151714405Y-128663377D01*
X151757894Y-128651725D01*
X151789985Y-128647500D01*
X151835012Y-128647500D01*
X151867105Y-128651725D01*
G37*
%TD.AperFunction*%
%TA.AperFunction,Conductor*%
G36*
X149370081Y-128163747D02*
G01*
X149391829Y-128169575D01*
X149391830Y-128169575D01*
X149413574Y-128175401D01*
X149443478Y-128187787D01*
X149455946Y-128194986D01*
X149455956Y-128194992D01*
X149482472Y-128210301D01*
X149508155Y-128230008D01*
X149539991Y-128261844D01*
X149559697Y-128287525D01*
X149582209Y-128326517D01*
X149594596Y-128356422D01*
X149606251Y-128399917D01*
X149610477Y-128432012D01*
X149610477Y-128498404D01*
X149611381Y-128515271D01*
X149611385Y-128515322D01*
X149614215Y-128541643D01*
X149614216Y-128541645D01*
X149632624Y-128600431D01*
X149632627Y-128600440D01*
X149635279Y-128605296D01*
X149641190Y-128632471D01*
X149650302Y-128658748D01*
X149648513Y-128666138D01*
X149650130Y-128673569D01*
X149640411Y-128699625D01*
X149633870Y-128726658D01*
X149628369Y-128731909D01*
X149625712Y-128739033D01*
X149603448Y-128755698D01*
X149583331Y-128774903D01*
X149575865Y-128776346D01*
X149569777Y-128780904D01*
X149542031Y-128782887D01*
X149514732Y-128788166D01*
X149505695Y-128785485D01*
X149500086Y-128785887D01*
X149480428Y-128779866D01*
X149474562Y-128777521D01*
X149470910Y-128775611D01*
X149468313Y-128774848D01*
X149468266Y-128775005D01*
X149461209Y-128772185D01*
X149460480Y-128771612D01*
X149455730Y-128769840D01*
X149452356Y-128768300D01*
X149452352Y-128768299D01*
X149452350Y-128768298D01*
X149432287Y-128763933D01*
X149423909Y-128761801D01*
X149419270Y-128760447D01*
X149419246Y-128760431D01*
X149419194Y-128760416D01*
X149419082Y-128760392D01*
X149403847Y-128755919D01*
X149403841Y-128755918D01*
X149359362Y-128749523D01*
X149359361Y-128749523D01*
X149292966Y-128749523D01*
X149260871Y-128745297D01*
X149217376Y-128733642D01*
X149187471Y-128721255D01*
X149148479Y-128698743D01*
X149122798Y-128679037D01*
X149090962Y-128647201D01*
X149071257Y-128621522D01*
X149063120Y-128607429D01*
X149063115Y-128607418D01*
X149048743Y-128582526D01*
X149036353Y-128552616D01*
X149024685Y-128509065D01*
X149024686Y-128509019D01*
X149020477Y-128477035D01*
X149020477Y-128432011D01*
X149024702Y-128399917D01*
X149029224Y-128383041D01*
X149030659Y-128377681D01*
X149036356Y-128356422D01*
X149048740Y-128326520D01*
X149071259Y-128287516D01*
X149090958Y-128261846D01*
X149122800Y-128230004D01*
X149148473Y-128210304D01*
X149187474Y-128187786D01*
X149217382Y-128175400D01*
X149260871Y-128163748D01*
X149292962Y-128159523D01*
X149337990Y-128159523D01*
X149370081Y-128163747D01*
G37*
%TD.AperFunction*%
%TD*%
M02*
