%TF.GenerationSoftware,KiCad,Pcbnew,10.0.1*%
%TF.CreationDate,2026-08-17T12:55:03+02:00*%
%TF.ProjectId,pico2-expansion-card,7069636f-322d-4657-9870-616e73696f6e,v0.1.0p*%
%TF.SameCoordinates,Original*%
%TF.FileFunction,Paste,Top*%
%TF.FilePolarity,Positive*%
%FSLAX46Y46*%
G04 Gerber Fmt 4.6, Leading zero omitted, Abs format (unit mm)*
G04 Created by KiCad (PCBNEW 10.0.1) date 2026-08-17 12:55:03*
%MOMM*%
%LPD*%
G01*
G04 APERTURE LIST*
G04 Aperture macros list*
%AMRoundRect*
0 Rectangle with rounded corners*
0 $1 Rounding radius*
0 $2 $3 $4 $5 $6 $7 $8 $9 X,Y pos of 4 corners*
0 Add a 4 corners polygon primitive as box body*
4,1,4,$2,$3,$4,$5,$6,$7,$8,$9,$2,$3,0*
0 Add four circle primitives for the rounded corners*
1,1,$1+$1,$2,$3*
1,1,$1+$1,$4,$5*
1,1,$1+$1,$6,$7*
1,1,$1+$1,$8,$9*
0 Add four rect primitives between the rounded corners*
20,1,$1+$1,$2,$3,$4,$5,0*
20,1,$1+$1,$4,$5,$6,$7,0*
20,1,$1+$1,$6,$7,$8,$9,0*
20,1,$1+$1,$8,$9,$2,$3,0*%
%AMFreePoly0*
4,1,18,-0.437500,0.050000,-0.433694,0.069134,-0.422855,0.085355,-0.406634,0.096194,-0.387500,0.100000,0.387500,0.100000,0.437500,0.050000,0.437500,-0.050000,0.433694,-0.069134,0.422855,-0.085355,0.406634,-0.096194,0.387500,-0.100000,-0.387500,-0.100000,-0.406634,-0.096194,-0.422855,-0.085355,-0.433694,-0.069134,-0.437500,-0.050000,-0.437500,0.050000,-0.437500,0.050000,$1*%
%AMFreePoly1*
4,1,18,-0.437500,0.050000,-0.433694,0.069134,-0.422855,0.085355,-0.406634,0.096194,-0.387500,0.100000,0.387500,0.100000,0.406634,0.096194,0.422855,0.085355,0.433694,0.069134,0.437500,0.050000,0.437500,-0.050000,0.387500,-0.100000,-0.387500,-0.100000,-0.406634,-0.096194,-0.422855,-0.085355,-0.433694,-0.069134,-0.437500,-0.050000,-0.437500,0.050000,-0.437500,0.050000,$1*%
%AMFreePoly2*
4,1,18,-0.100000,0.387500,-0.050000,0.437500,0.050000,0.437500,0.069134,0.433694,0.085355,0.422855,0.096194,0.406634,0.100000,0.387500,0.100000,-0.387500,0.096194,-0.406634,0.085355,-0.422855,0.069134,-0.433694,0.050000,-0.437500,-0.050000,-0.437500,-0.069134,-0.433694,-0.085355,-0.422855,-0.096194,-0.406634,-0.100000,-0.387500,-0.100000,0.387500,-0.100000,0.387500,$1*%
%AMFreePoly3*
4,1,18,-0.100000,0.387500,-0.096194,0.406634,-0.085355,0.422855,-0.069134,0.433694,-0.050000,0.437500,0.050000,0.437500,0.100000,0.387500,0.100000,-0.387500,0.096194,-0.406634,0.085355,-0.422855,0.069134,-0.433694,0.050000,-0.437500,-0.050000,-0.437500,-0.069134,-0.433694,-0.085355,-0.422855,-0.096194,-0.406634,-0.100000,-0.387500,-0.100000,0.387500,-0.100000,0.387500,$1*%
%AMFreePoly4*
4,1,18,-0.437500,0.050000,-0.433694,0.069134,-0.422855,0.085355,-0.406634,0.096194,-0.387500,0.100000,0.387500,0.100000,0.406634,0.096194,0.422855,0.085355,0.433694,0.069134,0.437500,0.050000,0.437500,-0.050000,0.433694,-0.069134,0.422855,-0.085355,0.406634,-0.096194,0.387500,-0.100000,-0.387500,-0.100000,-0.437500,-0.050000,-0.437500,0.050000,-0.437500,0.050000,$1*%
%AMFreePoly5*
4,1,18,-0.437500,0.050000,-0.387500,0.100000,0.387500,0.100000,0.406634,0.096194,0.422855,0.085355,0.433694,0.069134,0.437500,0.050000,0.437500,-0.050000,0.433694,-0.069134,0.422855,-0.085355,0.406634,-0.096194,0.387500,-0.100000,-0.387500,-0.100000,-0.406634,-0.096194,-0.422855,-0.085355,-0.433694,-0.069134,-0.437500,-0.050000,-0.437500,0.050000,-0.437500,0.050000,$1*%
%AMFreePoly6*
4,1,18,-0.100000,0.387500,-0.096194,0.406634,-0.085355,0.422855,-0.069134,0.433694,-0.050000,0.437500,0.050000,0.437500,0.069134,0.433694,0.085355,0.422855,0.096194,0.406634,0.100000,0.387500,0.100000,-0.387500,0.050000,-0.437500,-0.050000,-0.437500,-0.069134,-0.433694,-0.085355,-0.422855,-0.096194,-0.406634,-0.100000,-0.387500,-0.100000,0.387500,-0.100000,0.387500,$1*%
%AMFreePoly7*
4,1,18,-0.100000,0.387500,-0.096194,0.406634,-0.085355,0.422855,-0.069134,0.433694,-0.050000,0.437500,0.050000,0.437500,0.069134,0.433694,0.085355,0.422855,0.096194,0.406634,0.100000,0.387500,0.100000,-0.387500,0.096194,-0.406634,0.085355,-0.422855,0.069134,-0.433694,0.050000,-0.437500,-0.050000,-0.437500,-0.100000,-0.387500,-0.100000,0.387500,-0.100000,0.387500,$1*%
%AMFreePoly8*
4,1,8,0.524900,-0.650100,-0.125000,-0.650100,-0.125000,-0.000100,-0.525000,-0.000100,-0.525100,0.000000,-0.525100,0.649900,0.524900,0.649900,0.524900,-0.650100,0.524900,-0.650100,$1*%
%AMFreePoly9*
4,1,8,0.525200,0.000000,0.525100,-0.000100,0.125100,-0.000100,0.125100,-0.650100,-0.524800,-0.650100,-0.524800,0.649900,0.525200,0.649900,0.525200,0.000000,0.525200,0.000000,$1*%
G04 Aperture macros list end*
%ADD10RoundRect,0.140000X-0.140000X-0.170000X0.140000X-0.170000X0.140000X0.170000X-0.140000X0.170000X0*%
%ADD11RoundRect,0.140000X0.140000X0.170000X-0.140000X0.170000X-0.140000X-0.170000X0.140000X-0.170000X0*%
%ADD12RoundRect,0.135000X-0.185000X0.135000X-0.185000X-0.135000X0.185000X-0.135000X0.185000X0.135000X0*%
%ADD13R,0.470000X0.530000*%
%ADD14RoundRect,0.250000X-0.350000X-0.350000X0.350000X-0.350000X0.350000X0.350000X-0.350000X0.350000X0*%
%ADD15FreePoly0,0.000000*%
%ADD16RoundRect,0.050000X-0.387500X-0.050000X0.387500X-0.050000X0.387500X0.050000X-0.387500X0.050000X0*%
%ADD17FreePoly1,0.000000*%
%ADD18FreePoly2,0.000000*%
%ADD19RoundRect,0.050000X-0.050000X-0.387500X0.050000X-0.387500X0.050000X0.387500X-0.050000X0.387500X0*%
%ADD20FreePoly3,0.000000*%
%ADD21FreePoly4,0.000000*%
%ADD22FreePoly5,0.000000*%
%ADD23FreePoly6,0.000000*%
%ADD24FreePoly7,0.000000*%
%ADD25RoundRect,0.135000X0.185000X-0.135000X0.185000X0.135000X-0.185000X0.135000X-0.185000X-0.135000X0*%
%ADD26RoundRect,0.250000X0.450000X0.350000X-0.450000X0.350000X-0.450000X-0.350000X0.450000X-0.350000X0*%
%ADD27RoundRect,0.135000X0.135000X0.185000X-0.135000X0.185000X-0.135000X-0.185000X0.135000X-0.185000X0*%
%ADD28RoundRect,0.135000X-0.135000X-0.185000X0.135000X-0.185000X0.135000X0.185000X-0.135000X0.185000X0*%
%ADD29RoundRect,0.250000X0.475000X-0.250000X0.475000X0.250000X-0.475000X0.250000X-0.475000X-0.250000X0*%
%ADD30RoundRect,0.150000X-0.150000X-0.625000X0.150000X-0.625000X0.150000X0.625000X-0.150000X0.625000X0*%
%ADD31RoundRect,0.250000X-0.350000X-0.650000X0.350000X-0.650000X0.350000X0.650000X-0.350000X0.650000X0*%
%ADD32RoundRect,0.087500X-0.087500X0.250000X-0.087500X-0.250000X0.087500X-0.250000X0.087500X0.250000X0*%
%ADD33RoundRect,0.140000X-0.170000X0.140000X-0.170000X-0.140000X0.170000X-0.140000X0.170000X0.140000X0*%
%ADD34RoundRect,0.140000X0.170000X-0.140000X0.170000X0.140000X-0.170000X0.140000X-0.170000X-0.140000X0*%
%ADD35RoundRect,0.087500X0.087500X-0.250000X0.087500X0.250000X-0.087500X0.250000X-0.087500X-0.250000X0*%
%ADD36R,0.600000X1.200000*%
%ADD37FreePoly8,180.000000*%
%ADD38FreePoly9,180.000000*%
%ADD39RoundRect,0.250000X-0.475000X0.250000X-0.475000X-0.250000X0.475000X-0.250000X0.475000X0.250000X0*%
%ADD40RoundRect,0.250000X0.250000X0.475000X-0.250000X0.475000X-0.250000X-0.475000X0.250000X-0.475000X0*%
%ADD41R,0.500000X2.000000*%
%ADD42R,1.500000X1.200000*%
%ADD43R,1.200000X1.200000*%
%ADD44R,0.250000X1.800000*%
%ADD45R,1.000000X1.600000*%
%ADD46RoundRect,0.150000X-0.150000X0.512500X-0.150000X-0.512500X0.150000X-0.512500X0.150000X0.512500X0*%
G04 APERTURE END LIST*
D10*
%TO.C,C16*%
X93457500Y-77075000D03*
X94417500Y-77075000D03*
%TD*%
D11*
%TO.C,C17*%
X99967500Y-73125000D03*
X99007500Y-73125000D03*
%TD*%
D12*
%TO.C,R2*%
X104687500Y-65615000D03*
X104687500Y-66635000D03*
%TD*%
D13*
%TO.C,C3*%
X107572500Y-67225000D03*
X108602500Y-67225000D03*
%TD*%
D14*
%TO.C,U2*%
X104175000Y-73175000D03*
X104175000Y-74575000D03*
X105575000Y-73175000D03*
X105575000Y-74575000D03*
D15*
X101437500Y-71075000D03*
D16*
X101437500Y-71475000D03*
X101437500Y-71875000D03*
X101437500Y-72275000D03*
X101437500Y-72675000D03*
X101437500Y-73075000D03*
X101437500Y-73475000D03*
X101437500Y-73875000D03*
X101437500Y-74275000D03*
X101437500Y-74675000D03*
X101437500Y-75075000D03*
X101437500Y-75475000D03*
X101437500Y-75875000D03*
X101437500Y-76275000D03*
D17*
X101437500Y-76675000D03*
D18*
X102075000Y-77312500D03*
D19*
X102475000Y-77312500D03*
X102875000Y-77312500D03*
X103275000Y-77312500D03*
X103675000Y-77312500D03*
X104075000Y-77312500D03*
X104475000Y-77312500D03*
X104875000Y-77312500D03*
X105275000Y-77312500D03*
X105675000Y-77312500D03*
X106075000Y-77312500D03*
X106475000Y-77312500D03*
X106875000Y-77312500D03*
X107275000Y-77312500D03*
D20*
X107675000Y-77312500D03*
D21*
X108312500Y-76675000D03*
D16*
X108312500Y-76275000D03*
X108312500Y-75875000D03*
X108312500Y-75475000D03*
X108312500Y-75075000D03*
X108312500Y-74675000D03*
X108312500Y-74275000D03*
X108312500Y-73875000D03*
X108312500Y-73475000D03*
X108312500Y-73075000D03*
X108312500Y-72675000D03*
X108312500Y-72275000D03*
X108312500Y-71875000D03*
X108312500Y-71475000D03*
D22*
X108312500Y-71075000D03*
D23*
X107675000Y-70437500D03*
D19*
X107275000Y-70437500D03*
X106875000Y-70437500D03*
X106475000Y-70437500D03*
X106075000Y-70437500D03*
X105675000Y-70437500D03*
X105275000Y-70437500D03*
X104875000Y-70437500D03*
X104475000Y-70437500D03*
X104075000Y-70437500D03*
X103675000Y-70437500D03*
X103275000Y-70437500D03*
X102875000Y-70437500D03*
X102475000Y-70437500D03*
D24*
X102075000Y-70437500D03*
%TD*%
D10*
%TO.C,C23*%
X102207500Y-78525000D03*
X103167500Y-78525000D03*
%TD*%
D25*
%TO.C,R1*%
X110587500Y-68235000D03*
X110587500Y-67215000D03*
%TD*%
D26*
%TO.C,Y1*%
X95637500Y-73775000D03*
X93437500Y-73775000D03*
X93437500Y-75475000D03*
X95637500Y-75475000D03*
%TD*%
D27*
%TO.C,R15*%
X100907500Y-69125000D03*
X99887500Y-69125000D03*
%TD*%
D28*
%TO.C,R6*%
X113090000Y-79600000D03*
X114110000Y-79600000D03*
%TD*%
D29*
%TO.C,C2*%
X113000000Y-66750000D03*
X113000000Y-64850000D03*
%TD*%
D30*
%TO.C,J3*%
X105197500Y-82525000D03*
X106197500Y-82525000D03*
X107197500Y-82525000D03*
D31*
X103897500Y-86400000D03*
X108497500Y-86400000D03*
%TD*%
D32*
%TO.C,Q2*%
X98487500Y-81125000D03*
X97987500Y-81125000D03*
X97487500Y-81125000D03*
X97487500Y-82550000D03*
X97987500Y-82550000D03*
X98487500Y-82550000D03*
%TD*%
D33*
%TO.C,C20*%
X105087500Y-78545000D03*
X105087500Y-79505000D03*
%TD*%
D34*
%TO.C,C10*%
X109600000Y-75680000D03*
X109600000Y-74720000D03*
%TD*%
D11*
%TO.C,C15*%
X95667500Y-72375000D03*
X94707500Y-72375000D03*
%TD*%
D34*
%TO.C,C5*%
X109587500Y-68205000D03*
X109587500Y-67245000D03*
%TD*%
D10*
%TO.C,C22*%
X109807500Y-73725000D03*
X110767500Y-73725000D03*
%TD*%
D12*
%TO.C,R4*%
X103437500Y-65615000D03*
X103437500Y-66635000D03*
%TD*%
D28*
%TO.C,R14*%
X100977500Y-85925000D03*
X101997500Y-85925000D03*
%TD*%
D35*
%TO.C,Q1*%
X93187500Y-82150000D03*
X93687500Y-82150000D03*
X94187500Y-82150000D03*
X94187500Y-80725000D03*
X93687500Y-80725000D03*
X93187500Y-80725000D03*
%TD*%
D27*
%TO.C,R9*%
X116310000Y-79600000D03*
X115290000Y-79600000D03*
%TD*%
D12*
%TO.C,R13*%
X99687500Y-83725000D03*
X99687500Y-84745000D03*
%TD*%
D10*
%TO.C,C14*%
X98907500Y-75125000D03*
X99867500Y-75125000D03*
%TD*%
D12*
%TO.C,R3*%
X105687500Y-65615000D03*
X105687500Y-66635000D03*
%TD*%
D33*
%TO.C,C13*%
X99987500Y-70145000D03*
X99987500Y-71105000D03*
%TD*%
D34*
%TO.C,C9*%
X110000000Y-72005000D03*
X110000000Y-71045000D03*
%TD*%
D27*
%TO.C,R7*%
X94197500Y-79425000D03*
X93177500Y-79425000D03*
%TD*%
%TO.C,R11*%
X101997500Y-87025000D03*
X100977500Y-87025000D03*
%TD*%
D34*
%TO.C,C11*%
X111000000Y-72005000D03*
X111000000Y-71045000D03*
%TD*%
D36*
%TO.C,SW1*%
X97012500Y-85025000D03*
X93612500Y-85025000D03*
D37*
X93187500Y-86975000D03*
D38*
X97437500Y-86975000D03*
%TD*%
D34*
%TO.C,C12*%
X103400000Y-68680000D03*
X103400000Y-67720000D03*
%TD*%
D10*
%TO.C,C24*%
X100987500Y-83575000D03*
X101947500Y-83575000D03*
%TD*%
D39*
%TO.C,C21*%
X99087500Y-65975000D03*
X99087500Y-67875000D03*
%TD*%
D25*
%TO.C,R5*%
X95687500Y-79435000D03*
X95687500Y-78415000D03*
%TD*%
D40*
%TO.C,C19*%
X97237500Y-61025000D03*
X95337500Y-61025000D03*
%TD*%
D41*
%TO.C,P1*%
X101537450Y-62718400D03*
D42*
X100387550Y-60918300D03*
X100387550Y-58318400D03*
X109487450Y-58318400D03*
X109487450Y-60918300D03*
D43*
X106437350Y-60068500D03*
X103437350Y-60068500D03*
X103137450Y-58318400D03*
X106737550Y-58318400D03*
D44*
X102187450Y-62818500D03*
X103687550Y-62818500D03*
X104187650Y-62818500D03*
X104687550Y-62818500D03*
X105187650Y-62818500D03*
X106687550Y-62818500D03*
X107187450Y-62818500D03*
D41*
X108337550Y-62718400D03*
D44*
X107687550Y-62818500D03*
X106187450Y-62818500D03*
X105687550Y-62818500D03*
X103187450Y-62818500D03*
X102687550Y-62818500D03*
%TD*%
D27*
%TO.C,R8*%
X102797500Y-79975000D03*
X101777500Y-79975000D03*
%TD*%
D45*
%TO.C,L1*%
X107087500Y-65525000D03*
X109087500Y-65525000D03*
%TD*%
D46*
%TO.C,U4*%
X97237500Y-63287500D03*
X96287500Y-63287500D03*
X95337500Y-63287500D03*
X95337500Y-65562500D03*
X97237500Y-65562500D03*
%TD*%
D13*
%TO.C,C1*%
X107572500Y-68325000D03*
X108602500Y-68325000D03*
%TD*%
D11*
%TO.C,C8*%
X111567500Y-69425000D03*
X110607500Y-69425000D03*
%TD*%
D10*
%TO.C,C6*%
X100987500Y-84675000D03*
X101947500Y-84675000D03*
%TD*%
D12*
%TO.C,R12*%
X100387500Y-81515000D03*
X100387500Y-82535000D03*
%TD*%
D34*
%TO.C,C18*%
X110600000Y-75705000D03*
X110600000Y-74745000D03*
%TD*%
D30*
%TO.C,J4*%
X112237500Y-82525000D03*
X113237500Y-82525000D03*
X114237500Y-82525000D03*
X115237500Y-82525000D03*
D31*
X110937500Y-86400000D03*
X116537500Y-86400000D03*
%TD*%
M02*
