%TF.GenerationSoftware,KiCad,Pcbnew,10.0.1*%
%TF.CreationDate,2026-08-12T01:57:18+02:00*%
%TF.ProjectId,pico2-expansion-card,7069636f-322d-4657-9870-616e73696f6e,rev?*%
%TF.SameCoordinates,Original*%
%TF.FileFunction,Legend,Top*%
%TF.FilePolarity,Positive*%
%FSLAX46Y46*%
G04 Gerber Fmt 4.6, Leading zero omitted, Abs format (unit mm)*
G04 Created by KiCad (PCBNEW 10.0.1) date 2026-08-12 01:57:18*
%MOMM*%
%LPD*%
G01*
G04 APERTURE LIST*
%ADD10C,0.000000*%
%ADD11C,0.050000*%
%ADD12C,0.254000*%
%ADD13C,0.120000*%
G04 APERTURE END LIST*
D10*
G36*
X157260844Y-137203495D02*
G01*
X156373504Y-137203495D01*
X156373504Y-136316156D01*
X157260844Y-136316156D01*
X157260844Y-137203495D01*
G37*
G36*
X157260844Y-138150000D02*
G01*
X156373504Y-138150000D01*
X156373504Y-137262661D01*
X157260844Y-137262661D01*
X157260844Y-138150000D01*
G37*
G36*
X157260844Y-139096486D02*
G01*
X156373504Y-139096486D01*
X156373504Y-138209147D01*
X157260844Y-138209147D01*
X157260844Y-139096486D01*
G37*
G36*
X158207339Y-136257000D02*
G01*
X157320000Y-136257000D01*
X157320000Y-135369660D01*
X158207339Y-135369660D01*
X158207339Y-136257000D01*
G37*
G36*
X158207339Y-137203495D02*
G01*
X157320000Y-137203495D01*
X157320000Y-136316156D01*
X158207339Y-136316156D01*
X158207339Y-137203495D01*
G37*
G36*
X158207339Y-138150000D02*
G01*
X157320000Y-138150000D01*
X157320000Y-137262661D01*
X158207339Y-137262661D01*
X158207339Y-138150000D01*
G37*
G36*
X158207339Y-139096486D02*
G01*
X157320000Y-139096486D01*
X157320000Y-138209147D01*
X158207339Y-138209147D01*
X158207339Y-139096486D01*
G37*
G36*
X158207339Y-140042981D02*
G01*
X157320000Y-140042981D01*
X157320000Y-139155642D01*
X158207339Y-139155642D01*
X158207339Y-140042981D01*
G37*
G36*
X159153819Y-136257000D02*
G01*
X158266479Y-136257000D01*
X158266479Y-135369660D01*
X159153819Y-135369660D01*
X159153819Y-136257000D01*
G37*
G36*
X159153819Y-137203495D02*
G01*
X158266479Y-137203495D01*
X158266479Y-136316156D01*
X159153819Y-136316156D01*
X159153819Y-137203495D01*
G37*
G36*
X159153819Y-138150000D02*
G01*
X158266479Y-138150000D01*
X158266479Y-137262661D01*
X159153819Y-137262661D01*
X159153819Y-138150000D01*
G37*
G36*
X159153819Y-139096486D02*
G01*
X158266479Y-139096486D01*
X158266479Y-138209147D01*
X159153819Y-138209147D01*
X159153819Y-139096486D01*
G37*
G36*
X159153819Y-140042981D02*
G01*
X158266479Y-140042981D01*
X158266479Y-139155642D01*
X159153819Y-139155642D01*
X159153819Y-140042981D01*
G37*
G36*
X160100329Y-136257000D02*
G01*
X159212990Y-136257000D01*
X159212990Y-135369660D01*
X160100329Y-135369660D01*
X160100329Y-136257000D01*
G37*
G36*
X160100329Y-137203495D02*
G01*
X159212990Y-137203495D01*
X159212990Y-136316156D01*
X160100329Y-136316156D01*
X160100329Y-137203495D01*
G37*
G36*
X160100329Y-138150000D02*
G01*
X159212990Y-138150000D01*
X159212990Y-137262661D01*
X160100329Y-137262661D01*
X160100329Y-138150000D01*
G37*
G36*
X160100329Y-139096486D02*
G01*
X159212990Y-139096486D01*
X159212990Y-138209147D01*
X160100329Y-138209147D01*
X160100329Y-139096486D01*
G37*
G36*
X160100329Y-140042981D02*
G01*
X159212990Y-140042981D01*
X159212990Y-139155642D01*
X160100329Y-139155642D01*
X160100329Y-140042981D01*
G37*
G36*
X161046825Y-137203495D02*
G01*
X160159486Y-137203495D01*
X160159486Y-136316156D01*
X161046825Y-136316156D01*
X161046825Y-137203495D01*
G37*
G36*
X161046825Y-138150000D02*
G01*
X160159486Y-138150000D01*
X160159486Y-137262661D01*
X161046825Y-137262661D01*
X161046825Y-138150000D01*
G37*
G36*
X161046825Y-139096486D02*
G01*
X160159486Y-139096486D01*
X160159486Y-138209147D01*
X161046825Y-138209147D01*
X161046825Y-139096486D01*
G37*
G36*
X160100375Y-134530073D02*
G01*
X160100375Y-134878136D01*
X160055514Y-134856540D01*
X160010368Y-134835706D01*
X159964985Y-134815624D01*
X159919413Y-134796284D01*
X160135013Y-134895500D01*
X160340490Y-135009392D01*
X160535323Y-135137179D01*
X160718987Y-135278076D01*
X160890962Y-135431301D01*
X161050724Y-135596069D01*
X161197751Y-135771597D01*
X161331519Y-135957102D01*
X161451508Y-136151800D01*
X161557193Y-136354908D01*
X161648053Y-136565642D01*
X161723564Y-136783219D01*
X161783205Y-137006856D01*
X161826453Y-137235769D01*
X161852785Y-137469174D01*
X161861678Y-137706289D01*
X161857577Y-137868466D01*
X161845407Y-138028514D01*
X161825365Y-138186235D01*
X161797649Y-138341431D01*
X161762458Y-138493904D01*
X161719990Y-138643456D01*
X161670443Y-138789889D01*
X161614014Y-138933005D01*
X161550901Y-139072605D01*
X161481304Y-139208493D01*
X161405419Y-139340469D01*
X161323445Y-139468337D01*
X161235579Y-139591897D01*
X161142020Y-139710952D01*
X161042966Y-139825303D01*
X160938614Y-139934754D01*
X160829164Y-140039105D01*
X160714812Y-140138159D01*
X160595757Y-140231718D01*
X160472196Y-140319583D01*
X160344329Y-140401558D01*
X160212352Y-140477443D01*
X160076464Y-140547040D01*
X159936863Y-140610153D01*
X159793747Y-140666581D01*
X159647314Y-140716129D01*
X159497761Y-140758597D01*
X159345288Y-140793788D01*
X159190091Y-140821503D01*
X159032370Y-140841545D01*
X158872321Y-140853716D01*
X158710143Y-140857817D01*
X158547966Y-140853716D01*
X158387918Y-140841545D01*
X158230197Y-140821502D01*
X158075001Y-140793787D01*
X157922528Y-140758596D01*
X157772976Y-140716127D01*
X157626543Y-140666579D01*
X157483427Y-140610150D01*
X157343827Y-140547037D01*
X157207939Y-140477440D01*
X157075963Y-140401554D01*
X156948096Y-140319580D01*
X156824536Y-140231714D01*
X156705481Y-140138155D01*
X156591129Y-140039101D01*
X156481679Y-139934750D01*
X156377328Y-139825299D01*
X156278274Y-139710947D01*
X156184716Y-139591892D01*
X156096850Y-139468332D01*
X156014876Y-139340465D01*
X155938992Y-139208489D01*
X155869394Y-139072601D01*
X155806282Y-138933001D01*
X155749854Y-138789885D01*
X155700306Y-138643453D01*
X155657839Y-138493901D01*
X155622648Y-138341428D01*
X155594933Y-138186232D01*
X155574891Y-138028512D01*
X155562721Y-137868464D01*
X155558621Y-137706291D01*
X155896055Y-137706291D01*
X155896430Y-137752355D01*
X155897559Y-137798396D01*
X155899441Y-137844408D01*
X155902076Y-137890379D01*
X155905462Y-137936302D01*
X155909599Y-137982166D01*
X155914487Y-138027962D01*
X155920126Y-138073682D01*
X155926507Y-138119286D01*
X155933631Y-138164770D01*
X155941498Y-138210126D01*
X155950105Y-138255344D01*
X155959450Y-138300415D01*
X155969532Y-138345331D01*
X155980349Y-138390082D01*
X155991899Y-138434659D01*
X156004184Y-138479049D01*
X156017191Y-138523223D01*
X156030917Y-138567173D01*
X156045360Y-138610890D01*
X156060516Y-138654365D01*
X156076382Y-138697588D01*
X156092955Y-138740552D01*
X156110233Y-138783247D01*
X156128203Y-138825651D01*
X156146860Y-138867747D01*
X156166201Y-138909526D01*
X156186222Y-138950980D01*
X156206918Y-138992102D01*
X156228286Y-139032882D01*
X156250321Y-139073313D01*
X156273019Y-139113386D01*
X156296373Y-139153082D01*
X156320369Y-139192383D01*
X156345002Y-139231281D01*
X156370266Y-139269769D01*
X156396157Y-139307838D01*
X156422668Y-139345481D01*
X156449796Y-139382689D01*
X156477534Y-139419456D01*
X156505871Y-139455772D01*
X156534793Y-139491612D01*
X156564294Y-139526969D01*
X156594367Y-139561837D01*
X156625006Y-139596207D01*
X156656206Y-139630074D01*
X156687960Y-139663431D01*
X156720262Y-139696269D01*
X156753091Y-139728560D01*
X156786438Y-139760303D01*
X156820295Y-139791491D01*
X156854655Y-139822120D01*
X156889511Y-139852182D01*
X156924858Y-139881672D01*
X156960687Y-139910585D01*
X156996992Y-139938913D01*
X157033759Y-139966651D01*
X157070967Y-139993778D01*
X157108609Y-140020289D01*
X157146678Y-140046180D01*
X157185165Y-140071443D01*
X157224063Y-140096076D01*
X157263364Y-140120072D01*
X157303062Y-140143426D01*
X157343133Y-140166135D01*
X157383563Y-140188181D01*
X157424343Y-140209560D01*
X157465464Y-140230267D01*
X157506919Y-140250298D01*
X157548699Y-140269651D01*
X157590796Y-140288319D01*
X157633201Y-140306300D01*
X157675896Y-140323578D01*
X157718860Y-140340151D01*
X157762083Y-140356017D01*
X157805557Y-140371172D01*
X157849273Y-140385615D01*
X157893223Y-140399341D01*
X157937398Y-140412348D01*
X157981788Y-140424633D01*
X158026375Y-140436184D01*
X158071136Y-140447002D01*
X158116063Y-140457084D01*
X158161145Y-140466430D01*
X158206374Y-140475037D01*
X158251741Y-140482903D01*
X158297237Y-140490026D01*
X158342852Y-140496405D01*
X158388560Y-140502042D01*
X158434345Y-140506929D01*
X158480197Y-140511066D01*
X158526108Y-140514453D01*
X158572068Y-140517087D01*
X158618069Y-140518970D01*
X158664100Y-140520100D01*
X158710153Y-140520476D01*
X158756205Y-140520100D01*
X158802236Y-140518970D01*
X158848237Y-140517087D01*
X158894197Y-140514453D01*
X158940108Y-140511067D01*
X158985961Y-140506930D01*
X159031746Y-140502043D01*
X159077455Y-140496406D01*
X159123069Y-140490027D01*
X159168564Y-140482903D01*
X159213931Y-140475037D01*
X159259160Y-140466430D01*
X159304242Y-140457084D01*
X159349169Y-140447001D01*
X159393930Y-140436183D01*
X159438518Y-140424632D01*
X159482908Y-140412347D01*
X159527082Y-140399340D01*
X159571032Y-140385614D01*
X159614748Y-140371172D01*
X159658222Y-140356016D01*
X159701446Y-140340150D01*
X159744410Y-140323576D01*
X159787107Y-140306298D01*
X159829511Y-140288317D01*
X159871607Y-140269649D01*
X159913387Y-140250297D01*
X159954841Y-140230265D01*
X159995963Y-140209558D01*
X160036743Y-140188179D01*
X160077174Y-140166134D01*
X160117246Y-140143425D01*
X160156942Y-140120070D01*
X160196243Y-140096074D01*
X160235140Y-140071441D01*
X160273627Y-140046178D01*
X160311696Y-140020288D01*
X160349338Y-139993777D01*
X160386547Y-139966650D01*
X160423314Y-139938912D01*
X160459618Y-139910584D01*
X160495446Y-139881672D01*
X160530792Y-139852182D01*
X160565648Y-139822119D01*
X160600008Y-139791491D01*
X160633865Y-139760302D01*
X160667212Y-139728559D01*
X160700042Y-139696268D01*
X160732344Y-139663429D01*
X160764098Y-139630073D01*
X160795298Y-139596206D01*
X160825938Y-139561834D01*
X160856011Y-139526967D01*
X160885512Y-139491609D01*
X160914434Y-139455769D01*
X160942771Y-139419453D01*
X160970509Y-139382686D01*
X160997637Y-139345477D01*
X161024148Y-139307835D01*
X161050038Y-139269766D01*
X161075302Y-139231279D01*
X161099935Y-139192381D01*
X161123931Y-139153080D01*
X161147286Y-139113383D01*
X161169984Y-139073310D01*
X161192019Y-139032880D01*
X161213387Y-138992100D01*
X161234083Y-138950978D01*
X161254103Y-138909524D01*
X161273444Y-138867745D01*
X161292101Y-138825650D01*
X161310071Y-138783246D01*
X161327349Y-138740550D01*
X161343922Y-138697586D01*
X161359788Y-138654363D01*
X161374944Y-138610888D01*
X161389386Y-138567172D01*
X161403112Y-138523222D01*
X161416119Y-138479047D01*
X161428403Y-138434656D01*
X161439964Y-138390081D01*
X161450792Y-138345332D01*
X161460885Y-138300421D01*
X161470240Y-138255357D01*
X161478857Y-138210150D01*
X161486732Y-138164812D01*
X161493865Y-138119352D01*
X161500252Y-138073781D01*
X161505892Y-138028063D01*
X161510782Y-137982266D01*
X161514921Y-137936399D01*
X161518309Y-137890469D01*
X161520945Y-137844486D01*
X161522829Y-137798456D01*
X161523959Y-137752389D01*
X161524336Y-137706291D01*
X161524152Y-137673799D01*
X161523592Y-137641309D01*
X161522658Y-137608827D01*
X161521348Y-137576357D01*
X161519647Y-137543906D01*
X161517572Y-137511474D01*
X161515123Y-137479068D01*
X161512299Y-137446692D01*
X161509125Y-137414344D01*
X161505578Y-137382038D01*
X161501658Y-137349775D01*
X161497366Y-137317554D01*
X161492673Y-137285376D01*
X161487609Y-137253258D01*
X161482174Y-137221200D01*
X161476368Y-137189203D01*
X161470221Y-137157289D01*
X161463706Y-137125447D01*
X161456823Y-137093683D01*
X161449575Y-137062001D01*
X161441950Y-137030412D01*
X161433961Y-136998911D01*
X161425609Y-136967504D01*
X161416895Y-136936197D01*
X161407813Y-136904976D01*
X161398373Y-136873866D01*
X161388573Y-136842867D01*
X161378415Y-136811979D01*
X161367919Y-136781217D01*
X161357070Y-136750581D01*
X161345868Y-136720071D01*
X161334313Y-136689688D01*
X161322382Y-136659453D01*
X161310102Y-136629357D01*
X161297475Y-136599404D01*
X161284503Y-136569599D01*
X161271221Y-136539953D01*
X161257598Y-136510466D01*
X161243636Y-136481138D01*
X161229335Y-136451971D01*
X161214658Y-136422961D01*
X161199647Y-136394122D01*
X161184302Y-136365456D01*
X161168626Y-136336969D01*
X161152664Y-136308663D01*
X161136376Y-136280543D01*
X161119764Y-136252613D01*
X161102829Y-136224875D01*
X161085557Y-136197337D01*
X161067967Y-136170000D01*
X161050064Y-136142868D01*
X161031848Y-136115946D01*
X161013331Y-136089241D01*
X160994506Y-136062753D01*
X160975378Y-136036484D01*
X160955947Y-136010438D01*
X160936205Y-135984612D01*
X160916167Y-135959017D01*
X160895834Y-135933655D01*
X160875208Y-135908527D01*
X160854288Y-135883627D01*
X160833081Y-135858971D01*
X160811592Y-135834563D01*
X160789822Y-135810404D01*
X160767784Y-135786516D01*
X160745473Y-135762885D01*
X160722889Y-135739512D01*
X160700037Y-135716400D01*
X160676927Y-135693549D01*
X160653557Y-135670967D01*
X160629926Y-135648656D01*
X160606038Y-135626617D01*
X160581898Y-135604868D01*
X160557511Y-135583401D01*
X160532877Y-135562217D01*
X160507998Y-135541317D01*
X160482872Y-135520692D01*
X160457512Y-135500361D01*
X160431917Y-135480324D01*
X160406090Y-135460581D01*
X160380043Y-135441150D01*
X160353776Y-135422021D01*
X160327288Y-135403197D01*
X160300583Y-135384679D01*
X160273659Y-135366464D01*
X160246526Y-135348560D01*
X160219189Y-135330971D01*
X160191650Y-135313698D01*
X160163912Y-135296741D01*
X160135982Y-135280107D01*
X160107861Y-135263796D01*
X160079550Y-135247809D01*
X160051066Y-135232158D01*
X160022404Y-135216837D01*
X159993566Y-135201848D01*
X159964555Y-135187193D01*
X159935366Y-135172869D01*
X159906016Y-135158885D01*
X159876507Y-135145241D01*
X159846839Y-135131938D01*
X159817034Y-135118987D01*
X159787080Y-135106382D01*
X159756983Y-135094124D01*
X159726748Y-135082214D01*
X159696368Y-135070637D01*
X159665859Y-135059413D01*
X159635221Y-135048541D01*
X159604456Y-135038023D01*
X159573591Y-135027889D01*
X159542614Y-135018112D01*
X159511524Y-135008693D01*
X159480325Y-134999633D01*
X159448997Y-134990918D01*
X159417571Y-134982566D01*
X159386051Y-134974578D01*
X159354438Y-134966954D01*
X159322755Y-134959683D01*
X159290991Y-134952779D01*
X159259149Y-134946241D01*
X159227232Y-134940072D01*
X159195258Y-134934290D01*
X159163223Y-134928878D01*
X159131126Y-134923836D01*
X159098969Y-134919165D01*
X159066753Y-134914850D01*
X159034488Y-134910908D01*
X159002178Y-134907338D01*
X158969828Y-134904142D01*
X158937453Y-134901340D01*
X158905049Y-134898913D01*
X158872621Y-134896860D01*
X158840168Y-134895180D01*
X158807677Y-134893870D01*
X158775176Y-134892936D01*
X158742666Y-134892377D01*
X158710149Y-134892194D01*
X158710149Y-134892195D01*
X158710150Y-134892195D01*
X158664098Y-134892572D01*
X158618067Y-134893702D01*
X158572067Y-134895584D01*
X158526106Y-134898219D01*
X158480196Y-134901605D01*
X158434343Y-134905742D01*
X158388559Y-134910629D01*
X158342851Y-134916266D01*
X158297236Y-134922646D01*
X158251740Y-134929770D01*
X158206374Y-134937636D01*
X158161144Y-134946243D01*
X158116062Y-134955588D01*
X158071135Y-134965671D01*
X158026373Y-134976489D01*
X157981785Y-134988040D01*
X157937395Y-135000325D01*
X157893221Y-135013332D01*
X157849271Y-135027058D01*
X157805555Y-135041501D01*
X157762080Y-135056657D01*
X157718856Y-135072524D01*
X157675892Y-135089097D01*
X157633197Y-135106375D01*
X157590793Y-135124345D01*
X157548697Y-135143002D01*
X157506918Y-135162343D01*
X157465463Y-135182364D01*
X157424341Y-135203060D01*
X157383560Y-135224428D01*
X157343129Y-135246463D01*
X157303056Y-135269161D01*
X157263360Y-135292516D01*
X157224060Y-135316512D01*
X157185162Y-135341144D01*
X157146675Y-135366409D01*
X157108607Y-135392299D01*
X157070964Y-135418810D01*
X157033755Y-135445938D01*
X156996987Y-135473676D01*
X156960683Y-135502014D01*
X156924854Y-135530936D01*
X156889508Y-135560437D01*
X156854652Y-135590511D01*
X156820292Y-135621150D01*
X156786435Y-135652350D01*
X156753090Y-135684103D01*
X156720262Y-135716405D01*
X156687960Y-135749243D01*
X156656205Y-135782600D01*
X156625005Y-135816467D01*
X156594366Y-135850838D01*
X156564292Y-135885706D01*
X156534792Y-135921064D01*
X156505870Y-135956904D01*
X156477533Y-135993219D01*
X156449795Y-136029986D01*
X156422668Y-136067195D01*
X156396156Y-136104838D01*
X156370266Y-136142907D01*
X156345001Y-136181394D01*
X156320369Y-136220292D01*
X156296372Y-136259594D01*
X156273018Y-136299290D01*
X156250320Y-136339363D01*
X156228285Y-136379794D01*
X156206918Y-136420574D01*
X156186222Y-136461695D01*
X156166201Y-136503149D01*
X156146860Y-136544928D01*
X156128202Y-136587023D01*
X156110232Y-136629427D01*
X156092956Y-136672112D01*
X156076383Y-136715065D01*
X156060518Y-136758278D01*
X156045362Y-136801742D01*
X156030919Y-136845448D01*
X156017192Y-136889387D01*
X156004184Y-136933551D01*
X155991898Y-136977931D01*
X155980347Y-137022518D01*
X155969530Y-137067279D01*
X155959447Y-137112204D01*
X155950102Y-137157285D01*
X155941495Y-137202512D01*
X155933629Y-137247876D01*
X155926506Y-137293368D01*
X155920127Y-137338977D01*
X155914490Y-137384685D01*
X155909603Y-137430470D01*
X155905465Y-137476323D01*
X155902079Y-137522235D01*
X155899444Y-137568197D01*
X155897562Y-137614200D01*
X155896432Y-137660234D01*
X155896055Y-137706291D01*
X155558621Y-137706291D01*
X155558620Y-137706287D01*
X155560875Y-137587591D01*
X155567533Y-137469720D01*
X155578529Y-137352773D01*
X155593798Y-137236845D01*
X155613275Y-137122035D01*
X155636897Y-137008441D01*
X155664597Y-136896158D01*
X155696311Y-136785284D01*
X155731975Y-136675917D01*
X155771524Y-136568154D01*
X155814893Y-136462092D01*
X155862018Y-136357828D01*
X155912833Y-136255460D01*
X155967273Y-136155084D01*
X156025275Y-136056798D01*
X156086773Y-135960700D01*
X156151703Y-135866886D01*
X156220000Y-135775454D01*
X156291599Y-135686501D01*
X156366436Y-135600125D01*
X156444445Y-135516421D01*
X156525562Y-135435489D01*
X156609722Y-135357424D01*
X156696861Y-135282325D01*
X156786913Y-135210288D01*
X156879815Y-135141411D01*
X156975501Y-135075791D01*
X157073906Y-135013525D01*
X157174966Y-134954711D01*
X157278616Y-134899445D01*
X157377921Y-134851165D01*
X157362964Y-134858104D01*
X157320012Y-134878838D01*
X157320012Y-134844918D01*
X157391388Y-134844918D01*
X157493428Y-134799948D01*
X157449678Y-134818671D01*
X157406188Y-134838052D01*
X157391388Y-134844918D01*
X157320012Y-134844918D01*
X157320012Y-134790727D01*
X157515741Y-134790727D01*
X157561080Y-134772537D01*
X157590257Y-134761352D01*
X159831591Y-134761352D01*
X159865892Y-134774561D01*
X159865832Y-134774537D01*
X159831591Y-134761352D01*
X157590257Y-134761352D01*
X157606687Y-134755054D01*
X157633990Y-134745071D01*
X159787844Y-134745071D01*
X159818578Y-134756342D01*
X159818490Y-134756308D01*
X159787844Y-134745071D01*
X157633990Y-134745071D01*
X157652124Y-134738441D01*
X157606790Y-134755014D01*
X157561139Y-134772512D01*
X157515741Y-134790727D01*
X157320012Y-134790727D01*
X157320012Y-134738283D01*
X157652557Y-134738283D01*
X157677480Y-134729605D01*
X159744350Y-134729605D01*
X159770976Y-134738886D01*
X159770885Y-134738853D01*
X159744350Y-134729605D01*
X157677480Y-134729605D01*
X157679637Y-134728854D01*
X157652684Y-134738236D01*
X157652557Y-134738283D01*
X157320012Y-134738283D01*
X157320012Y-134722195D01*
X157320012Y-134714786D01*
X159700682Y-134714786D01*
X159723104Y-134722200D01*
X159723027Y-134722173D01*
X159700682Y-134714786D01*
X157320012Y-134714786D01*
X157320012Y-134700574D01*
X159656713Y-134700574D01*
X159674979Y-134706289D01*
X159674926Y-134706272D01*
X159656713Y-134700574D01*
X157320012Y-134700574D01*
X157320012Y-134686778D01*
X157320012Y-134663255D01*
X157320012Y-134660443D01*
X157902809Y-134660443D01*
X157951106Y-134648036D01*
X157999583Y-134636396D01*
X158048015Y-134625575D01*
X159373794Y-134625575D01*
X159387311Y-134628604D01*
X159373823Y-134625581D01*
X159373794Y-134625575D01*
X158048015Y-134625575D01*
X158048233Y-134625526D01*
X158097046Y-134615428D01*
X158103911Y-134614120D01*
X158096994Y-134615437D01*
X158048186Y-134625528D01*
X157999547Y-134636393D01*
X157951085Y-134648031D01*
X157902809Y-134660443D01*
X157320012Y-134660443D01*
X157320012Y-134582617D01*
X159127229Y-134582617D01*
X159173263Y-134589084D01*
X159223613Y-134596990D01*
X159273822Y-134605708D01*
X159323881Y-134615236D01*
X159367899Y-134624354D01*
X159323931Y-134615244D01*
X159273872Y-134605714D01*
X159223655Y-134596994D01*
X159173288Y-134589086D01*
X159127229Y-134582617D01*
X157320012Y-134582617D01*
X157320012Y-134565306D01*
X158967163Y-134565306D01*
X158972982Y-134565830D01*
X158967198Y-134565308D01*
X158967163Y-134565306D01*
X157320012Y-134565306D01*
X157320012Y-134561960D01*
X158500437Y-134561960D01*
X158506100Y-134561542D01*
X158506032Y-134561546D01*
X158500437Y-134561960D01*
X157320012Y-134561960D01*
X157320012Y-134561514D01*
X158915789Y-134561514D01*
X158937197Y-134563093D01*
X158915946Y-134561523D01*
X158915789Y-134561514D01*
X157320012Y-134561514D01*
X157320012Y-134560596D01*
X158522492Y-134560596D01*
X158557207Y-134558599D01*
X158558078Y-134558563D01*
X158864379Y-134558563D01*
X158899977Y-134560605D01*
X158864606Y-134558573D01*
X158864379Y-134558563D01*
X158558078Y-134558563D01*
X158608157Y-134556494D01*
X158659141Y-134555214D01*
X158709835Y-134554762D01*
X158710486Y-134554762D01*
X158761578Y-134555188D01*
X158812981Y-134556456D01*
X158859364Y-134558357D01*
X158813187Y-134556460D01*
X158761698Y-134555187D01*
X158710486Y-134554762D01*
X158709835Y-134554762D01*
X158710149Y-134554759D01*
X158659027Y-134555208D01*
X158607960Y-134556492D01*
X158556958Y-134558606D01*
X158522492Y-134560596D01*
X157320012Y-134560596D01*
X157320012Y-134530074D01*
X157320012Y-133139936D01*
X158015080Y-134530073D01*
X158710149Y-133139936D01*
X159405218Y-134530073D01*
X160100375Y-133139936D01*
X160100375Y-134530073D01*
G37*
D11*
X139611617Y-144368400D02*
X139668760Y-144387447D01*
X139668760Y-144387447D02*
X139763998Y-144387447D01*
X139763998Y-144387447D02*
X139802093Y-144368400D01*
X139802093Y-144368400D02*
X139821141Y-144349352D01*
X139821141Y-144349352D02*
X139840188Y-144311257D01*
X139840188Y-144311257D02*
X139840188Y-144273161D01*
X139840188Y-144273161D02*
X139821141Y-144235066D01*
X139821141Y-144235066D02*
X139802093Y-144216019D01*
X139802093Y-144216019D02*
X139763998Y-144196971D01*
X139763998Y-144196971D02*
X139687807Y-144177923D01*
X139687807Y-144177923D02*
X139649712Y-144158876D01*
X139649712Y-144158876D02*
X139630665Y-144139828D01*
X139630665Y-144139828D02*
X139611617Y-144101733D01*
X139611617Y-144101733D02*
X139611617Y-144063638D01*
X139611617Y-144063638D02*
X139630665Y-144025542D01*
X139630665Y-144025542D02*
X139649712Y-144006495D01*
X139649712Y-144006495D02*
X139687807Y-143987447D01*
X139687807Y-143987447D02*
X139783046Y-143987447D01*
X139783046Y-143987447D02*
X139840188Y-144006495D01*
X139973521Y-143987447D02*
X140068759Y-144387447D01*
X140068759Y-144387447D02*
X140144950Y-144101733D01*
X140144950Y-144101733D02*
X140221140Y-144387447D01*
X140221140Y-144387447D02*
X140316379Y-143987447D01*
X140678283Y-144387447D02*
X140449712Y-144387447D01*
X140563998Y-144387447D02*
X140563998Y-143987447D01*
X140563998Y-143987447D02*
X140525902Y-144044590D01*
X140525902Y-144044590D02*
X140487807Y-144082685D01*
X140487807Y-144082685D02*
X140449712Y-144101733D01*
X140262857Y-137244352D02*
X140243809Y-137263400D01*
X140243809Y-137263400D02*
X140186667Y-137282447D01*
X140186667Y-137282447D02*
X140148571Y-137282447D01*
X140148571Y-137282447D02*
X140091428Y-137263400D01*
X140091428Y-137263400D02*
X140053333Y-137225304D01*
X140053333Y-137225304D02*
X140034286Y-137187209D01*
X140034286Y-137187209D02*
X140015238Y-137111019D01*
X140015238Y-137111019D02*
X140015238Y-137053876D01*
X140015238Y-137053876D02*
X140034286Y-136977685D01*
X140034286Y-136977685D02*
X140053333Y-136939590D01*
X140053333Y-136939590D02*
X140091428Y-136901495D01*
X140091428Y-136901495D02*
X140148571Y-136882447D01*
X140148571Y-136882447D02*
X140186667Y-136882447D01*
X140186667Y-136882447D02*
X140243809Y-136901495D01*
X140243809Y-136901495D02*
X140262857Y-136920542D01*
X140643809Y-137282447D02*
X140415238Y-137282447D01*
X140529524Y-137282447D02*
X140529524Y-136882447D01*
X140529524Y-136882447D02*
X140491428Y-136939590D01*
X140491428Y-136939590D02*
X140453333Y-136977685D01*
X140453333Y-136977685D02*
X140415238Y-136996733D01*
X140986666Y-136882447D02*
X140910476Y-136882447D01*
X140910476Y-136882447D02*
X140872380Y-136901495D01*
X140872380Y-136901495D02*
X140853333Y-136920542D01*
X140853333Y-136920542D02*
X140815238Y-136977685D01*
X140815238Y-136977685D02*
X140796190Y-137053876D01*
X140796190Y-137053876D02*
X140796190Y-137206257D01*
X140796190Y-137206257D02*
X140815238Y-137244352D01*
X140815238Y-137244352D02*
X140834285Y-137263400D01*
X140834285Y-137263400D02*
X140872380Y-137282447D01*
X140872380Y-137282447D02*
X140948571Y-137282447D01*
X140948571Y-137282447D02*
X140986666Y-137263400D01*
X140986666Y-137263400D02*
X141005714Y-137244352D01*
X141005714Y-137244352D02*
X141024761Y-137206257D01*
X141024761Y-137206257D02*
X141024761Y-137111019D01*
X141024761Y-137111019D02*
X141005714Y-137072923D01*
X141005714Y-137072923D02*
X140986666Y-137053876D01*
X140986666Y-137053876D02*
X140948571Y-137034828D01*
X140948571Y-137034828D02*
X140872380Y-137034828D01*
X140872380Y-137034828D02*
X140834285Y-137053876D01*
X140834285Y-137053876D02*
X140815238Y-137072923D01*
X140815238Y-137072923D02*
X140796190Y-137111019D01*
X143064352Y-133507142D02*
X143083400Y-133526190D01*
X143083400Y-133526190D02*
X143102447Y-133583332D01*
X143102447Y-133583332D02*
X143102447Y-133621428D01*
X143102447Y-133621428D02*
X143083400Y-133678571D01*
X143083400Y-133678571D02*
X143045304Y-133716666D01*
X143045304Y-133716666D02*
X143007209Y-133735713D01*
X143007209Y-133735713D02*
X142931019Y-133754761D01*
X142931019Y-133754761D02*
X142873876Y-133754761D01*
X142873876Y-133754761D02*
X142797685Y-133735713D01*
X142797685Y-133735713D02*
X142759590Y-133716666D01*
X142759590Y-133716666D02*
X142721495Y-133678571D01*
X142721495Y-133678571D02*
X142702447Y-133621428D01*
X142702447Y-133621428D02*
X142702447Y-133583332D01*
X142702447Y-133583332D02*
X142721495Y-133526190D01*
X142721495Y-133526190D02*
X142740542Y-133507142D01*
X143102447Y-133126190D02*
X143102447Y-133354761D01*
X143102447Y-133240475D02*
X142702447Y-133240475D01*
X142702447Y-133240475D02*
X142759590Y-133278571D01*
X142759590Y-133278571D02*
X142797685Y-133316666D01*
X142797685Y-133316666D02*
X142816733Y-133354761D01*
X142702447Y-132992857D02*
X142702447Y-132726190D01*
X142702447Y-132726190D02*
X143102447Y-132897619D01*
X149453333Y-125022447D02*
X149320000Y-124831971D01*
X149224762Y-125022447D02*
X149224762Y-124622447D01*
X149224762Y-124622447D02*
X149377143Y-124622447D01*
X149377143Y-124622447D02*
X149415238Y-124641495D01*
X149415238Y-124641495D02*
X149434285Y-124660542D01*
X149434285Y-124660542D02*
X149453333Y-124698638D01*
X149453333Y-124698638D02*
X149453333Y-124755780D01*
X149453333Y-124755780D02*
X149434285Y-124793876D01*
X149434285Y-124793876D02*
X149415238Y-124812923D01*
X149415238Y-124812923D02*
X149377143Y-124831971D01*
X149377143Y-124831971D02*
X149224762Y-124831971D01*
X149605714Y-124660542D02*
X149624762Y-124641495D01*
X149624762Y-124641495D02*
X149662857Y-124622447D01*
X149662857Y-124622447D02*
X149758095Y-124622447D01*
X149758095Y-124622447D02*
X149796190Y-124641495D01*
X149796190Y-124641495D02*
X149815238Y-124660542D01*
X149815238Y-124660542D02*
X149834285Y-124698638D01*
X149834285Y-124698638D02*
X149834285Y-124736733D01*
X149834285Y-124736733D02*
X149815238Y-124793876D01*
X149815238Y-124793876D02*
X149586666Y-125022447D01*
X149586666Y-125022447D02*
X149834285Y-125022447D01*
X151453333Y-127394352D02*
X151434285Y-127413400D01*
X151434285Y-127413400D02*
X151377143Y-127432447D01*
X151377143Y-127432447D02*
X151339047Y-127432447D01*
X151339047Y-127432447D02*
X151281904Y-127413400D01*
X151281904Y-127413400D02*
X151243809Y-127375304D01*
X151243809Y-127375304D02*
X151224762Y-127337209D01*
X151224762Y-127337209D02*
X151205714Y-127261019D01*
X151205714Y-127261019D02*
X151205714Y-127203876D01*
X151205714Y-127203876D02*
X151224762Y-127127685D01*
X151224762Y-127127685D02*
X151243809Y-127089590D01*
X151243809Y-127089590D02*
X151281904Y-127051495D01*
X151281904Y-127051495D02*
X151339047Y-127032447D01*
X151339047Y-127032447D02*
X151377143Y-127032447D01*
X151377143Y-127032447D02*
X151434285Y-127051495D01*
X151434285Y-127051495D02*
X151453333Y-127070542D01*
X151586666Y-127032447D02*
X151834285Y-127032447D01*
X151834285Y-127032447D02*
X151700952Y-127184828D01*
X151700952Y-127184828D02*
X151758095Y-127184828D01*
X151758095Y-127184828D02*
X151796190Y-127203876D01*
X151796190Y-127203876D02*
X151815238Y-127222923D01*
X151815238Y-127222923D02*
X151834285Y-127261019D01*
X151834285Y-127261019D02*
X151834285Y-127356257D01*
X151834285Y-127356257D02*
X151815238Y-127394352D01*
X151815238Y-127394352D02*
X151796190Y-127413400D01*
X151796190Y-127413400D02*
X151758095Y-127432447D01*
X151758095Y-127432447D02*
X151643809Y-127432447D01*
X151643809Y-127432447D02*
X151605714Y-127413400D01*
X151605714Y-127413400D02*
X151586666Y-127394352D01*
X145189947Y-137704761D02*
X145513757Y-137704761D01*
X145513757Y-137704761D02*
X145551852Y-137685714D01*
X145551852Y-137685714D02*
X145570900Y-137666666D01*
X145570900Y-137666666D02*
X145589947Y-137628571D01*
X145589947Y-137628571D02*
X145589947Y-137552380D01*
X145589947Y-137552380D02*
X145570900Y-137514285D01*
X145570900Y-137514285D02*
X145551852Y-137495238D01*
X145551852Y-137495238D02*
X145513757Y-137476190D01*
X145513757Y-137476190D02*
X145189947Y-137476190D01*
X145228042Y-137304761D02*
X145208995Y-137285713D01*
X145208995Y-137285713D02*
X145189947Y-137247618D01*
X145189947Y-137247618D02*
X145189947Y-137152380D01*
X145189947Y-137152380D02*
X145208995Y-137114285D01*
X145208995Y-137114285D02*
X145228042Y-137095237D01*
X145228042Y-137095237D02*
X145266138Y-137076190D01*
X145266138Y-137076190D02*
X145304233Y-137076190D01*
X145304233Y-137076190D02*
X145361376Y-137095237D01*
X145361376Y-137095237D02*
X145589947Y-137323809D01*
X145589947Y-137323809D02*
X145589947Y-137076190D01*
X145562857Y-138694352D02*
X145543809Y-138713400D01*
X145543809Y-138713400D02*
X145486667Y-138732447D01*
X145486667Y-138732447D02*
X145448571Y-138732447D01*
X145448571Y-138732447D02*
X145391428Y-138713400D01*
X145391428Y-138713400D02*
X145353333Y-138675304D01*
X145353333Y-138675304D02*
X145334286Y-138637209D01*
X145334286Y-138637209D02*
X145315238Y-138561019D01*
X145315238Y-138561019D02*
X145315238Y-138503876D01*
X145315238Y-138503876D02*
X145334286Y-138427685D01*
X145334286Y-138427685D02*
X145353333Y-138389590D01*
X145353333Y-138389590D02*
X145391428Y-138351495D01*
X145391428Y-138351495D02*
X145448571Y-138332447D01*
X145448571Y-138332447D02*
X145486667Y-138332447D01*
X145486667Y-138332447D02*
X145543809Y-138351495D01*
X145543809Y-138351495D02*
X145562857Y-138370542D01*
X145715238Y-138370542D02*
X145734286Y-138351495D01*
X145734286Y-138351495D02*
X145772381Y-138332447D01*
X145772381Y-138332447D02*
X145867619Y-138332447D01*
X145867619Y-138332447D02*
X145905714Y-138351495D01*
X145905714Y-138351495D02*
X145924762Y-138370542D01*
X145924762Y-138370542D02*
X145943809Y-138408638D01*
X145943809Y-138408638D02*
X145943809Y-138446733D01*
X145943809Y-138446733D02*
X145924762Y-138503876D01*
X145924762Y-138503876D02*
X145696190Y-138732447D01*
X145696190Y-138732447D02*
X145943809Y-138732447D01*
X146077142Y-138332447D02*
X146324761Y-138332447D01*
X146324761Y-138332447D02*
X146191428Y-138484828D01*
X146191428Y-138484828D02*
X146248571Y-138484828D01*
X146248571Y-138484828D02*
X146286666Y-138503876D01*
X146286666Y-138503876D02*
X146305714Y-138522923D01*
X146305714Y-138522923D02*
X146324761Y-138561019D01*
X146324761Y-138561019D02*
X146324761Y-138656257D01*
X146324761Y-138656257D02*
X146305714Y-138694352D01*
X146305714Y-138694352D02*
X146286666Y-138713400D01*
X146286666Y-138713400D02*
X146248571Y-138732447D01*
X146248571Y-138732447D02*
X146134285Y-138732447D01*
X146134285Y-138732447D02*
X146096190Y-138713400D01*
X146096190Y-138713400D02*
X146077142Y-138694352D01*
X155654447Y-120354761D02*
X155654447Y-120126190D01*
X156054447Y-120240476D02*
X155654447Y-120240476D01*
X156054447Y-119992856D02*
X155654447Y-119992856D01*
X155654447Y-119992856D02*
X155654447Y-119840475D01*
X155654447Y-119840475D02*
X155673495Y-119802380D01*
X155673495Y-119802380D02*
X155692542Y-119783333D01*
X155692542Y-119783333D02*
X155730638Y-119764285D01*
X155730638Y-119764285D02*
X155787780Y-119764285D01*
X155787780Y-119764285D02*
X155825876Y-119783333D01*
X155825876Y-119783333D02*
X155844923Y-119802380D01*
X155844923Y-119802380D02*
X155863971Y-119840475D01*
X155863971Y-119840475D02*
X155863971Y-119992856D01*
X156054447Y-119383333D02*
X156054447Y-119611904D01*
X156054447Y-119497618D02*
X155654447Y-119497618D01*
X155654447Y-119497618D02*
X155711590Y-119535714D01*
X155711590Y-119535714D02*
X155749685Y-119573809D01*
X155749685Y-119573809D02*
X155768733Y-119611904D01*
X155502447Y-129216666D02*
X155311971Y-129349999D01*
X155502447Y-129445237D02*
X155102447Y-129445237D01*
X155102447Y-129445237D02*
X155102447Y-129292856D01*
X155102447Y-129292856D02*
X155121495Y-129254761D01*
X155121495Y-129254761D02*
X155140542Y-129235714D01*
X155140542Y-129235714D02*
X155178638Y-129216666D01*
X155178638Y-129216666D02*
X155235780Y-129216666D01*
X155235780Y-129216666D02*
X155273876Y-129235714D01*
X155273876Y-129235714D02*
X155292923Y-129254761D01*
X155292923Y-129254761D02*
X155311971Y-129292856D01*
X155311971Y-129292856D02*
X155311971Y-129445237D01*
X155502447Y-128835714D02*
X155502447Y-129064285D01*
X155502447Y-128949999D02*
X155102447Y-128949999D01*
X155102447Y-128949999D02*
X155159590Y-128988095D01*
X155159590Y-128988095D02*
X155197685Y-129026190D01*
X155197685Y-129026190D02*
X155216733Y-129064285D01*
X158602447Y-122554761D02*
X158602447Y-122326190D01*
X159002447Y-122440476D02*
X158602447Y-122440476D01*
X159002447Y-122192856D02*
X158602447Y-122192856D01*
X158602447Y-122192856D02*
X158602447Y-122040475D01*
X158602447Y-122040475D02*
X158621495Y-122002380D01*
X158621495Y-122002380D02*
X158640542Y-121983333D01*
X158640542Y-121983333D02*
X158678638Y-121964285D01*
X158678638Y-121964285D02*
X158735780Y-121964285D01*
X158735780Y-121964285D02*
X158773876Y-121983333D01*
X158773876Y-121983333D02*
X158792923Y-122002380D01*
X158792923Y-122002380D02*
X158811971Y-122040475D01*
X158811971Y-122040475D02*
X158811971Y-122192856D01*
X158735780Y-121621428D02*
X159002447Y-121621428D01*
X158583400Y-121716666D02*
X158869114Y-121811904D01*
X158869114Y-121811904D02*
X158869114Y-121564285D01*
X139179524Y-137091971D02*
X139179524Y-137282447D01*
X139046191Y-136882447D02*
X139179524Y-137091971D01*
X139179524Y-137091971D02*
X139312857Y-136882447D01*
X139655714Y-137282447D02*
X139427143Y-137282447D01*
X139541429Y-137282447D02*
X139541429Y-136882447D01*
X139541429Y-136882447D02*
X139503333Y-136939590D01*
X139503333Y-136939590D02*
X139465238Y-136977685D01*
X139465238Y-136977685D02*
X139427143Y-136996733D01*
X146462857Y-129332447D02*
X146329524Y-129141971D01*
X146234286Y-129332447D02*
X146234286Y-128932447D01*
X146234286Y-128932447D02*
X146386667Y-128932447D01*
X146386667Y-128932447D02*
X146424762Y-128951495D01*
X146424762Y-128951495D02*
X146443809Y-128970542D01*
X146443809Y-128970542D02*
X146462857Y-129008638D01*
X146462857Y-129008638D02*
X146462857Y-129065780D01*
X146462857Y-129065780D02*
X146443809Y-129103876D01*
X146443809Y-129103876D02*
X146424762Y-129122923D01*
X146424762Y-129122923D02*
X146386667Y-129141971D01*
X146386667Y-129141971D02*
X146234286Y-129141971D01*
X146843809Y-129332447D02*
X146615238Y-129332447D01*
X146729524Y-129332447D02*
X146729524Y-128932447D01*
X146729524Y-128932447D02*
X146691428Y-128989590D01*
X146691428Y-128989590D02*
X146653333Y-129027685D01*
X146653333Y-129027685D02*
X146615238Y-129046733D01*
X147205714Y-128932447D02*
X147015238Y-128932447D01*
X147015238Y-128932447D02*
X146996190Y-129122923D01*
X146996190Y-129122923D02*
X147015238Y-129103876D01*
X147015238Y-129103876D02*
X147053333Y-129084828D01*
X147053333Y-129084828D02*
X147148571Y-129084828D01*
X147148571Y-129084828D02*
X147186666Y-129103876D01*
X147186666Y-129103876D02*
X147205714Y-129122923D01*
X147205714Y-129122923D02*
X147224761Y-129161019D01*
X147224761Y-129161019D02*
X147224761Y-129256257D01*
X147224761Y-129256257D02*
X147205714Y-129294352D01*
X147205714Y-129294352D02*
X147186666Y-129313400D01*
X147186666Y-129313400D02*
X147148571Y-129332447D01*
X147148571Y-129332447D02*
X147053333Y-129332447D01*
X147053333Y-129332447D02*
X147015238Y-129313400D01*
X147015238Y-129313400D02*
X146996190Y-129294352D01*
X156634352Y-125616666D02*
X156653400Y-125635714D01*
X156653400Y-125635714D02*
X156672447Y-125692856D01*
X156672447Y-125692856D02*
X156672447Y-125730952D01*
X156672447Y-125730952D02*
X156653400Y-125788095D01*
X156653400Y-125788095D02*
X156615304Y-125826190D01*
X156615304Y-125826190D02*
X156577209Y-125845237D01*
X156577209Y-125845237D02*
X156501019Y-125864285D01*
X156501019Y-125864285D02*
X156443876Y-125864285D01*
X156443876Y-125864285D02*
X156367685Y-125845237D01*
X156367685Y-125845237D02*
X156329590Y-125826190D01*
X156329590Y-125826190D02*
X156291495Y-125788095D01*
X156291495Y-125788095D02*
X156272447Y-125730952D01*
X156272447Y-125730952D02*
X156272447Y-125692856D01*
X156272447Y-125692856D02*
X156291495Y-125635714D01*
X156291495Y-125635714D02*
X156310542Y-125616666D01*
X156310542Y-125464285D02*
X156291495Y-125445237D01*
X156291495Y-125445237D02*
X156272447Y-125407142D01*
X156272447Y-125407142D02*
X156272447Y-125311904D01*
X156272447Y-125311904D02*
X156291495Y-125273809D01*
X156291495Y-125273809D02*
X156310542Y-125254761D01*
X156310542Y-125254761D02*
X156348638Y-125235714D01*
X156348638Y-125235714D02*
X156386733Y-125235714D01*
X156386733Y-125235714D02*
X156443876Y-125254761D01*
X156443876Y-125254761D02*
X156672447Y-125483333D01*
X156672447Y-125483333D02*
X156672447Y-125235714D01*
X158554447Y-120354761D02*
X158554447Y-120126190D01*
X158954447Y-120240476D02*
X158554447Y-120240476D01*
X158954447Y-119992856D02*
X158554447Y-119992856D01*
X158554447Y-119992856D02*
X158554447Y-119840475D01*
X158554447Y-119840475D02*
X158573495Y-119802380D01*
X158573495Y-119802380D02*
X158592542Y-119783333D01*
X158592542Y-119783333D02*
X158630638Y-119764285D01*
X158630638Y-119764285D02*
X158687780Y-119764285D01*
X158687780Y-119764285D02*
X158725876Y-119783333D01*
X158725876Y-119783333D02*
X158744923Y-119802380D01*
X158744923Y-119802380D02*
X158763971Y-119840475D01*
X158763971Y-119840475D02*
X158763971Y-119992856D01*
X158592542Y-119611904D02*
X158573495Y-119592856D01*
X158573495Y-119592856D02*
X158554447Y-119554761D01*
X158554447Y-119554761D02*
X158554447Y-119459523D01*
X158554447Y-119459523D02*
X158573495Y-119421428D01*
X158573495Y-119421428D02*
X158592542Y-119402380D01*
X158592542Y-119402380D02*
X158630638Y-119383333D01*
X158630638Y-119383333D02*
X158668733Y-119383333D01*
X158668733Y-119383333D02*
X158725876Y-119402380D01*
X158725876Y-119402380D02*
X158954447Y-119630952D01*
X158954447Y-119630952D02*
X158954447Y-119383333D01*
X148596666Y-141687447D02*
X148596666Y-141973161D01*
X148596666Y-141973161D02*
X148577619Y-142030304D01*
X148577619Y-142030304D02*
X148539523Y-142068400D01*
X148539523Y-142068400D02*
X148482381Y-142087447D01*
X148482381Y-142087447D02*
X148444285Y-142087447D01*
X148749047Y-141687447D02*
X148996666Y-141687447D01*
X148996666Y-141687447D02*
X148863333Y-141839828D01*
X148863333Y-141839828D02*
X148920476Y-141839828D01*
X148920476Y-141839828D02*
X148958571Y-141858876D01*
X148958571Y-141858876D02*
X148977619Y-141877923D01*
X148977619Y-141877923D02*
X148996666Y-141916019D01*
X148996666Y-141916019D02*
X148996666Y-142011257D01*
X148996666Y-142011257D02*
X148977619Y-142049352D01*
X148977619Y-142049352D02*
X148958571Y-142068400D01*
X148958571Y-142068400D02*
X148920476Y-142087447D01*
X148920476Y-142087447D02*
X148806190Y-142087447D01*
X148806190Y-142087447D02*
X148768095Y-142068400D01*
X148768095Y-142068400D02*
X148749047Y-142049352D01*
X142781904Y-143670542D02*
X142743809Y-143651495D01*
X142743809Y-143651495D02*
X142705714Y-143613400D01*
X142705714Y-143613400D02*
X142648571Y-143556257D01*
X142648571Y-143556257D02*
X142610476Y-143537209D01*
X142610476Y-143537209D02*
X142572380Y-143537209D01*
X142591428Y-143632447D02*
X142553333Y-143613400D01*
X142553333Y-143613400D02*
X142515238Y-143575304D01*
X142515238Y-143575304D02*
X142496190Y-143499114D01*
X142496190Y-143499114D02*
X142496190Y-143365780D01*
X142496190Y-143365780D02*
X142515238Y-143289590D01*
X142515238Y-143289590D02*
X142553333Y-143251495D01*
X142553333Y-143251495D02*
X142591428Y-143232447D01*
X142591428Y-143232447D02*
X142667619Y-143232447D01*
X142667619Y-143232447D02*
X142705714Y-143251495D01*
X142705714Y-143251495D02*
X142743809Y-143289590D01*
X142743809Y-143289590D02*
X142762857Y-143365780D01*
X142762857Y-143365780D02*
X142762857Y-143499114D01*
X142762857Y-143499114D02*
X142743809Y-143575304D01*
X142743809Y-143575304D02*
X142705714Y-143613400D01*
X142705714Y-143613400D02*
X142667619Y-143632447D01*
X142667619Y-143632447D02*
X142591428Y-143632447D01*
X142915238Y-143270542D02*
X142934286Y-143251495D01*
X142934286Y-143251495D02*
X142972381Y-143232447D01*
X142972381Y-143232447D02*
X143067619Y-143232447D01*
X143067619Y-143232447D02*
X143105714Y-143251495D01*
X143105714Y-143251495D02*
X143124762Y-143270542D01*
X143124762Y-143270542D02*
X143143809Y-143308638D01*
X143143809Y-143308638D02*
X143143809Y-143346733D01*
X143143809Y-143346733D02*
X143124762Y-143403876D01*
X143124762Y-143403876D02*
X142896190Y-143632447D01*
X142896190Y-143632447D02*
X143143809Y-143632447D01*
X149662857Y-140494352D02*
X149643809Y-140513400D01*
X149643809Y-140513400D02*
X149586667Y-140532447D01*
X149586667Y-140532447D02*
X149548571Y-140532447D01*
X149548571Y-140532447D02*
X149491428Y-140513400D01*
X149491428Y-140513400D02*
X149453333Y-140475304D01*
X149453333Y-140475304D02*
X149434286Y-140437209D01*
X149434286Y-140437209D02*
X149415238Y-140361019D01*
X149415238Y-140361019D02*
X149415238Y-140303876D01*
X149415238Y-140303876D02*
X149434286Y-140227685D01*
X149434286Y-140227685D02*
X149453333Y-140189590D01*
X149453333Y-140189590D02*
X149491428Y-140151495D01*
X149491428Y-140151495D02*
X149548571Y-140132447D01*
X149548571Y-140132447D02*
X149586667Y-140132447D01*
X149586667Y-140132447D02*
X149643809Y-140151495D01*
X149643809Y-140151495D02*
X149662857Y-140170542D01*
X149815238Y-140170542D02*
X149834286Y-140151495D01*
X149834286Y-140151495D02*
X149872381Y-140132447D01*
X149872381Y-140132447D02*
X149967619Y-140132447D01*
X149967619Y-140132447D02*
X150005714Y-140151495D01*
X150005714Y-140151495D02*
X150024762Y-140170542D01*
X150024762Y-140170542D02*
X150043809Y-140208638D01*
X150043809Y-140208638D02*
X150043809Y-140246733D01*
X150043809Y-140246733D02*
X150024762Y-140303876D01*
X150024762Y-140303876D02*
X149796190Y-140532447D01*
X149796190Y-140532447D02*
X150043809Y-140532447D01*
X150291428Y-140132447D02*
X150329523Y-140132447D01*
X150329523Y-140132447D02*
X150367619Y-140151495D01*
X150367619Y-140151495D02*
X150386666Y-140170542D01*
X150386666Y-140170542D02*
X150405714Y-140208638D01*
X150405714Y-140208638D02*
X150424761Y-140284828D01*
X150424761Y-140284828D02*
X150424761Y-140380066D01*
X150424761Y-140380066D02*
X150405714Y-140456257D01*
X150405714Y-140456257D02*
X150386666Y-140494352D01*
X150386666Y-140494352D02*
X150367619Y-140513400D01*
X150367619Y-140513400D02*
X150329523Y-140532447D01*
X150329523Y-140532447D02*
X150291428Y-140532447D01*
X150291428Y-140532447D02*
X150253333Y-140513400D01*
X150253333Y-140513400D02*
X150234285Y-140494352D01*
X150234285Y-140494352D02*
X150215238Y-140456257D01*
X150215238Y-140456257D02*
X150196190Y-140380066D01*
X150196190Y-140380066D02*
X150196190Y-140284828D01*
X150196190Y-140284828D02*
X150215238Y-140208638D01*
X150215238Y-140208638D02*
X150234285Y-140170542D01*
X150234285Y-140170542D02*
X150253333Y-140151495D01*
X150253333Y-140151495D02*
X150291428Y-140132447D01*
X154262857Y-136694352D02*
X154243809Y-136713400D01*
X154243809Y-136713400D02*
X154186667Y-136732447D01*
X154186667Y-136732447D02*
X154148571Y-136732447D01*
X154148571Y-136732447D02*
X154091428Y-136713400D01*
X154091428Y-136713400D02*
X154053333Y-136675304D01*
X154053333Y-136675304D02*
X154034286Y-136637209D01*
X154034286Y-136637209D02*
X154015238Y-136561019D01*
X154015238Y-136561019D02*
X154015238Y-136503876D01*
X154015238Y-136503876D02*
X154034286Y-136427685D01*
X154034286Y-136427685D02*
X154053333Y-136389590D01*
X154053333Y-136389590D02*
X154091428Y-136351495D01*
X154091428Y-136351495D02*
X154148571Y-136332447D01*
X154148571Y-136332447D02*
X154186667Y-136332447D01*
X154186667Y-136332447D02*
X154243809Y-136351495D01*
X154243809Y-136351495D02*
X154262857Y-136370542D01*
X154643809Y-136732447D02*
X154415238Y-136732447D01*
X154529524Y-136732447D02*
X154529524Y-136332447D01*
X154529524Y-136332447D02*
X154491428Y-136389590D01*
X154491428Y-136389590D02*
X154453333Y-136427685D01*
X154453333Y-136427685D02*
X154415238Y-136446733D01*
X154891428Y-136332447D02*
X154929523Y-136332447D01*
X154929523Y-136332447D02*
X154967619Y-136351495D01*
X154967619Y-136351495D02*
X154986666Y-136370542D01*
X154986666Y-136370542D02*
X155005714Y-136408638D01*
X155005714Y-136408638D02*
X155024761Y-136484828D01*
X155024761Y-136484828D02*
X155024761Y-136580066D01*
X155024761Y-136580066D02*
X155005714Y-136656257D01*
X155005714Y-136656257D02*
X154986666Y-136694352D01*
X154986666Y-136694352D02*
X154967619Y-136713400D01*
X154967619Y-136713400D02*
X154929523Y-136732447D01*
X154929523Y-136732447D02*
X154891428Y-136732447D01*
X154891428Y-136732447D02*
X154853333Y-136713400D01*
X154853333Y-136713400D02*
X154834285Y-136694352D01*
X154834285Y-136694352D02*
X154815238Y-136656257D01*
X154815238Y-136656257D02*
X154796190Y-136580066D01*
X154796190Y-136580066D02*
X154796190Y-136484828D01*
X154796190Y-136484828D02*
X154815238Y-136408638D01*
X154815238Y-136408638D02*
X154834285Y-136370542D01*
X154834285Y-136370542D02*
X154853333Y-136351495D01*
X154853333Y-136351495D02*
X154891428Y-136332447D01*
X137912857Y-132394352D02*
X137893809Y-132413400D01*
X137893809Y-132413400D02*
X137836667Y-132432447D01*
X137836667Y-132432447D02*
X137798571Y-132432447D01*
X137798571Y-132432447D02*
X137741428Y-132413400D01*
X137741428Y-132413400D02*
X137703333Y-132375304D01*
X137703333Y-132375304D02*
X137684286Y-132337209D01*
X137684286Y-132337209D02*
X137665238Y-132261019D01*
X137665238Y-132261019D02*
X137665238Y-132203876D01*
X137665238Y-132203876D02*
X137684286Y-132127685D01*
X137684286Y-132127685D02*
X137703333Y-132089590D01*
X137703333Y-132089590D02*
X137741428Y-132051495D01*
X137741428Y-132051495D02*
X137798571Y-132032447D01*
X137798571Y-132032447D02*
X137836667Y-132032447D01*
X137836667Y-132032447D02*
X137893809Y-132051495D01*
X137893809Y-132051495D02*
X137912857Y-132070542D01*
X138293809Y-132432447D02*
X138065238Y-132432447D01*
X138179524Y-132432447D02*
X138179524Y-132032447D01*
X138179524Y-132032447D02*
X138141428Y-132089590D01*
X138141428Y-132089590D02*
X138103333Y-132127685D01*
X138103333Y-132127685D02*
X138065238Y-132146733D01*
X138655714Y-132032447D02*
X138465238Y-132032447D01*
X138465238Y-132032447D02*
X138446190Y-132222923D01*
X138446190Y-132222923D02*
X138465238Y-132203876D01*
X138465238Y-132203876D02*
X138503333Y-132184828D01*
X138503333Y-132184828D02*
X138598571Y-132184828D01*
X138598571Y-132184828D02*
X138636666Y-132203876D01*
X138636666Y-132203876D02*
X138655714Y-132222923D01*
X138655714Y-132222923D02*
X138674761Y-132261019D01*
X138674761Y-132261019D02*
X138674761Y-132356257D01*
X138674761Y-132356257D02*
X138655714Y-132394352D01*
X138655714Y-132394352D02*
X138636666Y-132413400D01*
X138636666Y-132413400D02*
X138598571Y-132432447D01*
X138598571Y-132432447D02*
X138503333Y-132432447D01*
X138503333Y-132432447D02*
X138465238Y-132413400D01*
X138465238Y-132413400D02*
X138446190Y-132394352D01*
X154664352Y-129216666D02*
X154683400Y-129235714D01*
X154683400Y-129235714D02*
X154702447Y-129292856D01*
X154702447Y-129292856D02*
X154702447Y-129330952D01*
X154702447Y-129330952D02*
X154683400Y-129388095D01*
X154683400Y-129388095D02*
X154645304Y-129426190D01*
X154645304Y-129426190D02*
X154607209Y-129445237D01*
X154607209Y-129445237D02*
X154531019Y-129464285D01*
X154531019Y-129464285D02*
X154473876Y-129464285D01*
X154473876Y-129464285D02*
X154397685Y-129445237D01*
X154397685Y-129445237D02*
X154359590Y-129426190D01*
X154359590Y-129426190D02*
X154321495Y-129388095D01*
X154321495Y-129388095D02*
X154302447Y-129330952D01*
X154302447Y-129330952D02*
X154302447Y-129292856D01*
X154302447Y-129292856D02*
X154321495Y-129235714D01*
X154321495Y-129235714D02*
X154340542Y-129216666D01*
X154302447Y-128854761D02*
X154302447Y-129045237D01*
X154302447Y-129045237D02*
X154492923Y-129064285D01*
X154492923Y-129064285D02*
X154473876Y-129045237D01*
X154473876Y-129045237D02*
X154454828Y-129007142D01*
X154454828Y-129007142D02*
X154454828Y-128911904D01*
X154454828Y-128911904D02*
X154473876Y-128873809D01*
X154473876Y-128873809D02*
X154492923Y-128854761D01*
X154492923Y-128854761D02*
X154531019Y-128835714D01*
X154531019Y-128835714D02*
X154626257Y-128835714D01*
X154626257Y-128835714D02*
X154664352Y-128854761D01*
X154664352Y-128854761D02*
X154683400Y-128873809D01*
X154683400Y-128873809D02*
X154702447Y-128911904D01*
X154702447Y-128911904D02*
X154702447Y-129007142D01*
X154702447Y-129007142D02*
X154683400Y-129045237D01*
X154683400Y-129045237D02*
X154664352Y-129064285D01*
X154962857Y-133094352D02*
X154943809Y-133113400D01*
X154943809Y-133113400D02*
X154886667Y-133132447D01*
X154886667Y-133132447D02*
X154848571Y-133132447D01*
X154848571Y-133132447D02*
X154791428Y-133113400D01*
X154791428Y-133113400D02*
X154753333Y-133075304D01*
X154753333Y-133075304D02*
X154734286Y-133037209D01*
X154734286Y-133037209D02*
X154715238Y-132961019D01*
X154715238Y-132961019D02*
X154715238Y-132903876D01*
X154715238Y-132903876D02*
X154734286Y-132827685D01*
X154734286Y-132827685D02*
X154753333Y-132789590D01*
X154753333Y-132789590D02*
X154791428Y-132751495D01*
X154791428Y-132751495D02*
X154848571Y-132732447D01*
X154848571Y-132732447D02*
X154886667Y-132732447D01*
X154886667Y-132732447D02*
X154943809Y-132751495D01*
X154943809Y-132751495D02*
X154962857Y-132770542D01*
X155115238Y-132770542D02*
X155134286Y-132751495D01*
X155134286Y-132751495D02*
X155172381Y-132732447D01*
X155172381Y-132732447D02*
X155267619Y-132732447D01*
X155267619Y-132732447D02*
X155305714Y-132751495D01*
X155305714Y-132751495D02*
X155324762Y-132770542D01*
X155324762Y-132770542D02*
X155343809Y-132808638D01*
X155343809Y-132808638D02*
X155343809Y-132846733D01*
X155343809Y-132846733D02*
X155324762Y-132903876D01*
X155324762Y-132903876D02*
X155096190Y-133132447D01*
X155096190Y-133132447D02*
X155343809Y-133132447D01*
X155496190Y-132770542D02*
X155515238Y-132751495D01*
X155515238Y-132751495D02*
X155553333Y-132732447D01*
X155553333Y-132732447D02*
X155648571Y-132732447D01*
X155648571Y-132732447D02*
X155686666Y-132751495D01*
X155686666Y-132751495D02*
X155705714Y-132770542D01*
X155705714Y-132770542D02*
X155724761Y-132808638D01*
X155724761Y-132808638D02*
X155724761Y-132846733D01*
X155724761Y-132846733D02*
X155705714Y-132903876D01*
X155705714Y-132903876D02*
X155477142Y-133132447D01*
X155477142Y-133132447D02*
X155724761Y-133132447D01*
X148153333Y-124982447D02*
X148020000Y-124791971D01*
X147924762Y-124982447D02*
X147924762Y-124582447D01*
X147924762Y-124582447D02*
X148077143Y-124582447D01*
X148077143Y-124582447D02*
X148115238Y-124601495D01*
X148115238Y-124601495D02*
X148134285Y-124620542D01*
X148134285Y-124620542D02*
X148153333Y-124658638D01*
X148153333Y-124658638D02*
X148153333Y-124715780D01*
X148153333Y-124715780D02*
X148134285Y-124753876D01*
X148134285Y-124753876D02*
X148115238Y-124772923D01*
X148115238Y-124772923D02*
X148077143Y-124791971D01*
X148077143Y-124791971D02*
X147924762Y-124791971D01*
X148496190Y-124715780D02*
X148496190Y-124982447D01*
X148400952Y-124563400D02*
X148305714Y-124849114D01*
X148305714Y-124849114D02*
X148553333Y-124849114D01*
X155654447Y-122654761D02*
X155654447Y-122426190D01*
X156054447Y-122540476D02*
X155654447Y-122540476D01*
X156054447Y-122292856D02*
X155654447Y-122292856D01*
X155654447Y-122292856D02*
X155654447Y-122140475D01*
X155654447Y-122140475D02*
X155673495Y-122102380D01*
X155673495Y-122102380D02*
X155692542Y-122083333D01*
X155692542Y-122083333D02*
X155730638Y-122064285D01*
X155730638Y-122064285D02*
X155787780Y-122064285D01*
X155787780Y-122064285D02*
X155825876Y-122083333D01*
X155825876Y-122083333D02*
X155844923Y-122102380D01*
X155844923Y-122102380D02*
X155863971Y-122140475D01*
X155863971Y-122140475D02*
X155863971Y-122292856D01*
X155654447Y-121930952D02*
X155654447Y-121683333D01*
X155654447Y-121683333D02*
X155806828Y-121816666D01*
X155806828Y-121816666D02*
X155806828Y-121759523D01*
X155806828Y-121759523D02*
X155825876Y-121721428D01*
X155825876Y-121721428D02*
X155844923Y-121702380D01*
X155844923Y-121702380D02*
X155883019Y-121683333D01*
X155883019Y-121683333D02*
X155978257Y-121683333D01*
X155978257Y-121683333D02*
X156016352Y-121702380D01*
X156016352Y-121702380D02*
X156035400Y-121721428D01*
X156035400Y-121721428D02*
X156054447Y-121759523D01*
X156054447Y-121759523D02*
X156054447Y-121873809D01*
X156054447Y-121873809D02*
X156035400Y-121911904D01*
X156035400Y-121911904D02*
X156016352Y-121930952D01*
X144362857Y-146132447D02*
X144229524Y-145941971D01*
X144134286Y-146132447D02*
X144134286Y-145732447D01*
X144134286Y-145732447D02*
X144286667Y-145732447D01*
X144286667Y-145732447D02*
X144324762Y-145751495D01*
X144324762Y-145751495D02*
X144343809Y-145770542D01*
X144343809Y-145770542D02*
X144362857Y-145808638D01*
X144362857Y-145808638D02*
X144362857Y-145865780D01*
X144362857Y-145865780D02*
X144343809Y-145903876D01*
X144343809Y-145903876D02*
X144324762Y-145922923D01*
X144324762Y-145922923D02*
X144286667Y-145941971D01*
X144286667Y-145941971D02*
X144134286Y-145941971D01*
X144743809Y-146132447D02*
X144515238Y-146132447D01*
X144629524Y-146132447D02*
X144629524Y-145732447D01*
X144629524Y-145732447D02*
X144591428Y-145789590D01*
X144591428Y-145789590D02*
X144553333Y-145827685D01*
X144553333Y-145827685D02*
X144515238Y-145846733D01*
X145086666Y-145865780D02*
X145086666Y-146132447D01*
X144991428Y-145713400D02*
X144896190Y-145999114D01*
X144896190Y-145999114D02*
X145143809Y-145999114D01*
X137090542Y-141500595D02*
X137071495Y-141538690D01*
X137071495Y-141538690D02*
X137033400Y-141576785D01*
X137033400Y-141576785D02*
X136976257Y-141633928D01*
X136976257Y-141633928D02*
X136957209Y-141672023D01*
X136957209Y-141672023D02*
X136957209Y-141710119D01*
X137052447Y-141691071D02*
X137033400Y-141729166D01*
X137033400Y-141729166D02*
X136995304Y-141767261D01*
X136995304Y-141767261D02*
X136919114Y-141786309D01*
X136919114Y-141786309D02*
X136785780Y-141786309D01*
X136785780Y-141786309D02*
X136709590Y-141767261D01*
X136709590Y-141767261D02*
X136671495Y-141729166D01*
X136671495Y-141729166D02*
X136652447Y-141691071D01*
X136652447Y-141691071D02*
X136652447Y-141614880D01*
X136652447Y-141614880D02*
X136671495Y-141576785D01*
X136671495Y-141576785D02*
X136709590Y-141538690D01*
X136709590Y-141538690D02*
X136785780Y-141519642D01*
X136785780Y-141519642D02*
X136919114Y-141519642D01*
X136919114Y-141519642D02*
X136995304Y-141538690D01*
X136995304Y-141538690D02*
X137033400Y-141576785D01*
X137033400Y-141576785D02*
X137052447Y-141614880D01*
X137052447Y-141614880D02*
X137052447Y-141691071D01*
X137052447Y-141138690D02*
X137052447Y-141367261D01*
X137052447Y-141252975D02*
X136652447Y-141252975D01*
X136652447Y-141252975D02*
X136709590Y-141291071D01*
X136709590Y-141291071D02*
X136747685Y-141329166D01*
X136747685Y-141329166D02*
X136766733Y-141367261D01*
X143802447Y-144507142D02*
X143611971Y-144640475D01*
X143802447Y-144735713D02*
X143402447Y-144735713D01*
X143402447Y-144735713D02*
X143402447Y-144583332D01*
X143402447Y-144583332D02*
X143421495Y-144545237D01*
X143421495Y-144545237D02*
X143440542Y-144526190D01*
X143440542Y-144526190D02*
X143478638Y-144507142D01*
X143478638Y-144507142D02*
X143535780Y-144507142D01*
X143535780Y-144507142D02*
X143573876Y-144526190D01*
X143573876Y-144526190D02*
X143592923Y-144545237D01*
X143592923Y-144545237D02*
X143611971Y-144583332D01*
X143611971Y-144583332D02*
X143611971Y-144735713D01*
X143802447Y-144126190D02*
X143802447Y-144354761D01*
X143802447Y-144240475D02*
X143402447Y-144240475D01*
X143402447Y-144240475D02*
X143459590Y-144278571D01*
X143459590Y-144278571D02*
X143497685Y-144316666D01*
X143497685Y-144316666D02*
X143516733Y-144354761D01*
X143402447Y-143992857D02*
X143402447Y-143745238D01*
X143402447Y-143745238D02*
X143554828Y-143878571D01*
X143554828Y-143878571D02*
X143554828Y-143821428D01*
X143554828Y-143821428D02*
X143573876Y-143783333D01*
X143573876Y-143783333D02*
X143592923Y-143764285D01*
X143592923Y-143764285D02*
X143631019Y-143745238D01*
X143631019Y-143745238D02*
X143726257Y-143745238D01*
X143726257Y-143745238D02*
X143764352Y-143764285D01*
X143764352Y-143764285D02*
X143783400Y-143783333D01*
X143783400Y-143783333D02*
X143802447Y-143821428D01*
X143802447Y-143821428D02*
X143802447Y-143935714D01*
X143802447Y-143935714D02*
X143783400Y-143973809D01*
X143783400Y-143973809D02*
X143764352Y-143992857D01*
X142964352Y-135407142D02*
X142983400Y-135426190D01*
X142983400Y-135426190D02*
X143002447Y-135483332D01*
X143002447Y-135483332D02*
X143002447Y-135521428D01*
X143002447Y-135521428D02*
X142983400Y-135578571D01*
X142983400Y-135578571D02*
X142945304Y-135616666D01*
X142945304Y-135616666D02*
X142907209Y-135635713D01*
X142907209Y-135635713D02*
X142831019Y-135654761D01*
X142831019Y-135654761D02*
X142773876Y-135654761D01*
X142773876Y-135654761D02*
X142697685Y-135635713D01*
X142697685Y-135635713D02*
X142659590Y-135616666D01*
X142659590Y-135616666D02*
X142621495Y-135578571D01*
X142621495Y-135578571D02*
X142602447Y-135521428D01*
X142602447Y-135521428D02*
X142602447Y-135483332D01*
X142602447Y-135483332D02*
X142621495Y-135426190D01*
X142621495Y-135426190D02*
X142640542Y-135407142D01*
X143002447Y-135026190D02*
X143002447Y-135254761D01*
X143002447Y-135140475D02*
X142602447Y-135140475D01*
X142602447Y-135140475D02*
X142659590Y-135178571D01*
X142659590Y-135178571D02*
X142697685Y-135216666D01*
X142697685Y-135216666D02*
X142716733Y-135254761D01*
X142735780Y-134683333D02*
X143002447Y-134683333D01*
X142583400Y-134778571D02*
X142869114Y-134873809D01*
X142869114Y-134873809D02*
X142869114Y-134626190D01*
X150453333Y-125022447D02*
X150320000Y-124831971D01*
X150224762Y-125022447D02*
X150224762Y-124622447D01*
X150224762Y-124622447D02*
X150377143Y-124622447D01*
X150377143Y-124622447D02*
X150415238Y-124641495D01*
X150415238Y-124641495D02*
X150434285Y-124660542D01*
X150434285Y-124660542D02*
X150453333Y-124698638D01*
X150453333Y-124698638D02*
X150453333Y-124755780D01*
X150453333Y-124755780D02*
X150434285Y-124793876D01*
X150434285Y-124793876D02*
X150415238Y-124812923D01*
X150415238Y-124812923D02*
X150377143Y-124831971D01*
X150377143Y-124831971D02*
X150224762Y-124831971D01*
X150586666Y-124622447D02*
X150834285Y-124622447D01*
X150834285Y-124622447D02*
X150700952Y-124774828D01*
X150700952Y-124774828D02*
X150758095Y-124774828D01*
X150758095Y-124774828D02*
X150796190Y-124793876D01*
X150796190Y-124793876D02*
X150815238Y-124812923D01*
X150815238Y-124812923D02*
X150834285Y-124851019D01*
X150834285Y-124851019D02*
X150834285Y-124946257D01*
X150834285Y-124946257D02*
X150815238Y-124984352D01*
X150815238Y-124984352D02*
X150796190Y-125003400D01*
X150796190Y-125003400D02*
X150758095Y-125022447D01*
X150758095Y-125022447D02*
X150643809Y-125022447D01*
X150643809Y-125022447D02*
X150605714Y-125003400D01*
X150605714Y-125003400D02*
X150586666Y-124984352D01*
X144362857Y-132194352D02*
X144343809Y-132213400D01*
X144343809Y-132213400D02*
X144286667Y-132232447D01*
X144286667Y-132232447D02*
X144248571Y-132232447D01*
X144248571Y-132232447D02*
X144191428Y-132213400D01*
X144191428Y-132213400D02*
X144153333Y-132175304D01*
X144153333Y-132175304D02*
X144134286Y-132137209D01*
X144134286Y-132137209D02*
X144115238Y-132061019D01*
X144115238Y-132061019D02*
X144115238Y-132003876D01*
X144115238Y-132003876D02*
X144134286Y-131927685D01*
X144134286Y-131927685D02*
X144153333Y-131889590D01*
X144153333Y-131889590D02*
X144191428Y-131851495D01*
X144191428Y-131851495D02*
X144248571Y-131832447D01*
X144248571Y-131832447D02*
X144286667Y-131832447D01*
X144286667Y-131832447D02*
X144343809Y-131851495D01*
X144343809Y-131851495D02*
X144362857Y-131870542D01*
X144743809Y-132232447D02*
X144515238Y-132232447D01*
X144629524Y-132232447D02*
X144629524Y-131832447D01*
X144629524Y-131832447D02*
X144591428Y-131889590D01*
X144591428Y-131889590D02*
X144553333Y-131927685D01*
X144553333Y-131927685D02*
X144515238Y-131946733D01*
X144877142Y-131832447D02*
X145124761Y-131832447D01*
X145124761Y-131832447D02*
X144991428Y-131984828D01*
X144991428Y-131984828D02*
X145048571Y-131984828D01*
X145048571Y-131984828D02*
X145086666Y-132003876D01*
X145086666Y-132003876D02*
X145105714Y-132022923D01*
X145105714Y-132022923D02*
X145124761Y-132061019D01*
X145124761Y-132061019D02*
X145124761Y-132156257D01*
X145124761Y-132156257D02*
X145105714Y-132194352D01*
X145105714Y-132194352D02*
X145086666Y-132213400D01*
X145086666Y-132213400D02*
X145048571Y-132232447D01*
X145048571Y-132232447D02*
X144934285Y-132232447D01*
X144934285Y-132232447D02*
X144896190Y-132213400D01*
X144896190Y-132213400D02*
X144877142Y-132194352D01*
X155364352Y-132016666D02*
X155383400Y-132035714D01*
X155383400Y-132035714D02*
X155402447Y-132092856D01*
X155402447Y-132092856D02*
X155402447Y-132130952D01*
X155402447Y-132130952D02*
X155383400Y-132188095D01*
X155383400Y-132188095D02*
X155345304Y-132226190D01*
X155345304Y-132226190D02*
X155307209Y-132245237D01*
X155307209Y-132245237D02*
X155231019Y-132264285D01*
X155231019Y-132264285D02*
X155173876Y-132264285D01*
X155173876Y-132264285D02*
X155097685Y-132245237D01*
X155097685Y-132245237D02*
X155059590Y-132226190D01*
X155059590Y-132226190D02*
X155021495Y-132188095D01*
X155021495Y-132188095D02*
X155002447Y-132130952D01*
X155002447Y-132130952D02*
X155002447Y-132092856D01*
X155002447Y-132092856D02*
X155021495Y-132035714D01*
X155021495Y-132035714D02*
X155040542Y-132016666D01*
X155402447Y-131826190D02*
X155402447Y-131749999D01*
X155402447Y-131749999D02*
X155383400Y-131711904D01*
X155383400Y-131711904D02*
X155364352Y-131692856D01*
X155364352Y-131692856D02*
X155307209Y-131654761D01*
X155307209Y-131654761D02*
X155231019Y-131635714D01*
X155231019Y-131635714D02*
X155078638Y-131635714D01*
X155078638Y-131635714D02*
X155040542Y-131654761D01*
X155040542Y-131654761D02*
X155021495Y-131673809D01*
X155021495Y-131673809D02*
X155002447Y-131711904D01*
X155002447Y-131711904D02*
X155002447Y-131788095D01*
X155002447Y-131788095D02*
X155021495Y-131826190D01*
X155021495Y-131826190D02*
X155040542Y-131845237D01*
X155040542Y-131845237D02*
X155078638Y-131864285D01*
X155078638Y-131864285D02*
X155173876Y-131864285D01*
X155173876Y-131864285D02*
X155211971Y-131845237D01*
X155211971Y-131845237D02*
X155231019Y-131826190D01*
X155231019Y-131826190D02*
X155250066Y-131788095D01*
X155250066Y-131788095D02*
X155250066Y-131711904D01*
X155250066Y-131711904D02*
X155231019Y-131673809D01*
X155231019Y-131673809D02*
X155211971Y-131654761D01*
X155211971Y-131654761D02*
X155173876Y-131635714D01*
X138453333Y-140802447D02*
X138320000Y-140611971D01*
X138224762Y-140802447D02*
X138224762Y-140402447D01*
X138224762Y-140402447D02*
X138377143Y-140402447D01*
X138377143Y-140402447D02*
X138415238Y-140421495D01*
X138415238Y-140421495D02*
X138434285Y-140440542D01*
X138434285Y-140440542D02*
X138453333Y-140478638D01*
X138453333Y-140478638D02*
X138453333Y-140535780D01*
X138453333Y-140535780D02*
X138434285Y-140573876D01*
X138434285Y-140573876D02*
X138415238Y-140592923D01*
X138415238Y-140592923D02*
X138377143Y-140611971D01*
X138377143Y-140611971D02*
X138224762Y-140611971D01*
X138586666Y-140402447D02*
X138853333Y-140402447D01*
X138853333Y-140402447D02*
X138681904Y-140802447D01*
X144362857Y-147132447D02*
X144229524Y-146941971D01*
X144134286Y-147132447D02*
X144134286Y-146732447D01*
X144134286Y-146732447D02*
X144286667Y-146732447D01*
X144286667Y-146732447D02*
X144324762Y-146751495D01*
X144324762Y-146751495D02*
X144343809Y-146770542D01*
X144343809Y-146770542D02*
X144362857Y-146808638D01*
X144362857Y-146808638D02*
X144362857Y-146865780D01*
X144362857Y-146865780D02*
X144343809Y-146903876D01*
X144343809Y-146903876D02*
X144324762Y-146922923D01*
X144324762Y-146922923D02*
X144286667Y-146941971D01*
X144286667Y-146941971D02*
X144134286Y-146941971D01*
X144743809Y-147132447D02*
X144515238Y-147132447D01*
X144629524Y-147132447D02*
X144629524Y-146732447D01*
X144629524Y-146732447D02*
X144591428Y-146789590D01*
X144591428Y-146789590D02*
X144553333Y-146827685D01*
X144553333Y-146827685D02*
X144515238Y-146846733D01*
X145124761Y-147132447D02*
X144896190Y-147132447D01*
X145010476Y-147132447D02*
X145010476Y-146732447D01*
X145010476Y-146732447D02*
X144972380Y-146789590D01*
X144972380Y-146789590D02*
X144934285Y-146827685D01*
X144934285Y-146827685D02*
X144896190Y-146846733D01*
X157364352Y-130207142D02*
X157383400Y-130226190D01*
X157383400Y-130226190D02*
X157402447Y-130283332D01*
X157402447Y-130283332D02*
X157402447Y-130321428D01*
X157402447Y-130321428D02*
X157383400Y-130378571D01*
X157383400Y-130378571D02*
X157345304Y-130416666D01*
X157345304Y-130416666D02*
X157307209Y-130435713D01*
X157307209Y-130435713D02*
X157231019Y-130454761D01*
X157231019Y-130454761D02*
X157173876Y-130454761D01*
X157173876Y-130454761D02*
X157097685Y-130435713D01*
X157097685Y-130435713D02*
X157059590Y-130416666D01*
X157059590Y-130416666D02*
X157021495Y-130378571D01*
X157021495Y-130378571D02*
X157002447Y-130321428D01*
X157002447Y-130321428D02*
X157002447Y-130283332D01*
X157002447Y-130283332D02*
X157021495Y-130226190D01*
X157021495Y-130226190D02*
X157040542Y-130207142D01*
X157402447Y-129826190D02*
X157402447Y-130054761D01*
X157402447Y-129940475D02*
X157002447Y-129940475D01*
X157002447Y-129940475D02*
X157059590Y-129978571D01*
X157059590Y-129978571D02*
X157097685Y-130016666D01*
X157097685Y-130016666D02*
X157116733Y-130054761D01*
X157402447Y-129445238D02*
X157402447Y-129673809D01*
X157402447Y-129559523D02*
X157002447Y-129559523D01*
X157002447Y-129559523D02*
X157059590Y-129597619D01*
X157059590Y-129597619D02*
X157097685Y-129635714D01*
X157097685Y-129635714D02*
X157116733Y-129673809D01*
X158364352Y-130107142D02*
X158383400Y-130126190D01*
X158383400Y-130126190D02*
X158402447Y-130183332D01*
X158402447Y-130183332D02*
X158402447Y-130221428D01*
X158402447Y-130221428D02*
X158383400Y-130278571D01*
X158383400Y-130278571D02*
X158345304Y-130316666D01*
X158345304Y-130316666D02*
X158307209Y-130335713D01*
X158307209Y-130335713D02*
X158231019Y-130354761D01*
X158231019Y-130354761D02*
X158173876Y-130354761D01*
X158173876Y-130354761D02*
X158097685Y-130335713D01*
X158097685Y-130335713D02*
X158059590Y-130316666D01*
X158059590Y-130316666D02*
X158021495Y-130278571D01*
X158021495Y-130278571D02*
X158002447Y-130221428D01*
X158002447Y-130221428D02*
X158002447Y-130183332D01*
X158002447Y-130183332D02*
X158021495Y-130126190D01*
X158021495Y-130126190D02*
X158040542Y-130107142D01*
X158402447Y-129726190D02*
X158402447Y-129954761D01*
X158402447Y-129840475D02*
X158002447Y-129840475D01*
X158002447Y-129840475D02*
X158059590Y-129878571D01*
X158059590Y-129878571D02*
X158097685Y-129916666D01*
X158097685Y-129916666D02*
X158116733Y-129954761D01*
X158040542Y-129573809D02*
X158021495Y-129554761D01*
X158021495Y-129554761D02*
X158002447Y-129516666D01*
X158002447Y-129516666D02*
X158002447Y-129421428D01*
X158002447Y-129421428D02*
X158021495Y-129383333D01*
X158021495Y-129383333D02*
X158040542Y-129364285D01*
X158040542Y-129364285D02*
X158078638Y-129345238D01*
X158078638Y-129345238D02*
X158116733Y-129345238D01*
X158116733Y-129345238D02*
X158173876Y-129364285D01*
X158173876Y-129364285D02*
X158402447Y-129592857D01*
X158402447Y-129592857D02*
X158402447Y-129345238D01*
X147594352Y-143707142D02*
X147613400Y-143726190D01*
X147613400Y-143726190D02*
X147632447Y-143783332D01*
X147632447Y-143783332D02*
X147632447Y-143821428D01*
X147632447Y-143821428D02*
X147613400Y-143878571D01*
X147613400Y-143878571D02*
X147575304Y-143916666D01*
X147575304Y-143916666D02*
X147537209Y-143935713D01*
X147537209Y-143935713D02*
X147461019Y-143954761D01*
X147461019Y-143954761D02*
X147403876Y-143954761D01*
X147403876Y-143954761D02*
X147327685Y-143935713D01*
X147327685Y-143935713D02*
X147289590Y-143916666D01*
X147289590Y-143916666D02*
X147251495Y-143878571D01*
X147251495Y-143878571D02*
X147232447Y-143821428D01*
X147232447Y-143821428D02*
X147232447Y-143783332D01*
X147232447Y-143783332D02*
X147251495Y-143726190D01*
X147251495Y-143726190D02*
X147270542Y-143707142D01*
X147270542Y-143554761D02*
X147251495Y-143535713D01*
X147251495Y-143535713D02*
X147232447Y-143497618D01*
X147232447Y-143497618D02*
X147232447Y-143402380D01*
X147232447Y-143402380D02*
X147251495Y-143364285D01*
X147251495Y-143364285D02*
X147270542Y-143345237D01*
X147270542Y-143345237D02*
X147308638Y-143326190D01*
X147308638Y-143326190D02*
X147346733Y-143326190D01*
X147346733Y-143326190D02*
X147403876Y-143345237D01*
X147403876Y-143345237D02*
X147632447Y-143573809D01*
X147632447Y-143573809D02*
X147632447Y-143326190D01*
X147365780Y-142983333D02*
X147632447Y-142983333D01*
X147213400Y-143078571D02*
X147499114Y-143173809D01*
X147499114Y-143173809D02*
X147499114Y-142926190D01*
X143562857Y-129194352D02*
X143543809Y-129213400D01*
X143543809Y-129213400D02*
X143486667Y-129232447D01*
X143486667Y-129232447D02*
X143448571Y-129232447D01*
X143448571Y-129232447D02*
X143391428Y-129213400D01*
X143391428Y-129213400D02*
X143353333Y-129175304D01*
X143353333Y-129175304D02*
X143334286Y-129137209D01*
X143334286Y-129137209D02*
X143315238Y-129061019D01*
X143315238Y-129061019D02*
X143315238Y-129003876D01*
X143315238Y-129003876D02*
X143334286Y-128927685D01*
X143334286Y-128927685D02*
X143353333Y-128889590D01*
X143353333Y-128889590D02*
X143391428Y-128851495D01*
X143391428Y-128851495D02*
X143448571Y-128832447D01*
X143448571Y-128832447D02*
X143486667Y-128832447D01*
X143486667Y-128832447D02*
X143543809Y-128851495D01*
X143543809Y-128851495D02*
X143562857Y-128870542D01*
X143715238Y-128870542D02*
X143734286Y-128851495D01*
X143734286Y-128851495D02*
X143772381Y-128832447D01*
X143772381Y-128832447D02*
X143867619Y-128832447D01*
X143867619Y-128832447D02*
X143905714Y-128851495D01*
X143905714Y-128851495D02*
X143924762Y-128870542D01*
X143924762Y-128870542D02*
X143943809Y-128908638D01*
X143943809Y-128908638D02*
X143943809Y-128946733D01*
X143943809Y-128946733D02*
X143924762Y-129003876D01*
X143924762Y-129003876D02*
X143696190Y-129232447D01*
X143696190Y-129232447D02*
X143943809Y-129232447D01*
X144324761Y-129232447D02*
X144096190Y-129232447D01*
X144210476Y-129232447D02*
X144210476Y-128832447D01*
X144210476Y-128832447D02*
X144172380Y-128889590D01*
X144172380Y-128889590D02*
X144134285Y-128927685D01*
X144134285Y-128927685D02*
X144096190Y-128946733D01*
X140702447Y-140516666D02*
X140511971Y-140649999D01*
X140702447Y-140745237D02*
X140302447Y-140745237D01*
X140302447Y-140745237D02*
X140302447Y-140592856D01*
X140302447Y-140592856D02*
X140321495Y-140554761D01*
X140321495Y-140554761D02*
X140340542Y-140535714D01*
X140340542Y-140535714D02*
X140378638Y-140516666D01*
X140378638Y-140516666D02*
X140435780Y-140516666D01*
X140435780Y-140516666D02*
X140473876Y-140535714D01*
X140473876Y-140535714D02*
X140492923Y-140554761D01*
X140492923Y-140554761D02*
X140511971Y-140592856D01*
X140511971Y-140592856D02*
X140511971Y-140745237D01*
X140302447Y-140154761D02*
X140302447Y-140345237D01*
X140302447Y-140345237D02*
X140492923Y-140364285D01*
X140492923Y-140364285D02*
X140473876Y-140345237D01*
X140473876Y-140345237D02*
X140454828Y-140307142D01*
X140454828Y-140307142D02*
X140454828Y-140211904D01*
X140454828Y-140211904D02*
X140473876Y-140173809D01*
X140473876Y-140173809D02*
X140492923Y-140154761D01*
X140492923Y-140154761D02*
X140531019Y-140135714D01*
X140531019Y-140135714D02*
X140626257Y-140135714D01*
X140626257Y-140135714D02*
X140664352Y-140154761D01*
X140664352Y-140154761D02*
X140683400Y-140173809D01*
X140683400Y-140173809D02*
X140702447Y-140211904D01*
X140702447Y-140211904D02*
X140702447Y-140307142D01*
X140702447Y-140307142D02*
X140683400Y-140345237D01*
X140683400Y-140345237D02*
X140664352Y-140364285D01*
X138964352Y-121307142D02*
X138983400Y-121326190D01*
X138983400Y-121326190D02*
X139002447Y-121383332D01*
X139002447Y-121383332D02*
X139002447Y-121421428D01*
X139002447Y-121421428D02*
X138983400Y-121478571D01*
X138983400Y-121478571D02*
X138945304Y-121516666D01*
X138945304Y-121516666D02*
X138907209Y-121535713D01*
X138907209Y-121535713D02*
X138831019Y-121554761D01*
X138831019Y-121554761D02*
X138773876Y-121554761D01*
X138773876Y-121554761D02*
X138697685Y-121535713D01*
X138697685Y-121535713D02*
X138659590Y-121516666D01*
X138659590Y-121516666D02*
X138621495Y-121478571D01*
X138621495Y-121478571D02*
X138602447Y-121421428D01*
X138602447Y-121421428D02*
X138602447Y-121383332D01*
X138602447Y-121383332D02*
X138621495Y-121326190D01*
X138621495Y-121326190D02*
X138640542Y-121307142D01*
X139002447Y-120926190D02*
X139002447Y-121154761D01*
X139002447Y-121040475D02*
X138602447Y-121040475D01*
X138602447Y-121040475D02*
X138659590Y-121078571D01*
X138659590Y-121078571D02*
X138697685Y-121116666D01*
X138697685Y-121116666D02*
X138716733Y-121154761D01*
X139002447Y-120735714D02*
X139002447Y-120659523D01*
X139002447Y-120659523D02*
X138983400Y-120621428D01*
X138983400Y-120621428D02*
X138964352Y-120602380D01*
X138964352Y-120602380D02*
X138907209Y-120564285D01*
X138907209Y-120564285D02*
X138831019Y-120545238D01*
X138831019Y-120545238D02*
X138678638Y-120545238D01*
X138678638Y-120545238D02*
X138640542Y-120564285D01*
X138640542Y-120564285D02*
X138621495Y-120583333D01*
X138621495Y-120583333D02*
X138602447Y-120621428D01*
X138602447Y-120621428D02*
X138602447Y-120697619D01*
X138602447Y-120697619D02*
X138621495Y-120735714D01*
X138621495Y-120735714D02*
X138640542Y-120754761D01*
X138640542Y-120754761D02*
X138678638Y-120773809D01*
X138678638Y-120773809D02*
X138773876Y-120773809D01*
X138773876Y-120773809D02*
X138811971Y-120754761D01*
X138811971Y-120754761D02*
X138831019Y-120735714D01*
X138831019Y-120735714D02*
X138850066Y-120697619D01*
X138850066Y-120697619D02*
X138850066Y-120621428D01*
X138850066Y-120621428D02*
X138831019Y-120583333D01*
X138831019Y-120583333D02*
X138811971Y-120564285D01*
X138811971Y-120564285D02*
X138773876Y-120545238D01*
X145503333Y-140232447D02*
X145370000Y-140041971D01*
X145274762Y-140232447D02*
X145274762Y-139832447D01*
X145274762Y-139832447D02*
X145427143Y-139832447D01*
X145427143Y-139832447D02*
X145465238Y-139851495D01*
X145465238Y-139851495D02*
X145484285Y-139870542D01*
X145484285Y-139870542D02*
X145503333Y-139908638D01*
X145503333Y-139908638D02*
X145503333Y-139965780D01*
X145503333Y-139965780D02*
X145484285Y-140003876D01*
X145484285Y-140003876D02*
X145465238Y-140022923D01*
X145465238Y-140022923D02*
X145427143Y-140041971D01*
X145427143Y-140041971D02*
X145274762Y-140041971D01*
X145731904Y-140003876D02*
X145693809Y-139984828D01*
X145693809Y-139984828D02*
X145674762Y-139965780D01*
X145674762Y-139965780D02*
X145655714Y-139927685D01*
X145655714Y-139927685D02*
X145655714Y-139908638D01*
X145655714Y-139908638D02*
X145674762Y-139870542D01*
X145674762Y-139870542D02*
X145693809Y-139851495D01*
X145693809Y-139851495D02*
X145731904Y-139832447D01*
X145731904Y-139832447D02*
X145808095Y-139832447D01*
X145808095Y-139832447D02*
X145846190Y-139851495D01*
X145846190Y-139851495D02*
X145865238Y-139870542D01*
X145865238Y-139870542D02*
X145884285Y-139908638D01*
X145884285Y-139908638D02*
X145884285Y-139927685D01*
X145884285Y-139927685D02*
X145865238Y-139965780D01*
X145865238Y-139965780D02*
X145846190Y-139984828D01*
X145846190Y-139984828D02*
X145808095Y-140003876D01*
X145808095Y-140003876D02*
X145731904Y-140003876D01*
X145731904Y-140003876D02*
X145693809Y-140022923D01*
X145693809Y-140022923D02*
X145674762Y-140041971D01*
X145674762Y-140041971D02*
X145655714Y-140080066D01*
X145655714Y-140080066D02*
X145655714Y-140156257D01*
X145655714Y-140156257D02*
X145674762Y-140194352D01*
X145674762Y-140194352D02*
X145693809Y-140213400D01*
X145693809Y-140213400D02*
X145731904Y-140232447D01*
X145731904Y-140232447D02*
X145808095Y-140232447D01*
X145808095Y-140232447D02*
X145846190Y-140213400D01*
X145846190Y-140213400D02*
X145865238Y-140194352D01*
X145865238Y-140194352D02*
X145884285Y-140156257D01*
X145884285Y-140156257D02*
X145884285Y-140080066D01*
X145884285Y-140080066D02*
X145865238Y-140041971D01*
X145865238Y-140041971D02*
X145846190Y-140022923D01*
X145846190Y-140022923D02*
X145808095Y-140003876D01*
X155053333Y-125343347D02*
X154862857Y-125343347D01*
X154862857Y-125343347D02*
X154862857Y-124943347D01*
X155396190Y-125343347D02*
X155167619Y-125343347D01*
X155281905Y-125343347D02*
X155281905Y-124943347D01*
X155281905Y-124943347D02*
X155243809Y-125000490D01*
X155243809Y-125000490D02*
X155205714Y-125038585D01*
X155205714Y-125038585D02*
X155167619Y-125057633D01*
X138602447Y-124854761D02*
X138926257Y-124854761D01*
X138926257Y-124854761D02*
X138964352Y-124835714D01*
X138964352Y-124835714D02*
X138983400Y-124816666D01*
X138983400Y-124816666D02*
X139002447Y-124778571D01*
X139002447Y-124778571D02*
X139002447Y-124702380D01*
X139002447Y-124702380D02*
X138983400Y-124664285D01*
X138983400Y-124664285D02*
X138964352Y-124645238D01*
X138964352Y-124645238D02*
X138926257Y-124626190D01*
X138926257Y-124626190D02*
X138602447Y-124626190D01*
X138735780Y-124264285D02*
X139002447Y-124264285D01*
X138583400Y-124359523D02*
X138869114Y-124454761D01*
X138869114Y-124454761D02*
X138869114Y-124207142D01*
X151453333Y-128494352D02*
X151434285Y-128513400D01*
X151434285Y-128513400D02*
X151377143Y-128532447D01*
X151377143Y-128532447D02*
X151339047Y-128532447D01*
X151339047Y-128532447D02*
X151281904Y-128513400D01*
X151281904Y-128513400D02*
X151243809Y-128475304D01*
X151243809Y-128475304D02*
X151224762Y-128437209D01*
X151224762Y-128437209D02*
X151205714Y-128361019D01*
X151205714Y-128361019D02*
X151205714Y-128303876D01*
X151205714Y-128303876D02*
X151224762Y-128227685D01*
X151224762Y-128227685D02*
X151243809Y-128189590D01*
X151243809Y-128189590D02*
X151281904Y-128151495D01*
X151281904Y-128151495D02*
X151339047Y-128132447D01*
X151339047Y-128132447D02*
X151377143Y-128132447D01*
X151377143Y-128132447D02*
X151434285Y-128151495D01*
X151434285Y-128151495D02*
X151453333Y-128170542D01*
X151834285Y-128532447D02*
X151605714Y-128532447D01*
X151720000Y-128532447D02*
X151720000Y-128132447D01*
X151720000Y-128132447D02*
X151681904Y-128189590D01*
X151681904Y-128189590D02*
X151643809Y-128227685D01*
X151643809Y-128227685D02*
X151605714Y-128246733D01*
X156353333Y-128894352D02*
X156334285Y-128913400D01*
X156334285Y-128913400D02*
X156277143Y-128932447D01*
X156277143Y-128932447D02*
X156239047Y-128932447D01*
X156239047Y-128932447D02*
X156181904Y-128913400D01*
X156181904Y-128913400D02*
X156143809Y-128875304D01*
X156143809Y-128875304D02*
X156124762Y-128837209D01*
X156124762Y-128837209D02*
X156105714Y-128761019D01*
X156105714Y-128761019D02*
X156105714Y-128703876D01*
X156105714Y-128703876D02*
X156124762Y-128627685D01*
X156124762Y-128627685D02*
X156143809Y-128589590D01*
X156143809Y-128589590D02*
X156181904Y-128551495D01*
X156181904Y-128551495D02*
X156239047Y-128532447D01*
X156239047Y-128532447D02*
X156277143Y-128532447D01*
X156277143Y-128532447D02*
X156334285Y-128551495D01*
X156334285Y-128551495D02*
X156353333Y-128570542D01*
X156581904Y-128703876D02*
X156543809Y-128684828D01*
X156543809Y-128684828D02*
X156524762Y-128665780D01*
X156524762Y-128665780D02*
X156505714Y-128627685D01*
X156505714Y-128627685D02*
X156505714Y-128608638D01*
X156505714Y-128608638D02*
X156524762Y-128570542D01*
X156524762Y-128570542D02*
X156543809Y-128551495D01*
X156543809Y-128551495D02*
X156581904Y-128532447D01*
X156581904Y-128532447D02*
X156658095Y-128532447D01*
X156658095Y-128532447D02*
X156696190Y-128551495D01*
X156696190Y-128551495D02*
X156715238Y-128570542D01*
X156715238Y-128570542D02*
X156734285Y-128608638D01*
X156734285Y-128608638D02*
X156734285Y-128627685D01*
X156734285Y-128627685D02*
X156715238Y-128665780D01*
X156715238Y-128665780D02*
X156696190Y-128684828D01*
X156696190Y-128684828D02*
X156658095Y-128703876D01*
X156658095Y-128703876D02*
X156581904Y-128703876D01*
X156581904Y-128703876D02*
X156543809Y-128722923D01*
X156543809Y-128722923D02*
X156524762Y-128741971D01*
X156524762Y-128741971D02*
X156505714Y-128780066D01*
X156505714Y-128780066D02*
X156505714Y-128856257D01*
X156505714Y-128856257D02*
X156524762Y-128894352D01*
X156524762Y-128894352D02*
X156543809Y-128913400D01*
X156543809Y-128913400D02*
X156581904Y-128932447D01*
X156581904Y-128932447D02*
X156658095Y-128932447D01*
X156658095Y-128932447D02*
X156696190Y-128913400D01*
X156696190Y-128913400D02*
X156715238Y-128894352D01*
X156715238Y-128894352D02*
X156734285Y-128856257D01*
X156734285Y-128856257D02*
X156734285Y-128780066D01*
X156734285Y-128780066D02*
X156715238Y-128741971D01*
X156715238Y-128741971D02*
X156696190Y-128722923D01*
X156696190Y-128722923D02*
X156658095Y-128703876D01*
X147594352Y-144716666D02*
X147613400Y-144735714D01*
X147613400Y-144735714D02*
X147632447Y-144792856D01*
X147632447Y-144792856D02*
X147632447Y-144830952D01*
X147632447Y-144830952D02*
X147613400Y-144888095D01*
X147613400Y-144888095D02*
X147575304Y-144926190D01*
X147575304Y-144926190D02*
X147537209Y-144945237D01*
X147537209Y-144945237D02*
X147461019Y-144964285D01*
X147461019Y-144964285D02*
X147403876Y-144964285D01*
X147403876Y-144964285D02*
X147327685Y-144945237D01*
X147327685Y-144945237D02*
X147289590Y-144926190D01*
X147289590Y-144926190D02*
X147251495Y-144888095D01*
X147251495Y-144888095D02*
X147232447Y-144830952D01*
X147232447Y-144830952D02*
X147232447Y-144792856D01*
X147232447Y-144792856D02*
X147251495Y-144735714D01*
X147251495Y-144735714D02*
X147270542Y-144716666D01*
X147232447Y-144373809D02*
X147232447Y-144449999D01*
X147232447Y-144449999D02*
X147251495Y-144488095D01*
X147251495Y-144488095D02*
X147270542Y-144507142D01*
X147270542Y-144507142D02*
X147327685Y-144545237D01*
X147327685Y-144545237D02*
X147403876Y-144564285D01*
X147403876Y-144564285D02*
X147556257Y-144564285D01*
X147556257Y-144564285D02*
X147594352Y-144545237D01*
X147594352Y-144545237D02*
X147613400Y-144526190D01*
X147613400Y-144526190D02*
X147632447Y-144488095D01*
X147632447Y-144488095D02*
X147632447Y-144411904D01*
X147632447Y-144411904D02*
X147613400Y-144373809D01*
X147613400Y-144373809D02*
X147594352Y-144354761D01*
X147594352Y-144354761D02*
X147556257Y-144335714D01*
X147556257Y-144335714D02*
X147461019Y-144335714D01*
X147461019Y-144335714D02*
X147422923Y-144354761D01*
X147422923Y-144354761D02*
X147403876Y-144373809D01*
X147403876Y-144373809D02*
X147384828Y-144411904D01*
X147384828Y-144411904D02*
X147384828Y-144488095D01*
X147384828Y-144488095D02*
X147403876Y-144526190D01*
X147403876Y-144526190D02*
X147422923Y-144545237D01*
X147422923Y-144545237D02*
X147461019Y-144564285D01*
X146252447Y-141707142D02*
X146061971Y-141840475D01*
X146252447Y-141935713D02*
X145852447Y-141935713D01*
X145852447Y-141935713D02*
X145852447Y-141783332D01*
X145852447Y-141783332D02*
X145871495Y-141745237D01*
X145871495Y-141745237D02*
X145890542Y-141726190D01*
X145890542Y-141726190D02*
X145928638Y-141707142D01*
X145928638Y-141707142D02*
X145985780Y-141707142D01*
X145985780Y-141707142D02*
X146023876Y-141726190D01*
X146023876Y-141726190D02*
X146042923Y-141745237D01*
X146042923Y-141745237D02*
X146061971Y-141783332D01*
X146061971Y-141783332D02*
X146061971Y-141935713D01*
X146252447Y-141326190D02*
X146252447Y-141554761D01*
X146252447Y-141440475D02*
X145852447Y-141440475D01*
X145852447Y-141440475D02*
X145909590Y-141478571D01*
X145909590Y-141478571D02*
X145947685Y-141516666D01*
X145947685Y-141516666D02*
X145966733Y-141554761D01*
X145890542Y-141173809D02*
X145871495Y-141154761D01*
X145871495Y-141154761D02*
X145852447Y-141116666D01*
X145852447Y-141116666D02*
X145852447Y-141021428D01*
X145852447Y-141021428D02*
X145871495Y-140983333D01*
X145871495Y-140983333D02*
X145890542Y-140964285D01*
X145890542Y-140964285D02*
X145928638Y-140945238D01*
X145928638Y-140945238D02*
X145966733Y-140945238D01*
X145966733Y-140945238D02*
X146023876Y-140964285D01*
X146023876Y-140964285D02*
X146252447Y-141192857D01*
X146252447Y-141192857D02*
X146252447Y-140945238D01*
X156364352Y-135007142D02*
X156383400Y-135026190D01*
X156383400Y-135026190D02*
X156402447Y-135083332D01*
X156402447Y-135083332D02*
X156402447Y-135121428D01*
X156402447Y-135121428D02*
X156383400Y-135178571D01*
X156383400Y-135178571D02*
X156345304Y-135216666D01*
X156345304Y-135216666D02*
X156307209Y-135235713D01*
X156307209Y-135235713D02*
X156231019Y-135254761D01*
X156231019Y-135254761D02*
X156173876Y-135254761D01*
X156173876Y-135254761D02*
X156097685Y-135235713D01*
X156097685Y-135235713D02*
X156059590Y-135216666D01*
X156059590Y-135216666D02*
X156021495Y-135178571D01*
X156021495Y-135178571D02*
X156002447Y-135121428D01*
X156002447Y-135121428D02*
X156002447Y-135083332D01*
X156002447Y-135083332D02*
X156021495Y-135026190D01*
X156021495Y-135026190D02*
X156040542Y-135007142D01*
X156402447Y-134626190D02*
X156402447Y-134854761D01*
X156402447Y-134740475D02*
X156002447Y-134740475D01*
X156002447Y-134740475D02*
X156059590Y-134778571D01*
X156059590Y-134778571D02*
X156097685Y-134816666D01*
X156097685Y-134816666D02*
X156116733Y-134854761D01*
X156173876Y-134397619D02*
X156154828Y-134435714D01*
X156154828Y-134435714D02*
X156135780Y-134454761D01*
X156135780Y-134454761D02*
X156097685Y-134473809D01*
X156097685Y-134473809D02*
X156078638Y-134473809D01*
X156078638Y-134473809D02*
X156040542Y-134454761D01*
X156040542Y-134454761D02*
X156021495Y-134435714D01*
X156021495Y-134435714D02*
X156002447Y-134397619D01*
X156002447Y-134397619D02*
X156002447Y-134321428D01*
X156002447Y-134321428D02*
X156021495Y-134283333D01*
X156021495Y-134283333D02*
X156040542Y-134264285D01*
X156040542Y-134264285D02*
X156078638Y-134245238D01*
X156078638Y-134245238D02*
X156097685Y-134245238D01*
X156097685Y-134245238D02*
X156135780Y-134264285D01*
X156135780Y-134264285D02*
X156154828Y-134283333D01*
X156154828Y-134283333D02*
X156173876Y-134321428D01*
X156173876Y-134321428D02*
X156173876Y-134397619D01*
X156173876Y-134397619D02*
X156192923Y-134435714D01*
X156192923Y-134435714D02*
X156211971Y-134454761D01*
X156211971Y-134454761D02*
X156250066Y-134473809D01*
X156250066Y-134473809D02*
X156326257Y-134473809D01*
X156326257Y-134473809D02*
X156364352Y-134454761D01*
X156364352Y-134454761D02*
X156383400Y-134435714D01*
X156383400Y-134435714D02*
X156402447Y-134397619D01*
X156402447Y-134397619D02*
X156402447Y-134321428D01*
X156402447Y-134321428D02*
X156383400Y-134283333D01*
X156383400Y-134283333D02*
X156364352Y-134264285D01*
X156364352Y-134264285D02*
X156326257Y-134245238D01*
X156326257Y-134245238D02*
X156250066Y-134245238D01*
X156250066Y-134245238D02*
X156211971Y-134264285D01*
X156211971Y-134264285D02*
X156192923Y-134283333D01*
X156192923Y-134283333D02*
X156173876Y-134321428D01*
X155586666Y-141687447D02*
X155586666Y-141973161D01*
X155586666Y-141973161D02*
X155567619Y-142030304D01*
X155567619Y-142030304D02*
X155529523Y-142068400D01*
X155529523Y-142068400D02*
X155472381Y-142087447D01*
X155472381Y-142087447D02*
X155434285Y-142087447D01*
X155948571Y-141820780D02*
X155948571Y-142087447D01*
X155853333Y-141668400D02*
X155758095Y-141954114D01*
X155758095Y-141954114D02*
X156005714Y-141954114D01*
%TO.C,SW1*%
D12*
X142421900Y-145998800D02*
X142421900Y-144830100D01*
X141145000Y-148330000D02*
X141145000Y-147130000D01*
X141145000Y-148330000D02*
X139145000Y-148330000D01*
X141034000Y-144830100D02*
X141314000Y-144830100D01*
X141034000Y-144830100D02*
X139256000Y-144830100D01*
X139256000Y-144830100D02*
X138976200Y-144830100D01*
X139145000Y-148330000D02*
X139145000Y-147130000D01*
X137869900Y-145998800D02*
X137869900Y-144830100D01*
%TO.C,C16*%
D13*
X138662164Y-136740000D02*
X138877836Y-136740000D01*
X138662164Y-137460000D02*
X138877836Y-137460000D01*
%TO.C,C17*%
X144427836Y-132790000D02*
X144212164Y-132790000D01*
X144427836Y-133510000D02*
X144212164Y-133510000D01*
%TO.C,R2*%
X149140000Y-125996359D02*
X149140000Y-126303641D01*
X149900000Y-125996359D02*
X149900000Y-126303641D01*
%TO.C,U2*%
X146097500Y-137510000D02*
X146097500Y-137060000D01*
X146547500Y-130290000D02*
X146097500Y-130290000D01*
X146547500Y-137510000D02*
X146097500Y-137510000D01*
X152867500Y-130290000D02*
X153317500Y-130290000D01*
X152867500Y-137510000D02*
X153317500Y-137510000D01*
X153317500Y-130290000D02*
X153317500Y-130740000D01*
X153317500Y-137510000D02*
X153317500Y-137060000D01*
%TO.C,C23*%
X147412164Y-138190000D02*
X147627836Y-138190000D01*
X147412164Y-138910000D02*
X147627836Y-138910000D01*
%TO.C,TP1*%
X158020000Y-119850000D02*
G75*
G02*
X156620000Y-119850000I-700000J0D01*
G01*
X156620000Y-119850000D02*
G75*
G02*
X158020000Y-119850000I700000J0D01*
G01*
%TO.C,R1*%
X155040000Y-127903641D02*
X155040000Y-127596359D01*
X155800000Y-127903641D02*
X155800000Y-127596359D01*
%TO.C,TP4*%
X160920000Y-122150000D02*
G75*
G02*
X159520000Y-122150000I-700000J0D01*
G01*
X159520000Y-122150000D02*
G75*
G02*
X160920000Y-122150000I700000J0D01*
G01*
%TO.C,Y1*%
X141430000Y-132940000D02*
X137310000Y-132940000D01*
X141430000Y-136360000D02*
X141430000Y-132940000D01*
%TO.C,R15*%
X145383641Y-128770000D02*
X145076359Y-128770000D01*
X145383641Y-129530000D02*
X145076359Y-129530000D01*
%TO.C,C2*%
X157435000Y-125811252D02*
X157435000Y-125288748D01*
X158905000Y-125811252D02*
X158905000Y-125288748D01*
%TO.C,TP2*%
X160920000Y-119850000D02*
G75*
G02*
X159520000Y-119850000I-700000J0D01*
G01*
X159520000Y-119850000D02*
G75*
G02*
X160920000Y-119850000I700000J0D01*
G01*
%TO.C,J3*%
X148420000Y-142720000D02*
X149470000Y-142720000D01*
X148420000Y-145220000D02*
X148420000Y-142720000D01*
X149470000Y-142720000D02*
X149470000Y-141730000D01*
X149590000Y-147190000D02*
X152470000Y-147190000D01*
X153640000Y-142720000D02*
X152590000Y-142720000D01*
X153640000Y-145220000D02*
X153640000Y-142720000D01*
%TO.C,Q2*%
X141885000Y-142572500D02*
X141885000Y-141152500D01*
X143755000Y-141436932D02*
X143755000Y-142572500D01*
X143950000Y-141282500D02*
X143760000Y-141142500D01*
X143950000Y-141002500D01*
X143950000Y-141282500D01*
G36*
X143950000Y-141282500D02*
G01*
X143760000Y-141142500D01*
X143950000Y-141002500D01*
X143950000Y-141282500D01*
G37*
%TO.C,C20*%
X149560000Y-138942164D02*
X149560000Y-139157836D01*
X150280000Y-138942164D02*
X150280000Y-139157836D01*
%TO.C,C10*%
X154160000Y-135357836D02*
X154160000Y-135142164D01*
X154880000Y-135357836D02*
X154880000Y-135142164D01*
%TO.C,C15*%
X140127836Y-132040000D02*
X139912164Y-132040000D01*
X140127836Y-132760000D02*
X139912164Y-132760000D01*
%TO.C,C5*%
X154060000Y-127857836D02*
X154060000Y-127642164D01*
X154780000Y-127857836D02*
X154780000Y-127642164D01*
%TO.C,C22*%
X155012164Y-133390000D02*
X155227836Y-133390000D01*
X155012164Y-134110000D02*
X155227836Y-134110000D01*
%TO.C,R4*%
X147890000Y-125996359D02*
X147890000Y-126303641D01*
X148650000Y-125996359D02*
X148650000Y-126303641D01*
%TO.C,TP3*%
X158020000Y-122150000D02*
G75*
G02*
X156620000Y-122150000I-700000J0D01*
G01*
X156620000Y-122150000D02*
G75*
G02*
X158020000Y-122150000I700000J0D01*
G01*
%TO.C,R14*%
X146166359Y-145570000D02*
X146473641Y-145570000D01*
X146166359Y-146330000D02*
X146473641Y-146330000D01*
%TO.C,Q1*%
X137585000Y-141888068D02*
X137585000Y-140752500D01*
X139455000Y-140752500D02*
X139455000Y-142172500D01*
X137580000Y-142182500D02*
X137390000Y-142322500D01*
X137390000Y-142042500D01*
X137580000Y-142182500D01*
G36*
X137580000Y-142182500D02*
G01*
X137390000Y-142322500D01*
X137390000Y-142042500D01*
X137580000Y-142182500D01*
G37*
%TO.C,R13*%
X144140000Y-144106359D02*
X144140000Y-144413641D01*
X144900000Y-144106359D02*
X144900000Y-144413641D01*
%TO.C,C14*%
X144112164Y-134790000D02*
X144327836Y-134790000D01*
X144112164Y-135510000D02*
X144327836Y-135510000D01*
%TO.C,R3*%
X150140000Y-125996359D02*
X150140000Y-126303641D01*
X150900000Y-125996359D02*
X150900000Y-126303641D01*
%TO.C,C13*%
X144460000Y-130542164D02*
X144460000Y-130757836D01*
X145180000Y-130542164D02*
X145180000Y-130757836D01*
%TO.C,C9*%
X155660000Y-131657836D02*
X155660000Y-131442164D01*
X156380000Y-131657836D02*
X156380000Y-131442164D01*
%TO.C,R7*%
X138673641Y-139070000D02*
X138366359Y-139070000D01*
X138673641Y-139830000D02*
X138366359Y-139830000D01*
%TO.C,R11*%
X146473641Y-146670000D02*
X146166359Y-146670000D01*
X146473641Y-147430000D02*
X146166359Y-147430000D01*
%TO.C,C11*%
X156760000Y-131657836D02*
X156760000Y-131442164D01*
X157480000Y-131657836D02*
X157480000Y-131442164D01*
%TO.C,C12*%
X157860000Y-131657836D02*
X157860000Y-131442164D01*
X158580000Y-131657836D02*
X158580000Y-131442164D01*
%TO.C,C24*%
X146192164Y-143240000D02*
X146407836Y-143240000D01*
X146192164Y-143960000D02*
X146407836Y-143960000D01*
%TO.C,C21*%
X143185000Y-126688748D02*
X143185000Y-127211252D01*
X144655000Y-126688748D02*
X144655000Y-127211252D01*
%TO.C,R5*%
X140140000Y-139103641D02*
X140140000Y-138796359D01*
X140900000Y-139103641D02*
X140900000Y-138796359D01*
%TO.C,C19*%
X141381252Y-120315000D02*
X140858748Y-120315000D01*
X141381252Y-121785000D02*
X140858748Y-121785000D01*
%TO.C,P1*%
D12*
X145324950Y-109808500D02*
X145324950Y-117477400D01*
X145324950Y-109808500D02*
X154214950Y-109808500D01*
X145324950Y-119206500D02*
X145324950Y-120144200D01*
X145324950Y-121746500D02*
X145324950Y-123143400D01*
X145324950Y-123143400D02*
X145888150Y-123132800D01*
X154214950Y-109808500D02*
X154214950Y-117477400D01*
X154214950Y-119206500D02*
X154214950Y-120144200D01*
X154214950Y-121746500D02*
X154214950Y-123143400D01*
X154214950Y-123143400D02*
X153650350Y-123132800D01*
X154269950Y-117123300D02*
X145269950Y-117123300D01*
%TO.C,R8*%
D13*
X147273641Y-139620000D02*
X146966359Y-139620000D01*
X147273641Y-140380000D02*
X146966359Y-140380000D01*
%TO.C,L1*%
D12*
X152651100Y-124750000D02*
X153188900Y-124750000D01*
X152651100Y-126350000D02*
X153188900Y-126350000D01*
X153946900Y-124449900D02*
G75*
G02*
X153692900Y-124449900I-127000J0D01*
G01*
X153692900Y-124449900D02*
G75*
G02*
X153946900Y-124449900I127000J0D01*
G01*
%TO.C,U4*%
D13*
X139560000Y-123540000D02*
X139610000Y-123540000D01*
X139560000Y-125360000D02*
X139560000Y-123540000D01*
X139610000Y-125360000D02*
X139560000Y-125360000D01*
X141510000Y-125360000D02*
X140730000Y-125360000D01*
X142630000Y-123540000D02*
X142680000Y-123540000D01*
X142680000Y-123540000D02*
X142680000Y-125360000D01*
X142680000Y-125360000D02*
X142630000Y-125360000D01*
X142960000Y-123240000D02*
X142630000Y-123000000D01*
X142960000Y-122760000D01*
X142960000Y-123240000D01*
G36*
X142960000Y-123240000D02*
G01*
X142630000Y-123000000D01*
X142960000Y-122760000D01*
X142960000Y-123240000D01*
G37*
%TO.C,C8*%
X156027836Y-129090000D02*
X155812164Y-129090000D01*
X156027836Y-129810000D02*
X155812164Y-129810000D01*
%TO.C,C6*%
X146192164Y-144340000D02*
X146407836Y-144340000D01*
X146192164Y-145060000D02*
X146407836Y-145060000D01*
%TO.C,R12*%
X144840000Y-141896359D02*
X144840000Y-142203641D01*
X145600000Y-141896359D02*
X145600000Y-142203641D01*
%TO.C,C18*%
X155260000Y-135357836D02*
X155260000Y-135142164D01*
X155980000Y-135357836D02*
X155980000Y-135142164D01*
%TO.C,J4*%
X155460000Y-142720000D02*
X156510000Y-142720000D01*
X155460000Y-145220000D02*
X155460000Y-142720000D01*
X156510000Y-142720000D02*
X156510000Y-141730000D01*
X156630000Y-147190000D02*
X160510000Y-147190000D01*
X161680000Y-142720000D02*
X160630000Y-142720000D01*
X161680000Y-145220000D02*
X161680000Y-142720000D01*
%TD*%
M02*
