M48
; DRILL file KiCad 10.0.1 date 2026-08-12T01:57:15
; FORMAT={-:-/ absolute / metric / decimal}
; #@! TF.CreationDate,2026-08-12T01:57:15+02:00
; #@! TF.GenerationSoftware,Kicad,Pcbnew,10.0.1
; #@! TF.FileFunction,Plated,1,2,PTH
FMAT,2
METRIC
; #@! TA.AperFunction,Plated,PTH,ComponentDrill
T1C0.250
; #@! TA.AperFunction,Plated,PTH,ViaDrill
T2C0.300
%
G90
G05
T1
X148.332Y-132.525
X148.332Y-133.9
X148.332Y-135.275
X149.707Y-132.525
X149.707Y-133.9
X149.707Y-135.275
X151.082Y-132.525
X151.082Y-133.9
X151.082Y-135.275
T2
X137.62Y-143.35
X139.22Y-119.25
X140.62Y-142.75
X141.42Y-140.35
X141.62Y-137.05
X142.32Y-132.05
X142.32Y-140.15
X143.12Y-131.05
X143.42Y-124.85
X143.52Y-119.75
X143.52Y-145.55
X144.22Y-141.75
X144.42Y-137.15
X144.72Y-122.75
X145.82Y-140.85
X146.42Y-125.95
X147.02Y-141.55
X147.051Y-133.075
X147.12Y-124.25
X147.42Y-132.15
X147.687Y-135.983
X148.12Y-128.85
X149.315Y-128.455
X149.718Y-136.566
X150.956Y-131.398
X151.12Y-127.55
X151.32Y-136.05
X151.37Y-140.95
X151.812Y-128.942
X152.12Y-133.55
X152.12Y-136.05
X152.22Y-131.75
X152.507Y-138.438
X152.62Y-139.95
X154.22Y-129.85
X154.22Y-137.65
X154.32Y-132.08
X154.87Y-130.6
X155.12Y-139.05
X155.52Y-126.25
X156.12Y-130.25
X156.22Y-124.55
X156.72Y-134.75
X157.32Y-123.45
X157.72Y-133.35
X159.02Y-131.05
X159.62Y-124.45
X160.22Y-123.45
X160.92Y-125.65
X161.42Y-134.65
M30
