%TF.GenerationSoftware,KiCad,Pcbnew,10.0.1*%
%TF.CreationDate,2026-08-11T19:25:47+02:00*%
%TF.ProjectId,pico2-expansion-card,7069636f-322d-4657-9870-616e73696f6e,rev?*%
%TF.SameCoordinates,Original*%
%TF.FileFunction,Copper,L2,Bot*%
%TF.FilePolarity,Positive*%
%FSLAX46Y46*%
G04 Gerber Fmt 4.6, Leading zero omitted, Abs format (unit mm)*
G04 Created by KiCad (PCBNEW 10.0.1) date 2026-08-11 19:25:47*
%MOMM*%
%LPD*%
G01*
G04 APERTURE LIST*
%TA.AperFunction,ComponentPad*%
%ADD10C,0.600000*%
%TD*%
%TA.AperFunction,ViaPad*%
%ADD11C,0.600000*%
%TD*%
%TA.AperFunction,Conductor*%
%ADD12C,0.300000*%
%TD*%
%TA.AperFunction,Conductor*%
%ADD13C,0.200000*%
%TD*%
%TA.AperFunction,Conductor*%
%ADD14C,0.127000*%
%TD*%
G04 APERTURE END LIST*
D10*
%TO.P,U2,61,GND_61*%
%TO.N,GND*%
X167812500Y-85475000D03*
X167812500Y-86850000D03*
X167812500Y-88225000D03*
X169187500Y-85475000D03*
X169187500Y-86850000D03*
X169187500Y-88225000D03*
X170562500Y-85475000D03*
X170562500Y-86850000D03*
X170562500Y-88225000D03*
%TD*%
D11*
%TO.N,GND*%
X163700000Y-94700000D03*
%TO.N,+3.3V*%
X166500000Y-94500000D03*
%TO.N,GND*%
X163000000Y-98500000D03*
X170850000Y-93900000D03*
X158100000Y-82900000D03*
X177200000Y-86300000D03*
X173800000Y-85030000D03*
X161100000Y-90000000D03*
X173700000Y-82800000D03*
X157100000Y-96300000D03*
X178300000Y-81000000D03*
X158700000Y-72200000D03*
X175600000Y-83200000D03*
X160400000Y-83600000D03*
X163900000Y-90100000D03*
X162600000Y-84000000D03*
X180400000Y-78600000D03*
X171700000Y-84700000D03*
X164200000Y-75700000D03*
X172100000Y-92900000D03*
X160100000Y-95700000D03*
X160900000Y-93300000D03*
X166600000Y-77200000D03*
X175000000Y-79200000D03*
X167600000Y-81800000D03*
X175700000Y-77500000D03*
X173700000Y-90600000D03*
X163000000Y-72700000D03*
X174600000Y-92000000D03*
X165300000Y-93800000D03*
X166900000Y-85100000D03*
X162900000Y-77800000D03*
X179700000Y-85300000D03*
%TO.N,+1V1*%
X169198193Y-89516417D03*
X166531417Y-86025259D03*
X170435509Y-84348302D03*
X171600000Y-86500000D03*
%TO.N,+3.3V*%
X174350000Y-83550000D03*
X168795477Y-81404523D03*
X178500000Y-84000000D03*
X167166930Y-88933070D03*
X176200000Y-87700000D03*
X171292500Y-81892500D03*
X171987500Y-91387500D03*
%TO.N,/SWCLK*%
X176800000Y-76600000D03*
X170800000Y-89000000D03*
%TO.N,/SWDIO*%
X171600000Y-89000000D03*
X179700000Y-76600000D03*
%TO.N,Net-(Q2B-D)*%
X161800000Y-85000000D03*
X161800000Y-93100000D03*
%TD*%
%TO.N,+3.3V*%
D12*
X171987500Y-91387500D02*
X174212500Y-91387500D01*
X174212500Y-91387500D02*
X176200000Y-89400000D01*
X176200000Y-89400000D02*
X176200000Y-87700000D01*
X166500000Y-94500000D02*
X167600000Y-94500000D01*
X167600000Y-94500000D02*
X170712500Y-91387500D01*
X170712500Y-91387500D02*
X171987500Y-91387500D01*
%TO.N,Net-(Q2B-D)*%
D13*
X161800000Y-85000000D02*
X161800000Y-93100000D01*
%TO.N,+1V1*%
X171600000Y-85512793D02*
X171600000Y-86500000D01*
X169198193Y-89101807D02*
X169198193Y-89516417D01*
X169900000Y-87800000D02*
X170075000Y-87625000D01*
X169436029Y-86075000D02*
X169900000Y-86538971D01*
X166581158Y-86075000D02*
X169436029Y-86075000D01*
X171600000Y-86661029D02*
X171600000Y-86500000D01*
X169900000Y-88400000D02*
X169198193Y-89101807D01*
X166531417Y-86025259D02*
X166581158Y-86075000D01*
X169900000Y-86538971D02*
X169900000Y-87800000D01*
X170435509Y-84348302D02*
X171600000Y-85512793D01*
X170075000Y-87625000D02*
X170636029Y-87625000D01*
X170636029Y-87625000D02*
X171600000Y-86661029D01*
X169900000Y-87800000D02*
X169900000Y-88400000D01*
%TO.N,+3.3V*%
D12*
X171987500Y-91387500D02*
X169621360Y-91387500D01*
X176690955Y-87700000D02*
X178500000Y-85890955D01*
D13*
X172950000Y-83550000D02*
X171292500Y-81892500D01*
D12*
X176200000Y-87700000D02*
X176690955Y-87700000D01*
D13*
X169283454Y-81892500D02*
X168795477Y-81404523D01*
X174350000Y-83550000D02*
X172950000Y-83550000D01*
D12*
X169621360Y-91387500D02*
X167166930Y-88933070D01*
X178500000Y-85890955D02*
X178500000Y-84000000D01*
D13*
X171292500Y-81892500D02*
X169283454Y-81892500D01*
X178800000Y-84000000D02*
X178500000Y-84000000D01*
%TO.N,/SWCLK*%
D14*
X170800000Y-89000000D02*
X176800000Y-83000000D01*
X176800000Y-83000000D02*
X176800000Y-76600000D01*
%TO.N,/SWDIO*%
X179700000Y-80900000D02*
X179700000Y-76600000D01*
X171600000Y-89000000D02*
X179700000Y-80900000D01*
%TD*%
%TA.AperFunction,Conductor*%
%TO.N,GND*%
G36*
X180992639Y-70520185D02*
G01*
X181038394Y-70572989D01*
X181049600Y-70624500D01*
X181049600Y-74421618D01*
X181049600Y-74501382D01*
X181080124Y-74575074D01*
X181136526Y-74631476D01*
X181210218Y-74662000D01*
X181925600Y-74662000D01*
X181992639Y-74681685D01*
X182038394Y-74734489D01*
X182049600Y-74786000D01*
X182049600Y-100637000D01*
X182029915Y-100704039D01*
X181977111Y-100749794D01*
X181925600Y-100761000D01*
X156574600Y-100761000D01*
X156507561Y-100741315D01*
X156461806Y-100688511D01*
X156450600Y-100637000D01*
X156450600Y-99070943D01*
X158174600Y-99070943D01*
X158174600Y-99229056D01*
X158215523Y-99381783D01*
X158215526Y-99381790D01*
X158294575Y-99518709D01*
X158294579Y-99518714D01*
X158294580Y-99518716D01*
X158406384Y-99630520D01*
X158406386Y-99630521D01*
X158406390Y-99630524D01*
X158543309Y-99709573D01*
X158543316Y-99709577D01*
X158696043Y-99750500D01*
X158696045Y-99750500D01*
X158854155Y-99750500D01*
X158854157Y-99750500D01*
X159006884Y-99709577D01*
X159143816Y-99630520D01*
X159255620Y-99518716D01*
X159334677Y-99381784D01*
X159375600Y-99229057D01*
X159375600Y-99070943D01*
X159874600Y-99070943D01*
X159874600Y-99229056D01*
X159915523Y-99381783D01*
X159915526Y-99381790D01*
X159994575Y-99518709D01*
X159994579Y-99518714D01*
X159994580Y-99518716D01*
X160106384Y-99630520D01*
X160106386Y-99630521D01*
X160106390Y-99630524D01*
X160243309Y-99709573D01*
X160243316Y-99709577D01*
X160396043Y-99750500D01*
X160396045Y-99750500D01*
X160554155Y-99750500D01*
X160554157Y-99750500D01*
X160706884Y-99709577D01*
X160843816Y-99630520D01*
X160955620Y-99518716D01*
X161034677Y-99381784D01*
X161075600Y-99229057D01*
X161075600Y-99070943D01*
X161034677Y-98918216D01*
X161034673Y-98918209D01*
X160955624Y-98781290D01*
X160955618Y-98781282D01*
X160843817Y-98669481D01*
X160843809Y-98669475D01*
X160706890Y-98590426D01*
X160706886Y-98590424D01*
X160706884Y-98590423D01*
X160554157Y-98549500D01*
X160396043Y-98549500D01*
X160243316Y-98590423D01*
X160243309Y-98590426D01*
X160106390Y-98669475D01*
X160106382Y-98669481D01*
X159994581Y-98781282D01*
X159994575Y-98781290D01*
X159915526Y-98918209D01*
X159915523Y-98918216D01*
X159874600Y-99070943D01*
X159375600Y-99070943D01*
X159334677Y-98918216D01*
X159334673Y-98918209D01*
X159255624Y-98781290D01*
X159255618Y-98781282D01*
X159143817Y-98669481D01*
X159143809Y-98669475D01*
X159006890Y-98590426D01*
X159006886Y-98590424D01*
X159006884Y-98590423D01*
X158854157Y-98549500D01*
X158696043Y-98549500D01*
X158543316Y-98590423D01*
X158543309Y-98590426D01*
X158406390Y-98669475D01*
X158406382Y-98669481D01*
X158294581Y-98781282D01*
X158294575Y-98781290D01*
X158215526Y-98918209D01*
X158215523Y-98918216D01*
X158174600Y-99070943D01*
X156450600Y-99070943D01*
X156450600Y-94440375D01*
X166047100Y-94440375D01*
X166047100Y-94559624D01*
X166077964Y-94674814D01*
X166107777Y-94726450D01*
X166137590Y-94778087D01*
X166221913Y-94862410D01*
X166325187Y-94922036D01*
X166440375Y-94952900D01*
X166440377Y-94952900D01*
X166559623Y-94952900D01*
X166559625Y-94952900D01*
X166674813Y-94922036D01*
X166778087Y-94862410D01*
X166801278Y-94839219D01*
X166862601Y-94805734D01*
X166888959Y-94802900D01*
X167552510Y-94802900D01*
X167552526Y-94802901D01*
X167560122Y-94802901D01*
X167639875Y-94802901D01*
X167639878Y-94802901D01*
X167716915Y-94782258D01*
X167785985Y-94742381D01*
X170801646Y-91726718D01*
X170862969Y-91693234D01*
X170889327Y-91690400D01*
X171598541Y-91690400D01*
X171665580Y-91710085D01*
X171686222Y-91726719D01*
X171709413Y-91749910D01*
X171812687Y-91809536D01*
X171927875Y-91840400D01*
X171927877Y-91840400D01*
X172047123Y-91840400D01*
X172047125Y-91840400D01*
X172162313Y-91809536D01*
X172265587Y-91749910D01*
X172288778Y-91726719D01*
X172350101Y-91693234D01*
X172376459Y-91690400D01*
X174165010Y-91690400D01*
X174165026Y-91690401D01*
X174172622Y-91690401D01*
X174252375Y-91690401D01*
X174252378Y-91690401D01*
X174329415Y-91669758D01*
X174398485Y-91629881D01*
X176375775Y-89652588D01*
X176375780Y-89652585D01*
X176385983Y-89642381D01*
X176385985Y-89642381D01*
X176442381Y-89585985D01*
X176482258Y-89516915D01*
X176502900Y-89439878D01*
X176502900Y-88126900D01*
X176505450Y-88118214D01*
X176504162Y-88109253D01*
X176515140Y-88085212D01*
X176522585Y-88059861D01*
X176529425Y-88053933D01*
X176533187Y-88045697D01*
X176555421Y-88031407D01*
X176575389Y-88014106D01*
X176585903Y-88011818D01*
X176591965Y-88007923D01*
X176626900Y-88002900D01*
X176643465Y-88002900D01*
X176643481Y-88002901D01*
X176651077Y-88002901D01*
X176730830Y-88002901D01*
X176730833Y-88002901D01*
X176807870Y-87982258D01*
X176876940Y-87942381D01*
X178742381Y-86076940D01*
X178782258Y-86007870D01*
X178802901Y-85930833D01*
X178802901Y-85851077D01*
X178802901Y-85843482D01*
X178802900Y-85843464D01*
X178802900Y-84388959D01*
X178810273Y-84363848D01*
X178813887Y-84337930D01*
X178820836Y-84327875D01*
X178822585Y-84321920D01*
X178832841Y-84308157D01*
X178835894Y-84304602D01*
X178862410Y-84278087D01*
X178870068Y-84264821D01*
X178877609Y-84256044D01*
X178897600Y-84243075D01*
X178914843Y-84226633D01*
X178924192Y-84222295D01*
X178943257Y-84214399D01*
X179014399Y-84143257D01*
X179052900Y-84050305D01*
X179052900Y-83949695D01*
X179014399Y-83856743D01*
X178943257Y-83785601D01*
X178943256Y-83785600D01*
X178924216Y-83777714D01*
X178869812Y-83733873D01*
X178864280Y-83725152D01*
X178864084Y-83724813D01*
X178862410Y-83721913D01*
X178778087Y-83637590D01*
X178726450Y-83607777D01*
X178674814Y-83577964D01*
X178617219Y-83562532D01*
X178559625Y-83547100D01*
X178440375Y-83547100D01*
X178325185Y-83577964D01*
X178221913Y-83637590D01*
X178221910Y-83637592D01*
X178137592Y-83721910D01*
X178137590Y-83721913D01*
X178077964Y-83825185D01*
X178047100Y-83940375D01*
X178047100Y-84059624D01*
X178077964Y-84174814D01*
X178100818Y-84214397D01*
X178137590Y-84278087D01*
X178137592Y-84278089D01*
X178160781Y-84301278D01*
X178194266Y-84362601D01*
X178197100Y-84388959D01*
X178197100Y-85714127D01*
X178177415Y-85781166D01*
X178160781Y-85801808D01*
X176638107Y-87324481D01*
X176576784Y-87357966D01*
X176507092Y-87352982D01*
X176485492Y-87341017D01*
X176485125Y-87341654D01*
X176478088Y-87337591D01*
X176478087Y-87337590D01*
X176430851Y-87310318D01*
X176374814Y-87277964D01*
X176317219Y-87262532D01*
X176259625Y-87247100D01*
X176140375Y-87247100D01*
X176025185Y-87277964D01*
X175921913Y-87337590D01*
X175921910Y-87337592D01*
X175837592Y-87421910D01*
X175837590Y-87421913D01*
X175777964Y-87525185D01*
X175747100Y-87640375D01*
X175747100Y-87759624D01*
X175777964Y-87874814D01*
X175807777Y-87926450D01*
X175837590Y-87978087D01*
X175837592Y-87978089D01*
X175860781Y-88001278D01*
X175894266Y-88062601D01*
X175897100Y-88088959D01*
X175897100Y-89223172D01*
X175877415Y-89290211D01*
X175860781Y-89310853D01*
X174123353Y-91048281D01*
X174062030Y-91081766D01*
X174035672Y-91084600D01*
X172376459Y-91084600D01*
X172309420Y-91064915D01*
X172288778Y-91048281D01*
X172265589Y-91025092D01*
X172265587Y-91025090D01*
X172213950Y-90995277D01*
X172162314Y-90965464D01*
X172104719Y-90950032D01*
X172047125Y-90934600D01*
X171927875Y-90934600D01*
X171812685Y-90965464D01*
X171709413Y-91025090D01*
X171709410Y-91025092D01*
X171686222Y-91048281D01*
X171624899Y-91081766D01*
X171598541Y-91084600D01*
X170752382Y-91084600D01*
X170752378Y-91084599D01*
X170672622Y-91084599D01*
X170672618Y-91084600D01*
X169798188Y-91084600D01*
X169731149Y-91064915D01*
X169710507Y-91048281D01*
X167656149Y-88993923D01*
X167622664Y-88932600D01*
X167619830Y-88906242D01*
X167619830Y-88873447D01*
X167619830Y-88873445D01*
X167588966Y-88758257D01*
X167529340Y-88654983D01*
X167445017Y-88570660D01*
X167393380Y-88540847D01*
X167341744Y-88511034D01*
X167284149Y-88495602D01*
X167226555Y-88480170D01*
X167107305Y-88480170D01*
X166992115Y-88511034D01*
X166888843Y-88570660D01*
X166888840Y-88570662D01*
X166804522Y-88654980D01*
X166804520Y-88654983D01*
X166744894Y-88758255D01*
X166714030Y-88873445D01*
X166714030Y-88992694D01*
X166744894Y-89107884D01*
X166763128Y-89139465D01*
X166804520Y-89211157D01*
X166888843Y-89295480D01*
X166992117Y-89355106D01*
X167107305Y-89385970D01*
X167140102Y-89385970D01*
X167207141Y-89405655D01*
X167227783Y-89422289D01*
X169435375Y-91629881D01*
X169504445Y-91669758D01*
X169581482Y-91690400D01*
X169661238Y-91690400D01*
X169681873Y-91690400D01*
X169748912Y-91710085D01*
X169794667Y-91762889D01*
X169804611Y-91832047D01*
X169775586Y-91895603D01*
X169769554Y-91902081D01*
X167510853Y-94160781D01*
X167449530Y-94194266D01*
X167423172Y-94197100D01*
X166888959Y-94197100D01*
X166821920Y-94177415D01*
X166801278Y-94160781D01*
X166778089Y-94137592D01*
X166778087Y-94137590D01*
X166726450Y-94107777D01*
X166674814Y-94077964D01*
X166617219Y-94062532D01*
X166559625Y-94047100D01*
X166440375Y-94047100D01*
X166325185Y-94077964D01*
X166221913Y-94137590D01*
X166221910Y-94137592D01*
X166137592Y-94221910D01*
X166137590Y-94221913D01*
X166077964Y-94325185D01*
X166047100Y-94440375D01*
X156450600Y-94440375D01*
X156450600Y-84940375D01*
X161347100Y-84940375D01*
X161347100Y-85059624D01*
X161377964Y-85174814D01*
X161407777Y-85226450D01*
X161437590Y-85278087D01*
X161437592Y-85278089D01*
X161510781Y-85351278D01*
X161544266Y-85412601D01*
X161547100Y-85438959D01*
X161547100Y-92661041D01*
X161527415Y-92728080D01*
X161510781Y-92748722D01*
X161437592Y-92821910D01*
X161437590Y-92821913D01*
X161377964Y-92925185D01*
X161347100Y-93040375D01*
X161347100Y-93159624D01*
X161377964Y-93274814D01*
X161407777Y-93326450D01*
X161437590Y-93378087D01*
X161521913Y-93462410D01*
X161625187Y-93522036D01*
X161740375Y-93552900D01*
X161740377Y-93552900D01*
X161859623Y-93552900D01*
X161859625Y-93552900D01*
X161974813Y-93522036D01*
X162078087Y-93462410D01*
X162162410Y-93378087D01*
X162222036Y-93274813D01*
X162252900Y-93159625D01*
X162252900Y-93040375D01*
X162222036Y-92925187D01*
X162162410Y-92821913D01*
X162089219Y-92748722D01*
X162055734Y-92687399D01*
X162052900Y-92661041D01*
X162052900Y-85965634D01*
X166078517Y-85965634D01*
X166078517Y-86084883D01*
X166109381Y-86200073D01*
X166121989Y-86221910D01*
X166169007Y-86303346D01*
X166253330Y-86387669D01*
X166342765Y-86439305D01*
X166355448Y-86446628D01*
X166356604Y-86447295D01*
X166471792Y-86478159D01*
X166471794Y-86478159D01*
X166591040Y-86478159D01*
X166591042Y-86478159D01*
X166706230Y-86447295D01*
X166809504Y-86387669D01*
X166832954Y-86364219D01*
X166894277Y-86330734D01*
X166920635Y-86327900D01*
X169279913Y-86327900D01*
X169346952Y-86347585D01*
X169367594Y-86364219D01*
X169610781Y-86607406D01*
X169644266Y-86668729D01*
X169647100Y-86695087D01*
X169647100Y-87749692D01*
X169647099Y-87749695D01*
X169647099Y-87850305D01*
X169647100Y-87850307D01*
X169647100Y-88243883D01*
X169627415Y-88310922D01*
X169610781Y-88331564D01*
X169059277Y-88883067D01*
X169059266Y-88883076D01*
X169059267Y-88883077D01*
X168983793Y-88958550D01*
X168961240Y-89013000D01*
X168945292Y-89051500D01*
X168945292Y-89077458D01*
X168925607Y-89144497D01*
X168908974Y-89165139D01*
X168835782Y-89238330D01*
X168776157Y-89341602D01*
X168749825Y-89439877D01*
X168745293Y-89456792D01*
X168745293Y-89576042D01*
X168760725Y-89633636D01*
X168776157Y-89691231D01*
X168805970Y-89742867D01*
X168835783Y-89794504D01*
X168920106Y-89878827D01*
X169023380Y-89938453D01*
X169138568Y-89969317D01*
X169138570Y-89969317D01*
X169257816Y-89969317D01*
X169257818Y-89969317D01*
X169373006Y-89938453D01*
X169476280Y-89878827D01*
X169560603Y-89794504D01*
X169620229Y-89691230D01*
X169651093Y-89576042D01*
X169651093Y-89456792D01*
X169620229Y-89341604D01*
X169560603Y-89238330D01*
X169560601Y-89238328D01*
X169556539Y-89231292D01*
X169559586Y-89229532D01*
X169540254Y-89179329D01*
X169554384Y-89110903D01*
X169576154Y-89081498D01*
X169717277Y-88940375D01*
X170347100Y-88940375D01*
X170347100Y-89059625D01*
X170360031Y-89107884D01*
X170377964Y-89174814D01*
X170400000Y-89212980D01*
X170437590Y-89278087D01*
X170521913Y-89362410D01*
X170625187Y-89422036D01*
X170740375Y-89452900D01*
X170740377Y-89452900D01*
X170859623Y-89452900D01*
X170859625Y-89452900D01*
X170974813Y-89422036D01*
X171078087Y-89362410D01*
X171112319Y-89328178D01*
X171173642Y-89294693D01*
X171243334Y-89299677D01*
X171287681Y-89328178D01*
X171321913Y-89362410D01*
X171425187Y-89422036D01*
X171540375Y-89452900D01*
X171540377Y-89452900D01*
X171659623Y-89452900D01*
X171659625Y-89452900D01*
X171774813Y-89422036D01*
X171878087Y-89362410D01*
X171962410Y-89278087D01*
X172022036Y-89174813D01*
X172052900Y-89059625D01*
X172052900Y-88940375D01*
X172052899Y-88940373D01*
X172051839Y-88932319D01*
X172053197Y-88932140D01*
X172054653Y-88870876D01*
X172085084Y-88820949D01*
X179805139Y-81100895D01*
X179805142Y-81100893D01*
X179822580Y-81083455D01*
X179822581Y-81083455D01*
X179883455Y-81022581D01*
X179916400Y-80943045D01*
X179916400Y-77069616D01*
X179936085Y-77002577D01*
X179972222Y-76968119D01*
X179971638Y-76967358D01*
X179978079Y-76962414D01*
X179978087Y-76962410D01*
X180062410Y-76878087D01*
X180122036Y-76774813D01*
X180152900Y-76659625D01*
X180152900Y-76540375D01*
X180122036Y-76425187D01*
X180062410Y-76321913D01*
X179978087Y-76237590D01*
X179926450Y-76207777D01*
X179874814Y-76177964D01*
X179817219Y-76162532D01*
X179759625Y-76147100D01*
X179640375Y-76147100D01*
X179525185Y-76177964D01*
X179421913Y-76237590D01*
X179421910Y-76237592D01*
X179337592Y-76321910D01*
X179337590Y-76321913D01*
X179277964Y-76425185D01*
X179247100Y-76540375D01*
X179247100Y-76659624D01*
X179277964Y-76774814D01*
X179307777Y-76826450D01*
X179337590Y-76878087D01*
X179421913Y-76962410D01*
X179421916Y-76962412D01*
X179428362Y-76967358D01*
X179427527Y-76968446D01*
X179469814Y-77012793D01*
X179483600Y-77069616D01*
X179483600Y-80759002D01*
X179463915Y-80826041D01*
X179447281Y-80846683D01*
X177228081Y-83065883D01*
X177166758Y-83099368D01*
X177097066Y-83094384D01*
X177041133Y-83052512D01*
X177016716Y-82987048D01*
X177016400Y-82978202D01*
X177016400Y-77069616D01*
X177036085Y-77002577D01*
X177072222Y-76968119D01*
X177071638Y-76967358D01*
X177078079Y-76962414D01*
X177078087Y-76962410D01*
X177162410Y-76878087D01*
X177222036Y-76774813D01*
X177252900Y-76659625D01*
X177252900Y-76540375D01*
X177222036Y-76425187D01*
X177162410Y-76321913D01*
X177078087Y-76237590D01*
X177026450Y-76207777D01*
X176974814Y-76177964D01*
X176917219Y-76162532D01*
X176859625Y-76147100D01*
X176740375Y-76147100D01*
X176625185Y-76177964D01*
X176521913Y-76237590D01*
X176521910Y-76237592D01*
X176437592Y-76321910D01*
X176437590Y-76321913D01*
X176377964Y-76425185D01*
X176347100Y-76540375D01*
X176347100Y-76659624D01*
X176377964Y-76774814D01*
X176407777Y-76826450D01*
X176437590Y-76878087D01*
X176521913Y-76962410D01*
X176521916Y-76962412D01*
X176528362Y-76967358D01*
X176527527Y-76968446D01*
X176569814Y-77012793D01*
X176583600Y-77069616D01*
X176583600Y-82859002D01*
X176563915Y-82926041D01*
X176547281Y-82946683D01*
X170979051Y-88514912D01*
X170917728Y-88548397D01*
X170867811Y-88547209D01*
X170867686Y-88548161D01*
X170859625Y-88547100D01*
X170740375Y-88547100D01*
X170625185Y-88577964D01*
X170521913Y-88637590D01*
X170521910Y-88637592D01*
X170437592Y-88721910D01*
X170437590Y-88721913D01*
X170377964Y-88825185D01*
X170349259Y-88932319D01*
X170347100Y-88940375D01*
X169717277Y-88940375D01*
X170031335Y-88626318D01*
X170031343Y-88626312D01*
X170043255Y-88614399D01*
X170043257Y-88614399D01*
X170114399Y-88543257D01*
X170140530Y-88480170D01*
X170152901Y-88450305D01*
X170152901Y-88349695D01*
X170152900Y-88349692D01*
X170152900Y-88001900D01*
X170172585Y-87934861D01*
X170225389Y-87889106D01*
X170276900Y-87877900D01*
X170571282Y-87877900D01*
X170571290Y-87877901D01*
X170585724Y-87877901D01*
X170686334Y-87877901D01*
X170713558Y-87866623D01*
X170724836Y-87861952D01*
X170724838Y-87861950D01*
X170779286Y-87839399D01*
X170850428Y-87768257D01*
X170850428Y-87768254D01*
X170862343Y-87756340D01*
X170862346Y-87756335D01*
X171644543Y-86974138D01*
X171700127Y-86942047D01*
X171774813Y-86922036D01*
X171878087Y-86862410D01*
X171962410Y-86778087D01*
X172022036Y-86674813D01*
X172052900Y-86559625D01*
X172052900Y-86440375D01*
X172022036Y-86325187D01*
X171962410Y-86221913D01*
X171889219Y-86148722D01*
X171855734Y-86087399D01*
X171852900Y-86061041D01*
X171852900Y-85587177D01*
X171852900Y-85563100D01*
X171852901Y-85563098D01*
X171852901Y-85462488D01*
X171827224Y-85400500D01*
X171814399Y-85369536D01*
X171743257Y-85298394D01*
X171743255Y-85298393D01*
X171736189Y-85291327D01*
X171736189Y-85291326D01*
X171736181Y-85291320D01*
X170924728Y-84479867D01*
X170891243Y-84418544D01*
X170888409Y-84392186D01*
X170888409Y-84288679D01*
X170888409Y-84288677D01*
X170857545Y-84173489D01*
X170797919Y-84070215D01*
X170713596Y-83985892D01*
X170661959Y-83956079D01*
X170610323Y-83926266D01*
X170552728Y-83910834D01*
X170495134Y-83895402D01*
X170375884Y-83895402D01*
X170260694Y-83926266D01*
X170157422Y-83985892D01*
X170157419Y-83985894D01*
X170073101Y-84070212D01*
X170073099Y-84070215D01*
X170013473Y-84173487D01*
X169985446Y-84278089D01*
X169982609Y-84288677D01*
X169982609Y-84407927D01*
X169998041Y-84465521D01*
X170013473Y-84523116D01*
X170027321Y-84547100D01*
X170073099Y-84626389D01*
X170157422Y-84710712D01*
X170260696Y-84770338D01*
X170375884Y-84801202D01*
X170375886Y-84801202D01*
X170479393Y-84801202D01*
X170546432Y-84820887D01*
X170567074Y-84837521D01*
X171310781Y-85581228D01*
X171344266Y-85642551D01*
X171347100Y-85668909D01*
X171347100Y-86061041D01*
X171327415Y-86128080D01*
X171310781Y-86148722D01*
X171237592Y-86221910D01*
X171237590Y-86221913D01*
X171177964Y-86325185D01*
X171147100Y-86440375D01*
X171147100Y-86559626D01*
X171170127Y-86645567D01*
X171168464Y-86715417D01*
X171138033Y-86765340D01*
X170567594Y-87335781D01*
X170540666Y-87350484D01*
X170514848Y-87367077D01*
X170508647Y-87367968D01*
X170506271Y-87369266D01*
X170479913Y-87372100D01*
X170276900Y-87372100D01*
X170209861Y-87352415D01*
X170164106Y-87299611D01*
X170152900Y-87248100D01*
X170152900Y-86603718D01*
X170152901Y-86603709D01*
X170152901Y-86488668D01*
X170152900Y-86488663D01*
X170135519Y-86446702D01*
X170135504Y-86446669D01*
X170135489Y-86446631D01*
X170114399Y-86395714D01*
X170043257Y-86324572D01*
X170036196Y-86317511D01*
X170036181Y-86317498D01*
X169667069Y-85948386D01*
X169650429Y-85931746D01*
X169650428Y-85931743D01*
X169579286Y-85860601D01*
X169524835Y-85838047D01*
X169510655Y-85832173D01*
X169486336Y-85822099D01*
X169486334Y-85822099D01*
X169385724Y-85822099D01*
X169371290Y-85822099D01*
X169371282Y-85822100D01*
X167008678Y-85822100D01*
X166941639Y-85802415D01*
X166901291Y-85760100D01*
X166893827Y-85747172D01*
X166809504Y-85662849D01*
X166731040Y-85617547D01*
X166706231Y-85603223D01*
X166624142Y-85581228D01*
X166591042Y-85572359D01*
X166471792Y-85572359D01*
X166356602Y-85603223D01*
X166253330Y-85662849D01*
X166253327Y-85662851D01*
X166169009Y-85747169D01*
X166169007Y-85747172D01*
X166109381Y-85850444D01*
X166078517Y-85965634D01*
X162052900Y-85965634D01*
X162052900Y-85438959D01*
X162072585Y-85371920D01*
X162089219Y-85351278D01*
X162162410Y-85278087D01*
X162222036Y-85174813D01*
X162252900Y-85059625D01*
X162252900Y-84940375D01*
X162222036Y-84825187D01*
X162162410Y-84721913D01*
X162078087Y-84637590D01*
X162026450Y-84607777D01*
X161974814Y-84577964D01*
X161917219Y-84562532D01*
X161859625Y-84547100D01*
X161740375Y-84547100D01*
X161625185Y-84577964D01*
X161521913Y-84637590D01*
X161521910Y-84637592D01*
X161437592Y-84721910D01*
X161437590Y-84721913D01*
X161377964Y-84825185D01*
X161347100Y-84940375D01*
X156450600Y-84940375D01*
X156450600Y-81344898D01*
X168342577Y-81344898D01*
X168342577Y-81464148D01*
X168358009Y-81521742D01*
X168373441Y-81579337D01*
X168403244Y-81630955D01*
X168433067Y-81682610D01*
X168517390Y-81766933D01*
X168620664Y-81826559D01*
X168735852Y-81857423D01*
X168735854Y-81857423D01*
X168839361Y-81857423D01*
X168868801Y-81866067D01*
X168898788Y-81872591D01*
X168903803Y-81876345D01*
X168906400Y-81877108D01*
X168927036Y-81893736D01*
X169069054Y-82035755D01*
X169069055Y-82035757D01*
X169140197Y-82106899D01*
X169167416Y-82118172D01*
X169167422Y-82118177D01*
X169167422Y-82118175D01*
X169233149Y-82145401D01*
X169233150Y-82145401D01*
X169348193Y-82145401D01*
X169348201Y-82145400D01*
X170853541Y-82145400D01*
X170920580Y-82165085D01*
X170941222Y-82181719D01*
X171014413Y-82254910D01*
X171117687Y-82314536D01*
X171232875Y-82345400D01*
X171232877Y-82345400D01*
X171336384Y-82345400D01*
X171403423Y-82365085D01*
X171424065Y-82381719D01*
X172735599Y-83693253D01*
X172735601Y-83693257D01*
X172806743Y-83764399D01*
X172861193Y-83786952D01*
X172899695Y-83802901D01*
X172899697Y-83802901D01*
X173014739Y-83802901D01*
X173014747Y-83802900D01*
X173911041Y-83802900D01*
X173978080Y-83822585D01*
X173998722Y-83839219D01*
X174071913Y-83912410D01*
X174175187Y-83972036D01*
X174290375Y-84002900D01*
X174290377Y-84002900D01*
X174409623Y-84002900D01*
X174409625Y-84002900D01*
X174524813Y-83972036D01*
X174628087Y-83912410D01*
X174712410Y-83828087D01*
X174772036Y-83724813D01*
X174802900Y-83609625D01*
X174802900Y-83490375D01*
X174772036Y-83375187D01*
X174712410Y-83271913D01*
X174628087Y-83187590D01*
X174576450Y-83157777D01*
X174524814Y-83127964D01*
X174418089Y-83099368D01*
X174409625Y-83097100D01*
X174290375Y-83097100D01*
X174175185Y-83127964D01*
X174071913Y-83187590D01*
X174071910Y-83187592D01*
X173998722Y-83260781D01*
X173937399Y-83294266D01*
X173911041Y-83297100D01*
X173106116Y-83297100D01*
X173039077Y-83277415D01*
X173018435Y-83260781D01*
X171781719Y-82024065D01*
X171748234Y-81962742D01*
X171745400Y-81936384D01*
X171745400Y-81832877D01*
X171745400Y-81832875D01*
X171714536Y-81717687D01*
X171654910Y-81614413D01*
X171570587Y-81530090D01*
X171518950Y-81500277D01*
X171467314Y-81470464D01*
X171384986Y-81448405D01*
X171352125Y-81439600D01*
X171232875Y-81439600D01*
X171117685Y-81470464D01*
X171014413Y-81530090D01*
X171014410Y-81530092D01*
X170941222Y-81603281D01*
X170879899Y-81636766D01*
X170853541Y-81639600D01*
X169439572Y-81639600D01*
X169410131Y-81630955D01*
X169380145Y-81624432D01*
X169375129Y-81620677D01*
X169372533Y-81619915D01*
X169351891Y-81603281D01*
X169284696Y-81536086D01*
X169251211Y-81474763D01*
X169248377Y-81448405D01*
X169248377Y-81344900D01*
X169248377Y-81344898D01*
X169217513Y-81229710D01*
X169157887Y-81126436D01*
X169073564Y-81042113D01*
X169021927Y-81012300D01*
X168970291Y-80982487D01*
X168912696Y-80967055D01*
X168855102Y-80951623D01*
X168735852Y-80951623D01*
X168620662Y-80982487D01*
X168517390Y-81042113D01*
X168517387Y-81042115D01*
X168433069Y-81126433D01*
X168433067Y-81126436D01*
X168373441Y-81229708D01*
X168342577Y-81344898D01*
X156450600Y-81344898D01*
X156450600Y-74786000D01*
X156470285Y-74718961D01*
X156523089Y-74673206D01*
X156574600Y-74662000D01*
X157289980Y-74662000D01*
X157289982Y-74662000D01*
X157363674Y-74631476D01*
X157420076Y-74575074D01*
X157450600Y-74501382D01*
X157450600Y-70624500D01*
X157470285Y-70557461D01*
X157523089Y-70511706D01*
X157574600Y-70500500D01*
X180925600Y-70500500D01*
X180992639Y-70520185D01*
G37*
%TD.AperFunction*%
%TD*%
%TA.AperFunction,Conductor*%
%TO.N,+3.3V*%
G36*
X178554604Y-83709224D02*
G01*
X178576352Y-83715052D01*
X178576353Y-83715052D01*
X178598097Y-83720878D01*
X178628001Y-83733264D01*
X178640469Y-83740463D01*
X178640479Y-83740469D01*
X178666995Y-83755778D01*
X178692678Y-83775485D01*
X178740903Y-83823710D01*
X178745714Y-83828801D01*
X178770727Y-83856813D01*
X178770731Y-83856816D01*
X178770735Y-83856821D01*
X178807108Y-83886132D01*
X178828492Y-83903364D01*
X178842661Y-83923772D01*
X178860065Y-83941502D01*
X178862241Y-83951971D01*
X178868340Y-83960756D01*
X178869226Y-83985582D01*
X178874283Y-84009910D01*
X178870452Y-84019896D01*
X178870834Y-84030581D01*
X178858158Y-84051945D01*
X178849259Y-84075145D01*
X178838146Y-84085675D01*
X178835182Y-84090671D01*
X178824072Y-84099869D01*
X178822306Y-84101165D01*
X178805877Y-84112358D01*
X178801910Y-84116140D01*
X178795490Y-84120854D01*
X178795084Y-84121001D01*
X178791674Y-84123576D01*
X178757842Y-84153144D01*
X178757839Y-84153147D01*
X178750307Y-84161914D01*
X178750298Y-84161926D01*
X178744260Y-84170443D01*
X178741060Y-84174756D01*
X178736288Y-84180903D01*
X178724244Y-84192948D01*
X178716105Y-84201728D01*
X178713052Y-84205283D01*
X178706229Y-84213808D01*
X178695973Y-84227571D01*
X178690134Y-84239265D01*
X178683989Y-84248158D01*
X178683890Y-84248410D01*
X178683888Y-84248414D01*
X178679972Y-84258462D01*
X178675386Y-84268806D01*
X178671084Y-84277422D01*
X178668005Y-84287908D01*
X178664568Y-84297986D01*
X178657499Y-84316123D01*
X178656752Y-84321485D01*
X178652921Y-84339279D01*
X178651397Y-84344469D01*
X178651395Y-84344478D01*
X178645000Y-84388959D01*
X178645000Y-85845186D01*
X178645001Y-85845221D01*
X178645001Y-85893717D01*
X178640774Y-85925818D01*
X178639342Y-85931161D01*
X178626955Y-85961061D01*
X178624190Y-85965850D01*
X178604485Y-85991530D01*
X176791530Y-87804485D01*
X176765850Y-87824190D01*
X176761061Y-87826955D01*
X176731166Y-87839340D01*
X176725824Y-87840772D01*
X176693718Y-87845001D01*
X176645434Y-87845001D01*
X176645371Y-87845000D01*
X176643465Y-87845000D01*
X176626900Y-87845000D01*
X176626898Y-87845000D01*
X176604436Y-87846606D01*
X176604424Y-87846607D01*
X176569491Y-87851630D01*
X176564749Y-87853398D01*
X176563859Y-87853731D01*
X176563856Y-87853732D01*
X176563855Y-87853731D01*
X176552427Y-87857992D01*
X176552327Y-87857529D01*
X176541813Y-87859817D01*
X176525085Y-87868189D01*
X176518849Y-87870515D01*
X176518848Y-87870515D01*
X176506617Y-87875077D01*
X176506604Y-87875083D01*
X176495575Y-87882170D01*
X176489993Y-87885756D01*
X176471991Y-87894769D01*
X176460555Y-87904676D01*
X176453116Y-87909457D01*
X176447836Y-87912851D01*
X176441606Y-87917068D01*
X176436495Y-87923258D01*
X176422103Y-87937997D01*
X176419163Y-87940545D01*
X176413628Y-87945576D01*
X176413625Y-87945580D01*
X176405737Y-87958518D01*
X176401119Y-87966095D01*
X176389561Y-87980092D01*
X176385799Y-87988328D01*
X176387181Y-87988959D01*
X176376673Y-88006197D01*
X176376671Y-88006198D01*
X176371085Y-88015362D01*
X176371081Y-88015371D01*
X176369313Y-88021393D01*
X176363143Y-88037938D01*
X176360529Y-88043663D01*
X176357575Y-88050560D01*
X176357575Y-88050562D01*
X176356622Y-88058527D01*
X176352483Y-88078708D01*
X176351396Y-88082409D01*
X176351393Y-88082426D01*
X176345000Y-88126895D01*
X176345000Y-89402762D01*
X176340773Y-89434863D01*
X176339341Y-89440206D01*
X176326957Y-89470101D01*
X176324190Y-89474894D01*
X176304482Y-89500579D01*
X176279316Y-89525745D01*
X176279288Y-89525770D01*
X176264123Y-89540936D01*
X174313075Y-91491985D01*
X174287395Y-91511690D01*
X174282606Y-91514455D01*
X174252711Y-91526840D01*
X174247369Y-91528272D01*
X174215263Y-91532501D01*
X174166979Y-91532501D01*
X174166916Y-91532500D01*
X174165010Y-91532500D01*
X172376459Y-91532500D01*
X172359592Y-91533404D01*
X172359541Y-91533408D01*
X172333220Y-91536238D01*
X172333218Y-91536239D01*
X172274432Y-91554647D01*
X172274428Y-91554648D01*
X172213104Y-91588133D01*
X172213101Y-91588135D01*
X172177123Y-91615067D01*
X172173784Y-91617962D01*
X172173289Y-91617391D01*
X172154498Y-91631719D01*
X172115502Y-91654233D01*
X172085600Y-91666619D01*
X172042108Y-91678274D01*
X172010011Y-91682500D01*
X171964989Y-91682500D01*
X171932894Y-91678274D01*
X171889399Y-91666619D01*
X171859494Y-91654232D01*
X171820239Y-91631568D01*
X171799307Y-91615951D01*
X171799107Y-91616175D01*
X171785296Y-91603768D01*
X171764655Y-91587135D01*
X171710065Y-91558580D01*
X171643026Y-91538895D01*
X171643029Y-91538895D01*
X171598543Y-91532500D01*
X171598541Y-91532500D01*
X170889327Y-91532500D01*
X170872460Y-91533404D01*
X170872409Y-91533408D01*
X170846088Y-91536238D01*
X170846086Y-91536239D01*
X170787299Y-91554647D01*
X170787298Y-91554647D01*
X170725972Y-91588133D01*
X170708624Y-91601120D01*
X170689994Y-91615066D01*
X170689992Y-91615067D01*
X170689992Y-91615068D01*
X170689980Y-91615078D01*
X167700575Y-94604485D01*
X167674895Y-94624190D01*
X167670106Y-94626955D01*
X167640211Y-94639340D01*
X167634869Y-94640772D01*
X167602763Y-94645001D01*
X167554479Y-94645001D01*
X167554416Y-94645000D01*
X167552510Y-94645000D01*
X166888959Y-94645000D01*
X166872092Y-94645904D01*
X166872041Y-94645908D01*
X166845720Y-94648738D01*
X166845718Y-94648739D01*
X166786932Y-94667147D01*
X166786928Y-94667148D01*
X166725604Y-94700633D01*
X166725601Y-94700635D01*
X166689623Y-94727567D01*
X166686284Y-94730462D01*
X166685789Y-94729891D01*
X166666998Y-94744219D01*
X166628002Y-94766733D01*
X166598100Y-94779119D01*
X166554608Y-94790774D01*
X166522511Y-94795000D01*
X166477489Y-94795000D01*
X166445394Y-94790774D01*
X166401899Y-94779119D01*
X166371994Y-94766732D01*
X166333002Y-94744220D01*
X166333001Y-94744219D01*
X166307321Y-94724514D01*
X166275485Y-94692678D01*
X166255778Y-94666995D01*
X166240469Y-94640479D01*
X166240463Y-94640469D01*
X166233264Y-94628001D01*
X166220879Y-94598101D01*
X166209223Y-94554600D01*
X166205000Y-94522513D01*
X166205000Y-94477484D01*
X166209225Y-94445392D01*
X166220877Y-94401904D01*
X166233264Y-94371997D01*
X166245236Y-94351261D01*
X166255781Y-94332996D01*
X166275481Y-94307323D01*
X166307323Y-94275481D01*
X166332996Y-94255781D01*
X166371997Y-94233263D01*
X166401905Y-94220877D01*
X166445394Y-94209225D01*
X166477485Y-94205000D01*
X166522513Y-94205000D01*
X166554595Y-94209223D01*
X166554603Y-94209224D01*
X166576352Y-94215052D01*
X166576353Y-94215052D01*
X166598097Y-94220878D01*
X166628001Y-94233264D01*
X166640465Y-94240460D01*
X166640472Y-94240465D01*
X166647498Y-94244521D01*
X166647499Y-94244522D01*
X166667261Y-94255931D01*
X166688191Y-94271549D01*
X166688393Y-94271325D01*
X166689622Y-94272429D01*
X166689626Y-94272433D01*
X166702202Y-94283730D01*
X166722844Y-94300364D01*
X166777433Y-94328919D01*
X166844472Y-94348604D01*
X166844470Y-94348604D01*
X166859409Y-94350751D01*
X166888959Y-94355000D01*
X167423172Y-94355000D01*
X167440052Y-94354095D01*
X167466410Y-94351261D01*
X167525204Y-94332851D01*
X167586527Y-94299366D01*
X167622505Y-94272433D01*
X169881206Y-92013733D01*
X169885113Y-92009684D01*
X169891145Y-92003206D01*
X169919217Y-91961197D01*
X169948242Y-91897641D01*
X169951201Y-91890731D01*
X169960904Y-91809574D01*
X169950960Y-91740416D01*
X169950956Y-91740390D01*
X169949715Y-91733007D01*
X169949714Y-91733006D01*
X169914000Y-91659486D01*
X169877524Y-91617391D01*
X169868245Y-91606682D01*
X169863190Y-91601122D01*
X169793399Y-91558581D01*
X169726360Y-91538896D01*
X169726357Y-91538895D01*
X169681875Y-91532500D01*
X169681873Y-91532500D01*
X169618596Y-91532500D01*
X169586490Y-91528271D01*
X169581148Y-91526839D01*
X169551258Y-91514457D01*
X169546465Y-91511690D01*
X169520780Y-91491982D01*
X167339448Y-89310649D01*
X167326857Y-89299338D01*
X167306216Y-89282705D01*
X167251626Y-89254150D01*
X167184587Y-89234465D01*
X167184590Y-89234465D01*
X167140104Y-89228070D01*
X167135682Y-89227754D01*
X167135741Y-89226927D01*
X167112324Y-89223844D01*
X167068829Y-89212189D01*
X167038924Y-89199802D01*
X166999932Y-89177290D01*
X166974251Y-89157584D01*
X166942414Y-89125747D01*
X166922707Y-89100064D01*
X166900194Y-89061069D01*
X166887807Y-89031163D01*
X166876155Y-88987675D01*
X166871930Y-88955583D01*
X166871930Y-88910554D01*
X166876155Y-88878462D01*
X166887807Y-88834974D01*
X166900194Y-88805067D01*
X166900196Y-88805064D01*
X166922711Y-88766066D01*
X166942411Y-88740393D01*
X166974253Y-88708551D01*
X166999926Y-88688851D01*
X167038927Y-88666333D01*
X167068835Y-88653947D01*
X167112324Y-88642295D01*
X167144415Y-88638070D01*
X167189443Y-88638070D01*
X167221525Y-88642293D01*
X167221533Y-88642294D01*
X167243282Y-88648122D01*
X167243283Y-88648122D01*
X167265027Y-88653948D01*
X167294931Y-88666334D01*
X167307399Y-88673533D01*
X167307409Y-88673539D01*
X167333925Y-88688848D01*
X167359608Y-88708555D01*
X167391444Y-88740391D01*
X167411150Y-88766072D01*
X167433662Y-88805064D01*
X167446049Y-88834969D01*
X167457783Y-88878759D01*
X167461542Y-88904597D01*
X167461841Y-88904582D01*
X167462834Y-88923108D01*
X167462838Y-88923159D01*
X167465668Y-88949480D01*
X167465669Y-88949482D01*
X167484077Y-89008268D01*
X167484078Y-89008272D01*
X167517563Y-89069596D01*
X167517565Y-89069599D01*
X167544490Y-89105567D01*
X167544506Y-89105585D01*
X169598841Y-91159920D01*
X169598850Y-91159928D01*
X169598855Y-91159933D01*
X169611431Y-91171230D01*
X169632073Y-91187864D01*
X169686662Y-91216419D01*
X169753701Y-91236104D01*
X169753699Y-91236104D01*
X169768638Y-91238251D01*
X169798188Y-91242500D01*
X169798190Y-91242500D01*
X170672618Y-91242500D01*
X170676458Y-91242500D01*
X170676490Y-91242499D01*
X170748510Y-91242499D01*
X170748542Y-91242500D01*
X170752382Y-91242500D01*
X171598541Y-91242500D01*
X171615421Y-91241595D01*
X171641779Y-91238761D01*
X171700573Y-91220351D01*
X171761896Y-91186866D01*
X171797877Y-91159931D01*
X171797880Y-91159928D01*
X171801222Y-91157032D01*
X171801815Y-91157717D01*
X171820505Y-91143276D01*
X171859498Y-91120763D01*
X171889396Y-91108379D01*
X171932899Y-91096723D01*
X171964985Y-91092500D01*
X172010013Y-91092500D01*
X172042104Y-91096724D01*
X172063852Y-91102552D01*
X172063853Y-91102552D01*
X172085597Y-91108378D01*
X172115501Y-91120764D01*
X172127965Y-91127960D01*
X172127972Y-91127965D01*
X172134998Y-91132021D01*
X172134999Y-91132022D01*
X172154761Y-91143431D01*
X172175691Y-91159049D01*
X172175893Y-91158825D01*
X172177121Y-91159928D01*
X172177126Y-91159933D01*
X172189702Y-91171230D01*
X172210344Y-91187864D01*
X172264933Y-91216419D01*
X172331972Y-91236104D01*
X172331970Y-91236104D01*
X172346909Y-91238251D01*
X172376459Y-91242500D01*
X174035672Y-91242500D01*
X174052552Y-91241595D01*
X174078910Y-91238761D01*
X174137704Y-91220351D01*
X174199027Y-91186866D01*
X174235005Y-91159933D01*
X175972433Y-89422505D01*
X175983730Y-89409929D01*
X176000364Y-89389287D01*
X176028919Y-89334698D01*
X176048604Y-89267659D01*
X176055000Y-89223172D01*
X176055000Y-88088959D01*
X176054095Y-88072079D01*
X176051261Y-88045721D01*
X176032851Y-87986927D01*
X175999366Y-87925604D01*
X175992976Y-87917068D01*
X175972439Y-87889633D01*
X175969530Y-87886276D01*
X175970156Y-87885733D01*
X175955780Y-87866998D01*
X175955779Y-87866997D01*
X175955777Y-87866994D01*
X175944522Y-87847499D01*
X175944521Y-87847498D01*
X175933264Y-87828001D01*
X175920879Y-87798101D01*
X175909223Y-87754600D01*
X175905000Y-87722513D01*
X175905000Y-87677484D01*
X175909225Y-87645392D01*
X175920877Y-87601904D01*
X175933264Y-87571997D01*
X175955781Y-87532996D01*
X175975481Y-87507323D01*
X176007323Y-87475481D01*
X176032996Y-87455781D01*
X176071997Y-87433263D01*
X176101905Y-87420877D01*
X176145394Y-87409225D01*
X176177485Y-87405000D01*
X176222513Y-87405000D01*
X176254604Y-87409224D01*
X176276352Y-87415052D01*
X176276353Y-87415052D01*
X176298097Y-87420878D01*
X176328000Y-87433263D01*
X176344866Y-87443001D01*
X176344870Y-87443004D01*
X176351899Y-87447062D01*
X176351900Y-87447063D01*
X176399131Y-87474332D01*
X176399135Y-87474335D01*
X176406172Y-87478398D01*
X176406299Y-87478471D01*
X176408439Y-87479042D01*
X176416381Y-87483262D01*
X176416616Y-87483491D01*
X176418280Y-87484292D01*
X176430580Y-87491106D01*
X176495829Y-87510480D01*
X176565521Y-87515464D01*
X176573027Y-87515821D01*
X176573028Y-87515821D01*
X176612742Y-87506186D01*
X176652458Y-87496551D01*
X176713781Y-87463066D01*
X176749759Y-87436133D01*
X178272433Y-85913460D01*
X178283730Y-85900884D01*
X178300364Y-85880242D01*
X178328919Y-85825653D01*
X178348604Y-85758614D01*
X178355000Y-85714127D01*
X178355000Y-84388959D01*
X178354095Y-84372079D01*
X178351261Y-84345721D01*
X178332851Y-84286927D01*
X178299366Y-84225604D01*
X178281493Y-84201728D01*
X178272439Y-84189633D01*
X178269530Y-84186276D01*
X178270156Y-84185733D01*
X178255778Y-84166996D01*
X178252844Y-84161914D01*
X178237563Y-84135446D01*
X178237562Y-84135445D01*
X178233288Y-84128043D01*
X178220879Y-84098101D01*
X178209223Y-84054600D01*
X178205000Y-84022513D01*
X178205000Y-83977484D01*
X178209225Y-83945392D01*
X178220877Y-83901904D01*
X178233264Y-83871997D01*
X178242026Y-83856821D01*
X178255781Y-83832996D01*
X178275481Y-83807323D01*
X178307323Y-83775481D01*
X178332996Y-83755781D01*
X178371997Y-83733263D01*
X178401905Y-83720877D01*
X178445394Y-83709225D01*
X178477485Y-83705000D01*
X178522513Y-83705000D01*
X178554604Y-83709224D01*
G37*
%TD.AperFunction*%
%TA.AperFunction,Conductor*%
G36*
X174404598Y-83259223D02*
G01*
X174448104Y-83270879D01*
X174478001Y-83283264D01*
X174490469Y-83290463D01*
X174490479Y-83290469D01*
X174516995Y-83305778D01*
X174542678Y-83325485D01*
X174574514Y-83357321D01*
X174594220Y-83383002D01*
X174616732Y-83421994D01*
X174629119Y-83451899D01*
X174640774Y-83495394D01*
X174645000Y-83527489D01*
X174645000Y-83572509D01*
X174640774Y-83604604D01*
X174629119Y-83648099D01*
X174616732Y-83678004D01*
X174594220Y-83716996D01*
X174574514Y-83742677D01*
X174542677Y-83774514D01*
X174516995Y-83794221D01*
X174478002Y-83816733D01*
X174448100Y-83829119D01*
X174404608Y-83840774D01*
X174372511Y-83845000D01*
X174327489Y-83845000D01*
X174295394Y-83840774D01*
X174251899Y-83829119D01*
X174221994Y-83816732D01*
X174183002Y-83794220D01*
X174157320Y-83774513D01*
X174110387Y-83727579D01*
X174097796Y-83716268D01*
X174077155Y-83699635D01*
X174022564Y-83671079D01*
X174017244Y-83669517D01*
X173958467Y-83631741D01*
X173929444Y-83568184D01*
X173939389Y-83499026D01*
X173985146Y-83446224D01*
X174007662Y-83435699D01*
X174007464Y-83435233D01*
X174013065Y-83432853D01*
X174013073Y-83432851D01*
X174074396Y-83399366D01*
X174110375Y-83372432D01*
X174113942Y-83368865D01*
X174157320Y-83325486D01*
X174183002Y-83305778D01*
X174202500Y-83294521D01*
X174221996Y-83283264D01*
X174251905Y-83270877D01*
X174295394Y-83259225D01*
X174327485Y-83255000D01*
X174372514Y-83255000D01*
X174404598Y-83259223D01*
G37*
%TD.AperFunction*%
%TA.AperFunction,Conductor*%
G36*
X171347105Y-81601725D02*
G01*
X171348533Y-81602107D01*
X171390597Y-81613378D01*
X171420501Y-81625764D01*
X171432969Y-81632963D01*
X171432979Y-81632969D01*
X171459495Y-81648278D01*
X171485178Y-81667985D01*
X171517014Y-81699821D01*
X171536720Y-81725502D01*
X171559232Y-81764494D01*
X171571619Y-81794399D01*
X171583274Y-81837894D01*
X171587500Y-81869989D01*
X171587500Y-81936383D01*
X171588404Y-81953250D01*
X171588408Y-81953301D01*
X171591238Y-81979622D01*
X171591239Y-81979624D01*
X171609647Y-82038410D01*
X171609651Y-82038421D01*
X171612305Y-82043281D01*
X171627155Y-82111554D01*
X171602736Y-82177018D01*
X171546801Y-82218887D01*
X171477109Y-82223869D01*
X171453741Y-82215390D01*
X171453552Y-82215859D01*
X171447910Y-82213580D01*
X171380869Y-82193895D01*
X171380872Y-82193895D01*
X171336386Y-82187500D01*
X171336384Y-82187500D01*
X171269989Y-82187500D01*
X171237894Y-82183274D01*
X171194399Y-82171619D01*
X171164494Y-82159232D01*
X171125502Y-82136720D01*
X171099820Y-82117013D01*
X171052887Y-82070079D01*
X171040296Y-82058768D01*
X171019655Y-82042135D01*
X170965064Y-82013579D01*
X170959744Y-82012017D01*
X170900967Y-81974241D01*
X170871944Y-81910684D01*
X170881889Y-81841526D01*
X170927646Y-81788724D01*
X170950162Y-81778199D01*
X170949964Y-81777733D01*
X170955565Y-81775353D01*
X170955573Y-81775351D01*
X171016896Y-81741866D01*
X171052875Y-81714932D01*
X171062109Y-81705698D01*
X171099820Y-81667986D01*
X171125502Y-81648278D01*
X171126438Y-81647738D01*
X171164496Y-81625764D01*
X171194405Y-81613377D01*
X171237894Y-81601725D01*
X171269985Y-81597500D01*
X171315012Y-81597500D01*
X171347105Y-81601725D01*
G37*
%TD.AperFunction*%
%TA.AperFunction,Conductor*%
G36*
X168850081Y-81113747D02*
G01*
X168871829Y-81119575D01*
X168871830Y-81119575D01*
X168893574Y-81125401D01*
X168923478Y-81137787D01*
X168935946Y-81144986D01*
X168935956Y-81144992D01*
X168962472Y-81160301D01*
X168988155Y-81180008D01*
X169019991Y-81211844D01*
X169039697Y-81237525D01*
X169062209Y-81276517D01*
X169074596Y-81306422D01*
X169086251Y-81349917D01*
X169090477Y-81382012D01*
X169090477Y-81448404D01*
X169091381Y-81465271D01*
X169091385Y-81465322D01*
X169094215Y-81491643D01*
X169094216Y-81491645D01*
X169112624Y-81550431D01*
X169112627Y-81550440D01*
X169115279Y-81555296D01*
X169121190Y-81582471D01*
X169130302Y-81608748D01*
X169128513Y-81616138D01*
X169130130Y-81623569D01*
X169120411Y-81649625D01*
X169113870Y-81676658D01*
X169108369Y-81681909D01*
X169105712Y-81689033D01*
X169083448Y-81705698D01*
X169063331Y-81724903D01*
X169055865Y-81726346D01*
X169049777Y-81730904D01*
X169022031Y-81732887D01*
X168994732Y-81738166D01*
X168985695Y-81735485D01*
X168980086Y-81735887D01*
X168960428Y-81729866D01*
X168954562Y-81727521D01*
X168950910Y-81725611D01*
X168948313Y-81724848D01*
X168948266Y-81725005D01*
X168941209Y-81722185D01*
X168940480Y-81721612D01*
X168935730Y-81719840D01*
X168932356Y-81718300D01*
X168932352Y-81718299D01*
X168932350Y-81718298D01*
X168912287Y-81713933D01*
X168903909Y-81711801D01*
X168899270Y-81710447D01*
X168899246Y-81710431D01*
X168899194Y-81710416D01*
X168899082Y-81710392D01*
X168883847Y-81705919D01*
X168883841Y-81705918D01*
X168839362Y-81699523D01*
X168839361Y-81699523D01*
X168772966Y-81699523D01*
X168740871Y-81695297D01*
X168697376Y-81683642D01*
X168667471Y-81671255D01*
X168628479Y-81648743D01*
X168602798Y-81629037D01*
X168570962Y-81597201D01*
X168551257Y-81571522D01*
X168543120Y-81557429D01*
X168543117Y-81557423D01*
X168539989Y-81552005D01*
X168539988Y-81552002D01*
X168528741Y-81532524D01*
X168516353Y-81502613D01*
X168510530Y-81480878D01*
X168510530Y-81480879D01*
X168504702Y-81459128D01*
X168500477Y-81427035D01*
X168500477Y-81382007D01*
X168504702Y-81349915D01*
X168516354Y-81306427D01*
X168528741Y-81276520D01*
X168528743Y-81276517D01*
X168551258Y-81237519D01*
X168570958Y-81211846D01*
X168602800Y-81180004D01*
X168628473Y-81160304D01*
X168667474Y-81137786D01*
X168697382Y-81125400D01*
X168740871Y-81113748D01*
X168772962Y-81109523D01*
X168817990Y-81109523D01*
X168850081Y-81113747D01*
G37*
%TD.AperFunction*%
%TD*%
M02*
