M48
; DRILL file KiCad 10.0.1 date 2026-08-17T12:55:00
; FORMAT={-:-/ absolute / metric / decimal}
; #@! TF.CreationDate,2026-08-17T12:55:00+02:00
; #@! TF.GenerationSoftware,Kicad,Pcbnew,10.0.1
; #@! TF.FileFunction,Plated,1,2,PTH
FMAT,2
METRIC
; #@! TA.AperFunction,Plated,PTH,ComponentDrill
T1C0.250
; #@! TA.AperFunction,Plated,PTH,ViaDrill
T2C0.300
%
G90
G05
T1
X103.5Y-72.5
X103.5Y-73.875
X103.5Y-75.25
X104.875Y-72.5
X104.875Y-73.875
X104.875Y-75.25
X106.25Y-72.5
X106.25Y-73.875
X106.25Y-75.25
T2
X92.787Y-83.325
X94.387Y-59.225
X95.787Y-82.725
X96.587Y-80.325
X96.6Y-68.2
X96.787Y-77.025
X97.487Y-80.125
X98.206Y-69.606
X98.587Y-64.825
X98.6Y-70.4
X98.688Y-59.725
X98.688Y-85.525
X99.387Y-81.725
X99.587Y-77.125
X99.887Y-62.725
X100.987Y-80.825
X101.2Y-68.0
X101.4Y-65.8
X102.188Y-81.525
X102.2Y-64.2
X102.219Y-73.05
X102.587Y-72.125
X102.854Y-75.958
X104.483Y-68.43
X104.886Y-76.541
X106.123Y-71.373
X106.287Y-67.525
X106.367Y-83.775
X106.487Y-76.025
X106.98Y-68.918
X107.275Y-71.4
X107.287Y-73.525
X107.287Y-76.025
X107.675Y-78.412
X107.787Y-79.925
X109.387Y-77.625
X109.6Y-70.2
X109.7Y-69.3
X110.287Y-79.025
X110.688Y-66.225
X111.387Y-64.525
X111.4Y-73.8
X111.6Y-72.0
X111.6Y-74.8
X111.8Y-68.4
X112.4Y-72.0
X112.487Y-63.425
X113.2Y-71.0
X115.387Y-63.425
X116.087Y-65.625
X116.8Y-73.2
M30
